<?xml version="1.0" standalone="no"?>
<!DOCTYPE svg PUBLIC "-//W3C//DTD SVG 1.1//EN" "http://www.w3.org/Graphics/SVG/1.1/DTD/svg11.dtd" >
<svg xmlns="http://www.w3.org/2000/svg" xmlns:xlink="http://www.w3.org/1999/xlink" version="1.1">
<metadata>
Created by FontForge 20170731 at Sat Oct 31 22:43:14 2009
 By Aleksey,,,
Copyright (c) 2001-2009 Typotheque.com All rights reserved. Cyrillic designed by Alexei Kassian and Gayaneh Bagdasaryan.
</metadata>
<defs>
<font id="FedraSansAltPro-DemiItalic" horiz-adv-x="569" >
  <font-face 
    font-family="Fedra Sans Alt Pro Demi"
    font-weight="450"
    font-style="italic"
    font-stretch="normal"
    units-per-em="1000"
    panose-1="2 0 5 3 2 0 0 9 0 4"
    ascent="780"
    descent="-220"
    x-height="546"
    cap-height="708"
    bbox="-483 -287 1363 1077"
    underline-thickness="50"
    underline-position="-200"
    slope="-6"
    unicode-range="U+0020-FB04"
  />
<missing-glyph horiz-adv-x="712" 
d="M305 375v27h27v-27h-27zM380 525v27h27v-27h-27zM305 525v27h27v-27h-27zM230 525v27h27v-27h-27zM80 0v27h27v-27h-27zM155 0v27h27v-27h-27zM230 0v27h27v-27h-27zM305 0v27h27v-27h-27zM380 0v27h27v-27h-27zM80 75v27h27v-27h-27zM80 150v27h27v-27h-27zM80 225v27
h27v-27h-27zM80 300v27h27v-27h-27zM80 375v27h27v-27h-27zM80 450v27h27v-27h-27zM80 525v27h27v-27h-27zM80 600v27h27v-27h-27zM80 675v27h27v-27h-27zM155 675v27h27v-27h-27zM230 675v27h27v-27h-27zM305 675v27h27v-27h-27zM380 675v27h27v-27h-27zM455 675v27h27v-27
h-27zM530 675v27h27v-27h-27zM530 0v27h27v-27h-27zM455 0v27h27v-27h-27zM605 0v27h27v-27h-27zM605 675v27h27v-27h-27zM305 300v27h27v-27h-27zM305 150v27h27v-27h-27zM380 375v27h27v-27h-27zM455 375v27h27v-27h-27zM455 450v27h27v-27h-27zM455 525v27h27v-27h-27z
M605 600v27h27v-27h-27zM605 525v27h27v-27h-27zM605 375v27h27v-27h-27zM605 300v27h27v-27h-27zM605 150v27h27v-27h-27zM605 75v27h27v-27h-27zM605 225v27h27v-27h-27zM605 450v27h27v-27h-27z" />
    <glyph glyph-name="f_f" unicode="ff" horiz-adv-x="643" 
d="M51 -189l69 658h-80l8 77h80l4 41q6 58 26.5 96.5t54 57.5t67.5 26t79 7q90 0 169 -30q51 30 143 30q28 0 69.5 -8t59.5 -15l-27 -77q-60 15 -108 15q-114 0 -125 -102l-4 -41h120l-9 -77h-119l-70 -658h-96l70 658h-216l-70 -658h-95zM224 546h216l4 41q4 50 25 87
q-64 15 -115 15q-115 0 -126 -102z" />
    <glyph glyph-name="fi" unicode="fi" horiz-adv-x="587" 
d="M50 -189l69 658h-80l9 77h80l2 24q22 204 215 204q18 0 67 -3t76 -3q15 -1 85 5l10 -73q-51 -17 -124 -17q-23 0 -65 2.5t-60 2.5q-52 0 -76 -29.5t-31 -89.5l-2 -23h314l-58 -546h-98l49 469h-215l-70 -658h-97z" />
    <glyph glyph-name="fl" unicode="fl" horiz-adv-x="586" 
d="M50 -189l69 658h-80l9 77h80l2 24q22 204 215 204q19 0 66 -3.5t72 -3.5q37 0 80 5l-82 -772h-98l72 684q-21 -1 -62 1.5t-59 2.5q-52 0 -76 -29.5t-31 -89.5l-2 -23h116l-8 -77h-116l-70 -658h-97z" />
    <glyph glyph-name="f_f_i" unicode="ffi" horiz-adv-x="899" 
d="M51 -189l69 658h-80l9 77h79l4 41q6 57 27 96t54 58t67 26t79 7q27 0 89 -11.5t82 -19.5q44 31 127 31q18 0 67 -2.5t76 -2.5q36 0 86 4l6 -73q-46 -17 -120 -17q-23 0 -65 2.5t-61 2.5q-52 0 -76 -29.5t-30 -89.5l-3 -23h314l-58 -546h-98l50 469h-216l-69 -658h-98
l69 658h-215l-70 -658h-95zM224 546h216l3 24q5 60 28 102q-83 17 -118 17q-114 0 -125 -102z" />
    <glyph glyph-name="f_f_l" unicode="ffl" horiz-adv-x="899" 
d="M51 -189l69 658h-80l9 77h79l4 41q6 57 27 96t54 58t67 26t79 7q41 0 96 -10.5t76 -19.5q49 30 125 30q20 0 66 -3.5t72 -3.5q37 0 80 5l-81 -772h-98l72 684q-21 -1 -62 1.5t-59 2.5q-52 0 -76 -29.5t-30 -89.5l-3 -23h116l-8 -77h-116l-69 -658h-98l69 658h-215
l-70 -658h-95zM224 546h215l3 24q5 58 29 104q-71 15 -117 15q-115 0 -126 -102z" />
    <glyph glyph-name="f_idieresis" unicode="f&#xef;" horiz-adv-x="587" 
d="M51 -189l68 658h-80l9 77h80l4 49q17 179 163 179q47 0 95 -20l-27 -78q-33 13 -68 13q-57 0 -66 -90l-5 -53h119l-8 -77h-119l-70 -658h-95zM383 0l57 546h99l-58 -546h-98zM404 662l11 108h99l-11 -108h-99zM552 662l11 108h99l-11 -108h-99z" />
    <glyph glyph-name="f_igrave" unicode="f&#xec;" horiz-adv-x="587" 
d="M51 -189l68 658h-80l9 77h80l4 49q17 179 163 179q47 0 95 -20l-27 -78q-33 13 -68 13q-57 0 -66 -90l-5 -53h119l-8 -77h-119l-70 -658h-95zM532 611l-126 137l64 59l110 -149zM383 0l57 546h99l-58 -546h-98z" />
    <glyph glyph-name="f_h" unicode="fh" horiz-adv-x="882" 
d="M50 -189l69 658h-80l9 77h80l2 24q22 204 215 204q19 0 66 -3.5t72 -3.5q37 0 80 5l-32 -308q2 1 20 14t26.5 18.5t27 17.5t31 18t29.5 13.5t32 11t28 3.5q56 0 78.5 -22t22.5 -74q0 -25 -5 -70l-42 -394h-98l41 375q4 46 4 54q0 21 -8 29.5t-31 8.5q-17 0 -50.5 -17
t-73 -42.5t-41.5 -26.5l-40 -381h-99l72 685q-12 -1 -64 1t-57 2q-52 0 -76 -29.5t-31 -89.5l-2 -23h116l-8 -77h-116l-70 -658h-97z" />
    <glyph glyph-name="f_b" unicode="fb" horiz-adv-x="877" 
d="M540 -9q-70 0 -154 24l70 669q-22 -1 -63 1.5t-59 2.5q-52 0 -76 -29.5t-31 -89.5l-2 -23h116l-8 -77h-116l-70 -658h-97l69 658h-80l9 77h80l2 24q22 204 215 204q19 0 66 -3.5t72 -3.5q37 0 80 5l-30 -290q99 69 173 69q130 0 130 -164q0 -68 -17 -135t-51 -127
t-93 -97t-135 -37zM546 71q52 0 91.5 32.5t60 83t30.5 101.5t10 98q0 46 -15 64t-43 18q-52 0 -157 -65l-34 -324q35 -8 57 -8z" />
    <glyph glyph-name="f_j" unicode="fj" horiz-adv-x="588" 
d="M269 -224q-46 0 -79 14l26 78q19 -7 59 -7q53 0 78 30.5t31 92.5l49 485h-216l-68 -658h-97l68 658h-80l8 77h80l2 24q22 204 215 204q18 0 66.5 -2.5t76.5 -2.5q35 0 85 4l7 -73q-46 -17 -120 -17q-24 0 -65.5 2.5t-59.5 2.5q-52 0 -76.5 -29.5t-30.5 -89.5l-3 -23h314
l-58 -562q-12 -116 -67 -162t-145 -46z" />
    <glyph glyph-name="f_k" unicode="fk" horiz-adv-x="842" 
d="M50 -189l70 658h-80l8 77h80l2 24q22 204 215 204q19 0 66 -3.5t72 -3.5q35 0 80 5l-82 -772h-97l72 684q-22 -1 -63 1.5t-59 2.5q-52 0 -76 -29.5t-30 -89.5l-3 -23h116l-8 -77h-116l-69 -658h-98zM702 -10l-180 294l198 262h111l-199 -255l173 -283z" />
    <glyph glyph-name="f_f_j" unicode="ffj" horiz-adv-x="899" 
d="M51 -189l69 658h-80l9 77h79l4 41q6 57 27 96t54 58t67 26t79 7q27 0 89 -11.5t82 -19.5q44 31 127 31q18 0 67 -2.5t76 -2.5q36 0 86 4l6 -73q-46 -17 -120 -17q-23 0 -65 2.5t-61 2.5q-52 0 -76 -29.5t-30 -89.5l-3 -23h314l-59 -559q-12 -116 -65 -161.5t-142 -45.5
q-51 0 -89 16l25 80q41 -11 70 -11q53 0 75 29.5t28 93.5l50 481h-215l-69 -658h-98l69 658h-215l-70 -658h-95zM224 546h216l3 24q5 60 28 102q-83 17 -118 17q-114 0 -125 -102z" />
    <glyph glyph-name="aogonek_j" unicode="&#x105;j" horiz-adv-x="798" 
d="M389 -244q-76 0 -114 29.5t-38 82.5q0 38 24.5 74.5t63.5 61.5l9 87q-112 -104 -181 -104q-119 0 -119 168q0 97 39.5 186.5t118 149.5t177.5 60q63 0 109 -8l-57 -543q-85 -51 -88 -107q-1 -26 18 -40.5t56 -14.5q69 0 117 34.5t56 105.5l59 568h98l-60 -569
q-5 -50 -25.5 -89.5t-49.5 -63.5t-66 -40t-73 -22t-74 -6zM178 77q29 0 78.5 34.5t86.5 67.5l30 288q-6 1 -27 1q-63 0 -113.5 -47.5t-75.5 -116t-25 -139.5q0 -88 46 -88zM646 662l11 108h99l-11 -108h-99z" />
    <glyph glyph-name=".notdef" horiz-adv-x="712" 
d="M305 375v27h27v-27h-27zM380 525v27h27v-27h-27zM305 525v27h27v-27h-27zM230 525v27h27v-27h-27zM80 0v27h27v-27h-27zM155 0v27h27v-27h-27zM230 0v27h27v-27h-27zM305 0v27h27v-27h-27zM380 0v27h27v-27h-27zM80 75v27h27v-27h-27zM80 150v27h27v-27h-27zM80 225v27
h27v-27h-27zM80 300v27h27v-27h-27zM80 375v27h27v-27h-27zM80 450v27h27v-27h-27zM80 525v27h27v-27h-27zM80 600v27h27v-27h-27zM80 675v27h27v-27h-27zM155 675v27h27v-27h-27zM230 675v27h27v-27h-27zM305 675v27h27v-27h-27zM380 675v27h27v-27h-27zM455 675v27h27v-27
h-27zM530 675v27h27v-27h-27zM530 0v27h27v-27h-27zM455 0v27h27v-27h-27zM605 0v27h27v-27h-27zM605 675v27h27v-27h-27zM305 300v27h27v-27h-27zM305 150v27h27v-27h-27zM380 375v27h27v-27h-27zM455 375v27h27v-27h-27zM455 450v27h27v-27h-27zM455 525v27h27v-27h-27z
M605 600v27h27v-27h-27zM605 525v27h27v-27h-27zM605 375v27h27v-27h-27zM605 300v27h27v-27h-27zM605 150v27h27v-27h-27zM605 75v27h27v-27h-27zM605 225v27h27v-27h-27zM605 450v27h27v-27h-27z" />
    <glyph glyph-name=".null" horiz-adv-x="0" 
 />
    <glyph glyph-name="nonmarkingreturn" horiz-adv-x="333" 
 />
    <glyph glyph-name="space" unicode=" " horiz-adv-x="246" 
 />
    <glyph glyph-name="exclam" unicode="!" horiz-adv-x="287" 
d="M87 182l11 151l40 374h97l-40 -374l-21 -151h-87zM58 0l11 100h106l-11 -100h-106z" />
    <glyph glyph-name="quotedbl" unicode="&#x22;" horiz-adv-x="350" 
d="M79 547l19 214h88l-33 -214h-74zM245 547l19 214h87l-32 -214h-74z" />
    <glyph glyph-name="numbersign" unicode="#" horiz-adv-x="620" 
d="M93 0l23 141h-88l8 80h93l20 120h-100l8 80h106l23 146h91l-23 -146h158l22 146h92l-23 -146h84l-8 -80h-90l-20 -120h97l-9 -80h-101l-22 -141h-92l22 141h-157l-22 -141h-92zM220 221h158l19 120h-157z" />
    <glyph glyph-name="dollar" unicode="$" horiz-adv-x="504" 
d="M165 -99l10 94q-99 2 -166 36l35 78q80 -30 140 -35l20 175q-62 25 -98 57.5t-36 88.5q0 66 47.5 103t119.5 49l12 100h77l-11 -97q75 -1 145 -30l-32 -71q-72 21 -122 23l-18 -157q38 -15 58.5 -25.5t48 -28.5t40.5 -41t13 -52q0 -77 -57 -120t-139 -51l-11 -96h-76z
M345 154q0 36 -68 66l-16 -142q84 16 84 76zM171 407q0 -31 44 -58l13 118q-57 -15 -57 -60z" />
    <glyph glyph-name="percent" unicode="%" horiz-adv-x="806" 
d="M209 379q-67 0 -105.5 35t-38.5 101q0 82 50.5 140.5t130.5 58.5q69 0 108 -34t39 -102q0 -84 -50.5 -141.5t-133.5 -57.5zM216 450q46 0 69.5 35t23.5 83q0 77 -69 77q-46 0 -68 -37.5t-22 -86.5q0 -71 66 -71zM566 -9q-67 0 -105 34.5t-38 100.5q0 83 50 141t131 58
q69 0 107.5 -34t38.5 -102q0 -84 -50.5 -141t-133.5 -57zM574 62q45 0 68.5 34.5t23.5 82.5q0 78 -69 78q-45 0 -67.5 -38.5t-22.5 -86.5q0 -70 67 -70zM123 55l-48 54l599 531l48 -54z" />
    <glyph glyph-name="ampersand" unicode="&#x26;" horiz-adv-x="713" 
d="M716 379q-62 -65 -165 -78q9 -22 9 -54q0 -107 -84 -182.5t-217 -75.5q-98 0 -160.5 43t-62.5 118q0 76 39.5 129t114.5 94q-46 35 -68 70.5t-22 88.5q0 88 65.5 135t160.5 47q68 0 120 -33t56 -96l-98 -17q-4 31 -32 49.5t-64 18.5q-48 0 -80 -26.5t-32 -70.5
q0 -43 27.5 -76t71.5 -51t92 -27t96 -9q109 0 181 52zM274 69q53 0 91.5 17t58.5 44.5t29 57t9 60.5t-10 52q-102 5 -187 39q-61 -32 -95 -72t-34 -101q0 -46 37 -71.5t101 -25.5z" />
    <glyph glyph-name="quotesingle" unicode="'" horiz-adv-x="185" 
d="M79 547l19 214h88l-33 -214h-74z" />
    <glyph glyph-name="parenleft" unicode="(" horiz-adv-x="352" 
d="M211 -222q-84 65 -131.5 187t-47.5 238q0 104 32 212.5t98 205.5t154 148l53 -65q-108 -69 -172 -209t-64 -279q0 -100 38.5 -207t106.5 -167z" />
    <glyph glyph-name="parenright" unicode=")" horiz-adv-x="353" 
d="M31 -222l-53 64q106 80 171.5 225.5t65.5 285.5q0 97 -38.5 198t-108.5 153l66 65q87 -57 135 -173.5t48 -238.5q0 -162 -78.5 -327.5t-207.5 -251.5z" />
    <glyph glyph-name="asterisk" unicode="*" horiz-adv-x="425" 
d="M94 461l-32 69l104 42l20 -45zM169 596l-96 43l47 69l81 -66zM182 407l25 106h55l-1 -106h-79zM222 654l-1 108h79l-23 -108h-55zM364 460l-81 65l32 47l95 -43zM317 597l-21 44l93 66l32 -68z" />
    <glyph glyph-name="plus" unicode="+" horiz-adv-x="575" 
d="M213 51l23 211h-210l9 83l210 -2l22 216h85l-25 -217l221 3l-9 -83h-220l-20 -211h-86z" />
    <glyph glyph-name="comma" unicode="," horiz-adv-x="236" 
d="M-15 -142q20 42 31.5 81.5t15.5 68t12 104.5h111q-10 -91 -24.5 -140.5t-59.5 -113.5h-86z" />
    <glyph glyph-name="hyphen" unicode="-" horiz-adv-x="468" 
d="M78 246l9 84h298l-9 -84h-298z" />
    <glyph glyph-name="period" unicode="." horiz-adv-x="236" 
d="M31 0l11 105h113l-11 -105h-113z" />
    <glyph glyph-name="slash" unicode="/" horiz-adv-x="373" 
d="M-13 -62l319 831h90l-319 -831h-90z" />
    <glyph glyph-name="zero" unicode="0" horiz-adv-x="618" 
d="M275 -10q-112 0 -178 62.5t-66 179.5q0 145 82.5 235t224.5 90q111 0 176.5 -62.5t65.5 -180.5q0 -145 -83 -234.5t-222 -89.5zM285 72q91 0 144 66t53 163q0 81 -39.5 127.5t-114.5 46.5q-93 0 -144.5 -64t-51.5 -163q0 -82 38.5 -129t114.5 -47z" />
    <glyph glyph-name="one" unicode="1" horiz-adv-x="356" 
d="M131 0l50 469h-142l7 76l241 7l-58 -552h-98z" />
    <glyph glyph-name="two" unicode="2" horiz-adv-x="481" 
d="M19 0l8 80q17 14 55.5 42.5t65 49t61 51.5t56 57.5t37 59t15.5 63.5q0 73 -91 73q-60 0 -118 -33l-28 70q69 48 161 48t134 -41t42 -101q0 -175 -265 -336h262l-9 -83h-386z" />
    <glyph glyph-name="three" unicode="3" horiz-adv-x="470" 
d="M134 -170q-83 0 -151 34l27 77q64 -26 126 -26q76 0 120 43.5t44 108.5q0 101 -161 115l-2 69q68 13 115 55t47 97q0 74 -94 74q-62 0 -120 -21l-21 72q63 33 156 33q78 0 128 -36t50 -105q0 -58 -34.5 -107t-95.5 -81q132 -45 132 -161q0 -104 -75.5 -172.5
t-190.5 -68.5z" />
    <glyph glyph-name="four" unicode="4" horiz-adv-x="561" 
d="M265 -160l20 191h-281l8 78l274 437h151l-46 -434h118l-8 -81h-118l-20 -191h-98zM109 112h185l38 360z" />
    <glyph glyph-name="five" unicode="5" horiz-adv-x="506" 
d="M173 -171q-93 0 -170 28l25 81q83 -24 152 -24q74 0 117 39.5t43 108.5q0 38 -27.5 68t-73 47t-90.5 26.5t-92 12.5l34 330h349l-8 -80h-257l-17 -172q57 -8 105 -24.5t89 -42.5t64 -65t23 -87q0 -108 -75.5 -177t-190.5 -69z" />
    <glyph glyph-name="six" unicode="6" horiz-adv-x="553" 
d="M264 -12q-216 0 -216 242q0 72 10.5 138.5t36 130.5t64 111t99.5 76t138 29q62 0 100 -17l-27 -82q-42 15 -87 15q-169 0 -217 -219q69 30 139 30q87 0 142.5 -50t55.5 -141q0 -117 -62.5 -190t-175.5 -73zM276 68q63 0 94 50.5t31 120.5q0 122 -122 122q-50 0 -126 -29
q-6 -54 -6 -108q0 -75 33 -115.5t96 -40.5z" />
    <glyph glyph-name="seven" unicode="7" horiz-adv-x="477" 
d="M106 -179l-79 39l331 604h-311l9 82h416l-8 -77z" />
    <glyph glyph-name="eight" unicode="8" horiz-adv-x="542" 
d="M235 -10q-86 0 -144.5 40t-58.5 113q0 139 170 226q-51 38 -78.5 74.5t-27.5 88.5q0 88 65.5 135t160.5 47q71 0 124 -37t53 -104q0 -122 -148 -206q131 -84 131 -178q0 -96 -74.5 -147.5t-172.5 -51.5zM250 69q58 0 95.5 32.5t37.5 88.5q0 11 -4 22.5t-9 20.5t-15.5 20
t-17.5 18t-21 17.5l-20 15t-21 14.5t-17 12q-128 -78 -128 -168q0 -45 34 -69t86 -24zM292 406q107 64 107 156q0 35 -28 54.5t-67 19.5q-49 0 -80.5 -27t-31.5 -74q0 -25 19.5 -52.5t35 -40.5t45.5 -36z" />
    <glyph glyph-name="nine" unicode="9" horiz-adv-x="554" 
d="M152 -167q-59 0 -101 17l28 82q37 -14 86 -14q168 0 216 213q-61 -24 -137 -24q-88 0 -143 49.5t-55 141.5q0 116 62 189t176 73q216 0 216 -242q0 -72 -10.5 -138t-36 -130.5t-64 -111.5t-99.5 -76t-138 -29zM269 187q60 0 125 25q6 55 6 113q0 76 -33 116t-96 40
t-94 -50.5t-31 -121.5q0 -122 123 -122z" />
    <glyph glyph-name="colon" unicode=":" horiz-adv-x="292" 
d="M57 0l12 105h113l-11 -105h-114zM104 441l11 105h113l-11 -105h-113z" />
    <glyph glyph-name="semicolon" unicode=";" horiz-adv-x="289" 
d="M11 -142q20 42 31.5 81.5t15.5 68t12 104.5h110q-10 -91 -24.5 -140.5t-59.5 -113.5h-85zM101 441l12 105h112l-11 -105h-113z" />
    <glyph glyph-name="less" unicode="&#x3c;" horiz-adv-x="500" 
d="M421 59l-389 190l11 109l430 194l-10 -93l-349 -156l317 -151z" />
    <glyph glyph-name="equal" unicode="=" horiz-adv-x="667" 
d="M76 151l8 83h483l-8 -83h-483zM99 372l9 84h482l-8 -84h-483z" />
    <glyph glyph-name="greater" unicode="&#x3e;" horiz-adv-x="500" 
d="M27 59l10 93l348 151l-316 156l10 93l389 -194l-11 -109z" />
    <glyph glyph-name="question" unicode="?" horiz-adv-x="363" 
d="M73 168q-7 24 -7 54q0 43 18 80t44 63t52 49t44 49t18 52q0 28 -16 49.5t-42 33.5t-51.5 18.5t-52.5 9.5l28 83q44 -3 83 -14t75 -31t57.5 -55.5t21.5 -81.5q0 -44 -18.5 -80.5t-45 -61t-54 -47t-48 -50t-23.5 -57.5q-2 -17 2 -51zM50 0l10 100h106l-10 -100h-106z" />
    <glyph glyph-name="at" unicode="@" horiz-adv-x="786" 
d="M329 -73q-134 0 -210.5 70t-76.5 204q0 223 128.5 369t342.5 146q119 0 182.5 -59.5t63.5 -177.5q0 -60 -16 -118t-46.5 -106.5t-82 -78.5t-115.5 -30q-34 0 -56 15.5t-19 47.5q-20 -21 -54 -39.5t-59 -18.5q-90 0 -90 98q0 103 61 176t162 73q61 0 113 -23l-47 -206
q-4 -20 -4 -27q0 -22 16 -22q40 0 70.5 25.5t47.5 65.5t25 80.5t8 78.5q0 175 -170 175q-118 0 -205.5 -61t-129.5 -157.5t-42 -213.5q0 -208 221 -208q77 0 158 19l5 -71q-77 -26 -181 -26zM339 225q39 0 90 44l36 161q-16 4 -28 4q-63 0 -96 -51t-33 -118q0 -20 6 -30
t25 -10z" />
    <glyph glyph-name="A" unicode="A" horiz-adv-x="652" 
d="M-38 0l351 707h142l152 -707h-105l-51 252h-263l-123 -252h-103zM227 330h208l-47 243l-12 78l-34 -79z" />
    <glyph glyph-name="B" unicode="B" horiz-adv-x="625" 
d="M61 0l74 707h206q212 0 212 -159q0 -57 -29 -104t-80 -64v-3q56 -10 90 -51t34 -98q0 -116 -74.5 -172t-196.5 -56h-236zM172 82h114q85 0 131.5 29t46.5 110q0 30 -12.5 51t-29 31t-45.5 15.5t-47.5 6.5t-49.5 1h-83zM205 402h90q76 0 113.5 30.5t37.5 103.5
q0 54 -37 73.5t-99 19.5h-81z" />
    <glyph glyph-name="C" unicode="C" horiz-adv-x="642" 
d="M380 -10q-150 0 -238.5 83t-88.5 234q0 189 106.5 298t293.5 109q99 0 172 -31l-33 -77q-69 22 -147 22q-137 0 -212.5 -85t-75.5 -225q0 -117 67.5 -178.5t183.5 -61.5q87 0 155 20l18 -81q-87 -27 -201 -27z" />
    <glyph glyph-name="D" unicode="D" horiz-adv-x="737" 
d="M61 0l74 707h203q159 0 257.5 -76.5t98.5 -233.5q0 -197 -111 -297t-311 -100h-211zM170 82h120q148 0 225 78t77 230q0 122 -70.5 178.5t-194.5 56.5h-99z" />
    <glyph glyph-name="E" unicode="E" horiz-adv-x="573" 
d="M61 0l74 707h410l-8 -81h-309l-24 -231h287l-9 -80h-286l-25 -234h332l-8 -81h-434z" />
    <glyph glyph-name="F" unicode="F" horiz-adv-x="518" 
d="M61 0l74 707h387l-9 -81h-285l-26 -250h263l-8 -80h-264l-31 -296h-101z" />
    <glyph glyph-name="G" unicode="G" horiz-adv-x="671" 
d="M380 -10q-150 0 -238.5 83t-88.5 233q0 190 107 299t295 109q103 0 176 -31l-36 -77q-71 22 -148 22q-138 0 -213.5 -84t-75.5 -226q0 -116 67 -178t183 -62q42 0 82 9l26 263h101l-33 -324q-93 -36 -204 -36z" />
    <glyph glyph-name="H" unicode="H" horiz-adv-x="750" 
d="M61 0l74 707h101l-32 -312h360l33 312h102l-74 -707h-102l34 314h-361l-34 -314h-101z" />
    <glyph glyph-name="I" unicode="I" horiz-adv-x="287" 
d="M61 0l74 707h101l-74 -707h-101z" />
    <glyph glyph-name="J" unicode="J" horiz-adv-x="288" 
d="M-62 -189l-32 73q91 49 126 105.5t47 161.5l58 556h101l-58 -554q-5 -50 -14 -89t-26.5 -78.5t-43 -69.5t-65.5 -57.5t-93 -47.5z" />
    <glyph glyph-name="K" unicode="K" horiz-adv-x="625" 
d="M484 -25l-271 394l1 12l307 326h126l-317 -328l250 -356zM61 0l74 707h101l-74 -707h-101z" />
    <glyph glyph-name="L" unicode="L" horiz-adv-x="502" 
d="M61 0l74 707h101l-65 -623h307l-9 -84h-408z" />
    <glyph glyph-name="M" unicode="M" horiz-adv-x="913" 
d="M-1 0l237 707h127l49 -638l280 638h126l-2 -707h-99l11 574l-253 -574h-149l-44 576l-183 -576h-100z" />
    <glyph glyph-name="N" unicode="N" horiz-adv-x="739" 
d="M61 0l75 707h136l255 -609l61 609h101l-76 -707h-142l-248 594l-61 -594h-101z" />
    <glyph glyph-name="O" unicode="O" horiz-adv-x="805" 
d="M361 -11q-146 0 -227 84t-81 231q0 187 107 300.5t292 113.5q147 0 228.5 -83.5t81.5 -230.5q0 -189 -107 -302t-294 -113zM373 71q137 0 210.5 92t73.5 234q0 109 -56 173t-163 64q-135 0 -208.5 -90.5t-73.5 -230.5q0 -110 55 -176t162 -66z" />
    <glyph glyph-name="P" unicode="P" horiz-adv-x="601" 
d="M61 0l75 707h240q98 0 157.5 -50.5t59.5 -146.5q0 -69 -27 -122t-73.5 -83t-103.5 -45t-123 -15h-77l-25 -245h-103zM198 327h77q211 0 211 173q0 126 -140 126h-116z" />
    <glyph glyph-name="Q" unicode="Q" horiz-adv-x="819" 
d="M361 -11q-146 0 -227 84t-81 231q0 187 107 300.5t292 113.5q147 0 228.5 -83.5t81.5 -230.5q0 -192 -108 -303l92 -105l-63 -50l-92 103q-95 -60 -230 -60zM373 71q94 0 159 45l-98 110l66 51l91 -104q66 87 66 224q0 109 -56 173t-163 64q-135 0 -208.5 -90.5
t-73.5 -230.5q0 -110 55 -176t162 -66z" />
    <glyph glyph-name="R" unicode="R" horiz-adv-x="654" 
d="M525 -24l-198 317q-26 -3 -74 -3h-59l-31 -290h-102l74 707h232q97 0 158 -45.5t61 -132.5q0 -74 -39.5 -130.5t-113.5 -81.5l187 -295zM202 368h85q192 0 192 156q0 102 -141 102h-109z" />
    <glyph glyph-name="S" unicode="S" horiz-adv-x="535" 
d="M214 -12q-51 0 -109 14t-97 35l38 82q101 -43 175 -43q69 0 114 27.5t45 91.5q0 35 -30.5 63.5t-73.5 51t-86.5 49t-74 69.5t-30.5 99q0 92 68 140.5t167 48.5q107 0 190 -43l-35 -76q-76 33 -157 33q-134 0 -134 -97q0 -33 30.5 -61.5t74 -53t87.5 -51.5t74.5 -69.5
t30.5 -94.5q0 -105 -77.5 -160t-189.5 -55z" />
    <glyph glyph-name="T" unicode="T" horiz-adv-x="582" 
d="M207 0l65 624h-237l10 83h575l-9 -83h-237l-65 -624h-102z" />
    <glyph glyph-name="U" unicode="U" horiz-adv-x="737" 
d="M342 -12q-42 0 -79 6t-72 22t-60 40.5t-40 64t-15 89.5q0 27 2 41l48 456h103l-47 -449q-2 -24 -2 -34q0 -150 166 -150q88 0 141 47.5t65 160.5l44 425h98l-45 -428q-9 -83 -39 -142.5t-74.5 -90.5t-92 -44.5t-101.5 -13.5z" />
    <glyph glyph-name="V" unicode="V" horiz-adv-x="667" 
d="M220 0l-171 707h106l142 -630l315 630h105l-360 -707h-137z" />
    <glyph glyph-name="W" unicode="W" horiz-adv-x="988" 
d="M179 0l-109 707h106l86 -624l218 624h96l94 -624l246 624h102l-288 -707h-136l-84 552l-193 -552h-138z" />
    <glyph glyph-name="X" unicode="X" horiz-adv-x="609" 
d="M-31 0l289 371l-168 336h114l121 -259l193 259h112l-261 -335l188 -372h-115l-140 292l-218 -292h-115z" />
    <glyph glyph-name="Y" unicode="Y" horiz-adv-x="612" 
d="M219 0l27 262l-190 445h114l139 -358l227 358h111l-300 -442l-27 -265h-101z" />
    <glyph glyph-name="Z" unicode="Z" horiz-adv-x="570" 
d="M2 0l8 80l417 538h-334l9 89h455l-7 -74l-420 -545h383l-9 -88h-502z" />
    <glyph glyph-name="bracketleft" unicode="[" horiz-adv-x="301" 
d="M21 -220l102 974h198l-8 -82h-100l-86 -810h100l-8 -82h-198z" />
    <glyph glyph-name="backslash" unicode="\" horiz-adv-x="375" 
d="M221 -62l-146 831h90l146 -831h-90z" />
    <glyph glyph-name="bracketright" unicode="]" horiz-adv-x="300" 
d="M-29 -220l9 82h100l85 810h-100l8 82h199l-103 -974h-198z" />
    <glyph glyph-name="asciicircum" unicode="^" horiz-adv-x="532" 
d="M-2 294l207 413h121l107 -413h-97l-78 341l-163 -341h-97z" />
    <glyph glyph-name="underscore" unicode="_" horiz-adv-x="553" 
d="M-23 -173l8 84h500l-9 -84h-499z" />
    <glyph glyph-name="grave" unicode="`" horiz-adv-x="557" 
d="M392 611l-202 114l43 76l193 -129z" />
    <glyph glyph-name="a" unicode="a" horiz-adv-x="521" 
d="M147 -13q-119 0 -119 168q0 97 39.5 186.5t118 149.5t177.5 60q64 0 109 -8l-56 -543h-98l10 91q-112 -104 -181 -104zM172 77q20 0 56.5 21.5t62 41.5t46.5 39l30 288q-6 1 -27 1q-63 0 -113.5 -47.5t-75.5 -116t-25 -139.5q0 -88 46 -88z" />
    <glyph glyph-name="b" unicode="b" horiz-adv-x="534" 
d="M196 -9q-68 0 -154 24l78 740h97l-28 -273q99 69 174 69q130 0 130 -164q0 -68 -17 -135t-51 -127t-93.5 -97t-135.5 -37zM203 71q52 0 91 32.5t59.5 83t30.5 101.5t10 98q0 82 -57 82q-52 0 -157 -65l-34 -324q35 -8 57 -8z" />
    <glyph glyph-name="c" unicode="c" horiz-adv-x="455" 
d="M179 -12q-51 0 -84 29.5t-45.5 71.5t-12.5 96q0 160 74.5 268t202.5 108q83 0 134 -49l-48 -64q-44 31 -89 31q-48 0 -83.5 -28t-53.5 -73t-26.5 -89.5t-8.5 -88.5q0 -59 14.5 -92.5t35.5 -33.5q67 0 174 55l33 -69q-39 -23 -59.5 -34t-66 -24.5t-91.5 -13.5z" />
    <glyph glyph-name="d" unicode="d" horiz-adv-x="524" 
d="M148 -13q-116 0 -116 180q0 167 92 274.5t234 109.5q2 0 10 -0.5t10 -0.5l22 204h98l-80 -754h-98l10 91q-106 -104 -182 -104zM174 77q33 0 79.5 32t84.5 70l31 289q-7 1 -33 1q-84 1 -145 -85t-61 -198q0 -61 11 -85t33 -24z" />
    <glyph glyph-name="e" unicode="e" horiz-adv-x="481" 
d="M178 -12q-139 0 -139 206q0 98 29.5 180t93 134.5t150.5 52.5q74 0 112 -37.5t38 -93.5q0 -101 -155 -155l-167 -60v-23q0 -61 13.5 -90t44.5 -29q64 0 169 56l34 -70q-58 -34 -109 -52.5t-114 -18.5zM149 296l148 58q70 26 70 71q0 28 -17 42t-41 14q-67 0 -106 -52
t-54 -133z" />
    <glyph glyph-name="f" unicode="f" horiz-adv-x="331" 
d="M49 -189l70 658h-80l9 77h80l3 37q10 110 67 150.5t150 40.5q63 0 125 -22l-27 -78q-58 15 -103 15q-56 0 -83 -23.5t-32 -78.5l-4 -41h119l-8 -77h-119l-72 -658h-95z" />
    <glyph glyph-name="g" unicode="g" horiz-adv-x="520" 
d="M153 -230q-111 0 -181 26l23 84q79 -25 145 -25q39 0 66 4.5t52 17.5t39.5 40t18.5 68l12 106q-57 -54 -99 -79t-83 -25q-62 0 -89.5 42.5t-27.5 126.5q0 163 96 279t238 116q63 0 109 -8l-60 -575q-6 -56 -31 -96.5t-63 -61.5t-78.5 -30.5t-86.5 -9.5zM172 77
q29 0 79.5 35t84.5 67l30 288q-6 1 -26 1q-88 0 -150.5 -91t-62.5 -209q0 -91 45 -91z" />
    <glyph glyph-name="h" unicode="h" horiz-adv-x="540" 
d="M42 0l79 754h99l-31 -289q37 30 60.5 46.5t61 32.5t71.5 16q56 0 78.5 -24.5t22.5 -82.5q0 -30 -4 -59l-42 -394h-98l41 374q3 28 3 48q0 24 -8.5 34.5t-28.5 10.5q-57 0 -166 -86l-40 -381h-98z" />
    <glyph glyph-name="i" unicode="i" horiz-adv-x="246" 
d="M42 0l57 546h98l-57 -546h-98zM112 662l11 108h99l-11 -108h-99z" />
    <glyph glyph-name="j" unicode="j" horiz-adv-x="246" 
d="M-69 -220q-50 0 -88 16l24 80q41 -11 71 -11q52 0 74 29.5t29 93.5l58 558h98l-59 -559q-12 -116 -65 -161.5t-142 -45.5zM107 662l11 108h99l-11 -108h-99z" />
    <glyph glyph-name="k" unicode="k" horiz-adv-x="499" 
d="M359 -10l-181 295l199 261h111l-200 -255l174 -283zM42 0l79 754h98l-80 -754h-97z" />
    <glyph glyph-name="l" unicode="l" horiz-adv-x="246" 
d="M42 0l79 754h98l-80 -754h-97z" />
    <glyph glyph-name="m" unicode="m" horiz-adv-x="817" 
d="M42 0l58 546h98l-8 -80q33 27 53.5 42t59.5 33.5t71 18.5q51 0 74 -21.5t25 -67.5q112 89 188 89q54 0 76.5 -24.5t22.5 -81.5q0 -31 -4 -60l-42 -394h-98l41 374q3 27 3 45q0 27 -8 37.5t-30 10.5q-51 0 -153 -79l-41 -388h-98l41 374q3 27 3 45q0 27 -8.5 37t-29.5 10
q-51 0 -155 -85l-41 -381h-98z" />
    <glyph glyph-name="n" unicode="n" horiz-adv-x="541" 
d="M42 0l58 546h98l-8 -81q35 29 59.5 46t62 33t71.5 16q55 0 78 -25t23 -82q0 -30 -4 -59l-42 -394h-98l41 374q2 17 2 44q0 26 -8 37.5t-28 11.5q-59 0 -166 -86l-41 -381h-98z" />
    <glyph glyph-name="o" unicode="o" horiz-adv-x="527" 
d="M208 -12q-81 0 -127 56t-46 142q0 168 76.5 270.5t203.5 102.5q82 0 126.5 -56.5t44.5 -136.5q0 -66 -14.5 -128.5t-45 -120.5t-87 -93.5t-131.5 -35.5zM228 71q63 0 110.5 80t47.5 205q0 65 -23 94t-72 29q-63 0 -109 -81t-46 -200q0 -127 92 -127z" />
    <glyph glyph-name="p" unicode="p" horiz-adv-x="535" 
d="M18 -220l82 766h97l-6 -65q93 69 173 69q130 0 130 -165q0 -68 -17 -134.5t-51 -126t-93 -96.5t-135 -37q-29 0 -59 5l-23 -216h-98zM204 71q52 0 91 32.5t59.5 82.5t30.5 101t10 98q0 82 -57 82q-53 0 -156 -65l-34 -323q44 -8 56 -8z" />
    <glyph glyph-name="q" unicode="q" horiz-adv-x="521" 
d="M295 -220l33 311q-58 -53 -100.5 -78.5t-80.5 -25.5q-62 0 -89.5 43t-27.5 128q0 163 95.5 278t237.5 115q64 0 109 -8l-79 -763h-98zM172 77q20 0 56.5 21.5t62 41.5t46.5 39l30 288q-8 1 -27 1q-88 0 -150 -90.5t-62 -207.5q0 -52 11 -72.5t33 -20.5z" />
    <glyph glyph-name="r" unicode="r" horiz-adv-x="363" 
d="M42 0l58 546h97l-8 -81q2 2 7 6q98 85 160 85q16 0 29 -2l-18 -94q-14 3 -34 3q-9 0 -20 -3t-24 -9.5t-22.5 -12t-24.5 -16.5t-22 -16t-22.5 -17t-17.5 -14l-40 -375h-98z" />
    <glyph glyph-name="s" unicode="s" horiz-adv-x="427" 
d="M160 -10q-96 0 -159 29l27 80q73 -25 139 -25q25 0 47 4.5t42 21t20 43.5q0 25 -21.5 48t-52.5 43t-62.5 42t-53 54.5t-21.5 71.5q0 81 52.5 118t135.5 37q91 0 151 -30l-27 -75q-70 25 -129 25q-89 0 -89 -65q0 -25 22 -48.5t53 -44t62 -43.5t53 -57t22 -74
q0 -36 -13.5 -64t-34.5 -44.5t-50 -27.5t-56.5 -15t-56.5 -4z" />
    <glyph glyph-name="t" unicode="t" horiz-adv-x="392" 
d="M191 -12q-55 0 -83.5 26t-29.5 86q0 28 2 45l36 323h-80l8 78h81l11 112h97l-11 -112h160l-7 -78h-161l-36 -326q-7 -67 38 -67q51 0 116 30l21 -74q-74 -43 -162 -43z" />
    <glyph glyph-name="u" unicode="u" horiz-adv-x="540" 
d="M161 -11q-59 0 -84.5 26t-25.5 89q0 22 3 50l42 392h98l-41 -376q-3 -26 -3 -43q0 -29 9.5 -40.5t31.5 -11.5q65 0 161 87l42 384h97l-58 -546h-97l8 81q-96 -92 -183 -92z" />
    <glyph glyph-name="v" unicode="v" horiz-adv-x="493" 
d="M131 0l-88 546h105l62 -465l133 278q42 89 42 161q0 10 -2 26h102q3 -9 3 -26q0 -74 -49 -174l-171 -346h-137z" />
    <glyph glyph-name="w" unicode="w" horiz-adv-x="799" 
d="M129 0l-85 546h105l59 -465l169 303l-27 162h105l62 -465l133 278q42 87 42 160q0 19 -2 27h103q2 -12 2 -26q0 -76 -49 -174l-171 -346h-138l-42 265l-149 -265h-117z" />
    <glyph glyph-name="x" unicode="x" horiz-adv-x="482" 
d="M-27 0l219 287l-119 259h105l79 -178l131 178h105l-197 -260l129 -286h-106l-88 204l-151 -204h-107z" />
    <glyph glyph-name="y" unicode="y" horiz-adv-x="496" 
d="M61 -220l109 220h-41l-84 546h105l61 -466l135 279q42 89 42 161q0 10 -2 26h103q2 -12 2 -26q0 -76 -48 -174l-280 -566h-102z" />
    <glyph glyph-name="z" unicode="z" horiz-adv-x="468" 
d="M-1 0l9 77l320 387h-255l10 82h369l-8 -74l-321 -390h283l-9 -82h-398z" />
    <glyph glyph-name="braceleft" unicode="{" horiz-adv-x="341" 
d="M230 -220q-55 0 -93 9t-64 37t-26 75q0 21 6 50l42 196q6 30 -14 57t-59 27l9 84q39 0 64.5 26.5t25.5 57.5v202q0 171 213 171h30l-9 -83h-30q-107 0 -107 -95l2 -180q0 -112 -93 -139v-2q68 -27 68 -97q0 -17 -5 -42l-39 -180q-3 -15 -3 -26q0 -66 90 -66h30l-9 -82
h-29z" />
    <glyph glyph-name="bar" unicode="|" horiz-adv-x="245" 
d="M21 -220l102 974h93l-102 -974h-93z" />
    <glyph glyph-name="braceright" unicode="}" horiz-adv-x="341" 
d="M-29 -220l9 82h30q107 0 107 92l-2 180q0 105 93 139v2q-68 21 -68 96q0 23 5 43l39 180q3 16 3 29q0 65 -90 65h-30l9 84h30q182 0 182 -124q0 -19 -5 -47l-43 -202q-6 -31 14 -57.5t59 -26.5l-10 -84q-38 0 -63.5 -27t-25.5 -57v-196q0 -51 -16 -86t-47.5 -53t-67 -25
t-82.5 -7h-30z" />
    <glyph glyph-name="asciitilde" unicode="~" horiz-adv-x="571" 
d="M389 274q-53 0 -115 30t-93 30q-43 0 -87 -30l-42 65q67 63 141 63q52 0 109 -30.5t93 -30.5q46 0 89 33l45 -59q-27 -31 -64.5 -51t-75.5 -20z" />
    <glyph glyph-name="uni00A0" unicode="&#xa0;" horiz-adv-x="246" 
 />
    <glyph glyph-name="exclamdown" unicode="&#xa1;" horiz-adv-x="257" 
d="M31 -161l39 374l21 151h87l-11 -151l-39 -374h-97zM91 446l10 100h106l-10 -100h-106z" />
    <glyph glyph-name="cent" unicode="&#xa2;" horiz-adv-x="478" 
d="M200 -49l9 80q-93 12 -137.5 56.5t-44.5 136.5q0 118 60 195.5t176 94.5l9 82h77l-9 -79q77 -7 113 -29l-35 -72q-40 15 -87 20l-38 -328q41 0 110 13l7 -76q-55 -15 -126 -17l-8 -77h-76zM127 235q0 -56 23 -84t68 -37l35 318q-126 -28 -126 -197z" />
    <glyph glyph-name="sterling" unicode="&#xa3;" horiz-adv-x="471" 
d="M17 0l8 77q36 15 61 52t30 78h-91l8 77h94l5 74q3 51 21 88t43 58.5t64 34.5t75.5 17t85.5 5l-4 -82q-4 0 -12 -1q-35 -3 -52.5 -5t-44.5 -10t-40 -20t-24 -35t-13 -55q-1 -23 -7 -69h171l-8 -77h-178q-13 -80 -75 -126h280l-9 -81h-388z" />
    <glyph glyph-name="currency" unicode="&#xa4;" horiz-adv-x="549" 
d="M107 133l-46 45l67 66q-38 45 -38 108q0 65 37 108l-65 65l45 44l69 -69q51 28 104 28q60 0 104 -27l68 69l46 -46l-65 -64q36 -40 36 -108t-38 -109l66 -64l-45 -46l-69 69q-50 -25 -103 -25q-59 0 -102 26zM280 255q48 0 72 27t24 70q1 42 -24 70t-72 28t-72.5 -28
t-25.5 -70q0 -41 25.5 -69t72.5 -28z" />
    <glyph glyph-name="yen" unicode="&#xa5;" horiz-adv-x="629" 
d="M26 57l9 81h208l2 23l-35 85h-164l8 81h120l-95 219h107l119 -300l191 300h104l-148 -219h126l-8 -81h-174l-56 -83l-2 -25h221l-9 -81h-221l-6 -57h-94l6 57h-209z" />
    <glyph glyph-name="brokenbar" unicode="&#xa6;" horiz-adv-x="288" 
d="M42 -220l38 362h93l-38 -362h-93zM107 392l38 362h93l-38 -362h-93z" />
    <glyph glyph-name="section" unicode="&#xa7;" horiz-adv-x="586" 
d="M104 -68q-66 0 -114 39l36 77q47 -36 84 -36q22 0 35.5 21.5t17 43t3.5 44.5q0 31 -8 91l-4 44q-4 29 -4 66q0 132 79 211.5t211 79.5q89 0 148 -48l-43 -70q-53 39 -111 39q-54 0 -54 -93q0 -16 4 -48l7 -52q9 -68 9 -114q0 -131 -82.5 -213t-213.5 -82zM227 23
q43 27 64 77t21 106q0 11 -5 71l-8 72q-4 42 -4 58q0 74 21 111l-2 3q-74 -48 -74 -178q0 -29 3 -59l8 -72q4 -46 4 -67q0 -70 -29 -120z" />
    <glyph glyph-name="dieresis" unicode="&#xa8;" horiz-adv-x="429" 
d="M147 662l11 108h95l-12 -108h-94zM354 662l11 108h95l-12 -108h-94z" />
    <glyph glyph-name="copyright" unicode="&#xa9;" horiz-adv-x="788" 
d="M389 58q-95 0 -145.5 52t-45.5 135q4 104 65 167.5t168 63.5q70 0 121 -28l-28 -56q-43 19 -99 19q-66 0 -109 -41.5t-46 -118.5q-2 -62 36.5 -94.5t100.5 -32.5q39 0 96 17l14 -59q-69 -24 -128 -24zM342 -99q-145 0 -226.5 84t-81.5 225q0 180 111.5 297t291.5 117
q147 0 227.5 -85t80.5 -224q0 -179 -110.5 -296.5t-292.5 -117.5zM352 -41q150 0 237 99t87 248q0 117 -65.5 188t-185.5 71q-146 0 -234 -98.5t-88 -245.5q0 -115 64 -188.5t185 -73.5z" />
    <glyph glyph-name="ordfeminine" unicode="&#xaa;" horiz-adv-x="398" 
d="M159 387q-72 0 -72 111q0 92 56.5 154t140.5 62q34 0 71 -7l-33 -314h-69l5 46q-57 -52 -99 -52zM176 448q15 0 42.5 17t45.5 33l16 156l-13 1q-44 1 -77 -45t-33 -107q0 -55 19 -55zM58 293l7 60h285l-7 -60h-285z" />
    <glyph glyph-name="guillemotleft" unicode="&#xab;" horiz-adv-x="449" 
d="M123 50l-88 222l134 222l65 -27l-109 -195l67 -192zM308 50l-87 222l134 222l64 -27l-109 -195l67 -192z" />
    <glyph glyph-name="logicalnot" unicode="&#xac;" horiz-adv-x="615" 
d="M432 104l16 158h-392l8 84h483l-25 -242h-90z" />
    <glyph glyph-name="registered" unicode="&#xae;" horiz-adv-x="550" 
d="M299 309q-42 0 -82 11.5t-76 36.5t-58 70t-22 105q0 106 67 166t170 60q96 0 165.5 -56t69.5 -170q0 -105 -66.5 -164t-167.5 -59zM304 353q79 0 129.5 47t50.5 132q0 89 -54.5 135.5t-130.5 46.5q-82 0 -135.5 -44.5t-53.5 -133.5q0 -45 14.5 -79.5t35.5 -53.5t49 -31
t50.5 -15.5t44.5 -3.5zM416 414q-48 0 -75 26q-21 19 -49 71q-3 -1 -18 -1h-14v-91h-54v247h94q42 0 66 -19.5t24 -58.5q0 -47 -44 -68q23 -36 34 -47t42 -23zM260 545h31q47 0 47 42q0 22 -9 32t-34 10h-35v-84z" />
    <glyph glyph-name="macron" unicode="&#xaf;" horiz-adv-x="521" 
d="M146 665l9 81h272l-9 -81h-272z" />
    <glyph glyph-name="degree" unicode="&#xb0;" horiz-adv-x="396" 
d="M205 403q-75 0 -111 40.5t-28 117.5q7 70 57 113t118 43q73 0 111.5 -41.5t31.5 -114.5q-8 -72 -57.5 -115t-121.5 -43zM214 472q77 0 87 89q4 42 -14 65t-54 23t-58.5 -23t-26.5 -65q-5 -44 13 -66.5t53 -22.5z" />
    <glyph glyph-name="plusminus" unicode="&#xb1;" horiz-adv-x="540" 
d="M208 124l19 176l-176 -1l9 84l176 -1l18 177h88l-22 -179l179 3l-9 -84l-177 1l-17 -176h-88zM20 0l8 85h439l-8 -85h-439z" />
    <glyph glyph-name="twosuperior" unicode="&#xb2;" horiz-adv-x="307" 
d="M-5 415l6 58q122 83 157 117q41 41 45 75q2 24 -13 37.5t-39 13.5q-49 0 -87 -30q-2 7 -12.5 27.5t-12.5 25.5q55 47 132 47q56 0 88 -31t27 -82q-6 -57 -55 -101.5t-129 -89.5h169l-7 -67h-269z" />
    <glyph glyph-name="threesuperior" unicode="&#xb3;" horiz-adv-x="302" 
d="M113 410q-59 0 -109 16q2 7 11 32.5t10 29.5q50 -13 87 -13q75 0 79 51q4 31 -19 44t-76 15l5 43q44 4 65.5 17.5t24.5 40.5q1 18 -12.5 28.5t-35.5 10.5q-37 0 -74 -17q-1 6 -6.5 27t-6.5 27q47 25 104 25q55 0 86 -24t27 -69q-3 -26 -20 -48t-44 -33q34 -9 51 -33.5
t14 -57.5q-6 -58 -51.5 -85t-109.5 -27z" />
    <glyph glyph-name="acute" unicode="&#xb4;" horiz-adv-x="551" 
d="M248 613l-34 61l201 133l42 -77z" />
    <glyph glyph-name="mu" unicode="&#xb5;" horiz-adv-x="550" 
d="M17 -220l81 766h98l-41 -376q-3 -29 -3 -46q1 -27 10.5 -37t32.5 -10q20 0 45.5 11.5t44 24t41.5 30t29 21.5l40 382h99l-58 -546h-98l9 81q-2 -2 -33 -27t-44.5 -34t-41.5 -20.5t-54 -12.5q-20 0 -37 5l-22 -212h-98z" />
    <glyph glyph-name="paragraph" unicode="&#xb6;" horiz-adv-x="586" 
d="M264 -220q-41 0 -80 15l26 76q20 -5 64 -5q55 0 78 31.5t30 91.5l75 718h98l-76 -719q-22 -208 -215 -208zM237 260q-93 0 -143 47t-50 139q0 135 69 198t204 63h61l-47 -447h-94z" />
    <glyph glyph-name="periodcentered" unicode="&#xb7;" horiz-adv-x="244" 
d="M68 317l11 105h113l-11 -105h-113z" />
    <glyph glyph-name="cedilla" unicode="&#xb8;" horiz-adv-x="467" 
d="M152 -249l-27 57q66 37 70 75q2 22 -13 66h87q17 -36 13 -70q-8 -79 -130 -128z" />
    <glyph glyph-name="onesuperior" unicode="&#xb9;" horiz-adv-x="250" 
d="M86 415l31 300h-84l6 65q53 0 169 4l-39 -369h-83z" />
    <glyph glyph-name="ordmasculine" unicode="&#xba;" horiz-adv-x="409" 
d="M209 384q-54 0 -87 37t-33 95q0 90 44 146.5t119 56.5q58 0 89 -37.5t31 -95.5q0 -82 -41.5 -142t-121.5 -60zM219 443q41 0 61 44.5t20 95.5q0 33 -14.5 55.5t-43.5 22.5t-48 -24t-26 -53.5t-7 -60.5q0 -34 14 -57t44 -23zM60 294l7 59h286l-8 -59h-285z" />
    <glyph glyph-name="guillemotright" unicode="&#xbb;" horiz-adv-x="449" 
d="M87 50l-62 30l106 192l-67 195l70 27l88 -222zM272 50l-62 30l107 192l-68 195l70 27l87 -222z" />
    <glyph glyph-name="onequarter" unicode="&#xbc;" horiz-adv-x="810" 
d="M573 1l9 85h-165l7 66l146 215h119l-24 -220h59l-7 -61h-58l-9 -85h-77zM483 147h105l18 176zM106 415l31 300h-84l6 65q53 0 169 4l-39 -369h-83zM98 72l-40 46l587 538l39 -45z" />
    <glyph glyph-name="onehalf" unicode="&#xbd;" horiz-adv-x="809" 
d="M419 0l6 58q122 83 157 117q42 41 45 75q2 24 -13 37.5t-39 13.5q-49 0 -87 -30q-2 7 -12.5 28l-12.5 25q55 47 132 47q56 0 88 -31t27 -82q-6 -57 -55 -101.5t-129 -89.5h169l-7 -67h-269zM106 415l31 300h-84l6 65q53 0 169 4l-39 -369h-83zM91 72l-40 46l587 538
l39 -45z" />
    <glyph glyph-name="threequarters" unicode="&#xbe;" horiz-adv-x="815" 
d="M578 1l9 85h-165l7 66l146 215h119l-24 -220h59l-7 -61h-58l-9 -85h-77zM488 147h105l18 176zM129 410q-59 0 -109 16q2 7 11 32.5t10 29.5q50 -13 87 -13q74 0 79 51q4 31 -19 44t-76 15l5 43q44 4 65.5 17.5t24.5 40.5q1 18 -12.5 28.5t-35.5 10.5q-37 0 -74 -17
q-1 6 -6.5 27t-6.5 27q47 25 104 25q55 0 86 -24t27 -69q-3 -26 -20 -48t-44 -33q34 -9 51 -33.5t14 -57.5q-6 -58 -51.5 -85t-109.5 -27zM115 72l-40 46l587 538l39 -45z" />
    <glyph glyph-name="questiondown" unicode="&#xbf;" horiz-adv-x="332" 
d="M234 -163q-44 3 -83 14t-75 31t-57.5 55.5t-21.5 81.5q0 44 18.5 80.5t45 61t54 47t48 50t23.5 57.5q1 8 -2 51l85 11q7 -24 7 -53q0 -43 -18 -80t-44 -63t-52 -49t-44 -49t-18 -52q0 -52 50.5 -79t111.5 -32zM175 446l11 100h106l-10 -100h-107z" />
    <glyph glyph-name="Agrave" unicode="&#xc0;" horiz-adv-x="652" 
d="M454 736l-233 65l29 85l225 -84zM-38 0l351 707h142l152 -707h-105l-51 252h-263l-123 -252h-103zM227 330h208l-47 243l-12 78l-34 -79z" />
    <glyph glyph-name="Aacute" unicode="&#xc1;" horiz-adv-x="652" 
d="M-38 0l351 707h142l152 -707h-105l-51 252h-263l-123 -252h-103zM227 330h208l-47 243l-12 78l-34 -79zM312 737l-19 66l239 83l23 -85z" />
    <glyph glyph-name="Acircumflex" unicode="&#xc2;" horiz-adv-x="652" 
d="M-38 0l351 707h142l152 -707h-105l-51 252h-263l-123 -252h-103zM227 330h208l-47 243l-12 78l-34 -79zM533 737l-137 65l-154 -63l-28 67l189 83l165 -84z" />
    <glyph glyph-name="Atilde" unicode="&#xc3;" horiz-adv-x="652" 
d="M-38 0l351 707h142l152 -707h-105l-51 252h-263l-123 -252h-103zM227 330h208l-47 243l-12 78l-34 -79zM445 746q-22 0 -63 18.5t-58 18.5q-38 0 -75 -26l-35 53q58 52 116 52q26 0 67 -18t57 -18q35 0 78 27l31 -55q-54 -52 -118 -52z" />
    <glyph glyph-name="Adieresis" unicode="&#xc4;" horiz-adv-x="652" 
d="M-38 0l351 707h142l152 -707h-105l-51 252h-263l-123 -252h-103zM227 330h208l-47 243l-12 78l-34 -79zM230 765l10 106h93l-11 -106h-92zM452 765l10 106h93l-11 -106h-92z" />
    <glyph glyph-name="Aring" unicode="&#xc5;" horiz-adv-x="652" 
d="M-38 0l351 707h142l152 -707h-105l-51 252h-263l-123 -252h-103zM227 330h208l-47 243l-12 78l-34 -79zM390 736q-42 0 -71 21t-29 59q0 50 34 81t84 31q40 0 68.5 -23t28.5 -61q0 -49 -32.5 -78.5t-82.5 -29.5zM394 780q24 0 40.5 15t16.5 39q0 21 -14 34t-35 13
q-26 0 -41.5 -14.5t-15.5 -39.5q0 -22 13.5 -34.5t35.5 -12.5z" />
    <glyph glyph-name="AE" unicode="&#xc6;" horiz-adv-x="921" 
d="M-54 0l462 707h485l-8 -81h-309l-24 -231h287l-8 -80h-287l-25 -234h332l-8 -81h-434l35 315h-188l-197 -315h-113zM304 394h149l25 232h-27z" />
    <glyph glyph-name="Ccedilla" unicode="&#xc7;" horiz-adv-x="642" 
d="M380 -10q-150 0 -238.5 83t-88.5 234q0 189 106.5 298t293.5 109q99 0 172 -31l-33 -77q-69 22 -147 22q-137 0 -212.5 -85t-75.5 -225q0 -117 67.5 -178.5t183.5 -61.5q87 0 155 20l18 -81q-87 -27 -201 -27zM301 -249l-27 57q66 37 70 75q2 22 -13 66h87q17 -36 13 -70
q-8 -79 -130 -128z" />
    <glyph glyph-name="Egrave" unicode="&#xc8;" horiz-adv-x="573" 
d="M422 736l-233 65l29 85l225 -84zM61 0l74 707h410l-8 -81h-309l-24 -231h287l-9 -80h-286l-25 -234h332l-8 -81h-434z" />
    <glyph glyph-name="Eacute" unicode="&#xc9;" horiz-adv-x="573" 
d="M273 737l-19 66l239 83l23 -85zM61 0l74 707h410l-8 -81h-309l-24 -231h287l-9 -80h-286l-25 -234h332l-8 -81h-434z" />
    <glyph glyph-name="Ecircumflex" unicode="&#xca;" horiz-adv-x="573" 
d="M61 0l74 707h410l-8 -81h-309l-24 -231h287l-9 -80h-286l-25 -234h332l-8 -81h-434zM489 737l-137 65l-154 -63l-28 67l189 83l165 -84z" />
    <glyph glyph-name="Edieresis" unicode="&#xcb;" horiz-adv-x="573" 
d="M194 765l10 106h93l-11 -106h-92zM416 765l10 106h93l-11 -106h-92zM61 0l74 707h410l-8 -81h-309l-24 -231h287l-9 -80h-286l-25 -234h332l-8 -81h-434z" />
    <glyph glyph-name="Igrave" unicode="&#xcc;" horiz-adv-x="287" 
d="M244 736l-233 65l29 85l225 -84zM61 0l74 707h101l-74 -707h-101z" />
    <glyph glyph-name="Iacute" unicode="&#xcd;" horiz-adv-x="287" 
d="M61 0l74 707h101l-74 -707h-101zM131 737l-19 66l239 83l23 -85z" />
    <glyph glyph-name="Icircumflex" unicode="&#xce;" horiz-adv-x="287" 
d="M61 0l74 707h101l-74 -707h-101zM338 737l-137 65l-154 -63l-28 67l189 83l165 -84z" />
    <glyph glyph-name="Idieresis" unicode="&#xcf;" horiz-adv-x="287" 
d="M61 0l74 707h101l-74 -707h-101zM36 765l10 106h93l-11 -106h-92zM258 765l10 106h93l-11 -106h-92z" />
    <glyph glyph-name="Eth" unicode="&#xd0;" horiz-adv-x="765" 
d="M48 312l9 80h73l33 315h203q159 0 257.5 -76.5t98.5 -233.5q0 -197 -111 -297t-311 -100h-211l32 312h-73zM198 82h120q148 0 225 78t77 230q0 122 -70.5 178.5t-194.5 56.5h-99l-25 -233h147l-9 -80h-147z" />
    <glyph glyph-name="Ntilde" unicode="&#xd1;" horiz-adv-x="739" 
d="M487 746q-22 0 -63 18.5t-58 18.5q-38 0 -75 -26l-35 53q58 52 116 52q26 0 67 -18t57 -18q35 0 78 27l31 -55q-54 -52 -118 -52zM61 0l75 707h136l255 -609l61 609h101l-76 -707h-142l-248 594l-61 -594h-101z" />
    <glyph glyph-name="Ograve" unicode="&#xd2;" horiz-adv-x="805" 
d="M517 736l-233 65l29 85l225 -84zM361 -11q-146 0 -227 84t-81 231q0 187 107 300.5t292 113.5q147 0 228.5 -83.5t81.5 -230.5q0 -189 -107 -302t-294 -113zM373 71q137 0 210.5 92t73.5 234q0 109 -56 173t-163 64q-135 0 -208.5 -90.5t-73.5 -230.5q0 -110 55 -176
t162 -66z" />
    <glyph glyph-name="Oacute" unicode="&#xd3;" horiz-adv-x="805" 
d="M360 737l-19 66l239 83l23 -85zM361 -11q-146 0 -227 84t-81 231q0 187 107 300.5t292 113.5q147 0 228.5 -83.5t81.5 -230.5q0 -189 -107 -302t-294 -113zM373 71q137 0 210.5 92t73.5 234q0 109 -56 173t-163 64q-135 0 -208.5 -90.5t-73.5 -230.5q0 -110 55 -176
t162 -66z" />
    <glyph glyph-name="Ocircumflex" unicode="&#xd4;" horiz-adv-x="805" 
d="M590 737l-137 65l-154 -63l-28 67l189 83l165 -84zM361 -11q-146 0 -227 84t-81 231q0 187 107 300.5t292 113.5q147 0 228.5 -83.5t81.5 -230.5q0 -189 -107 -302t-294 -113zM373 71q137 0 210.5 92t73.5 234q0 109 -56 173t-163 64q-135 0 -208.5 -90.5t-73.5 -230.5
q0 -110 55 -176t162 -66z" />
    <glyph glyph-name="Otilde" unicode="&#xd5;" horiz-adv-x="805" 
d="M510 746q-22 0 -63 18.5t-58 18.5q-38 0 -75 -26l-35 53q58 52 116 52q26 0 67 -18t57 -18q35 0 78 27l31 -55q-54 -52 -118 -52zM361 -11q-146 0 -227 84t-81 231q0 187 107 300.5t292 113.5q147 0 228.5 -83.5t81.5 -230.5q0 -189 -107 -302t-294 -113zM373 71
q137 0 210.5 92t73.5 234q0 109 -56 173t-163 64q-135 0 -208.5 -90.5t-73.5 -230.5q0 -110 55 -176t162 -66z" />
    <glyph glyph-name="Odieresis" unicode="&#xd6;" horiz-adv-x="805" 
d="M291 765l10 106h93l-11 -106h-92zM513 765l10 106h93l-11 -106h-92zM361 -11q-146 0 -227 84t-81 231q0 187 107 300.5t292 113.5q147 0 228.5 -83.5t81.5 -230.5q0 -189 -107 -302t-294 -113zM373 71q137 0 210.5 92t73.5 234q0 109 -56 173t-163 64
q-135 0 -208.5 -90.5t-73.5 -230.5q0 -110 55 -176t162 -66z" />
    <glyph glyph-name="multiply" unicode="&#xd7;" horiz-adv-x="550" 
d="M422 75l-155 174l-184 -169l-54 61l186 167l-150 166l64 60l149 -169l188 171l55 -60l-192 -170l157 -172z" />
    <glyph glyph-name="Oslash" unicode="&#xd8;" horiz-adv-x="831" 
d="M86 -33l-46 46l84 86q-58 79 -58 205q0 188 107 301t293 113q126 0 207 -64l83 83l45 -48l-83 -84q57 -80 57 -201q0 -189 -107 -302t-294 -113q-128 0 -204 63zM200 173l401 411q-56 50 -150 50q-135 0 -208.5 -91t-73.5 -230q0 -82 31 -140zM386 71q137 0 210.5 92
t73.5 234q0 74 -30 131l-399 -407q56 -50 145 -50z" />
    <glyph glyph-name="Ugrave" unicode="&#xd9;" horiz-adv-x="738" 
d="M500 736l-233 65l29 85l225 -84zM342 -12q-42 0 -79 6t-72 22t-60 40.5t-40 64t-15 89.5q0 27 2 41l48 456h103l-47 -449q-2 -24 -2 -34q0 -150 166 -150q88 0 141 47.5t65 160.5l44 425h98l-45 -428q-9 -83 -39 -142.5t-74.5 -90.5t-92 -44.5t-101.5 -13.5z" />
    <glyph glyph-name="Uacute" unicode="&#xda;" horiz-adv-x="738" 
d="M344 737l-19 66l239 83l23 -85zM342 -12q-42 0 -79 6t-72 22t-60 40.5t-40 64t-15 89.5q0 27 2 41l48 456h103l-47 -449q-2 -24 -2 -34q0 -150 166 -150q88 0 141 47.5t65 160.5l44 425h98l-45 -428q-9 -83 -39 -142.5t-74.5 -90.5t-92 -44.5t-101.5 -13.5z" />
    <glyph glyph-name="Ucircumflex" unicode="&#xdb;" horiz-adv-x="738" 
d="M342 -12q-42 0 -79 6t-72 22t-60 40.5t-40 64t-15 89.5q0 27 2 41l48 456h103l-47 -449q-2 -24 -2 -34q0 -150 166 -150q88 0 141 47.5t65 160.5l44 425h98l-45 -428q-9 -83 -39 -142.5t-74.5 -90.5t-92 -44.5t-101.5 -13.5zM561 737l-137 65l-154 -63l-28 67l189 83
l165 -84z" />
    <glyph glyph-name="Udieresis" unicode="&#xdc;" horiz-adv-x="738" 
d="M255 765l10 106h93l-11 -106h-92zM477 765l10 106h93l-11 -106h-92zM342 -12q-42 0 -79 6t-72 22t-60 40.5t-40 64t-15 89.5q0 27 2 41l48 456h103l-47 -449q-2 -24 -2 -34q0 -150 166 -150q88 0 141 47.5t65 160.5l44 425h98l-45 -428q-9 -83 -39 -142.5t-74.5 -90.5
t-92 -44.5t-101.5 -13.5z" />
    <glyph glyph-name="Yacute" unicode="&#xdd;" horiz-adv-x="612" 
d="M219 0l27 262l-190 445h114l139 -358l227 358h111l-300 -442l-27 -265h-101zM297 737l-19 66l239 83l23 -85z" />
    <glyph glyph-name="Thorn" unicode="&#xde;" horiz-adv-x="601" 
d="M61 0l74 707h101l-12 -121h119q235 0 235 -193q0 -132 -83.5 -197t-219.5 -65h-99l-13 -131h-102zM216 505l-31 -291h71q105 0 160 39.5t55 132.5q0 65 -36.5 92t-104.5 27h-114z" />
    <glyph glyph-name="germandbls" unicode="&#xdf;" horiz-adv-x="596" 
d="M19 -220l82 787q23 207 236 207q67 0 121.5 -39t54.5 -114q0 -37 -21.5 -72.5t-47 -57.5t-47 -45.5t-21.5 -40.5q0 -26 28.5 -53.5t62 -50.5t62 -64.5t28.5 -91.5q0 -55 -33.5 -91.5t-77 -50t-92.5 -13.5q-77 0 -148 25l22 79q65 -21 120 -21q46 0 79 17.5t33 44.5
q0 29 -18 54t-44 45t-52.5 41t-44.5 51.5t-18 66.5q0 26 13.5 50.5t33 44.5l39 40t33 43.5t13.5 47.5q0 32 -26.5 52t-62.5 20q-64 0 -92.5 -32.5t-34.5 -92.5l-83 -786h-97z" />
    <glyph glyph-name="agrave" unicode="&#xe0;" horiz-adv-x="521" 
d="M147 -13q-119 0 -119 168q0 97 39.5 186.5t118 149.5t177.5 60q64 0 109 -8l-56 -543h-98l10 91q-112 -104 -181 -104zM172 77q20 0 56.5 21.5t62 41.5t46.5 39l30 288q-6 1 -27 1q-63 0 -113.5 -47.5t-75.5 -116t-25 -139.5q0 -88 46 -88zM423 612l-202 114l43 76
l193 -129z" />
    <glyph glyph-name="aacute" unicode="&#xe1;" horiz-adv-x="521" 
d="M147 -13q-119 0 -119 168q0 97 39.5 186.5t118 149.5t177.5 60q64 0 109 -8l-56 -543h-98l10 91q-112 -104 -181 -104zM172 77q20 0 56.5 21.5t62 41.5t46.5 39l30 288q-6 1 -27 1q-63 0 -113.5 -47.5t-75.5 -116t-25 -139.5q0 -88 46 -88zM300 613l-34 61l201 133
l42 -77z" />
    <glyph glyph-name="acircumflex" unicode="&#xe2;" horiz-adv-x="521" 
d="M491 616l-129 90l-147 -89l-40 62l198 119l166 -119zM147 -13q-119 0 -119 168q0 97 39.5 186.5t118 149.5t177.5 60q64 0 109 -8l-56 -543h-98l10 91q-112 -104 -181 -104zM172 77q20 0 56.5 21.5t62 41.5t46.5 39l30 288q-6 1 -27 1q-63 0 -113.5 -47.5t-75.5 -116
t-25 -139.5q0 -88 46 -88z" />
    <glyph glyph-name="atilde" unicode="&#xe3;" horiz-adv-x="521" 
d="M147 -13q-119 0 -119 168q0 97 39.5 186.5t118 149.5t177.5 60q64 0 109 -8l-56 -543h-98l10 91q-112 -104 -181 -104zM172 77q20 0 56.5 21.5t62 41.5t46.5 39l30 288q-6 1 -27 1q-63 0 -113.5 -47.5t-75.5 -116t-25 -139.5q0 -88 46 -88zM421 644q-22 0 -63.5 18
t-58.5 18q-36 0 -69 -25l-38 50q56 56 114 56q28 0 65.5 -18t54.5 -18q33 0 76 26l34 -51q-52 -56 -115 -56z" />
    <glyph glyph-name="adieresis" unicode="&#xe4;" horiz-adv-x="521" 
d="M205 662l11 108h95l-12 -108h-94zM412 662l11 108h95l-12 -108h-94zM147 -13q-119 0 -119 168q0 97 39.5 186.5t118 149.5t177.5 60q64 0 109 -8l-56 -543h-98l10 91q-112 -104 -181 -104zM172 77q20 0 56.5 21.5t62 41.5t46.5 39l30 288q-6 1 -27 1q-63 0 -113.5 -47.5
t-75.5 -116t-25 -139.5q0 -88 46 -88z" />
    <glyph glyph-name="aring" unicode="&#xe5;" horiz-adv-x="521" 
d="M147 -13q-119 0 -119 168q0 97 39.5 186.5t118 149.5t177.5 60q64 0 109 -8l-56 -543h-98l10 91q-112 -104 -181 -104zM172 77q20 0 56.5 21.5t62 41.5t46.5 39l30 288q-6 1 -27 1q-63 0 -113.5 -47.5t-75.5 -116t-25 -139.5q0 -88 46 -88zM354 608q-46 0 -78 23.5
t-32 66.5q0 55 38 89t93 34q45 0 76.5 -25t31.5 -68q0 -55 -36.5 -87.5t-92.5 -32.5zM359 659q26 0 43.5 16.5t17.5 42.5q0 22 -14.5 36t-37.5 14q-27 0 -44 -16t-17 -43q0 -23 14.5 -36.5t37.5 -13.5z" />
    <glyph glyph-name="ae" unicode="&#xe6;" horiz-adv-x="779" 
d="M148 -13q-117 0 -117 180q0 167 95.5 276.5t239.5 109.5q41 0 97 -8l-7 -54q65 70 157 70q77 0 112 -36t35 -93q0 -101 -155 -155l-166 -60v-21q0 -123 60 -123q56 0 168 55l35 -69q-60 -34 -110 -52.5t-113 -18.5q-109 0 -128 121q-120 -122 -203 -122zM174 77
q29 0 78.5 35t84.5 67l31 289l-32 2q-83 1 -144.5 -85.5t-61.5 -198.5q0 -61 11 -85t33 -24zM449 298l147 58q69 28 69 72q0 26 -16 39t-40 13q-67 0 -106.5 -52t-53.5 -130z" />
    <glyph glyph-name="ccedilla" unicode="&#xe7;" horiz-adv-x="455" 
d="M179 -12q-51 0 -84 29.5t-45.5 71.5t-12.5 96q0 160 74.5 268t202.5 108q83 0 134 -49l-48 -64q-44 31 -89 31q-48 0 -83.5 -28t-53.5 -73t-26.5 -89.5t-8.5 -88.5q0 -59 14.5 -92.5t35.5 -33.5q67 0 174 55l33 -69q-39 -23 -59.5 -34t-66 -24.5t-91.5 -13.5zM138 -249
l-27 57q66 37 70 75q2 22 -13 66h87q17 -36 13 -70q-8 -79 -130 -128z" />
    <glyph glyph-name="egrave" unicode="&#xe8;" horiz-adv-x="481" 
d="M178 -12q-139 0 -139 206q0 98 29.5 180t93 134.5t150.5 52.5q74 0 112 -37.5t38 -93.5q0 -101 -155 -155l-167 -60v-23q0 -61 13.5 -90t44.5 -29q64 0 169 56l34 -70q-58 -34 -109 -52.5t-114 -18.5zM149 296l148 58q70 26 70 71q0 28 -17 42t-41 14q-67 0 -106 -52
t-54 -133zM340 612l-202 114l43 76l193 -129z" />
    <glyph glyph-name="eacute" unicode="&#xe9;" horiz-adv-x="481" 
d="M178 -12q-139 0 -139 206q0 98 29.5 180t93 134.5t150.5 52.5q74 0 112 -37.5t38 -93.5q0 -101 -155 -155l-167 -60v-23q0 -61 13.5 -90t44.5 -29q64 0 169 56l34 -70q-58 -34 -109 -52.5t-114 -18.5zM149 296l148 58q70 26 70 71q0 28 -17 42t-41 14q-67 0 -106 -52
t-54 -133zM236 613l-34 61l201 133l42 -77z" />
    <glyph glyph-name="ecircumflex" unicode="&#xea;" horiz-adv-x="481" 
d="M178 -12q-139 0 -139 206q0 98 29.5 180t93 134.5t150.5 52.5q74 0 112 -37.5t38 -93.5q0 -101 -155 -155l-167 -60v-23q0 -61 13.5 -90t44.5 -29q64 0 169 56l34 -70q-58 -34 -109 -52.5t-114 -18.5zM441 616l-129 90l-147 -89l-40 62l198 119l166 -119zM149 296l148 58
q70 26 70 71q0 28 -17 42t-41 14q-67 0 -106 -52t-54 -133z" />
    <glyph glyph-name="edieresis" unicode="&#xeb;" horiz-adv-x="481" 
d="M178 -12q-139 0 -139 206q0 98 29.5 180t93 134.5t150.5 52.5q74 0 112 -37.5t38 -93.5q0 -101 -155 -155l-167 -60v-23q0 -61 13.5 -90t44.5 -29q64 0 169 56l34 -70q-58 -34 -109 -52.5t-114 -18.5zM149 296l148 58q70 26 70 71q0 28 -17 42t-41 14q-67 0 -106 -52
t-54 -133zM154 662l11 108h95l-12 -108h-94zM361 662l11 108h95l-12 -108h-94z" />
    <glyph glyph-name="igrave" unicode="&#xec;" horiz-adv-x="246" 
d="M42 0l57 546h98l-57 -546h-98zM205 612l-202 114l43 76l193 -129z" />
    <glyph glyph-name="iacute" unicode="&#xed;" horiz-adv-x="246" 
d="M104 613l-34 61l201 133l42 -77zM42 0l57 546h98l-57 -546h-98z" />
    <glyph glyph-name="icircumflex" unicode="&#xee;" horiz-adv-x="246" 
d="M300 616l-129 90l-147 -89l-40 62l198 119l166 -119zM42 0l57 546h98l-57 -546h-98z" />
    <glyph glyph-name="idieresis" unicode="&#xef;" horiz-adv-x="246" 
d="M7 662l11 108h95l-12 -108h-94zM214 662l11 108h95l-12 -108h-94zM42 0l57 546h98l-57 -546h-98z" />
    <glyph glyph-name="eth" unicode="&#xf0;" horiz-adv-x="536" 
d="M208 -12q-80 0 -126.5 57t-46.5 141q0 164 73 265.5t195 106.5q25 0 43 -9q-8 24 -30 68l-85 -35l-23 49l75 30q-23 29 -43 43l66 65q32 -22 60 -59l85 36l24 -49l-77 -30q89 -138 89 -311q0 -60 -14.5 -120.5t-45 -118t-87.5 -93.5t-132 -36zM232 71q47 0 83 42t54 106
t18 135q0 125 -99 125q-43 0 -78.5 -44t-54 -108t-18.5 -129q0 -127 95 -127z" />
    <glyph glyph-name="ntilde" unicode="&#xf1;" horiz-adv-x="541" 
d="M385 644q-22 0 -63.5 18t-58.5 18q-36 0 -69 -25l-38 50q56 56 114 56q28 0 65.5 -18t54.5 -18q33 0 76 26l34 -51q-52 -56 -115 -56zM42 0l58 546h98l-8 -81q35 29 59.5 46t62 33t71.5 16q55 0 78 -25t23 -82q0 -30 -4 -59l-42 -394h-98l41 374q2 17 2 44q0 26 -8 37.5
t-28 11.5q-59 0 -166 -86l-41 -381h-98z" />
    <glyph glyph-name="ograve" unicode="&#xf2;" horiz-adv-x="527" 
d="M362 612l-202 114l43 76l193 -129zM208 -12q-81 0 -127 56t-46 142q0 168 76.5 270.5t203.5 102.5q82 0 126.5 -56.5t44.5 -136.5q0 -66 -14.5 -128.5t-45 -120.5t-87 -93.5t-131.5 -35.5zM228 71q63 0 110.5 80t47.5 205q0 65 -23 94t-72 29q-63 0 -109 -81t-46 -200
q0 -127 92 -127z" />
    <glyph glyph-name="oacute" unicode="&#xf3;" horiz-adv-x="527" 
d="M251 613l-34 61l201 133l42 -77zM208 -12q-81 0 -127 56t-46 142q0 168 76.5 270.5t203.5 102.5q82 0 126.5 -56.5t44.5 -136.5q0 -66 -14.5 -128.5t-45 -120.5t-87 -93.5t-131.5 -35.5zM228 71q63 0 110.5 80t47.5 205q0 65 -23 94t-72 29q-63 0 -109 -81t-46 -200
q0 -127 92 -127z" />
    <glyph glyph-name="ocircumflex" unicode="&#xf4;" horiz-adv-x="527" 
d="M455 616l-129 90l-147 -89l-40 62l198 119l166 -119zM208 -12q-81 0 -127 56t-46 142q0 168 76.5 270.5t203.5 102.5q82 0 126.5 -56.5t44.5 -136.5q0 -66 -14.5 -128.5t-45 -120.5t-87 -93.5t-131.5 -35.5zM228 71q63 0 110.5 80t47.5 205q0 65 -23 94t-72 29
q-63 0 -109 -81t-46 -200q0 -127 92 -127z" />
    <glyph glyph-name="otilde" unicode="&#xf5;" horiz-adv-x="527" 
d="M208 -12q-81 0 -127 56t-46 142q0 168 76.5 270.5t203.5 102.5q82 0 126.5 -56.5t44.5 -136.5q0 -66 -14.5 -128.5t-45 -120.5t-87 -93.5t-131.5 -35.5zM228 71q63 0 110.5 80t47.5 205q0 65 -23 94t-72 29q-63 0 -109 -81t-46 -200q0 -127 92 -127zM380 644
q-22 0 -63.5 18t-58.5 18q-36 0 -69 -25l-38 50q56 56 114 56q28 0 65.5 -18t54.5 -18q33 0 76 26l34 -51q-52 -56 -115 -56z" />
    <glyph glyph-name="odieresis" unicode="&#xf6;" horiz-adv-x="527" 
d="M160 662l11 108h95l-12 -108h-94zM367 662l11 108h95l-12 -108h-94zM208 -12q-81 0 -127 56t-46 142q0 168 76.5 270.5t203.5 102.5q82 0 126.5 -56.5t44.5 -136.5q0 -66 -14.5 -128.5t-45 -120.5t-87 -93.5t-131.5 -35.5zM228 71q63 0 110.5 80t47.5 205q0 65 -23 94
t-72 29q-63 0 -109 -81t-46 -200q0 -127 92 -127z" />
    <glyph glyph-name="divide" unicode="&#xf7;" horiz-adv-x="632" 
d="M237 62l10 92h97l-10 -92h-97zM55 262l8 83h514l-9 -83h-513zM279 453l10 93h96l-10 -93h-96z" />
    <glyph glyph-name="oslash" unicode="&#xf8;" horiz-adv-x="555" 
d="M41 -29l-38 33l70 82q-21 47 -21 100q0 167 76.5 270t203.5 103q66 0 112 -43l52 60l38 -33l-58 -69q27 -46 27 -108q0 -66 -14.5 -128.5t-45 -120.5t-87 -93.5t-131.5 -35.5q-76 0 -122 54zM155 180l228 265q-22 34 -75 34q-60 0 -106.5 -76.5t-48.5 -194.5q0 -12 2 -28
zM245 71q62 0 109.5 78t48.5 199q0 21 -2 39l-234 -270q22 -46 78 -46z" />
    <glyph glyph-name="ugrave" unicode="&#xf9;" horiz-adv-x="540" 
d="M161 -11q-59 0 -84.5 26t-25.5 89q0 22 3 50l42 392h98l-41 -376q-3 -26 -3 -43q0 -29 9.5 -40.5t31.5 -11.5q65 0 161 87l42 384h97l-58 -546h-97l8 81q-96 -92 -183 -92zM353 611l-202 114l43 76l193 -129z" />
    <glyph glyph-name="uacute" unicode="&#xfa;" horiz-adv-x="540" 
d="M252 613l-34 61l201 133l42 -77zM161 -11q-59 0 -84.5 26t-25.5 89q0 22 3 50l42 392h98l-41 -376q-3 -26 -3 -43q0 -29 9.5 -40.5t31.5 -11.5q65 0 161 87l42 384h97l-58 -546h-97l8 81q-96 -92 -183 -92z" />
    <glyph glyph-name="ucircumflex" unicode="&#xfb;" horiz-adv-x="540" 
d="M446 616l-129 90l-147 -89l-40 62l198 119l166 -119zM161 -11q-59 0 -84.5 26t-25.5 89q0 22 3 50l42 392h98l-41 -376q-3 -26 -3 -43q0 -29 9.5 -40.5t31.5 -11.5q65 0 161 87l42 384h97l-58 -546h-97l8 81q-96 -92 -183 -92z" />
    <glyph glyph-name="udieresis" unicode="&#xfc;" horiz-adv-x="540" 
d="M151 662l11 108h95l-12 -108h-94zM358 662l11 108h95l-12 -108h-94zM161 -11q-59 0 -84.5 26t-25.5 89q0 22 3 50l42 392h98l-41 -376q-3 -26 -3 -43q0 -29 9.5 -40.5t31.5 -11.5q65 0 161 87l42 384h97l-58 -546h-97l8 81q-96 -92 -183 -92z" />
    <glyph glyph-name="yacute" unicode="&#xfd;" horiz-adv-x="496" 
d="M61 -220l109 220h-41l-84 546h105l61 -466l135 279q42 89 42 161q0 10 -2 26h103q2 -12 2 -26q0 -76 -48 -174l-280 -566h-102zM246 613l-34 61l201 133l42 -77z" />
    <glyph glyph-name="thorn" unicode="&#xfe;" horiz-adv-x="545" 
d="M18 -220l104 973h98l-29 -271q98 68 172 68q141 0 141 -166q0 -60 -11 -116t-35 -107t-59 -88.5t-86.5 -60t-114.5 -22.5q-30 0 -60 5l-23 -215h-97zM204 70q44 0 79.5 21t57.5 54t36.5 76t20 83t5.5 79q0 85 -57 85q-50 0 -163 -70l-35 -320q44 -8 56 -8z" />
    <glyph glyph-name="ydieresis" unicode="&#xff;" horiz-adv-x="496" 
d="M129 662l11 108h95l-12 -108h-94zM336 662l11 108h95l-12 -108h-94zM61 -220l109 220h-41l-84 546h105l61 -466l135 279q42 89 42 161q0 10 -2 26h103q2 -12 2 -26q0 -76 -48 -174l-280 -566h-102z" />
    <glyph glyph-name="Amacron" unicode="&#x100;" horiz-adv-x="652" 
d="M-38 0l351 707h142l152 -707h-105l-51 252h-263l-123 -252h-103zM227 330h208l-47 243l-12 78l-34 -79zM242 767l8 82h294l-9 -82h-293z" />
    <glyph glyph-name="amacron" unicode="&#x101;" horiz-adv-x="521" 
d="M147 -13q-119 0 -119 168q0 97 39.5 186.5t118 149.5t177.5 60q64 0 109 -8l-56 -543h-98l10 91q-112 -104 -181 -104zM172 77q20 0 56.5 21.5t62 41.5t46.5 39l30 288q-6 1 -27 1q-63 0 -113.5 -47.5t-75.5 -116t-25 -139.5q0 -88 46 -88zM222 665l9 81h272l-9 -81h-272
z" />
    <glyph glyph-name="Abreve" unicode="&#x102;" horiz-adv-x="652" 
d="M-38 0l351 707h142l152 -707h-105l-51 252h-263l-123 -252h-103zM227 330h208l-47 243l-12 78l-34 -79zM382 753q-46 0 -85.5 25.5t-58.5 59.5l55 48q42 -56 98 -56q63 0 112 55l43 -48q-68 -84 -164 -84z" />
    <glyph glyph-name="abreve" unicode="&#x103;" horiz-adv-x="521" 
d="M147 -13q-119 0 -119 168q0 97 39.5 186.5t118 149.5t177.5 60q64 0 109 -8l-56 -543h-98l10 91q-112 -104 -181 -104zM172 77q20 0 56.5 21.5t62 41.5t46.5 39l30 288q-6 1 -27 1q-63 0 -113.5 -47.5t-75.5 -116t-25 -139.5q0 -88 46 -88zM343 638q-47 0 -86 25.5
t-58 59.5l55 48q39 -56 97 -56q65 0 112 55l43 -48q-64 -84 -163 -84z" />
    <glyph glyph-name="Aogonek" unicode="&#x104;" horiz-adv-x="652" 
d="M518 -233q-64 0 -90.5 28.5t-23.5 73.5q2 37 29.5 73t67.5 63l-50 247h-263l-123 -252h-103l351 707h142l152 -707q-42 -25 -76.5 -56t-35.5 -58q-2 -24 11 -33t40 -9q25 0 52 8l13 -67q-34 -18 -93 -18zM227 330h208l-59 321z" />
    <glyph glyph-name="aogonek" unicode="&#x105;" horiz-adv-x="521" 
d="M326 -233q-58 0 -85.5 26t-27.5 69q0 38 31.5 77.5t74.5 67.5l9 84q-112 -104 -181 -104q-119 0 -119 168q0 97 39.5 186.5t118 149.5t177.5 60q64 0 109 -8l-57 -543q-110 -67 -112 -115q-1 -24 12 -32.5t39 -8.5q25 0 52 8l13 -67q-34 -18 -93 -18zM172 77
q20 0 56.5 21.5t62 41.5t46.5 39l30 288q-6 1 -27 1q-63 0 -113.5 -47.5t-75.5 -116t-25 -139.5q0 -88 46 -88z" />
    <glyph glyph-name="Cacute" unicode="&#x106;" horiz-adv-x="642" 
d="M380 -10q-150 0 -238.5 83t-88.5 234q0 189 106.5 298t293.5 109q99 0 172 -31l-33 -77q-69 22 -147 22q-137 0 -212.5 -85t-75.5 -225q0 -117 67.5 -178.5t183.5 -61.5q87 0 155 20l18 -81q-87 -27 -201 -27zM353 737l-19 66l239 83l23 -85z" />
    <glyph glyph-name="cacute" unicode="&#x107;" horiz-adv-x="455" 
d="M251 613l-34 61l201 133l42 -77zM179 -12q-51 0 -84 29.5t-45.5 71.5t-12.5 96q0 160 74.5 268t202.5 108q83 0 134 -49l-48 -64q-44 31 -89 31q-48 0 -83.5 -28t-53.5 -73t-26.5 -89.5t-8.5 -88.5q0 -59 14.5 -92.5t35.5 -33.5q67 0 174 55l33 -69q-39 -23 -59.5 -34
t-66 -24.5t-91.5 -13.5z" />
    <glyph glyph-name="Ccircumflex" unicode="&#x108;" horiz-adv-x="642" 
d="M380 -10q-150 0 -238.5 83t-88.5 234q0 189 106.5 298t293.5 109q99 0 172 -31l-33 -77q-69 22 -147 22q-137 0 -212.5 -85t-75.5 -225q0 -117 67.5 -178.5t183.5 -61.5q87 0 155 20l18 -81q-87 -27 -201 -27zM595 737l-137 65l-154 -63l-28 67l189 83l165 -84z" />
    <glyph glyph-name="ccircumflex" unicode="&#x109;" horiz-adv-x="455" 
d="M447 616l-129 90l-147 -89l-40 62l198 119l166 -119zM179 -12q-51 0 -84 29.5t-45.5 71.5t-12.5 96q0 160 74.5 268t202.5 108q83 0 134 -49l-48 -64q-44 31 -89 31q-48 0 -83.5 -28t-53.5 -73t-26.5 -89.5t-8.5 -88.5q0 -59 14.5 -92.5t35.5 -33.5q67 0 174 55l33 -69
q-39 -23 -59.5 -34t-66 -24.5t-91.5 -13.5z" />
    <glyph glyph-name="Cdotaccent" unicode="&#x10a;" horiz-adv-x="642" 
d="M397 765l11 107h93l-11 -107h-93zM380 -10q-150 0 -238.5 83t-88.5 234q0 189 106.5 298t293.5 109q99 0 172 -31l-33 -77q-69 22 -147 22q-137 0 -212.5 -85t-75.5 -225q0 -117 67.5 -178.5t183.5 -61.5q87 0 155 20l18 -81q-87 -27 -201 -27z" />
    <glyph glyph-name="cdotaccent" unicode="&#x10b;" horiz-adv-x="455" 
d="M179 -12q-51 0 -84 29.5t-45.5 71.5t-12.5 96q0 160 74.5 268t202.5 108q83 0 134 -49l-48 -64q-44 31 -89 31q-48 0 -83.5 -28t-53.5 -73t-26.5 -89.5t-8.5 -88.5q0 -59 14.5 -92.5t35.5 -33.5q67 0 174 55l33 -69q-39 -23 -59.5 -34t-66 -24.5t-91.5 -13.5zM271 662
l11 108h99l-11 -108h-99z" />
    <glyph glyph-name="Ccaron" unicode="&#x10c;" horiz-adv-x="642" 
d="M422 741l-166 83l36 69l137 -65l153 63l26 -68zM380 -10q-150 0 -238.5 83t-88.5 234q0 189 106.5 298t293.5 109q99 0 172 -31l-33 -77q-69 22 -147 22q-137 0 -212.5 -85t-75.5 -225q0 -117 67.5 -178.5t183.5 -61.5q87 0 155 20l18 -81q-87 -27 -201 -27z" />
    <glyph glyph-name="ccaron" unicode="&#x10d;" horiz-adv-x="455" 
d="M302 607l-167 120l48 62l129 -92l149 89l38 -59zM179 -12q-51 0 -84 29.5t-45.5 71.5t-12.5 96q0 160 74.5 268t202.5 108q83 0 134 -49l-48 -64q-44 31 -89 31q-48 0 -83.5 -28t-53.5 -73t-26.5 -89.5t-8.5 -88.5q0 -59 14.5 -92.5t35.5 -33.5q67 0 174 55l33 -69
q-39 -23 -59.5 -34t-66 -24.5t-91.5 -13.5z" />
    <glyph glyph-name="Dcaron" unicode="&#x10e;" horiz-adv-x="737" 
d="M348 741l-166 83l36 69l137 -65l153 63l26 -68zM61 0l74 707h203q159 0 257.5 -76.5t98.5 -233.5q0 -197 -111 -297t-311 -100h-211zM170 82h120q148 0 225 78t77 230q0 122 -70.5 178.5t-194.5 56.5h-99z" />
    <glyph glyph-name="dcaron" unicode="&#x10f;" horiz-adv-x="524" 
d="M525 551l41 204h93l-58 -204h-76zM148 -13q-116 0 -116 180q0 167 92 274.5t234 109.5q2 0 10 -0.5t10 -0.5l22 204h98l-80 -754h-98l10 91q-106 -104 -182 -104zM174 77q33 0 79.5 32t84.5 70l31 289q-7 1 -33 1q-84 1 -145 -85t-61 -198q0 -61 11 -85t33 -24z" />
    <glyph glyph-name="Dcroat" unicode="&#x110;" horiz-adv-x="766" 
d="M48 312l9 82h73l33 313h203q159 0 257.5 -76.5t98.5 -233.5q0 -197 -111 -297t-311 -100h-211l32 312h-73zM198 82h120q148 0 225 78t77 230q0 122 -70.5 178.5t-194.5 56.5h-99l-25 -231h147l-9 -82h-147z" />
    <glyph glyph-name="dcroat" unicode="&#x111;" horiz-adv-x="524" 
d="M253 610l10 71h129l8 73h98l-8 -73h82l-10 -71h-80l-64 -610h-98l10 91q-106 -104 -182 -104q-116 0 -116 180q0 167 92 274.5t234 109.5q2 0 10 -0.5t10 -0.5l6 60h-131zM174 77q33 0 79.5 32t84.5 70l31 289q-7 1 -33 1q-84 1 -145 -85t-61 -198q0 -61 11 -85t33 -24z
" />
    <glyph glyph-name="Emacron" unicode="&#x112;" horiz-adv-x="573" 
d="M200 767l8 82h294l-9 -82h-293zM61 0l74 707h410l-8 -81h-309l-24 -231h287l-9 -80h-286l-25 -234h332l-8 -81h-434z" />
    <glyph glyph-name="emacron" unicode="&#x113;" horiz-adv-x="481" 
d="M178 -12q-139 0 -139 206q0 98 29.5 180t93 134.5t150.5 52.5q74 0 112 -37.5t38 -93.5q0 -101 -155 -155l-167 -60v-23q0 -61 13.5 -90t44.5 -29q64 0 169 56l34 -70q-58 -34 -109 -52.5t-114 -18.5zM149 296l148 58q70 26 70 71q0 28 -17 42t-41 14q-67 0 -106 -52
t-54 -133zM183 665l9 81h272l-9 -81h-272z" />
    <glyph glyph-name="Ebreve" unicode="&#x114;" horiz-adv-x="573" 
d="M352 757q-46 0 -85.5 25.5t-58.5 59.5l55 48q42 -56 98 -56q63 0 112 55l43 -48q-68 -84 -164 -84zM61 0l74 707h410l-8 -81h-309l-24 -231h287l-9 -80h-286l-25 -234h332l-8 -81h-434z" />
    <glyph glyph-name="ebreve" unicode="&#x115;" horiz-adv-x="481" 
d="M178 -12q-139 0 -139 206q0 98 29.5 180t93 134.5t150.5 52.5q74 0 112 -37.5t38 -93.5q0 -101 -155 -155l-167 -60v-23q0 -61 13.5 -90t44.5 -29q64 0 169 56l34 -70q-58 -34 -109 -52.5t-114 -18.5zM149 296l148 58q70 26 70 71q0 28 -17 42t-41 14q-67 0 -106 -52
t-54 -133zM313 638q-47 0 -86 25.5t-58 59.5l55 48q39 -56 97 -56q65 0 112 55l43 -48q-64 -84 -163 -84z" />
    <glyph glyph-name="Edotaccent" unicode="&#x116;" horiz-adv-x="573" 
d="M304 765l11 107h93l-11 -107h-93zM61 0l74 707h410l-8 -81h-309l-24 -231h287l-9 -80h-286l-25 -234h332l-8 -81h-434z" />
    <glyph glyph-name="edotaccent" unicode="&#x117;" horiz-adv-x="481" 
d="M178 -12q-139 0 -139 206q0 98 29.5 180t93 134.5t150.5 52.5q74 0 112 -37.5t38 -93.5q0 -101 -155 -155l-167 -60v-23q0 -61 13.5 -90t44.5 -29q64 0 169 56l34 -70q-58 -34 -109 -52.5t-114 -18.5zM149 296l148 58q70 26 70 71q0 28 -17 42t-41 14q-67 0 -106 -52
t-54 -133zM249 662l11 108h99l-11 -108h-99z" />
    <glyph glyph-name="Eogonek" unicode="&#x118;" horiz-adv-x="573" 
d="M405 -233q-63 0 -89 29.5t-24 79.5q2 32 29 65.5t64 58.5h-324l74 707h410l-8 -81h-309l-24 -231h287l-9 -80h-286l-25 -234h332l-9 -81q-110 -65 -113 -113q-3 -43 52 -43q25 0 52 8l13 -67q-34 -18 -93 -18z" />
    <glyph glyph-name="eogonek" unicode="&#x119;" horiz-adv-x="483" 
d="M282 -233q-110 0 -110 100q0 58 63 126q-30 -5 -57 -5q-139 0 -139 206q0 98 29.5 180t93 134.5t150.5 52.5q74 0 112 -37.5t38 -93.5q0 -101 -155 -155l-167 -60v-23q0 -61 13.5 -90t44.5 -29q64 0 169 56l34 -70q-48 -28 -93.5 -82t-45.5 -94q0 -39 45 -39q30 0 59 8
l12 -67q-45 -18 -96 -18zM149 296l148 58q70 26 70 71q0 28 -17 42t-41 14q-67 0 -106 -52t-54 -133z" />
    <glyph glyph-name="Ecaron" unicode="&#x11a;" horiz-adv-x="573" 
d="M338 741l-166 83l36 69l137 -65l153 63l26 -68zM61 0l74 707h410l-8 -81h-309l-24 -231h287l-9 -80h-286l-25 -234h332l-8 -81h-434z" />
    <glyph glyph-name="ecaron" unicode="&#x11b;" horiz-adv-x="481" 
d="M178 -12q-139 0 -139 206q0 98 29.5 180t93 134.5t150.5 52.5q74 0 112 -37.5t38 -93.5q0 -101 -155 -155l-167 -60v-23q0 -61 13.5 -90t44.5 -29q64 0 169 56l34 -70q-58 -34 -109 -52.5t-114 -18.5zM297 607l-167 120l48 62l129 -92l149 89l38 -59zM149 296l148 58
q70 26 70 71q0 28 -17 42t-41 14q-67 0 -106 -52t-54 -133z" />
    <glyph glyph-name="Gcircumflex" unicode="&#x11c;" horiz-adv-x="671" 
d="M599 737l-137 65l-154 -63l-28 67l189 83l165 -84zM380 -10q-150 0 -238.5 83t-88.5 233q0 190 107 299t295 109q103 0 176 -31l-36 -77q-71 22 -148 22q-138 0 -213.5 -84t-75.5 -226q0 -116 67 -178t183 -62q42 0 82 9l26 263h101l-33 -324q-93 -36 -204 -36z" />
    <glyph glyph-name="gcircumflex" unicode="&#x11d;" horiz-adv-x="520" 
d="M479 616l-129 90l-147 -89l-40 62l198 119l166 -119zM153 -230q-111 0 -181 26l23 84q79 -25 145 -25q39 0 66 4.5t52 17.5t39.5 40t18.5 68l12 106q-57 -54 -99 -79t-83 -25q-62 0 -89.5 42.5t-27.5 126.5q0 163 96 279t238 116q63 0 109 -8l-60 -575q-6 -56 -31 -96.5
t-63 -61.5t-78.5 -30.5t-86.5 -9.5zM172 77q29 0 79.5 35t84.5 67l30 288q-6 1 -26 1q-88 0 -150.5 -91t-62.5 -209q0 -91 45 -91z" />
    <glyph glyph-name="Gbreve" unicode="&#x11e;" horiz-adv-x="671" 
d="M440 753q-46 0 -85.5 25.5t-58.5 59.5l55 48q42 -56 98 -56q63 0 112 55l43 -48q-68 -84 -164 -84zM380 -10q-150 0 -238.5 83t-88.5 233q0 190 107 299t295 109q103 0 176 -31l-36 -77q-71 22 -148 22q-138 0 -213.5 -84t-75.5 -226q0 -116 67 -178t183 -62q42 0 82 9
l26 263h101l-33 -324q-93 -36 -204 -36z" />
    <glyph glyph-name="gbreve" unicode="&#x11f;" horiz-adv-x="520" 
d="M153 -230q-111 0 -181 26l23 84q79 -25 145 -25q39 0 66 4.5t52 17.5t39.5 40t18.5 68l12 106q-57 -54 -99 -79t-83 -25q-62 0 -89.5 42.5t-27.5 126.5q0 163 96 279t238 116q63 0 109 -8l-60 -575q-6 -56 -31 -96.5t-63 -61.5t-78.5 -30.5t-86.5 -9.5zM172 77
q29 0 79.5 35t84.5 67l30 288q-6 1 -26 1q-88 0 -150.5 -91t-62.5 -209q0 -91 45 -91zM331 638q-47 0 -86 25.5t-58 59.5l55 48q39 -56 97 -56q65 0 112 55l43 -48q-64 -84 -163 -84z" />
    <glyph glyph-name="Gdotaccent" unicode="&#x120;" horiz-adv-x="671" 
d="M417 765l11 107h93l-11 -107h-93zM380 -10q-150 0 -238.5 83t-88.5 233q0 190 107 299t295 109q103 0 176 -31l-36 -77q-71 22 -148 22q-138 0 -213.5 -84t-75.5 -226q0 -116 67 -178t183 -62q42 0 82 9l26 263h101l-33 -324q-93 -36 -204 -36z" />
    <glyph glyph-name="gdotaccent" unicode="&#x121;" horiz-adv-x="520" 
d="M289 662l11 108h99l-11 -108h-99zM153 -230q-111 0 -181 26l23 84q79 -25 145 -25q39 0 66 4.5t52 17.5t39.5 40t18.5 68l12 106q-57 -54 -99 -79t-83 -25q-62 0 -89.5 42.5t-27.5 126.5q0 163 96 279t238 116q63 0 109 -8l-60 -575q-6 -56 -31 -96.5t-63 -61.5
t-78.5 -30.5t-86.5 -9.5zM172 77q29 0 79.5 35t84.5 67l30 288q-6 1 -26 1q-88 0 -150.5 -91t-62.5 -209q0 -91 45 -91z" />
    <glyph glyph-name="Gcommaaccent" unicode="&#x122;" horiz-adv-x="672" 
d="M288 -263l40 204h94l-58 -204h-76zM380 -10q-150 0 -238.5 83t-88.5 233q0 190 107 299t295 109q103 0 176 -31l-36 -77q-71 22 -148 22q-138 0 -213.5 -84t-75.5 -226q0 -116 67 -178t183 -62q42 0 82 9l26 263h101l-33 -324q-93 -36 -204 -36z" />
    <glyph glyph-name="gcommaaccent" unicode="&#x123;" horiz-adv-x="520" 
d="M441 808l-40 -204h-94l58 204h76zM153 -230q-111 0 -181 26l23 84q79 -25 145 -25q39 0 66 4.5t52 17.5t39.5 40t18.5 68l12 106q-57 -54 -99 -79t-83 -25q-62 0 -89.5 42.5t-27.5 126.5q0 163 96 279t238 116q63 0 109 -8l-60 -575q-6 -56 -31 -96.5t-63 -61.5
t-78.5 -30.5t-86.5 -9.5zM172 77q29 0 79.5 35t84.5 67l30 288q-6 1 -26 1q-88 0 -150.5 -91t-62.5 -209q0 -91 45 -91z" />
    <glyph glyph-name="Hcircumflex" unicode="&#x124;" horiz-adv-x="750" 
d="M61 0l74 707h101l-32 -312h360l33 312h102l-74 -707h-102l34 314h-361l-34 -314h-101zM565 737l-137 65l-154 -63l-28 67l189 83l165 -84z" />
    <glyph glyph-name="hcircumflex" unicode="&#x125;" horiz-adv-x="540" 
d="M42 0l79 754h99l-31 -289q37 30 60.5 46.5t61 32.5t71.5 16q56 0 78.5 -24.5t22.5 -82.5q0 -30 -4 -59l-42 -394h-98l41 374q3 28 3 48q0 24 -8.5 34.5t-28.5 10.5q-57 0 -166 -86l-40 -381h-98zM318 754l-137 65l-154 -63l-28 67l189 83l165 -84z" />
    <glyph glyph-name="Hbar" unicode="&#x126;" horiz-adv-x="782" 
d="M66 501l8 73h63l14 133h101l-14 -133h361l14 133h102l-14 -133h68l-8 -73h-68l-52 -501h-102l34 314h-361l-34 -314h-101l52 501h-63zM220 395h360l11 106h-360z" />
    <glyph glyph-name="hbar" unicode="&#x127;" horiz-adv-x="540" 
d="M28 610l8 66h77l8 78h99l-9 -78h125l-8 -66h-124l-15 -145q37 30 60.5 46.5t61 32.5t71.5 16q56 0 78.5 -24.5t22.5 -82.5q0 -30 -4 -59l-42 -394h-98l41 374q3 28 3 48q0 24 -8.5 34.5t-28.5 10.5q-57 0 -166 -86l-40 -381h-98l64 610h-78z" />
    <glyph glyph-name="Itilde" unicode="&#x128;" horiz-adv-x="287" 
d="M61 0l74 707h101l-74 -707h-101zM250 746q-22 0 -63 18.5t-58 18.5q-38 0 -75 -26l-35 53q58 52 116 52q26 0 67 -18t57 -18q35 0 78 27l31 -55q-54 -52 -118 -52z" />
    <glyph glyph-name="itilde" unicode="&#x129;" horiz-adv-x="246" 
d="M42 0l57 546h98l-57 -546h-98zM225 644q-22 0 -63.5 18t-58.5 18q-36 0 -69 -25l-38 50q56 56 114 56q28 0 65.5 -18t54.5 -18q33 0 76 26l34 -51q-52 -56 -115 -56z" />
    <glyph glyph-name="Imacron" unicode="&#x12a;" horiz-adv-x="287" 
d="M61 0l74 707h101l-74 -707h-101zM48 767l8 82h294l-9 -82h-293z" />
    <glyph glyph-name="imacron" unicode="&#x12b;" horiz-adv-x="246" 
d="M42 0l57 546h98l-57 -546h-98zM29 665l9 81h272l-9 -81h-272z" />
    <glyph glyph-name="Ibreve" unicode="&#x12c;" horiz-adv-x="287" 
d="M61 0l74 707h101l-74 -707h-101zM191 753q-46 0 -85.5 25.5t-58.5 59.5l55 48q42 -56 98 -56q63 0 112 55l43 -48q-68 -84 -164 -84z" />
    <glyph glyph-name="ibreve" unicode="&#x12d;" horiz-adv-x="246" 
d="M42 0l57 546h98l-57 -546h-98zM156 638q-47 0 -86 25.5t-58 59.5l55 48q39 -56 97 -56q65 0 112 55l43 -48q-64 -84 -163 -84z" />
    <glyph glyph-name="Iogonek" unicode="&#x12e;" horiz-adv-x="286" 
d="M72 -233q-63 0 -89 29t-24 75q3 38 32 74t71 61l73 701h101l-76 -708q-106 -63 -111 -113q-3 -24 11 -33t40 -9q25 0 52 8l13 -67q-34 -18 -93 -18z" />
    <glyph glyph-name="iogonek" unicode="&#x12f;" horiz-adv-x="246" 
d="M142 -148l13 -67q-40 -18 -88 -18q-118 0 -118 103q0 35 28 73.5t66 65.5l56 537h98l-57 -546q-36 -22 -68 -56t-33 -62q-1 -20 12.5 -28.5t35.5 -8.5q33 0 55 7zM118 662l11 108h99l-11 -108h-99z" />
    <glyph glyph-name="Idotaccent" unicode="&#x130;" horiz-adv-x="287" 
d="M149 765l11 107h93l-11 -107h-93zM61 0l74 707h101l-74 -707h-101z" />
    <glyph glyph-name="dotlessi" unicode="&#x131;" horiz-adv-x="246" 
d="M42 0l57 546h98l-57 -546h-98z" />
    <glyph glyph-name="IJ" unicode="&#x132;" horiz-adv-x="571" 
d="M61 0l74 707h101l-74 -707h-101zM221 -189l-32 73q91 49 126 105.5t47 161.5l58 556h101l-58 -554q-5 -50 -14 -89t-26.5 -78.5t-43 -69.5t-65.5 -57.5t-93 -47.5z" />
    <glyph glyph-name="ij" unicode="&#x133;" horiz-adv-x="501" 
d="M186 -220q-50 0 -88 16l24 80q41 -11 71 -11q52 0 74 29.5t29 93.5l58 558h98l-59 -559q-12 -116 -65 -161.5t-142 -45.5zM42 0l57 546h98l-57 -546h-98zM114 662l11 108h99l-11 -108h-99zM368 662l11 108h99l-11 -108h-99z" />
    <glyph glyph-name="Jcircumflex" unicode="&#x134;" horiz-adv-x="288" 
d="M-62 -189l-32 73q91 49 126 105.5t47 161.5l58 556h101l-58 -554q-5 -50 -14 -89t-26.5 -78.5t-43 -69.5t-65.5 -57.5t-93 -47.5zM340 737l-137 65l-154 -63l-28 67l189 83l165 -84z" />
    <glyph glyph-name="jcircumflex" unicode="&#x135;" horiz-adv-x="246" 
d="M295 616l-129 90l-147 -89l-40 62l198 119l166 -119zM-69 -220q-50 0 -88 16l24 80q41 -11 71 -11q52 0 74 29.5t29 93.5l58 558h98l-59 -559q-12 -116 -65 -161.5t-142 -45.5z" />
    <glyph glyph-name="Kcommaaccent" unicode="&#x136;" horiz-adv-x="625" 
d="M205 -263l40 204h94l-58 -204h-76zM484 -25l-271 394l1 12l307 326h126l-317 -328l250 -356zM61 0l74 707h101l-74 -707h-101z" />
    <glyph glyph-name="kcommaaccent" unicode="&#x137;" horiz-adv-x="498" 
d="M145 -263l40 204h94l-58 -204h-76zM359 -10l-181 295l199 261h111l-200 -255l174 -283zM42 0l79 754h98l-80 -754h-97z" />
    <glyph glyph-name="uni0138" unicode="&#x138;" horiz-adv-x="500" 
d="M359 -10l-180 297l201 259h111l-203 -255l174 -283zM42 0l57 546h98l-57 -546h-98z" />
    <glyph glyph-name="Lacute" unicode="&#x139;" horiz-adv-x="502" 
d="M149 737l-19 66l239 83l23 -85zM61 0l74 707h101l-65 -623h307l-9 -84h-408z" />
    <glyph glyph-name="lacute" unicode="&#x13a;" horiz-adv-x="246" 
d="M124 789l-19 66l239 83l23 -85zM42 0l79 754h98l-80 -754h-97z" />
    <glyph glyph-name="Lcommaaccent" unicode="&#x13b;" horiz-adv-x="502" 
d="M183 -263l40 204h94l-58 -204h-76zM61 0l74 707h101l-65 -623h307l-9 -84h-408z" />
    <glyph glyph-name="lcommaaccent" unicode="&#x13c;" horiz-adv-x="245" 
d="M10 -263l40 204h94l-58 -204h-76zM42 0l79 754h98l-80 -754h-97z" />
    <glyph glyph-name="Lcaron" unicode="&#x13d;" horiz-adv-x="502" 
d="M293 553l41 204h93l-58 -204h-76zM61 0l74 707h101l-65 -623h307l-9 -84h-408z" />
    <glyph glyph-name="lcaron" unicode="&#x13e;" horiz-adv-x="276" 
d="M243 551l41 204h93l-58 -204h-76zM42 0l79 754h98l-80 -754h-97z" />
    <glyph glyph-name="Ldot" unicode="&#x13f;" horiz-adv-x="515" 
d="M61 0l74 707h101l-65 -623h307l-9 -84h-408zM325 317l11 105h113l-11 -105h-113z" />
    <glyph glyph-name="ldot" unicode="&#x140;" horiz-adv-x="339" 
d="M246 317l11 105h113l-11 -105h-113zM42 0l79 754h98l-80 -754h-97z" />
    <glyph glyph-name="Lslash" unicode="&#x141;" horiz-adv-x="526" 
d="M36 256l7 75l81 44l35 332h101l-29 -273l131 71l-7 -76l-132 -72l-28 -273h307l-9 -84h-408l31 299z" />
    <glyph glyph-name="lslash" unicode="&#x142;" horiz-adv-x="324" 
d="M23 277l8 75l87 46l37 356h98l-32 -300l95 51l-7 -73l-96 -52l-40 -380h-97l34 324z" />
    <glyph glyph-name="Nacute" unicode="&#x143;" horiz-adv-x="739" 
d="M351 737l-19 66l239 83l23 -85zM61 0l75 707h136l255 -609l61 609h101l-76 -707h-142l-248 594l-61 -594h-101z" />
    <glyph glyph-name="nacute" unicode="&#x144;" horiz-adv-x="541" 
d="M272 613l-34 61l201 133l42 -77zM42 0l58 546h98l-8 -81q35 29 59.5 46t62 33t71.5 16q55 0 78 -25t23 -82q0 -30 -4 -59l-42 -394h-98l41 374q2 17 2 44q0 26 -8 37.5t-28 11.5q-59 0 -166 -86l-41 -381h-98z" />
    <glyph glyph-name="Ncommaaccent" unicode="&#x145;" horiz-adv-x="738" 
d="M250 -263l40 204h94l-58 -204h-76zM61 0l75 707h136l255 -609l61 609h101l-76 -707h-142l-248 594l-61 -594h-101z" />
    <glyph glyph-name="ncommaaccent" unicode="&#x146;" horiz-adv-x="540" 
d="M156 -263l40 204h94l-58 -204h-76zM41 0l58 546h98l-8 -81q35 29 59.5 46t62 33t71.5 16q55 0 78 -25t23 -82q0 -30 -4 -59l-42 -394h-98l41 374q2 17 2 44q0 26 -8 37.5t-28 11.5q-59 0 -166 -86l-41 -381h-98z" />
    <glyph glyph-name="Ncaron" unicode="&#x147;" horiz-adv-x="739" 
d="M421 741l-166 83l36 69l137 -65l153 63l26 -68zM61 0l75 707h136l255 -609l61 609h101l-76 -707h-142l-248 594l-61 -594h-101z" />
    <glyph glyph-name="ncaron" unicode="&#x148;" horiz-adv-x="541" 
d="M304 607l-167 120l48 62l129 -92l149 89l38 -59zM42 0l58 546h98l-8 -81q35 29 59.5 46t62 33t71.5 16q55 0 78 -25t23 -82q0 -30 -4 -59l-42 -394h-98l41 374q2 17 2 44q0 26 -8 37.5t-28 11.5q-59 0 -166 -86l-41 -381h-98z" />
    <glyph glyph-name="napostrophe" unicode="&#x149;" horiz-adv-x="582" 
d="M-8 539q38 76 50 222h104q-4 -75 -21 -125.5t-52 -96.5h-81zM83 0l58 546h98l-8 -81q35 29 59.5 46t62 33t71.5 16q55 0 78 -25t23 -82q0 -30 -4 -59l-42 -394h-98l41 374q2 17 2 44q0 26 -8 37.5t-28 11.5q-59 0 -166 -86l-41 -381h-98z" />
    <glyph glyph-name="Eng" unicode="&#x14a;" horiz-adv-x="738" 
d="M404 -220q-50 0 -88 16l24 80q41 -11 71 -11q50 0 73 28.5t29 84.5l2 22h-44l-248 594l-61 -594h-101l75 707h136l255 -609l61 609h101l-80 -738q-10 -93 -57.5 -141t-147.5 -48z" />
    <glyph glyph-name="eng" unicode="&#x14b;" horiz-adv-x="541" 
d="M229 -220q-50 0 -88 16l24 80q41 -11 71 -11q52 0 74 29.5t28 93.5l43 384q0 4 1.5 20.5t1.5 23.5q0 28 -9 39.5t-30 11.5q-55 0 -164 -86l-41 -381h-98l58 546h98l-8 -81q2 1 14 11t17.5 13.5t18.5 13t21 14.5t21.5 13t24 12.5t23.5 9t25 6.5t24 2q58 0 81.5 -24
t23.5 -82q0 -31 -4 -60l-44 -407q-12 -116 -65 -161.5t-142 -45.5z" />
    <glyph glyph-name="Omacron" unicode="&#x14c;" horiz-adv-x="805" 
d="M303 767l8 82h294l-9 -82h-293zM361 -11q-146 0 -227 84t-81 231q0 187 107 300.5t292 113.5q147 0 228.5 -83.5t81.5 -230.5q0 -189 -107 -302t-294 -113zM373 71q137 0 210.5 92t73.5 234q0 109 -56 173t-163 64q-135 0 -208.5 -90.5t-73.5 -230.5q0 -110 55 -176
t162 -66z" />
    <glyph glyph-name="omacron" unicode="&#x14d;" horiz-adv-x="527" 
d="M183 665l9 81h272l-9 -81h-272zM208 -12q-81 0 -127 56t-46 142q0 168 76.5 270.5t203.5 102.5q82 0 126.5 -56.5t44.5 -136.5q0 -66 -14.5 -128.5t-45 -120.5t-87 -93.5t-131.5 -35.5zM228 71q63 0 110.5 80t47.5 205q0 65 -23 94t-72 29q-63 0 -109 -81t-46 -200
q0 -127 92 -127z" />
    <glyph glyph-name="Obreve" unicode="&#x14e;" horiz-adv-x="805" 
d="M442 754q-46 0 -85.5 25.5t-58.5 59.5l55 48q42 -56 98 -56q63 0 112 55l43 -48q-68 -84 -164 -84zM361 -11q-146 0 -227 84t-81 231q0 187 107 300.5t292 113.5q147 0 228.5 -83.5t81.5 -230.5q0 -189 -107 -302t-294 -113zM373 71q137 0 210.5 92t73.5 234
q0 109 -56 173t-163 64q-135 0 -208.5 -90.5t-73.5 -230.5q0 -110 55 -176t162 -66z" />
    <glyph glyph-name="obreve" unicode="&#x14f;" horiz-adv-x="527" 
d="M208 -12q-81 0 -127 56t-46 142q0 168 76.5 270.5t203.5 102.5q82 0 126.5 -56.5t44.5 -136.5q0 -66 -14.5 -128.5t-45 -120.5t-87 -93.5t-131.5 -35.5zM228 71q63 0 110.5 80t47.5 205q0 65 -23 94t-72 29q-63 0 -109 -81t-46 -200q0 -127 92 -127zM301 638
q-47 0 -86 25.5t-58 59.5l55 48q39 -56 97 -56q65 0 112 55l43 -48q-64 -84 -163 -84z" />
    <glyph glyph-name="Ohungarumlaut" unicode="&#x150;" horiz-adv-x="805" 
d="M361 -11q-146 0 -227 84t-81 231q0 187 107 300.5t292 113.5q147 0 228.5 -83.5t81.5 -230.5q0 -189 -107 -302t-294 -113zM373 71q137 0 210.5 92t73.5 234q0 109 -56 173t-163 64q-135 0 -208.5 -90.5t-73.5 -230.5q0 -110 55 -176t162 -66zM317 735l-46 55l189 164
l56 -71zM516 735l-20 68l237 83l24 -88z" />
    <glyph glyph-name="ohungarumlaut" unicode="&#x151;" horiz-adv-x="527" 
d="M180 615l-34 52l200 154l49 -72zM413 617l-31 57l203 123l38 -76zM208 -12q-81 0 -127 56t-46 142q0 168 76.5 270.5t203.5 102.5q82 0 126.5 -56.5t44.5 -136.5q0 -66 -14.5 -128.5t-45 -120.5t-87 -93.5t-131.5 -35.5zM228 71q63 0 110.5 80t47.5 205q0 65 -23 94
t-72 29q-63 0 -109 -81t-46 -200q0 -127 92 -127z" />
    <glyph glyph-name="OE" unicode="&#x152;" horiz-adv-x="1096" 
d="M361 -11q-147 0 -227.5 84t-80.5 231q0 188 107 301t293 113q125 0 199 -66l6 55h410l-8 -82h-309l-24 -230h286l-8 -80h-286l-26 -234h333l-8 -81h-434l5 53q-94 -64 -228 -64zM373 72q156 0 231 122l33 314q-48 125 -199 125q-135 0 -208.5 -90.5t-73.5 -229.5
q0 -110 55 -175.5t162 -65.5z" />
    <glyph glyph-name="oe" unicode="&#x153;" horiz-adv-x="812" 
d="M208 -12q-81 0 -127 56t-46 142q0 168 76.5 270.5t203.5 102.5q100 0 143 -93q72 95 187 95q74 0 110.5 -36.5t36.5 -92.5q0 -31 -12.5 -56.5t-36 -43.5t-48.5 -31t-57 -24l-166 -60q-1 -5 -1 -21q0 -123 60 -123q61 0 169 55l34 -69q-58 -34 -109 -52.5t-114 -18.5
q-87 0 -116 93q-71 -93 -187 -93zM228 71q63 0 110.5 80t47.5 205q0 65 -23 94t-72 29q-61 0 -108 -80.5t-47 -200.5q0 -127 92 -127zM481 298l147 58q70 29 70 72q0 26 -16.5 39t-40.5 13q-66 0 -106 -52t-54 -130z" />
    <glyph glyph-name="Racute" unicode="&#x154;" horiz-adv-x="654" 
d="M525 -24l-198 317q-26 -3 -74 -3h-59l-31 -290h-102l74 707h232q97 0 158 -45.5t61 -132.5q0 -74 -39.5 -130.5t-113.5 -81.5l187 -295zM202 368h85q192 0 192 156q0 102 -141 102h-109zM261 737l-19 66l239 83l23 -85z" />
    <glyph glyph-name="racute" unicode="&#x155;" horiz-adv-x="363" 
d="M203 613l-34 61l201 133l42 -77zM42 0l58 546h97l-8 -81q2 2 7 6q98 85 160 85q16 0 29 -2l-18 -94q-14 3 -34 3q-9 0 -20 -3t-24 -9.5t-22.5 -12t-24.5 -16.5t-22 -16t-22.5 -17t-17.5 -14l-40 -375h-98z" />
    <glyph glyph-name="Rcommaaccent" unicode="&#x156;" horiz-adv-x="654" 
d="M525 -24l-198 317q-26 -3 -74 -3h-59l-31 -290h-102l74 707h232q97 0 158 -45.5t61 -132.5q0 -74 -39.5 -130.5t-113.5 -81.5l187 -295zM202 368h85q192 0 192 156q0 102 -141 102h-109zM226 -263l40 204h94l-58 -204h-76z" />
    <glyph glyph-name="rcommaaccent" unicode="&#x157;" horiz-adv-x="362" 
d="M9 -263l40 204h94l-58 -204h-76zM42 0l58 546h97l-8 -81q2 2 7 6q98 85 160 85q16 0 29 -2l-18 -94q-14 3 -34 3q-9 0 -20 -3t-24 -9.5t-22.5 -12t-24.5 -16.5t-22 -16t-22.5 -17t-17.5 -14l-40 -375h-98z" />
    <glyph glyph-name="Rcaron" unicode="&#x158;" horiz-adv-x="654" 
d="M525 -24l-198 317q-26 -3 -74 -3h-59l-31 -290h-102l74 707h232q97 0 158 -45.5t61 -132.5q0 -74 -39.5 -130.5t-113.5 -81.5l187 -295zM202 368h85q192 0 192 156q0 102 -141 102h-109zM337 741l-166 83l36 69l137 -65l153 63l26 -68z" />
    <glyph glyph-name="rcaron" unicode="&#x159;" horiz-adv-x="363" 
d="M242 607l-167 120l48 62l129 -92l149 89l38 -59zM42 0l58 546h97l-8 -81q2 2 7 6q98 85 160 85q16 0 29 -2l-18 -94q-14 3 -34 3q-9 0 -20 -3t-24 -9.5t-22.5 -12t-24.5 -16.5t-22 -16t-22.5 -17t-17.5 -14l-40 -375h-98z" />
    <glyph glyph-name="Sacute" unicode="&#x15a;" horiz-adv-x="535" 
d="M214 -12q-51 0 -109 14t-97 35l38 82q101 -43 175 -43q69 0 114 27.5t45 91.5q0 35 -30.5 63.5t-73.5 51t-86.5 49t-74 69.5t-30.5 99q0 92 68 140.5t167 48.5q107 0 190 -43l-35 -76q-76 33 -157 33q-134 0 -134 -97q0 -33 30.5 -61.5t74 -53t87.5 -51.5t74.5 -69.5
t30.5 -94.5q0 -105 -77.5 -160t-189.5 -55zM244 737l-19 66l239 83l23 -85z" />
    <glyph glyph-name="sacute" unicode="&#x15b;" horiz-adv-x="427" 
d="M200 613l-34 61l201 133l42 -77zM160 -10q-96 0 -159 29l27 80q73 -25 139 -25q25 0 47 4.5t42 21t20 43.5q0 25 -21.5 48t-52.5 43t-62.5 42t-53 54.5t-21.5 71.5q0 81 52.5 118t135.5 37q91 0 151 -30l-27 -75q-70 25 -129 25q-89 0 -89 -65q0 -25 22 -48.5t53 -44
t62 -43.5t53 -57t22 -74q0 -36 -13.5 -64t-34.5 -44.5t-50 -27.5t-56.5 -15t-56.5 -4z" />
    <glyph glyph-name="Scircumflex" unicode="&#x15c;" horiz-adv-x="535" 
d="M214 -12q-51 0 -109 14t-97 35l38 82q101 -43 175 -43q69 0 114 27.5t45 91.5q0 35 -30.5 63.5t-73.5 51t-86.5 49t-74 69.5t-30.5 99q0 92 68 140.5t167 48.5q107 0 190 -43l-35 -76q-76 33 -157 33q-134 0 -134 -97q0 -33 30.5 -61.5t74 -53t87.5 -51.5t74.5 -69.5
t30.5 -94.5q0 -105 -77.5 -160t-189.5 -55zM474 737l-137 65l-154 -63l-28 67l189 83l165 -84z" />
    <glyph glyph-name="scircumflex" unicode="&#x15d;" horiz-adv-x="427" 
d="M394 616l-129 90l-147 -89l-40 62l198 119l166 -119zM160 -10q-96 0 -159 29l27 80q73 -25 139 -25q25 0 47 4.5t42 21t20 43.5q0 25 -21.5 48t-52.5 43t-62.5 42t-53 54.5t-21.5 71.5q0 81 52.5 118t135.5 37q91 0 151 -30l-27 -75q-70 25 -129 25q-89 0 -89 -65
q0 -25 22 -48.5t53 -44t62 -43.5t53 -57t22 -74q0 -36 -13.5 -64t-34.5 -44.5t-50 -27.5t-56.5 -15t-56.5 -4z" />
    <glyph glyph-name="Scedilla" unicode="&#x15e;" horiz-adv-x="535" 
d="M214 -12q-51 0 -109 14t-97 35l38 82q101 -43 175 -43q69 0 114 27.5t45 91.5q0 35 -30.5 63.5t-73.5 51t-86.5 49t-74 69.5t-30.5 99q0 92 68 140.5t167 48.5q107 0 190 -43l-35 -76q-76 33 -157 33q-134 0 -134 -97q0 -33 30.5 -61.5t74 -53t87.5 -51.5t74.5 -69.5
t30.5 -94.5q0 -105 -77.5 -160t-189.5 -55zM151 -249l-27 57q66 37 70 75q2 22 -13 66h87q17 -36 13 -70q-8 -79 -130 -128z" />
    <glyph glyph-name="scedilla" unicode="&#x15f;" horiz-adv-x="427" 
d="M160 -10q-96 0 -159 29l27 80q73 -25 139 -25q25 0 47 4.5t42 21t20 43.5q0 25 -21.5 48t-52.5 43t-62.5 42t-53 54.5t-21.5 71.5q0 81 52.5 118t135.5 37q91 0 151 -30l-27 -75q-70 25 -129 25q-89 0 -89 -65q0 -25 22 -48.5t53 -44t62 -43.5t53 -57t22 -74
q0 -36 -13.5 -64t-34.5 -44.5t-50 -27.5t-56.5 -15t-56.5 -4zM87 -249l-27 57q66 37 70 75q2 22 -13 66h87q17 -36 13 -70q-8 -79 -130 -128z" />
    <glyph glyph-name="Scaron" unicode="&#x160;" horiz-adv-x="535" 
d="M311 741l-166 83l36 69l137 -65l153 63l26 -68zM214 -12q-51 0 -109 14t-97 35l38 82q101 -43 175 -43q69 0 114 27.5t45 91.5q0 35 -30.5 63.5t-73.5 51t-86.5 49t-74 69.5t-30.5 99q0 92 68 140.5t167 48.5q107 0 190 -43l-35 -76q-76 33 -157 33q-134 0 -134 -97
q0 -33 30.5 -61.5t74 -53t87.5 -51.5t74.5 -69.5t30.5 -94.5q0 -105 -77.5 -160t-189.5 -55z" />
    <glyph glyph-name="scaron" unicode="&#x161;" horiz-adv-x="427" 
d="M253 607l-167 120l48 62l129 -92l149 89l38 -59zM160 -10q-96 0 -159 29l27 80q73 -25 139 -25q25 0 47 4.5t42 21t20 43.5q0 25 -21.5 48t-52.5 43t-62.5 42t-53 54.5t-21.5 71.5q0 81 52.5 118t135.5 37q91 0 151 -30l-27 -75q-70 25 -129 25q-89 0 -89 -65
q0 -25 22 -48.5t53 -44t62 -43.5t53 -57t22 -74q0 -36 -13.5 -64t-34.5 -44.5t-50 -27.5t-56.5 -15t-56.5 -4z" />
    <glyph glyph-name="Tcommaaccent" unicode="&#x162;" horiz-adv-x="582" 
d="M174 -263l40 204h94l-58 -204h-76zM207 0l65 624h-237l10 83h575l-9 -83h-237l-65 -624h-102z" />
    <glyph glyph-name="tcommaaccent" unicode="&#x163;" horiz-adv-x="393" 
d="M105 -263l40 204h94l-58 -204h-76zM191 -12q-55 0 -83.5 26t-29.5 86q0 28 2 45l36 323h-80l8 78h81l11 112h97l-11 -112h160l-7 -78h-161l-36 -326q-7 -67 38 -67q51 0 116 30l21 -74q-74 -43 -162 -43z" />
    <glyph glyph-name="Tcaron" unicode="&#x164;" horiz-adv-x="582" 
d="M329 741l-166 83l36 69l137 -65l153 63l26 -68zM207 0l65 624h-237l10 83h575l-9 -83h-237l-65 -624h-102z" />
    <glyph glyph-name="tcaron" unicode="&#x165;" horiz-adv-x="392" 
d="M290 610l41 204h93l-58 -204h-76zM191 -12q-55 0 -83.5 26t-29.5 86q0 28 2 45l36 323h-80l8 78h81l11 112h97l-11 -112h160l-7 -78h-161l-36 -326q-7 -67 38 -67q51 0 116 30l21 -74q-74 -43 -162 -43z" />
    <glyph glyph-name="Tbar" unicode="&#x166;" horiz-adv-x="582" 
d="M98 327l10 71h140l24 226h-237l10 83h575l-9 -83h-237l-24 -226h143l-9 -71h-141l-34 -327h-102l34 327h-143z" />
    <glyph glyph-name="tbar" unicode="&#x167;" horiz-adv-x="392" 
d="M35 278l8 71h60l13 119h-80l8 78h81l11 112h97l-11 -112h160l-7 -78h-161l-13 -119h136l-8 -71h-136l-15 -136q-7 -67 38 -67q51 0 116 30l21 -74q-74 -43 -162 -43q-55 0 -83.5 26t-29.5 86q0 28 2 45l15 133h-60z" />
    <glyph glyph-name="Utilde" unicode="&#x168;" horiz-adv-x="738" 
d="M475 746q-22 0 -63 18.5t-58 18.5q-38 0 -75 -26l-35 53q58 52 116 52q26 0 67 -18t57 -18q35 0 78 27l31 -55q-54 -52 -118 -52zM342 -12q-42 0 -79 6t-72 22t-60 40.5t-40 64t-15 89.5q0 27 2 41l48 456h103l-47 -449q-2 -24 -2 -34q0 -150 166 -150q88 0 141 47.5
t65 160.5l44 425h98l-45 -428q-9 -83 -39 -142.5t-74.5 -90.5t-92 -44.5t-101.5 -13.5z" />
    <glyph glyph-name="utilde" unicode="&#x169;" horiz-adv-x="540" 
d="M161 -11q-59 0 -84.5 26t-25.5 89q0 22 3 50l42 392h98l-41 -376q-3 -26 -3 -43q0 -29 9.5 -40.5t31.5 -11.5q65 0 161 87l42 384h97l-58 -546h-97l8 81q-96 -92 -183 -92zM384 644q-22 0 -63.5 18t-58.5 18q-36 0 -69 -25l-38 50q56 56 114 56q28 0 65.5 -18t54.5 -18
q33 0 76 26l34 -51q-52 -56 -115 -56z" />
    <glyph glyph-name="Umacron" unicode="&#x16a;" horiz-adv-x="738" 
d="M269 767l8 82h294l-9 -82h-293zM342 -12q-42 0 -79 6t-72 22t-60 40.5t-40 64t-15 89.5q0 27 2 41l48 456h103l-47 -449q-2 -24 -2 -34q0 -150 166 -150q88 0 141 47.5t65 160.5l44 425h98l-45 -428q-9 -83 -39 -142.5t-74.5 -90.5t-92 -44.5t-101.5 -13.5z" />
    <glyph glyph-name="umacron" unicode="&#x16b;" horiz-adv-x="540" 
d="M161 -11q-59 0 -84.5 26t-25.5 89q0 22 3 50l42 392h98l-41 -376q-3 -26 -3 -43q0 -29 9.5 -40.5t31.5 -11.5q65 0 161 87l42 384h97l-58 -546h-97l8 81q-96 -92 -183 -92zM171 665l9 81h272l-9 -81h-272z" />
    <glyph glyph-name="Ubreve" unicode="&#x16c;" horiz-adv-x="738" 
d="M417 748q-46 0 -85.5 25.5t-58.5 59.5l55 48q42 -56 98 -56q63 0 112 55l43 -48q-68 -84 -164 -84zM342 -12q-42 0 -79 6t-72 22t-60 40.5t-40 64t-15 89.5q0 27 2 41l48 456h103l-47 -449q-2 -24 -2 -34q0 -150 166 -150q88 0 141 47.5t65 160.5l44 425h98l-45 -428
q-9 -83 -39 -142.5t-74.5 -90.5t-92 -44.5t-101.5 -13.5z" />
    <glyph glyph-name="ubreve" unicode="&#x16d;" horiz-adv-x="540" 
d="M161 -11q-59 0 -84.5 26t-25.5 89q0 22 3 50l42 392h98l-41 -376q-3 -26 -3 -43q0 -29 9.5 -40.5t31.5 -11.5q65 0 161 87l42 384h97l-58 -546h-97l8 81q-96 -92 -183 -92zM310 638q-47 0 -86 25.5t-58 59.5l55 48q39 -56 97 -56q65 0 112 55l43 -48q-64 -84 -163 -84z
" />
    <glyph glyph-name="Uring" unicode="&#x16e;" horiz-adv-x="737" 
d="M414 711q-42 0 -71 21t-29 59q0 50 34 81t84 31q40 0 68.5 -23t28.5 -61q0 -49 -32.5 -78.5t-82.5 -29.5zM418 755q24 0 40.5 15t16.5 39q0 21 -14 34t-35 13q-26 0 -41.5 -14.5t-15.5 -39.5q0 -22 13.5 -34.5t35.5 -12.5zM342 -12q-42 0 -79 6t-72 22t-60 40.5t-40 64
t-15 89.5q0 27 2 41l48 456h103l-47 -449q-2 -24 -2 -34q0 -150 166 -150q88 0 141 47.5t65 160.5l44 425h98l-45 -428q-9 -83 -39 -142.5t-74.5 -90.5t-92 -44.5t-101.5 -13.5z" />
    <glyph glyph-name="uring" unicode="&#x16f;" horiz-adv-x="540" 
d="M309 607q-46 0 -78 23.5t-32 66.5q0 55 38 89t93 34q45 0 76.5 -25t31.5 -68q0 -55 -36.5 -87.5t-92.5 -32.5zM314 658q26 0 43.5 16.5t17.5 42.5q0 22 -14.5 36t-37.5 14q-27 0 -44 -16t-17 -43q0 -23 14.5 -36.5t37.5 -13.5zM161 -11q-59 0 -84.5 26t-25.5 89
q0 22 3 50l42 392h98l-41 -376q-3 -26 -3 -43q0 -29 9.5 -40.5t31.5 -11.5q65 0 161 87l42 384h97l-58 -546h-97l8 81q-96 -92 -183 -92z" />
    <glyph glyph-name="Uhungarumlaut" unicode="&#x170;" horiz-adv-x="738" 
d="M342 -12q-42 0 -79 6t-72 22t-60 40.5t-40 64t-15 89.5q0 27 2 41l48 456h103l-47 -449q-2 -24 -2 -34q0 -150 166 -150q88 0 141 47.5t65 160.5l44 425h98l-45 -428q-9 -83 -39 -142.5t-74.5 -90.5t-92 -44.5t-101.5 -13.5zM272 735l-46 55l189 164l56 -71zM471 735
l-20 68l237 83l24 -88z" />
    <glyph glyph-name="uhungarumlaut" unicode="&#x171;" horiz-adv-x="540" 
d="M161 -11q-59 0 -84.5 26t-25.5 89q0 22 3 50l42 392h98l-41 -376q-3 -26 -3 -43q0 -29 9.5 -40.5t31.5 -11.5q65 0 161 87l42 384h97l-58 -546h-97l8 81q-96 -92 -183 -92zM170 615l-34 52l200 154l49 -72zM403 617l-31 57l203 123l38 -76z" />
    <glyph glyph-name="Uogonek" unicode="&#x172;" horiz-adv-x="743" 
d="M356 -233q-124 0 -111 116q5 52 72 106q-240 10 -240 216q0 27 2 41l49 461h102l-47 -454q-2 -24 -2 -34q0 -81 44 -113t123 -32q88 0 140.5 45t64.5 157l45 431h98l-46 -434q-23 -225 -204 -273q-108 -64 -113 -114q-4 -42 51 -42q24 0 53 8l12 -67q-34 -18 -93 -18z
" />
    <glyph glyph-name="uogonek" unicode="&#x173;" horiz-adv-x="539" 
d="M344 -233q-64 0 -89 27.5t-23 77.5q2 36 33 73.5t72 63.5l7 72q-102 -92 -183 -92q-59 0 -84.5 26t-25.5 89q0 22 3 50l42 392h98l-41 -376q-3 -30 -3 -50q1 -25 10 -35t31 -10q57 0 161 87l42 384h97l-59 -546q-41 -24 -74.5 -55t-36.5 -59q-3 -24 11 -33t40 -9
q25 0 52 8l13 -67q-34 -18 -93 -18z" />
    <glyph glyph-name="Wcircumflex" unicode="&#x174;" horiz-adv-x="988" 
d="M662 737l-137 65l-154 -63l-28 67l189 83l165 -84zM179 0l-109 707h106l86 -624l218 624h96l94 -624l246 624h102l-288 -707h-136l-84 552l-193 -552h-138z" />
    <glyph glyph-name="wcircumflex" unicode="&#x175;" horiz-adv-x="799" 
d="M566 616l-129 90l-147 -89l-40 62l198 119l166 -119zM129 0l-85 546h105l59 -465l169 303l-27 162h105l62 -465l133 278q42 87 42 160q0 19 -2 27h103q2 -12 2 -26q0 -76 -49 -174l-171 -346h-138l-42 265l-149 -265h-117z" />
    <glyph glyph-name="Ycircumflex" unicode="&#x176;" horiz-adv-x="612" 
d="M219 0l27 262l-190 445h114l139 -358l227 358h111l-300 -442l-27 -265h-101zM497 737l-137 65l-154 -63l-28 67l189 83l165 -84z" />
    <glyph glyph-name="ycircumflex" unicode="&#x177;" horiz-adv-x="496" 
d="M415 616l-129 90l-147 -89l-40 62l198 119l166 -119zM61 -220l109 220h-41l-84 546h105l61 -466l135 279q42 89 42 161q0 10 -2 26h103q2 -12 2 -26q0 -76 -48 -174l-280 -566h-102z" />
    <glyph glyph-name="Ydieresis" unicode="&#x178;" horiz-adv-x="612" 
d="M219 0l27 262l-190 445h114l139 -358l227 358h111l-300 -442l-27 -265h-101zM191 765l10 106h93l-11 -106h-92zM413 765l10 106h93l-11 -106h-92z" />
    <glyph glyph-name="Zacute" unicode="&#x179;" horiz-adv-x="570" 
d="M257 737l-19 66l239 83l23 -85zM2 0l8 80l417 538h-334l9 89h455l-7 -74l-420 -545h383l-9 -88h-502z" />
    <glyph glyph-name="zacute" unicode="&#x17a;" horiz-adv-x="468" 
d="M221 613l-34 61l201 133l42 -77zM-1 0l9 77l320 387h-255l10 82h369l-8 -74l-321 -390h283l-9 -82h-398z" />
    <glyph glyph-name="Zdotaccent" unicode="&#x17b;" horiz-adv-x="570" 
d="M298 765l11 107h93l-11 -107h-93zM2 0l8 80l417 538h-334l9 89h455l-7 -74l-420 -545h383l-9 -88h-502z" />
    <glyph glyph-name="zdotaccent" unicode="&#x17c;" horiz-adv-x="468" 
d="M-1 0l9 77l320 387h-255l10 82h369l-8 -74l-321 -390h283l-9 -82h-398zM228 662l11 108h99l-11 -108h-99z" />
    <glyph glyph-name="Zcaron" unicode="&#x17d;" horiz-adv-x="570" 
d="M326 741l-166 83l36 69l137 -65l153 63l26 -68zM2 0l8 80l417 538h-334l9 89h455l-7 -74l-420 -545h383l-9 -88h-502z" />
    <glyph glyph-name="zcaron" unicode="&#x17e;" horiz-adv-x="468" 
d="M272 607l-167 120l48 62l129 -92l149 89l38 -59zM-1 0l9 77l320 387h-255l10 82h369l-8 -74l-321 -390h283l-9 -82h-398z" />
    <glyph glyph-name="uni018E" unicode="&#x18e;" horiz-adv-x="573" 
d="M522 707l-74 -707h-410l8 81h309l24 231h-287l9 80h286l25 234h-332l8 81h434z" />
    <glyph glyph-name="uni018F" unicode="&#x18f;" horiz-adv-x="762" 
d="M334 -12q-148 0 -219.5 79t-71.5 221q0 20 9 107h566q2 108 -53 173t-167 65q-131 0 -257 -62l-28 70q136 76 301 76q150 0 228 -84t78 -223q0 -186 -101.5 -304t-284.5 -118zM347 71q115 0 178.5 66.5t83.5 178.5h-464v-32q2 -97 50 -155t152 -58z" />
    <glyph glyph-name="florin" unicode="&#x192;" horiz-adv-x="492" 
d="M-5 -30l5 81q5 0 25 1.5t25.5 2t23 2.5t23.5 4.5t20 7t19.5 10.5t15 14.5t14 19.5t9.5 25.5t7 31.5l10 76h-104l8 81h105l6 51q7 59 31 100t63 62t81.5 29.5t98.5 8.5l-3 -83q-84 -8 -109 -18q-56 -24 -65 -101l-6 -49h113l-8 -81h-115l-10 -79q-13 -109 -85.5 -153
t-197.5 -44z" />
    <glyph glyph-name="Ohorn" unicode="&#x1a0;" horiz-adv-x="821" 
d="M361 -11q-146 0 -227 84t-81 231q0 187 107 300.5t292 113.5q113 0 191 -53q62 33 62 111q0 27 -4 43h94q5 -16 5 -49q0 -112 -94 -166q56 -81 56 -200q0 -189 -107 -302t-294 -113zM373 71q137 0 210.5 92t73.5 234q0 109 -56 173t-163 64q-135 0 -208.5 -90.5
t-73.5 -230.5q0 -110 55 -176t162 -66z" />
    <glyph glyph-name="ohorn" unicode="&#x1a1;" horiz-adv-x="550" 
d="M208 -12q-81 0 -127 56t-46 142q0 168 76.5 270.5t203.5 102.5q58 0 100 -31q58 17 58 83q0 5 -5 38h94q6 -19 6 -43q0 -53 -28 -91.5t-71 -57.5q17 -43 17 -91q0 -66 -14.5 -128.5t-45 -120.5t-87 -93.5t-131.5 -35.5zM228 71q63 0 110.5 80t47.5 205q0 65 -23 94
t-72 29q-63 0 -109 -81t-46 -200q0 -127 92 -127z" />
    <glyph glyph-name="Uhorn" unicode="&#x1af;" horiz-adv-x="772" 
d="M342 -12q-42 0 -79 6t-72 22t-60 40.5t-40 64t-15 89.5q0 27 2 41l48 456h103l-47 -449q-2 -24 -2 -34q0 -150 166 -150q88 0 141 47.5t65 160.5l44 425h42q76 9 76 89q0 15 -4 39h91q5 -15 5 -42q0 -61 -32.5 -104t-87.5 -57l-37 -353q-9 -83 -39 -142.5t-74.5 -90.5
t-92 -44.5t-101.5 -13.5z" />
    <glyph glyph-name="uhorn" unicode="&#x1b0;" horiz-adv-x="567" 
d="M161 -11q-59 0 -84.5 26t-25.5 89q0 22 3 50l42 392h98l-41 -376q-3 -26 -3 -43q0 -29 9.5 -40.5t31.5 -11.5q65 0 161 87l42 384h41q74 9 74 80q0 17 -5 39h92q6 -16 6 -43q0 -59 -33.5 -98.5t-85.5 -52.5l-50 -471h-97l8 81q-96 -92 -183 -92z" />
    <glyph glyph-name="uni01C4" unicode="&#x1c4;" horiz-adv-x="1284" 
d="M1038 741l-166 83l36 69l137 -65l153 63l26 -68zM715 0l8 80l417 538h-334l9 89h455l-7 -74l-420 -545h383l-9 -88h-502zM61 0l74 707h203q159 0 257.5 -76.5t98.5 -233.5q0 -197 -111 -297t-311 -100h-211zM170 82h120q148 0 225 78t77 230q0 122 -70.5 178.5
t-194.5 56.5h-99z" />
    <glyph glyph-name="uni01C5" unicode="&#x1c5;" horiz-adv-x="1169" 
d="M975 607l-167 120l48 62l129 -92l149 89l38 -59zM699 0l9 77l320 387h-255l10 82h369l-8 -74l-321 -390h283l-9 -82h-398zM40 0l74 707h203q159 0 257.5 -76.5t98.5 -233.5q0 -197 -111 -297t-311 -100h-211zM149 82h120q148 0 225 78t77 230q0 122 -70.5 178.5
t-194.5 56.5h-99z" />
    <glyph glyph-name="uni01C6" unicode="&#x1c6;" horiz-adv-x="981" 
d="M779 607l-167 120l48 62l129 -92l149 89l38 -59zM512 0l9 77l320 387h-255l10 82h369l-8 -74l-321 -390h283l-9 -82h-398zM148 -13q-116 0 -116 180q0 167 92 274.5t234 109.5q2 0 10 -0.5t10 -0.5l22 204h98l-80 -754h-98l10 91q-106 -104 -182 -104zM174 77
q33 0 79.5 32t84.5 70l31 289q-7 1 -33 1q-84 1 -145 -85t-61 -198q0 -61 11 -85t33 -24z" />
    <glyph glyph-name="uni01C7" unicode="&#x1c7;" horiz-adv-x="814" 
d="M464 -189l-32 73q91 49 126 105.5t47 161.5l58 556h101l-58 -554q-5 -50 -14 -89t-26.5 -78.5t-43 -69.5t-65.5 -57.5t-93 -47.5zM61 0l74 707h101l-65 -623h307l-9 -84h-408z" />
    <glyph glyph-name="uni01C8" unicode="&#x1c8;" horiz-adv-x="757" 
d="M441 -220q-50 0 -88 16l24 80q41 -11 71 -11q52 0 74 29.5t29 93.5l58 558h98l-59 -559q-12 -116 -65 -161.5t-142 -45.5zM40 0l74 707h101l-65 -623h307l-9 -84h-408zM617 662l11 108h99l-11 -108h-99z" />
    <glyph glyph-name="uni01C9" unicode="&#x1c9;" horiz-adv-x="520" 
d="M205 -220q-50 0 -88 16l24 80q41 -11 71 -11q52 0 74 29.5t29 93.5l58 558h98l-59 -559q-12 -116 -65 -161.5t-142 -45.5zM42 0l79 754h98l-80 -754h-97zM380 662l11 108h99l-11 -108h-99z" />
    <glyph glyph-name="uni01CA" unicode="&#x1ca;" horiz-adv-x="1076" 
d="M726 -189l-32 73q91 49 126 105.5t47 161.5l58 556h101l-58 -554q-5 -50 -14 -89t-26.5 -78.5t-43 -69.5t-65.5 -57.5t-93 -47.5zM61 0l75 707h136l255 -609l61 609h101l-76 -707h-142l-248 594l-61 -594h-101z" />
    <glyph glyph-name="uni01CB" unicode="&#x1cb;" horiz-adv-x="1018" 
d="M703 -220q-50 0 -88 16l24 80q41 -11 71 -11q52 0 74 29.5t29 93.5l58 558h98l-59 -559q-12 -116 -65 -161.5t-142 -45.5zM879 662l11 108h99l-11 -108h-99zM40 0l75 707h136l255 -609l61 609h101l-76 -707h-142l-248 594l-61 -594h-101z" />
    <glyph glyph-name="uni01CC" unicode="&#x1cc;" horiz-adv-x="808" 
d="M493 -220q-50 0 -88 16l24 80q41 -11 71 -11q52 0 74 29.5t29 93.5l58 558h98l-59 -559q-12 -116 -65 -161.5t-142 -45.5zM669 662l11 108h99l-11 -108h-99zM42 0l58 546h98l-8 -81q35 29 59.5 46t62 33t71.5 16q55 0 78 -25t23 -82q0 -30 -4 -59l-42 -394h-98l41 374
q2 17 2 44q0 26 -8 37.5t-28 11.5q-59 0 -166 -86l-41 -381h-98z" />
    <glyph glyph-name="uni01CD" unicode="&#x1cd;" horiz-adv-x="652" 
d="M-38 0l351 707h142l152 -707h-105l-51 252h-263l-123 -252h-103zM227 330h208l-47 243l-12 78l-34 -79zM383 741l-166 83l36 69l137 -65l153 63l26 -68z" />
    <glyph glyph-name="uni01CE" unicode="&#x1ce;" horiz-adv-x="521" 
d="M147 -13q-119 0 -119 168q0 97 39.5 186.5t118 149.5t177.5 60q64 0 109 -8l-56 -543h-98l10 91q-112 -104 -181 -104zM172 77q20 0 56.5 21.5t62 41.5t46.5 39l30 288q-6 1 -27 1q-63 0 -113.5 -47.5t-75.5 -116t-25 -139.5q0 -88 46 -88zM321 607l-167 120l48 62
l129 -92l149 89l38 -59z" />
    <glyph glyph-name="uni01CF" unicode="&#x1cf;" horiz-adv-x="287" 
d="M61 0l74 707h101l-74 -707h-101zM187 741l-166 83l36 69l137 -65l153 63l26 -68z" />
    <glyph glyph-name="uni01D0" unicode="&#x1d0;" horiz-adv-x="246" 
d="M151 607l-167 120l48 62l129 -92l149 89l38 -59zM42 0l57 546h98l-57 -546h-98z" />
    <glyph glyph-name="uni01D1" unicode="&#x1d1;" horiz-adv-x="805" 
d="M450 741l-166 83l36 69l137 -65l153 63l26 -68zM361 -11q-146 0 -227 84t-81 231q0 187 107 300.5t292 113.5q147 0 228.5 -83.5t81.5 -230.5q0 -189 -107 -302t-294 -113zM373 71q137 0 210.5 92t73.5 234q0 109 -56 173t-163 64q-135 0 -208.5 -90.5t-73.5 -230.5
q0 -110 55 -176t162 -66z" />
    <glyph glyph-name="uni01D2" unicode="&#x1d2;" horiz-adv-x="527" 
d="M305 607l-167 120l48 62l129 -92l149 89l38 -59zM208 -12q-81 0 -127 56t-46 142q0 168 76.5 270.5t203.5 102.5q82 0 126.5 -56.5t44.5 -136.5q0 -66 -14.5 -128.5t-45 -120.5t-87 -93.5t-131.5 -35.5zM228 71q63 0 110.5 80t47.5 205q0 65 -23 94t-72 29
q-63 0 -109 -81t-46 -200q0 -127 92 -127z" />
    <glyph glyph-name="uni01D3" unicode="&#x1d3;" horiz-adv-x="738" 
d="M406 741l-166 83l36 69l137 -65l153 63l26 -68zM342 -12q-42 0 -79 6t-72 22t-60 40.5t-40 64t-15 89.5q0 27 2 41l48 456h103l-47 -449q-2 -24 -2 -34q0 -150 166 -150q88 0 141 47.5t65 160.5l44 425h98l-45 -428q-9 -83 -39 -142.5t-74.5 -90.5t-92 -44.5
t-101.5 -13.5z" />
    <glyph glyph-name="uni01D4" unicode="&#x1d4;" horiz-adv-x="540" 
d="M299 607l-167 120l48 62l129 -92l149 89l38 -59zM161 -11q-59 0 -84.5 26t-25.5 89q0 22 3 50l42 392h98l-41 -376q-3 -26 -3 -43q0 -29 9.5 -40.5t31.5 -11.5q65 0 161 87l42 384h97l-58 -546h-97l8 81q-96 -92 -183 -92z" />
    <glyph glyph-name="uni01D5" unicode="&#x1d5;" horiz-adv-x="738" 
d="M255 755l10 106h93l-11 -106h-92zM477 755l10 106h93l-11 -106h-92zM342 -12q-42 0 -79 6t-72 22t-60 40.5t-40 64t-15 89.5q0 27 2 41l48 456h103l-47 -449q-2 -24 -2 -34q0 -150 166 -150q88 0 141 47.5t65 160.5l44 425h98l-45 -428q-9 -83 -39 -142.5t-74.5 -90.5
t-92 -44.5t-101.5 -13.5zM290 904l8 81h272l-9 -81h-271z" />
    <glyph glyph-name="uni01D6" unicode="&#x1d6;" horiz-adv-x="540" 
d="M151 642l11 108h95l-12 -108h-94zM358 642l11 108h95l-12 -108h-94zM180 790l8 81h272l-9 -81h-271zM161 -11q-59 0 -84.5 26t-25.5 89q0 22 3 50l42 392h98l-41 -376q-3 -26 -3 -43q0 -29 9.5 -40.5t31.5 -11.5q65 0 161 87l42 384h97l-58 -546h-97l8 81
q-96 -92 -183 -92z" />
    <glyph glyph-name="uni01D7" unicode="&#x1d7;" horiz-adv-x="738" 
d="M255 755l10 106h93l-11 -106h-92zM477 755l10 106h93l-11 -106h-92zM381 881l-19 66l239 83l23 -85zM342 -12q-42 0 -79 6t-72 22t-60 40.5t-40 64t-15 89.5q0 27 2 41l48 456h103l-47 -449q-2 -24 -2 -34q0 -150 166 -150q88 0 141 47.5t65 160.5l44 425h98l-45 -428
q-9 -83 -39 -142.5t-74.5 -90.5t-92 -44.5t-101.5 -13.5z" />
    <glyph glyph-name="uni01D8" unicode="&#x1d8;" horiz-adv-x="540" 
d="M151 642l11 108h95l-12 -108h-94zM358 642l11 108h95l-12 -108h-94zM284 758l-34 61l201 133l42 -77zM161 -11q-59 0 -84.5 26t-25.5 89q0 22 3 50l42 392h98l-41 -376q-3 -26 -3 -43q0 -29 9.5 -40.5t31.5 -11.5q65 0 161 87l42 384h97l-58 -546h-97l8 81
q-96 -92 -183 -92z" />
    <glyph glyph-name="uni01D9" unicode="&#x1d9;" horiz-adv-x="738" 
d="M255 755l10 106h93l-11 -106h-92zM477 755l10 106h93l-11 -106h-92zM342 -12q-42 0 -79 6t-72 22t-60 40.5t-40 64t-15 89.5q0 27 2 41l48 456h103l-47 -449q-2 -24 -2 -34q0 -150 166 -150q88 0 141 47.5t65 160.5l44 425h98l-45 -428q-9 -83 -39 -142.5t-74.5 -90.5
t-92 -44.5t-101.5 -13.5zM420 871l-166 83l36 69l137 -65l153 63l26 -68z" />
    <glyph glyph-name="uni01DA" unicode="&#x1da;" horiz-adv-x="540" 
d="M151 642l11 108h95l-12 -108h-94zM358 642l11 108h95l-12 -108h-94zM161 -11q-59 0 -84.5 26t-25.5 89q0 22 3 50l42 392h98l-41 -376q-3 -26 -3 -43q0 -29 9.5 -40.5t31.5 -11.5q65 0 161 87l42 384h97l-58 -546h-97l8 81q-96 -92 -183 -92zM314 757l-167 120l48 62
l129 -92l149 89l38 -59z" />
    <glyph glyph-name="uni01DB" unicode="&#x1db;" horiz-adv-x="738" 
d="M458 869l-233 65l29 85l225 -84zM255 755l10 106h93l-11 -106h-92zM477 755l10 106h93l-11 -106h-92zM342 -12q-42 0 -79 6t-72 22t-60 40.5t-40 64t-15 89.5q0 27 2 41l48 456h103l-47 -449q-2 -24 -2 -34q0 -150 166 -150q88 0 141 47.5t65 160.5l44 425h98l-45 -428
q-9 -83 -39 -142.5t-74.5 -90.5t-92 -44.5t-101.5 -13.5z" />
    <glyph glyph-name="uni01DC" unicode="&#x1dc;" horiz-adv-x="540" 
d="M150 642l11 108h95l-12 -108h-94zM357 642l11 108h95l-12 -108h-94zM161 -11q-59 0 -84.5 26t-25.5 89q0 22 3 50l42 392h98l-41 -376q-3 -26 -3 -43q0 -29 9.5 -40.5t31.5 -11.5q65 0 161 87l42 384h97l-58 -546h-97l8 81q-96 -92 -183 -92zM329 752l-202 114l43 76
l193 -129z" />
    <glyph glyph-name="uni01DD" unicode="&#x1dd;" horiz-adv-x="496" 
d="M305 561q139 0 139 -206q0 -98 -29.5 -180t-93 -134.5t-150.5 -52.5q-74 0 -112 37.5t-38 93.5q0 101 155 155l167 60v23q0 61 -13.5 90t-44.5 29q-64 0 -169 -56l-34 70q58 34 109 52.5t114 18.5zM334 253l-148 -58q-70 -26 -70 -71q0 -28 17 -42t41 -14q67 0 106 52
t54 133z" />
    <glyph glyph-name="uni01E2" unicode="&#x1e2;" horiz-adv-x="921" 
d="M500 767l8 82h294l-9 -82h-293zM-54 0l462 707h485l-8 -81h-309l-24 -231h287l-8 -80h-287l-25 -234h332l-8 -81h-434l35 315h-188l-197 -315h-113zM304 394h149l25 232h-27z" />
    <glyph glyph-name="uni01E3" unicode="&#x1e3;" horiz-adv-x="779" 
d="M148 -13q-117 0 -117 180q0 167 95.5 276.5t239.5 109.5q41 0 97 -8l-7 -54q65 70 157 70q77 0 112 -36t35 -93q0 -101 -155 -155l-166 -60v-21q0 -123 60 -123q56 0 168 55l35 -69q-60 -34 -110 -52.5t-113 -18.5q-109 0 -128 121q-120 -122 -203 -122zM174 77
q29 0 78.5 35t84.5 67l31 289l-32 2q-83 1 -144.5 -85.5t-61.5 -198.5q0 -61 11 -85t33 -24zM328 665l9 81h272l-9 -81h-272zM449 298l147 58q69 28 69 72q0 26 -16 39t-40 13q-67 0 -106.5 -52t-53.5 -130z" />
    <glyph glyph-name="uni01E6" unicode="&#x1e6;" horiz-adv-x="671" 
d="M432 741l-166 83l36 69l137 -65l153 63l26 -68zM380 -10q-150 0 -238.5 83t-88.5 233q0 190 107 299t295 109q103 0 176 -31l-36 -77q-71 22 -148 22q-138 0 -213.5 -84t-75.5 -226q0 -116 67 -178t183 -62q42 0 82 9l26 263h101l-33 -324q-93 -36 -204 -36z" />
    <glyph glyph-name="uni01E7" unicode="&#x1e7;" horiz-adv-x="520" 
d="M304 607l-167 120l48 62l129 -92l149 89l38 -59zM153 -230q-111 0 -181 26l23 84q79 -25 145 -25q39 0 66 4.5t52 17.5t39.5 40t18.5 68l12 106q-57 -54 -99 -79t-83 -25q-62 0 -89.5 42.5t-27.5 126.5q0 163 96 279t238 116q63 0 109 -8l-60 -575q-6 -56 -31 -96.5
t-63 -61.5t-78.5 -30.5t-86.5 -9.5zM172 77q29 0 79.5 35t84.5 67l30 288q-6 1 -26 1q-88 0 -150.5 -91t-62.5 -209q0 -91 45 -91z" />
    <glyph glyph-name="uni01E8" unicode="&#x1e8;" horiz-adv-x="625" 
d="M484 -25l-271 394l1 12l307 326h126l-317 -328l250 -356zM61 0l74 707h101l-74 -707h-101zM365 741l-166 83l36 69l137 -65l153 63l26 -68z" />
    <glyph glyph-name="uni01E9" unicode="&#x1e9;" horiz-adv-x="499" 
d="M359 -10l-181 295l199 261h111l-200 -255l174 -283zM42 0l79 754h98l-80 -754h-97zM334 741l-166 83l36 69l137 -65l153 63l26 -68z" />
    <glyph glyph-name="uni01EA" unicode="&#x1ea;" horiz-adv-x="806" 
d="M478 -148l13 -67q-48 -18 -93 -18q-52 0 -82.5 26t-30.5 74q0 62 74 122q-146 1 -226 84.5t-80 230.5q0 187 107 300.5t292 113.5q147 0 228.5 -83.5t81.5 -230.5q0 -148 -67 -251.5t-189 -142.5q-132 -71 -132 -127q0 -43 47 -43q26 0 57 12zM373 71q137 0 210.5 92
t73.5 234q0 109 -56 173t-163 64q-135 0 -208.5 -90.5t-73.5 -230.5q0 -110 55 -176t162 -66z" />
    <glyph glyph-name="uni01EB" unicode="&#x1eb;" horiz-adv-x="530" 
d="M287 -148l13 -67q-48 -18 -93 -18q-52 0 -82.5 26t-30.5 74q0 63 78 125q-64 12 -99.5 65.5t-35.5 128.5q0 168 76.5 270.5t203.5 102.5q82 0 126.5 -56.5t44.5 -136.5q0 -53 -9.5 -105t-29 -102.5t-55.5 -91t-83 -60.5q-128 -69 -128 -124q0 -43 47 -43q26 0 57 12z
M230 71q63 0 110.5 80t47.5 205q0 65 -23 94t-72 29q-63 0 -109 -81t-46 -200q0 -127 92 -127z" />
    <glyph glyph-name="uni01EC" unicode="&#x1ec;" horiz-adv-x="806" 
d="M478 -148l13 -67q-48 -18 -93 -18q-52 0 -82.5 26t-30.5 74q0 62 74 122q-146 1 -226 84.5t-80 230.5q0 187 107 300.5t292 113.5q147 0 228.5 -83.5t81.5 -230.5q0 -148 -67 -251.5t-189 -142.5q-132 -71 -132 -127q0 -43 47 -43q26 0 57 12zM373 71q137 0 210.5 92
t73.5 234q0 109 -56 173t-163 64q-135 0 -208.5 -90.5t-73.5 -230.5q0 -110 55 -176t162 -66zM313 767l8 82h294l-9 -82h-293z" />
    <glyph glyph-name="uni01ED" unicode="&#x1ed;" horiz-adv-x="529" 
d="M287 -148l13 -67q-48 -18 -93 -18q-52 0 -82.5 26t-30.5 74q0 64 77 125q-64 12 -99.5 65.5t-35.5 128.5q0 168 76.5 270.5t203.5 102.5q82 0 126.5 -56.5t44.5 -136.5q0 -114 -42 -215t-131 -142q-131 -71 -131 -126q0 -43 47 -43q26 0 57 12zM229 71q63 0 110.5 80
t47.5 205q0 65 -23 94t-72 29q-63 0 -109 -81t-46 -200q0 -127 92 -127zM188 665l9 81h272l-9 -81h-272z" />
    <glyph glyph-name="uni01EE" unicode="&#x1ee;" horiz-adv-x="536" 
d="M168 399l213 217h-301l10 91h420l-8 -77l-227 -229q87 -11 145 -60.5t58 -123.5q0 -75 -42 -128.5t-103 -77t-131 -23.5q-69 0 -121.5 13t-73.5 28l34 85q74 -37 164 -37q69 0 116.5 32t47.5 102q0 56 -51.5 86t-121.5 31h-22zM296 741l-166 83l36 69l137 -65l153 63
l26 -68z" />
    <glyph glyph-name="uni01EF" unicode="&#x1ef;" horiz-adv-x="473" 
d="M101 168l8 77l217 213h-284l9 88h402l-8 -76l-235 -231q85 -13 142 -63t57 -124q0 -83 -62 -146.5t-149 -95.5t-183 -38l-8 82q81 10 144.5 31t106.5 61t43 93q0 58 -60.5 91t-139.5 38zM254 607l-167 120l48 62l129 -92l149 89l38 -59z" />
    <glyph glyph-name="uni01F1" unicode="&#x1f1;" horiz-adv-x="1284" 
d="M715 0l8 80l417 538h-334l9 89h455l-7 -74l-420 -545h383l-9 -88h-502zM61 0l74 707h203q159 0 257.5 -76.5t98.5 -233.5q0 -197 -111 -297t-311 -100h-211zM170 82h120q148 0 225 78t77 230q0 122 -70.5 178.5t-194.5 56.5h-99z" />
    <glyph glyph-name="uni01F2" unicode="&#x1f2;" horiz-adv-x="1169" 
d="M699 0l9 77l320 387h-255l10 82h369l-8 -74l-321 -390h283l-9 -82h-398zM40 0l74 707h203q159 0 257.5 -76.5t98.5 -233.5q0 -197 -111 -297t-311 -100h-211zM149 82h120q148 0 225 78t77 230q0 122 -70.5 178.5t-194.5 56.5h-99z" />
    <glyph glyph-name="uni01F3" unicode="&#x1f3;" horiz-adv-x="981" 
d="M512 0l9 77l320 387h-255l10 82h369l-8 -74l-321 -390h283l-9 -82h-398zM148 -13q-116 0 -116 180q0 167 92 274.5t234 109.5q2 0 10 -0.5t10 -0.5l22 204h98l-80 -754h-98l10 91q-106 -104 -182 -104zM174 77q33 0 79.5 32t84.5 70l31 289q-7 1 -33 1q-84 1 -145 -85
t-61 -198q0 -61 11 -85t33 -24z" />
    <glyph glyph-name="uni01F4" unicode="&#x1f4;" horiz-adv-x="671" 
d="M361 737l-19 66l239 83l23 -85zM380 -10q-150 0 -238.5 83t-88.5 233q0 190 107 299t295 109q103 0 176 -31l-36 -77q-71 22 -148 22q-138 0 -213.5 -84t-75.5 -226q0 -116 67 -178t183 -62q42 0 82 9l26 263h101l-33 -324q-93 -36 -204 -36z" />
    <glyph glyph-name="uni01F5" unicode="&#x1f5;" horiz-adv-x="520" 
d="M263 613l-34 61l201 133l42 -77zM153 -230q-111 0 -181 26l23 84q79 -25 145 -25q39 0 66 4.5t52 17.5t39.5 40t18.5 68l12 106q-57 -54 -99 -79t-83 -25q-62 0 -89.5 42.5t-27.5 126.5q0 163 96 279t238 116q63 0 109 -8l-60 -575q-6 -56 -31 -96.5t-63 -61.5
t-78.5 -30.5t-86.5 -9.5zM172 77q29 0 79.5 35t84.5 67l30 288q-6 1 -26 1q-88 0 -150.5 -91t-62.5 -209q0 -91 45 -91z" />
    <glyph glyph-name="uni01F8" unicode="&#x1f8;" horiz-adv-x="739" 
d="M515 736l-233 65l29 85l225 -84zM61 0l75 707h136l255 -609l61 609h101l-76 -707h-142l-248 594l-61 -594h-101z" />
    <glyph glyph-name="uni01F9" unicode="&#x1f9;" horiz-adv-x="541" 
d="M347 611l-202 114l43 76l193 -129zM42 0l58 546h98l-8 -81q35 29 59.5 46t62 33t71.5 16q55 0 78 -25t23 -82q0 -30 -4 -59l-42 -394h-98l41 374q2 17 2 44q0 26 -8 37.5t-28 11.5q-59 0 -166 -86l-41 -381h-98z" />
    <glyph glyph-name="uni01FA" unicode="&#x1fa;" horiz-adv-x="652" 
d="M-38 0l351 707h142l152 -707h-105l-51 252h-263l-123 -252h-103zM227 330h208l-47 243l-12 78l-34 -79zM321 921l-19 66l239 83l23 -85zM387 725q-42 0 -71 21t-29 59q0 50 34 81t84 31q40 0 68.5 -23t28.5 -61q0 -49 -32.5 -78.5t-82.5 -29.5zM391 769q24 0 40.5 15
t16.5 39q0 21 -14 34t-35 13q-26 0 -41.5 -14.5t-15.5 -39.5q0 -22 13.5 -34.5t35.5 -12.5z" />
    <glyph glyph-name="uni01FB" unicode="&#x1fb;" horiz-adv-x="521" 
d="M147 -13q-119 0 -119 168q0 97 39.5 186.5t118 149.5t177.5 60q64 0 109 -8l-56 -543h-98l10 91q-112 -104 -181 -104zM172 77q20 0 56.5 21.5t62 41.5t46.5 39l30 288q-6 1 -27 1q-63 0 -113.5 -47.5t-75.5 -116t-25 -139.5q0 -88 46 -88zM253 850l-19 66l239 83l23 -85
zM320 602q-49 0 -82.5 24.5t-33.5 69.5q0 57 39.5 93.5t97.5 36.5q48 0 81 -27t33 -71q0 -58 -38 -92t-97 -34zM324 654q28 0 47 17.5t19 45.5q0 24 -15.5 39t-39.5 15q-29 0 -47.5 -17.5t-18.5 -46.5q0 -24 15.5 -38.5t39.5 -14.5z" />
    <glyph glyph-name="AEacute" unicode="&#x1fc;" horiz-adv-x="921" 
d="M570 737l-19 66l239 83l23 -85zM-54 0l462 707h485l-8 -81h-309l-24 -231h287l-8 -80h-287l-25 -234h332l-8 -81h-434l35 315h-188l-197 -315h-113zM304 394h149l25 232h-27z" />
    <glyph glyph-name="aeacute" unicode="&#x1fd;" horiz-adv-x="779" 
d="M148 -13q-117 0 -117 180q0 167 95.5 276.5t239.5 109.5q41 0 97 -8l-7 -54q65 70 157 70q77 0 112 -36t35 -93q0 -101 -155 -155l-166 -60v-21q0 -123 60 -123q56 0 168 55l35 -69q-60 -34 -110 -52.5t-113 -18.5q-109 0 -128 121q-120 -122 -203 -122zM174 77
q29 0 78.5 35t84.5 67l31 289l-32 2q-83 1 -144.5 -85.5t-61.5 -198.5q0 -61 11 -85t33 -24zM449 298l147 58q69 28 69 72q0 26 -16 39t-40 13q-67 0 -106.5 -52t-53.5 -130zM410 613l-34 61l201 133l42 -77z" />
    <glyph glyph-name="Oslashacute" unicode="&#x1fe;" horiz-adv-x="830" 
d="M86 -33l-46 46l84 86q-58 79 -58 205q0 188 107 301t293 113q126 0 207 -64l83 83l45 -48l-83 -84q57 -80 57 -201q0 -189 -107 -302t-294 -113q-128 0 -204 63zM200 173l401 411q-56 50 -150 50q-135 0 -208.5 -91t-73.5 -230q0 -82 31 -140zM386 71q137 0 210.5 92
t73.5 234q0 74 -30 131l-399 -407q56 -50 145 -50zM354 737l-19 66l239 83l23 -85z" />
    <glyph glyph-name="oslashacute" unicode="&#x1ff;" horiz-adv-x="555" 
d="M41 -29l-38 33l70 82q-21 47 -21 100q0 167 76.5 270t203.5 103q66 0 112 -43l52 60l38 -33l-58 -69q27 -46 27 -108q0 -66 -14.5 -128.5t-45 -120.5t-87 -93.5t-131.5 -35.5q-76 0 -122 54zM155 180l228 265q-22 34 -75 34q-60 0 -106.5 -76.5t-48.5 -194.5q0 -12 2 -28
zM245 71q62 0 109.5 78t48.5 199q0 21 -2 39l-234 -270q22 -46 78 -46zM249 613l-34 61l201 133l42 -77z" />
    <glyph glyph-name="Scommaaccent" unicode="&#x218;" horiz-adv-x="535" 
d="M136 -263l40 204h94l-58 -204h-76zM214 -12q-51 0 -109 14t-97 35l38 82q101 -43 175 -43q69 0 114 27.5t45 91.5q0 35 -30.5 63.5t-73.5 51t-86.5 49t-74 69.5t-30.5 99q0 92 68 140.5t167 48.5q107 0 190 -43l-35 -76q-76 33 -157 33q-134 0 -134 -97q0 -33 30.5 -61.5
t74 -53t87.5 -51.5t74.5 -69.5t30.5 -94.5q0 -105 -77.5 -160t-189.5 -55z" />
    <glyph glyph-name="scommaaccent" unicode="&#x219;" horiz-adv-x="427" 
d="M73 -263l40 204h94l-58 -204h-76zM160 -10q-96 0 -159 29l27 80q73 -25 139 -25q25 0 47 4.5t42 21t20 43.5q0 25 -21.5 48t-52.5 43t-62.5 42t-53 54.5t-21.5 71.5q0 81 52.5 118t135.5 37q91 0 151 -30l-27 -75q-70 25 -129 25q-89 0 -89 -65q0 -25 22 -48.5t53 -44
t62 -43.5t53 -57t22 -74q0 -36 -13.5 -64t-34.5 -44.5t-50 -27.5t-56.5 -15t-56.5 -4z" />
    <glyph glyph-name="uni021A" unicode="&#x21a;" horiz-adv-x="582" 
d="M174 -263l40 204h94l-58 -204h-76zM207 0l65 624h-237l10 83h575l-9 -83h-237l-65 -624h-102z" />
    <glyph glyph-name="uni021B" unicode="&#x21b;" horiz-adv-x="393" 
d="M105 -263l40 204h94l-58 -204h-76zM191 -12q-55 0 -83.5 26t-29.5 86q0 28 2 45l36 323h-80l8 78h81l11 112h97l-11 -112h160l-7 -78h-161l-36 -326q-7 -67 38 -67q51 0 116 30l21 -74q-74 -43 -162 -43z" />
    <glyph glyph-name="uni021C" unicode="&#x21c;" horiz-adv-x="536" 
d="M168 399l213 217h-301l10 91h420l-8 -77l-227 -229q87 -11 145 -60.5t58 -123.5q0 -75 -42 -128.5t-103 -77t-131 -23.5q-69 0 -121.5 13t-73.5 28l34 85q74 -37 164 -37q69 0 116.5 32t47.5 102q0 56 -51.5 86t-121.5 31h-22z" />
    <glyph glyph-name="uni021D" unicode="&#x21d;" horiz-adv-x="473" 
d="M101 168l8 77l217 213h-284l9 88h402l-8 -76l-235 -231q85 -13 142 -63t57 -124q0 -83 -62 -146.5t-149 -95.5t-183 -38l-8 82q81 10 144.5 31t106.5 61t43 93q0 58 -60.5 91t-139.5 38z" />
    <glyph glyph-name="uni021E" unicode="&#x21e;" horiz-adv-x="750" 
d="M61 0l74 707h101l-32 -312h360l33 312h102l-74 -707h-102l34 314h-361l-34 -314h-101zM420 741l-166 83l36 69l137 -65l153 63l26 -68z" />
    <glyph glyph-name="uni021F" unicode="&#x21f;" horiz-adv-x="540" 
d="M42 0l79 754h99l-31 -289q37 30 60.5 46.5t61 32.5t71.5 16q56 0 78.5 -24.5t22.5 -82.5q0 -30 -4 -59l-42 -394h-98l41 374q3 28 3 48q0 24 -8.5 34.5t-28.5 10.5q-57 0 -166 -86l-40 -381h-98zM349 741l-166 83l36 69l137 -65l153 63l26 -68z" />
    <glyph glyph-name="uni0226" unicode="&#x226;" horiz-adv-x="652" 
d="M-38 0l351 707h142l152 -707h-105l-51 252h-263l-123 -252h-103zM227 330h208l-47 243l-12 78l-34 -79zM345 765l11 107h93l-11 -107h-93z" />
    <glyph glyph-name="uni0227" unicode="&#x227;" horiz-adv-x="521" 
d="M147 -13q-119 0 -119 168q0 97 39.5 186.5t118 149.5t177.5 60q64 0 109 -8l-56 -543h-98l10 91q-112 -104 -181 -104zM172 77q20 0 56.5 21.5t62 41.5t46.5 39l30 288q-6 1 -27 1q-63 0 -113.5 -47.5t-75.5 -116t-25 -139.5q0 -88 46 -88zM286 662l11 108h99l-11 -108
h-99z" />
    <glyph glyph-name="uni0228" unicode="&#x228;" horiz-adv-x="573" 
d="M61 0l74 707h410l-8 -81h-309l-24 -231h287l-9 -80h-286l-25 -234h332l-8 -81h-434zM211 -249l-27 57q66 37 70 75q2 22 -13 66h87q17 -36 13 -70q-8 -79 -130 -128z" />
    <glyph glyph-name="uni0229" unicode="&#x229;" horiz-adv-x="481" 
d="M178 -12q-139 0 -139 206q0 98 29.5 180t93 134.5t150.5 52.5q74 0 112 -37.5t38 -93.5q0 -101 -155 -155l-167 -60v-23q0 -61 13.5 -90t44.5 -29q64 0 169 56l34 -70q-58 -34 -109 -52.5t-114 -18.5zM149 296l148 58q70 26 70 71q0 28 -17 42t-41 14q-67 0 -106 -52
t-54 -133zM152 -249l-27 57q66 37 70 75q2 22 -13 66h87q17 -36 13 -70q-8 -79 -130 -128z" />
    <glyph glyph-name="uni022E" unicode="&#x22e;" horiz-adv-x="805" 
d="M411 765l11 107h93l-11 -107h-93zM361 -11q-146 0 -227 84t-81 231q0 187 107 300.5t292 113.5q147 0 228.5 -83.5t81.5 -230.5q0 -189 -107 -302t-294 -113zM373 71q137 0 210.5 92t73.5 234q0 109 -56 173t-163 64q-135 0 -208.5 -90.5t-73.5 -230.5q0 -110 55 -176
t162 -66z" />
    <glyph glyph-name="uni022F" unicode="&#x22f;" horiz-adv-x="527" 
d="M208 -12q-81 0 -127 56t-46 142q0 168 76.5 270.5t203.5 102.5q82 0 126.5 -56.5t44.5 -136.5q0 -66 -14.5 -128.5t-45 -120.5t-87 -93.5t-131.5 -35.5zM228 71q63 0 110.5 80t47.5 205q0 65 -23 94t-72 29q-63 0 -109 -81t-46 -200q0 -127 92 -127zM273 662l11 108h99
l-11 -108h-99z" />
    <glyph glyph-name="uni0232" unicode="&#x232;" horiz-adv-x="612" 
d="M219 0l27 262l-190 445h114l139 -358l227 358h111l-300 -442l-27 -265h-101zM205 767l8 82h294l-9 -82h-293z" />
    <glyph glyph-name="uni0233" unicode="&#x233;" horiz-adv-x="496" 
d="M61 -220l109 220h-41l-84 546h105l61 -466l135 279q42 89 42 161q0 10 -2 26h103q2 -12 2 -26q0 -76 -48 -174l-280 -566h-102zM146 665l9 81h272l-9 -81h-272z" />
    <glyph glyph-name="uni0237" unicode="&#x237;" horiz-adv-x="246" 
d="M-69 -220q-50 0 -88 16l24 80q41 -11 71 -11q52 0 74 29.5t29 93.5l58 558h98l-59 -559q-12 -116 -65 -161.5t-142 -45.5z" />
    <glyph glyph-name="uni0259" unicode="&#x259;" horiz-adv-x="496" 
d="M305 561q139 0 139 -206q0 -98 -29.5 -180t-93 -134.5t-150.5 -52.5q-74 0 -112 37.5t-38 93.5q0 101 155 155l167 60v23q0 61 -13.5 90t-44.5 29q-64 0 -169 -56l-34 70q58 34 109 52.5t114 18.5zM334 253l-148 -58q-70 -26 -70 -71q0 -28 17 -42t41 -14q67 0 106 52
t54 133z" />
    <glyph glyph-name="uni02BC" unicode="&#x2bc;" horiz-adv-x="561" 
d="M-70 539q38 76 50 222h104q-4 -75 -21 -125.5t-52 -96.5h-81z" />
    <glyph glyph-name="circumflex" unicode="&#x2c6;" horiz-adv-x="521" 
d="M427 616l-129 90l-147 -89l-40 62l198 119l166 -119z" />
    <glyph glyph-name="caron" unicode="&#x2c7;" horiz-adv-x="521" 
d="M304 607l-167 120l48 62l129 -92l149 89l38 -59z" />
    <glyph glyph-name="breve" unicode="&#x2d8;" horiz-adv-x="496" 
d="M313 638q-47 0 -86 25.5t-58 59.5l55 48q39 -56 97 -56q65 0 112 55l43 -48q-64 -84 -163 -84z" />
    <glyph glyph-name="dotaccent" unicode="&#x2d9;" horiz-adv-x="357" 
d="M114 662l11 108h99l-11 -108h-99z" />
    <glyph glyph-name="ring" unicode="&#x2da;" horiz-adv-x="518" 
d="M333 607q-46 0 -78 23.5t-32 66.5q0 55 38 89t93 34q45 0 76.5 -25t31.5 -68q0 -55 -36.5 -87.5t-92.5 -32.5zM338 658q26 0 43.5 16.5t17.5 42.5q0 22 -14.5 36t-37.5 14q-27 0 -44 -16t-17 -43q0 -23 14.5 -36.5t37.5 -13.5z" />
    <glyph glyph-name="ogonek" unicode="&#x2db;" horiz-adv-x="536" 
d="M461 -148l13 -67q-48 -18 -93 -18q-52 0 -82.5 26t-30.5 74q0 101 192 194l33 -49q-136 -73 -136 -129q0 -43 47 -43q26 0 57 12z" />
    <glyph glyph-name="tilde" unicode="&#x2dc;" horiz-adv-x="521" 
d="M386 644q-22 0 -63.5 18t-58.5 18q-36 0 -69 -25l-38 50q56 56 114 56q28 0 65.5 -18t54.5 -18q33 0 76 26l34 -51q-52 -56 -115 -56z" />
    <glyph glyph-name="hungarumlaut" unicode="&#x2dd;" horiz-adv-x="529" 
d="M126 615l-34 52l200 154l49 -72zM359 617l-31 57l203 123l38 -76z" />
    <glyph glyph-name="gravecmb" unicode="&#x300;" horiz-adv-x="0" 
d="M-134 611l-201 114l42 76l194 -129z" />
    <glyph glyph-name="acutecmb" unicode="&#x301;" horiz-adv-x="0" 
d="M-248 613l-34 61l201 133l42 -77z" />
    <glyph glyph-name="uni0302" unicode="&#x302;" horiz-adv-x="0" 
d="M-65 616l-129 90l-147 -89l-40 62l198 119l166 -119z" />
    <glyph glyph-name="tildecmb" unicode="&#x303;" horiz-adv-x="0" 
d="M-129 644q-22 0 -63.5 18t-58.5 18q-36 0 -69 -25l-38 50q56 56 114 56q28 0 65.5 -18t54.5 -18q33 0 76 26l34 -51q-52 -56 -115 -56z" />
    <glyph glyph-name="uni0304" unicode="&#x304;" horiz-adv-x="0" 
d="M-330 665l8 81h272l-9 -81h-271z" />
    <glyph glyph-name="uni0306" unicode="&#x306;" horiz-adv-x="0" 
d="M-204 638q-46 0 -85.5 25.5t-58.5 59.5l55 48q41 -56 98 -56q63 0 112 55l43 -48q-66 -84 -164 -84z" />
    <glyph glyph-name="uni0307" unicode="&#x307;" horiz-adv-x="0" 
d="M-248 661l11 108h99l-11 -108h-99z" />
    <glyph glyph-name="uni0308" unicode="&#x308;" horiz-adv-x="0" 
d="M-342 656l11 108h99l-11 -108h-99zM-136 656l11 108h99l-11 -108h-99z" />
    <glyph glyph-name="hookcmb" unicode="&#x309;" horiz-adv-x="0" 
d="M-100 765q0 -54 -32 -89t-71 -51l-42 52q63 29 63 74q0 17 -11.5 25.5t-26.5 8.5q-26 0 -43 -7v67q29 12 68 12q40 0 66 -23q29 -23 29 -69z" />
    <glyph glyph-name="uni030A" unicode="&#x30a;" horiz-adv-x="0" 
d="M-198 602q-49 0 -82.5 24.5t-33.5 69.5q0 57 39.5 93.5t97.5 36.5q48 0 81 -27t33 -71q0 -58 -38 -92t-97 -34zM-194 654q28 0 47 17.5t19 45.5q0 24 -15.5 39t-39.5 15q-29 0 -47.5 -17.5t-18.5 -46.5q0 -24 15.5 -38.5t39.5 -14.5z" />
    <glyph glyph-name="uni030B" unicode="&#x30b;" horiz-adv-x="0" 
d="M-325 615l-34 52l199 154l50 -72zM-93 617l-30 57l203 123l38 -76z" />
    <glyph glyph-name="uni030C" unicode="&#x30c;" horiz-adv-x="0" 
d="M-193 607l-167 120l48 62l129 -92l149 89l38 -59z" />
    <glyph glyph-name="uni0310" unicode="&#x310;" horiz-adv-x="0" 
d="M-193 638q-46 0 -85.5 25.5t-58.5 59.5l55 48q41 -56 98 -56q63 0 112 55l43 -48q-66 -84 -164 -84zM-227 773l11 108h99l-11 -108h-99z" />
    <glyph glyph-name="dotbelowcmb" unicode="&#x323;" horiz-adv-x="0" 
d="M-375 -221l11 108h99l-11 -108h-99z" />
    <glyph glyph-name="uni0324" unicode="&#x324;" horiz-adv-x="0" 
d="M-475 -221l11 108h99l-11 -108h-99zM-265 -221l11 108h99l-11 -108h-99z" />
    <glyph glyph-name="uni0325" unicode="&#x325;" horiz-adv-x="0" 
d="M-355 -287q-49 0 -82.5 24.5t-33.5 69.5q0 57 39.5 93.5t97.5 36.5q48 0 81 -27t33 -71q0 -58 -38 -92t-97 -34zM-351 -235q28 0 47 17.5t19 45.5q0 24 -15.5 38.5t-39.5 14.5q-30 0 -48 -17t-18 -46q0 -25 15 -39t40 -14z" />
    <glyph glyph-name="uni0327" unicode="&#x327;" horiz-adv-x="0" 
d="M-385 -249l-27 57q67 38 70 80q1 22 -13 61h87q15 -33 14 -64q-3 -82 -131 -134z" />
    <glyph glyph-name="uni0328" unicode="&#x328;" horiz-adv-x="0" 
d="M-237 -148l12 -68q-39 -17 -92 -17q-52 0 -83 26t-31 74q0 99 192 194l33 -49q-135 -74 -135 -129q0 -40 45 -40q32 0 59 9z" />
    <glyph glyph-name="uni032E" unicode="&#x32e;" horiz-adv-x="0" 
d="M-328 -209q-46 0 -85.5 25t-58.5 59l55 48q39 -55 98 -55q64 0 112 54l42 -48q-65 -83 -163 -83z" />
    <glyph glyph-name="uni0331" unicode="&#x331;" horiz-adv-x="0" 
d="M-463 -196l8 81h272l-9 -81h-271z" />
    <glyph glyph-name="uni0374" unicode="&#x374;" horiz-adv-x="147" 
d="M37 539q38 76 50 222h104q-4 -75 -21 -125.5t-52 -96.5h-81z" />
    <glyph glyph-name="uni0375" unicode="&#x375;" horiz-adv-x="181" 
d="M12 -121q38 75 50 221h102q-4 -75 -21 -125.5t-52 -95.5h-79z" />
    <glyph glyph-name="uni037E" unicode="&#x37e;" horiz-adv-x="510" 
d="M131 -128q33 65 41 125q2 10 4 30t4.5 43.5t3.5 31.5h103q-5 -55 -9 -74q-14 -89 -64 -156h-83zM211 441l11 105h114l-12 -105h-113z" />
    <glyph glyph-name="tonos" unicode="&#x384;" horiz-adv-x="482" 
d="M215 619l62 158h103l-84 -158h-81z" />
    <glyph glyph-name="dieresistonos" unicode="&#x385;" horiz-adv-x="499" 
d="M110 623l80 158h102l-100 -157zM-16 634l11 108h99l-11 -108h-99zM281 634l11 108h99l-11 -108h-99z" />
    <glyph glyph-name="Alphatonos" unicode="&#x386;" horiz-adv-x="651" 
d="M-38 0l351 707h142l152 -707h-105l-51 252h-263l-123 -252h-103zM227 330h208l-47 243l-12 78l-34 -79zM5 545l63 162h98l-84 -162h-77z" />
    <glyph glyph-name="anoteleia" unicode="&#x387;" horiz-adv-x="244" 
d="M68 317l11 105h113l-11 -105h-113z" />
    <glyph glyph-name="Epsilontonos" unicode="&#x388;" horiz-adv-x="575" 
d="M-72 545l63 162h98l-84 -162h-77zM64 0l74 707h410l-8 -81h-309l-24 -231h287l-9 -80h-286l-25 -234h332l-8 -81h-434z" />
    <glyph glyph-name="Etatonos" unicode="&#x389;" horiz-adv-x="757" 
d="M64 0l74 707h101l-32 -312h360l33 312h102l-74 -707h-102l34 314h-361l-34 -314h-101zM-78 545l63 162h98l-84 -162h-77z" />
    <glyph glyph-name="Iotatonos" unicode="&#x38a;" horiz-adv-x="294" 
d="M64 0l74 707h101l-74 -707h-101zM-87 545l63 162h98l-84 -162h-77z" />
    <glyph glyph-name="Omicrontonos" unicode="&#x38c;" horiz-adv-x="805" 
d="M-47 545l63 162h98l-84 -162h-77zM361 -11q-146 0 -227 84t-81 231q0 187 107 300.5t292 113.5q147 0 228.5 -83.5t81.5 -230.5q0 -189 -107 -302t-294 -113zM373 71q137 0 210.5 92t73.5 234q0 109 -56 173t-163 64q-135 0 -208.5 -90.5t-73.5 -230.5q0 -110 55 -176
t162 -66z" />
    <glyph glyph-name="Upsilontonos" unicode="&#x38e;" horiz-adv-x="627" 
d="M226 0l27 262l-190 445h114l139 -358l227 358h111l-300 -442l-27 -265h-101zM-135 545l63 162h98l-84 -162h-77z" />
    <glyph glyph-name="Omegatonos" unicode="&#x38f;" horiz-adv-x="825" 
d="M-53 545l63 162h98l-84 -162h-77zM39 0l9 88h150q-53 29 -93 95.5t-40 152.5q0 170 111.5 276t284.5 106q151 0 231 -85t80 -222q0 -102 -53.5 -193.5t-136.5 -129.5h152l-9 -88h-280l9 84q99 51 156 135t57 183q0 105 -55 168.5t-165 63.5q-130 0 -205 -85t-75 -210
q0 -84 45 -148.5t111 -106.5l-9 -84h-275z" />
    <glyph glyph-name="iotadieresistonos" unicode="&#x390;" horiz-adv-x="244" 
d="M110 630l80 158h102l-100 -157zM-16 641l11 108h99l-11 -108h-99zM281 641l11 108h99l-11 -108h-99zM41 0l57 546h98l-57 -546h-98z" />
    <glyph glyph-name="Alpha" unicode="&#x391;" horiz-adv-x="651" 
d="M-38 0l351 707h142l152 -707h-105l-51 252h-263l-123 -252h-103zM227 330h208l-47 243l-12 78l-34 -79z" />
    <glyph glyph-name="Beta" unicode="&#x392;" horiz-adv-x="629" 
d="M64 0l74 707h206q212 0 212 -159q0 -57 -29 -104t-80 -64v-3q56 -10 90 -51t34 -98q0 -116 -74.5 -172t-196.5 -56h-236zM175 82h114q85 0 131.5 29t46.5 110q0 30 -12.5 51t-29 31t-45.5 15.5t-47.5 6.5t-49.5 1h-83zM208 402h90q76 0 113.5 30.5t37.5 103.5
q0 54 -37 73.5t-99 19.5h-81z" />
    <glyph glyph-name="Gamma" unicode="&#x393;" horiz-adv-x="471" 
d="M64 0l75 707h372l-9 -82h-271l-65 -625h-102z" />
    <glyph glyph-name="uni0394" unicode="&#x394;" horiz-adv-x="672" 
d="M105 86h404l-109 486l-14 80l-35 -80zM-42 0l365 707h141l169 -707h-675z" />
    <glyph glyph-name="Epsilon" unicode="&#x395;" horiz-adv-x="575" 
d="M64 0l74 707h410l-8 -81h-309l-24 -231h287l-9 -80h-286l-25 -234h332l-8 -81h-434z" />
    <glyph glyph-name="Zeta" unicode="&#x396;" horiz-adv-x="567" 
d="M1 0l8 80l417 538h-334l9 89h455l-7 -74l-420 -545h383l-9 -88h-502z" />
    <glyph glyph-name="Eta" unicode="&#x397;" horiz-adv-x="757" 
d="M64 0l74 707h101l-32 -312h360l33 312h102l-74 -707h-102l34 314h-361l-34 -314h-101z" />
    <glyph glyph-name="Theta" unicode="&#x398;" horiz-adv-x="805" 
d="M264 315l8 80h281l-8 -80h-281zM361 -11q-146 0 -227 84t-81 231q0 187 107 300.5t292 113.5q147 0 228.5 -83.5t81.5 -230.5q0 -189 -107 -302t-294 -113zM373 71q137 0 210.5 92t73.5 234q0 109 -56 173t-163 64q-135 0 -208.5 -90.5t-73.5 -230.5q0 -110 55 -176
t162 -66z" />
    <glyph glyph-name="Iota" unicode="&#x399;" horiz-adv-x="294" 
d="M64 0l74 707h101l-74 -707h-101z" />
    <glyph glyph-name="Kappa" unicode="&#x39a;" horiz-adv-x="626" 
d="M487 -25l-271 394l1 12l307 326h126l-317 -328l250 -356zM64 0l74 707h101l-74 -707h-101z" />
    <glyph glyph-name="Lambda" unicode="&#x39b;" horiz-adv-x="634" 
d="M-35 0l337 707h141l142 -707h-104l-105 572l-11 76l-32 -77l-265 -571h-103z" />
    <glyph glyph-name="Mu" unicode="&#x39c;" horiz-adv-x="918" 
d="M0 0l237 707h127l49 -638l280 638h126l-2 -707h-99l11 574l-253 -574h-149l-44 576l-183 -576h-100z" />
    <glyph glyph-name="Nu" unicode="&#x39d;" horiz-adv-x="746" 
d="M64 0l75 707h136l255 -609l61 609h101l-76 -707h-142l-248 594l-61 -594h-101z" />
    <glyph glyph-name="Xi" unicode="&#x39e;" horiz-adv-x="583" 
d="M17 0l9 88h486l-10 -88h-485zM82 312l9 86h421l-9 -86h-421zM93 619l9 88h465l-10 -88h-464z" />
    <glyph glyph-name="Omicron" unicode="&#x39f;" horiz-adv-x="805" 
d="M361 -11q-146 0 -227 84t-81 231q0 187 107 300.5t292 113.5q147 0 228.5 -83.5t81.5 -230.5q0 -189 -107 -302t-294 -113zM373 71q137 0 210.5 92t73.5 234q0 109 -56 173t-163 64q-135 0 -208.5 -90.5t-73.5 -230.5q0 -110 55 -176t162 -66z" />
    <glyph glyph-name="Pi" unicode="&#x3a0;" horiz-adv-x="738" 
d="M64 0l75 707h545l-75 -707h-102l66 621h-342l-65 -621h-102z" />
    <glyph glyph-name="Rho" unicode="&#x3a1;" horiz-adv-x="603" 
d="M64 0l75 707h240q98 0 157.5 -50.5t59.5 -146.5q0 -69 -27 -122t-73.5 -83t-103.5 -45t-123 -15h-77l-25 -245h-103zM201 327h77q211 0 211 173q0 126 -140 126h-116z" />
    <glyph glyph-name="Sigma" unicode="&#x3a3;" horiz-adv-x="578" 
d="M14 0l9 82l231 272l-171 267l10 86h482l-8 -81h-370l170 -267l-230 -271h378l-9 -88h-492z" />
    <glyph glyph-name="Tau" unicode="&#x3a4;" horiz-adv-x="579" 
d="M206 0l65 624h-237l10 83h575l-9 -83h-237l-65 -624h-102z" />
    <glyph glyph-name="Upsilon" unicode="&#x3a5;" horiz-adv-x="627" 
d="M226 0l27 262l-190 445h114l139 -358l227 358h111l-300 -442l-27 -265h-101z" />
    <glyph glyph-name="Phi" unicode="&#x3a6;" horiz-adv-x="788" 
d="M312 0l9 85q-129 0 -206.5 64t-77.5 188q0 150 94 235.5t249 88.5l8 76h101l-8 -76q130 0 207 -64t77 -190q0 -148 -95 -233.5t-247 -88.5l-9 -85h-102zM329 167l43 412q-105 -1 -168.5 -63t-63.5 -167q0 -88 50.5 -135t138.5 -47zM431 167q105 1 168 64t63 168
q0 88 -50.5 134t-138.5 46z" />
    <glyph glyph-name="Chi" unicode="&#x3a7;" horiz-adv-x="605" 
d="M-32 0l289 371l-168 336h114l121 -259l193 259h112l-261 -335l188 -372h-115l-140 292l-218 -292h-115z" />
    <glyph glyph-name="Psi" unicode="&#x3a8;" horiz-adv-x="735" 
d="M285 0l16 157q-241 25 -241 220q0 23 1 35l30 295h103l-29 -293q-5 -43 5 -75.5t32.5 -51t48 -29t59.5 -16.5l49 465h101l-48 -464q170 31 187 194l27 270h98l-26 -269q-26 -254 -296 -282l-16 -156h-101z" />
    <glyph glyph-name="uni03A9" unicode="&#x3a9;" horiz-adv-x="825" 
d="M39 0l9 88h150q-53 29 -93 95.5t-40 152.5q0 170 111.5 276t284.5 106q151 0 231 -85t80 -222q0 -102 -53.5 -193.5t-136.5 -129.5h152l-9 -88h-280l9 84q99 51 156 135t57 183q0 105 -55 168.5t-165 63.5q-130 0 -205 -85t-75 -210q0 -84 45 -148.5t111 -106.5l-9 -84
h-275z" />
    <glyph glyph-name="Iotadieresis" unicode="&#x3aa;" horiz-adv-x="294" 
d="M64 0l74 707h101l-74 -707h-101zM38 765l10 106h93l-11 -106h-92zM260 765l10 106h93l-11 -106h-92z" />
    <glyph glyph-name="Upsilondieresis" unicode="&#x3ab;" horiz-adv-x="627" 
d="M226 0l27 262l-190 445h114l139 -358l227 358h111l-300 -442l-27 -265h-101zM201 765l10 106h93l-11 -106h-92zM423 765l10 106h93l-11 -106h-92z" />
    <glyph glyph-name="alphatonos" unicode="&#x3ac;" horiz-adv-x="529" 
d="M289 629l62 158h103l-84 -158h-81zM155 -13q-119 0 -119 168q0 93 26 180.5t85.5 151.5t141.5 64q65 0 93 -63l7 58h92l-57 -546h-98l11 100q-39 -51 -87.5 -82t-94.5 -31zM180 77q36 0 83 32t82 80l24 213q-38 66 -85 66q-46 0 -81.5 -49.5t-52 -117t-16.5 -136.5
q0 -88 46 -88z" />
    <glyph glyph-name="epsilontonos" unicode="&#x3ad;" horiz-adv-x="457" 
d="M224 627l62 158h103l-84 -158h-81zM212 -12q-89 0 -137.5 38.5t-48.5 104.5q0 56 30 101t89 66q-33 12 -54 39t-21 62q0 67 56 113.5t155 46.5q85 0 145 -38l-31 -67q-59 26 -116 26q-112 0 -112 -83q0 -36 26.5 -53t66.5 -17h62l-8 -76h-75q-47 0 -79 -25.5t-32 -73.5
q0 -80 107 -80q61 0 149 38l31 -73q-98 -49 -203 -49z" />
    <glyph glyph-name="etatonos" unicode="&#x3ae;" horiz-adv-x="539" 
d="M272 629l62 158h103l-84 -158h-81zM315 -219l65 593q4 46 4 53q0 23 -8 31.5t-32 8.5q-11 0 -29.5 -7t-39.5 -19t-37.5 -22.5t-35.5 -23t-22 -14.5l-41 -381h-98l58 546h98l-8 -81q123 95 193 95q57 0 79.5 -22t22.5 -76q0 -25 -5 -68l-65 -613h-99z" />
    <glyph glyph-name="iotatonos" unicode="&#x3af;" horiz-adv-x="244" 
d="M109 626l62 158h103l-84 -158h-81zM41 0l57 546h98l-57 -546h-98z" />
    <glyph glyph-name="upsilondieresistonos" unicode="&#x3b0;" horiz-adv-x="529" 
d="M234 623l80 158h102l-100 -157zM108 634l11 108h99l-11 -108h-99zM405 634l11 108h99l-11 -108h-99zM228 -11q-175 0 -175 162q0 17 3 38l37 357h97l-37 -349q-2 -24 -2 -33q0 -50 22 -71t63 -21q59 0 100.5 70.5t41.5 188.5q0 104 -44 215h98q44 -105 44 -217
q0 -150 -70.5 -245t-177.5 -95z" />
    <glyph glyph-name="alpha" unicode="&#x3b1;" horiz-adv-x="529" 
d="M155 -13q-119 0 -119 168q0 93 26 180.5t85.5 151.5t141.5 64q65 0 93 -63l7 58h92l-57 -546h-98l11 100q-39 -51 -87.5 -82t-94.5 -31zM180 77q36 0 83 32t82 80l24 213q-38 66 -85 66q-46 0 -81.5 -49.5t-52 -117t-16.5 -136.5q0 -88 46 -88z" />
    <glyph glyph-name="beta" unicode="&#x3b2;" horiz-adv-x="533" 
d="M233 -12q-92 0 -134 59.5t-42 178.5q0 38 3 78l19 187q12 132 80 207.5t162 75.5q78 0 121.5 -35.5t43.5 -104.5q0 -109 -103 -181q51 -12 78 -55t27 -107q0 -125 -69.5 -214t-185.5 -89zM239 67q65 0 107.5 64.5t42.5 148.5q0 60 -18.5 86.5t-69.5 26.5q-39 0 -141 -46
l-6 -54q-4 -54 -4 -73q0 -153 89 -153zM166 413q42 18 64 26q159 66 159 179q0 75 -82 75q-110 0 -132 -193z" />
    <glyph glyph-name="gamma" unicode="&#x3b3;" horiz-adv-x="477" 
d="M118 -220q3 86 22 228q-15 252 -115 538h109q22 -63 48 -180.5t38 -244.5q131 233 157 425h106q-8 -52 -26 -108.5t-52 -126t-53 -105.5t-65.5 -117t-52.5 -91q0 -8 0.5 -25t0.5 -26q-3 -86 -18 -167h-99z" />
    <glyph glyph-name="delta" unicode="&#x3b4;" horiz-adv-x="516" 
d="M210 -12q-81 0 -130.5 52.5t-49.5 145.5q0 116 54.5 197.5t141.5 112.5q-83 53 -83 123q0 78 56 116.5t138 38.5q89 0 166 -31l-26 -75q-71 25 -145 25q-95 0 -95 -65q0 -15 7 -28.5t22.5 -26.5t26 -20.5t32.5 -20.5t28 -17q122 -75 122 -204q0 -149 -76.5 -236
t-188.5 -87zM227 71q45 0 80.5 38.5t52 90.5t16.5 102q0 63 -21.5 94t-67.5 60q-79 -33 -117.5 -104t-38.5 -158q0 -123 96 -123z" />
    <glyph glyph-name="epsilon" unicode="&#x3b5;" horiz-adv-x="457" 
d="M212 -12q-89 0 -137.5 38.5t-48.5 104.5q0 56 30 101t89 66q-33 12 -54 39t-21 62q0 67 56 113.5t155 46.5q85 0 145 -38l-31 -67q-59 26 -116 26q-112 0 -112 -83q0 -36 26.5 -53t66.5 -17h62l-8 -76h-75q-47 0 -79 -25.5t-32 -73.5q0 -80 107 -80q61 0 149 38l31 -73
q-98 -49 -203 -49z" />
    <glyph glyph-name="zeta" unicode="&#x3b6;" horiz-adv-x="435" 
d="M341 -159l-70 9q53 89 53 130q0 19 -15 19q-21 0 -65 -5t-65 -5q-72 0 -112 41t-40 114q0 81 33 164.5t87.5 152t109.5 121t112 92.5h-247l9 80h364l-9 -77q-62 -44 -119.5 -97t-114 -119.5t-90.5 -144t-34 -150.5q0 -49 20 -69.5t59 -20.5q25 0 74 6.5t71 6.5
q30 0 44.5 -19.5t14.5 -47.5q0 -40 -23.5 -94t-46.5 -87z" />
    <glyph glyph-name="eta" unicode="&#x3b7;" horiz-adv-x="539" 
d="M315 -219l65 593q4 46 4 53q0 23 -8 31.5t-32 8.5q-11 0 -29.5 -7t-39.5 -19t-37.5 -22.5t-35.5 -23t-22 -14.5l-41 -381h-98l58 546h98l-8 -81q123 95 193 95q57 0 79.5 -22t22.5 -76q0 -25 -5 -68l-65 -613h-99z" />
    <glyph glyph-name="theta" unicode="&#x3b8;" horiz-adv-x="532" 
d="M223 -12q-84 0 -117.5 48.5t-35.5 152.5v21q-1 23 -45 8l-9 62q57 24 93 24q53 0 53 -85q0 -78 15.5 -111.5t59.5 -33.5q38 0 66.5 26.5t45.5 73.5t26.5 97.5t14.5 110.5q-58 -27 -119 -27q-91 0 -136.5 48.5t-45.5 122.5q0 96 60.5 171.5t155.5 75.5q103 0 146.5 -67.5
t43.5 -194.5q0 -94 -14 -181t-44 -166.5t-85 -127.5t-129 -48zM286 434q56 0 108 22q1 15 1 55q0 93 -23.5 135t-78.5 42q-52 0 -81.5 -43t-29.5 -104q0 -48 28 -77.5t76 -29.5z" />
    <glyph glyph-name="iota" unicode="&#x3b9;" horiz-adv-x="244" 
d="M41 0l57 546h98l-57 -546h-98z" />
    <glyph glyph-name="kappa" unicode="&#x3ba;" horiz-adv-x="500" 
d="M359 -10l-180 297l201 259h111l-203 -255l174 -283zM42 0l57 546h98l-57 -546h-98z" />
    <glyph glyph-name="lambda" unicode="&#x3bb;" horiz-adv-x="506" 
d="M454 -13q-118 1 -133 126l-33 230l-12 115l-46 -118l-148 -340h-108l253 546h33l-9 62q-7 43 -22 64t-55 21q-31 0 -76 -17l-10 73q61 26 109 26q74 0 105 -35t41 -108l74 -495q3 -21 9 -35t15.5 -21t16 -10t17.5 -6z" />
    <glyph glyph-name="uni03BC" unicode="&#x3bc;" horiz-adv-x="542" 
d="M17 -220l81 766h98l-41 -376q-3 -29 -3 -46q1 -27 10.5 -37t32.5 -10q20 0 45.5 11.5t44 24t41.5 30t29 21.5l40 382h99l-58 -546h-98l9 81q-2 -2 -33 -27t-44.5 -34t-41.5 -20.5t-54 -12.5q-20 0 -37 5l-22 -212h-98z" />
    <glyph glyph-name="nu" unicode="&#x3bd;" horiz-adv-x="497" 
d="M127 0l-83 546h105l56 -448q182 255 182 422q0 10 -2 26h102q2 -6 2 -26q0 -195 -255 -520h-107z" />
    <glyph glyph-name="xi" unicode="&#x3be;" horiz-adv-x="445" 
d="M337 -159l-71 9q53 89 53 131q0 19 -16 19q-138 0 -208.5 40.5t-70.5 146.5q0 79 54 143t147 86q-63 25 -93 67.5t-30 90.5q0 92 72 144t178 52q67 0 131 -25l-17 -79q-50 19 -113 19q-66 0 -109.5 -27t-43.5 -84q0 -51 44.5 -86.5t115.5 -37.5l-15 -74
q-219 -35 -219 -175q0 -31 9.5 -52t26 -34t45.5 -20t61 -9.5t80 -2.5q30 0 44 -18.5t14 -45.5q0 -40 -22.5 -91t-46.5 -87z" />
    <glyph glyph-name="omicron" unicode="&#x3bf;" horiz-adv-x="527" 
d="M208 -12q-81 0 -127 56t-46 142q0 168 76.5 270.5t203.5 102.5q82 0 126.5 -56.5t44.5 -136.5q0 -66 -14.5 -128.5t-45 -120.5t-87 -93.5t-131.5 -35.5zM228 71q63 0 110.5 80t47.5 205q0 65 -23 94t-72 29q-63 0 -109 -81t-46 -200q0 -127 92 -127z" />
    <glyph glyph-name="pi" unicode="&#x3c0;" horiz-adv-x="565" 
d="M65 0l48 461h-67l9 85h501l-8 -85h-62l-48 -461h-99l48 461h-175l-48 -461h-99z" />
    <glyph glyph-name="rho" unicode="&#x3c1;" horiz-adv-x="520" 
d="M2 -220l45 427q19 182 83.5 267.5t177.5 85.5q75 0 122.5 -47t47.5 -139q0 -164 -69.5 -274t-197.5 -110q-48 0 -88 20l-23 -230h-98zM212 70q57 0 97 50t56 116t16 138q0 49 -22.5 77t-63.5 28q-63 0 -98.5 -65.5t-51.5 -201.5l-13 -120q44 -22 80 -22z" />
    <glyph glyph-name="uni03C2" unicode="&#x3c2;" horiz-adv-x="487" 
d="M353 -159l-71 9q53 89 53 130q0 19 -15 19q-23 0 -71 -5t-73 -5q-139 0 -139 204q0 153 75 260.5t202 107.5q83 0 134 -49l-49 -64q-44 31 -88 31q-49 0 -85 -29t-54 -75.5t-25.5 -91.5t-7.5 -91q0 -67 18.5 -91.5t49.5 -24.5q25 0 79 6.5t77 6.5q30 0 44.5 -19.5
t14.5 -47.5q0 -40 -23 -93.5t-46 -87.5z" />
    <glyph glyph-name="sigma" unicode="&#x3c3;" horiz-adv-x="554" 
d="M208 -12q-79 0 -126.5 54.5t-47.5 145.5q0 100 32 183t101.5 136t165.5 49l224 -10l-10 -80l-90 4q31 -51 31 -119q0 -69 -17 -132.5t-50 -116t-88 -83.5t-125 -31zM228 71q71 0 116.5 84.5t45.5 191.5q0 83 -38 127l-33 2q-59 3 -102 -38.5t-62 -103.5t-19 -133
q0 -130 92 -130z" />
    <glyph glyph-name="tau" unicode="&#x3c4;" horiz-adv-x="434" 
d="M251 -12q-131 0 -124 138q0 15 3 42l31 292h-135l9 86h403l-9 -86h-171l-30 -285q0 -3 -1 -16t-1 -15q-3 -67 57 -67q31 0 73 16l7 -76q-50 -29 -112 -29z" />
    <glyph glyph-name="upsilon" unicode="&#x3c5;" horiz-adv-x="527" 
d="M228 -11q-175 0 -175 162q0 17 3 38l37 357h97l-37 -349q-2 -24 -2 -33q0 -50 22 -71t63 -21q59 0 100.5 70.5t41.5 188.5q0 104 -44 215h98q44 -105 44 -217q0 -150 -70.5 -245t-177.5 -95z" />
    <glyph glyph-name="phi" unicode="&#x3c6;" horiz-adv-x="669" 
d="M231 -220l22 213q-95 2 -153.5 58t-58.5 145q0 115 39.5 208.5t104.5 141.5h97q-140 -110 -140 -338q0 -57 29.5 -96t89.5 -42l32 306q9 83 51.5 133t109.5 50q88 0 130.5 -52.5t42.5 -148.5q0 -144 -72 -246t-204 -117l-23 -215h-97zM359 73q76 17 122.5 95t46.5 178
q0 132 -74 132q-29 0 -43.5 -28.5t-20.5 -87.5z" />
    <glyph glyph-name="chi" unicode="&#x3c7;" horiz-adv-x="464" 
d="M380 -229q-64 13 -89 45t-47 114l-40 149l-167 -299h-107l240 402l-72 233q-18 56 -63 66l24 82q60 -8 86.5 -36.5t43.5 -85.5l44 -155l144 260h108l-218 -365l68 -224q15 -52 31 -74.5t40 -28.5z" />
    <glyph glyph-name="psi" unicode="&#x3c8;" horiz-adv-x="678" 
d="M234 -220l22 212q-93 10 -147.5 67t-54.5 154q0 21 1 32l32 301h97l-31 -293q-1 -11 -1 -31q5 -125 113 -143l62 579h97l-61 -578q76 18 122.5 83t46.5 168q0 119 -38 215h98q37 -88 37 -217q0 -140 -78 -230t-198 -106l-22 -213h-97z" />
    <glyph glyph-name="omega" unicode="&#x3c9;" horiz-adv-x="725" 
d="M186 -10q-65 0 -107 50t-42 135q0 235 161 371h102q-81 -66 -121.5 -159.5t-40.5 -198.5q0 -112 71 -112q34 0 60 37.5t33 100.5l15 146h97l-14 -141q-3 -39 -3 -48q0 -43 15 -69t45 -26q34 0 58.5 27t36 68t16.5 76.5t5 65.5q0 140 -80 233h105q75 -101 75 -219
q0 -60 -12.5 -117.5t-37.5 -108t-69.5 -81t-101.5 -30.5q-41 0 -76.5 25.5t-41.5 73.5q-22 -49 -63.5 -74t-84.5 -25z" />
    <glyph glyph-name="iotadieresis" unicode="&#x3ca;" horiz-adv-x="244" 
d="M5 662l11 108h95l-12 -108h-94zM212 662l11 108h95l-12 -108h-94zM41 0l57 546h98l-57 -546h-98z" />
    <glyph glyph-name="upsilondieresis" unicode="&#x3cb;" horiz-adv-x="529" 
d="M137 662l11 108h95l-12 -108h-94zM344 662l11 108h95l-12 -108h-94zM228 -11q-175 0 -175 162q0 17 3 38l37 357h97l-37 -349q-2 -24 -2 -33q0 -50 22 -71t63 -21q59 0 100.5 70.5t41.5 188.5q0 104 -44 215h98q44 -105 44 -217q0 -150 -70.5 -245t-177.5 -95z" />
    <glyph glyph-name="omicrontonos" unicode="&#x3cc;" horiz-adv-x="527" 
d="M265 627l62 158h103l-84 -158h-81zM208 -12q-81 0 -127 56t-46 142q0 168 76.5 270.5t203.5 102.5q82 0 126.5 -56.5t44.5 -136.5q0 -66 -14.5 -128.5t-45 -120.5t-87 -93.5t-131.5 -35.5zM228 71q63 0 110.5 80t47.5 205q0 65 -23 94t-72 29q-63 0 -109 -81t-46 -200
q0 -127 92 -127z" />
    <glyph glyph-name="upsilontonos" unicode="&#x3cd;" horiz-adv-x="529" 
d="M241 626l62 158h103l-84 -158h-81zM228 -11q-175 0 -175 162q0 17 3 38l37 357h97l-37 -349q-2 -24 -2 -33q0 -50 22 -71t63 -21q59 0 100.5 70.5t41.5 188.5q0 104 -44 215h98q44 -105 44 -217q0 -150 -70.5 -245t-177.5 -95z" />
    <glyph glyph-name="omegatonos" unicode="&#x3ce;" horiz-adv-x="725" 
d="M349 623l62 158h103l-84 -158h-81zM186 -10q-65 0 -107 50t-42 135q0 235 161 371h102q-81 -66 -121.5 -159.5t-40.5 -198.5q0 -112 71 -112q34 0 60 37.5t33 100.5l15 146h97l-14 -141q-3 -39 -3 -48q0 -43 15 -69t45 -26q34 0 58.5 27t36 68t16.5 76.5t5 65.5
q0 140 -80 233h105q75 -101 75 -219q0 -60 -12.5 -117.5t-37.5 -108t-69.5 -81t-101.5 -30.5q-41 0 -76.5 25.5t-41.5 73.5q-22 -49 -63.5 -74t-84.5 -25z" />
    <glyph glyph-name="uni03D0" unicode="&#x3d0;" horiz-adv-x="546" 
d="M18 -220l78 738q12 121 78 188.5t159 67.5q79 0 122.5 -34.5t43.5 -103.5q0 -75 -37 -134t-94 -80q60 0 97 -33t37 -103q0 -125 -69 -210.5t-191 -85.5q-60 0 -104 21l-24 -231h-96zM248 70q69 0 111.5 59t42.5 143q0 32 -9.5 53t-29 31t-41 13t-51.5 3l-2 66
q54 5 93.5 60t39.5 122q0 73 -83 73q-105 0 -127 -181l-45 -420q49 -22 101 -22z" />
    <glyph glyph-name="uni03D8" unicode="&#x3d8;" horiz-adv-x="737" 
d="M250 -166l22 158q-226 38 -226 279q0 106 31.5 193t84.5 143.5t122 87t146 30.5q125 0 200.5 -71t75.5 -211q0 -190 -96 -308.5t-234 -140.5l-23 -160h-103zM336 78q111 0 188.5 98t77.5 258q0 97 -46 151t-139 54q-126 0 -197 -103.5t-71 -252.5q0 -105 51 -155t136 -50
z" />
    <glyph glyph-name="uni03D9" unicode="&#x3d9;" horiz-adv-x="564" 
d="M182 -199l21 210q-78 11 -122 64t-44 139q0 129 76 208t192 79q102 0 157.5 -54.5t55.5 -151.5q0 -110 -61 -189t-154 -92l-23 -213h-98zM260 89q77 0 116.5 57.5t39.5 141.5q0 60 -29.5 96t-93.5 36q-81 0 -119 -59t-38 -140q0 -132 124 -132z" />
    <glyph glyph-name="uni03DA" unicode="&#x3da;" horiz-adv-x="564" 
d="M572 662l-43 -82q-83 44 -177 44q-100 0 -148 -66t-48 -176q0 -47 14 -81t36 -52t50.5 -31.5t58 -20t56.5 -16.5t47.5 -22.5t31.5 -37.5t7 -61q-5 -49 -37.5 -89t-81 -65t-96.5 -40t-98 -22l-13 74q49 12 83 22t68 25.5t52.5 35.5t21.5 45q2 22 -13.5 36.5t-42.5 23
t-60 16.5t-67 24t-62 39.5t-45.5 68t-17.5 104.5q0 160 82.5 258.5t224.5 98.5q132 0 217 -53z" />
    <glyph glyph-name="uni03DB" unicode="&#x3db;" horiz-adv-x="498" 
d="M491 512l-43 -81q-72 33 -149 33q-84 0 -124.5 -64t-40.5 -160q0 -120 111 -136q73 -9 108.5 -37.5t29.5 -89.5q-7 -69 -77.5 -109t-183.5 -42l8 81q149 1 157 62q2 22 -16 32.5t-63 15.5q-174 18 -174 204q0 145 71.5 238t195.5 93q104 0 190 -40z" />
    <glyph glyph-name="uni03DC" unicode="&#x3dc;" horiz-adv-x="520" 
d="M64 0l75 707h386l-8 -81h-286l-26 -250h264l-8 -80h-264l-31 -296h-102z" />
    <glyph glyph-name="uni03DD" unicode="&#x3dd;" horiz-adv-x="426" 
d="M61 -220l52 516h-80l9 77h80l22 210q10 110 67 150.5t150 40.5q63 0 125 -22l-27 -78q-58 15 -103 15q-56 0 -83 -23.5t-32 -78.5l-23 -214h120l-8 -77h-119l-55 -516h-95z" />
    <glyph glyph-name="uni03DE" unicode="&#x3de;" horiz-adv-x="508" 
d="M170 -135l189 391h-356l232 476l114 13l-192 -401h350l-222 -452z" />
    <glyph glyph-name="uni03DF" unicode="&#x3df;" horiz-adv-x="511" 
d="M182 -89l171 358h-345l214 422l115 13l-175 -342h341l-205 -426z" />
    <glyph glyph-name="uni03E0" unicode="&#x3e0;" horiz-adv-x="741" 
d="M478 -76l-49 64q151 108 164 259l-408 -248l-36 70l432 266q-11 46 -40 83q-101 -63 -270 -167l-195 -120l-40 71l432 262q-57 33 -128 33q-84 0 -184 -53l-36 66q111 73 239 73q145 0 233.5 -88.5t88.5 -217.5q0 -110 -65 -209t-138 -144z" />
    <glyph glyph-name="uni03E1" unicode="&#x3e1;" horiz-adv-x="693" 
d="M447 -76l-49 64q151 108 164 259l-408 -248l-36 70l432 266q-11 46 -40 83q-101 -63 -270 -167l-195 -120l-40 71l432 262q-57 33 -128 33q-84 0 -184 -53l-36 66q111 73 239 73q145 0 233.5 -88.5t88.5 -217.5q0 -110 -65 -209t-138 -144z" />
    <glyph glyph-name="uni0400" unicode="&#x400;" horiz-adv-x="573" 
d="M429 736l-233 65l29 85l225 -84zM61 0l74 707h410l-8 -81h-309l-24 -231h287l-9 -80h-286l-25 -234h332l-8 -81h-434z" />
    <glyph glyph-name="uni0401" unicode="&#x401;" horiz-adv-x="573" 
d="M191 765l10 106h93l-11 -106h-92zM413 765l10 106h93l-11 -106h-92zM61 0l74 707h410l-8 -81h-309l-24 -231h287l-9 -80h-286l-25 -234h332l-8 -81h-434z" />
    <glyph glyph-name="uni0402" unicode="&#x402;" horiz-adv-x="745" 
d="M407 -220l-49 68q239 177 239 387q0 122 -122 122q-84 0 -169 -44l-33 -313h-101l65 624h-200l9 83h555l-9 -83h-254l-23 -225q106 39 193 39q99 0 146 -54.5t47 -147.5q0 -255 -294 -456z" />
    <glyph glyph-name="uni0403" unicode="&#x403;" horiz-adv-x="500" 
d="M257 737l-19 66l239 83l23 -85zM61 0l74 707h424l-9 -83h-322l-66 -624h-101z" />
    <glyph glyph-name="uni0404" unicode="&#x404;" horiz-adv-x="641" 
d="M380 -10q-150 0 -238.5 83t-88.5 234q0 189 106.5 298t293.5 109q99 0 172 -31l-33 -77q-69 22 -147 22q-116 0 -188.5 -62.5t-92.5 -169.5h366l-9 -82h-363q0 -10 3 -25q8 -102 73.5 -156.5t173.5 -54.5q87 0 155 20l18 -81q-87 -27 -201 -27z" />
    <glyph glyph-name="uni0405" unicode="&#x405;" horiz-adv-x="535" 
d="M214 -12q-51 0 -109 14t-97 35l38 82q101 -43 175 -43q69 0 114 27.5t45 91.5q0 35 -30.5 63.5t-73.5 51t-86.5 49t-74 69.5t-30.5 99q0 92 68 140.5t167 48.5q107 0 190 -43l-35 -76q-76 33 -157 33q-134 0 -134 -97q0 -33 30.5 -61.5t74 -53t87.5 -51.5t74.5 -69.5
t30.5 -94.5q0 -105 -77.5 -160t-189.5 -55z" />
    <glyph glyph-name="uni0406" unicode="&#x406;" horiz-adv-x="287" 
d="M61 0l74 707h101l-74 -707h-101z" />
    <glyph glyph-name="uni0407" unicode="&#x407;" horiz-adv-x="287" 
d="M61 0l74 707h101l-74 -707h-101zM36 765l10 106h93l-11 -106h-92zM258 765l10 106h93l-11 -106h-92z" />
    <glyph glyph-name="uni0408" unicode="&#x408;" horiz-adv-x="288" 
d="M-62 -189l-32 73q91 49 126 105.5t47 161.5l58 556h101l-58 -554q-5 -50 -14 -89t-26.5 -78.5t-43 -69.5t-65.5 -57.5t-93 -47.5z" />
    <glyph glyph-name="uni0409" unicode="&#x409;" horiz-adv-x="982" 
d="M7 -22l-38 93q104 47 142 108q58 97 123 528h391l-28 -264h113q112 0 175.5 -48.5t63.5 -143.5q0 -12 -1 -18q-3 -61 -28 -107t-67 -73t-93.5 -40t-112.5 -13h-197l65 626h-198q-6 -30 -19.5 -102t-19 -97t-16.5 -78t-17.5 -76t-17 -57.5t-20.5 -56.5t-22 -41
q-55 -88 -178 -140zM691 361h-102l-29 -279q4 -1 97 -1q83 0 131.5 37t52.5 113q6 70 -34.5 100t-115.5 30z" />
    <glyph glyph-name="uni040A" unicode="&#x40a;" horiz-adv-x="999" 
d="M61 0l74 707h101l-30 -290h316l31 290h101l-31 -290h110q109 0 171 -46t62 -135q0 -11 -1 -17q-5 -111 -86 -165t-203 -54h-197l35 336h-316l-36 -336h-101zM714 334h-99l-26 -252q4 -1 94 -1q165 0 174 135l1 13q0 105 -144 105z" />
    <glyph glyph-name="uni040B" unicode="&#x40b;" horiz-adv-x="755" 
d="M171 0l66 624h-200l9 83h555l-9 -83h-254l-22 -225q105 42 197 42q194 0 194 -168q0 -11 -2 -37l-25 -236h-102l25 234q2 16 2 22q0 102 -136 102q-79 0 -163 -45l-33 -313h-102z" />
    <glyph glyph-name="uni040C" unicode="&#x40c;" horiz-adv-x="625" 
d="M484 -25l-271 394l1 12l307 326h126l-317 -328l250 -356zM61 0l74 707h101l-74 -707h-101zM291 737l-19 66l239 83l23 -85z" />
    <glyph glyph-name="uni040D" unicode="&#x40d;" horiz-adv-x="766" 
d="M517 736l-233 65l29 85l225 -84zM61 0l75 707h101l-48 -457l-14 -103l72 105l367 455h101l-74 -707h-102l48 457l14 103l-56 -79l-383 -481h-101z" />
    <glyph glyph-name="uni040E" unicode="&#x40e;" horiz-adv-x="577" 
d="M131 -9l-30 88q57 18 90.5 41t60.5 73l16 29h-40l-192 485h113l158 -416l199 416h116l-274 -516q-29 -55 -53.5 -89.5t-52.5 -56t-49 -31t-62 -23.5zM326 751q-116 0 -173 90l57 53q45 -59 125 -59q77 0 137 59l50 -53q-73 -90 -196 -90z" />
    <glyph glyph-name="uni040F" unicode="&#x40f;" horiz-adv-x="731" 
d="M272 -153l16 153h-226l73 707h102l-64 -626h341l64 626h102l-73 -707h-221l-16 -153h-98z" />
    <glyph glyph-name="uni0410" unicode="&#x410;" horiz-adv-x="652" 
d="M-38 0l351 707h142l152 -707h-105l-51 252h-263l-123 -252h-103zM227 330h208l-47 243l-12 78l-34 -79z" />
    <glyph glyph-name="uni0411" unicode="&#x411;" horiz-adv-x="618" 
d="M61 0l74 707h435l-9 -86h-334l-19 -186h117q113 0 179 -47t66 -141q0 -28 -4 -48q-17 -100 -100.5 -149.5t-201.5 -49.5h-203zM307 352h-108l-27 -270q4 -1 101 -1q85 0 135.5 35.5t54.5 110.5q5 68 -37.5 96.5t-118.5 28.5z" />
    <glyph glyph-name="uni0412" unicode="&#x412;" horiz-adv-x="625" 
d="M61 0l74 707h206q212 0 212 -159q0 -57 -29 -104t-80 -64v-3q56 -10 90 -51t34 -98q0 -116 -74.5 -172t-196.5 -56h-236zM172 82h114q85 0 131.5 29t46.5 110q0 30 -12.5 51t-29 31t-45.5 15.5t-47.5 6.5t-49.5 1h-83zM205 402h90q76 0 113.5 30.5t37.5 103.5
q0 54 -37 73.5t-99 19.5h-81z" />
    <glyph glyph-name="uni0413" unicode="&#x413;" horiz-adv-x="520" 
d="M61 0l74 707h424l-9 -83h-322l-66 -624h-101z" />
    <glyph glyph-name="uni0414" unicode="&#x414;" horiz-adv-x="718" 
d="M-42 -153l24 234h62q52 81 99 185q21 52 49 171.5t52 269.5h390l-64 -626h92l-24 -234h-98l16 153h-486l-15 -153h-97zM157 81h310l56 543h-198q-44 -236 -87 -369q-29 -79 -81 -174z" />
    <glyph glyph-name="uni0415" unicode="&#x415;" horiz-adv-x="573" 
d="M61 0l74 707h410l-8 -81h-309l-24 -231h287l-9 -80h-286l-25 -234h332l-8 -81h-434z" />
    <glyph glyph-name="uni0416" unicode="&#x416;" horiz-adv-x="903" 
d="M77 -29l-95 51l300 364l-208 321h115l203 -331l-1 -11zM763 -29l-244 393l1 11l274 332h126l-287 -331l225 -354zM366 0l74 707h101l-74 -707h-101z" />
    <glyph glyph-name="uni0417" unicode="&#x417;" horiz-adv-x="541" 
d="M207 -10q-118 0 -206 49l38 81q86 -43 173 -43q69 0 114.5 30.5t50.5 94.5q8 114 -160 114h-73l9 81h73q67 0 110 32.5t47 89.5q4 54 -27.5 82.5t-92.5 28.5q-57 0 -149 -33l-26 73q92 44 195 44q104 0 156 -49.5t47 -126.5q-2 -38 -16 -69.5t-34.5 -52.5t-37 -33
t-33.5 -20v-2q123 -41 115 -160q-2 -39 -18.5 -75t-47.5 -67.5t-84.5 -50t-122.5 -18.5z" />
    <glyph glyph-name="uni0418" unicode="&#x418;" horiz-adv-x="766" 
d="M61 0l75 707h101l-48 -457l-14 -103l72 105l367 455h101l-74 -707h-102l48 457l14 103l-56 -79l-383 -481h-101z" />
    <glyph glyph-name="uni0419" unicode="&#x419;" horiz-adv-x="766" 
d="M433 751q-116 0 -173 90l57 53q45 -59 125 -59q77 0 137 59l50 -53q-73 -90 -196 -90zM61 0l75 707h101l-48 -457l-14 -103l72 105l367 455h101l-74 -707h-102l48 457l14 103l-56 -79l-383 -481h-101z" />
    <glyph glyph-name="uni041A" unicode="&#x41a;" horiz-adv-x="625" 
d="M484 -25l-271 394l1 12l307 326h126l-317 -328l250 -356zM61 0l74 707h101l-74 -707h-101z" />
    <glyph glyph-name="uni041B" unicode="&#x41b;" horiz-adv-x="676" 
d="M7 -22l-38 93q104 47 142 108q58 97 123 528h391l-73 -707h-102l65 626h-198q-6 -30 -19.5 -102t-19 -97t-16.5 -78t-17.5 -76t-17 -57.5t-20.5 -56.5t-22 -41q-55 -88 -178 -140z" />
    <glyph glyph-name="uni041C" unicode="&#x41c;" horiz-adv-x="913" 
d="M-1 0l237 707h127l49 -638l280 638h126l-2 -707h-99l11 574l-253 -574h-149l-44 576l-183 -576h-100z" />
    <glyph glyph-name="uni041D" unicode="&#x41d;" horiz-adv-x="750" 
d="M61 0l74 707h101l-32 -312h360l33 312h102l-74 -707h-102l34 314h-361l-34 -314h-101z" />
    <glyph glyph-name="uni041E" unicode="&#x41e;" horiz-adv-x="805" 
d="M361 -11q-146 0 -227 84t-81 231q0 187 107 300.5t292 113.5q147 0 228.5 -83.5t81.5 -230.5q0 -189 -107 -302t-294 -113zM373 71q137 0 210.5 92t73.5 234q0 109 -56 173t-163 64q-135 0 -208.5 -90.5t-73.5 -230.5q0 -110 55 -176t162 -66z" />
    <glyph glyph-name="uni041F" unicode="&#x41f;" horiz-adv-x="740" 
d="M61 0l74 708h553l-73 -708h-101l65 622h-351l-66 -622h-101z" />
    <glyph glyph-name="uni0420" unicode="&#x420;" horiz-adv-x="601" 
d="M61 0l75 707h240q98 0 157.5 -50.5t59.5 -146.5q0 -69 -27 -122t-73.5 -83t-103.5 -45t-123 -15h-77l-25 -245h-103zM198 327h77q211 0 211 173q0 126 -140 126h-116z" />
    <glyph glyph-name="uni0421" unicode="&#x421;" horiz-adv-x="636" 
d="M380 -10q-150 0 -238.5 83t-88.5 234q0 189 106.5 298t293.5 109q99 0 172 -31l-33 -77q-69 22 -147 22q-137 0 -212.5 -85t-75.5 -225q0 -117 67.5 -178.5t183.5 -61.5q87 0 155 20l18 -81q-87 -27 -201 -27z" />
    <glyph glyph-name="uni0422" unicode="&#x422;" horiz-adv-x="582" 
d="M207 0l65 624h-237l10 83h575l-9 -83h-237l-65 -624h-102z" />
    <glyph glyph-name="uni0423" unicode="&#x423;" horiz-adv-x="577" 
d="M131 -9l-30 88q57 18 90.5 41t60.5 73l16 29h-40l-192 485h113l158 -416l199 416h116l-274 -516q-29 -55 -53.5 -89.5t-52.5 -56t-49 -31t-62 -23.5z" />
    <glyph glyph-name="uni0424" unicode="&#x424;" horiz-adv-x="792" 
d="M314 0l9 85q-129 0 -206.5 64t-77.5 188q0 151 93.5 236t249.5 88l8 76h101l-8 -76q129 0 206.5 -64t77.5 -190q0 -149 -94.5 -234t-248.5 -88l-9 -85h-101zM331 167l42 412q-104 0 -168 -60t-64 -170q0 -88 51 -135t139 -47zM432 167q105 1 168.5 64t63.5 168
q0 88 -50.5 134t-139.5 46z" />
    <glyph glyph-name="uni0425" unicode="&#x425;" horiz-adv-x="609" 
d="M-30 0l289 371l-168 336h114l121 -259l193 259h112l-261 -335l188 -372h-115l-140 292l-218 -292h-115z" />
    <glyph glyph-name="uni0426" unicode="&#x426;" horiz-adv-x="764" 
d="M586 -153l16 153h-540l73 707h102l-64 -626h341l64 626h102l-66 -626h94l-24 -234h-98z" />
    <glyph glyph-name="uni0427" unicode="&#x427;" horiz-adv-x="642" 
d="M415 0l32 313q-94 -39 -193 -39q-199 0 -199 166q0 24 2 36l24 231h101l-24 -228q-1 -8 -1 -22q0 -102 129 -102q86 0 169 44l33 308h102l-74 -707h-101z" />
    <glyph glyph-name="uni0428" unicode="&#x428;" horiz-adv-x="991" 
d="M62 0l73 707h102l-64 -626h249l65 626h102l-65 -626h249l65 626h102l-73 -707h-805z" />
    <glyph glyph-name="uni0429" unicode="&#x429;" horiz-adv-x="1024" 
d="M846 -153l16 153h-800l73 707h102l-64 -626h249l65 626h102l-65 -626h249l65 626h102l-65 -626h93l-24 -234h-98z" />
    <glyph glyph-name="uni042A" unicode="&#x42a;" horiz-adv-x="698" 
d="M166 0l65 624h-193l8 83h295l-28 -264h112q112 0 176 -49t64 -143q0 -3 -0.5 -9t-0.5 -9q-6 -119 -90 -176t-211 -57h-197zM407 361h-102l-29 -279q4 -1 96 -1q83 0 132 37t53 113q5 69 -35 99.5t-115 30.5z" />
    <glyph glyph-name="uni042B" unicode="&#x42b;" horiz-adv-x="860" 
d="M135 707h101l-28 -264h113q112 0 175.5 -48.5t63.5 -143.5q0 -12 -1 -18q-3 -61 -28 -107t-67 -73t-93.5 -40t-112.5 -13h-197zM634 0l74 707h101l-74 -707h-101zM302 361h-102l-29 -279q4 -1 97 -1q83 0 132 37t53 113v15q0 115 -151 115z" />
    <glyph glyph-name="uni042C" unicode="&#x42c;" horiz-adv-x="594" 
d="M135 707h101l-28 -264h113q112 0 175.5 -48.5t63.5 -143.5q0 -12 -1 -18q-3 -61 -28 -107t-67 -73t-93.5 -40t-112.5 -13h-197zM302 361h-102l-29 -279q4 -1 97 -1q83 0 132 37t53 113v15q0 115 -151 115z" />
    <glyph glyph-name="uni042D" unicode="&#x42d;" horiz-adv-x="653" 
d="M206 -10q-131 0 -196 38l33 77q78 -32 165 -32q113 0 192.5 62t97.5 180h-351l9 81h350q1 123 -63.5 179.5t-169.5 56.5q-95 0 -169 -33l-26 77q90 40 207 40q159 0 243 -79t84 -224q0 -24 -4 -68q-18 -160 -124.5 -257.5t-277.5 -97.5z" />
    <glyph glyph-name="uni042E" unicode="&#x42e;" horiz-adv-x="1075" 
d="M631 -11q-137 0 -216.5 75.5t-88.5 207.5q-3 15 -3 42h-127l-34 -314h-101l74 707h101l-32 -312h127q24 149 127.5 236t264.5 87q147 0 228 -83.5t81 -230.5q0 -189 -107 -302t-294 -113zM643 71q137 0 210.5 92t73.5 234q0 110 -56 173.5t-163 63.5q-134 0 -208 -90.5
t-74 -230.5q0 -110 55 -176t162 -66z" />
    <glyph glyph-name="uni042F" unicode="&#x42f;" horiz-adv-x="646" 
d="M87 -27l-92 47l226 283q-123 40 -123 166q0 111 75.5 174.5t183.5 63.5h237l-72 -707h-102l28 280h-85q-25 0 -36 1zM363 357h93l28 269h-113q-77 0 -121.5 -41.5t-44.5 -109.5q0 -118 158 -118z" />
    <glyph glyph-name="uni0430" unicode="&#x430;" horiz-adv-x="521" 
d="M147 -13q-119 0 -119 168q0 97 39.5 186.5t118 149.5t177.5 60q64 0 109 -8l-56 -543h-98l10 91q-112 -104 -181 -104zM172 77q20 0 56.5 21.5t62 41.5t46.5 39l30 288q-6 1 -27 1q-63 0 -113.5 -47.5t-75.5 -116t-25 -139.5q0 -88 46 -88z" />
    <glyph glyph-name="uni0431" unicode="&#x431;" horiz-adv-x="542" 
d="M219 -9q-77 0 -122 48t-45 129q0 143 37.5 281t97.5 211q49 60 318 111l18 -89q-11 -3 -82 -15.5t-117.5 -27t-70.5 -35.5q-34 -31 -68 -157q110 71 187 71q127 0 127 -169q0 -143 -79.5 -250.5t-200.5 -107.5zM236 73q53 0 91.5 44t55 103t16.5 122q0 53 -15.5 73
t-45.5 20q-60 0 -170 -76q-16 -87 -16 -171q0 -115 84 -115z" />
    <glyph glyph-name="uni0432" unicode="&#x432;" horiz-adv-x="500" 
d="M217 -12q-98 0 -141.5 51t-43.5 126q0 100 32 188.5t99 148t156 59.5q71 0 103.5 -35.5t32.5 -85.5q0 -88 -95 -134q84 -33 84 -122q0 -84 -64.5 -140t-162.5 -56zM219 68q60 0 95 33t35 79q0 69 -73 88l-143 -48q-3 -12 -3 -38q0 -114 89 -114zM141 297l120 42
q54 20 76 41.5t22 47.5q0 25 -16 39t-41 14q-64 0 -105.5 -54t-55.5 -130z" />
    <glyph glyph-name="uni0433" unicode="&#x433;" horiz-adv-x="429" 
d="M158 -10q-62 0 -101 30t-39 90q0 31 12.5 58.5t38 53t47 42.5t56.5 41q84 58 104 80q20 23 20 43q0 48 -55 48q-52 0 -140 -55l-35 72q90 64 200 64q53 0 89 -29.5t36 -87.5q0 -26 -10.5 -51t-23 -42.5t-38 -39.5t-41.5 -33.5t-47 -32.5q-80 -56 -98 -77q-19 -22 -19 -41
q0 -49 57 -49q61 0 166 71l38 -74q-44 -33 -105 -57t-112 -24z" />
    <glyph glyph-name="uni0434" unicode="&#x434;" horiz-adv-x="530" 
d="M213 -12q-78 0 -127.5 54.5t-49.5 141.5q0 84 20.5 149.5t55 104t75.5 58t86 19.5q53 0 117 -44q-8 192 -132 192q-37 0 -110 -19l-12 80q79 25 153 25q91 0 145 -71.5t54 -229.5q0 -51 -6 -105t-24.5 -120t-47 -116.5t-80 -84.5t-117.5 -34zM225 70q64 0 111 90.5
t48 221.5q-19 21 -52.5 35.5t-57.5 14.5q-64 0 -100.5 -57.5t-36.5 -168.5q0 -136 88 -136z" />
    <glyph glyph-name="uni0435" unicode="&#x435;" horiz-adv-x="481" 
d="M178 -12q-139 0 -139 206q0 98 29.5 180t93 134.5t150.5 52.5q74 0 112 -37.5t38 -93.5q0 -101 -155 -155l-167 -60v-23q0 -61 13.5 -90t44.5 -29q64 0 169 56l34 -70q-58 -34 -109 -52.5t-114 -18.5zM149 296l148 58q70 26 70 71q0 28 -17 42t-41 14q-67 0 -106 -52
t-54 -133z" />
    <glyph glyph-name="uni0436" unicode="&#x436;" horiz-adv-x="754" 
d="M86 -10l-106 18l233 288l-160 250h109l154 -264zM295 0l57 546h99l-58 -546h-98zM610 -10l-177 292l205 264h112l-208 -257l172 -281z" />
    <glyph glyph-name="uni0437" unicode="&#x437;" horiz-adv-x="430" 
d="M154 -10q-90 0 -157 28l26 78q66 -22 120 -22q67 0 99.5 25t32.5 62q0 79 -142 85l-8 65q69 15 114 44.5t45 66.5q0 51 -91 51q-59 0 -112 -16l-21 74q59 26 148 26q80 0 127 -29t47 -88q0 -48 -33 -85.5t-86 -60.5q109 -26 109 -129q0 -78 -60 -126.5t-158 -48.5z" />
    <glyph glyph-name="uni0438" unicode="&#x438;" horiz-adv-x="540" 
d="M161 -11q-59 0 -84.5 26t-25.5 89q0 22 3 50l42 392h98l-41 -376q-3 -26 -3 -43q0 -29 9.5 -40.5t31.5 -11.5q65 0 161 87l42 384h97l-58 -546h-97l8 81q-96 -92 -183 -92z" />
    <glyph glyph-name="uni0439" unicode="&#x439;" horiz-adv-x="540" 
d="M279 642q-31 0 -67 29.5t-61 74.5l77 50q48 -73 78 -73q59 0 147 73l35 -42q-50 -50 -107.5 -81t-101.5 -31zM161 -11q-59 0 -84.5 26t-25.5 89q0 22 3 50l42 392h98l-41 -376q-3 -26 -3 -43q0 -29 9.5 -40.5t31.5 -11.5q65 0 161 87l42 384h97l-58 -546h-97l8 81
q-96 -92 -183 -92z" />
    <glyph glyph-name="uni043A" unicode="&#x43a;" horiz-adv-x="501" 
d="M357 -10l-178 295l206 261h112l-208 -257l172 -281zM42 0l57 546h99l-58 -546h-98z" />
    <glyph glyph-name="uni043B" unicode="&#x43b;" horiz-adv-x="478" 
d="M3 0q-3 9 -3 25q0 75 49 175l176 346h152l28 -546h-104l-10 454h-18l-129 -267q-42 -87 -42 -162q0 -19 1 -25h-100z" />
    <glyph glyph-name="uni043C" unicode="&#x43c;" horiz-adv-x="738" 
d="M15 0q-2 6 -2 25q0 74 36 175l125 346h140l33 -420l189 420h152l-57 -546h-98l49 466l-210 -466h-110l-30 465l-87 -278q-30 -92 -30 -162q0 -4 0.5 -13t0.5 -12h-101z" />
    <glyph glyph-name="uni043D" unicode="&#x43d;" horiz-adv-x="543" 
d="M42 0l58 546h98l-25 -227l202 16l23 211h97l-58 -546h-98l26 247l-201 -16l-25 -231h-97z" />
    <glyph glyph-name="uni043E" unicode="&#x43e;" horiz-adv-x="527" 
d="M208 -12q-81 0 -127 56t-46 142q0 168 76.5 270.5t203.5 102.5q82 0 126.5 -56.5t44.5 -136.5q0 -66 -14.5 -128.5t-45 -120.5t-87 -93.5t-131.5 -35.5zM228 71q63 0 110.5 80t47.5 205q0 65 -23 94t-72 29q-63 0 -109 -81t-46 -200q0 -127 92 -127z" />
    <glyph glyph-name="uni043F" unicode="&#x43f;" horiz-adv-x="541" 
d="M42 0l58 546h98l-8 -81q35 29 59.5 46t62 33t71.5 16q55 0 78 -25t23 -82q0 -30 -4 -59l-42 -394h-98l41 374q2 17 2 44q0 26 -8 37.5t-28 11.5q-59 0 -166 -86l-41 -381h-98z" />
    <glyph glyph-name="uni0440" unicode="&#x440;" horiz-adv-x="535" 
d="M18 -220l82 766h97l-6 -65q93 69 173 69q130 0 130 -165q0 -68 -17 -134.5t-51 -126t-93 -96.5t-135 -37q-29 0 -59 5l-23 -216h-98zM204 71q52 0 91 32.5t59.5 82.5t30.5 101t10 98q0 82 -57 82q-53 0 -156 -65l-34 -323q44 -8 56 -8z" />
    <glyph glyph-name="uni0441" unicode="&#x441;" horiz-adv-x="455" 
d="M179 -12q-51 0 -84 29.5t-45.5 71.5t-12.5 96q0 160 74.5 268t202.5 108q83 0 134 -49l-48 -64q-44 31 -89 31q-48 0 -83.5 -28t-53.5 -73t-26.5 -89.5t-8.5 -88.5q0 -59 14.5 -92.5t35.5 -33.5q67 0 174 55l33 -69q-39 -23 -59.5 -34t-66 -24.5t-91.5 -13.5z" />
    <glyph glyph-name="uni0442" unicode="&#x442;" horiz-adv-x="817" 
d="M42 0l58 546h98l-8 -80q33 27 53.5 42t59.5 33.5t71 18.5q51 0 74 -21.5t25 -67.5q112 89 188 89q54 0 76.5 -24.5t22.5 -81.5q0 -31 -4 -60l-42 -394h-98l41 374q3 27 3 45q0 27 -8 37.5t-30 10.5q-51 0 -153 -79l-41 -388h-98l41 374q3 27 3 45q0 27 -8.5 37t-29.5 10
q-51 0 -155 -85l-41 -381h-98z" />
    <glyph glyph-name="uni0443" unicode="&#x443;" horiz-adv-x="496" 
d="M61 -220l109 220h-41l-84 546h105l61 -466l135 279q42 89 42 161q0 10 -2 26h103q2 -12 2 -26q0 -76 -48 -174l-280 -566h-102z" />
    <glyph glyph-name="uni0444" unicode="&#x444;" horiz-adv-x="715" 
d="M253 -220l22 208q-109 1 -173 58.5t-64 153.5q0 166 76 261t221 97l21 196h98l-21 -195q109 -1 173.5 -58.5t64.5 -153.5q0 -166 -76.5 -261t-221.5 -98l-22 -208h-98zM284 71l43 408q-88 0 -138 -71.5t-50 -190.5q0 -145 145 -146zM381 68q88 0 138.5 72t50.5 190
q0 142 -145 147z" />
    <glyph glyph-name="uni0445" unicode="&#x445;" horiz-adv-x="477" 
d="M-31 0l219 287l-119 259h105l79 -178l131 178h105l-197 -260l129 -286h-106l-88 204l-151 -204h-107z" />
    <glyph glyph-name="uni0446" unicode="&#x446;" horiz-adv-x="575" 
d="M418 -137l14 137q-43 0 -62 13.5t-24 40.5q-2 8 -2 27q-102 -92 -183 -92q-59 0 -84.5 26t-25.5 89q0 22 3 50l42 392h98l-41 -376q-3 -30 -3 -49q1 -25 10 -35.5t31 -10.5q57 0 161 87l42 384h97l-43 -408q-2 -18 -2 -25q1 -21 11.5 -28t37.5 -8h39l-23 -214h-93z" />
    <glyph glyph-name="uni0447" unicode="&#x447;" horiz-adv-x="500" 
d="M297 0l28 262q-100 -82 -180 -82q-58 0 -81 22.5t-23 79.5q0 24 5 69l20 195h99l-20 -185q-5 -37 -5 -51q0 -23 9 -32.5t32 -9.5q39 0 152 75l21 203h97l-57 -546h-97z" />
    <glyph glyph-name="uni0448" unicode="&#x448;" horiz-adv-x="781" 
d="M143 -14q-54 0 -76.5 22.5t-22.5 75.5q0 29 6 68l56 394h98l-55 -374q-1 -9 -2 -20.5t-2 -19.5t-1 -13q0 -22 8.5 -31t28.5 -9q10 0 23.5 4.5t24.5 10t27.5 16.5t24 17t23.5 18t18 13l48 388h98l-48 -374q-5 -35 -5 -53q0 -22 8 -30.5t28 -8.5q37 0 143 85l41 381h97
l-57 -546h-98l8 80q-4 -3 -21 -17.5t-26 -21.5t-26.5 -19.5t-31 -19t-31.5 -11.5t-35 -5q-53 0 -74 20.5t-23 68.5q-32 -27 -49.5 -40t-55 -31t-69.5 -18z" />
    <glyph glyph-name="uni0449" unicode="&#x449;" horiz-adv-x="816" 
d="M659 -137l14 137q-42 0 -61 13t-24 39q-3 12 -3 28q-4 -3 -21 -17.5t-26 -21.5t-26.5 -19.5t-31 -19t-31.5 -11.5t-35 -5q-53 0 -74 20.5t-23 68.5q-32 -27 -49.5 -40t-55 -31t-69.5 -18q-54 0 -76.5 22.5t-22.5 75.5q0 29 6 68l56 394h98l-55 -374q-5 -42 -5 -57
q1 -20 9 -28t28 -8q10 0 23.5 4.5t24.5 10t27.5 16.5t24 17t23.5 18t18 13l48 388h98l-48 -374q-5 -43 -5 -59q1 -19 9 -26t27 -7q37 0 143 85l41 381h97l-42 -408q-2 -21 -1 -28q1 -19 11.5 -25.5t37.5 -7.5h38l-23 -214h-94z" />
    <glyph glyph-name="uni044A" unicode="&#x44a;" horiz-adv-x="530" 
d="M241 -10q-63 0 -105 35t-42 111q0 86 34.5 163.5t100.5 164.5h-199l10 82h309l15 -38q-81 -89 -117 -169q79 54 136 54t83.5 -36t26.5 -95q0 -119 -74.5 -195.5t-177.5 -76.5zM261 69q53 0 93.5 48.5t40.5 132.5q0 60 -50 60q-51 0 -132 -59q-19 -57 -19 -107
q0 -75 67 -75z" />
    <glyph glyph-name="uni044B" unicode="&#x44b;" horiz-adv-x="689" 
d="M485 0l57 546h98l-57 -546h-98zM185 -10q-79 0 -153 28l78 528h97l-30 -218q93 65 157 65q56 0 84 -35t28 -96q0 -116 -74.5 -194t-186.5 -78zM199 70q59 0 103.5 47.5t44.5 131.5q0 61 -51 61q-42 0 -131 -61l-26 -170q24 -9 60 -9z" />
    <glyph glyph-name="uni044C" unicode="&#x44c;" horiz-adv-x="481" 
d="M185 -10q-79 0 -153 28l78 528h97l-30 -218q93 65 157 65q56 0 84 -35t28 -96q0 -116 -74.5 -194t-186.5 -78zM199 70q59 0 103.5 47.5t44.5 131.5q0 61 -51 61q-42 0 -131 -61l-26 -170q24 -9 60 -9z" />
    <glyph glyph-name="uni044D" unicode="&#x44d;" horiz-adv-x="444" 
d="M125 -12q-78 0 -130 48l43 69q55 -35 99 -35q55 0 95 47.5t57 125.5h-162l6 71h167q2 11 2 39q0 64 -17.5 94t-63.5 30q-59 0 -133 -31l-26 70q88 45 173 45t126.5 -52.5t41.5 -137.5q0 -73 -17 -140t-49.5 -122t-87.5 -88t-124 -33z" />
    <glyph glyph-name="uni044E" unicode="&#x44e;" horiz-adv-x="754" 
d="M435 -12q-81 0 -127 56t-46 142q0 39 2 53l-100 -8l-25 -231h-97l58 546h98l-25 -227l106 9q28 108 97 169.5t166 61.5q82 0 126.5 -56.5t44.5 -136.5q0 -66 -14.5 -128.5t-45 -120.5t-87 -93.5t-131.5 -35.5zM455 71q63 0 110.5 80t47.5 205q0 65 -23 94t-72 29
q-63 0 -109 -81t-46 -200q0 -127 92 -127z" />
    <glyph glyph-name="uni044F" unicode="&#x44f;" horiz-adv-x="504" 
d="M91 -10l-105 18l181 210q-98 40 -98 133q0 22 4.5 45.5t20.5 53.5t41.5 52.5t73 38t109.5 15.5q81 0 136 -22l-55 -534h-97l50 473q-30 5 -50 5q-58 0 -97 -30t-39 -91q0 -23 11 -41.5t23.5 -29t35.5 -19.5t33.5 -12t30.5 -7z" />
    <glyph glyph-name="uni0450" unicode="&#x450;" horiz-adv-x="481" 
d="M178 -12q-139 0 -139 206q0 98 29.5 180t93 134.5t150.5 52.5q74 0 112 -37.5t38 -93.5q0 -101 -155 -155l-167 -60v-23q0 -61 13.5 -90t44.5 -29q64 0 169 56l34 -70q-58 -34 -109 -52.5t-114 -18.5zM149 296l148 58q70 26 70 71q0 28 -17 42t-41 14q-67 0 -106 -52
t-54 -133zM353 612l-202 114l43 76l193 -129z" />
    <glyph glyph-name="uni0451" unicode="&#x451;" horiz-adv-x="481" 
d="M178 -12q-139 0 -139 206q0 98 29.5 180t93 134.5t150.5 52.5q74 0 112 -37.5t38 -93.5q0 -101 -155 -155l-167 -60v-23q0 -61 13.5 -90t44.5 -29q64 0 169 56l34 -70q-58 -34 -109 -52.5t-114 -18.5zM149 296l148 58q70 26 70 71q0 28 -17 42t-41 14q-67 0 -106 -52
t-54 -133zM157 662l11 108h95l-12 -108h-94zM364 662l11 108h95l-12 -108h-94z" />
    <glyph glyph-name="uni0452" unicode="&#x452;" horiz-adv-x="550" 
d="M282 -220l-66 53q72 86 121 213.5t49 243.5q0 55 -11.5 78.5t-43.5 23.5q-15 0 -39.5 -11.5t-44.5 -24t-44.5 -30t-30.5 -20.5l-32 -306h-98l59 569h-93l8 77h94l11 109h98l-11 -109h187l-7 -77h-188l-19 -179q37 28 55 40.5t64 33.5t82 21q108 0 108 -166
q0 -144 -59 -288t-149 -251z" />
    <glyph glyph-name="uni0453" unicode="&#x453;" horiz-adv-x="429" 
d="M211 613l-34 61l201 133l42 -77zM158 -10q-62 0 -101 30t-39 90q0 31 12.5 58.5t38 53t47 42.5t56.5 41q84 58 104 80q20 23 20 43q0 48 -55 48q-52 0 -140 -55l-35 72q90 64 200 64q53 0 89 -29.5t36 -87.5q0 -26 -10.5 -51t-23 -42.5t-38 -39.5t-41.5 -33.5t-47 -32.5
q-80 -56 -98 -77q-19 -22 -19 -41q0 -49 57 -49q61 0 166 71l38 -74q-44 -33 -105 -57t-112 -24z" />
    <glyph glyph-name="uni0454" unicode="&#x454;" horiz-adv-x="455" 
d="M179 -12q-51 0 -84 29.5t-45.5 71.5t-12.5 96q0 160 74.5 268t202.5 108q83 0 134 -49l-48 -64q-44 31 -89 31q-113 0 -156 -155h184l-9 -74h-188q-3 -27 -3 -50q0 -59 14.5 -92.5t35.5 -33.5q67 0 174 55l33 -69q-39 -23 -59.5 -34t-66 -24.5t-91.5 -13.5z" />
    <glyph glyph-name="uni0455" unicode="&#x455;" horiz-adv-x="427" 
d="M160 -10q-96 0 -159 29l27 80q73 -25 139 -25q25 0 47 4.5t42 21t20 43.5q0 25 -21.5 48t-52.5 43t-62.5 42t-53 54.5t-21.5 71.5q0 81 52.5 118t135.5 37q91 0 151 -30l-27 -75q-70 25 -129 25q-89 0 -89 -65q0 -25 22 -48.5t53 -44t62 -43.5t53 -57t22 -74
q0 -36 -13.5 -64t-34.5 -44.5t-50 -27.5t-56.5 -15t-56.5 -4z" />
    <glyph glyph-name="uni0456" unicode="&#x456;" horiz-adv-x="246" 
d="M42 0l57 546h98l-57 -546h-98zM112 662l11 108h99l-11 -108h-99z" />
    <glyph glyph-name="uni0457" unicode="&#x457;" horiz-adv-x="246" 
d="M9 662l11 108h95l-12 -108h-94zM216 662l11 108h95l-12 -108h-94zM42 0l57 546h98l-57 -546h-98z" />
    <glyph glyph-name="uni0458" unicode="&#x458;" horiz-adv-x="246" 
d="M-69 -220q-50 0 -88 16l24 80q41 -11 71 -11q52 0 74 29.5t29 93.5l58 558h98l-59 -559q-12 -116 -65 -161.5t-142 -45.5zM107 662l11 108h99l-11 -108h-99z" />
    <glyph glyph-name="uni0459" unicode="&#x459;" horiz-adv-x="708" 
d="M420 -10q-56 0 -121 20l-22 448h-9l-123 -271q-43 -93 -43 -162q0 -13 2 -25h-102q-2 6 -2 25q0 75 49 175l168 346h139l20 -236q34 25 55 38.5t58.5 29t69.5 15.5q112 0 112 -131q0 -115 -72.5 -193.5t-178.5 -78.5zM429 70q59 0 101.5 47.5t42.5 131.5q0 61 -51 61
q-47 0 -139 -68l14 -171q9 -1 32 -1z" />
    <glyph glyph-name="uni045A" unicode="&#x45a;" horiz-adv-x="782" 
d="M487 -10q-83 0 -146 26l24 231l-201 -16l-25 -231h-97l58 546h98l-25 -227l202 16l23 211h97l-24 -223q94 70 164 70q56 0 84 -35t28 -96q0 -116 -74 -194t-186 -78zM500 70q60 0 104.5 47.5t44.5 131.5q0 61 -51 61q-42 0 -135 -62l-18 -171q20 -7 55 -7z" />
    <glyph glyph-name="uni045B" unicode="&#x45b;" horiz-adv-x="537" 
d="M42 0l59 569h-93l8 77h94l11 109h98l-11 -109h187l-7 -77h-188l-19 -179q123 95 193 95q57 0 79.5 -22t22.5 -76q0 -25 -5 -68l-34 -319h-98l33 299q5 38 5 55q0 21 -8.5 29.5t-31.5 8.5q-14 0 -40.5 -12t-47.5 -25t-47.5 -30t-29.5 -19l-32 -306h-98z" />
    <glyph glyph-name="uni045C" unicode="&#x45c;" horiz-adv-x="501" 
d="M240 613l-34 61l201 133l42 -77zM357 -10l-178 295l206 261h112l-208 -257l172 -281zM42 0l57 546h99l-58 -546h-98z" />
    <glyph glyph-name="uni045D" unicode="&#x45d;" horiz-adv-x="540" 
d="M161 -11q-59 0 -84.5 26t-25.5 89q0 22 3 50l42 392h98l-41 -376q-3 -26 -3 -43q0 -29 9.5 -40.5t31.5 -11.5q65 0 161 87l42 384h97l-58 -546h-97l8 81q-96 -92 -183 -92zM346 612l-202 114l43 76l193 -129z" />
    <glyph glyph-name="uni045E" unicode="&#x45e;" horiz-adv-x="496" 
d="M61 -220l109 220h-41l-84 546h105l61 -466l135 279q42 89 42 161q0 10 -2 26h103q2 -12 2 -26q0 -76 -48 -174l-280 -566h-102zM256 642q-31 0 -67 29.5t-61 74.5l77 50q48 -73 78 -73q59 0 147 73l35 -42q-50 -50 -107.5 -81t-101.5 -31z" />
    <glyph glyph-name="uni045F" unicode="&#x45f;" horiz-adv-x="540" 
d="M194 -220l47 182h74l-19 -182h-102zM161 -11q-59 0 -84.5 26t-25.5 89q0 22 3 50l42 392h98l-41 -376q-3 -26 -3 -43q0 -29 9.5 -40.5t31.5 -11.5q65 0 161 87l42 384h97l-58 -546h-97l8 81q-96 -92 -183 -92z" />
    <glyph glyph-name="uni0462" unicode="&#x462;" horiz-adv-x="685" 
d="M155 0l55 523h-182l9 86h182l10 98h102l-11 -98h215l-8 -85h-215l-12 -114h90q259 0 259 -188q0 -105 -74.5 -163.5t-202.5 -58.5h-217zM379 326h-88l-26 -241h107q82 0 126.5 36t44.5 96q0 59 -40 84t-124 25z" />
    <glyph glyph-name="uni0463" unicode="&#x463;" horiz-adv-x="783" 
d="M488 -10q-84 0 -147 26l40 358q0 5 1.5 20t1.5 22q0 28 -9 39.5t-30 11.5q-45 0 -164 -86l-41 -381h-98l58 546h98l-8 -81q34 26 53.5 40t63 34.5t76.5 20.5q55 0 78 -25t23 -83q0 -14 -4 -58l-8 -71q96 70 164 70q56 0 84 -35t28 -96q0 -116 -74 -194t-186 -78zM501 70
q60 0 104.5 47.5t44.5 131.5q0 61 -51 61q-44 0 -135 -62l-18 -171q19 -7 55 -7z" />
    <glyph glyph-name="uni0472" unicode="&#x472;" horiz-adv-x="805" 
d="M361 -11q-146 0 -227 84t-81 231q0 187 107 300.5t292 113.5q147 0 228.5 -83.5t81.5 -230.5q0 -189 -107 -302t-294 -113zM373 71q117 0 188 68.5t89 180.5h-494v-7q0 -110 55 -176t162 -66zM438 634q-115 0 -185.5 -66.5t-90.5 -175.5h495v5q0 109 -56 173t-163 64z
" />
    <glyph glyph-name="uni0473" unicode="&#x473;" horiz-adv-x="527" 
d="M208 -12q-81 0 -127 56t-46 142q0 168 76.5 270.5t203.5 102.5q82 0 126.5 -56.5t44.5 -136.5q0 -66 -14.5 -128.5t-45 -120.5t-87 -93.5t-131.5 -35.5zM228 71q47 0 87 46.5t58 125.5h-235q-2 -15 -2 -45q0 -127 92 -127zM291 479q-46 0 -85 -45.5t-57 -120.5h235
q2 28 2 43q0 65 -23 94t-72 29z" />
    <glyph glyph-name="uni0474" unicode="&#x474;" horiz-adv-x="694" 
d="M212 0l-171 707h107l142 -630l227 454q72 149 158 197l65 -63q-73 -42 -132 -158l-259 -507h-137z" />
    <glyph glyph-name="uni0475" unicode="&#x475;" horiz-adv-x="545" 
d="M130 0l-88 546h105l62 -465q139 289 139 290q69 144 154 195l67 -61q-76 -48 -140 -178l-161 -327h-138z" />
    <glyph glyph-name="uni048A" unicode="&#x48a;" horiz-adv-x="804" 
d="M550 109l37 348l14 103l-56 -79l-383 -481h-101l75 707h101l-48 -457l-14 -103l72 105l367 455h101l-60 -576q-3 -30 12 -40.5t44 -10.5h61l-115 -233h-106l80 152q-91 11 -81 110zM430 751q-116 0 -173 90l57 53q45 -59 125 -59q77 0 137 59l50 -53q-73 -90 -196 -90z
" />
    <glyph glyph-name="uni048B" unicode="&#x48b;" horiz-adv-x="540" 
d="M162 -11q-59 0 -84.5 25.5t-25.5 89.5q0 22 3 50l41 392h99l-42 -376q-2 -17 -2 -43q0 -29 9.5 -40.5t31.5 -11.5q65 0 161 87l41 384h98l-58 -546q-61 -28 -61 -71q0 -35 55 -35l-8 -77q-62 0 -99 25t-37 69q0 59 54 110l7 60q-98 -92 -183 -92zM281 642q-31 0 -67 29.5
t-61 74.5l77 50q48 -73 78 -73q59 0 147 73l35 -42q-50 -50 -107.5 -81t-101.5 -31z" />
    <glyph glyph-name="uni048C" unicode="&#x48c;" horiz-adv-x="625" 
d="M164 707h101l-10 -95h153l-9 -80h-152l-10 -89h113q112 0 175.5 -48.5t63.5 -143.5q0 -12 -1 -18q-3 -61 -28 -107t-67 -73t-93.5 -40t-112.5 -13h-197l55 532h-81l9 80h81zM331 361h-102l-29 -279q4 -1 97 -1q83 0 132 37t53 113v15q0 115 -151 115z" />
    <glyph glyph-name="uni048D" unicode="&#x48d;" horiz-adv-x="507" 
d="M42 423l6 64h78l9 59h97l-8 -59h93l-7 -64h-95l-13 -95q93 65 157 65q56 0 84 -35t28 -96q0 -116 -74.5 -194t-186.5 -78q-80 0 -153 28l60 405h-75zM224 70q59 0 103.5 47.5t44.5 131.5q0 61 -51 61q-42 0 -131 -61l-26 -170q24 -9 60 -9z" />
    <glyph glyph-name="uni048E" unicode="&#x48e;" horiz-adv-x="615" 
d="M61 0l75 707h240q98 0 157.5 -50.5t59.5 -146.5q0 -129 -93 -200l52 -58l-58 -53l-65 73q-70 -27 -163 -27h-77l-25 -245h-103zM332 382l59 52l50 -57q45 43 45 123q0 126 -140 126h-116l-32 -299h77q57 0 95 11z" />
    <glyph glyph-name="uni048F" unicode="&#x48f;" horiz-adv-x="540" 
d="M18 -220l82 766h97l-6 -65q93 69 173 69q130 0 130 -165q0 -87 -27.5 -172.5t-81.5 -142.5l47 -45l-48 -51l-55 52q-59 -35 -131 -35q-29 0 -59 5l-23 -216h-98zM233 118l51 51l38 -38q37 47 55 118t18 136q0 82 -57 82q-53 0 -156 -65l-34 -323q44 -8 56 -8q33 0 63 14z
" />
    <glyph glyph-name="uni0490" unicode="&#x490;" horiz-adv-x="521" 
d="M61 0l74 707h328l16 161h97l-26 -244h-322l-66 -624h-101z" />
    <glyph glyph-name="uni0491" unicode="&#x491;" horiz-adv-x="409" 
d="M42 0l58 546h233l12 114h92l-19 -195h-229l-49 -465h-98z" />
    <glyph glyph-name="uni0492" unicode="&#x492;" horiz-adv-x="555" 
d="M48 308l10 80h69l34 319h424l-9 -83h-322l-25 -236h191l-10 -80h-190l-32 -308h-101l32 308h-71z" />
    <glyph glyph-name="uni0493" unicode="&#x493;" horiz-adv-x="446" 
d="M44 243l8 69h141q31 21 44.5 31t33.5 27t28 30.5t8 27.5q0 48 -55 48q-52 0 -140 -55l-35 72q90 64 200 64q53 0 89 -29.5t36 -87.5q0 -67 -66 -128h47l-8 -69h-130q-2 -2 -3 -2q-80 -56 -98 -77q-19 -22 -19 -41q0 -49 57 -49q61 0 166 71l38 -74q-44 -33 -105 -57
t-112 -24q-62 0 -101 30t-39 90q0 68 72 133h-57z" />
    <glyph glyph-name="uni0494" unicode="&#x494;" horiz-adv-x="635" 
d="M296 -220l-49 68q81 60 127 112q112 128 112 269q0 122 -122 122q-83 0 -169 -43l-33 -308h-100l73 707h378l-9 -83h-277l-23 -230q111 39 193 39q99 0 146 -55t47 -148q0 -251 -294 -450z" />
    <glyph glyph-name="uni0495" unicode="&#x495;" horiz-adv-x="523" 
d="M42 0l58 546h326l-8 -82h-229l-19 -180q107 91 193 91q110 0 110 -182q0 -226 -210 -418l-54 60q159 157 159 342q0 59 -12 86t-42 27q-27 0 -74.5 -27.5t-76.5 -52.5l-23 -210h-98z" />
    <glyph glyph-name="uni0496" unicode="&#x496;" horiz-adv-x="937" 
d="M77 -29l-95 51l300 364l-207 321h114l203 -331l-1 -11zM366 0l74 707h101l-73 -707h-102zM908 80l-30 -233h-102l19 148q-48 3 -84 64l-192 305l1 11l274 332h126l-286 -331l167 -254q15 -22 27 -32t33 -10h47z" />
    <glyph glyph-name="uni0497" unicode="&#x497;" horiz-adv-x="780" 
d="M86 -10l-106 18l233 288l-160 250h109l154 -264zM295 0l57 546h99l-58 -546h-98zM542 289l111 -179q19 -33 57 -33h35l-23 -214h-94l14 137q-39 0 -78 66l-131 216l205 264h112z" />
    <glyph glyph-name="uni0498" unicode="&#x498;" horiz-adv-x="541" 
d="M207 -10q-118 0 -206 49l38 81q86 -43 173 -43q69 0 114.5 30.5t50.5 94.5q8 114 -160 114h-73l9 81h73q67 0 110 32.5t47 89.5q4 54 -27.5 82.5t-92.5 28.5q-57 0 -149 -33l-26 73q92 44 195 44q104 0 156 -49.5t47 -126.5q-2 -38 -16 -69.5t-34.5 -52.5t-37 -33
t-33.5 -20v-2q123 -41 115 -160q-2 -39 -18.5 -75t-47.5 -67.5t-84.5 -50t-122.5 -18.5zM151 -249l-27 57q66 37 70 75q2 22 -13 66h87q17 -36 13 -70q-8 -79 -130 -128z" />
    <glyph glyph-name="uni0499" unicode="&#x499;" horiz-adv-x="430" 
d="M154 -10q-90 0 -157 28l26 78q66 -22 120 -22q67 0 99.5 25t32.5 62q0 79 -142 85l-8 65q69 15 114 44.5t45 66.5q0 51 -91 51q-59 0 -112 -16l-21 74q59 26 148 26q80 0 127 -29t47 -88q0 -48 -33 -85.5t-86 -60.5q109 -26 109 -129q0 -78 -60 -126.5t-158 -48.5z
M98 -249l-27 57q66 37 70 75q2 22 -13 66h87q17 -36 13 -70q-8 -79 -130 -128z" />
    <glyph glyph-name="uni049A" unicode="&#x49a;" horiz-adv-x="649" 
d="M505 -5q-40 3 -82 67l-210 307l1 12l307 326h126l-317 -328l181 -257q15 -22 27.5 -32t32.5 -10h47l-30 -233h-102zM61 0l74 707h101l-74 -707h-101z" />
    <glyph glyph-name="uni049B" unicode="&#x49b;" horiz-adv-x="519" 
d="M377 0q-39 0 -78 66l-120 219l206 261h112l-208 -257l99 -179q21 -33 58 -33h34l-23 -214h-94zM42 0l57 546h99l-58 -546h-98z" />
    <glyph glyph-name="uni049C" unicode="&#x49c;" horiz-adv-x="643" 
d="M498 -29l-195 398l1 12l227 326h126l-253 -328l188 -359zM61 0l74 707h101l-74 -707h-101zM226 277l19 183h55l-19 -183h-55z" />
    <glyph glyph-name="uni049D" unicode="&#x49d;" horiz-adv-x="542" 
d="M389 -10l-125 295l164 261h111l-175 -257l123 -281zM42 0l57 546h99l-58 -546h-98zM189 188l21 187h55l-21 -187h-55z" />
    <glyph glyph-name="uni049E" unicode="&#x49e;" horiz-adv-x="650" 
d="M509 -25l-271 394l1 12l307 326h126l-317 -328l250 -356zM59 538l9 77h82l10 92h101l-10 -92h97l-9 -77h-96l-56 -538h-101l56 538h-83z" />
    <glyph glyph-name="uni049F" unicode="&#x49f;" horiz-adv-x="521" 
d="M45 549l6 64h76l15 141h98l-15 -141h86l-6 -64h-87l-58 -549h-97l57 549h-75zM380 -10l-181 295l199 261h111l-200 -255l174 -283z" />
    <glyph glyph-name="uni04A0" unicode="&#x4a0;" horiz-adv-x="710" 
d="M568 -25l-271 394l1 12l307 326h126l-317 -328l250 -356zM30 624l9 83h281l-74 -707h-101l65 624h-180z" />
    <glyph glyph-name="uni04A1" unicode="&#x4a1;" horiz-adv-x="597" 
d="M14 464l9 82h271l-58 -546h-98l48 464h-172zM454 -10l-179 295l206 261h112l-208 -257l172 -281z" />
    <glyph glyph-name="uni04A2" unicode="&#x4a2;" horiz-adv-x="787" 
d="M536 106l21 208h-361l-34 -314h-101l74 707h101l-32 -312h360l33 313h102l-62 -581q-3 -29 13 -38t45 -9h47l-30 -233h-102l19 148q-42 0 -70.5 28.5t-22.5 82.5z" />
    <glyph glyph-name="uni04A3" unicode="&#x4a3;" horiz-adv-x="578" 
d="M495 546l-45 -427q-3 -25 9 -33.5t42 -8.5h34l-23 -214h-94l14 137q-36 0 -62 22.5t-22 61.5l17 163l-201 -16l-25 -231h-97l58 546h98l-25 -227l202 16l23 211h97z" />
    <glyph glyph-name="uni04A4" unicode="&#x4a4;" horiz-adv-x="852" 
d="M61 0l74 707h101l-32 -312h360l33 312h23v1h281l-8 -84h-203l-65 -624h-102l34 314h-361l-34 -314h-101z" />
    <glyph glyph-name="uni04A5" unicode="&#x4a5;" horiz-adv-x="630" 
d="M42 0l58 546h98l-25 -227l202 16l23 211h256l-9 -82h-159l-49 -464h-98l26 247l-201 -16l-25 -231h-97z" />
    <glyph glyph-name="uni04A6" unicode="&#x4a6;" horiz-adv-x="778" 
d="M688 708l-60 -581q-3 -29 13 -38t45 -9h47l-30 -233h-103l19 148q-41 0 -70.5 28.5t-23.5 82.5l54 516h-351l-66 -622h-101l74 708h553z" />
    <glyph glyph-name="uni04A7" unicode="&#x4a7;" horiz-adv-x="575" 
d="M418 -137l14 137q-43 0 -62 13.5t-24 40.5q-2 8 -2 27q-102 -92 -183 -92q-59 0 -84.5 26t-25.5 89q0 22 3 50l42 392h98l-41 -376q-3 -30 -3 -49q1 -25 10 -35.5t31 -10.5q57 0 161 87l42 384h97l-43 -408q-2 -18 -2 -25q1 -21 11.5 -28t37.5 -8h39l-23 -214h-93z
M289 642q-31 0 -67 29.5t-61 74.5l77 50q48 -73 78 -73q59 0 147 73l35 -42q-50 -50 -107.5 -81t-101.5 -31z" />
    <glyph glyph-name="uni04A8" unicode="&#x4a8;" horiz-adv-x="782" 
d="M748 295q0 -107 -69 -188t-192 -107q60 -71 155 -71q48 0 110 16l8 -78q-61 -21 -134 -21q-83 0 -148.5 38t-105.5 105q-148 2 -233 84t-85 234q0 194 109 301.5t301 107.5q111 0 194 -37l-35 -79q-74 31 -174 31q-136 0 -213.5 -86t-77.5 -223q0 -102 45 -163.5
t130 -78.5q-15 55 -15 119q0 126 63 202t184 76q87 0 135 -51.5t48 -130.5zM421 212q0 -76 22 -135q107 12 156.5 73t50.5 139q1 52 -29.5 80t-71.5 28q-67 0 -97.5 -52t-30.5 -133z" />
    <glyph glyph-name="uni04A9" unicode="&#x4a9;" horiz-adv-x="533" 
d="M224 -12q-89 0 -138.5 54t-49.5 145q0 99 28.5 181.5t92.5 137.5t154 55q89 0 144 -39l-43 -71q-52 28 -105 28q-81 0 -125 -82t-44 -191t67 -132q-3 24 -3 52q0 104 39.5 173.5t119.5 69.5q60 0 94 -34.5t34 -93.5q0 -89 -45 -150t-120 -87q37 -40 100 -40q39 0 82 12
l22 -73q-62 -20 -121 -20q-125 0 -177 105h-6zM284 136q0 -37 7 -64q56 12 85 55.5t29 106.5q0 36 -12.5 51t-37.5 15q-30 0 -50.5 -38t-20.5 -126z" />
    <glyph glyph-name="uni04AA" unicode="&#x4aa;" horiz-adv-x="636" 
d="M380 -10q-150 0 -238.5 83t-88.5 234q0 189 106.5 298t293.5 109q99 0 172 -31l-33 -77q-69 22 -147 22q-137 0 -212.5 -85t-75.5 -225q0 -117 67.5 -178.5t183.5 -61.5q87 0 155 20l18 -81q-87 -27 -201 -27zM315 -249l-27 57q66 37 70 75q2 22 -13 66h87q17 -36 13 -70
q-8 -79 -130 -128z" />
    <glyph glyph-name="uni04AB" unicode="&#x4ab;" horiz-adv-x="455" 
d="M179 -12q-51 0 -84 29.5t-45.5 71.5t-12.5 96q0 160 74.5 268t202.5 108q83 0 134 -49l-48 -64q-44 31 -89 31q-48 0 -83.5 -28t-53.5 -73t-26.5 -89.5t-8.5 -88.5q0 -59 14.5 -92.5t35.5 -33.5q67 0 174 55l33 -69q-39 -23 -59.5 -34t-66 -24.5t-91.5 -13.5zM136 -249
l-27 57q66 37 70 75q2 22 -13 66h87q17 -36 13 -70q-8 -79 -130 -128z" />
    <glyph glyph-name="uni04AC" unicode="&#x4ac;" horiz-adv-x="588" 
d="M217 106l55 518h-237l9 83h575l-9 -83h-237l-52 -497q-3 -29 13 -38t45 -9h47l-30 -233h-103l19 148q-42 0 -71.5 28.5t-23.5 82.5z" />
    <glyph glyph-name="uni04AD" unicode="&#x4ad;" horiz-adv-x="852" 
d="M625 84l32 290q3 27 3 45q0 27 -8 37.5t-30 10.5q-51 0 -153 -79l-41 -388h-98l41 374q3 27 3 45q0 27 -8.5 37t-29.5 10q-51 0 -155 -85l-41 -381h-98l58 546h98l-8 -80q33 27 53.5 42t59.5 33.5t71 18.5q51 0 74 -21.5t25 -67.5q112 89 188 89q54 0 76.5 -24.5
t22.5 -81.5q0 -31 -4 -60l-29 -275q-3 -25 9 -33.5t42 -8.5h34l-22 -214h-94l14 137q-36 0 -62.5 22.5t-22.5 61.5z" />
    <glyph glyph-name="uni04AE" unicode="&#x4ae;" horiz-adv-x="567" 
d="M192 0l27 262l-190 445h114l139 -358l227 358h111l-300 -442l-27 -265h-101z" />
    <glyph glyph-name="uni04AF" unicode="&#x4af;" horiz-adv-x="481" 
d="M117 -220l26 228l-110 538h106l74 -417l121 230q42 93 42 161q0 10 -2 26h102q2 -6 2 -26q0 -76 -48 -174l-190 -338l-25 -228h-98z" />
    <glyph glyph-name="uni04B0" unicode="&#x4b0;" horiz-adv-x="590" 
d="M92 205l10 85h117l-178 417h114l139 -358l227 358h111l-283 -417h125l-10 -85h-138l-21 -205h-101l21 205h-133z" />
    <glyph glyph-name="uni04B1" unicode="&#x4b1;" horiz-adv-x="505" 
d="M45 0l8 83h87l-94 463h106l74 -417l121 230q42 93 42 161q0 10 -2 26h102q2 -6 2 -26q0 -76 -48 -174l-148 -263h102l-8 -83h-137l-24 -220h-98l25 220h-110z" />
    <glyph glyph-name="uni04B2" unicode="&#x4b2;" horiz-adv-x="639" 
d="M412 67l-108 225l-218 -292h-116l290 371l-169 336h114l122 -259l192 259h113l-261 -335l122 -243q14 -27 28 -38t36 -11h47l-30 -233h-103l20 148q-46 3 -79 72z" />
    <glyph glyph-name="uni04B3" unicode="&#x4b3;" horiz-adv-x="500" 
d="M292 286l73 -164q11 -25 22.5 -35t33.5 -10h34l-22 -214h-94l14 137q-25 0 -39.5 18t-34.5 63l-52 123l-151 -204h-108l220 287l-119 259h105l79 -178l131 178h105z" />
    <glyph glyph-name="uni04B4" unicode="&#x4b4;" horiz-adv-x="909" 
d="M593 624h-219l-56 -543h341l64 626h102l-65 -626h93l-24 -234h-98l16 153h-540l64 624h-236l10 83h557z" />
    <glyph glyph-name="uni04B5" unicode="&#x4b5;" horiz-adv-x="656" 
d="M17 463l9 83h249l-41 -376q-3 -30 -3 -49q1 -25 10 -35.5t31 -10.5q55 0 162 87l41 384h98l-44 -408q-1 -9 -1 -25q0 -21 10.5 -28t37.5 -8h39l-22 -214h-94l14 137q-43 0 -62 13.5t-24 40.5q-2 17 -1 27q-102 -92 -183 -92q-59 0 -85 25.5t-26 89.5q0 22 3 50l33 309
h-151z" />
    <glyph glyph-name="uni04B6" unicode="&#x4b6;" horiz-adv-x="680" 
d="M425 106l22 207q-94 -39 -193 -39q-199 0 -199 166q0 24 2 36l24 231h101l-24 -228q-1 -8 -1 -22q0 -102 129 -102q86 0 169 44l33 308h102l-61 -580q-3 -29 13 -38t45 -9h47l-30 -233h-103l20 148q-42 0 -72 28.5t-24 82.5z" />
    <glyph glyph-name="uni04B7" unicode="&#x4b7;" horiz-adv-x="535" 
d="M451 546l-44 -424q-2 -25 10 -35t41 -10h34l-22 -214h-94l14 137q-35 0 -61 24t-22 64l18 174q-100 -82 -180 -82q-58 0 -81 22.5t-23 79.5q0 24 5 69l20 195h99l-20 -185q-5 -37 -5 -51q0 -23 9 -32.5t32 -9.5q39 0 152 75l21 203h97z" />
    <glyph glyph-name="uni04B8" unicode="&#x4b8;" horiz-adv-x="642" 
d="M415 0l32 313q-53 -22 -123 -34l-8 -72h-72l7 67q-196 1 -196 166q0 24 2 36l24 231h101l-24 -228q-1 -8 -1 -22q0 -93 103 -101l8 71h72l-8 -69q65 10 123 41l33 308h102l-74 -707h-101z" />
    <glyph glyph-name="uni04B9" unicode="&#x4b9;" horiz-adv-x="500" 
d="M297 0l28 262q-45 -36 -78 -53l-7 -67h-55l4 44q-21 -6 -44 -6q-58 0 -81 22.5t-23 79.5q0 24 5 69l20 195h99l-20 -185q-5 -37 -5 -51q0 -23 9 -32.5t32 -9.5q5 0 17 2l8 71h55l-5 -46q41 23 77 48l21 203h97l-57 -546h-97z" />
    <glyph glyph-name="uni04BA" unicode="&#x4ba;" horiz-adv-x="643" 
d="M61 0l75 707h101l-32 -308q107 42 198 42q194 0 194 -168q0 -11 -2 -37l-26 -236h-101l25 234q1 8 1 22q0 102 -135 102q-79 0 -163 -45l-34 -313h-101z" />
    <glyph glyph-name="uni04BB" unicode="&#x4bb;" horiz-adv-x="540" 
d="M42 0l79 754h99l-31 -289q37 30 60.5 46.5t61 32.5t71.5 16q56 0 78.5 -24.5t22.5 -82.5q0 -30 -4 -59l-42 -394h-98l41 374q3 28 3 48q0 24 -8.5 34.5t-28.5 10.5q-57 0 -166 -86l-40 -381h-98z" />
    <glyph glyph-name="uni04BC" unicode="&#x4bc;" horiz-adv-x="936" 
d="M611 717q141 0 216 -79.5t75 -214.5q0 -20 -9 -107h-565q6 -244 233 -244q128 0 249 57l29 -70q-129 -71 -302 -71q-145 0 -228.5 84.5t-83.5 227.5v16h-9q-90 1 -135 38t-45 100t44 138h80q-38 -64 -38 -116q0 -38 22.5 -58.5t76.5 -21.5q0 -1 11 -1q25 147 123 234.5
t256 87.5zM599 634q-220 0 -262 -239h463q0 5 0.5 12.5t0.5 11.5q-2 100 -50 157.5t-152 57.5z" />
    <glyph glyph-name="uni04BD" unicode="&#x4bd;" horiz-adv-x="604" 
d="M301 -12q-139 0 -139 206v8q-19 -3 -37 -3q-99 0 -99 108q0 56 27 124h77q-24 -77 -24 -107q0 -52 42 -52q12 0 19 1q17 126 86 207t182 81q74 0 112 -37.5t38 -93.5q0 -101 -155 -155l-167 -60q-1 -5 -1 -23q0 -61 13.5 -90t45.5 -29q64 0 169 56l34 -70
q-58 -34 -109 -52.5t-114 -18.5zM271 296l149 58q70 26 70 71q0 28 -17 42t-41 14q-124 0 -161 -185z" />
    <glyph glyph-name="uni04BE" unicode="&#x4be;" horiz-adv-x="937" 
d="M611 717q141 0 216 -79.5t75 -214.5q0 -20 -9 -107h-565q6 -244 233 -244q128 0 249 57l29 -70q-69 -38 -154 -56q-119 -68 -119 -120q0 -43 47 -43q26 0 57 12l13 -67q-48 -18 -93 -18q-52 0 -82.5 26t-30.5 74q0 62 73 121h-13q-145 0 -228.5 84.5t-83.5 227.5v16h-9
q-90 1 -135 38t-45 100t44 138h80q-38 -64 -38 -116q0 -38 22.5 -58.5t76.5 -21.5q0 -1 11 -1q25 147 123 234.5t256 87.5zM599 634q-220 0 -262 -239h463q0 5 0.5 12.5t0.5 11.5q-2 100 -50 157.5t-152 57.5z" />
    <glyph glyph-name="uni04BF" unicode="&#x4bf;" horiz-adv-x="605" 
d="M383 -148l13 -67q-48 -18 -93 -18q-52 0 -82.5 26t-30.5 74q0 64 77 125q-105 22 -105 202v8q-19 -3 -37 -3q-99 0 -99 108q0 56 27 124h77q-24 -77 -24 -107q0 -52 42 -52q12 0 19 1q17 126 86 207t182 81q74 0 112 -37.5t38 -93.5q0 -101 -155 -155l-167 -60
q-1 -5 -1 -23q0 -61 13.5 -90t45.5 -29q64 0 169 56l34 -70q-79 -46 -132 -59q-113 -68 -113 -117q0 -43 47 -43q26 0 57 12zM271 296l149 58q70 26 70 71q0 28 -17 42t-41 14q-124 0 -161 -185z" />
    <glyph glyph-name="uni04C0" unicode="&#x4c0;" horiz-adv-x="287" 
d="M61 0l74 707h101l-74 -707h-101z" />
    <glyph glyph-name="uni04C1" unicode="&#x4c1;" horiz-adv-x="903" 
d="M77 -29l-95 51l300 364l-208 321h115l203 -331l-1 -11zM763 -29l-244 393l1 11l274 332h126l-287 -331l225 -354zM366 0l74 707h101l-74 -707h-101zM494 751q-116 0 -173 90l57 53q45 -59 125 -59q77 0 137 59l50 -53q-73 -90 -196 -90z" />
    <glyph glyph-name="uni04C2" unicode="&#x4c2;" horiz-adv-x="754" 
d="M86 -10l-106 18l233 288l-160 250h109l154 -264zM295 0l57 546h99l-58 -546h-98zM610 -10l-177 292l205 264h112l-208 -257l172 -281zM385 642q-31 0 -67 29.5t-61 74.5l77 50q48 -73 78 -73q59 0 147 73l35 -42q-50 -50 -107.5 -81t-101.5 -31z" />
    <glyph glyph-name="uni04C3" unicode="&#x4c3;" horiz-adv-x="642" 
d="M649 707l-306 -311q107 -14 168.5 -72t61.5 -148q0 -116 -69.5 -214t-193.5 -189l-50 69q203 160 203 321q0 73 -58.5 116t-178.5 47l7 77l284 304h132zM61 0l74 707h101l-74 -707h-101z" />
    <glyph glyph-name="uni04C4" unicode="&#x4c4;" horiz-adv-x="532" 
d="M497 546l-195 -238q42 5 47 5q127 0 127 -157q0 -91 -73.5 -200.5t-169.5 -179.5l-49 62q78 65 132.5 147.5t54.5 155.5q0 61 -18.5 83.5t-55.5 22.5q-45 0 -91 -13l-14 56l193 256h112zM42 0l57 546h99l-58 -546h-98z" />
    <glyph glyph-name="uni04C5" unicode="&#x4c5;" horiz-adv-x="714" 
d="M461 109l54 517h-198q-6 -30 -19.5 -102t-19 -97t-16.5 -78t-17.5 -76t-17 -57.5t-20.5 -56.5t-22 -41q-55 -88 -178 -140l-38 93q104 47 142 108q58 97 123 528h391l-59 -576q-3 -30 12 -40.5t44 -10.5h61l-115 -233h-106l80 152q-90 11 -81 110z" />
    <glyph glyph-name="uni04C6" unicode="&#x4c6;" horiz-adv-x="478" 
d="M377 546l28 -546q-61 -28 -61 -71q0 -35 55 -35l-8 -77q-63 0 -100.5 25t-37.5 69q0 56 53 106l-15 437h-18l-129 -267q-42 -87 -42 -162q0 -19 1 -25h-100q-3 9 -3 25q0 75 49 175l176 346h152z" />
    <glyph glyph-name="uni04C7" unicode="&#x4c7;" horiz-adv-x="748" 
d="M699 708l-59 -555q-6 -62 -18 -107.5t-37.5 -91t-71.5 -81t-114 -62.5l-33 74q91 47 127 106t46 161l18 162h-361l-34 -314h-101l74 707h101l-32 -312h360l33 313h102z" />
    <glyph glyph-name="uni04C8" unicode="&#x4c8;" horiz-adv-x="543" 
d="M436 -12q-13 -117 -66 -162.5t-142 -45.5q-50 0 -88 16l24 80q41 -11 71 -11q52 0 74 29.5t29 93.5l27 259l-201 -16l-25 -231h-97l58 546h98l-25 -227l202 16l23 211h97z" />
    <glyph glyph-name="uni04C9" unicode="&#x4c9;" horiz-adv-x="788" 
d="M699 708l-60 -577q-3 -30 12.5 -40.5t44.5 -10.5h61l-115 -233h-106l80 152q-91 11 -81 110l22 205h-361l-34 -314h-101l74 707h101l-32 -312h360l33 313h102z" />
    <glyph glyph-name="uni04CA" unicode="&#x4ca;" horiz-adv-x="543" 
d="M341 21l24 226l-201 -16l-25 -231h-97l58 546h98l-25 -227l202 16l23 211h97l-58 -546q-61 -28 -61 -71q0 -35 55 -35l-8 -77q-63 0 -100.5 25t-37.5 69q0 57 56 110z" />
    <glyph glyph-name="uni04CB" unicode="&#x4cb;" horiz-adv-x="640" 
d="M313 81h67q45 0 49 45l20 187q-96 -39 -194 -39q-199 0 -199 166q0 12 2 36l24 231h101l-23 -228q-2 -16 -2 -22q0 -102 130 -102q84 0 169 44l32 308h102l-62 -601q-4 -41 -32.5 -73.5t-73.5 -32.5h-17l-16 -153h-102z" />
    <glyph glyph-name="uni04CC" unicode="&#x4cc;" horiz-adv-x="500" 
d="M151 -140l35 140h71l-19 -140h-87zM297 0l28 262q-100 -82 -180 -82q-58 0 -81 22.5t-23 79.5q0 24 5 69l20 195h99l-20 -185q-5 -37 -5 -51q0 -23 9 -32.5t32 -9.5q39 0 152 75l21 203h97l-57 -546h-97z" />
    <glyph glyph-name="uni04CD" unicode="&#x4cd;" horiz-adv-x="955" 
d="M717 109l11 465l-253 -574h-149l-44 576l-183 -576h-100l237 707h127l49 -638l280 638h126l-3 -576q0 -51 57 -51h61l-115 -233h-106l80 152q-75 12 -75 110z" />
    <glyph glyph-name="uni04CE" unicode="&#x4ce;" horiz-adv-x="772" 
d="M542 84l40 382l-210 -466h-110l-30 465l-87 -278q-30 -92 -30 -162q0 -4 0.5 -13t0.5 -12h-101q-2 6 -2 25q0 74 36 175l125 346h140l33 -420l189 420h152l-44 -427q-3 -25 9 -33.5t42 -8.5h34l-22 -214h-94l14 137q-36 0 -62.5 22.5t-22.5 61.5z" />
    <glyph glyph-name="uni04CF" unicode="&#x4cf;" horiz-adv-x="246" 
d="M42 0l79 754h98l-80 -754h-97z" />
    <glyph glyph-name="uni04D0" unicode="&#x4d0;" horiz-adv-x="652" 
d="M-38 0l351 707h142l152 -707h-105l-51 252h-263l-123 -252h-103zM227 330h208l-47 243l-12 78l-34 -79zM381 751q-116 0 -173 90l57 53q45 -59 125 -59q77 0 137 59l50 -53q-73 -90 -196 -90z" />
    <glyph glyph-name="uni04D1" unicode="&#x4d1;" horiz-adv-x="521" 
d="M147 -13q-119 0 -119 168q0 97 39.5 186.5t118 149.5t177.5 60q64 0 109 -8l-56 -543h-98l10 91q-112 -104 -181 -104zM172 77q20 0 56.5 21.5t62 41.5t46.5 39l30 288q-6 1 -27 1q-63 0 -113.5 -47.5t-75.5 -116t-25 -139.5q0 -88 46 -88zM319 642q-31 0 -67 29.5
t-61 74.5l77 50q48 -73 78 -73q59 0 147 73l35 -42q-50 -50 -107.5 -81t-101.5 -31z" />
    <glyph glyph-name="uni04D2" unicode="&#x4d2;" horiz-adv-x="652" 
d="M-38 0l351 707h142l152 -707h-105l-51 252h-263l-123 -252h-103zM227 330h208l-47 243l-12 78l-34 -79zM234 765l10 106h93l-11 -106h-92zM456 765l10 106h93l-11 -106h-92z" />
    <glyph glyph-name="uni04D3" unicode="&#x4d3;" horiz-adv-x="521" 
d="M147 -13q-119 0 -119 168q0 97 39.5 186.5t118 149.5t177.5 60q64 0 109 -8l-56 -543h-98l10 91q-112 -104 -181 -104zM172 77q20 0 56.5 21.5t62 41.5t46.5 39l30 288q-6 1 -27 1q-63 0 -113.5 -47.5t-75.5 -116t-25 -139.5q0 -88 46 -88zM189 662l11 108h95l-12 -108
h-94zM396 662l11 108h95l-12 -108h-94z" />
    <glyph glyph-name="uni04D4" unicode="&#x4d4;" horiz-adv-x="929" 
d="M-47 0l462 707h485l-8 -81h-309l-24 -231h287l-8 -80h-287l-25 -234h332l-8 -81h-434l35 315h-188l-197 -315h-113zM311 394h149l25 232h-27z" />
    <glyph glyph-name="uni04D5" unicode="&#x4d5;" horiz-adv-x="779" 
d="M148 -13q-117 0 -117 180q0 167 95.5 276.5t239.5 109.5q41 0 97 -8l-7 -54q65 70 157 70q77 0 112 -36t35 -93q0 -101 -155 -155l-166 -60v-21q0 -123 60 -123q56 0 168 55l35 -69q-60 -34 -110 -52.5t-113 -18.5q-109 0 -128 121q-120 -122 -203 -122zM174 77
q29 0 78.5 35t84.5 67l31 289l-32 2q-83 1 -144.5 -85.5t-61.5 -198.5q0 -61 11 -85t33 -24zM449 298l147 58q69 28 69 72q0 26 -16 39t-40 13q-67 0 -106.5 -52t-53.5 -130z" />
    <glyph glyph-name="uni04D6" unicode="&#x4d6;" horiz-adv-x="573" 
d="M61 0l74 707h410l-8 -81h-309l-24 -231h287l-9 -80h-286l-25 -234h332l-8 -81h-434zM350 751q-116 0 -173 90l57 53q45 -59 125 -59q77 0 137 59l50 -53q-73 -90 -196 -90z" />
    <glyph glyph-name="uni04D7" unicode="&#x4d7;" horiz-adv-x="481" 
d="M178 -12q-139 0 -139 206q0 98 29.5 180t93 134.5t150.5 52.5q74 0 112 -37.5t38 -93.5q0 -101 -155 -155l-167 -60v-23q0 -61 13.5 -90t44.5 -29q64 0 169 56l34 -70q-58 -34 -109 -52.5t-114 -18.5zM308 642q-31 0 -67 29.5t-61 74.5l77 50q48 -73 78 -73q59 0 147 73
l35 -42q-50 -50 -107.5 -81t-101.5 -31zM149 296l148 58q70 26 70 71q0 28 -17 42t-41 14q-67 0 -106 -52t-54 -133z" />
    <glyph glyph-name="uni04D8" unicode="&#x4d8;" horiz-adv-x="762" 
d="M334 -12q-148 0 -219.5 79t-71.5 221q0 20 9 107h566q2 108 -53 173t-167 65q-131 0 -257 -62l-28 70q136 76 301 76q150 0 228 -84t78 -223q0 -186 -101.5 -304t-284.5 -118zM347 71q115 0 178.5 66.5t83.5 178.5h-464v-32q2 -97 50 -155t152 -58z" />
    <glyph glyph-name="uni04D9" unicode="&#x4d9;" horiz-adv-x="481" 
d="M296 560q140 0 140 -206q0 -153 -72 -260t-202 -107q-74 0 -111.5 37.5t-37.5 93.5q0 59 42.5 95t112.5 60l166 59q1 6 1 23q0 61 -13.5 90.5t-45.5 29.5q-62 0 -169 -56l-34 69q59 35 109.5 53.5t113.5 18.5zM326 252l-149 -58q-70 -28 -70 -72q0 -27 17 -41t41 -14
q67 0 106.5 52t54.5 133z" />
    <glyph glyph-name="uni04DA" unicode="&#x4da;" horiz-adv-x="762" 
d="M334 -12q-148 0 -219.5 79t-71.5 221q0 20 9 107h566q2 108 -53 173t-167 65q-131 0 -257 -62l-28 70q136 76 301 76q150 0 228 -84t78 -223q0 -186 -101.5 -304t-284.5 -118zM347 71q115 0 178.5 66.5t83.5 178.5h-464v-32q2 -97 50 -155t152 -58zM247 765l10 106h93
l-11 -106h-92zM469 765l10 106h93l-11 -106h-92z" />
    <glyph glyph-name="uni04DB" unicode="&#x4db;" horiz-adv-x="481" 
d="M128 662l11 108h95l-12 -108h-94zM335 662l11 108h95l-12 -108h-94zM296 560q140 0 140 -206q0 -153 -72 -260t-202 -107q-74 0 -111.5 37.5t-37.5 93.5q0 59 42.5 95t112.5 60l166 59q1 6 1 23q0 61 -13.5 90.5t-45.5 29.5q-62 0 -169 -56l-34 69q59 35 109.5 53.5
t113.5 18.5zM326 252l-149 -58q-70 -28 -70 -72q0 -27 17 -41t41 -14q67 0 106.5 52t54.5 133z" />
    <glyph glyph-name="uni04DC" unicode="&#x4dc;" horiz-adv-x="903" 
d="M77 -29l-95 51l300 364l-208 321h115l203 -331l-1 -11zM763 -29l-244 393l1 11l274 332h126l-287 -331l225 -354zM366 0l74 707h101l-74 -707h-101zM338 765l10 106h93l-11 -106h-92zM560 765l10 106h93l-11 -106h-92z" />
    <glyph glyph-name="uni04DD" unicode="&#x4dd;" horiz-adv-x="754" 
d="M260 662l11 108h95l-12 -108h-94zM467 662l11 108h95l-12 -108h-94zM86 -10l-106 18l233 288l-160 250h109l154 -264zM295 0l57 546h99l-58 -546h-98zM610 -10l-177 292l205 264h112l-208 -257l172 -281z" />
    <glyph glyph-name="uni04DE" unicode="&#x4de;" horiz-adv-x="541" 
d="M207 -10q-118 0 -206 49l38 81q86 -43 173 -43q69 0 114.5 30.5t50.5 94.5q8 114 -160 114h-73l9 81h73q67 0 110 32.5t47 89.5q4 54 -27.5 82.5t-92.5 28.5q-57 0 -149 -33l-26 73q92 44 195 44q104 0 156 -49.5t47 -126.5q-2 -38 -16 -69.5t-34.5 -52.5t-37 -33
t-33.5 -20v-2q123 -41 115 -160q-2 -39 -18.5 -75t-47.5 -67.5t-84.5 -50t-122.5 -18.5zM136 765l10 106h93l-11 -106h-92zM358 765l10 106h93l-11 -106h-92z" />
    <glyph glyph-name="uni04DF" unicode="&#x4df;" horiz-adv-x="430" 
d="M78 662l11 108h95l-12 -108h-94zM285 662l11 108h95l-12 -108h-94zM154 -10q-90 0 -157 28l26 78q66 -22 120 -22q67 0 99.5 25t32.5 62q0 79 -142 85l-8 65q69 15 114 44.5t45 66.5q0 51 -91 51q-59 0 -112 -16l-21 74q59 26 148 26q80 0 127 -29t47 -88
q0 -48 -33 -85.5t-86 -60.5q109 -26 109 -129q0 -78 -60 -126.5t-158 -48.5z" />
    <glyph glyph-name="uni04E0" unicode="&#x4e0;" horiz-adv-x="536" 
d="M168 399l213 217h-301l10 91h420l-8 -77l-227 -229q87 -11 145 -60.5t58 -123.5q0 -75 -42 -128.5t-103 -77t-131 -23.5q-69 0 -121.5 13t-73.5 28l34 85q74 -37 164 -37q69 0 116.5 32t47.5 102q0 56 -51.5 86t-121.5 31h-22z" />
    <glyph glyph-name="uni04E1" unicode="&#x4e1;" horiz-adv-x="462" 
d="M90 168l8 77l217 213h-284l9 88h402l-8 -76l-235 -231q85 -13 142 -63t57 -124q0 -83 -62 -146.5t-149 -95.5t-183 -38l-8 82q81 10 144.5 31t106.5 61t43 93q0 58 -60.5 91t-139.5 38z" />
    <glyph glyph-name="uni04E2" unicode="&#x4e2;" horiz-adv-x="766" 
d="M292 767l8 82h294l-9 -82h-293zM61 0l75 707h101l-48 -457l-14 -103l72 105l367 455h101l-74 -707h-102l48 457l14 103l-56 -79l-383 -481h-101z" />
    <glyph glyph-name="uni04E3" unicode="&#x4e3;" horiz-adv-x="540" 
d="M167 665l9 81h272l-9 -81h-272zM161 -11q-59 0 -84.5 26t-25.5 89q0 22 3 50l42 392h98l-41 -376q-3 -26 -3 -43q0 -29 9.5 -40.5t31.5 -11.5q65 0 161 87l42 384h97l-58 -546h-97l8 81q-96 -92 -183 -92z" />
    <glyph glyph-name="uni04E4" unicode="&#x4e4;" horiz-adv-x="766" 
d="M284 765l10 106h93l-11 -106h-92zM506 765l10 106h93l-11 -106h-92zM61 0l75 707h101l-48 -457l-14 -103l72 105l367 455h101l-74 -707h-102l48 457l14 103l-56 -79l-383 -481h-101z" />
    <glyph glyph-name="uni04E5" unicode="&#x4e5;" horiz-adv-x="540" 
d="M160 662l11 108h95l-12 -108h-94zM367 662l11 108h95l-12 -108h-94zM161 -11q-59 0 -84.5 26t-25.5 89q0 22 3 50l42 392h98l-41 -376q-3 -26 -3 -43q0 -29 9.5 -40.5t31.5 -11.5q65 0 161 87l42 384h97l-58 -546h-97l8 81q-96 -92 -183 -92z" />
    <glyph glyph-name="uni04E6" unicode="&#x4e6;" horiz-adv-x="805" 
d="M295 765l10 106h93l-11 -106h-92zM517 765l10 106h93l-11 -106h-92zM361 -11q-146 0 -227 84t-81 231q0 187 107 300.5t292 113.5q147 0 228.5 -83.5t81.5 -230.5q0 -189 -107 -302t-294 -113zM373 71q137 0 210.5 92t73.5 234q0 109 -56 173t-163 64
q-135 0 -208.5 -90.5t-73.5 -230.5q0 -110 55 -176t162 -66z" />
    <glyph glyph-name="uni04E7" unicode="&#x4e7;" horiz-adv-x="527" 
d="M163 662l11 108h95l-12 -108h-94zM370 662l11 108h95l-12 -108h-94zM208 -12q-81 0 -127 56t-46 142q0 168 76.5 270.5t203.5 102.5q82 0 126.5 -56.5t44.5 -136.5q0 -66 -14.5 -128.5t-45 -120.5t-87 -93.5t-131.5 -35.5zM228 71q63 0 110.5 80t47.5 205q0 65 -23 94
t-72 29q-63 0 -109 -81t-46 -200q0 -127 92 -127z" />
    <glyph glyph-name="uni04E8" unicode="&#x4e8;" horiz-adv-x="805" 
d="M361 -11q-146 0 -227 84t-81 231q0 187 107 300.5t292 113.5q147 0 228.5 -83.5t81.5 -230.5q0 -189 -107 -302t-294 -113zM373 71q117 0 188 68.5t89 180.5h-494v-7q0 -110 55 -176t162 -66zM438 634q-115 0 -185.5 -66.5t-90.5 -176.5h495v6q0 109 -56 173t-163 64z
" />
    <glyph glyph-name="uni04E9" unicode="&#x4e9;" horiz-adv-x="527" 
d="M208 -12q-81 0 -127 56t-46 142q0 168 76.5 270.5t203.5 102.5q82 0 126.5 -56.5t44.5 -136.5q0 -66 -14.5 -128.5t-45 -120.5t-87 -93.5t-131.5 -35.5zM291 479q-46 0 -85.5 -46.5t-57.5 -123.5h236q2 30 2 47q0 65 -23 94t-72 29zM228 71q46 0 86 45t58 123h-235
q-1 -14 -1 -41q0 -127 92 -127z" />
    <glyph glyph-name="uni04EA" unicode="&#x4ea;" horiz-adv-x="805" 
d="M361 -11q-146 0 -227 84t-81 231q0 187 107 300.5t292 113.5q147 0 228.5 -83.5t81.5 -230.5q0 -189 -107 -302t-294 -113zM373 71q117 0 188 68.5t89 180.5h-494v-7q0 -110 55 -176t162 -66zM438 634q-115 0 -185.5 -66.5t-90.5 -176.5h495v6q0 109 -56 173t-163 64z
M520 765l10 106h93l-11 -106h-92zM298 765l10 106h93l-11 -106h-92z" />
    <glyph glyph-name="uni04EB" unicode="&#x4eb;" horiz-adv-x="527" 
d="M208 -12q-81 0 -127 56t-46 142q0 168 76.5 270.5t203.5 102.5q82 0 126.5 -56.5t44.5 -136.5q0 -66 -14.5 -128.5t-45 -120.5t-87 -93.5t-131.5 -35.5zM228 71q47 0 87 46.5t58 125.5h-235q-2 -15 -2 -45q0 -127 92 -127zM291 479q-46 0 -85 -45.5t-57 -120.5h235
q2 28 2 43q0 65 -23 94t-72 29zM368 662l11 108h95l-12 -108h-94zM161 662l11 108h95l-12 -108h-94z" />
    <glyph glyph-name="uni04EC" unicode="&#x4ec;" horiz-adv-x="653" 
d="M156 765l10 106h93l-11 -106h-92zM378 765l10 106h93l-11 -106h-92zM206 -10q-131 0 -196 38l33 77q78 -32 165 -32q113 0 192.5 62t97.5 180h-351l9 81h350q1 123 -63.5 179.5t-169.5 56.5q-95 0 -169 -33l-26 77q90 40 207 40q159 0 243 -79t84 -224q0 -24 -4 -68
q-18 -160 -124.5 -257.5t-277.5 -97.5z" />
    <glyph glyph-name="uni04ED" unicode="&#x4ed;" horiz-adv-x="444" 
d="M93 662l11 108h95l-12 -108h-94zM300 662l11 108h95l-12 -108h-94zM125 -12q-78 0 -130 48l43 69q55 -35 99 -35q55 0 95 47.5t57 125.5h-162l6 71h167q2 11 2 39q0 64 -17.5 94t-63.5 30q-59 0 -133 -31l-26 70q88 45 173 45t126.5 -52.5t41.5 -137.5q0 -73 -17 -140
t-49.5 -122t-87.5 -88t-124 -33z" />
    <glyph glyph-name="uni04EE" unicode="&#x4ee;" horiz-adv-x="577" 
d="M197 767l8 82h294l-9 -82h-293zM131 -9l-30 88q57 18 90.5 41t60.5 73l16 29h-40l-192 485h113l158 -416l199 416h116l-274 -516q-29 -55 -53.5 -89.5t-52.5 -56t-49 -31t-62 -23.5z" />
    <glyph glyph-name="uni04EF" unicode="&#x4ef;" horiz-adv-x="496" 
d="M61 -220l109 220h-41l-84 546h105l61 -466l135 279q42 89 42 161q0 10 -2 26h103q2 -12 2 -26q0 -76 -48 -174l-280 -566h-102zM144 665l9 81h272l-9 -81h-272z" />
    <glyph glyph-name="uni04F0" unicode="&#x4f0;" horiz-adv-x="577" 
d="M177 765l10 106h93l-11 -106h-92zM399 765l10 106h93l-11 -106h-92zM131 -9l-30 88q57 18 90.5 41t60.5 73l16 29h-40l-192 485h113l158 -416l199 416h116l-274 -516q-29 -55 -53.5 -89.5t-52.5 -56t-49 -31t-62 -23.5z" />
    <glyph glyph-name="uni04F1" unicode="&#x4f1;" horiz-adv-x="496" 
d="M61 -220l109 220h-41l-84 546h105l61 -466l135 279q42 89 42 161q0 10 -2 26h103q2 -12 2 -26q0 -76 -48 -174l-280 -566h-102zM132 662l11 108h95l-12 -108h-94zM339 662l11 108h95l-12 -108h-94z" />
    <glyph glyph-name="uni04F2" unicode="&#x4f2;" horiz-adv-x="577" 
d="M131 -9l-30 88q57 18 90.5 41t60.5 73l16 29h-40l-192 485h113l158 -416l199 416h116l-274 -516q-29 -55 -53.5 -89.5t-52.5 -56t-49 -31t-62 -23.5zM172 735l-46 55l189 164l56 -71zM371 735l-20 68l237 83l24 -88z" />
    <glyph glyph-name="uni04F3" unicode="&#x4f3;" horiz-adv-x="496" 
d="M61 -220l109 220h-41l-84 546h105l61 -466l135 279q42 89 42 161q0 10 -2 26h103q2 -12 2 -26q0 -76 -48 -174l-280 -566h-102zM120 615l-34 52l200 154l49 -72zM353 617l-31 57l203 123l38 -76z" />
    </font>
</defs>
</svg>
