<?xml version="1.0" standalone="no"?>
<!DOCTYPE svg PUBLIC "-//W3C//DTD SVG 1.1//EN" "http://www.w3.org/Graphics/SVG/1.1/DTD/svg11.dtd" >
<svg xmlns="http://www.w3.org/2000/svg" xmlns:xlink="http://www.w3.org/1999/xlink" version="1.1">
<metadata>
Created by FontForge 20170731 at Wed Aug 18 02:40:30 2010
 By Aleksey,,,
Copyright (c) 2010 Typotheque.com All rights reserved.
</metadata>
<defs>
<font id="FedraSansArm-Book" horiz-adv-x="604" >
  <font-face 
    font-family="Fedra Sans Arm"
    font-weight="400"
    font-stretch="normal"
    units-per-em="1000"
    panose-1="0 0 0 0 0 0 0 0 0 0"
    ascent="780"
    descent="-220"
    x-height="546"
    cap-height="707"
    bbox="-300 -240 1411 969"
    underline-thickness="50"
    underline-position="-200"
    unicode-range="U+0020-FB17"
  />
<missing-glyph horiz-adv-x="712" 
d="M305 375v27h27v-27h-27zM380 525v27h27v-27h-27zM305 525v27h27v-27h-27zM230 525v27h27v-27h-27zM80 0v27h27v-27h-27zM155 0v27h27v-27h-27zM230 0v27h27v-27h-27zM305 0v27h27v-27h-27zM380 0v27h27v-27h-27zM80 75v27h27v-27h-27zM80 150v27h27v-27h-27zM80 225v27
h27v-27h-27zM80 300v27h27v-27h-27zM80 375v27h27v-27h-27zM80 450v27h27v-27h-27zM80 525v27h27v-27h-27zM80 600v27h27v-27h-27zM80 675v27h27v-27h-27zM155 675v27h27v-27h-27zM230 675v27h27v-27h-27zM305 675v27h27v-27h-27zM380 675v27h27v-27h-27zM455 675v27h27v-27
h-27zM530 675v27h27v-27h-27zM530 0v27h27v-27h-27zM455 0v27h27v-27h-27zM605 0v27h27v-27h-27zM605 675v27h27v-27h-27zM305 300v27h27v-27h-27zM305 150v27h27v-27h-27zM380 375v27h27v-27h-27zM455 375v27h27v-27h-27zM455 450v27h27v-27h-27zM455 525v27h27v-27h-27z
M605 600v27h27v-27h-27zM605 525v27h27v-27h-27zM605 375v27h27v-27h-27zM605 300v27h27v-27h-27zM605 150v27h27v-27h-27zM605 75v27h27v-27h-27zM605 225v27h27v-27h-27zM605 450v27h27v-27h-27z" />
    <glyph glyph-name="fi" unicode="fi" horiz-adv-x="616" 
d="M110 -205v687h-80v64h80v35q0 111 49 153t136 42q20 0 72 -3t78 -3q27 0 67 4l11 -61q-39 -13 -104 -13q-24 1 -66.5 4t-58.5 3q-59 0 -82 -31t-23 -96v-34h344v-546h-80v482h-264v-687h-79z" />
    <glyph glyph-name="fl" unicode="fl" horiz-adv-x="617" 
d="M110 -205v687h-80v64h80v33q0 104 50.5 150t134.5 46q19 0 71 -3.5t79 -4.5q25 0 88 6v-773h-80v700q-30 -2 -83.5 2.5t-75.5 4.5q-58 0 -81.5 -32t-23.5 -91v-38h118v-64h-118v-687h-79z" />
    <glyph glyph-name="men_now" unicode="&#x574;&#x576;" horiz-adv-x="1272" 
d="M1187 0h-76v64q-3 -2 -19 -12.5t-24 -15l-24 -13.5t-28.5 -14t-29.5 -10.5t-34.5 -8t-35.5 -2.5q-44 0 -76 13.5t-48.5 32.5t-26 50t-11.5 55.5t-2 58.5v422h-32q-102 0 -119 68q-18 5 -39 4q-44 -3 -48 -55v-637h-76v64q-3 -2 -19 -12.5t-24 -15l-24 -13.5t-28.5 -14
t-29.5 -10.5t-34.5 -8t-35.5 -2.5q-44 0 -75.5 13.5t-48.5 32.5t-26.5 50t-11.5 55.5t-2 58.5v324h78v-308q0 -31 1.5 -50t7 -41t16.5 -34t31.5 -20.5t49.5 -8.5q62 0 175 68v501q0 135 127 135q41 0 99 -23q3 -35 21.5 -47t51.5 -12h93v-468q0 -30 1.5 -49t7 -41.5
t16.5 -34.5t31.5 -20.5t49.5 -8.5q62 0 175 68v394h76v-522z" />
    <glyph glyph-name="men_ech" unicode="&#x574;&#x565;" horiz-adv-x="1258" 
d="M904 -12q-44 0 -76 13.5t-48.5 32.5t-26 50t-11.5 55.5t-2 58.5v468q-79 28 -122 28q-63 0 -83.5 -29.5t-20.5 -80.5v-584h-76v64q-3 -2 -19 -12.5t-24 -15l-24 -13.5t-28.5 -14t-29.5 -10.5t-34.5 -8t-35.5 -2.5q-44 0 -75.5 13.5t-48.5 32.5t-26.5 50t-11.5 55.5
t-2 58.5v324h78v-308q0 -31 1.5 -50t7 -41t16.5 -34t31.5 -20.5t49.5 -8.5q62 0 175 68v457q0 28 3 50.5t14 47.5t29 42t50 28t75 11q99 0 209 -43v-199h357v-66h-357v-242q0 -31 1.5 -50t7 -41t16.5 -34t31.5 -20.5t49.5 -8.5q65 0 174 68v151h77v-279h-77v64
q-1 -1 -18.5 -12.5t-23.5 -15t-23.5 -13.5t-29.5 -14t-29.5 -10t-34.5 -8.5t-35 -2.5z" />
    <glyph glyph-name="men_ini" unicode="&#x574;&#x56b;" horiz-adv-x="1257" 
d="M243 -12q-44 0 -75.5 13.5t-48.5 32.5t-26.5 50t-11.5 55.5t-2 58.5v324h78v-308q0 -31 1.5 -50t7 -41t16.5 -34t31.5 -20.5t49.5 -8.5q62 0 175 68v457q0 28 3 50.5t14 47.5t29 42t50 28t75 11q62 0 209 -42v-262q33 23 55.5 36.5t60.5 26.5t75 13q46 0 79 -13.5t50 -32
t26.5 -49.5t11.5 -54.5t2 -58.5v-328h-76v313q0 80 -22 116.5t-92 36.5q-10 0 -20.5 -1t-21.5 -4.5t-20 -6t-21 -8t-18.5 -8.5t-19 -10t-17 -9.5t-17.5 -10.5t-15 -9v-619h-78v886q-79 28 -122 28q-63 0 -83.5 -29.5t-20.5 -80.5v-584h-76v64q-3 -2 -19 -12.5t-24 -15
l-24 -13.5t-28.5 -14t-29.5 -10.5t-34.5 -8t-35.5 -2.5z" />
    <glyph glyph-name="vew_now" unicode="&#x57e;&#x576;" horiz-adv-x="1261" 
d="M653 -220h-215v284q-3 -2 -19 -12.5t-24 -15l-24 -13.5t-28.5 -14t-29.5 -10.5t-34.5 -8t-35.5 -2.5q-44 0 -75.5 13.5t-48.5 32.5t-26.5 50t-11.5 55.5t-2 58.5v324h78v-308q0 -31 1.5 -50t7 -41t16.5 -34t31.5 -20.5t49.5 -8.5q62 0 175 68v483h-85q-65 0 -95 26
t-35 81l-2 22l68 14q2 -44 21 -63.5t56 -19.5h72v83h76v-83h304v-457q0 -30 1.5 -49t7 -41.5t16.5 -34.5t31 -20.5t49 -8.5q66 0 175 68v394h76v-522h-76v64q-1 -1 -18.5 -12.5t-23.5 -15t-23.5 -13.5t-29.5 -14t-29.5 -10t-34.5 -8.5t-35 -2.5q-44 0 -76 13.5t-48.5 32.5
t-26 50t-11.5 55.5t-2 58.5v413h-226v-762h139v-69z" />
    <glyph glyph-name="men_xeh" unicode="&#x574;&#x56d;" horiz-adv-x="1496" 
d="M740 -220v886q-79 28 -122 28q-63 0 -83.5 -29.5t-20.5 -80.5v-584h-76v64q-3 -2 -19 -12.5t-24 -15l-24 -13.5t-28.5 -14t-29.5 -10.5t-34.5 -8t-35.5 -2.5q-44 0 -75.5 13.5t-48.5 32.5t-26.5 50t-11.5 55.5t-2 58.5v324h78v-308q0 -31 1.5 -50t7 -41t16.5 -34
t31.5 -20.5t49.5 -8.5q62 0 175 68v457q0 28 3 50.5t14 47.5t29 42t50 28t75 11q99 0 209 -43v-199h237v-308q0 -31 1.5 -50t7 -41t16.5 -34t31 -20.5t49 -8.5q62 0 175 68v394h76v-522h-76v64q-1 -1 -19 -12.5t-23.5 -15t-23.5 -13.5t-29.5 -14t-29 -10t-35 -8.5
t-35.5 -2.5q-44 0 -75.5 13.5t-48.5 32.5t-26.5 50t-11.5 55.5t-2 58.5v258h-158v-676h-78z" />
    <glyph glyph-name="Ayb_emph" unicode="&#x531;&#x55b;" horiz-adv-x="797" 
d="M474 742l-37 41l152 159l56 -58zM380 -12q-56 0 -103 12t-89.5 39.5t-67 80.5t-24.5 126v461h84v-454q0 -194 200 -194q202 0 202 217v431h79v-434q0 -94 -36 -159l144 -91l-40 -60l-144 97q-75 -72 -205 -72z" />
    <glyph glyph-name="Ech_emph" unicode="&#x535;&#x55b;" horiz-adv-x="749" 
d="M488 742l-37 41l152 159l56 -58zM661 477h-482v-224q0 -194 202 -194q198 0 201 205l79 -15q-4 -74 -30.5 -128t-68.5 -81.5t-86.5 -39.5t-94.5 -12q-56 0 -103 12t-90 39.5t-67.5 80.5t-24.5 126v461h83v-161h482v-69z" />
    <glyph glyph-name="Eh_emph" unicode="&#x537;&#x55b;" horiz-adv-x="619" 
d="M387 742l-37 41l152 159l56 -58zM525 477h-339v-408h121q171 0 199 -132l-65 -28q-21 91 -124 91h-213v707h82v-161h339v-69z" />
    <glyph glyph-name="Et_emph" unicode="&#x538;&#x55b;" horiz-adv-x="775" 
d="M661 0h-565v454q0 72 24.5 125.5t66.5 82t90 42t102 13.5q56 0 103 -13t89 -42.5t66 -86.5t24 -137l-83 -5q0 213 -199 213q-41 0 -74.5 -9t-63.5 -30t-47 -61.5t-17 -97.5v-379h484v-69zM519 742l-37 41l152 159l56 -58z" />
    <glyph glyph-name="Ini_emph" unicode="&#x53b;&#x55b;" horiz-adv-x="723" 
d="M494 742l-37 41l152 159l56 -58zM187 707v-225q81 78 215 78q52 0 96 -13.5t83 -44t61.5 -87.5t22.5 -136v-116h-83v112q0 214 -192 214q-68 0 -124 -23.5t-79 -72.5v-393h-83v707h83z" />
    <glyph glyph-name="Vo_emph" unicode="&#x548;&#x55b;" horiz-adv-x="779" 
d="M519 742l-37 41l152 159l56 -58zM378 717q56 0 102 -12.5t88.5 -42t66.5 -86.5t24 -138v-438h-82v433q0 113 -54.5 163t-144.5 50q-86 0 -143.5 -49t-57.5 -159v-438h-81v444q0 73 24.5 128t66 85.5t89.5 45t102 14.5z" />
    <glyph glyph-name="Yiwn_emph" unicode="&#x552;&#x55b;" horiz-adv-x="657" 
d="M104 707h84v-170q50 20 112 20q44 0 76.5 -15t49 -38t28.5 -53.5t16.5 -58.5t11.5 -56.5t15 -43.5q17 -31 41 -43.5t70 -12.5l-7 -72q-17 -4 -38 -4q-75 0 -120 68q-21 31 -33.5 81t-18.5 86.5t-30.5 64t-70.5 27.5q-59 0 -102 -16v-471h-84v707zM448 742l-37 41l152 159
l56 -58z" />
    <glyph glyph-name="Oh_emph" unicode="&#x555;&#x55b;" horiz-adv-x="871" 
d="M595 742l-37 41l152 159l56 -58zM405 -12q-162 0 -254 101t-92 266t100.5 263.5t264.5 98.5q165 0 254 -101.5t89 -262.5q0 -164 -97.5 -264.5t-264.5 -100.5zM408 56q135 0 205.5 82.5t70.5 215.5q0 130 -71.5 212.5t-197.5 82.5q-132 0 -203 -81.5t-71 -211.5
q0 -128 69.5 -214t197.5 -86z" />
    <glyph glyph-name="ayb_emph" unicode="&#x561;&#x55b;" horiz-adv-x="959" 
d="M701 742l-37 41l152 159l56 -58zM602 -12q-114 0 -148 87q-38 -26 -58.5 -38.5t-67 -30.5t-85.5 -18q-44 0 -76 13.5t-48.5 32.5t-26 50t-11.5 55.5t-2 58.5v324h78v-308q0 -31 1.5 -50t7 -41t16.5 -34t31.5 -20.5t49.5 -8.5q67 0 178 70q-3 20 -3 72v320h78v-308
q0 -31 1.5 -50t7 -41t16.5 -34t31.5 -20.5t49.5 -8.5q65 0 174 68v394h77v-522h-77v64q-1 -1 -18.5 -12.5t-23.5 -15t-23.5 -13.5t-29.5 -14t-29.5 -10t-34.5 -8.5t-35 -2.5z" />
    <glyph glyph-name="ech_emph" unicode="&#x565;&#x55b;" horiz-adv-x="597" 
d="M353 742l-37 41l152 159l56 -58zM514 456h-357v-242q0 -31 1.5 -50t7 -41t16.5 -34t31.5 -20.5t49.5 -8.5q62 0 175 68v151h76v-279h-76v64q-3 -2 -19 -12.5t-24 -15l-24 -13.5t-28.5 -14t-29.5 -10.5t-34.5 -8t-35.5 -2.5q-44 0 -76 13.5t-48.5 32.5t-26 50t-11.5 55.5
t-2 58.5v556h78v-232h357v-66z" />
    <glyph glyph-name="eh_emph" unicode="&#x567;&#x55b;" horiz-adv-x="490" 
d="M360 742l-37 41l152 159l56 -58zM431 456h-268v-390h114q69 0 96 -27.5t34 -80.5l-71 -22q-3 33 -19 48.5t-63 15.5h-169v754h78v-232h268v-66z" />
    <glyph glyph-name="et_emph" unicode="&#x568;&#x55b;" 
d="M87 -220v742h78v-62q33 23 55.5 36.5t60.5 26.5t75 13q46 0 79 -13.5t50 -32t26.5 -49.5t11.5 -54.5t2 -58.5v-328h-76v313q0 79 -22 116t-92 37q-10 0 -20.5 -1t-21.5 -4.5t-20 -6t-21 -8t-18.5 -8.5t-19 -10t-17 -9.5t-17.5 -10.5t-15 -9v-554h360v-65h-438zM469 742
l-37 41l152 159l56 -58z" />
    <glyph glyph-name="ini_emph" unicode="&#x56b;&#x55b;" 
d="M469 742l-37 41l152 159l56 -58zM87 -220v974h78v-294q33 23 55.5 36.5t60.5 26.5t75 13q46 0 79 -13.5t50 -32t26.5 -49.5t11.5 -54.5t2 -58.5v-328h-76v313q0 79 -22 116t-92 37q-10 0 -20.5 -1t-21.5 -4.5t-20 -6t-21 -8t-18.5 -8.5t-19 -10t-17 -9.5t-17.5 -10.5
t-15 -9v-619h-78z" />
    <glyph glyph-name="vo_emph" unicode="&#x578;&#x55b;" 
d="M470 742l-37 41l152 159l56 -58zM87 0v522h78v-62q33 23 55.5 36.5t60.5 26.5t75 13q46 0 79 -13.5t50 -32t26.5 -49.5t11.5 -54.5t2 -58.5v-328h-76v313q0 79 -22 116t-92 37q-10 0 -20.5 -1t-21.5 -4.5t-20 -6t-21 -8t-18.5 -8.5t-19 -10t-17 -9.5t-17.5 -10.5t-15 -9
v-399h-78z" />
    <glyph glyph-name="yiwn_emph" unicode="&#x582;&#x55b;" horiz-adv-x="322" 
d="M86 0v522h78v-456h132v-66h-210zM123 742l-37 41l152 159l56 -58z" />
    <glyph glyph-name="oh_emph" unicode="&#x585;&#x55b;" horiz-adv-x="600" 
d="M467 742l-37 41l152 159l56 -58zM297 -12q-116 0 -180 68t-64 200q0 137 68.5 209t182.5 72q242 0 242 -276q0 -137 -68 -205t-181 -68zM303 53q163 0 163 208q0 211 -165 211q-47 0 -81.5 -18t-52.5 -49.5t-26 -67t-8 -77.5q0 -207 170 -207z" />
    <glyph glyph-name="men_ech_emph" unicode="&#xfb14;&#x55b;" horiz-adv-x="1258" 
d="M999 742l-37 41l152 159l56 -58zM904 -12q-44 0 -76 13.5t-48.5 32.5t-26 50t-11.5 55.5t-2 58.5v468q-79 28 -122 28q-63 0 -83.5 -29.5t-20.5 -80.5v-584h-76v64q-3 -2 -19 -12.5t-24 -15l-24 -13.5t-28.5 -14t-29.5 -10.5t-34.5 -8t-35.5 -2.5q-44 0 -75.5 13.5
t-48.5 32.5t-26.5 50t-11.5 55.5t-2 58.5v324h78v-308q0 -31 1.5 -50t7 -41t16.5 -34t31.5 -20.5t49.5 -8.5q62 0 175 68v457q0 28 3 50.5t14 47.5t29 42t50 28t75 11q99 0 209 -43v-199h357v-66h-357v-242q0 -31 1.5 -50t7 -41t16.5 -34t31.5 -20.5t49.5 -8.5q65 0 174 68
v151h77v-279h-77v64q-1 -1 -18.5 -12.5t-23.5 -15t-23.5 -13.5t-29.5 -14t-29.5 -10t-34.5 -8.5t-35 -2.5z" />
    <glyph glyph-name="men_ini_emph" unicode="&#xfb15;&#x55b;" horiz-adv-x="1257" 
d="M243 -12q-44 0 -75.5 13.5t-48.5 32.5t-26.5 50t-11.5 55.5t-2 58.5v324h78v-308q0 -31 1.5 -50t7 -41t16.5 -34t31.5 -20.5t49.5 -8.5q62 0 175 68v457q0 28 3 50.5t14 47.5t29 42t50 28t75 11q62 0 209 -42v-262q33 23 55.5 36.5t60.5 26.5t75 13q46 0 79 -13.5t50 -32
t26.5 -49.5t11.5 -54.5t2 -58.5v-328h-76v313q0 80 -22 116.5t-92 36.5q-10 0 -20.5 -1t-21.5 -4.5t-20 -6t-21 -8t-18.5 -8.5t-19 -10t-17 -9.5t-17.5 -10.5t-15 -9v-619h-78v886q-79 28 -122 28q-63 0 -83.5 -29.5t-20.5 -80.5v-584h-76v64q-3 -2 -19 -12.5t-24 -15
l-24 -13.5t-28.5 -14t-29.5 -10.5t-34.5 -8t-35.5 -2.5zM1127 742l-37 41l152 159l56 -58z" />
    <glyph glyph-name="Ayb_exclam" unicode="&#x531;&#x55c;" horiz-adv-x="797" 
d="M324 894q15 7 35 7q12 0 34.5 -3.5t32.5 -3.5q14 0 28 6q28 18 43 50l42 -31q-3 -21 -20 -42.5t-47 -35.5q-9 -3 -29 -3q-9 0 -30 1t-31 1q-25 0 -39 -6q-8 -2 -16.5 -8.5t-12.5 -10.5t-14 -16.5t-13 -15.5l-39 34q6 17 27.5 40t48.5 37zM380 -12q-56 0 -103 12
t-89.5 39.5t-67 80.5t-24.5 126v461h84v-454q0 -194 200 -194q202 0 202 217v431h79v-434q0 -94 -36 -159l144 -91l-40 -60l-144 97q-75 -72 -205 -72z" />
    <glyph glyph-name="Ech_exclam" unicode="&#x535;&#x55c;" horiz-adv-x="750" 
d="M337 894q15 7 35 7q12 0 34.5 -3.5t32.5 -3.5q15 0 28 6q28 18 43 50l42 -31q-3 -21 -20 -42.5t-47 -35.5q-9 -3 -29 -3q-9 0 -30 1t-31 1q-25 0 -39 -6q-8 -2 -16.5 -8.5t-12.5 -10.5t-14 -16.5t-13 -15.5l-39 34q6 17 27.5 40t48.5 37zM661 477h-482v-224
q0 -194 202 -194q198 0 201 205l79 -15q-4 -74 -30.5 -128t-68.5 -81.5t-86.5 -39.5t-94.5 -12q-56 0 -103 12t-90 39.5t-67.5 80.5t-24.5 126v461h83v-161h482v-69z" />
    <glyph glyph-name="Eh_exclam" unicode="&#x537;&#x55c;" horiz-adv-x="619" 
d="M286 894q15 7 35 7q12 0 34.5 -3.5t32.5 -3.5q14 0 28 6q28 18 43 50l42 -31q-3 -21 -20 -42.5t-47 -35.5q-9 -3 -29 -3q-9 0 -30 1t-31 1q-25 0 -39 -6q-8 -2 -16.5 -8.5t-12.5 -10.5t-14 -16.5t-13 -15.5l-39 34q6 17 27.5 40t48.5 37zM525 477h-339v-408h121
q171 0 199 -132l-65 -28q-21 91 -124 91h-213v707h82v-161h339v-69z" />
    <glyph glyph-name="Et_exclam" unicode="&#x538;&#x55c;" horiz-adv-x="775" 
d="M661 0h-565v454q0 72 24.5 125.5t66.5 82t90 42t102 13.5q56 0 103 -13t89 -42.5t66 -86.5t24 -137l-83 -5q0 213 -199 213q-41 0 -74.5 -9t-63.5 -30t-47 -61.5t-17 -97.5v-379h484v-69zM314 894q15 7 35 7q12 0 34.5 -3.5t32.5 -3.5q14 0 28 6q28 18 43 50l42 -31
q-3 -21 -20 -42.5t-47 -35.5q-9 -3 -29 -3q-9 0 -30 1t-31 1q-25 0 -39 -6q-8 -2 -16.5 -8.5t-12.5 -10.5t-14 -16.5t-13 -15.5l-39 34q6 17 27.5 40t48.5 37z" />
    <glyph glyph-name="Ini_exclam" unicode="&#x53b;&#x55c;" horiz-adv-x="723" 
d="M343 894q15 7 35 7q12 0 34.5 -3.5t32.5 -3.5q15 0 28 6q28 18 43 50l42 -31q-3 -21 -20 -42.5t-47 -35.5q-9 -3 -29 -3q-9 0 -30 1t-31 1q-25 0 -39 -6q-8 -2 -16.5 -8.5t-12.5 -10.5t-14 -16.5t-13 -15.5l-39 34q6 17 27.5 40t48.5 37zM187 707v-225q81 78 215 78
q52 0 96 -13.5t83 -44t61.5 -87.5t22.5 -136v-116h-83v112q0 214 -192 214q-68 0 -124 -23.5t-79 -72.5v-393h-83v707h83z" />
    <glyph glyph-name="Vo_exclam" unicode="&#x548;&#x55c;" horiz-adv-x="779" 
d="M315 894q15 7 35 7q12 0 34.5 -3.5t32.5 -3.5q15 0 28 6q28 18 43 50l42 -31q-3 -21 -20 -42.5t-47 -35.5q-9 -3 -29 -3q-9 0 -30 1t-31 1q-25 0 -39 -6q-8 -2 -16.5 -8.5t-12.5 -10.5t-14 -16.5t-13 -15.5l-39 34q6 17 27.5 40t48.5 37zM378 717q56 0 102 -12.5
t88.5 -42t66.5 -86.5t24 -138v-438h-82v433q0 113 -54.5 163t-144.5 50q-86 0 -143.5 -49t-57.5 -159v-438h-81v444q0 73 24.5 128t66 85.5t89.5 45t102 14.5z" />
    <glyph glyph-name="Yiwn_exclam" unicode="&#x552;&#x55c;" horiz-adv-x="606" 
d="M104 707h84v-170q50 20 112 20q44 0 76.5 -15t49 -38t28.5 -53.5t16.5 -58.5t11.5 -56.5t15 -43.5q17 -31 41 -43.5t70 -12.5l-7 -72q-17 -4 -38 -4q-75 0 -120 68q-21 31 -33.5 81t-18.5 86.5t-30.5 64t-70.5 27.5q-59 0 -102 -16v-471h-84v707zM298 894q15 7 35 7
q12 0 34.5 -3.5t32.5 -3.5q14 0 28 6q28 18 43 50l42 -31q-3 -21 -20 -42.5t-47 -35.5q-9 -3 -29 -3q-9 0 -30 1t-31 1q-25 0 -39 -6q-8 -2 -16.5 -8.5t-12.5 -10.5t-14 -16.5t-13 -15.5l-39 34q6 17 27.5 40t48.5 37z" />
    <glyph glyph-name="Oh_exclam" unicode="&#x555;&#x55c;" horiz-adv-x="887" 
d="M354 894q15 7 35 7q12 0 34.5 -3.5t32.5 -3.5q14 0 28 6q28 18 43 50l42 -31q-3 -21 -20 -42.5t-47 -35.5q-9 -3 -29 -3q-9 0 -30 1t-31 1q-25 0 -39 -6q-8 -2 -16.5 -8.5t-12.5 -10.5t-14 -16.5t-13 -15.5l-39 34q6 17 27.5 40t48.5 37zM405 -12q-162 0 -254 101
t-92 266t100.5 263.5t264.5 98.5q165 0 254 -101.5t89 -262.5q0 -164 -97.5 -264.5t-264.5 -100.5zM408 56q135 0 205.5 82.5t70.5 215.5q0 130 -71.5 212.5t-197.5 82.5q-132 0 -203 -81.5t-71 -211.5q0 -128 69.5 -214t197.5 -86z" />
    <glyph glyph-name="ayb_exclam" unicode="&#x561;&#x55c;" horiz-adv-x="958" 
d="M412 894q15 7 35 7q12 0 34.5 -3.5t32.5 -3.5q14 0 28 6q28 18 43 50l42 -31q-3 -21 -20 -42.5t-47 -35.5q-9 -3 -29 -3q-9 0 -30 1t-31 1q-25 0 -39 -6q-8 -2 -16.5 -8.5t-12.5 -10.5t-14 -16.5t-13 -15.5l-39 34q6 17 27.5 40t48.5 37zM602 -12q-114 0 -148 87
q-38 -26 -58.5 -38.5t-67 -30.5t-85.5 -18q-44 0 -76 13.5t-48.5 32.5t-26 50t-11.5 55.5t-2 58.5v324h78v-308q0 -31 1.5 -50t7 -41t16.5 -34t31.5 -20.5t49.5 -8.5q67 0 178 70q-3 20 -3 72v320h78v-308q0 -31 1.5 -50t7 -41t16.5 -34t31.5 -20.5t49.5 -8.5q65 0 174 68
v394h77v-522h-77v64q-1 -1 -18.5 -12.5t-23.5 -15t-23.5 -13.5t-29.5 -14t-29.5 -10t-34.5 -8.5t-35 -2.5z" />
    <glyph glyph-name="ech_exclam" unicode="&#x565;&#x55c;" horiz-adv-x="597" 
d="M287 894q15 7 35 7q12 0 34.5 -3.5t32.5 -3.5q15 0 28 6q28 18 43 50l42 -31q-3 -21 -20 -42.5t-47 -35.5q-9 -3 -29 -3q-9 0 -30 1t-31 1q-25 0 -39 -6q-8 -2 -16.5 -8.5t-12.5 -10.5t-14 -16.5t-13 -15.5l-39 34q6 17 27.5 40t48.5 37zM514 456h-357v-242
q0 -31 1.5 -50t7 -41t16.5 -34t31.5 -20.5t49.5 -8.5q62 0 175 68v151h76v-279h-76v64q-3 -2 -19 -12.5t-24 -15l-24 -13.5t-28.5 -14t-29.5 -10.5t-34.5 -8t-35.5 -2.5q-44 0 -76 13.5t-48.5 32.5t-26 50t-11.5 55.5t-2 58.5v556h78v-232h357v-66z" />
    <glyph glyph-name="eh_exclam" unicode="&#x567;&#x55c;" horiz-adv-x="483" 
d="M249 894q15 7 35 7q12 0 34.5 -3.5t32.5 -3.5q15 0 28 6q28 18 43 50l42 -31q-3 -21 -20 -42.5t-47 -35.5q-9 -3 -29 -3q-9 0 -30 1t-31 1q-25 0 -39 -6q-8 -2 -16.5 -8.5t-12.5 -10.5t-14 -16.5t-13 -15.5l-39 34q6 17 27.5 40t48.5 37zM431 456h-268v-390h114
q69 0 96 -27.5t34 -80.5l-71 -22q-3 33 -19 48.5t-63 15.5h-169v754h78v-232h268v-66z" />
    <glyph glyph-name="et_exclam" unicode="&#x568;&#x55c;" 
d="M87 -220v742h78v-62q33 23 55.5 36.5t60.5 26.5t75 13q46 0 79 -13.5t50 -32t26.5 -49.5t11.5 -54.5t2 -58.5v-328h-76v313q0 79 -22 116t-92 37q-10 0 -20.5 -1t-21.5 -4.5t-20 -6t-21 -8t-18.5 -8.5t-19 -10t-17 -9.5t-17.5 -10.5t-15 -9v-554h360v-65h-438zM275 894
q15 7 35 7q12 0 34.5 -3.5t32.5 -3.5q15 0 28 6q28 18 43 50l42 -31q-3 -21 -20 -42.5t-47 -35.5q-9 -3 -29 -3q-9 0 -30 1t-31 1q-25 0 -39 -6q-8 -2 -16.5 -8.5t-12.5 -10.5t-14 -16.5t-13 -15.5l-39 34q6 17 27.5 40t48.5 37z" />
    <glyph glyph-name="ini_exclam" unicode="&#x56b;&#x55c;" 
d="M289 894q15 7 35 7q12 0 34.5 -3.5t32.5 -3.5q15 0 28 6q28 18 43 50l42 -31q-3 -21 -20 -42.5t-47 -35.5q-9 -3 -29 -3q-9 0 -30 1t-31 1q-25 0 -39 -6q-8 -2 -16.5 -8.5t-12.5 -10.5t-14 -16.5t-13 -15.5l-39 34q6 17 27.5 40t48.5 37zM87 -220v974h78v-294
q33 23 55.5 36.5t60.5 26.5t75 13q46 0 79 -13.5t50 -32t26.5 -49.5t11.5 -54.5t2 -58.5v-328h-76v313q0 79 -22 116t-92 37q-10 0 -20.5 -1t-21.5 -4.5t-20 -6t-21 -8t-18.5 -8.5t-19 -10t-17 -9.5t-17.5 -10.5t-15 -9v-619h-78z" />
    <glyph glyph-name="vo_exclam" unicode="&#x578;&#x55c;" 
d="M256 894q15 7 35 7q12 0 34.5 -3.5t32.5 -3.5q14 0 28 6q28 18 43 50l42 -31q-3 -21 -20 -42.5t-47 -35.5q-9 -3 -29 -3q-9 0 -30 1t-31 1q-25 0 -39 -6q-8 -2 -16.5 -8.5t-12.5 -10.5t-14 -16.5t-13 -15.5l-39 34q6 17 27.5 40t48.5 37zM87 0v522h78v-62
q33 23 55.5 36.5t60.5 26.5t75 13q46 0 79 -13.5t50 -32t26.5 -49.5t11.5 -54.5t2 -58.5v-328h-76v313q0 79 -22 116t-92 37q-10 0 -20.5 -1t-21.5 -4.5t-20 -6t-21 -8t-18.5 -8.5t-19 -10t-17 -9.5t-17.5 -10.5t-15 -9v-399h-78z" />
    <glyph glyph-name="yiwn_exclam" unicode="&#x582;&#x55c;" horiz-adv-x="284" 
d="M83 0v522h78v-456h132v-66h-210zM138 894q15 7 35 7q12 0 34.5 -3.5t32.5 -3.5q14 0 28 6q28 18 43 50l42 -31q-3 -21 -20 -42.5t-47 -35.5q-9 -3 -29 -3q-9 0 -30 1t-31 1q-25 0 -39 -6q-8 -2 -16.5 -8.5t-12.5 -10.5t-14 -16.5t-13 -15.5l-39 34q6 17 27.5 40t48.5 37z
" />
    <glyph glyph-name="oh_exclam" unicode="&#x585;&#x55c;" horiz-adv-x="600" 
d="M230 894q15 7 35 7q12 0 34.5 -3.5t32.5 -3.5q14 0 28 6q28 18 43 50l42 -31q-3 -21 -20 -42.5t-47 -35.5q-9 -3 -29 -3q-9 0 -30 1t-31 1q-25 0 -39 -6q-8 -2 -16.5 -8.5t-12.5 -10.5t-14 -16.5t-13 -15.5l-39 34q6 17 27.5 40t48.5 37zM297 -12q-116 0 -180 68t-64 200
q0 137 68.5 209t182.5 72q242 0 242 -276q0 -137 -68 -205t-181 -68zM303 53q163 0 163 208q0 211 -165 211q-47 0 -81.5 -18t-52.5 -49.5t-26 -67t-8 -77.5q0 -207 170 -207z" />
    <glyph glyph-name="men_ech_exclam" unicode="&#xfb14;&#x55c;" horiz-adv-x="1258" 
d="M936 894q15 7 35 7q12 0 34.5 -3.5t32.5 -3.5q14 0 28 6q28 18 43 50l42 -31q-3 -21 -20 -42.5t-47 -35.5q-9 -3 -29 -3q-9 0 -30 1t-31 1q-25 0 -39 -6q-8 -2 -16.5 -8.5t-12.5 -10.5t-14 -16.5t-13 -15.5l-39 34q6 17 27.5 40t48.5 37zM904 -12q-44 0 -76 13.5
t-48.5 32.5t-26 50t-11.5 55.5t-2 58.5v468q-79 28 -122 28q-63 0 -83.5 -29.5t-20.5 -80.5v-584h-76v64q-3 -2 -19 -12.5t-24 -15l-24 -13.5t-28.5 -14t-29.5 -10.5t-34.5 -8t-35.5 -2.5q-44 0 -75.5 13.5t-48.5 32.5t-26.5 50t-11.5 55.5t-2 58.5v324h78v-308
q0 -31 1.5 -50t7 -41t16.5 -34t31.5 -20.5t49.5 -8.5q62 0 175 68v457q0 28 3 50.5t14 47.5t29 42t50 28t75 11q99 0 209 -43v-199h357v-66h-357v-242q0 -31 1.5 -50t7 -41t16.5 -34t31.5 -20.5t49.5 -8.5q65 0 174 68v151h77v-279h-77v64q-1 -1 -18.5 -12.5t-23.5 -15
t-23.5 -13.5t-29.5 -14t-29.5 -10t-34.5 -8.5t-35 -2.5z" />
    <glyph glyph-name="men_ini_exclam" unicode="&#xfb15;&#x55c;" horiz-adv-x="1257" 
d="M243 -12q-44 0 -75.5 13.5t-48.5 32.5t-26.5 50t-11.5 55.5t-2 58.5v324h78v-308q0 -31 1.5 -50t7 -41t16.5 -34t31.5 -20.5t49.5 -8.5q62 0 175 68v457q0 28 3 50.5t14 47.5t29 42t50 28t75 11q62 0 209 -42v-262q33 23 55.5 36.5t60.5 26.5t75 13q46 0 79 -13.5t50 -32
t26.5 -49.5t11.5 -54.5t2 -58.5v-328h-76v313q0 80 -22 116.5t-92 36.5q-10 0 -20.5 -1t-21.5 -4.5t-20 -6t-21 -8t-18.5 -8.5t-19 -10t-17 -9.5t-17.5 -10.5t-15 -9v-619h-78v886q-79 28 -122 28q-63 0 -83.5 -29.5t-20.5 -80.5v-584h-76v64q-3 -2 -19 -12.5t-24 -15
l-24 -13.5t-28.5 -14t-29.5 -10.5t-34.5 -8t-35.5 -2.5zM931 894q15 7 35 7q12 0 34.5 -3.5t32.5 -3.5q15 0 28 6q28 18 43 50l42 -31q-3 -21 -20 -42.5t-47 -35.5q-9 -3 -29 -3q-9 0 -30 1t-31 1q-25 0 -39 -6q-8 -2 -16.5 -8.5t-12.5 -10.5t-14 -16.5t-13 -15.5l-39 34
q6 17 27.5 40t48.5 37z" />
    <glyph glyph-name="Ayb_question" unicode="&#x531;&#x55e;" horiz-adv-x="797" 
d="M593 912q-48 0 -75.5 -36.5t-48.5 -101.5l-41 25q20 88 65.5 129t105.5 41q51 0 80.5 -25t29.5 -68q0 -48 -34 -71t-87 -25l-7 37q73 8 73 51q0 44 -61 44zM380 -12q-56 0 -103 12t-89.5 39.5t-67 80.5t-24.5 126v461h84v-454q0 -194 200 -194q202 0 202 217v431h79v-434
q0 -94 -36 -159l144 -91l-40 -60l-144 97q-75 -72 -205 -72z" />
    <glyph glyph-name="Ech_question" unicode="&#x535;&#x55e;" horiz-adv-x="751" 
d="M612 912q-48 0 -75.5 -36.5t-48.5 -101.5l-41 25q20 88 65.5 129t105.5 41q51 0 80.5 -25t29.5 -68q0 -48 -34 -71t-87 -25l-7 37q73 8 73 51q0 44 -61 44zM661 477h-482v-224q0 -194 202 -194q198 0 201 205l79 -15q-4 -74 -30.5 -128t-68.5 -81.5t-86.5 -39.5
t-94.5 -12q-56 0 -103 12t-90 39.5t-67.5 80.5t-24.5 126v461h83v-161h482v-69z" />
    <glyph glyph-name="Eh_question" unicode="&#x537;&#x55e;" horiz-adv-x="629" 
d="M484 912q-48 0 -75.5 -36.5t-48.5 -101.5l-41 25q20 88 65.5 129t105.5 41q51 0 80.5 -25t29.5 -68q0 -48 -34 -71t-87 -25l-7 37q73 8 73 51q0 44 -61 44zM525 477h-339v-408h121q171 0 199 -132l-65 -28q-21 91 -124 91h-213v707h82v-161h339v-69z" />
    <glyph glyph-name="Et_question" unicode="&#x538;&#x55e;" horiz-adv-x="776" 
d="M661 0h-565v454q0 72 24.5 125.5t66.5 82t90 42t102 13.5q56 0 103 -13t89 -42.5t66 -86.5t24 -137l-83 -5q0 213 -199 213q-41 0 -74.5 -9t-63.5 -30t-47 -61.5t-17 -97.5v-379h484v-69zM622 912q-48 0 -75.5 -36.5t-48.5 -101.5l-41 25q20 88 65.5 129t105.5 41
q51 0 80.5 -25t29.5 -68q0 -48 -34 -71t-87 -25l-7 37q73 8 73 51q0 44 -61 44z" />
    <glyph glyph-name="Ini_question" unicode="&#x53b;&#x55e;" horiz-adv-x="723" 
d="M675 912q-48 0 -75.5 -36.5t-48.5 -101.5l-41 25q20 88 65.5 129t105.5 41q51 0 80.5 -25t29.5 -68q0 -48 -34 -71t-87 -25l-7 37q73 8 73 51q0 44 -61 44zM187 707v-225q81 78 215 78q52 0 96 -13.5t83 -44t61.5 -87.5t22.5 -136v-116h-83v112q0 214 -192 214
q-68 0 -124 -23.5t-79 -72.5v-393h-83v707h83z" />
    <glyph glyph-name="Vo_question" unicode="&#x548;&#x55e;" horiz-adv-x="779" 
d="M691 912q-48 0 -75.5 -36.5t-48.5 -101.5l-41 25q20 88 65.5 129t105.5 41q51 0 80.5 -25t29.5 -68q0 -48 -34 -71t-87 -25l-7 37q73 8 73 51q0 44 -61 44zM378 717q56 0 102 -12.5t88.5 -42t66.5 -86.5t24 -138v-438h-82v433q0 113 -54.5 163t-144.5 50
q-86 0 -143.5 -49t-57.5 -159v-438h-81v444q0 73 24.5 128t66 85.5t89.5 45t102 14.5z" />
    <glyph glyph-name="Yiwn_question" unicode="&#x552;&#x55e;" horiz-adv-x="659" 
d="M104 707h84v-170q50 20 112 20q44 0 76.5 -15t49 -38t28.5 -53.5t16.5 -58.5t11.5 -56.5t15 -43.5q17 -31 41 -43.5t70 -12.5l-7 -72q-17 -4 -38 -4q-75 0 -120 68q-21 31 -33.5 81t-18.5 86.5t-30.5 64t-70.5 27.5q-59 0 -102 -16v-471h-84v707zM559 912
q-48 0 -75.5 -36.5t-48.5 -101.5l-41 25q20 88 65.5 129t105.5 41q51 0 80.5 -25t29.5 -68q0 -48 -34 -71t-87 -25l-7 37q73 8 73 51q0 44 -61 44z" />
    <glyph glyph-name="Oh_question" unicode="&#x555;&#x55e;" horiz-adv-x="871" 
d="M698 912q-48 0 -75.5 -36.5t-48.5 -101.5l-41 25q20 88 65.5 129t105.5 41q51 0 80.5 -25t29.5 -68q0 -48 -34 -71t-87 -25l-7 37q73 8 73 51q0 44 -61 44zM405 -12q-162 0 -254 101t-92 266t100.5 263.5t264.5 98.5q165 0 254 -101.5t89 -262.5q0 -164 -97.5 -264.5
t-264.5 -100.5zM408 56q135 0 205.5 82.5t70.5 215.5q0 130 -71.5 212.5t-197.5 82.5q-132 0 -203 -81.5t-71 -211.5q0 -128 69.5 -214t197.5 -86z" />
    <glyph glyph-name="ayb_question" unicode="&#x561;&#x55e;" horiz-adv-x="961" 
d="M805 912q-48 0 -75.5 -36.5t-48.5 -101.5l-41 25q20 88 65.5 129t105.5 41q51 0 80.5 -25t29.5 -68q0 -48 -34 -71t-87 -25l-7 37q73 8 73 51q0 44 -61 44zM602 -12q-114 0 -148 87q-38 -26 -58.5 -38.5t-67 -30.5t-85.5 -18q-44 0 -76 13.5t-48.5 32.5t-26 50
t-11.5 55.5t-2 58.5v324h78v-308q0 -31 1.5 -50t7 -41t16.5 -34t31.5 -20.5t49.5 -8.5q67 0 178 70q-3 20 -3 72v320h78v-308q0 -31 1.5 -50t7 -41t16.5 -34t31.5 -20.5t49.5 -8.5q65 0 174 68v394h77v-522h-77v64q-1 -1 -18.5 -12.5t-23.5 -15t-23.5 -13.5t-29.5 -14
t-29.5 -10t-34.5 -8.5t-35 -2.5z" />
    <glyph glyph-name="ech_question" unicode="&#x565;&#x55e;" horiz-adv-x="595" 
d="M515 912q-48 0 -75.5 -36.5t-48.5 -101.5l-41 25q20 88 65.5 129t105.5 41q51 0 80.5 -25t29.5 -68q0 -48 -34 -71t-87 -25l-7 37q73 8 73 51q0 44 -61 44zM514 456h-357v-242q0 -31 1.5 -50t7 -41t16.5 -34t31.5 -20.5t49.5 -8.5q62 0 175 68v151h76v-279h-76v64
q-3 -2 -19 -12.5t-24 -15l-24 -13.5t-28.5 -14t-29.5 -10.5t-34.5 -8t-35.5 -2.5q-44 0 -76 13.5t-48.5 32.5t-26 50t-11.5 55.5t-2 58.5v556h78v-232h357v-66z" />
    <glyph glyph-name="eh_question" unicode="&#x567;&#x55e;" horiz-adv-x="483" 
d="M401 912q-48 0 -75.5 -36.5t-48.5 -101.5l-41 25q20 88 65.5 129t105.5 41q51 0 80.5 -25t29.5 -68q0 -48 -34 -71t-87 -25l-7 37q73 8 73 51q0 44 -61 44zM431 456h-268v-390h114q69 0 96 -27.5t34 -80.5l-71 -22q-3 33 -19 48.5t-63 15.5h-169v754h78v-232h268v-66z
" />
    <glyph glyph-name="et_question" unicode="&#x568;&#x55e;" 
d="M87 -220v742h78v-62q33 23 55.5 36.5t60.5 26.5t75 13q46 0 79 -13.5t50 -32t26.5 -49.5t11.5 -54.5t2 -58.5v-328h-76v313q0 79 -22 116t-92 37q-10 0 -20.5 -1t-21.5 -4.5t-20 -6t-21 -8t-18.5 -8.5t-19 -10t-17 -9.5t-17.5 -10.5t-15 -9v-554h360v-65h-438zM495 912
q-48 0 -75.5 -36.5t-48.5 -101.5l-41 25q20 88 65.5 129t105.5 41q51 0 80.5 -25t29.5 -68q0 -48 -34 -71t-87 -25l-7 37q73 8 73 51q0 44 -61 44z" />
    <glyph glyph-name="ini_question" unicode="&#x56b;&#x55e;" 
d="M503 912q-48 0 -75.5 -36.5t-48.5 -101.5l-41 25q20 88 65.5 129t105.5 41q51 0 80.5 -25t29.5 -68q0 -48 -34 -71t-87 -25l-7 37q73 8 73 51q0 44 -61 44zM87 -220v974h78v-294q33 23 55.5 36.5t60.5 26.5t75 13q46 0 79 -13.5t50 -32t26.5 -49.5t11.5 -54.5t2 -58.5
v-328h-76v313q0 79 -22 116t-92 37q-10 0 -20.5 -1t-21.5 -4.5t-20 -6t-21 -8t-18.5 -8.5t-19 -10t-17 -9.5t-17.5 -10.5t-15 -9v-619h-78z" />
    <glyph glyph-name="vo_question" unicode="&#x578;&#x55e;" 
d="M520 912q-48 0 -75.5 -36.5t-48.5 -101.5l-41 25q20 88 65.5 129t105.5 41q51 0 80.5 -25t29.5 -68q0 -48 -34 -71t-87 -25l-7 37q73 8 73 51q0 44 -61 44zM87 0v522h78v-62q33 23 55.5 36.5t60.5 26.5t75 13q46 0 79 -13.5t50 -32t26.5 -49.5t11.5 -54.5t2 -58.5v-328
h-76v313q0 79 -22 116t-92 37q-10 0 -20.5 -1t-21.5 -4.5t-20 -6t-21 -8t-18.5 -8.5t-19 -10t-17 -9.5t-17.5 -10.5t-15 -9v-399h-78z" />
    <glyph glyph-name="yiwn_question" unicode="&#x582;&#x55e;" horiz-adv-x="370" 
d="M124 0v522h78v-456h132v-66h-210zM315 912q-48 0 -75.5 -36.5t-48.5 -101.5l-41 25q20 88 65.5 129t105.5 41q51 0 80.5 -25t29.5 -68q0 -48 -34 -71t-87 -25l-7 37q73 8 73 51q0 44 -61 44z" />
    <glyph glyph-name="oh_question" unicode="&#x585;&#x55e;" horiz-adv-x="600" 
d="M519 912q-48 0 -75.5 -36.5t-48.5 -101.5l-41 25q20 88 65.5 129t105.5 41q51 0 80.5 -25t29.5 -68q0 -48 -34 -71t-87 -25l-7 37q73 8 73 51q0 44 -61 44zM297 -12q-116 0 -180 68t-64 200q0 137 68.5 209t182.5 72q242 0 242 -276q0 -137 -68 -205t-181 -68zM303 53
q163 0 163 208q0 211 -165 211q-47 0 -81.5 -18t-52.5 -49.5t-26 -67t-8 -77.5q0 -207 170 -207z" />
    <glyph glyph-name="men_ech_question" unicode="&#xfb14;&#x55e;" horiz-adv-x="1258" 
d="M1178 912q-48 0 -75.5 -36.5t-48.5 -101.5l-41 25q20 88 65.5 129t105.5 41q51 0 80.5 -25t29.5 -68q0 -48 -34 -71t-87 -25l-7 37q73 8 73 51q0 44 -61 44zM904 -12q-44 0 -76 13.5t-48.5 32.5t-26 50t-11.5 55.5t-2 58.5v468q-79 28 -122 28q-63 0 -83.5 -29.5
t-20.5 -80.5v-584h-76v64q-3 -2 -19 -12.5t-24 -15l-24 -13.5t-28.5 -14t-29.5 -10.5t-34.5 -8t-35.5 -2.5q-44 0 -75.5 13.5t-48.5 32.5t-26.5 50t-11.5 55.5t-2 58.5v324h78v-308q0 -31 1.5 -50t7 -41t16.5 -34t31.5 -20.5t49.5 -8.5q62 0 175 68v457q0 28 3 50.5t14 47.5
t29 42t50 28t75 11q99 0 209 -43v-199h357v-66h-357v-242q0 -31 1.5 -50t7 -41t16.5 -34t31.5 -20.5t49.5 -8.5q65 0 174 68v151h77v-279h-77v64q-1 -1 -18.5 -12.5t-23.5 -15t-23.5 -13.5t-29.5 -14t-29.5 -10t-34.5 -8.5t-35 -2.5z" />
    <glyph glyph-name="men_ini_question" unicode="&#xfb15;&#x55e;" horiz-adv-x="1257" 
d="M243 -12q-44 0 -75.5 13.5t-48.5 32.5t-26.5 50t-11.5 55.5t-2 58.5v324h78v-308q0 -31 1.5 -50t7 -41t16.5 -34t31.5 -20.5t49.5 -8.5q62 0 175 68v457q0 28 3 50.5t14 47.5t29 42t50 28t75 11q62 0 209 -42v-262q33 23 55.5 36.5t60.5 26.5t75 13q46 0 79 -13.5t50 -32
t26.5 -49.5t11.5 -54.5t2 -58.5v-328h-76v313q0 80 -22 116.5t-92 36.5q-10 0 -20.5 -1t-21.5 -4.5t-20 -6t-21 -8t-18.5 -8.5t-19 -10t-17 -9.5t-17.5 -10.5t-15 -9v-619h-78v886q-79 28 -122 28q-63 0 -83.5 -29.5t-20.5 -80.5v-584h-76v64q-3 -2 -19 -12.5t-24 -15
l-24 -13.5t-28.5 -14t-29.5 -10.5t-34.5 -8t-35.5 -2.5zM1177 912q-48 0 -75.5 -36.5t-48.5 -101.5l-41 25q20 88 65.5 129t105.5 41q51 0 80.5 -25t29.5 -68q0 -48 -34 -71t-87 -25l-7 37q73 8 73 51q0 44 -61 44z" />
    <glyph glyph-name=".notdef" horiz-adv-x="712" 
d="M305 375v27h27v-27h-27zM380 525v27h27v-27h-27zM305 525v27h27v-27h-27zM230 525v27h27v-27h-27zM80 0v27h27v-27h-27zM155 0v27h27v-27h-27zM230 0v27h27v-27h-27zM305 0v27h27v-27h-27zM380 0v27h27v-27h-27zM80 75v27h27v-27h-27zM80 150v27h27v-27h-27zM80 225v27
h27v-27h-27zM80 300v27h27v-27h-27zM80 375v27h27v-27h-27zM80 450v27h27v-27h-27zM80 525v27h27v-27h-27zM80 600v27h27v-27h-27zM80 675v27h27v-27h-27zM155 675v27h27v-27h-27zM230 675v27h27v-27h-27zM305 675v27h27v-27h-27zM380 675v27h27v-27h-27zM455 675v27h27v-27
h-27zM530 675v27h27v-27h-27zM530 0v27h27v-27h-27zM455 0v27h27v-27h-27zM605 0v27h27v-27h-27zM605 675v27h27v-27h-27zM305 300v27h27v-27h-27zM305 150v27h27v-27h-27zM380 375v27h27v-27h-27zM455 375v27h27v-27h-27zM455 450v27h27v-27h-27zM455 525v27h27v-27h-27z
M605 600v27h27v-27h-27zM605 525v27h27v-27h-27zM605 375v27h27v-27h-27zM605 300v27h27v-27h-27zM605 150v27h27v-27h-27zM605 75v27h27v-27h-27zM605 225v27h27v-27h-27zM605 450v27h27v-27h-27z" />
    <glyph glyph-name=".null" horiz-adv-x="0" 
 />
    <glyph glyph-name="nonmarkingreturn" horiz-adv-x="333" 
 />
    <glyph glyph-name="space" unicode=" " horiz-adv-x="263" 
 />
    <glyph glyph-name="exclam" unicode="!" horiz-adv-x="273" 
d="M102 172l-5 140v395h79v-395l-4 -140h-70zM91 0v87h90v-87h-90z" />
    <glyph glyph-name="quotedbl" unicode="&#x22;" horiz-adv-x="360" 
d="M67 515l-4 238h69l-6 -238h-59zM234 515l-4 238h69l-6 -238h-59z" />
    <glyph glyph-name="numbersign" unicode="#" horiz-adv-x="608" 
d="M132 0l8 151h-89v67h92l8 129h-100v67h104l8 152h74l-7 -152h168l8 152h74l-7 -152h84v-67h-89l-7 -129h96v-67h-100l-8 -151h-74l8 151h-169l-8 -151h-74zM218 218h169l7 129h-169z" />
    <glyph glyph-name="dollar" unicode="$" horiz-adv-x="499" 
d="M210 -99l1 94q-99 4 -170 38l25 64q94 -34 168 -34q135 0 135 85q0 22 -19.5 41t-37 27t-50.5 21q-5 2 -25.5 10t-27.5 11t-25.5 11t-27 13t-24 15t-22.5 17.5t-17.5 19.5t-15.5 23.5t-8.5 26.5t-3.5 31q0 57 39.5 90t106.5 43l-1 96h70l-2 -93q83 -2 151 -30l-22 -60
q-82 24 -144 24q-117 0 -117 -69q0 -23 18.5 -42.5t36.5 -28.5t49 -22q7 -3 41 -17t47.5 -20.5t40 -22.5t39 -29.5t23 -35t10.5 -45.5q0 -74 -47.5 -111.5t-125.5 -44.5l3 -96h-71z" />
    <glyph glyph-name="percent" unicode="%" horiz-adv-x="779" 
d="M198 387q-67 0 -109.5 39t-42.5 119q0 78 45 123.5t110 45.5q154 0 154 -162q0 -76 -45.5 -120.5t-111.5 -44.5zM198 445q40 0 64.5 28.5t24.5 78.5t-21.5 78t-64.5 28q-37 0 -61 -28.5t-24 -84.5q0 -100 82 -100zM581 -9q-67 0 -109.5 39t-42.5 119q0 79 45 124t110 45
q153 0 153 -161q0 -77 -45 -121.5t-111 -44.5zM581 50q40 0 64.5 28.5t24.5 78.5q0 49 -22 77t-64 28q-37 0 -61 -28.5t-24 -84.5q0 -99 82 -99zM137 58l-43 46l534 532l42 -45z" />
    <glyph glyph-name="ampersand" unicode="&#x26;" horiz-adv-x="681" 
d="M244 -8q-36 0 -68.5 8.5t-61.5 27t-46 53t-17 81.5q0 70 33.5 116t102.5 98q-37 89 -37 171q0 67 42 114.5t122 47.5q73 0 108 -39t35 -98q0 -22 -5.5 -41t-18.5 -37t-23.5 -30.5t-33 -29t-34 -24.5t-39 -25t-36.5 -23q56 -122 166.5 -203.5t235.5 -96.5l-9 -65
q-117 9 -221 71q-47 -39 -88 -57.5t-107 -18.5zM256 55q64 0 130 49q-112 84 -174 212q-87 -70 -87 -148q0 -61 38.5 -87t92.5 -26zM244 417q4 2 24 15.5t28 19t26 18.5t26.5 22.5t19.5 22.5t15.5 26t4.5 26q0 37 -22 59t-57 22q-43 0 -66.5 -25.5t-23.5 -67.5
q0 -66 25 -138z" />
    <glyph glyph-name="quotesingle" unicode="'" horiz-adv-x="195" 
d="M67 515l-4 238h71l-6 -238h-61z" />
    <glyph glyph-name="parenleft" unicode="(" horiz-adv-x="310" 
d="M305 -172l-42 -49q-217 192 -217 504q0 175 63.5 296.5t153.5 186.5l43 -48q-184 -162 -184 -435q0 -274 183 -455z" />
    <glyph glyph-name="parenright" unicode=")" horiz-adv-x="310" 
d="M47 -221l-42 49q183 181 183 455q0 273 -184 435l43 48q90 -65 153.5 -186.5t63.5 -296.5q0 -312 -217 -504z" />
    <glyph glyph-name="asterisk" unicode="*" horiz-adv-x="442" 
d="M84 466l-34 60l107 44l19 -33zM158 598l-108 45l35 60l92 -71zM185 408l17 114h38l15 -114h-70zM203 646l-17 116h71l-16 -116h-38zM357 465l-92 71l21 34l106 -43zM285 600l-20 32l92 71l35 -60z" />
    <glyph glyph-name="plus" unicode="+" horiz-adv-x="596" 
d="M258 54v216h-215v66l215 -1v222h68l-1 -223l227 2v-66h-227l1 -216h-68z" />
    <glyph glyph-name="comma" unicode="," horiz-adv-x="227" 
d="M47 -125q25 60 25 140v68h83v-37q0 -93 -40 -171h-68z" />
    <glyph glyph-name="hyphen" unicode="-" horiz-adv-x="417" 
d="M59 252v69h298v-69h-298z" />
    <glyph glyph-name="period" unicode="." horiz-adv-x="238" 
d="M71 0v94h95v-94h-95z" />
    <glyph glyph-name="slash" unicode="/" horiz-adv-x="369" 
d="M31 -62l233 828h73l-232 -828h-74z" />
    <glyph glyph-name="zero" unicode="0" horiz-adv-x="675" 
d="M336 -12q-131 0 -209 72t-78 212q0 139 79.5 213.5t211.5 74.5q129 0 207.5 -75t78.5 -209q0 -142 -80 -215t-210 -73zM337 57q91 0 149.5 57.5t58.5 160.5q0 98 -58 157.5t-149 59.5q-93 0 -150 -56t-57 -164q0 -101 58 -158t148 -57z" />
    <glyph glyph-name="one" unicode="1" horiz-adv-x="346" 
d="M172 0v491h-141v62l222 7v-560h-81z" />
    <glyph glyph-name="two" unicode="2" horiz-adv-x="486" 
d="M39 0v65q13 11 60.5 49t81 67t73.5 67.5t61.5 72.5t21.5 61q0 60 -29.5 84.5t-85.5 24.5q-71 0 -133 -37l-28 59q23 17 69 32t97 15q101 0 145.5 -48.5t44.5 -125.5q0 -43 -26.5 -89t-77.5 -93t-83.5 -73t-85.5 -64h299v-67h-404z" />
    <glyph glyph-name="three" unicode="3" horiz-adv-x="444" 
d="M170 -167q-114 0 -181 29l19 65q74 -26 152 -26q34 0 59.5 4.5t50.5 16.5t38 37.5t13 64.5q0 59 -43 98t-113 51q-14 2 -38 4v61q32 4 34 4q55 13 92 52.5t37 88.5q0 57 -36.5 82.5t-91.5 25.5q-70 0 -114 -22l-23 58q66 32 147 32q88 0 140.5 -44.5t52.5 -124.5
q0 -65 -41 -112.5t-90 -61.5q62 -17 113.5 -65t51.5 -121q0 -100 -63 -148.5t-166 -48.5z" />
    <glyph glyph-name="four" unicode="4" horiz-adv-x="574" 
d="M343 -161v189h-314v66l267 452h127v-448h122v-70h-122v-189h-80zM107 98h236v401z" />
    <glyph glyph-name="five" unicode="5" horiz-adv-x="486" 
d="M206 -170q-101 0 -172 22l20 71q71 -20 152 -20q69 0 112.5 36.5t43.5 100.5q0 80 -42.5 115.5t-113.5 35.5q-55 0 -147 -10v365h357v-68h-281v-223q53 5 90 5q99 0 158 -56t59 -153q0 -105 -65 -163t-171 -58z" />
    <glyph glyph-name="six" unicode="6" horiz-adv-x="555" 
d="M214 359l-6 65q43 12 94 12q104 0 158 -57.5t54 -152.5q0 -114 -61 -176t-161 -62q-118 0 -176.5 70.5t-58.5 244.5q0 201 82.5 306.5t221.5 105.5q63 0 101 -14l-16 -66q-32 10 -85 10q-62 0 -107.5 -28.5t-70.5 -79.5t-36.5 -110t-11.5 -130q0 -124 35 -182.5
t129 -58.5q63 0 99.5 45.5t36.5 114.5q0 76 -39 114t-104 38q-29 0 -78 -9z" />
    <glyph glyph-name="seven" unicode="7" horiz-adv-x="484" 
d="M149 -173l-71 27l300 619h-348v73h428v-68z" />
    <glyph glyph-name="eight" unicode="8" horiz-adv-x="560" 
d="M278 -12q-104 0 -166 47t-62 128q0 71 42.5 117t119.5 90q-64 40 -99 81.5t-35 99.5q0 78 56.5 121.5t153.5 43.5q93 0 145 -47.5t52 -111.5q0 -60 -37 -102.5t-105 -83.5q39 -22 63.5 -38.5t51.5 -41t40 -54t13 -63.5q0 -87 -62.5 -136.5t-170.5 -49.5zM284 53
q69 0 107 31.5t38 94.5q0 25 -11.5 46.5t-37 42.5t-46.5 34t-59 35q-70 -40 -108 -77t-38 -88q0 -55 41.5 -87t113.5 -32zM280 402q61 34 94 67t33 77q0 47 -29 77.5t-90 30.5q-64 0 -98.5 -29t-34.5 -79q0 -43 32.5 -76.5t92.5 -67.5z" />
    <glyph glyph-name="nine" unicode="9" horiz-adv-x="545" 
d="M340 181l7 -65q-52 -13 -104 -13q-100 0 -154 58t-54 167q0 110 62.5 171t161.5 61q108 0 172 -82t64 -234q0 -220 -78.5 -314.5t-239.5 -94.5q-52 0 -94 14l17 66q35 -10 78 -10q59 0 102 18t68.5 47t40 76t19.5 95.5t5 114.5q0 62 -15 113t-52.5 86t-93.5 35
q-63 0 -99.5 -43t-36.5 -110q0 -91 37.5 -128.5t104.5 -37.5q37 0 82 10z" />
    <glyph glyph-name="colon" unicode=":" horiz-adv-x="298" 
d="M101 0v94h95v-94h-95zM101 452v94h95v-94h-95z" />
    <glyph glyph-name="semicolon" unicode=";" horiz-adv-x="297" 
d="M81 -125q27 69 27 132v76h84v-43q0 -91 -42 -165h-69zM100 452v94h95v-94h-95z" />
    <glyph glyph-name="less" unicode="&#x3c;" horiz-adv-x="513" 
d="M447 64l-404 190v99l404 192v-74l-352 -168l352 -164v-75z" />
    <glyph glyph-name="equal" unicode="=" horiz-adv-x="639" 
d="M72 166v66h494l1 -66h-495zM72 376v66h494l1 -66h-495z" />
    <glyph glyph-name="greater" unicode="&#x3e;" horiz-adv-x="513" 
d="M66 64v75l352 164l-352 168v74l404 -192v-99z" />
    <glyph glyph-name="question" unicode="?" horiz-adv-x="368" 
d="M103 163q-27 50 -27 93q0 45 27 84.5t59 63.5t59 54t27 58q0 107 -194 126l15 68q48 -4 91.5 -15.5t83 -33t62.5 -57.5t23 -83q0 -34 -18.5 -65.5t-45 -55.5t-53 -46.5t-45 -48t-18.5 -51.5q0 -33 22 -79zM90 0v87h90v-87h-90z" />
    <glyph glyph-name="at" unicode="@" horiz-adv-x="771" 
d="M362 -71q-149 0 -229.5 88t-80.5 247q0 116 32.5 205t90 142t130 79.5t158.5 26.5q124 0 195 -70t71 -216q0 -140 -66.5 -212t-154.5 -72q-37 0 -57.5 18.5t-18.5 49.5q-19 -23 -53.5 -41.5t-59.5 -18.5q-46 0 -71 28.5t-25 97.5q0 100 53.5 160t141.5 60q60 0 107 -22
l-27 -227q-5 -45 19 -45q55 0 99 51.5t44 171.5q0 225 -201 225q-69 0 -126.5 -20t-105.5 -63t-75 -119t-27 -179q0 -147 63.5 -213t182.5 -66q72 0 152 18l12 -58q-69 -26 -173 -26zM333 218q48 0 99 54l20 168q-17 5 -35 5q-61 0 -92.5 -43.5t-31.5 -114.5q0 -40 9 -54.5
t31 -14.5z" />
    <glyph glyph-name="A" unicode="A" horiz-adv-x="677" 
d="M3 0l291 707h106l257 -707h-89l-94 264h-279l-105 -264h-87zM220 330h232l-110 319z" />
    <glyph glyph-name="B" unicode="B" horiz-adv-x="634" 
d="M104 0v707h194q114 0 171 -48.5t57 -129.5q0 -56 -26.5 -97t-70.5 -57v-3q62 -11 105 -54.5t43 -116.5q0 -93 -60 -147t-189 -54h-224zM187 68h125q85 0 133 27.5t48 102.5q0 132 -196 132h-110v-262zM187 396h121q134 0 134 120q0 69 -41 98t-125 29h-89v-247z" />
    <glyph glyph-name="C" unicode="C" horiz-adv-x="670" 
d="M425 -12q-172 0 -270 99.5t-98 261.5q0 167 97 267.5t267 100.5q119 0 205 -40l-25 -66q-98 34 -178 34q-121 0 -200.5 -70.5t-79.5 -215.5q0 -150 83.5 -223.5t214.5 -73.5q93 0 166 26l20 -66q-94 -34 -202 -34z" />
    <glyph glyph-name="D" unicode="D" horiz-adv-x="750" 
d="M104 0v707h191q180 0 287.5 -87.5t107.5 -263.5q0 -180 -102.5 -268t-286.5 -88h-197zM186 68h126q140 0 217 70.5t77 206.5q0 146 -84 220t-230 74h-106v-571z" />
    <glyph glyph-name="E" unicode="E" horiz-adv-x="579" 
d="M104 0v707h396v-67h-314v-251h292v-68h-292v-253h337v-68h-419z" />
    <glyph glyph-name="F" unicode="F" horiz-adv-x="571" 
d="M104 0v707h416v-67h-334v-271h312v-68h-312v-301h-82z" />
    <glyph glyph-name="G" unicode="G" horiz-adv-x="708" 
d="M429 -12q-173 0 -272 97t-99 264q0 170 95 269t267 99q120 0 204 -38l-24 -67q-93 33 -178 33q-121 0 -200 -70.5t-79 -215.5q0 -150 83.5 -224t214.5 -74q63 0 114 15v272h82v-325q-103 -35 -208 -35z" />
    <glyph glyph-name="H" unicode="H" horiz-adv-x="761" 
d="M104 0v707h82v-318h388v318h82v-707h-82v321h-388v-321h-82z" />
    <glyph glyph-name="I" unicode="I" horiz-adv-x="291" 
d="M104 0v707h82v-707h-82z" />
    <glyph glyph-name="J" unicode="J" horiz-adv-x="291" 
d="M-4 -187l-35 60q85 48 115 110.5t30 167.5v556h82v-554q0 -63 -7 -108t-26.5 -90t-59 -80t-99.5 -62z" />
    <glyph glyph-name="K" unicode="K" horiz-adv-x="621" 
d="M215 367v20l277 320h104l-293 -327l313 -380h-108zM186 707v-707h-82v707h82z" />
    <glyph glyph-name="L" unicode="L" horiz-adv-x="510" 
d="M104 0v707h82v-636h307v-71h-389z" />
    <glyph glyph-name="M" unicode="M" horiz-adv-x="938" 
d="M104 0v707h112l242 -658l271 658h105v-707h-82v475l3 109h-3l-238 -584h-119l-211 586h-3l5 -98v-488h-82z" />
    <glyph glyph-name="N" unicode="N" horiz-adv-x="766" 
d="M104 0v707h105l372 -614h2l-3 89v525h82v-707h-110l-367 605h-3l4 -73v-532h-82z" />
    <glyph glyph-name="O" unicode="O" horiz-adv-x="825" 
d="M404 -12q-162 0 -254 101t-92 266t98.5 263.5t261.5 98.5q166 0 257 -101.5t91 -262.5q0 -164 -97 -264.5t-265 -100.5zM407 56q135 0 205.5 82.5t70.5 215.5q0 130 -71 212.5t-198 82.5q-132 0 -203 -81.5t-71 -211.5q0 -128 69.5 -214t197.5 -86z" />
    <glyph glyph-name="P" unicode="P" horiz-adv-x="602" 
d="M252 255v69h36q88 0 138 38t50 119t-40 120t-124 39h-125v-640h-83v707h230q107 0 168 -57.5t61 -163.5q0 -101 -71.5 -166t-209.5 -65h-30z" />
    <glyph glyph-name="Q" unicode="Q" horiz-adv-x="825" 
d="M404 -12q-162 0 -254 101t-92 266t98.5 263.5t261.5 98.5q166 0 257 -101.5t91 -262.5q0 -164 -97 -264.5t-265 -100.5zM407 56q135 0 205.5 82.5t70.5 215.5q0 130 -71 212.5t-198 82.5q-132 0 -203 -81.5t-71 -211.5q0 -128 69.5 -214t197.5 -86zM787 -160h-33
q-35 0 -51 2q-96 4 -167 29q-84 32 -139 32v64q62 0 137 -25q89 -30 177 -32q9 -2 76 -2v-68z" />
    <glyph glyph-name="R" unicode="R" horiz-adv-x="682" 
d="M662 -12q-61 8 -109 45t-98 106l-106 147q-28 -5 -66 -5h-96v-281h-83v707h231q106 0 167.5 -51.5t61.5 -155.5q0 -66 -32.5 -117t-100.5 -77l95 -130q39 -52 73 -81.5t81 -43.5zM187 350h102q90 0 139 32.5t49 111.5t-40.5 112.5t-123.5 33.5h-126v-290z" />
    <glyph glyph-name="S" unicode="S" horiz-adv-x="543" 
d="M247 -12q-117 0 -197 49l26 68q90 -45 172 -45q43 0 79 10.5t62 39t26 71.5q0 48 -36 82t-87 55.5t-102 46t-87 69t-36 108.5q0 82 61 128.5t150 46.5q101 0 174 -39l-25 -64q-73 34 -147 34q-58 0 -95.5 -26.5t-37.5 -77.5q0 -43 36 -75.5t87.5 -55.5t103 -48.5
t87.5 -70.5t36 -107q0 -97 -71 -148t-179 -51z" />
    <glyph glyph-name="T" unicode="T" horiz-adv-x="598" 
d="M258 0v637h-242v70h566v-70h-242v-637h-82z" />
    <glyph glyph-name="U" unicode="U" horiz-adv-x="757" 
d="M379 -12q-56 0 -103 12t-89.5 39.5t-66.5 80t-24 126.5v461h82v-454q0 -194 201 -194t201 217v431h82v-434q0 -65 -17.5 -116.5t-45.5 -82.5t-66 -51t-75.5 -27.5t-78.5 -7.5z" />
    <glyph glyph-name="V" unicode="V" horiz-adv-x="672" 
d="M273 0l-255 707h90l224 -642l252 642h83l-280 -707h-114z" />
    <glyph glyph-name="W" unicode="W" horiz-adv-x="1036" 
d="M228 0l-196 707h84l178 -657l192 483l-59 174h83l221 -656l211 656h80l-232 -707h-120l-149 437l-173 -437h-120z" />
    <glyph glyph-name="X" unicode="X" horiz-adv-x="609" 
d="M12 0l249 374l-207 333h94l161 -267l172 267h89l-218 -331l234 -376h-95l-187 310l-199 -310h-93z" />
    <glyph glyph-name="Y" unicode="Y" horiz-adv-x="563" 
d="M238 0v268l-231 439h92l183 -366l196 366h88l-246 -439v-268h-82z" />
    <glyph glyph-name="Z" unicode="Z" horiz-adv-x="576" 
d="M44 0v71l374 565h-348v71h440v-65l-379 -571h400v-71h-487z" />
    <glyph glyph-name="bracketleft" unicode="[" horiz-adv-x="299" 
d="M87 -220v974h179v-65h-102v-844h102v-65h-179z" />
    <glyph glyph-name="backslash" unicode="\" horiz-adv-x="369" 
d="M264 -62l-232 828h73l233 -828h-74z" />
    <glyph glyph-name="bracketright" unicode="]" horiz-adv-x="299" 
d="M33 -220v65h102v844h-102v65h179v-974h-179z" />
    <glyph glyph-name="asciicircum" unicode="^" horiz-adv-x="521" 
d="M52 294l162 413h106l149 -413h-85l-118 357l-133 -357h-81z" />
    <glyph glyph-name="underscore" unicode="_" horiz-adv-x="535" 
d="M16 -165v69h503v-69h-503z" />
    <glyph glyph-name="grave" unicode="`" horiz-adv-x="568" 
d="M366 618l-193 120l35 60l189 -130z" />
    <glyph glyph-name="a" unicode="a" horiz-adv-x="551" 
d="M202 -9q-74 0 -117.5 41t-43.5 115q0 47 19.5 81t52.5 50.5t66 24t71 8.5l130 2v70q0 63 -30 85.5t-105 22.5q-67 0 -141 -27l-18 62q79 34 176 34q195 0 195 -151v-302q0 -50 59 -50l-3 -61q-10 -2 -25 -2q-37 0 -67.5 17.5t-34.5 51.5q-26 -21 -45.5 -33.5t-58 -25.5
t-80.5 -13zM223 55q71 0 157 61v142l-131 -5q-62 -2 -97 -29.5t-35 -69.5q0 -99 106 -99z" />
    <glyph glyph-name="b" unicode="b" horiz-adv-x="588" 
d="M233 483l-8 59q30 14 87 14q107 0 164.5 -67.5t57.5 -192.5q0 -82 -21.5 -143.5t-58.5 -96.5t-82.5 -51.5t-99.5 -16.5q-104 0 -190 30v736h79v-683q57 -16 114 -16q85 0 132 64t47 161q0 46 -6.5 81t-22.5 66.5t-48 48t-79 16.5q-34 0 -65 -9z" />
    <glyph glyph-name="c" unicode="c" horiz-adv-x="491" 
d="M330 -12q-145 0 -211 68t-66 217q0 132 69 209.5t186 77.5q87 0 149 -33l-24 -63q-65 27 -127 27q-79 0 -126 -56.5t-47 -158.5q0 -115 45.5 -167.5t159.5 -52.5q44 0 105 17l13 -64q-63 -21 -126 -21z" />
    <glyph glyph-name="d" unicode="d" horiz-adv-x="583" 
d="M280 -10q-227 0 -227 281q0 138 73.5 213.5t185.5 75.5q60 0 108 -14v208h78v-754h-78v52q-66 -62 -140 -62zM287 57q36 0 73 20t60 41v360q-55 17 -109 17q-91 0 -135 -65.5t-44 -161.5q0 -106 41.5 -158.5t113.5 -52.5z" />
    <glyph glyph-name="e" unicode="e" horiz-adv-x="547" 
d="M312 -12q-127 0 -192.5 62.5t-65.5 212.5q0 151 65.5 224t175.5 73q199 0 199 -273v-29h-360q1 -63 16 -104.5t44 -62t62 -28t80 -7.5q58 0 135 25l13 -64q-74 -29 -172 -29zM135 317h276q1 85 -30.5 133t-95.5 48q-63 0 -103 -46t-47 -135z" />
    <glyph glyph-name="f" unicode="f" horiz-adv-x="330" 
d="M110 -205v687h-80v64h80v37q0 94 49 138t128 44q51 0 84 -11l-13 -64q-32 8 -70 8q-52 0 -75.5 -26.5t-23.5 -87.5v-38h117v-64h-117v-687h-79z" />
    <glyph glyph-name="g" unicode="g" horiz-adv-x="580" 
d="M273 -230q-106 0 -178 30l16 70q85 -29 150 -29q77 0 117.5 30t40.5 113v55q-53 -46 -125 -46q-51 0 -89.5 10.5t-75 38t-56.5 85.5t-20 144q0 140 73.5 214.5t186.5 74.5q85 0 184 -23v-570q0 -96 -61 -146.5t-163 -50.5zM300 57q58 0 118 49v370q-51 15 -106 15
q-93 0 -136.5 -61t-43.5 -162q0 -111 41.5 -161t126.5 -50z" />
    <glyph glyph-name="h" unicode="h" horiz-adv-x="601" 
d="M84 0v754h79v-271q103 76 191 76q46 0 78.5 -13.5t49.5 -31.5t26.5 -49t11.5 -54.5t2 -58.5v-352h-76v336q0 80 -21.5 116.5t-91.5 36.5q-71 0 -170 -67v-422h-79z" />
    <glyph glyph-name="i" unicode="i" horiz-adv-x="249" 
d="M84 0v546h80v-546h-80zM123 648l-65 67l65 66l67 -66z" />
    <glyph glyph-name="j" unicode="j" horiz-adv-x="249" 
d="M-20 -224q-40 0 -70 12l14 64q28 -8 57 -8q57 0 80 35t23 103v564h80v-565q0 -205 -184 -205zM123 648l-65 67l65 66l67 -66z" />
    <glyph glyph-name="k" unicode="k" horiz-adv-x="535" 
d="M186 287l229 259h91l-232 -255l112 -138q70 -85 134 -102l-17 -59q-87 5 -164 101zM163 754v-754h-79v754h79z" />
    <glyph glyph-name="l" unicode="l" horiz-adv-x="247" 
d="M84 0v754h79v-754h-79z" />
    <glyph glyph-name="m" unicode="m" horiz-adv-x="935" 
d="M84 0v546h79v-64q97 77 176 77q113 0 151 -81q102 81 196 81q46 0 79 -13t50 -32t27 -49.5t12 -54.5t2 -58v-352h-79v337q0 75 -21.5 113.5t-89.5 38.5q-72 0 -163 -66q6 -34 6 -71v-352h-78v337q0 37 -3.5 60.5t-14 47t-33 34.5t-58.5 11q-72 0 -159 -71v-419h-79z" />
    <glyph glyph-name="n" unicode="n" horiz-adv-x="602" 
d="M84 0v546h79v-62q100 76 191 76q46 0 79 -13.5t50 -32t26.5 -49.5t11.5 -54.5t2 -58.5v-352h-77v337q0 80 -22 116.5t-91 36.5q-76 0 -170 -67v-423h-79z" />
    <glyph glyph-name="o" unicode="o" horiz-adv-x="598" 
d="M296 -12q-114 0 -179 73t-65 206q0 138 69.5 215.5t181.5 77.5q120 0 181 -74t61 -213t-68.5 -212t-180.5 -73zM302 53q163 0 163 220q0 42 -7.5 78t-24.5 70t-51 54t-82 20q-47 0 -81.5 -20t-52 -53.5t-25.5 -70.5t-8 -79q0 -97 39.5 -158t129.5 -61z" />
    <glyph glyph-name="p" unicode="p" horiz-adv-x="590" 
d="M84 -220v766h79v-45q79 57 151 57q106 0 164 -70.5t58 -198.5q0 -82 -21 -142.5t-59 -93.5t-83 -48.5t-99 -15.5q-50 0 -111 9v-218h-79zM277 55q86 0 132.5 59.5t46.5 154.5q0 100 -34.5 160.5t-123.5 60.5q-61 0 -135 -52v-372q4 0 23.5 -3.5t40.5 -5.5t50 -2z" />
    <glyph glyph-name="q" unicode="q" horiz-adv-x="580" 
d="M420 -220v242q-58 -32 -134 -32q-233 0 -233 286q0 133 74 208.5t185 75.5q102 0 186 -32v-748h-78zM291 57q72 0 129 32v387q-49 18 -109 18q-63 0 -105 -32t-58.5 -80t-16.5 -109q0 -216 160 -216z" />
    <glyph glyph-name="r" unicode="r" horiz-adv-x="392" 
d="M84 0v546h79v-73q21 35 62 60t94 25q34 0 64 -9l-13 -67q-30 7 -65 7q-45 0 -82 -25.5t-60 -61.5v-402h-79z" />
    <glyph glyph-name="s" unicode="s" horiz-adv-x="449" 
d="M203 -12q-82 0 -160 24l14 67q83 -24 143 -24q62 0 97.5 22t35.5 62q0 34 -28.5 57.5t-68.5 39t-80.5 33.5t-69 53.5t-28.5 87.5q0 68 52.5 109t124.5 41q82 0 145 -26l-17 -63q-61 23 -126 23q-48 0 -75 -22.5t-27 -56.5t28 -58.5t68.5 -40.5t80.5 -34t68 -52.5
t28 -83.5q0 -55 -33.5 -92.5t-77.5 -51.5t-94 -14z" />
    <glyph glyph-name="t" unicode="t" horiz-adv-x="406" 
d="M275 -12q-84 0 -126 36t-42 128v327h-80v67h80v112h77v-112h172v-67h-171v-324q0 -55 24 -76.5t74 -21.5q45 0 93 16l13 -65q-54 -20 -114 -20z" />
    <glyph glyph-name="u" unicode="u" horiz-adv-x="598" 
d="M242 -12q-44 0 -75.5 13.5t-48.5 32.5t-26.5 50t-11.5 55.5t-2 58.5v348h79v-332q0 -31 1.5 -50t7 -41t16.5 -34t31 -20.5t49 -8.5q80 0 175 68v418h76v-546h-76v64q-33 -24 -54.5 -37t-60.5 -26t-80 -13z" />
    <glyph glyph-name="v" unicode="v" horiz-adv-x="518" 
d="M197 0l-179 546h86l114 -375l36 -116l38 118l130 373h81l-197 -546h-109z" />
    <glyph glyph-name="w" unicode="w" horiz-adv-x="881" 
d="M191 0l-170 546h83l141 -489l148 489h102l130 -489l159 489h80l-189 -546h-106l-110 399l-17 75l-19 -74l-126 -400h-106z" />
    <glyph glyph-name="x" unicode="x" horiz-adv-x="512" 
d="M22 0l190 279l-179 267h91l133 -211l132 211h89l-177 -265l191 -281h-96l-140 224l-142 -224h-92z" />
    <glyph glyph-name="y" unicode="y" horiz-adv-x="516" 
d="M156 -220l75 220h-37l-176 546h86l118 -390l30 -98l33 96l134 392h81l-267 -766h-77z" />
    <glyph glyph-name="z" unicode="z" horiz-adv-x="504" 
d="M39 0v68l322 409h-296v69h387v-64l-325 -413h329v-69h-417z" />
    <glyph glyph-name="braceleft" unicode="{" horiz-adv-x="321" 
d="M284 -220q-33 0 -58 3t-50.5 11.5t-42 23.5t-27 40t-10.5 59q0 9 2 29l22 198q3 33 -21 63t-62 30v72q38 0 62 29t21 64l-22 206q-2 25 -1 35q8 130 187 130h21v-67h-24q-59 0 -85.5 -24.5t-21.5 -78.5l21 -182q7 -61 -16 -97.5t-68 -47.5v-2q96 -34 84 -145l-21 -183
q-5 -50 22.5 -74.5t84.5 -24.5h24v-67h-21z" />
    <glyph glyph-name="bar" unicode="|" horiz-adv-x="248" 
d="M87 -220v974h74v-974h-74z" />
    <glyph glyph-name="braceright" unicode="}" horiz-adv-x="321" 
d="M38 -220h-22v67h25q57 0 84 24.5t22 74.5l-20 183q-13 110 83 145v2q-97 24 -83 145l20 182q6 54 -20.5 78.5t-85.5 24.5h-25v67h22q180 0 186 -130q1 -10 -1 -35l-22 -206q-3 -35 21 -64t62 -29v-72q-38 0 -62 -30t-21 -63l22 -198q2 -20 2 -29q0 -34 -10.5 -59t-27 -40
t-41.5 -23.5t-50.5 -11.5t-57.5 -3z" />
    <glyph glyph-name="asciitilde" unicode="~" horiz-adv-x="592" 
d="M404 283q-54 0 -118 30t-99 30q-44 0 -89 -29l-38 55q62 54 133 54q53 0 112 -30.5t99 -30.5q45 0 88 33l41 -50q-57 -62 -129 -62z" />
    <glyph glyph-name="exclamdown" unicode="&#xa1;" horiz-adv-x="264" 
d="M93 -162v395l4 140h70l4 -140v-395h-78zM88 458v87h89v-87h-89z" />
    <glyph glyph-name="cent" unicode="&#xa2;" horiz-adv-x="487" 
d="M248 -45l2 78q-113 12 -159 72t-46 173q0 96 53 159.5t152 73.5l-3 82h82l-2 -80q28 -1 58 -10.5t46 -20.5l-23 -55q-57 22 -120 22q-75 0 -118.5 -42.5t-43.5 -131.5q0 -96 41.5 -137.5t150.5 -41.5q34 0 106 12l11 -61q-53 -14 -108 -17l3 -75h-82z" />
    <glyph glyph-name="sterling" unicode="&#xa3;" horiz-adv-x="487" 
d="M61 0v67q38 17 59 61t21 85h-95v66h97q1 22 0 51.5t-1 36.5q0 49 13.5 84.5t34.5 56.5t56 33t68.5 16.5t80.5 5.5l6 -68q-40 -3 -62 -6t-49 -11.5t-40 -21.5t-21.5 -36.5t-7.5 -56.5q1 -17 1 -39v-45h178v-66h-183q-1 -44 -19.5 -83.5t-46.5 -62.5h286v-67h-376z" />
    <glyph glyph-name="yen" unicode="&#xa5;" horiz-adv-x="621" 
d="M265 0v86h-208v68h209l-17 36l-33 62h-159v68h122l-120 226h88l160 -317l170 317h85l-127 -226h129v-68h-168l-34 -61l-18 -38h220v-67h-219v-86h-80z" />
    <glyph glyph-name="section" unicode="&#xa7;" horiz-adv-x="596" 
d="M143 -66q-63 0 -114 39l28 66q51 -37 88 -37q27 0 39.5 26.5t12.5 57.5t-15 121l-9 50q-10 64 -10 99q0 121 67.5 187.5t181.5 66.5q85 0 145 -43q-30 -62 -33 -65q-61 39 -118 39q-49 0 -49 -70q0 -45 7 -73l16 -63q17 -72 17 -152q0 -107 -71 -178t-183 -71zM247 16
q77 58 77 155q0 50 -11 102l-16 81q-10 44 -10 97q0 48 13 78q-64 -41 -64 -150q0 -49 9 -91l15 -80q10 -47 10 -102q0 -40 -23 -90z" />
    <glyph glyph-name="dieresis" unicode="&#xa8;" horiz-adv-x="408" 
d="M106 659l-56 57l56 56l56 -56zM303 659l-56 57l56 56l56 -56z" />
    <glyph glyph-name="copyright" unicode="&#xa9;" horiz-adv-x="804" 
d="M427 73q-100 0 -155 57t-55 148q0 97 53.5 153.5t154.5 56.5q73 0 119 -28l-20 -47q-49 20 -98 20q-64 0 -106.5 -37.5t-42.5 -112.5q0 -76 45.5 -115t115.5 -39q42 0 93 17l17 -49q-58 -24 -121 -24zM393 -91q-162 0 -253.5 100.5t-91.5 265.5q0 166 100 264t264 98
q165 0 254 -101t89 -263q0 -165 -97 -264.5t-265 -99.5zM397 -37q144 0 220 86.5t76 224.5q0 136 -77 222.5t-213 86.5q-140 0 -216 -85.5t-76 -221.5q0 -133 74.5 -223t211.5 -90z" />
    <glyph glyph-name="ordfeminine" unicode="&#xaa;" horiz-adv-x="433" 
d="M173 386q-45 0 -69 23.5t-24 68.5q0 94 123 94l70 2v38q0 32 -16 42t-58 10q-12 0 -82 -15l-12 45q50 21 107 21q117 0 117 -89v-167q0 -24 30 -24l-3 -47q-28 -2 -52 7t-29 31q-47 -40 -102 -40zM184 435q19 0 89 35v61l-68 -3q-69 -3 -69 -46q0 -47 48 -47zM70 300v52
h298v-52h-298z" />
    <glyph glyph-name="guillemotleft" unicode="&#xab;" horiz-adv-x="450" 
d="M157 52l-106 220l106 220l59 -22l-87 -198l86 -195zM335 52l-107 220l107 220l58 -22l-87 -198l86 -195z" />
    <glyph glyph-name="registered" unicode="&#xae;" horiz-adv-x="560" 
d="M511 532q0 -103 -64.5 -162t-164.5 -59q-42 0 -81 11.5t-74 36t-56.5 69.5t-21.5 104q0 104 65.5 164t166.5 60q94 0 162 -55.5t68 -168.5zM465 532q0 89 -54 135.5t-129 46.5q-81 0 -133.5 -44.5t-52.5 -133.5q0 -55 20.5 -94t53 -57t61 -25t56.5 -7q78 0 128 47.5
t50 131.5zM402 450l-5 -33q-48 2 -72 27q-23 22 -51 70h-34v-91h-47v242h90q84 0 84 -75q0 -47 -45 -68q32 -44 36 -48q7 -8 44 -24zM322 589q0 22 -10.5 32t-36.5 10h-35v-84h31q51 0 51 42z" />
    <glyph glyph-name="degree" unicode="&#xb0;" horiz-adv-x="412" 
d="M203 404q-75 0 -114.5 40t-39.5 118q0 69 44 112t113 43q73 0 115.5 -41t42.5 -114t-44.5 -115.5t-116.5 -42.5zM205 458q44 0 67.5 27t23.5 77q0 47 -24 74t-67 27t-66.5 -27t-23.5 -74q0 -51 24.5 -77.5t65.5 -26.5z" />
    <glyph glyph-name="plusminus" unicode="&#xb1;" horiz-adv-x="549" 
d="M56 68h437v-68h-437v68zM310 120h-72l1 186h-183v67l183 -1v184h71l-1 -184l184 1v-67h-184z" />
    <glyph glyph-name="acute" unicode="&#xb4;" horiz-adv-x="568" 
d="M209 618l-28 49l188 128l35 -56z" />
    <glyph glyph-name="paragraph" unicode="&#xb6;" horiz-adv-x="590" 
d="M323 -221q-45 0 -71 11l15 70q30 -8 58 -8q58 0 80.5 33t22.5 99v723h79v-724q0 -112 -49 -158t-135 -46zM258 269q-106 0 -164 55.5t-58 166.5q0 216 224 216h75v-438h-77z" />
    <glyph glyph-name="periodcentered" unicode="&#xb7;" horiz-adv-x="244" 
d="M121 291l-63 66l63 64l65 -64z" />
    <glyph glyph-name="cedilla" unicode="&#xb8;" horiz-adv-x="453" 
d="M196 -240l-26 45q59 37 59 77q0 23 -24 67h77q20 -36 20 -67q2 -76 -106 -122z" />
    <glyph glyph-name="ordmasculine" unicode="&#xba;" horiz-adv-x="441" 
d="M217 384q-69 0 -107 42.5t-38 120.5q0 80 41 125t108 45q148 0 148 -167q0 -80 -42 -123t-110 -43zM221 435q85 0 85 115q0 116 -86 116t-86 -117q0 -114 87 -114zM71 300v52h298v-52h-298z" />
    <glyph glyph-name="guillemotright" unicode="&#xbb;" horiz-adv-x="450" 
d="M115 52l-57 25l85 195l-87 198l59 22l107 -220zM292 52l-57 25l86 195l-87 198l58 22l107 -220z" />
    <glyph glyph-name="questiondown" unicode="&#xbf;" horiz-adv-x="354" 
d="M294 -164q-49 4 -91.5 15t-82 32t-62.5 57.5t-23 85.5q0 34 18.5 65t45 55t53.5 47t45.5 48.5t18.5 51.5q0 32 -23 78l68 12q27 -56 27 -91q0 -46 -27 -86t-59 -64t-59 -54.5t-27 -59.5q0 -56 56 -86t138 -38zM186 459v87h90v-87h-90z" />
    <glyph glyph-name="Agrave" unicode="&#xc0;" horiz-adv-x="677" 
d="M401 747l-224 65l21 68l221 -80zM3 0l291 707h106l257 -707h-89l-94 264h-279l-105 -264h-87zM220 330h232l-110 319z" />
    <glyph glyph-name="Atilde" unicode="&#xc3;" horiz-adv-x="677" 
d="M3 0l291 707h106l257 -707h-89l-94 264h-279l-105 -264h-87zM220 330h232l-110 319zM409 754q-21 0 -61 18.5t-59 18.5q-37 0 -69 -24l-31 45q49 46 100 46q27 0 66 -18.5t54 -18.5q36 0 64 26l30 -44q-37 -49 -94 -49z" />
    <glyph glyph-name="Adieresis" unicode="&#xc4;" horiz-adv-x="677" 
d="M243 747l-57 58l57 58l58 -58zM440 747l-58 58l58 58l58 -58zM3 0l291 707h106l257 -707h-89l-94 264h-279l-105 -264h-87zM220 330h232l-110 319z" />
    <glyph glyph-name="Aring" unicode="&#xc5;" horiz-adv-x="677" 
d="M3 0l291 707h106l257 -707h-89l-94 264h-279l-105 -264h-87zM220 330h232l-110 319zM348 745q-42 0 -70.5 22t-28.5 66q0 43 28.5 66.5t68.5 23.5q38 0 68 -21.5t30 -66.5q0 -42 -27.5 -66t-68.5 -24zM347 782q25 0 39 14t14 38q0 23 -16 37.5t-38 14.5q-24 0 -39 -13
t-15 -37t15.5 -39t39.5 -15z" />
    <glyph glyph-name="AE" unicode="&#xc6;" horiz-adv-x="928" 
d="M2 0l375 707h472v-67h-314v-251h292v-68h-292v-253h338v-68h-420v311h-197l-162 -311h-92zM289 378h164v262h-29z" />
    <glyph glyph-name="Ccedilla" unicode="&#xc7;" horiz-adv-x="670" 
d="M364 -240l-27 45q59 36 59 77q0 25 -23 67h76q20 -33 20 -67q2 -77 -105 -122zM425 -12q-172 0 -270 99.5t-98 261.5q0 167 97 267.5t267 100.5q119 0 205 -40l-25 -66q-98 34 -178 34q-121 0 -200.5 -70.5t-79.5 -215.5q0 -150 83.5 -223.5t214.5 -73.5q93 0 166 26
l20 -66q-94 -34 -202 -34z" />
    <glyph glyph-name="Eacute" unicode="&#xc9;" horiz-adv-x="579" 
d="M239 747l-16 52l218 84l22 -67zM104 0v707h396v-67h-314v-251h292v-68h-292v-253h337v-68h-419z" />
    <glyph glyph-name="Ntilde" unicode="&#xd1;" horiz-adv-x="766" 
d="M454 754q-22 0 -62 18.5t-59 18.5q-37 0 -69 -24l-30 45q46 46 99 46q28 0 66.5 -18.5t53.5 -18.5q36 0 64 26l31 -44q-37 -49 -94 -49zM104 0v707h105l372 -614h2l-3 89v525h82v-707h-110l-367 605h-3l4 -73v-532h-82z" />
    <glyph glyph-name="Otilde" unicode="&#xd5;" horiz-adv-x="825" 
d="M481 754q-21 0 -61 18.5t-59 18.5q-37 0 -69 -24l-31 45q49 46 100 46q28 0 66.5 -18.5t53.5 -18.5q36 0 64 26l31 -44q-37 -49 -95 -49zM404 -12q-162 0 -254 101t-92 266t98.5 263.5t261.5 98.5q166 0 257 -101.5t91 -262.5q0 -164 -97 -264.5t-265 -100.5zM407 56
q135 0 205.5 82.5t70.5 215.5q0 130 -71 212.5t-198 82.5q-132 0 -203 -81.5t-71 -211.5q0 -128 69.5 -214t197.5 -86z" />
    <glyph glyph-name="Odieresis" unicode="&#xd6;" horiz-adv-x="825" 
d="M309 747l-57 58l57 58l57 -58zM506 747l-58 58l58 58l58 -58zM404 -12q-162 0 -254 101t-92 266t98.5 263.5t261.5 98.5q166 0 257 -101.5t91 -262.5q0 -164 -97 -264.5t-265 -100.5zM407 56q135 0 205.5 82.5t70.5 215.5q0 130 -71 212.5t-198 82.5q-132 0 -203 -81.5
t-71 -211.5q0 -128 69.5 -214t197.5 -86z" />
    <glyph glyph-name="multiply" unicode="&#xd7;" horiz-adv-x="550" 
d="M453 81l-180 180l-173 -173l-48 48l173 173l-172 171l47 47l171 -172l176 176l49 -48l-178 -177l181 -179z" />
    <glyph glyph-name="Oslash" unicode="&#xd8;" horiz-adv-x="825" 
d="M74 -30l-38 39l97 100q-75 98 -75 246q0 165 98.5 263.5t261.5 98.5q140 0 228 -77l96 99l41 -37l-97 -100q80 -98 80 -249q0 -164 -97 -264.5t-265 -100.5q-143 0 -233 82zM407 56q135 0 205.5 82.5t70.5 215.5q0 112 -54 189l-404 -417q72 -70 182 -70zM140 356
q0 -110 51 -186l402 415q-72 64 -179 64q-132 0 -203 -81.5t-71 -211.5z" />
    <glyph glyph-name="Udieresis" unicode="&#xdc;" horiz-adv-x="757" 
d="M281 747l-57 58l57 58l58 -58zM478 747l-57 58l57 58l58 -58zM379 -12q-56 0 -103 12t-89.5 39.5t-66.5 80t-24 126.5v461h82v-454q0 -194 201 -194t201 217v431h82v-434q0 -65 -17.5 -116.5t-45.5 -82.5t-66 -51t-75.5 -27.5t-78.5 -7.5z" />
    <glyph glyph-name="germandbls" unicode="&#xdf;" horiz-adv-x="590" 
d="M84 -205v764q0 206 194 206q28 0 55.5 -6.5t56 -21.5t46 -46.5t17.5 -76.5q0 -34 -18 -68t-39.5 -56t-39.5 -47.5t-18 -46.5q0 -32 23 -57t55.5 -42.5t64.5 -37t55 -50.5t23 -72q0 -40 -15 -69.5t-41 -45.5t-54.5 -23.5t-60.5 -7.5q-90 0 -148 22l15 64q66 -19 118 -19
q111 0 111 70q0 31 -23 54.5t-55.5 40t-65 36t-55.5 53.5t-23 80q0 30 17 60.5t37 51.5t37 51t17 60q0 41 -27 62t-68 21q-65 0 -88.5 -36t-23.5 -104v-763h-79z" />
    <glyph glyph-name="agrave" unicode="&#xe0;" horiz-adv-x="551" 
d="M332 619l-194 120l36 60l189 -130zM202 -9q-74 0 -117.5 41t-43.5 115q0 47 19.5 81t52.5 50.5t66 24t71 8.5l130 2v70q0 63 -30 85.5t-105 22.5q-67 0 -141 -27l-18 62q79 34 176 34q195 0 195 -151v-302q0 -50 59 -50l-3 -61q-10 -2 -25 -2q-37 0 -67.5 17.5
t-34.5 51.5q-26 -21 -45.5 -33.5t-58 -25.5t-80.5 -13zM223 55q71 0 157 61v142l-131 -5q-62 -2 -97 -29.5t-35 -69.5q0 -99 106 -99z" />
    <glyph glyph-name="aacute" unicode="&#xe1;" horiz-adv-x="551" 
d="M211 619l-28 48l188 128l34 -56zM202 -9q-74 0 -117.5 41t-43.5 115q0 47 19.5 81t52.5 50.5t66 24t71 8.5l130 2v70q0 63 -30 85.5t-105 22.5q-67 0 -141 -27l-18 62q79 34 176 34q195 0 195 -151v-302q0 -50 59 -50l-3 -61q-10 -2 -25 -2q-37 0 -67.5 17.5t-34.5 51.5
q-26 -21 -45.5 -33.5t-58 -25.5t-80.5 -13zM223 55q71 0 157 61v142l-131 -5q-62 -2 -97 -29.5t-35 -69.5q0 -99 106 -99z" />
    <glyph glyph-name="acircumflex" unicode="&#xe2;" horiz-adv-x="551" 
d="M383 629l-120 84l-129 -85l-34 47l166 112l152 -110zM202 -9q-74 0 -117.5 41t-43.5 115q0 47 19.5 81t52.5 50.5t66 24t71 8.5l130 2v70q0 63 -30 85.5t-105 22.5q-67 0 -141 -27l-18 62q79 34 176 34q195 0 195 -151v-302q0 -50 59 -50l-3 -61q-10 -2 -25 -2
q-37 0 -67.5 17.5t-34.5 51.5q-26 -21 -45.5 -33.5t-58 -25.5t-80.5 -13zM223 55q71 0 157 61v142l-131 -5q-62 -2 -97 -29.5t-35 -69.5q0 -99 106 -99z" />
    <glyph glyph-name="atilde" unicode="&#xe3;" horiz-adv-x="551" 
d="M329 645q-24 0 -63 18.5t-61 18.5q-38 0 -68 -25l-31 46q45 45 105 45q28 0 66.5 -18.5t56.5 -18.5q30 0 70 28l31 -44q-45 -50 -106 -50zM202 -9q-74 0 -117.5 41t-43.5 115q0 47 19.5 81t52.5 50.5t66 24t71 8.5l130 2v70q0 63 -30 85.5t-105 22.5q-67 0 -141 -27
l-18 62q79 34 176 34q195 0 195 -151v-302q0 -50 59 -50l-3 -61q-10 -2 -25 -2q-37 0 -67.5 17.5t-34.5 51.5q-26 -21 -45.5 -33.5t-58 -25.5t-80.5 -13zM223 55q71 0 157 61v142l-131 -5q-62 -2 -97 -29.5t-35 -69.5q0 -99 106 -99z" />
    <glyph glyph-name="adieresis" unicode="&#xe4;" horiz-adv-x="551" 
d="M169 659l-56 57l56 56l56 -56zM366 659l-56 57l56 56l56 -56zM202 -9q-74 0 -117.5 41t-43.5 115q0 47 19.5 81t52.5 50.5t66 24t71 8.5l130 2v70q0 63 -30 85.5t-105 22.5q-67 0 -141 -27l-18 62q79 34 176 34q195 0 195 -151v-302q0 -50 59 -50l-3 -61q-10 -2 -25 -2
q-37 0 -67.5 17.5t-34.5 51.5q-26 -21 -45.5 -33.5t-58 -25.5t-80.5 -13zM223 55q71 0 157 61v142l-131 -5q-62 -2 -97 -29.5t-35 -69.5q0 -99 106 -99z" />
    <glyph glyph-name="aring" unicode="&#xe5;" horiz-adv-x="551" 
d="M282 614q-47 0 -79 24.5t-32 73.5q0 48 32.5 75t76.5 27q43 0 76.5 -24.5t33.5 -75.5q0 -47 -30.5 -73.5t-77.5 -26.5zM281 655q28 0 44 15.5t16 42.5q0 26 -17.5 42t-43.5 16q-27 0 -43.5 -14.5t-16.5 -41.5t17 -43.5t44 -16.5zM202 -9q-74 0 -117.5 41t-43.5 115
q0 47 19.5 81t52.5 50.5t66 24t71 8.5l130 2v70q0 63 -30 85.5t-105 22.5q-67 0 -141 -27l-18 62q79 34 176 34q195 0 195 -151v-302q0 -50 59 -50l-3 -61q-10 -2 -25 -2q-37 0 -67.5 17.5t-34.5 51.5q-26 -21 -45.5 -33.5t-58 -25.5t-80.5 -13zM223 55q71 0 157 61v142
l-131 -5q-62 -2 -97 -29.5t-35 -69.5q0 -99 106 -99z" />
    <glyph glyph-name="ae" unicode="&#xe6;" horiz-adv-x="868" 
d="M635 -9q-159 0 -221 95q-124 -94 -219 -94q-73 0 -113.5 40t-40.5 114q0 47 19.5 80.5t52.5 50.5t66 24t71 8q123 3 129 3v75q0 65 -30.5 84.5t-108.5 19.5q-17 0 -39.5 -3t-38 -6.5t-35 -8.5t-23.5 -6l-16 60q80 32 174 32q139 0 177 -78q62 78 182 78q96 0 145 -66.5
t49 -194.5v-29l-360 -14q1 -62 16 -102.5t44.5 -60t62 -26.5t81.5 -7q47 0 134 19l13 -63q-62 -24 -171 -24zM215 57q31 0 86 24.5t93 48.5q-13 43 -17 124l-126 -4q-68 -1 -101.5 -28t-33.5 -68q0 -55 26 -76t73 -21zM458 316l275 13q0 78 -32.5 124.5t-91.5 46.5
q-61 0 -103.5 -45.5t-47.5 -138.5z" />
    <glyph glyph-name="ccedilla" unicode="&#xe7;" horiz-adv-x="491" 
d="M330 -12q-145 0 -211 68t-66 217q0 132 69 209.5t186 77.5q87 0 149 -33l-24 -63q-65 27 -127 27q-79 0 -126 -56.5t-47 -158.5q0 -115 45.5 -167.5t159.5 -52.5q44 0 105 17l13 -64q-63 -21 -126 -21zM252 -240l-26 45q59 37 59 77q0 25 -23 67h76q20 -33 20 -67
q2 -76 -106 -122z" />
    <glyph glyph-name="egrave" unicode="&#xe8;" horiz-adv-x="547" 
d="M346 619l-193 120l35 60l189 -130zM312 -12q-127 0 -192.5 62.5t-65.5 212.5q0 151 65.5 224t175.5 73q199 0 199 -273v-29h-360q1 -63 16 -104.5t44 -62t62 -28t80 -7.5q58 0 135 25l13 -64q-74 -29 -172 -29zM135 317h276q1 85 -30.5 133t-95.5 48q-63 0 -103 -46
t-47 -135z" />
    <glyph glyph-name="eacute" unicode="&#xe9;" horiz-adv-x="547" 
d="M226 619l-28 48l188 128l34 -56zM312 -12q-127 0 -192.5 62.5t-65.5 212.5q0 151 65.5 224t175.5 73q199 0 199 -273v-29h-360q1 -63 16 -104.5t44 -62t62 -28t80 -7.5q58 0 135 25l13 -64q-74 -29 -172 -29zM135 317h276q1 85 -30.5 133t-95.5 48q-63 0 -103 -46
t-47 -135z" />
    <glyph glyph-name="ecircumflex" unicode="&#xea;" horiz-adv-x="547" 
d="M398 629l-120 84l-129 -85l-34 47l166 112l152 -110zM312 -12q-127 0 -192.5 62.5t-65.5 212.5q0 151 65.5 224t175.5 73q199 0 199 -273v-29h-360q1 -63 16 -104.5t44 -62t62 -28t80 -7.5q58 0 135 25l13 -64q-74 -29 -172 -29zM135 317h276q1 85 -30.5 133t-95.5 48
q-63 0 -103 -46t-47 -135z" />
    <glyph glyph-name="edieresis" unicode="&#xeb;" horiz-adv-x="547" 
d="M181 659l-56 57l56 56l56 -56zM378 659l-57 57l57 56l56 -56zM312 -12q-127 0 -192.5 62.5t-65.5 212.5q0 151 65.5 224t175.5 73q199 0 199 -273v-29h-360q1 -63 16 -104.5t44 -62t62 -28t80 -7.5q58 0 135 25l13 -64q-74 -29 -172 -29zM135 317h276q1 85 -30.5 133
t-95.5 48q-63 0 -103 -46t-47 -135z" />
    <glyph glyph-name="igrave" unicode="&#xec;" horiz-adv-x="249" 
d="M165 619l-193 120l35 60l189 -130zM84 0v546h80v-546h-80z" />
    <glyph glyph-name="iacute" unicode="&#xed;" horiz-adv-x="249" 
d="M69 619l-28 48l189 128l34 -56zM84 0v546h80v-546h-80z" />
    <glyph glyph-name="icircumflex" unicode="&#xee;" horiz-adv-x="249" 
d="M245 629l-119 84l-130 -85l-33 47l165 112l152 -110zM84 0v546h80v-546h-80z" />
    <glyph glyph-name="idieresis" unicode="&#xef;" horiz-adv-x="249" 
d="M27 659l-56 57l56 56l56 -56zM223 659l-56 57l56 56l57 -56zM84 0v546h80v-546h-80z" />
    <glyph glyph-name="ntilde" unicode="&#xf1;" horiz-adv-x="602" 
d="M367 645q-24 0 -63 18.5t-61 18.5q-39 0 -69 -25l-31 46q49 45 105 45q28 0 66.5 -18.5t56.5 -18.5q31 0 71 28l30 -44q-41 -50 -105 -50zM84 0v546h79v-62q100 76 191 76q46 0 79 -13.5t50 -32t26.5 -49.5t11.5 -54.5t2 -58.5v-352h-77v337q0 80 -22 116.5t-91 36.5
q-76 0 -170 -67v-423h-79z" />
    <glyph glyph-name="ograve" unicode="&#xf2;" horiz-adv-x="598" 
d="M368 619l-193 120l35 60l189 -130zM296 -12q-114 0 -179 73t-65 206q0 138 69.5 215.5t181.5 77.5q120 0 181 -74t61 -213t-68.5 -212t-180.5 -73zM302 53q163 0 163 220q0 42 -7.5 78t-24.5 70t-51 54t-82 20q-47 0 -81.5 -20t-52 -53.5t-25.5 -70.5t-8 -79
q0 -97 39.5 -158t129.5 -61z" />
    <glyph glyph-name="oacute" unicode="&#xf3;" horiz-adv-x="598" 
d="M231 619l-28 48l189 128l34 -56zM296 -12q-114 0 -179 73t-65 206q0 138 69.5 215.5t181.5 77.5q120 0 181 -74t61 -213t-68.5 -212t-180.5 -73zM302 53q163 0 163 220q0 42 -7.5 78t-24.5 70t-51 54t-82 20q-47 0 -81.5 -20t-52 -53.5t-25.5 -70.5t-8 -79
q0 -97 39.5 -158t129.5 -61z" />
    <glyph glyph-name="ocircumflex" unicode="&#xf4;" horiz-adv-x="598" 
d="M418 629l-120 84l-129 -85l-34 47l166 112l152 -110zM296 -12q-114 0 -179 73t-65 206q0 138 69.5 215.5t181.5 77.5q120 0 181 -74t61 -213t-68.5 -212t-180.5 -73zM302 53q163 0 163 220q0 42 -7.5 78t-24.5 70t-51 54t-82 20q-47 0 -81.5 -20t-52 -53.5t-25.5 -70.5
t-8 -79q0 -97 39.5 -158t129.5 -61z" />
    <glyph glyph-name="otilde" unicode="&#xf5;" horiz-adv-x="598" 
d="M357 645q-24 0 -63 18.5t-61 18.5q-39 0 -69 -25l-31 46q49 45 105 45q28 0 66.5 -18.5t56.5 -18.5q31 0 71 28l30 -44q-41 -50 -105 -50zM296 -12q-114 0 -179 73t-65 206q0 138 69.5 215.5t181.5 77.5q120 0 181 -74t61 -213t-68.5 -212t-180.5 -73zM302 53
q163 0 163 220q0 42 -7.5 78t-24.5 70t-51 54t-82 20q-47 0 -81.5 -20t-52 -53.5t-25.5 -70.5t-8 -79q0 -97 39.5 -158t129.5 -61z" />
    <glyph glyph-name="odieresis" unicode="&#xf6;" horiz-adv-x="598" 
d="M200 659l-56 57l56 56l56 -56zM397 659l-56 57l56 56l56 -56zM296 -12q-114 0 -179 73t-65 206q0 138 69.5 215.5t181.5 77.5q120 0 181 -74t61 -213t-68.5 -212t-180.5 -73zM302 53q163 0 163 220q0 42 -7.5 78t-24.5 70t-51 54t-82 20q-47 0 -81.5 -20t-52 -53.5
t-25.5 -70.5t-8 -79q0 -97 39.5 -158t129.5 -61z" />
    <glyph glyph-name="oslash" unicode="&#xf8;" horiz-adv-x="597" 
d="M296 -12q-101 0 -164 57l-65 -76l-35 34l68 80q-48 71 -48 184q0 138 69.5 215.5t181.5 77.5q102 0 163 -56l59 68l36 -33l-63 -72q47 -71 47 -194q0 -139 -68.5 -212t-180.5 -73zM302 53q163 0 163 220q0 77 -24 130l-259 -302q45 -48 120 -48zM133 272q0 -78 23 -127
l258 302q-40 48 -114 48q-47 0 -81.5 -20t-52 -53.5t-25.5 -70.5t-8 -79z" />
    <glyph glyph-name="ugrave" unicode="&#xf9;" horiz-adv-x="598" 
d="M347 619l-194 120l35 60l189 -130zM242 -12q-44 0 -75.5 13.5t-48.5 32.5t-26.5 50t-11.5 55.5t-2 58.5v348h79v-332q0 -31 1.5 -50t7 -41t16.5 -34t31 -20.5t49 -8.5q80 0 175 68v418h76v-546h-76v64q-33 -24 -54.5 -37t-60.5 -26t-80 -13z" />
    <glyph glyph-name="uacute" unicode="&#xfa;" horiz-adv-x="598" 
d="M252 620l-28 48l188 128l34 -56zM242 -12q-44 0 -75.5 13.5t-48.5 32.5t-26.5 50t-11.5 55.5t-2 58.5v348h79v-332q0 -31 1.5 -50t7 -41t16.5 -34t31 -20.5t49 -8.5q80 0 175 68v418h76v-546h-76v64q-33 -24 -54.5 -37t-60.5 -26t-80 -13z" />
    <glyph glyph-name="ucircumflex" unicode="&#xfb;" horiz-adv-x="598" 
d="M419 629l-120 84l-129 -85l-34 47l166 112l151 -110zM242 -12q-44 0 -75.5 13.5t-48.5 32.5t-26.5 50t-11.5 55.5t-2 58.5v348h79v-332q0 -31 1.5 -50t7 -41t16.5 -34t31 -20.5t49 -8.5q80 0 175 68v418h76v-546h-76v64q-33 -24 -54.5 -37t-60.5 -26t-80 -13z" />
    <glyph glyph-name="udieresis" unicode="&#xfc;" horiz-adv-x="598" 
d="M199 659l-56 57l56 56l56 -56zM395 659l-56 57l56 56l57 -56zM242 -12q-44 0 -75.5 13.5t-48.5 32.5t-26.5 50t-11.5 55.5t-2 58.5v348h79v-332q0 -31 1.5 -50t7 -41t16.5 -34t31 -20.5t49 -8.5q80 0 175 68v418h76v-546h-76v64q-33 -24 -54.5 -37t-60.5 -26t-80 -13z
" />
    <glyph glyph-name="ydieresis" unicode="&#xff;" horiz-adv-x="516" 
d="M156 659l-56 57l56 56l56 -56zM353 659l-57 57l57 56l56 -56zM156 -220l75 220h-37l-176 546h86l118 -390l30 -98l33 96l134 392h81l-267 -766h-77z" />
    <glyph glyph-name="dotlessi" unicode="&#x131;" horiz-adv-x="249" 
d="M84 0v546h80v-546h-80z" />
    <glyph glyph-name="OE" unicode="&#x152;" horiz-adv-x="1095" 
d="M404 -12q-162 0 -254 101t-92 266q0 167 100 265t265 98q113 0 196 -57v46h396v-67h-312v-251h290v-68h-290v-253h337v-68h-421v53q-50 -33 -96 -49t-119 -16zM407 59q141 0 212 92v403q-70 92 -205 92q-130 0 -200.5 -81t-70.5 -209q0 -127 68.5 -212t195.5 -85z" />
    <glyph glyph-name="oe" unicode="&#x153;" horiz-adv-x="957" 
d="M296 -12q-114 0 -179 73t-65 206q0 138 69.5 215.5t181.5 77.5q146 0 202 -116q57 116 203 116q197 0 197 -273v-29h-361q1 -63 15.5 -104t43 -62t61.5 -28.5t81 -7.5q27 0 71 8t65 15l14 -65q-64 -25 -173 -25q-169 0 -222 112q-62 -113 -204 -113zM302 53
q163 0 163 220q0 42 -7.5 78t-24.5 70t-51 54t-82 20q-47 0 -81.5 -20t-52 -53.5t-25.5 -70.5t-8 -79q0 -97 39.5 -158t129.5 -61zM545 317h277q0 86 -32 135t-94 49q-63 0 -103.5 -47t-47.5 -137z" />
    <glyph glyph-name="Ydieresis" unicode="&#x178;" horiz-adv-x="563" 
d="M183 747l-58 58l58 58l57 -58zM379 747l-57 58l57 58l58 -58zM238 0v268l-231 439h92l183 -366l196 366h88l-246 -439v-268h-82z" />
    <glyph glyph-name="florin" unicode="&#x192;" horiz-adv-x="476" 
d="M25 -21l-3 66q83 6 106 13q67 22 71 113v4l1 77h-104v68h106l1 48q0 60 19.5 101t56 61.5t76 28.5t92.5 8l4 -68q-83 -7 -108 -17q-61 -25 -62 -116l-1 -46h113v-68h-114l-2 -80q-1 -48 -15.5 -83t-37 -56t-56.5 -33.5t-67.5 -16.5t-75.5 -4z" />
    <glyph glyph-name="uni0237" unicode="&#x237;" horiz-adv-x="249" 
d="M-20 -224q-40 0 -70 12l14 64q28 -8 57 -8q57 0 80 35t23 103v564h80v-565q0 -205 -184 -205z" />
    <glyph glyph-name="circumflex" unicode="&#x2c6;" horiz-adv-x="540" 
d="M355 629l-120 83l-129 -84l-34 46l166 113l152 -111z" />
    <glyph glyph-name="dotaccent" unicode="&#x2d9;" horiz-adv-x="277" 
d="M137 648l-65 67l65 66l67 -66z" />
    <glyph glyph-name="ring" unicode="&#x2da;" horiz-adv-x="536" 
d="M270 614q-47 0 -79 24.5t-32 73.5q0 48 32 75t77 27q43 0 76.5 -24.5t33.5 -75.5q0 -47 -30.5 -73.5t-77.5 -26.5zM269 655q28 0 43.5 15.5t16.5 42.5q0 26 -17.5 42t-43.5 16q-28 0 -44 -14.5t-16 -41.5t17 -43.5t44 -16.5z" />
    <glyph glyph-name="tilde" unicode="&#x2dc;" horiz-adv-x="540" 
d="M329 645q-24 0 -63.5 18.5t-60.5 18.5q-37 0 -69 -25l-31 46q45 45 105 45q28 0 66.5 -18.5t56.5 -18.5q34 0 70 28l31 -44q-45 -50 -105 -50z" />
    <glyph glyph-name="Ayb.arm" unicode="&#x531;" horiz-adv-x="797" 
d="M380 -12q-56 0 -103 12t-89.5 39.5t-67 80.5t-24.5 126v461h84v-454q0 -194 200 -194q202 0 202 217v431h79v-434q0 -94 -36 -159l144 -91l-40 -60l-144 97q-75 -72 -205 -72z" />
    <glyph glyph-name="Ben.arm" unicode="&#x532;" horiz-adv-x="757" 
d="M659 230h-482v-230h-81v445q0 75 24 130t66 85t89.5 43.5t102.5 13.5q45 0 83.5 -7.5t75.5 -27t63.5 -50t42.5 -80.5t16 -114l-82 -5q0 213 -199 213q-201 0 -201 -198v-148h482v-70z" />
    <glyph glyph-name="Gim.arm" unicode="&#x533;" horiz-adv-x="780" 
d="M322 717q57 0 105 -13.5t89 -44.5t64.5 -88t23.5 -136v-135h123v-69h-123v-231h-83v231h-208q-261 0 -261 238q0 122 78 185t192 63zM135 467q0 -167 181 -167h205v131q0 215 -199 217q-85 0 -136 -43.5t-51 -137.5z" />
    <glyph glyph-name="Da.arm" unicode="&#x534;" horiz-adv-x="775" 
d="M738 281h-127v-281h-83v433q0 214 -199 214q-201 0 -201 -199v-81h-82v87q0 73 24.5 126.5t66.5 82t89.5 41.5t102.5 13q56 0 103 -13t89 -42.5t66 -86.5t24 -137v-88h127v-69z" />
    <glyph glyph-name="Ech.arm" unicode="&#x535;" horiz-adv-x="750" 
d="M661 477h-482v-224q0 -194 202 -194q198 0 201 205l79 -15q-4 -74 -30.5 -128t-68.5 -81.5t-86.5 -39.5t-94.5 -12q-56 0 -103 12t-90 39.5t-67.5 80.5t-24.5 126v461h83v-161h482v-69z" />
    <glyph glyph-name="Za.arm" unicode="&#x536;" horiz-adv-x="722" 
d="M158 -52h-74v223h74v-84l8 1q105 20 185 70.5t126 118.5q-57 -26 -122 -26q-101 0 -163 56.5t-62 167.5q0 107 64 174.5t170 67.5q124 0 189 -69.5t65 -187.5q0 -123 -87 -228t-205 -145l7 -5l185 4q76 4 120.5 -20t61.5 -87l-63 -31q-18 46 -45 59t-76 13h-358v-72z
M376 309q65 0 137 26q26 61 26 123q0 36 -8.5 68t-27.5 61t-54.5 46.5t-83.5 17.5q-45 0 -77.5 -17t-48.5 -45t-22.5 -54.5t-6.5 -53.5q0 -172 166 -172z" />
    <glyph glyph-name="Eh.arm" unicode="&#x537;" horiz-adv-x="619" 
d="M525 477h-339v-408h121q171 0 199 -132l-65 -28q-21 91 -124 91h-213v707h82v-161h339v-69z" />
    <glyph glyph-name="Et.arm" unicode="&#x538;" horiz-adv-x="775" 
d="M661 0h-565v454q0 72 24.5 125.5t66.5 82t90 42t102 13.5q56 0 103 -13t89 -42.5t66 -86.5t24 -137l-83 -5q0 213 -199 213q-41 0 -74.5 -9t-63.5 -30t-47 -61.5t-17 -97.5v-379h484v-69z" />
    <glyph glyph-name="To.arm" unicode="&#x539;" horiz-adv-x="946" 
d="M441 717q151 0 244.5 -75.5t99.5 -231.5h99v-66h-98v-109q0 -129 -62.5 -188t-161.5 -59q-85 0 -139.5 53t-54.5 147q0 103 64 162.5t177 59.5h93q-6 112 -71.5 174.5t-189.5 62.5q-134 0 -199.5 -68t-65.5 -190v-389h-82v392q0 166 92.5 245.5t254.5 79.5zM564 56
q139 0 139 170v118h-94q-75 0 -116.5 -40.5t-41.5 -111.5q0 -65 30.5 -100.5t82.5 -35.5z" />
    <glyph glyph-name="Zhe.arm" unicode="&#x53a;" horiz-adv-x="739" 
d="M314 -12q-71 0 -130 25.5t-99.5 85.5t-40.5 147q0 132 78.5 204.5t220.5 72.5h168v184h82v-184h121v-70h-121v-186q0 -64 -17 -114t-44.5 -80.5t-65 -50t-74.5 -27t-78 -7.5zM127 255q0 -99 54 -147.5t134 -48.5q196 0 196 213v181h-169q-102 0 -158.5 -51t-56.5 -147z
" />
    <glyph glyph-name="Ini.arm" unicode="&#x53b;" horiz-adv-x="723" 
d="M187 707v-225q81 78 215 78q52 0 96 -13.5t83 -44t61.5 -87.5t22.5 -136v-116h-83v112q0 214 -192 214q-68 0 -124 -23.5t-79 -72.5v-393h-83v707h83z" />
    <glyph glyph-name="Liwn.arm" unicode="&#x53c;" horiz-adv-x="541" 
d="M104 0v707h82v-636h307v-71h-389z" />
    <glyph glyph-name="Xeh.arm" unicode="&#x53d;" horiz-adv-x="981" 
d="M104 707h83v-161h274v-298q0 -106 45 -147.5t127 -41.5q87 0 129 47t42 166v274h81v-278q0 -80 -20.5 -137t-58 -87t-79.5 -43t-94 -13q-253 0 -253 248v241h-193v-477h-83v707z" />
    <glyph glyph-name="Ca.arm" unicode="&#x53e;" horiz-adv-x="844" 
d="M576 602q-9 1 -29 1q74 -41 109.5 -115t35.5 -165q0 -68 -18 -126.5t-54 -106.5t-98 -75.5t-143 -27.5q-66 0 -118.5 18.5t-87 50t-57.5 74.5t-33 90t-10 99q0 209 151 288q-9 -3 -38 -3q-83 0 -127 22.5t-72 73.5l54 46q27 -47 73 -64.5t130 -17.5h267q104 0 168.5 -18
t94.5 -47.5t51 -79.5l-60 -41q-38 110 -189 124zM609 323q0 260 -212 277h-14q-62 0 -107.5 -23.5t-70.5 -64t-37 -87.5t-12 -102q0 -53 11 -98.5t35.5 -85t70.5 -62t109 -22.5q64 0 110 23t70.5 63.5t35.5 85t11 96.5z" />
    <glyph glyph-name="Ken.arm" unicode="&#x53f;" horiz-adv-x="702" 
d="M332 159q-54 0 -99 12.5t-85.5 41t-63 83.5t-22.5 132v279h81v-269q0 -209 194 -209q165 0 204 88v229h83v-546h-83v227q-71 -68 -209 -68z" />
    <glyph glyph-name="Ho.arm" unicode="&#x540;" horiz-adv-x="539" 
d="M472 0h-450l-17 55l271 432l-99 56q-65 35 -65 95q0 47 34 90l60 -31q-20 -28 -20 -48q0 -30 34 -52l156 -88l-273 -438h369v-71z" />
    <glyph glyph-name="Ja.arm" unicode="&#x541;" horiz-adv-x="726" 
d="M351 717q129 0 206.5 -75t77.5 -225q0 -171 -102 -294q89 -58 161 -58l-11 -67q-88 0 -201 71q-98 -81 -228 -81q-199 0 -199 134q0 62 51.5 99t129.5 37q47 0 93 -15.5t73.5 -32t70.5 -46.5q79 98 79 247q0 67 -16.5 115t-46 74t-63.5 37.5t-75 11.5q-87 0 -144.5 -49
t-57.5 -159l-82 8q0 134 82.5 201t201.5 67zM252 51q96 0 171 59q-57 41 -99.5 61.5t-87.5 20.5q-43 0 -71 -18t-28 -52q0 -71 115 -71z" />
    <glyph glyph-name="Ghad.arm" unicode="&#x542;" horiz-adv-x="781" 
d="M762 0h-230v433q0 213 -199 215q-200 2 -200 -200v-83h-82v86q0 75 24 129t66 83t89.5 41.5t102.5 12.5q53 0 99 -13t89 -42.5t68.5 -87t25.5 -136.5v-369h147v-69z" />
    <glyph glyph-name="Cheh.arm" unicode="&#x543;" horiz-adv-x="727" 
d="M698 0h-87l-39 79q-48 -41 -124 -66t-150 -25q-113 0 -176 65t-63 162q0 94 48.5 182t145.5 160q-67 38 -146 53l36 59q98 -19 176 -70q123 75 302 116l28 -62q-159 -34 -274 -99q84 -74 142 -189zM322 57q122 0 226 71l-94 193q-61 127 -143 195q-171 -121 -171 -288
q0 -50 16.5 -85.5t45.5 -53t58 -25t62 -7.5z" />
    <glyph glyph-name="Men.arm" unicode="&#x544;" horiz-adv-x="825" 
d="M807 638h-145v-365q0 -65 -17.5 -116.5t-45 -82.5t-65 -51t-75 -27.5t-78.5 -7.5q-56 0 -103 12t-90 39.5t-67.5 80.5t-24.5 126v461h84v-454q0 -194 201 -194q199 0 199 217v431h227v-69z" />
    <glyph glyph-name="Yi.arm" unicode="&#x545;" horiz-adv-x="714" 
d="M341 -12q-111 0 -182 37.5t-99 125.5l75 25q18 -61 75.5 -90.5t130.5 -29.5q109 0 161 42.5t52 114.5q0 64 -32 95t-99 31h-356v68h325q68 1 105 32.5t37 87.5q0 121 -193 121q-149 0 -185 -108l-76 14q49 163 261 163q271 0 271 -186q0 -109 -95 -150q119 -32 119 -163
q0 -62 -25.5 -108.5t-69 -72t-93.5 -37.5t-107 -12z" />
    <glyph glyph-name="Now.arm" unicode="&#x546;" horiz-adv-x="759" 
d="M428 -12q-56 0 -103 12t-89.5 39.5t-66.5 80t-24 126.5v392h-150v69h233v-454q0 -56 16.5 -95.5t46 -61t63 -30.5t74.5 -9q199 0 199 210v49h81v-59q0 -62 -17.5 -110.5t-45.5 -77.5t-66 -48t-74.5 -26t-76.5 -7z" />
    <glyph glyph-name="Sha.arm" unicode="&#x547;" horiz-adv-x="709" 
d="M620 540l-207 38q-104 -16 -188.5 -96t-84.5 -195q0 -119 57 -174t148 -55q89 0 146 45t62 145l77 -11q-9 -127 -85 -188t-200 -61q-58 0 -106.5 15t-90.5 48t-65.5 93t-23.5 142q0 101 65 188t171 127l-205 39l14 73l525 -107z" />
    <glyph glyph-name="Vo.arm" unicode="&#x548;" horiz-adv-x="779" 
d="M378 717q56 0 102 -12.5t88.5 -42t66.5 -86.5t24 -138v-438h-82v433q0 113 -54.5 163t-144.5 50q-86 0 -143.5 -49t-57.5 -159v-438h-81v444q0 73 24.5 128t66 85.5t89.5 45t102 14.5z" />
    <glyph glyph-name="Cha.arm" unicode="&#x549;" horiz-adv-x="715" 
d="M524 -34l-472 164l26 68l193 -70q47 13 92.5 36t90.5 58t73 86t28 110q0 229 -200 229q-42 0 -75 -9t-63.5 -31t-47 -67t-16.5 -111l-80 8q1 144 77.5 212t204.5 68t205 -71.5t77 -226.5q0 -61 -23.5 -114t-64.5 -92t-88 -67t-102 -49l188 -67z" />
    <glyph glyph-name="Peh.arm" unicode="&#x54a;" horiz-adv-x="843" 
d="M360 153v491q-111 -9 -170.5 -75t-59.5 -179v-90h-82v92q0 87 29.5 152t81 101.5t112 54t130.5 17.5q72 0 132.5 -16.5t111 -52.5t79.5 -101.5t29 -154.5v-392h-82v389q0 115 -59 180.5t-170 74.5v-491h-82z" />
    <glyph glyph-name="Jheh.arm" unicode="&#x54b;" horiz-adv-x="727" 
d="M141 -52h-73v223h73v-84q113 20 201 79q4 38 -7 66.5t-31 46.5t-45 33.5t-50.5 32t-47 37.5t-35 55.5t-13.5 79.5q0 83 65.5 141.5t168.5 58.5q126 0 190 -69.5t64 -183.5q0 -126 -85.5 -231.5t-204.5 -144.5l3 -6l188 4q76 4 120.5 -20t61.5 -87l-64 -31q-18 46 -45 59
t-75 13h-359v-72zM396 206l3 -2q124 109 124 254q0 28 -5.5 54t-18.5 51.5t-32.5 44.5t-50.5 30.5t-70 11.5q-78 0 -115.5 -41.5t-37.5 -96.5q0 -35 16.5 -63.5t41.5 -46t52.5 -38t50.5 -39.5t35.5 -49.5t6.5 -69.5z" />
    <glyph glyph-name="Ra.arm" unicode="&#x54c;" horiz-adv-x="832" 
d="M378 717q56 0 102 -12.5t88.5 -42t66.5 -86.5t24 -138v-89h135v-67h-135v-282h-82v433q0 113 -54.5 163t-144.5 50q-86 0 -143.5 -49t-57.5 -159v-438h-81v444q0 73 24.5 128t66 85.5t89.5 45t102 14.5z" />
    <glyph glyph-name="Seh.arm" unicode="&#x54d;" horiz-adv-x="779" 
d="M379 -12q-56 0 -103 12t-89.5 39.5t-66.5 80t-24 126.5v461h82v-454q0 -194 201 -194q199 0 199 217v431h81v-434q0 -81 -25.5 -139.5t-68 -88.5t-88.5 -43.5t-98 -13.5z" />
    <glyph glyph-name="Vew.arm" unicode="&#x54e;" horiz-adv-x="782" 
d="M327 159q-55 0 -101 12.5t-86.5 41t-63.5 83.5t-23 132v118h81v-108q0 -115 52.5 -161.5t142.5 -46.5q72 0 128 21.5t75 69.5v386h83v-638h146v-69h-229v227q-68 -68 -205 -68z" />
    <glyph glyph-name="Tiwn.arm" unicode="&#x54f;" horiz-adv-x="680" 
d="M332 717q153 0 228 -107l-53 -45q-60 84 -175 84q-72 0 -114.5 -31.5t-42.5 -80.5q0 -42 32 -69.5t79.5 -40t103.5 -29.5t103.5 -35.5t79 -59.5t31.5 -101q-1 -86 -76.5 -150t-189.5 -64q-186 0 -283 129l51 52q93 -112 228 -112q82 0 135.5 42.5t53.5 99.5
q0 39 -23.5 66t-61 42t-83 26.5t-91 26t-83 34.5t-61 57.5t-23.5 90.5q0 69 61.5 122t173.5 53z" />
    <glyph glyph-name="Reh.arm" unicode="&#x550;" horiz-adv-x="737" 
d="M380 717q41 0 78 -7t75.5 -26.5t65.5 -50.5t44.5 -82t17.5 -118v-71h-79v67q0 217 -202 217q-40 0 -74 -9.5t-64 -31t-47 -61.5t-17 -96v-448h-82v450q0 74 24.5 128t66.5 83t90 42.5t103 13.5z" />
    <glyph glyph-name="Co.arm" unicode="&#x551;" horiz-adv-x="723" 
d="M109 534q0 52 22.5 89.5t60 57t76.5 28t81 8.5q41 0 80 -8.5t76.5 -28t60 -57t22.5 -89.5q0 -95 -95 -135q153 -43 153 -184q0 -62 -26 -108t-70 -71t-94 -36.5t-107 -11.5q-108 0 -180 31t-115 108l63 43q36 -63 92 -88t140 -25q110 0 162.5 42.5t52.5 115.5
q0 139 -215 139q-143 0 -208 -58l-56 47q39 39 111 56q-87 39 -87 135zM185 534q0 -58 43.5 -88.5t120.5 -30.5h7q73 2 115 32.5t42 86.5q0 123 -164 123q-76 0 -120 -32.5t-44 -90.5z" />
    <glyph glyph-name="Yiwn.arm" unicode="&#x552;" horiz-adv-x="657" 
d="M104 707h84v-170q50 20 112 20q44 0 76.5 -15t49 -38t28.5 -53.5t16.5 -58.5t11.5 -56.5t15 -43.5q17 -31 41 -43.5t70 -12.5l-7 -72q-17 -4 -38 -4q-75 0 -120 68q-21 31 -33.5 81t-18.5 86.5t-30.5 64t-70.5 27.5q-59 0 -102 -16v-471h-84v707z" />
    <glyph glyph-name="Piwr.arm" unicode="&#x553;" horiz-adv-x="826" 
d="M372 0v81q-144 0 -230 73.5t-86 214.5t86 214.5t230 73.5v74h82v-74q144 0 230 -73.5t86 -214.5t-86 -214.5t-230 -73.5v-81h-82zM454 147q110 0 171.5 58t61.5 164q0 107 -61.5 164.5t-171.5 57.5v-444zM372 147v444q-110 0 -172.5 -57.5t-62.5 -164.5q0 -106 62.5 -164
t172.5 -58z" />
    <glyph glyph-name="Keh.arm" unicode="&#x554;" horiz-adv-x="722" 
d="M641 111h-417v-111h-80v111h-114v63h114l1 311q1 103 63.5 167.5t182.5 64.5t179.5 -63t59.5 -173q0 -102 -63 -162.5t-181 -60.5q-74 0 -160 33l-1 -117h416v-63zM226 480v-125q82 -34 160 -35q41 0 72 11.5t48 28t27.5 40.5t13.5 43.5t3 41.5q0 28 -6 52.5t-21.5 52
t-49.5 44t-84 16.5q-48 0 -82 -15.5t-50.5 -42.5t-23.5 -54t-7 -58z" />
    <glyph glyph-name="Oh.arm" unicode="&#x555;" horiz-adv-x="871" 
d="M405 -12q-162 0 -254 101t-92 266t100.5 263.5t264.5 98.5q165 0 254 -101.5t89 -262.5q0 -164 -97.5 -264.5t-264.5 -100.5zM408 56q135 0 205.5 82.5t70.5 215.5q0 130 -71.5 212.5t-197.5 82.5q-132 0 -203 -81.5t-71 -211.5q0 -128 69.5 -214t197.5 -86z" />
    <glyph glyph-name="Feh.arm" unicode="&#x556;" horiz-adv-x="754" 
d="M436 700v-273q134 -5 208.5 -57t74.5 -156q0 -107 -91.5 -166.5t-242.5 -59.5q-124 0 -215 43.5t-138 102.5l48 54q38 -49 110.5 -87.5t163.5 -44.5v307q-259 11 -259 182q0 77 57.5 124.5t169.5 47.5q57 0 114 -17zM638 204q0 70 -44 111t-158 46v-306q91 6 146.5 47
t55.5 102zM173 550q-2 -53 37 -84.5t144 -36.5v223q-16 2 -34 2q-74 0 -109.5 -30t-37.5 -74z" />
    <glyph glyph-name="ringhalfleft.arm" unicode="&#x559;" horiz-adv-x="198" 
d="M147 553h-59q-40 69 -40 162v40h72v-79q0 -59 27 -123z" />
    <glyph glyph-name="apostrophe.arm" unicode="&#x55a;" horiz-adv-x="198" 
d="M51 553q27 64 27 123v79h72v-40q0 -93 -40 -162h-59z" />
    <glyph glyph-name="emphasismark.arm" unicode="&#x55b;" horiz-adv-x="0" 
d="M-263 742l-37 41l152 159l56 -58z" />
    <glyph glyph-name="exclam.arm" unicode="&#x55c;" horiz-adv-x="0" 
d="M-216 894q15 7 35 7q12 0 34.5 -3.5t32.5 -3.5q14 0 28 6q28 18 43 50l42 -31q-3 -21 -20 -42.5t-47 -35.5q-9 -3 -29 -3q-9 0 -30 1t-31 1q-25 0 -39 -6q-8 -2 -16.5 -8.5t-12.5 -10.5t-14 -16.5t-13 -15.5l-39 34q6 17 27.5 40t48.5 37z" />
    <glyph glyph-name="comma.arm" unicode="&#x55d;" horiz-adv-x="196" 
d="M155 594l-48 -34l-140 171l70 47z" />
    <glyph glyph-name="question.arm" unicode="&#x55e;" horiz-adv-x="0" 
d="M-86 912q-48 0 -75.5 -36.5t-48.5 -101.5l-41 25q20 88 65.5 129t105.5 41q51 0 80.5 -25t29.5 -68q0 -48 -34 -71t-87 -25l-7 37q73 8 73 51q0 44 -61 44z" />
    <glyph glyph-name="abbreviationmark.arm" unicode="&#x55f;" horiz-adv-x="409" 
d="M344 582h-179q-47 0 -80 13t-48 35t-20.5 41.5t-5.5 40.5q0 23 6.5 43.5t23.5 43t54.5 36t91.5 13.5v-45l-25 -2q-38 -3 -66 -26t-28 -62q0 -38 24 -59.5t73 -21.5h179v-50z" />
    <glyph glyph-name="ayb.arm" unicode="&#x561;" horiz-adv-x="959" 
d="M602 -12q-114 0 -148 87q-38 -26 -58.5 -38.5t-67 -30.5t-85.5 -18q-44 0 -76 13.5t-48.5 32.5t-26 50t-11.5 55.5t-2 58.5v324h78v-308q0 -31 1.5 -50t7 -41t16.5 -34t31.5 -20.5t49.5 -8.5q67 0 178 70q-3 20 -3 72v320h78v-308q0 -31 1.5 -50t7 -41t16.5 -34
t31.5 -20.5t49.5 -8.5q65 0 174 68v394h77v-522h-77v64q-1 -1 -18.5 -12.5t-23.5 -15t-23.5 -13.5t-29.5 -14t-29.5 -10t-34.5 -8.5t-35 -2.5z" />
    <glyph glyph-name="ben.arm" unicode="&#x562;" horiz-adv-x="599" 
d="M524 0h-361v-220h-78v742h78v-62q35 24 56 36.5t59.5 26t75.5 13.5q46 0 79 -13.5t50.5 -32t27 -49.5t11.5 -54.5t2 -58.5v-88h-77v73q0 80 -22 116.5t-91 36.5q-10 0 -20.5 -1t-22 -4.5t-20 -6t-21 -8t-19 -8.5t-19 -10t-17 -9.5t-17.5 -10.5t-15 -9v-333h361v-66z" />
    <glyph glyph-name="gim.arm" unicode="&#x563;" horiz-adv-x="643" 
d="M637 0h-137v-220h-78v246q-62 -36 -139 -36q-44 0 -81 12t-72.5 40.5t-55.5 87t-20 141.5q0 131 73 198t186 67q91 0 187 -28v-442h137v-66zM293 57q74 0 129 36v362q-63 15 -110 15q-94 0 -137 -54.5t-43 -147.5q0 -211 161 -211z" />
    <glyph glyph-name="da.arm" unicode="&#x564;" horiz-adv-x="677" 
d="M664 0h-139v-220h-76v533q0 79 -22 116t-92 37q-10 0 -20.5 -1t-21.5 -4.5t-20 -6t-21 -8t-18.5 -8.5t-19 -10t-17 -9.5t-17.5 -10.5t-15 -9v-399h-78v522h78v-62q33 23 55.5 36.5t60.5 26.5t75 13q46 0 79 -13.5t50 -32t26.5 -49.5t11.5 -54.5t2 -58.5v-262h139v-66z
" />
    <glyph glyph-name="ech.arm" unicode="&#x565;" horiz-adv-x="597" 
d="M514 456h-357v-242q0 -31 1.5 -50t7 -41t16.5 -34t31.5 -20.5t49.5 -8.5q62 0 175 68v151h76v-279h-76v64q-3 -2 -19 -12.5t-24 -15l-24 -13.5t-28.5 -14t-29.5 -10.5t-34.5 -8t-35.5 -2.5q-44 0 -76 13.5t-48.5 32.5t-26 50t-11.5 55.5t-2 58.5v556h78v-232h357v-66z
" />
    <glyph glyph-name="za.arm" unicode="&#x566;" horiz-adv-x="617" 
d="M623 -220h-201v246q-62 -36 -139 -36q-44 0 -81 12t-72.5 40.5t-55.5 87t-20 141.5q0 131 73 198t186 67q91 0 187 -28v-663h123v-65zM293 57q74 0 129 36v362q-63 15 -110 15q-94 0 -137 -54.5t-43 -147.5q0 -211 161 -211z" />
    <glyph glyph-name="eh.arm" unicode="&#x567;" horiz-adv-x="483" 
d="M431 456h-268v-390h114q69 0 96 -27.5t34 -80.5l-71 -22q-3 33 -19 48.5t-63 15.5h-169v754h78v-232h268v-66z" />
    <glyph glyph-name="et.arm" unicode="&#x568;" 
d="M87 -220v742h78v-62q33 23 55.5 36.5t60.5 26.5t75 13q46 0 79 -13.5t50 -32t26.5 -49.5t11.5 -54.5t2 -58.5v-328h-76v313q0 79 -22 116t-92 37q-10 0 -20.5 -1t-21.5 -4.5t-20 -6t-21 -8t-18.5 -8.5t-19 -10t-17 -9.5t-17.5 -10.5t-15 -9v-554h360v-65h-438z" />
    <glyph glyph-name="to.arm" unicode="&#x569;" horiz-adv-x="678" 
d="M357 536q206 0 221 -225h77v-61h-77q-5 -133 -54.5 -198t-122.5 -65q-72 0 -113 43t-41 118q0 79 45 121t132 42h80q-16 158 -159 158q-23 0 -44 -3.5t-43.5 -13.5t-32 -15t-34.5 -20t-26 -16v-621h-78v742h78v-60q30 21 50 33.5t61 26.5t81 14zM401 49q48 0 75.5 54
t30.5 148h-80q-110 0 -110 -103q0 -42 23 -70.5t61 -28.5z" />
    <glyph glyph-name="zhe.arm" unicode="&#x56a;" horiz-adv-x="644" 
d="M527 522h103l1 -66h-104v-197q0 -135 -51 -203t-166 -68q-112 0 -172.5 68.5t-60.5 194.5q0 134 78 202.5t216 68.5h76v232h80v-232zM156 253q0 -96 40 -148.5t118 -52.5q36 0 61.5 12t39 29t21 45t9.5 50.5t2 53.5v214h-82q-112 0 -160.5 -50.5t-48.5 -152.5z" />
    <glyph glyph-name="ini.arm" unicode="&#x56b;" 
d="M87 -220v974h78v-294q33 23 55.5 36.5t60.5 26.5t75 13q46 0 79 -13.5t50 -32t26.5 -49.5t11.5 -54.5t2 -58.5v-328h-76v313q0 79 -22 116t-92 37q-10 0 -20.5 -1t-21.5 -4.5t-20 -6t-21 -8t-18.5 -8.5t-19 -10t-17 -9.5t-17.5 -10.5t-15 -9v-619h-78z" />
    <glyph glyph-name="liwn.arm" unicode="&#x56c;" horiz-adv-x="309" 
d="M88 -220v742h79v-677h132v-65h-211z" />
    <glyph glyph-name="xeh.arm" unicode="&#x56d;" horiz-adv-x="843" 
d="M87 -220v974h78v-232h237v-308q0 -31 1.5 -50t7 -41t16.5 -34t31 -20.5t49 -8.5q62 0 175 68v394h76v-522h-76v64q-1 -1 -22 -14.5t-29 -18t-29 -15t-35.5 -15t-36.5 -9t-43 -4.5q-44 0 -75.5 13.5t-48.5 32.5t-26.5 50t-11.5 55.5t-2 58.5v258h-158v-676h-78z" />
    <glyph glyph-name="ca.arm" unicode="&#x56e;" horiz-adv-x="611" 
d="M152 619l3 7l67 133l62 -31l-40 -82q105 -54 173 -124h154l1 -65h-105q58 -90 59 -197q0 -134 -62 -203t-176 -69q-236 0 -236 268q0 124 76.5 186.5t195.5 69.5q-24 21 -53.5 41t-48 30t-43.5 22.5zM132 253q0 -200 160 -200q152 0 152 201q0 115 -69 203h-9
q-117 0 -175.5 -54t-58.5 -150z" />
    <glyph glyph-name="ken.arm" unicode="&#x56f;" horiz-adv-x="600" 
d="M243 -12q-44 0 -76 13.5t-48.5 32.5t-26 50t-11.5 55.5t-2 58.5v556h78v-540q0 -31 1.5 -50t7 -41t16.5 -34t31.5 -20.5t49.5 -8.5q62 0 175 68v394h76v-742h-76v284q-3 -2 -19 -12.5t-24 -15l-24 -13.5t-28.5 -14t-29.5 -10.5t-34.5 -8t-35.5 -2.5z" />
    <glyph glyph-name="ho.arm" unicode="&#x570;" 
d="M87 0v754h78v-294q33 23 55.5 36.5t60.5 26.5t75 13q46 0 79 -13.5t50 -32t26.5 -49.5t11.5 -54.5t2 -58.5v-328h-76v313q0 79 -22 116t-92 37q-10 0 -20.5 -1t-21.5 -4.5t-20 -6t-21 -8t-18.5 -8.5t-19 -10t-17 -9.5t-17.5 -10.5t-15 -9v-399h-78z" />
    <glyph glyph-name="ja.arm" unicode="&#x571;" horiz-adv-x="578" 
d="M575 0h-85l-37 63q-99 -75 -209 -75q-99 0 -145.5 52t-46.5 135q0 75 49.5 154.5t164.5 186.5l-31 29q-52 44 -52 105q0 44 39 86l21 22l53 -43l-17 -19q-21 -24 -21 -47q0 -30 44 -74l58 -59q-53 -47 -59 -54zM256 55q82 0 169 57l-175 300q-118 -124 -118 -227
q0 -130 124 -130z" />
    <glyph glyph-name="ghad.arm" unicode="&#x572;" horiz-adv-x="641" 
d="M644 -220h-195v533q0 79 -22 116t-92 37q-10 0 -20.5 -1t-21.5 -4.5t-20 -6t-21 -8t-18.5 -8.5t-19 -10t-17 -9.5t-17.5 -10.5t-15 -9v-399h-78v522h78v-62q33 23 55.5 36.5t60.5 26.5t75 13q46 0 79 -13.5t50 -32t26.5 -49.5t11.5 -54.5t2 -58.5v-483h119v-65z" />
    <glyph glyph-name="cheh.arm" unicode="&#x573;" horiz-adv-x="629" 
d="M617 0h-81l-33 76q-112 -88 -239 -88q-81 0 -131 51.5t-50 147.5q0 143 80 297q-36 8 -92 13l16 65q47 -1 111 -14q15 25 37 55q54 76 117.5 115.5t147.5 39.5q26 0 61 -5l-8 -71q-31 6 -57 6q-101 0 -185 -100q-15 -18 -43 -58q141 -53 198 -183zM278 55q102 0 201 76
l-57 136q-36 83 -79 130t-110 70q-71 -132 -71 -258q0 -75 26.5 -114.5t89.5 -39.5z" />
    <glyph glyph-name="men.arm" unicode="&#x574;" horiz-adv-x="644" 
d="M243 -12q-44 0 -76 13.5t-48.5 32.5t-26 50t-11.5 55.5t-2 58.5v324h78v-308q0 -31 1.5 -50t7 -41t16.5 -34t31.5 -20.5t49.5 -8.5q62 0 175 68v488q0 68 25 104t91 36q54 0 114 -26l-22 -60q-54 19 -79 19q-51 0 -53 -52v-637h-76v64q-3 -2 -19 -12.5t-24 -15l-24 -13.5
t-28.5 -14t-29.5 -10.5t-34.5 -8t-35.5 -2.5z" />
    <glyph glyph-name="yi.arm" unicode="&#x575;" horiz-adv-x="290" 
d="M205 522v-596q0 -75 -28.5 -110.5t-93.5 -35.5q-51 0 -109 25l13 60q49 -18 88 -18q28 0 40 13.5t14 43.5v618h76z" />
    <glyph glyph-name="now.arm" unicode="&#x576;" horiz-adv-x="661" 
d="M499 522h76v-522h-76v64q-3 -2 -19 -12.5t-24 -15l-24 -13.5t-28.5 -14t-29.5 -10.5t-34.5 -8t-35.5 -2.5q-44 0 -75.5 13.5t-48.5 32.5t-26.5 50t-11.5 55.5t-2 58.5v426h-23q-65 0 -97.5 19.5t-37.5 70.5q-2 16 -2 25l68 15q0 -40 20.5 -54t57.5 -14h92v-472
q0 -30 1.5 -49t7 -41.5t16.5 -34.5t31.5 -20.5t49.5 -8.5q62 0 175 68v394z" />
    <glyph glyph-name="sha.arm" unicode="&#x577;" horiz-adv-x="511" 
d="M207 -155h253v-65h-260q-144 0 -144 107q0 60 65 136l149 171q54 63 74.5 97.5t20.5 72.5q0 43 -33 72.5t-85 29.5q-45 0 -81 -18t-75 -60l-42 45q30 32 50.5 50t64 35.5t97.5 17.5q89 0 139.5 -50t50.5 -119q0 -36 -16.5 -74t-34 -61.5t-48.5 -57.5l-162 -183
q-49 -54 -49 -95q0 -51 66 -51z" />
    <glyph glyph-name="vo.arm" unicode="&#x578;" 
d="M87 0v522h78v-62q33 23 55.5 36.5t60.5 26.5t75 13q46 0 79 -13.5t50 -32t26.5 -49.5t11.5 -54.5t2 -58.5v-328h-76v313q0 79 -22 116t-92 37q-10 0 -20.5 -1t-21.5 -4.5t-20 -6t-21 -8t-18.5 -8.5t-19 -10t-17 -9.5t-17.5 -10.5t-15 -9v-399h-78z" />
    <glyph glyph-name="cha.arm" unicode="&#x579;" horiz-adv-x="431" 
d="M183 -155h224v-65h-233q-72 0 -106 29t-34 75q0 50 46 118l165 242l-44 37q-61 47 -61 118q0 58 44 108l42 47l49 -42l-27 -31q-35 -41 -35 -79q0 -41 43 -80l84 -72l-189 -270q-38 -52 -38 -87q0 -48 70 -48z" />
    <glyph glyph-name="peh.arm" unicode="&#x57a;" horiz-adv-x="959" 
d="M873 -220h-77v284q-1 -1 -18.5 -12.5t-23.5 -15t-23.5 -13.5t-29.5 -14t-29.5 -10t-34.5 -8.5t-35 -2.5q-115 0 -148 87q-38 -26 -58.5 -38.5t-67 -30.5t-85.5 -18q-44 0 -76 13.5t-48.5 32.5t-26 50t-11.5 55.5t-2 58.5v324h78v-308q0 -31 1.5 -50t7 -41t16.5 -34
t31.5 -20.5t49.5 -8.5q67 0 178 70q-3 20 -3 74v318h78v-308q0 -31 1.5 -50t7 -41t16.5 -34t31.5 -20.5t49.5 -8.5q65 0 174 68v394h77v-742z" />
    <glyph glyph-name="jheh.arm" unicode="&#x57b;" horiz-adv-x="568" 
d="M190 94q-2 20 -15.5 40.5t-31.5 39.5t-36 40t-30.5 51.5t-12.5 65.5q0 78 65 141.5t172 63.5q104 0 160 -58t56 -133q-1 -102 -146 -223q-8 -8 -85.5 -68t-87.5 -66q-70 -51 -70 -94q0 -23 23.5 -36t63.5 -13h298v-65h-326q-66 0 -100.5 27.5t-34.5 73.5q0 70 75 131
q3 3 28 23l30 24q7 17 5 35zM308 153q70 56 100.5 96.5t30.5 88.5q0 58 -39.5 94.5t-102.5 36.5q-67 0 -110.5 -38.5t-43.5 -99.5q0 -33 15.5 -63t34 -49t34.5 -43.5t17 -48.5q0 -18 -3 -26q4 2 34 25.5t33 26.5z" />
    <glyph glyph-name="ra.arm" unicode="&#x57c;" horiz-adv-x="617" 
d="M537 0h-204v57q59 77 91 143t32 144q0 123 -114 123q-76 0 -177 -68v-399h-78v522h78v-62q105 76 199 76q88 0 129.5 -46t40.5 -129q-2 -149 -118 -295h121v-66z" />
    <glyph glyph-name="seh.arm" unicode="&#x57d;" horiz-adv-x="599" 
d="M243 -12q-44 0 -76 13.5t-48.5 32.5t-26 50t-11.5 55.5t-2 58.5v324h78v-308q0 -31 1.5 -50t7 -41t16.5 -34t31.5 -20.5t49.5 -8.5q62 0 175 68v394h76v-522h-76v64q-3 -2 -19 -12.5t-24 -15l-24 -13.5t-28.5 -14t-29.5 -10.5t-34.5 -8t-35.5 -2.5z" />
    <glyph glyph-name="vew.arm" unicode="&#x57e;" horiz-adv-x="643" 
d="M645 -220h-207v284q-3 -2 -19 -12.5t-24 -15l-24 -13.5t-28.5 -14t-29.5 -10.5t-34.5 -8t-35.5 -2.5q-44 0 -76 13.5t-48.5 32.5t-26 50t-11.5 55.5t-2 58.5v324h78v-308q0 -31 1.5 -50t7 -41t16.5 -34t31.5 -20.5t49.5 -8.5q62 0 175 68v626h76v-905h131v-69z" />
    <glyph glyph-name="tiwn.arm" unicode="&#x57f;" horiz-adv-x="953" 
d="M874 0h-77v313q0 80 -22 116.5t-91 36.5q-29 0 -65.5 -13.5t-53 -23t-51.5 -30.5v-399h-76v64q-3 -2 -19 -12.5t-24 -15l-24 -13.5t-28.5 -14t-29.5 -10.5t-34.5 -8t-35.5 -2.5q-44 0 -76 13.5t-48.5 32.5t-26 50t-11.5 55.5t-2 58.5v324h78v-308q0 -31 1.5 -50t7 -41
t16.5 -34t31.5 -20.5t49.5 -8.5q62 0 175 68v394h76v-62q33 23 55 36.5t60 26.5t75 13q46 0 79 -13.5t50.5 -32t27 -49.5t11.5 -54.5t2 -58.5v-328z" />
    <glyph glyph-name="reh.arm" unicode="&#x580;" 
d="M87 -220v742h78v-62q33 23 55.5 36.5t60.5 26.5t75 13q46 0 79 -13.5t50 -32t26.5 -49.5t11.5 -54.5t2 -58.5v-328h-76v313q0 79 -22 116t-92 37q-10 0 -20.5 -1t-21.5 -4.5t-20 -6t-21 -8t-18.5 -8.5t-19 -10t-17 -9.5t-17.5 -10.5t-15 -9v-619h-78z" />
    <glyph glyph-name="co.arm" unicode="&#x581;" horiz-adv-x="594" 
d="M287 -234q-105 0 -177 21l14 69q80 -20 146 -20q80 0 121.5 28t41.5 113v61q-53 -47 -127 -47q-38 0 -69 5.5t-64 23t-55 47t-36.5 80.5t-14.5 119q0 138 72 204t187 66q77 0 184 -21v-554q0 -97 -60.5 -146t-162.5 -49zM313 56q56 0 119 49v353q-59 11 -107 11
q-180 0 -180 -206q0 -109 42 -158t126 -49z" />
    <glyph glyph-name="yiwn.arm" unicode="&#x582;" horiz-adv-x="317" 
d="M98 0v522h78v-456h132v-66h-210z" />
    <glyph glyph-name="piwr.arm" unicode="&#x583;" horiz-adv-x="953" 
d="M874 0h-77v313q0 80 -22 116.5t-91 36.5q-29 0 -65.5 -13.5t-53 -23t-51.5 -30.5v-619h-76v284q-3 -2 -19 -12.5t-24 -15l-24 -13.5t-28.5 -14t-29.5 -10.5t-34.5 -8t-35.5 -2.5q-44 0 -76 13.5t-48.5 32.5t-26 50t-11.5 55.5t-2 58.5v324h78v-308q0 -31 1.5 -50t7 -41
t16.5 -34t31.5 -20.5t49.5 -8.5q62 0 175 68v626h76v-294q33 23 55 36.5t60 26.5t75 13q46 0 79 -13.5t50.5 -32t27 -49.5t11.5 -54.5t2 -58.5v-328z" />
    <glyph glyph-name="keh.arm" unicode="&#x584;" horiz-adv-x="612" 
d="M555 -137h-371v-88h-78v88h-80v57h80v602h78v-44q79 57 152 57q108 0 165 -62.5t57 -188.5q0 -82 -21.5 -141.5t-59.5 -91t-82.5 -46t-99.5 -14.5q-57 0 -111 8v-79h371v-57zM298 55q87 0 133 57.5t46 151.5q0 97 -34 150t-124 53q-61 0 -135 -52v-349q5 -1 24 -4t40 -5
t50 -2z" />
    <glyph glyph-name="oh.arm" unicode="&#x585;" horiz-adv-x="600" 
d="M297 -12q-116 0 -180 68t-64 200q0 137 68.5 209t182.5 72q242 0 242 -276q0 -137 -68 -205t-181 -68zM303 53q163 0 163 208q0 211 -165 211q-47 0 -81.5 -18t-52.5 -49.5t-26 -67t-8 -77.5q0 -207 170 -207z" />
    <glyph glyph-name="feh.arm" unicode="&#x586;" horiz-adv-x="733" 
d="M416 741v-292q265 -13 265 -227q0 -105 -72.5 -164.5t-192.5 -68.5v-209h-77v207q-201 6 -286 114l47 55q36 -45 90 -70.5t149 -28.5v330q-120 6 -175.5 58t-55.5 130q0 77 55.5 130t145.5 53q52 0 107 -17zM601 218q0 154 -185 166v-326q102 9 143.5 56t41.5 104z
M183 580q0 -56 34.5 -89.5t121.5 -38.5v240q-20 2 -39 2q-57 0 -87 -34.5t-30 -79.5z" />
    <glyph glyph-name="echyiwn.arm" unicode="&#x587;" horiz-adv-x="637" 
d="M633 0h-195v67q-1 0 -19 -13t-23.5 -16t-23.5 -14t-29 -15t-29 -10t-35.5 -8.5t-35.5 -2.5q-44 0 -76 13.5t-48.5 32.5t-26 50t-11.5 55.5t-2 58.5v556h78v-540q0 -31 1.5 -50t7 -41t16.5 -34t31.5 -20.5t49.5 -8.5q64 0 175 71v391h76v-456h119v-66z" />
    <glyph glyph-name="period.arm" unicode="&#x589;" horiz-adv-x="300" 
d="M103 0v90h94v-90h-94zM103 370v90h94v-90h-94z" />
    <glyph glyph-name="hyphen.arm" unicode="&#x58a;" horiz-adv-x="539" 
d="M99 254v65h341v-65h-341z" />
    <glyph glyph-name="Dram.arm" unicode="&#x58c;" horiz-adv-x="787" 
d="M763 173h-127v-173h-81v173h-119v63h119v112h-119v62h119v27q-1 209 -201 209t-200 -197v-86l-84 5v87q0 75 24.5 128.5t67 81.5t89.5 40t103 12q53 0 99 -12.5t89 -42t68.5 -86.5t25.5 -137v-29h127v-62h-127v-112h127v-63z" />
    <glyph glyph-name="eternity.arm" unicode="&#x58d;" horiz-adv-x="670" 
d="M554 476q-24 6 -45 6q-53 0 -98 -34.5t-64 -119.5q77 97 159 97q67 0 107 -54q22 -31 22 -68q0 -42 -29 -80q-14 39 -49.5 71.5t-93.5 32.5q-45 0 -95 -21q59 0 101.5 -14t63 -37.5t29 -47t8.5 -48.5q0 -15 -4 -33q-11 -40 -43 -63t-76 -24q24 38 24 85q0 92 -110 152
q64 -79 64 -146q0 -45 -25 -76.5t-55 -44.5q-23 -10 -47 -10q-56 0 -95 48q49 6 92.5 44t43.5 115q0 24 -6 54q-20 -92 -62 -130t-92 -38q-35 0 -63 15q-63 33 -63 104q0 15 3 30q47 -45 107 -45q74 0 139 77q-68 -34 -121 -34q-59 0 -92 34.5t-41 72.5q-9 40 9 75.5
t57 55.5q-2 -25 4.5 -50.5t23.5 -54t56 -47t96 -20.5q-133 61 -133 158q0 51 30 87q35 43 89 43q27 0 54 -12q-68 -47 -68 -125q0 -61 49 -125q-11 44 -11 83q0 44 14.5 76t37.5 47.5t44 22.5t40 7q41 0 72 -25t42 -66z" />
    <glyph glyph-name="index.arm" unicode="&#x58e;" horiz-adv-x="811" 
d="M478 0h-450l-17 55l271 432l-99 56q-65 35 -65 95q0 47 34 90l60 -31q-20 -28 -20 -48q0 -30 34 -52l156 -88l-273 -438h369v-71zM562 345q-32 0 -52 9t-28.5 27t-11 35t-2.5 44v173h60v-169q0 -36 9.5 -51.5t39.5 -15.5q27 0 81 29v240q0 92 79 92q36 0 71 -16l-19 -45
q-29 9 -43 9q-27 0 -29 -29v-326h-59v33q-51 -39 -96 -39zM470 247v51h260v-51h-260z" />
    <glyph glyph-name="Pomergranate.arm" unicode="&#x58f;" horiz-adv-x="598" 
d="M299 -12l-20 3q-1 0 -28.5 6.5t-51.5 6.5q-51 0 -100.5 45.5t-49.5 114.5v130q0 68 46.5 111t114.5 61q-1 1 -1 3q-21 56 -101 60q35 35 100 35q22 0 43 -13q6 21 13 38q5 15 13.5 31.5t14.5 25.5l5 9q25 -33 37 -66l13 -38q19 13 43 13q65 0 100 -35q-80 -4 -101 -60
l-1 -2q69 -19 115 -61.5t46 -111.5v-130q0 -69 -49.5 -114.5t-100.5 -45.5q-24 0 -51.5 -6.5t-28.5 -6.5z" />
    <glyph glyph-name="endash" unicode="&#x2013;" horiz-adv-x="611" 
d="M60 254v65h491v-65h-491z" />
    <glyph glyph-name="emdash" unicode="&#x2014;" horiz-adv-x="898" 
d="M60 254v65h778v-65h-778z" />
    <glyph glyph-name="quoteleft" unicode="&#x2018;" horiz-adv-x="199" 
d="M61 555v39q0 94 41 162h58q-27 -64 -27 -123v-78h-72z" />
    <glyph glyph-name="quoteright" unicode="&#x2019;" horiz-adv-x="198" 
d="M51 554q27 60 27 123v78h72v-40q0 -92 -40 -161h-59z" />
    <glyph glyph-name="quotedblleft" unicode="&#x201c;" horiz-adv-x="345" 
d="M61 555v39q0 94 41 162h58q-27 -60 -27 -123v-78h-72zM207 555v39q0 93 40 162h59q-27 -64 -27 -123v-78h-72z" />
    <glyph glyph-name="quotedblright" unicode="&#x201d;" horiz-adv-x="345" 
d="M51 554q27 60 27 123v78h72v-40q0 -92 -40 -161h-59zM197 554q28 62 28 123v78h72v-40q0 -93 -41 -161h-59z" />
    <glyph glyph-name="dagger" unicode="&#x2020;" horiz-adv-x="476" 
d="M197 0l6 515l-167 -7v74l167 -6l-7 178h83l-6 -178l167 6v-74l-167 7l6 -515h-82z" />
    <glyph glyph-name="daggerdbl" unicode="&#x2021;" horiz-adv-x="506" 
d="M212 0l6 177l-167 -6v75l167 -7v275l-167 -6v74l166 -5l-6 177h83l-6 -177l167 5v-74l-167 6v-275l167 7v-75l-167 6l6 -177h-82z" />
    <glyph glyph-name="bullet" unicode="&#x2022;" horiz-adv-x="397" 
d="M199 208q-61 0 -103 41t-42 103t42 103.5t103 41.5t103 -41t42 -104q0 -61 -42.5 -102.5t-102.5 -41.5z" />
    <glyph glyph-name="ellipsis" unicode="&#x2026;" horiz-adv-x="757" 
d="M71 0v91h92v-91h-92zM328 0v91h92v-91h-92zM594 0v91h91v-91h-91z" />
    <glyph glyph-name="guilsinglleft" unicode="&#x2039;" horiz-adv-x="273" 
d="M157 52l-106 220l106 220l59 -22l-87 -198l86 -195z" />
    <glyph glyph-name="guilsinglright" unicode="&#x203a;" horiz-adv-x="272" 
d="M115 52l-57 27l85 193l-87 198l59 22l107 -220z" />
    <glyph glyph-name="Euro" unicode="&#x20ac;" horiz-adv-x="603" 
d="M388 -10q-107 0 -179 50t-98 136h-63v55h53q-3 18 -3 38q0 30 4 51h-54v55h66q27 85 96.5 132.5t174.5 47.5q86 0 167 -31l-23 -63q-80 25 -142 25q-65 1 -116 -26.5t-74 -84.5h251v-55h-266q-3 -21 -3 -43q0 -25 3 -46h266v-55h-250q24 -60 78.5 -89.5t125.5 -29.5
q54 0 133 22l19 -62q-69 -27 -166 -27z" />
    <glyph glyph-name="trademark" unicode="&#x2122;" horiz-adv-x="807" 
d="M353 352v355h80l105 -299l117 299h76v-355h-60l1 262l-103 -262h-67l-90 263v-263h-59zM154 352v301h-116v54h294v-54h-117v-301h-61z" />
    <glyph glyph-name="minus" unicode="&#x2212;" horiz-adv-x="653" 
d="M72 270v66h509v-66h-509z" />
    <glyph glyph-name="infinity" unicode="&#x221e;" horiz-adv-x="940" 
d="M218 135q-81 0 -122.5 45t-41.5 113q0 72 45.5 117.5t122.5 45.5q27 0 51.5 -5.5t55 -22.5t44 -25t52 -36t46.5 -33q10 7 46.5 33t52 35.5t45 25.5t54.5 22t51 6q81 0 124 -44.5t43 -111.5q0 -68 -46 -116t-126 -48q-27 0 -51.5 5.5t-56 23.5t-43.5 25t-53 37t-45 33
q-10 -7 -45.5 -32.5t-52 -36t-46 -27t-54.5 -23t-50 -6.5zM224 198q18 0 37 5.5t42.5 19t36.5 21.5t41 28t33 23q-4 3 -28 20t-33.5 23.5t-31.5 20.5t-35.5 19.5t-32 11t-33.5 5.5q-45 0 -72 -28t-27 -70q0 -45 27.5 -72t75.5 -27zM719 198q46 0 72.5 28.5t26.5 69.5
q0 46 -28 72.5t-74 26.5q-29 0 -69.5 -19.5t-59 -32.5t-64.5 -46q8 -5 35 -24t41.5 -28.5t38 -22.5t43 -18.5t38.5 -5.5z" />
    <glyph glyph-name="notequal" unicode="&#x2260;" horiz-adv-x="621" 
d="M55 11l123 155h-115v66h166l114 144h-280v66h331l111 139h67l-111 -139h98v-66h-149l-113 -144h262v-66h-313l-122 -155h-69z" />
    <glyph glyph-name="lessequal" unicode="&#x2264;" horiz-adv-x="556" 
d="M493 69v-69h-438v69h438zM488 144l-428 159v101l428 159v-74l-372 -136l372 -135v-74z" />
    <glyph glyph-name="greaterequal" unicode="&#x2265;" horiz-adv-x="556" 
d="M63 0v69h438v-69h-438zM496 303l-428 -159v74l373 135l-373 136v74l428 -159v-101z" />
    <glyph glyph-name="apple" unicode="&#xf8ff;" horiz-adv-x="1241" 
d="M1141 357h-10v-10h-11v10h-10v11h10v10h11v-10h10v-11zM1081 377h-11v11h11v-11zM1081 338h-11v10h11v-10zM1041 377h-11v11h11v-11zM1071 357h-10v-10h-11v10h-10v11h10v10h11v-10h10v-11zM1041 338h-11v10h11v-10zM1001 387h-10v-10h-11v11h10v10h11v-11zM1001 328h-11
v10h-10v10h11v-10h10v-10zM951 377h-11v10h-10v11h11v-10h10v-11zM981 357h-10v-10h-11v10h-10v11h10v10h11v-10h10v-11zM951 338h-10v-10h-11v10h10v10h11v-10zM911 338h-31v9h-10v31h10v10h21v-10h10v-21h-30v-9h30v-10zM900 368v9h-19v-9h19zM851 338h-31v9h-10v41h11
v-40h19v40h11v-50zM791 318h-11v20h-20v9h-10v31h10v10h31v-70zM780 348v29h-19v-29h19zM731 338h-31v9h-10v31h10v10h21v-10h10v-21h-30v-9h30v-10zM720 368v9h-19v-9h19zM671 338h-11v39h-19v-39h-11v70h11v-20h20v-10h10v-40zM611 338h-21v9h-10v30h-10v11h10v10h11v-10
h20v-11h-20v-29h20v-10zM551 347h-10v-9h-21v9h-10v31h10v10h21v-10h10v-31zM540 348v29h-19v-29h19zM491 347h-10v-9h-20v-20h-11v70h31v-10h10v-31zM480 348v29h-19v-29h19zM431 347h-10v-9h-10v-10h-10v-10h-11v11h10v18h-10v41h11v-40h19v40h11v-41zM371 338h-21v9h-10
v30h-10v11h10v10h11v-10h20v-11h-20v-29h20v-10zM311 387h-10v-10h-11v11h10v10h11v-11zM311 328h-11v10h-10v10h11v-10h10v-10zM261 377h-11v10h-10v11h11v-10h10v-11zM291 357h-10v-10h-11v10h-10v11h10v10h11v-10h10v-11zM261 338h-10v-10h-11v10h10v10h11v-10zM211 377
h-11v11h11v-11zM211 338h-11v10h11v-10zM171 377h-11v11h11v-11zM201 357h-10v-10h-11v10h-10v11h10v10h11v-10h10v-11zM171 338h-11v10h11v-10zM131 357h-10v-10h-11v10h-10v11h10v10h11v-10h10v-11z" />
    <glyph glyph-name="CR" horiz-adv-x="211" 
 />
    <glyph glyph-name="dieresis.cap" horiz-adv-x="520" 
d="M176 747l-58 58l58 58l57 -58zM372 747l-57 58l57 58l58 -58z" />
    <glyph glyph-name="ring.cap" horiz-adv-x="770" 
d="M387 707q-42 0 -70.5 22t-28.5 66q0 43 28.5 67t68.5 24q38 0 68 -22t30 -67q0 -42 -27.5 -66t-68.5 -24zM386 744q25 0 39 14t14 38q0 23 -16 37.5t-38 14.5q-24 0 -39 -13t-15 -37t15.5 -39t39.5 -15z" />
    <glyph glyph-name="grave.cap" horiz-adv-x="481" 
d="M343 747l-224 65l21 68l221 -80z" />
    <glyph glyph-name="tilde.cap" horiz-adv-x="550" 
d="M343 754q-21 0 -61 18.5t-59 18.5q-37 0 -69 -24l-31 45q49 46 100 46q28 0 66.5 -18.5t53.5 -18.5q36 0 64 26l31 -44q-37 -49 -95 -49z" />
    <glyph glyph-name="acute.cap" horiz-adv-x="603" 
d="M206 747l-16 52l219 84l21 -67z" />
    </font>
</defs>
</svg>
