<?xml version="1.0" standalone="no"?>
<!DOCTYPE svg PUBLIC "-//W3C//DTD SVG 1.1//EN" "http://www.w3.org/Graphics/SVG/1.1/DTD/svg11.dtd" >
<svg xmlns="http://www.w3.org/2000/svg" xmlns:xlink="http://www.w3.org/1999/xlink" version="1.1">
<metadata>
Created by FontForge 20170731 at Wed Aug 18 02:40:27 2010
 By Aleksey,,,
Copyright (c) 2010 Typotheque.com All rights reserved.
</metadata>
<defs>
<font id="FedraSansArm-Medium" horiz-adv-x="635" >
  <font-face 
    font-family="Fedra Sans Arm"
    font-weight="500"
    font-stretch="normal"
    units-per-em="1000"
    panose-1="1 0 0 0 0 0 0 0 0 0"
    ascent="780"
    descent="-220"
    x-height="546"
    cap-height="707"
    bbox="-360 -267 1498 987"
    underline-thickness="50"
    underline-position="-200"
    unicode-range="U+0020-FB17"
  />
<missing-glyph horiz-adv-x="712" 
d="M305 375v27h27v-27h-27zM380 525v27h27v-27h-27zM305 525v27h27v-27h-27zM230 525v27h27v-27h-27zM80 0v27h27v-27h-27zM155 0v27h27v-27h-27zM230 0v27h27v-27h-27zM305 0v27h27v-27h-27zM380 0v27h27v-27h-27zM80 75v27h27v-27h-27zM80 150v27h27v-27h-27zM80 225v27
h27v-27h-27zM80 300v27h27v-27h-27zM80 375v27h27v-27h-27zM80 450v27h27v-27h-27zM80 525v27h27v-27h-27zM80 600v27h27v-27h-27zM80 675v27h27v-27h-27zM155 675v27h27v-27h-27zM230 675v27h27v-27h-27zM305 675v27h27v-27h-27zM380 675v27h27v-27h-27zM455 675v27h27v-27
h-27zM530 675v27h27v-27h-27zM530 0v27h27v-27h-27zM455 0v27h27v-27h-27zM605 0v27h27v-27h-27zM605 675v27h27v-27h-27zM305 300v27h27v-27h-27zM305 150v27h27v-27h-27zM380 375v27h27v-27h-27zM455 375v27h27v-27h-27zM455 450v27h27v-27h-27zM455 525v27h27v-27h-27z
M605 600v27h27v-27h-27zM605 525v27h27v-27h-27zM605 375v27h27v-27h-27zM605 300v27h27v-27h-27zM605 150v27h27v-27h-27zM605 75v27h27v-27h-27zM605 225v27h27v-27h-27zM605 450v27h27v-27h-27z" />
    <glyph glyph-name="fi" unicode="fi" horiz-adv-x="660" 
d="M105 -171v621h-80v96h80v30q0 204 211 204q22 0 66 -3t65 -3q69 0 119 6l21 -101q-64 -21 -147 -21q-21 0 -61 2.5t-65 2.5q-41 0 -58.5 -20t-17.5 -68v-29h348v-546h-134v450h-215v-621h-132z" />
    <glyph glyph-name="fl" unicode="fl" horiz-adv-x="660" 
d="M105 -171v621h-80v96h80v29q0 108 58.5 156t152.5 48q20 0 64 -3t67 -3q52 -1 139 9v-782h-134v658q-23 -1 -66.5 2t-71.5 3q-41 0 -58.5 -20.5t-17.5 -65.5v-31h117v-96h-118v-621h-132z" />
    <glyph glyph-name="men_now" unicode="&#x574;&#x576;" horiz-adv-x="1338" 
d="M1263 0h-132v59q-101 -71 -185 -71q-48 0 -81.5 12.5t-51.5 30.5t-27.5 49t-12 57t-2.5 66v381h-33q-97 0 -122 64q-13 1 -27 -5q-28 -11 -28 -46v-597h-133v59q-101 -71 -184 -71q-48 0 -81.5 12.5t-52 30.5t-28 49t-12 57t-2.5 66v319h133v-304q0 -63 16.5 -88
t68.5 -25q62 0 142 43v447q0 172 167 172q58 0 119 -18q1 -42 21 -56.5t61 -14.5h107v-460q0 -60 17 -86.5t69 -26.5q62 0 142 43v374h132v-522z" />
    <glyph glyph-name="men_ech" unicode="&#x574;&#x565;" horiz-adv-x="1286" 
d="M906 -12q-48 0 -81.5 12.5t-52 30.5t-28 49t-12 57t-2.5 66v428q-59 21 -97 21q-72 0 -72 -75v-577h-133v59q-101 -71 -184 -71q-48 0 -81.5 12.5t-52 30.5t-28 49t-12 57t-2.5 66v319h133v-304q0 -63 16.5 -88t68.5 -25q62 0 142 43v431q0 188 184 188q125 0 251 -40
v-205h360v-108h-360v-196q0 -63 16.5 -88t68.5 -25q62 0 142 43v132h133v-280h-133v59q-98 -71 -184 -71z" />
    <glyph glyph-name="men_ini" unicode="&#x574;&#x56b;" horiz-adv-x="1291" 
d="M244 -12q-48 0 -81.5 12.5t-52 30.5t-28 49t-12 57t-2.5 66v319h133v-304q0 -63 16.5 -88t68.5 -25q62 0 142 43v431q0 188 184 188q116 0 251 -40v-263q97 72 183 72q48 0 82 -12t52.5 -30t28.5 -49t12 -57t2 -66v-322h-132v307q0 65 -17.5 89t-70.5 24q-61 0 -140 -43
v-597h-134v851q-60 21 -96 21q-72 0 -72 -75v-577h-133v59q-101 -71 -184 -71z" />
    <glyph glyph-name="vew_now" unicode="&#x57e;&#x576;" horiz-adv-x="1297" 
d="M724 -220h-296v279q-101 -71 -184 -71q-48 0 -81.5 12.5t-52 30.5t-28 49t-12 57t-2.5 66v319h133v-304q0 -63 16.5 -88t68.5 -25q62 0 142 43v434h-85q-68 0 -99.5 30.5t-33.5 90.5q0 19 1 30l105 22q1 -45 21 -62.5t63 -17.5h28v79h133v-79h301v-457q0 -60 17 -86.5
t68 -26.5q62 0 142 43v374h133v-522h-133v59q-98 -71 -184 -71q-48 0 -81.5 12.5t-51.5 30.5t-28 48.5t-12.5 57t-2.5 66.5v379h-168v-695h163v-107z" />
    <glyph glyph-name="men_xeh" unicode="&#x574;&#x56d;" horiz-adv-x="1572" 
d="M729 -220v851q-60 21 -96 21q-72 0 -72 -75v-577h-133v59q-101 -71 -184 -71q-48 0 -81.5 12.5t-52 30.5t-28 49t-12 57t-2.5 66v319h133v-304q0 -63 16.5 -88t68.5 -25q62 0 142 43v431q0 188 184 188q125 0 251 -40v-205h275v-304q0 -63 16.5 -88t68.5 -25q62 0 142 43
v374h133v-522h-133v59q-98 -71 -184 -71q-48 0 -81.5 12.5t-51.5 30.5t-28 48.5t-12.5 57t-2.5 66.5v211h-142v-634h-134z" />
    <glyph glyph-name="Ayb_emph" unicode="&#x531;&#x55b;" horiz-adv-x="814" 
d="M456 731l-59 68l179 173l73 -83zM393 -13q-61 0 -114 14t-99 45.5t-72.5 89t-26.5 136.5v435h139v-429q0 -177 173 -177q174 0 174 199v407h134v-410q0 -90 -32 -156l143 -91l-62 -88l-143 96q-81 -71 -214 -71z" />
    <glyph glyph-name="Ech_emph" unicode="&#x535;&#x55b;" horiz-adv-x="756" 
d="M502 731l-59 68l179 173l73 -83zM697 437h-478v-159q0 -91 46 -134t129 -43q161 0 172 167l131 -26q-8 -70 -37.5 -122t-73.5 -79.5t-91.5 -40.5t-100.5 -13q-62 0 -114.5 14t-99 45.5t-73 89t-26.5 136.5v435h138v-161h478v-109z" />
    <glyph glyph-name="Eh_emph" unicode="&#x537;&#x55b;" horiz-adv-x="613" 
d="M373 731l-59 68l179 173l73 -83zM554 437h-329v-328h124q82 0 131.5 -42t59.5 -113l-97 -45q-20 91 -124 91h-229v707h135v-161h329v-109z" />
    <glyph glyph-name="Et_emph" unicode="&#x538;&#x55b;" horiz-adv-x="772" 
d="M701 0h-620v416q0 67 18 119.5t47.5 86.5t70 56t83.5 31t90 9q61 0 113.5 -14.5t98.5 -46.5t72.5 -91.5t26.5 -140.5l-138 -6q0 186 -173 186q-174 0 -174 -193v-303h485v-109zM518 731l-59 68l179 173l73 -83z" />
    <glyph glyph-name="Ini_emph" unicode="&#x53b;&#x55b;" horiz-adv-x="752" 
d="M516 731l-59 68l179 173l73 -83zM229 707v-226q92 78 213 78q268 0 268 -289v-124h-138v119q0 95 -43 137.5t-128 42.5q-117 0 -172 -70v-375h-139v707h139z" />
    <glyph glyph-name="Vo_emph" unicode="&#x548;&#x55b;" horiz-adv-x="790" 
d="M518 731l-59 68l179 173l73 -83zM389 718q61 0 113.5 -14.5t98.5 -46.5t72.5 -91t26.5 -141v-425h-138v419q0 186 -173 186q-81 0 -127 -48t-46 -149v-408h-135v413q0 83 26.5 144.5t72 95t97.5 49.5t112 16z" />
    <glyph glyph-name="Yiwn_emph" unicode="&#x552;&#x55b;" horiz-adv-x="666" 
d="M90 707h139v-169q51 18 101 18q58 0 96.5 -17.5t56 -48t26.5 -60.5t16 -65t16 -51q16 -31 43 -43.5t74 -12.5l-11 -116q-25 -6 -54 -6q-83 0 -130 58q-24 31 -37 80t-18 84.5t-27.5 62t-66.5 26.5q-41 0 -85 -12v-435h-139v707zM448 731l-59 68l179 173l73 -83z" />
    <glyph glyph-name="Oh_emph" unicode="&#x555;&#x55b;" horiz-adv-x="846" 
d="M590 731l-59 68l179 173l73 -83zM406 -12q-175 0 -268 98t-93 269q0 166 103 264.5t277 98.5q177 0 268 -100t91 -265q0 -169 -99 -267t-279 -98zM409 97q120 0 178 70.5t58 186.5q0 115 -58.5 185t-170.5 70q-116 0 -174.5 -69.5t-58.5 -183.5q0 -113 57 -186t169 -73z
" />
    <glyph glyph-name="ayb_emph" unicode="&#x561;&#x55b;" horiz-adv-x="994" 
d="M726 731l-59 68l179 173l73 -83zM604 -12q-127 0 -159 85q-113 -85 -202 -85q-48 0 -81.5 12.5t-51.5 30.5t-28 48.5t-12.5 57t-2.5 66.5v319h133v-304q0 -63 16.5 -88t68.5 -25q65 0 144 44q-2 7 -2 68v305h134v-304q0 -63 16.5 -88t68.5 -25q62 0 142 43v374h133v-522
h-133v59q-98 -71 -184 -71z" />
    <glyph glyph-name="ech_emph" unicode="&#x565;&#x55b;" horiz-adv-x="622" 
d="M401 731l-59 68l179 173l73 -83zM560 414h-360v-196q0 -63 16.5 -88t68.5 -25q62 0 142 43v132h133v-280h-133v59q-98 -71 -184 -71q-48 0 -81.5 12.5t-51.5 30.5t-28 48.5t-12.5 57t-2.5 66.5v551h133v-232h360v-108z" />
    <glyph glyph-name="eh_emph" unicode="&#x567;&#x55b;" horiz-adv-x="544" 
d="M383 731l-59 68l179 173l73 -83zM507 414h-300v-306h123q81 0 116 -34t40 -110l-110 -34q-2 19 -4.5 29.5t-10 21t-23 15t-40.5 4.5h-225v754h134v-232h300v-108z" />
    <glyph glyph-name="et_emph" unicode="&#x568;&#x55b;" 
d="M74 -220v742h133v-58q99 72 183 72q48 0 82.5 -12t52.5 -30t28 -48.5t12.5 -57t2.5 -66.5v-322h-132v307q0 64 -17.5 88.5t-70.5 24.5q-60 0 -141 -43v-491h362v-106h-495zM455 731l-59 68l179 173l73 -83z" />
    <glyph glyph-name="ini_emph" unicode="&#x56b;&#x55b;" 
d="M454 731l-59 68l179 173l73 -83zM74 -220v974h133v-290q99 72 183 72q48 0 82.5 -12t52.5 -30t28 -48.5t12.5 -57t2.5 -66.5v-322h-132v307q0 64 -17.5 88.5t-70.5 24.5q-60 0 -141 -43v-597h-133z" />
    <glyph glyph-name="vo_emph" unicode="&#x578;&#x55b;" 
d="M455 731l-59 68l179 173l73 -83zM74 0v522h133v-58q99 72 183 72q48 0 82.5 -12t52.5 -30t28 -48.5t12.5 -57t2.5 -66.5v-322h-132v307q0 64 -17.5 88.5t-70.5 24.5q-60 0 -141 -43v-377h-133z" />
    <glyph glyph-name="yiwn_emph" unicode="&#x582;&#x55b;" horiz-adv-x="342" 
d="M74 0v522h133v-414h136v-108h-269zM148 731l-59 68l179 173l73 -83z" />
    <glyph glyph-name="oh_emph" unicode="&#x585;&#x55b;" horiz-adv-x="619" 
d="M439 731l-59 68l179 173l73 -83zM304 -12q-127 0 -196 69.5t-69 199.5q0 135 74 208.5t199 73.5q266 0 266 -277q0 -136 -75 -205t-199 -69zM311 95q74 0 102.5 42.5t28.5 124.5q0 79 -29 124.5t-104 45.5q-135 0 -135 -171q0 -81 31.5 -123.5t105.5 -42.5z" />
    <glyph glyph-name="men_ech_emph" unicode="&#xfb14;&#x55b;" horiz-adv-x="1286" 
d="M1057 731l-59 68l179 173l73 -83zM906 -12q-48 0 -81.5 12.5t-52 30.5t-28 49t-12 57t-2.5 66v428q-59 21 -97 21q-72 0 -72 -75v-577h-133v59q-101 -71 -184 -71q-48 0 -81.5 12.5t-52 30.5t-28 49t-12 57t-2.5 66v319h133v-304q0 -63 16.5 -88t68.5 -25q62 0 142 43
v431q0 188 184 188q125 0 251 -40v-205h360v-108h-360v-196q0 -63 16.5 -88t68.5 -25q62 0 142 43v132h133v-280h-133v59q-98 -71 -184 -71z" />
    <glyph glyph-name="men_ini_emph" unicode="&#xfb15;&#x55b;" horiz-adv-x="1291" 
d="M244 -12q-48 0 -81.5 12.5t-52 30.5t-28 49t-12 57t-2.5 66v319h133v-304q0 -63 16.5 -88t68.5 -25q62 0 142 43v431q0 188 184 188q116 0 251 -40v-263q97 72 183 72q48 0 82 -12t52.5 -30t28.5 -49t12 -57t2 -66v-322h-132v307q0 65 -17.5 89t-70.5 24q-61 0 -140 -43
v-597h-134v851q-60 21 -96 21q-72 0 -72 -75v-577h-133v59q-101 -71 -184 -71zM1112 731l-59 68l179 173l73 -83z" />
    <glyph glyph-name="Ayb_exclam" unicode="&#x531;&#x55c;" horiz-adv-x="814" 
d="M344 921q17 8 38 8q12 0 34 -3t33 -3q20 0 32 6q28 15 46 58l61 -31q-17 -83 -82 -111q-20 -8 -45 -8q-10 0 -29 2t-28 2q-18 0 -33 -6q-18 -7 -30 -19.5t-31 -40.5l-55 35q6 30 28 62.5t61 48.5zM393 -13q-61 0 -114 14t-99 45.5t-72.5 89t-26.5 136.5v435h139v-429
q0 -177 173 -177q174 0 174 199v407h134v-410q0 -90 -32 -156l143 -91l-62 -88l-143 96q-81 -71 -214 -71z" />
    <glyph glyph-name="Ech_exclam" unicode="&#x535;&#x55c;" horiz-adv-x="756" 
d="M341 921q17 8 38 8q12 0 34 -3t33 -3q20 0 32 6q28 15 46 58l61 -31q-17 -83 -82 -111q-20 -8 -45 -8q-10 0 -29 2t-28 2q-18 0 -33 -6q-18 -7 -30 -19.5t-31 -40.5l-55 35q6 30 28 62.5t61 48.5zM697 437h-478v-159q0 -91 46 -134t129 -43q161 0 172 167l131 -26
q-8 -70 -37.5 -122t-73.5 -79.5t-91.5 -40.5t-100.5 -13q-62 0 -114.5 14t-99 45.5t-73 89t-26.5 136.5v435h138v-161h478v-109z" />
    <glyph glyph-name="Eh_exclam" unicode="&#x537;&#x55c;" horiz-adv-x="613" 
d="M289 921q17 8 38 8q12 0 34 -3t33 -3q20 0 32 6q28 15 46 58l61 -31q-17 -83 -82 -111q-20 -8 -45 -8q-10 0 -29 2t-28 2q-18 0 -33 -6q-18 -7 -30 -19.5t-31 -40.5l-55 35q6 30 28 62.5t61 48.5zM554 437h-329v-328h124q82 0 131.5 -42t59.5 -113l-97 -45
q-20 91 -124 91h-229v707h135v-161h329v-109z" />
    <glyph glyph-name="Et_exclam" unicode="&#x538;&#x55c;" horiz-adv-x="772" 
d="M701 0h-620v416q0 67 18 119.5t47.5 86.5t70 56t83.5 31t90 9q61 0 113.5 -14.5t98.5 -46.5t72.5 -91.5t26.5 -140.5l-138 -6q0 186 -173 186q-174 0 -174 -193v-303h485v-109zM313 921q17 8 38 8q12 0 34 -3t33 -3q20 0 32 6q28 15 46 58l61 -31q-17 -83 -82 -111
q-20 -8 -45 -8q-10 0 -29 2t-28 2q-18 0 -33 -6q-18 -7 -30 -19.5t-31 -40.5l-55 35q6 30 28 62.5t61 48.5z" />
    <glyph glyph-name="Ini_exclam" unicode="&#x53b;&#x55c;" horiz-adv-x="752" 
d="M358 921q17 8 38 8q12 0 34 -3t33 -3q20 0 32 6q28 15 46 58l61 -31q-17 -83 -82 -111q-20 -8 -45 -8q-10 0 -29 2t-28 2q-18 0 -33 -6q-18 -7 -30 -19.5t-31 -40.5l-55 35q6 30 28 62.5t61 48.5zM229 707v-226q92 78 213 78q268 0 268 -289v-124h-138v119
q0 95 -43 137.5t-128 42.5q-117 0 -172 -70v-375h-139v707h139z" />
    <glyph glyph-name="Vo_exclam" unicode="&#x548;&#x55c;" horiz-adv-x="790" 
d="M324 921q17 8 38 8q12 0 34 -3t33 -3q20 0 32 6q28 15 46 58l61 -31q-17 -83 -82 -111q-20 -8 -45 -8q-10 0 -29 2t-28 2q-18 0 -33 -6q-18 -7 -30 -19.5t-31 -40.5l-55 35q6 30 28 62.5t61 48.5zM389 718q61 0 113.5 -14.5t98.5 -46.5t72.5 -91t26.5 -141v-425h-138v419
q0 186 -173 186q-81 0 -127 -48t-46 -149v-408h-135v413q0 83 26.5 144.5t72 95t97.5 49.5t112 16z" />
    <glyph glyph-name="Yiwn_exclam" unicode="&#x552;&#x55c;" horiz-adv-x="647" 
d="M90 707h139v-169q51 18 101 18q58 0 96.5 -17.5t56 -48t26.5 -60.5t16 -65t16 -51q16 -31 43 -43.5t74 -12.5l-11 -116q-25 -6 -54 -6q-83 0 -130 58q-24 31 -37 80t-18 84.5t-27.5 62t-66.5 26.5q-41 0 -85 -12v-435h-139v707zM311 921q17 8 38 8q12 0 34 -3t33 -3
q20 0 32 6q28 15 46 58l61 -31q-17 -83 -82 -111q-20 -8 -45 -8q-10 0 -29 2t-28 2q-18 0 -33 -6q-18 -7 -30 -19.5t-31 -40.5l-55 35q6 30 28 62.5t61 48.5z" />
    <glyph glyph-name="Oh_exclam" unicode="&#x555;&#x55c;" horiz-adv-x="852" 
d="M340 921q17 8 38 8q12 0 34 -3t33 -3q20 0 32 6q28 15 46 58l61 -31q-17 -83 -82 -111q-20 -8 -45 -8q-10 0 -29 2t-28 2q-18 0 -33 -6q-18 -7 -30 -19.5t-31 -40.5l-55 35q6 30 28 62.5t61 48.5zM406 -12q-175 0 -268 98t-93 269q0 166 103 264.5t277 98.5
q177 0 268 -100t91 -265q0 -169 -99 -267t-279 -98zM409 97q120 0 178 70.5t58 186.5q0 115 -58.5 185t-170.5 70q-116 0 -174.5 -69.5t-58.5 -183.5q0 -113 57 -186t169 -73z" />
    <glyph glyph-name="ayb_exclam" unicode="&#x561;&#x55c;" horiz-adv-x="994" 
d="M422 921q17 8 38 8q12 0 34 -3t33 -3q20 0 32 6q28 15 46 58l61 -31q-17 -83 -82 -111q-20 -8 -45 -8q-10 0 -29 2t-28 2q-18 0 -33 -6q-18 -7 -30 -19.5t-31 -40.5l-55 35q6 30 28 62.5t61 48.5zM604 -12q-127 0 -159 85q-113 -85 -202 -85q-48 0 -81.5 12.5t-51.5 30.5
t-28 48.5t-12.5 57t-2.5 66.5v319h133v-304q0 -63 16.5 -88t68.5 -25q65 0 144 44q-2 7 -2 68v305h134v-304q0 -63 16.5 -88t68.5 -25q62 0 142 43v374h133v-522h-133v59q-98 -71 -184 -71z" />
    <glyph glyph-name="ech_exclam" unicode="&#x565;&#x55c;" horiz-adv-x="622" 
d="M299 921q17 8 38 8q12 0 34 -3t33 -3q20 0 32 6q28 15 46 58l61 -31q-17 -83 -82 -111q-20 -8 -45 -8q-10 0 -29 2t-28 2q-18 0 -33 -6q-18 -7 -30 -19.5t-31 -40.5l-55 35q6 30 28 62.5t61 48.5zM560 414h-360v-196q0 -63 16.5 -88t68.5 -25q62 0 142 43v132h133v-280
h-133v59q-98 -71 -184 -71q-48 0 -81.5 12.5t-51.5 30.5t-28 48.5t-12.5 57t-2.5 66.5v551h133v-232h360v-108z" />
    <glyph glyph-name="eh_exclam" unicode="&#x567;&#x55c;" horiz-adv-x="541" 
d="M289 921q17 8 38 8q12 0 34 -3t33 -3q20 0 32 6q28 15 46 58l61 -31q-17 -83 -82 -111q-20 -8 -45 -8q-10 0 -29 2t-28 2q-18 0 -33 -6q-18 -7 -30 -19.5t-31 -40.5l-55 35q6 30 28 62.5t61 48.5zM507 414h-300v-306h123q81 0 116 -34t40 -110l-110 -34q-2 19 -4.5 29.5
t-10 21t-23 15t-40.5 4.5h-225v754h134v-232h300v-108z" />
    <glyph glyph-name="et_exclam" unicode="&#x568;&#x55c;" 
d="M74 -220v742h133v-58q99 72 183 72q48 0 82.5 -12t52.5 -30t28 -48.5t12.5 -57t2.5 -66.5v-322h-132v307q0 64 -17.5 88.5t-70.5 24.5q-60 0 -141 -43v-491h362v-106h-495zM276 921q17 8 38 8q12 0 34 -3t33 -3q20 0 32 6q28 15 46 58l61 -31q-17 -83 -82 -111
q-20 -8 -45 -8q-10 0 -29 2t-28 2q-18 0 -33 -6q-18 -7 -30 -19.5t-31 -40.5l-55 35q6 30 28 62.5t61 48.5z" />
    <glyph glyph-name="ini_exclam" unicode="&#x56b;&#x55c;" 
d="M321 921q17 8 38 8q12 0 34 -3t33 -3q20 0 32 6q28 15 46 58l61 -31q-17 -83 -82 -111q-20 -8 -45 -8q-10 0 -29 2t-28 2q-18 0 -33 -6q-18 -7 -30 -19.5t-31 -40.5l-55 35q6 30 28 62.5t61 48.5zM74 -220v974h133v-290q99 72 183 72q48 0 82.5 -12t52.5 -30t28 -48.5
t12.5 -57t2.5 -66.5v-322h-132v307q0 64 -17.5 88.5t-70.5 24.5q-60 0 -141 -43v-597h-133z" />
    <glyph glyph-name="vo_exclam" unicode="&#x578;&#x55c;" 
d="M269 921q17 8 38 8q12 0 34 -3t33 -3q20 0 32 6q28 15 46 58l61 -31q-17 -83 -82 -111q-20 -8 -45 -8q-10 0 -29 2t-28 2q-18 0 -33 -6q-18 -7 -30 -19.5t-31 -40.5l-55 35q6 30 28 62.5t61 48.5zM74 0v522h133v-58q99 72 183 72q48 0 82.5 -12t52.5 -30t28 -48.5
t12.5 -57t2.5 -66.5v-322h-132v307q0 64 -17.5 88.5t-70.5 24.5q-60 0 -141 -43v-377h-133z" />
    <glyph glyph-name="yiwn_exclam" unicode="&#x582;&#x55c;" horiz-adv-x="328" 
d="M73 0v522h133v-414h136v-108h-269zM155 921q17 8 38 8q12 0 34 -3t33 -3q20 0 32 6q28 15 46 58l61 -31q-17 -83 -82 -111q-20 -8 -45 -8q-10 0 -29 2t-28 2q-18 0 -33 -6q-18 -7 -30 -19.5t-31 -40.5l-55 35q6 30 28 62.5t61 48.5z" />
    <glyph glyph-name="oh_exclam" unicode="&#x585;&#x55c;" horiz-adv-x="619" 
d="M233 921q17 8 38 8q12 0 34 -3t33 -3q20 0 32 6q28 15 46 58l61 -31q-17 -83 -82 -111q-20 -8 -45 -8q-10 0 -29 2t-28 2q-18 0 -33 -6q-18 -7 -30 -19.5t-31 -40.5l-55 35q6 30 28 62.5t61 48.5zM304 -12q-127 0 -196 69.5t-69 199.5q0 135 74 208.5t199 73.5
q266 0 266 -277q0 -136 -75 -205t-199 -69zM311 95q74 0 102.5 42.5t28.5 124.5q0 79 -29 124.5t-104 45.5q-135 0 -135 -171q0 -81 31.5 -123.5t105.5 -42.5z" />
    <glyph glyph-name="men_ech_exclam" unicode="&#xfb14;&#x55c;" horiz-adv-x="1286" 
d="M978 921q17 8 38 8q12 0 34 -3t33 -3q20 0 32 6q28 15 46 58l61 -31q-17 -83 -82 -111q-20 -8 -45 -8q-10 0 -29 2t-28 2q-18 0 -33 -6q-18 -7 -30 -19.5t-31 -40.5l-55 35q6 30 28 62.5t61 48.5zM906 -12q-48 0 -81.5 12.5t-52 30.5t-28 49t-12 57t-2.5 66v428
q-59 21 -97 21q-72 0 -72 -75v-577h-133v59q-101 -71 -184 -71q-48 0 -81.5 12.5t-52 30.5t-28 49t-12 57t-2.5 66v319h133v-304q0 -63 16.5 -88t68.5 -25q62 0 142 43v431q0 188 184 188q125 0 251 -40v-205h360v-108h-360v-196q0 -63 16.5 -88t68.5 -25q62 0 142 43v132
h133v-280h-133v59q-98 -71 -184 -71z" />
    <glyph glyph-name="men_ini_exclam" unicode="&#xfb15;&#x55c;" horiz-adv-x="1291" 
d="M244 -12q-48 0 -81.5 12.5t-52 30.5t-28 49t-12 57t-2.5 66v319h133v-304q0 -63 16.5 -88t68.5 -25q62 0 142 43v431q0 188 184 188q116 0 251 -40v-263q97 72 183 72q48 0 82 -12t52.5 -30t28.5 -49t12 -57t2 -66v-322h-132v307q0 65 -17.5 89t-70.5 24q-61 0 -140 -43
v-597h-134v851q-60 21 -96 21q-72 0 -72 -75v-577h-133v59q-101 -71 -184 -71zM972 921q17 8 38 8q12 0 34 -3t33 -3q20 0 32 6q28 15 46 58l61 -31q-17 -83 -82 -111q-20 -8 -45 -8q-10 0 -29 2t-28 2q-18 0 -33 -6q-18 -7 -30 -19.5t-31 -40.5l-55 35q6 30 28 62.5
t61 48.5z" />
    <glyph glyph-name="Ayb_question" unicode="&#x531;&#x55e;" horiz-adv-x="814" 
d="M586 883q-80 0 -137 -125l-56 44q32 80 83.5 121t115.5 41q62 0 94.5 -29.5t32.5 -75.5q0 -45 -34 -71t-87 -28l-10 46q50 6 50 38q0 39 -52 39zM393 -13q-61 0 -114 14t-99 45.5t-72.5 89t-26.5 136.5v435h139v-429q0 -177 173 -177q174 0 174 199v407h134v-410
q0 -90 -32 -156l143 -91l-62 -88l-143 96q-81 -71 -214 -71z" />
    <glyph glyph-name="Ech_question" unicode="&#x535;&#x55e;" horiz-adv-x="757" 
d="M648 883q-80 0 -137 -125l-56 44q32 80 83.5 121t115.5 41q62 0 94.5 -29.5t32.5 -75.5q0 -45 -34 -71t-87 -28l-10 46q50 6 50 38q0 39 -52 39zM697 437h-478v-159q0 -91 46 -134t129 -43q161 0 172 167l131 -26q-8 -70 -37.5 -122t-73.5 -79.5t-91.5 -40.5t-100.5 -13
q-62 0 -114.5 14t-99 45.5t-73 89t-26.5 136.5v435h138v-161h478v-109z" />
    <glyph glyph-name="Eh_question" unicode="&#x537;&#x55e;" horiz-adv-x="617" 
d="M530 883q-80 0 -137 -125l-56 44q32 80 83.5 121t115.5 41q62 0 94.5 -29.5t32.5 -75.5q0 -45 -34 -71t-87 -28l-10 46q50 6 50 38q0 39 -52 39zM554 437h-329v-328h124q82 0 131.5 -42t59.5 -113l-97 -45q-20 91 -124 91h-229v707h135v-161h329v-109z" />
    <glyph glyph-name="Et_question" unicode="&#x538;&#x55e;" horiz-adv-x="772" 
d="M701 0h-620v416q0 67 18 119.5t47.5 86.5t70 56t83.5 31t90 9q61 0 113.5 -14.5t98.5 -46.5t72.5 -91.5t26.5 -140.5l-138 -6q0 186 -173 186q-174 0 -174 -193v-303h485v-109zM684 883q-80 0 -137 -125l-56 44q32 80 83.5 121t115.5 41q62 0 94.5 -29.5t32.5 -75.5
q0 -45 -34 -71t-87 -28l-10 46q50 6 50 38q0 39 -52 39z" />
    <glyph glyph-name="Ini_question" unicode="&#x53b;&#x55e;" horiz-adv-x="752" 
d="M705 883q-80 0 -137 -125l-56 44q32 80 84 121t115 41q62 0 94.5 -29.5t32.5 -75.5q0 -45 -34 -71t-87 -28l-10 46q50 6 50 38q0 39 -52 39zM229 707v-226q92 78 213 78q268 0 268 -289v-124h-138v119q0 95 -43 137.5t-128 42.5q-117 0 -172 -70v-375h-139v707h139z" />
    <glyph glyph-name="Vo_question" unicode="&#x548;&#x55e;" horiz-adv-x="790" 
d="M722 883q-80 0 -137 -125l-56 44q32 80 84 121t115 41q62 0 94.5 -29.5t32.5 -75.5q0 -45 -34 -71t-87 -28l-10 46q50 6 50 38q0 39 -52 39zM389 718q61 0 113.5 -14.5t98.5 -46.5t72.5 -91t26.5 -141v-425h-138v419q0 186 -173 186q-81 0 -127 -48t-46 -149v-408h-135
v413q0 83 26.5 144.5t72 95t97.5 49.5t112 16z" />
    <glyph glyph-name="Yiwn_question" unicode="&#x552;&#x55e;" horiz-adv-x="667" 
d="M90 707h139v-169q51 18 101 18q58 0 96.5 -17.5t56 -48t26.5 -60.5t16 -65t16 -51q16 -31 43 -43.5t74 -12.5l-11 -116q-25 -6 -54 -6q-83 0 -130 58q-24 31 -37 80t-18 84.5t-27.5 62t-66.5 26.5q-41 0 -85 -12v-435h-139v707zM605 883q-80 0 -137 -125l-56 44
q32 80 84 121t115 41q62 0 94.5 -29.5t32.5 -75.5q0 -45 -34 -71t-87 -28l-10 46q50 6 50 38q0 39 -52 39z" />
    <glyph glyph-name="Oh_question" unicode="&#x555;&#x55e;" horiz-adv-x="846" 
d="M668 883q-80 0 -137 -125l-56 44q32 80 83.5 121t115.5 41q62 0 94.5 -29.5t32.5 -75.5q0 -45 -34 -71t-87 -28l-10 46q50 6 50 38q0 39 -52 39zM406 -12q-175 0 -268 98t-93 269q0 166 103 264.5t277 98.5q177 0 268 -100t91 -265q0 -169 -99 -267t-279 -98zM409 97
q120 0 178 70.5t58 186.5q0 115 -58.5 185t-170.5 70q-116 0 -174.5 -69.5t-58.5 -183.5q0 -113 57 -186t169 -73z" />
    <glyph glyph-name="ayb_question" unicode="&#x561;&#x55e;" horiz-adv-x="995" 
d="M805 883q-80 0 -137 -125l-56 44q32 80 84 121t115 41q62 0 94.5 -29.5t32.5 -75.5q0 -45 -34 -71t-87 -28l-10 46q50 6 50 38q0 39 -52 39zM604 -12q-127 0 -159 85q-113 -85 -202 -85q-48 0 -81.5 12.5t-51.5 30.5t-28 48.5t-12.5 57t-2.5 66.5v319h133v-304
q0 -63 16.5 -88t68.5 -25q65 0 144 44q-2 7 -2 68v305h134v-304q0 -63 16.5 -88t68.5 -25q62 0 142 43v374h133v-522h-133v59q-98 -71 -184 -71z" />
    <glyph glyph-name="ech_question" unicode="&#x565;&#x55e;" horiz-adv-x="622" 
d="M502 883q-80 0 -137 -125l-56 44q32 80 83.5 121t115.5 41q62 0 94.5 -29.5t32.5 -75.5q0 -45 -34 -71t-87 -28l-10 46q50 6 50 38q0 39 -52 39zM560 414h-360v-196q0 -63 16.5 -88t68.5 -25q62 0 142 43v132h133v-280h-133v59q-98 -71 -184 -71q-48 0 -81.5 12.5
t-51.5 30.5t-28 48.5t-12.5 57t-2.5 66.5v551h133v-232h360v-108z" />
    <glyph glyph-name="eh_question" unicode="&#x567;&#x55e;" horiz-adv-x="541" 
d="M456 883q-80 0 -137 -125l-56 44q32 80 83.5 121t115.5 41q62 0 94.5 -29.5t32.5 -75.5q0 -45 -34 -71t-87 -28l-10 46q50 6 50 38q0 39 -52 39zM507 414h-300v-306h123q81 0 116 -34t40 -110l-110 -34q-2 19 -4.5 29.5t-10 21t-23 15t-40.5 4.5h-225v754h134v-232h300
v-108z" />
    <glyph glyph-name="et_question" unicode="&#x568;&#x55e;" 
d="M74 -220v742h133v-58q99 72 183 72q48 0 82.5 -12t52.5 -30t28 -48.5t12.5 -57t2.5 -66.5v-322h-132v307q0 64 -17.5 88.5t-70.5 24.5q-60 0 -141 -43v-491h362v-106h-495zM504 883q-80 0 -137 -125l-56 44q32 80 83.5 121t115.5 41q62 0 94.5 -29.5t32.5 -75.5
q0 -45 -34 -71t-87 -28l-10 46q50 6 50 38q0 39 -52 39z" />
    <glyph glyph-name="ini_question" unicode="&#x56b;&#x55e;" 
d="M507 883q-80 0 -137 -125l-56 44q32 80 84 121t115 41q62 0 94.5 -29.5t32.5 -75.5q0 -45 -34 -71t-87 -28l-10 46q50 6 50 38q0 39 -52 39zM74 -220v974h133v-290q99 72 183 72q48 0 82.5 -12t52.5 -30t28 -48.5t12.5 -57t2.5 -66.5v-322h-132v307q0 64 -17.5 88.5
t-70.5 24.5q-60 0 -141 -43v-597h-133z" />
    <glyph glyph-name="vo_question" unicode="&#x578;&#x55e;" 
d="M514 883q-80 0 -137 -125l-56 44q32 80 83.5 121t115.5 41q62 0 94.5 -29.5t32.5 -75.5q0 -45 -34 -71t-87 -28l-10 46q50 6 50 38q0 39 -52 39zM74 0v522h133v-58q99 72 183 72q48 0 82.5 -12t52.5 -30t28 -48.5t12.5 -57t2.5 -66.5v-322h-132v307q0 64 -17.5 88.5
t-70.5 24.5q-60 0 -141 -43v-377h-133z" />
    <glyph glyph-name="yiwn_question" unicode="&#x582;&#x55e;" horiz-adv-x="360" 
d="M88 0v522h133v-414h136v-108h-269zM285 883q-80 0 -137 -125l-56 44q32 80 84 121t115 41q62 0 94.5 -29.5t32.5 -75.5q0 -45 -34 -71t-87 -28l-10 46q50 6 50 38q0 39 -52 39z" />
    <glyph glyph-name="oh_question" unicode="&#x585;&#x55e;" horiz-adv-x="619" 
d="M497 883q-80 0 -137 -125l-56 44q32 80 84 121t115 41q62 0 94.5 -29.5t32.5 -75.5q0 -45 -34 -71t-87 -28l-10 46q50 6 50 38q0 39 -52 39zM304 -12q-127 0 -196 69.5t-69 199.5q0 135 74 208.5t199 73.5q266 0 266 -277q0 -136 -75 -205t-199 -69zM311 95
q74 0 102.5 42.5t28.5 124.5q0 79 -29 124.5t-104 45.5q-135 0 -135 -171q0 -81 31.5 -123.5t105.5 -42.5z" />
    <glyph glyph-name="men_ech_question" unicode="&#xfb14;&#x55e;" horiz-adv-x="1286" 
d="M1166 883q-80 0 -137 -125l-56 44q32 80 83.5 121t115.5 41q62 0 94.5 -29.5t32.5 -75.5q0 -45 -34 -71t-87 -28l-10 46q50 6 50 38q0 39 -52 39zM906 -12q-48 0 -81.5 12.5t-52 30.5t-28 49t-12 57t-2.5 66v428q-59 21 -97 21q-72 0 -72 -75v-577h-133v59
q-101 -71 -184 -71q-48 0 -81.5 12.5t-52 30.5t-28 49t-12 57t-2.5 66v319h133v-304q0 -63 16.5 -88t68.5 -25q62 0 142 43v431q0 188 184 188q125 0 251 -40v-205h360v-108h-360v-196q0 -63 16.5 -88t68.5 -25q62 0 142 43v132h133v-280h-133v59q-98 -71 -184 -71z" />
    <glyph glyph-name="men_ini_question" unicode="&#xfb15;&#x55e;" horiz-adv-x="1291" 
d="M244 -12q-48 0 -81.5 12.5t-52 30.5t-28 49t-12 57t-2.5 66v319h133v-304q0 -63 16.5 -88t68.5 -25q62 0 142 43v431q0 188 184 188q116 0 251 -40v-263q97 72 183 72q48 0 82 -12t52.5 -30t28.5 -49t12 -57t2 -66v-322h-132v307q0 65 -17.5 89t-70.5 24q-61 0 -140 -43
v-597h-134v851q-60 21 -96 21q-72 0 -72 -75v-577h-133v59q-101 -71 -184 -71zM1171 883q-80 0 -137 -125l-56 44q32 80 84 121t115 41q62 0 94.5 -29.5t32.5 -75.5q0 -45 -34 -71t-87 -28l-10 46q50 6 50 38q0 39 -52 39z" />
    <glyph glyph-name=".notdef" horiz-adv-x="712" 
d="M305 375v27h27v-27h-27zM380 525v27h27v-27h-27zM305 525v27h27v-27h-27zM230 525v27h27v-27h-27zM80 0v27h27v-27h-27zM155 0v27h27v-27h-27zM230 0v27h27v-27h-27zM305 0v27h27v-27h-27zM380 0v27h27v-27h-27zM80 75v27h27v-27h-27zM80 150v27h27v-27h-27zM80 225v27
h27v-27h-27zM80 300v27h27v-27h-27zM80 375v27h27v-27h-27zM80 450v27h27v-27h-27zM80 525v27h27v-27h-27zM80 600v27h27v-27h-27zM80 675v27h27v-27h-27zM155 675v27h27v-27h-27zM230 675v27h27v-27h-27zM305 675v27h27v-27h-27zM380 675v27h27v-27h-27zM455 675v27h27v-27
h-27zM530 675v27h27v-27h-27zM530 0v27h27v-27h-27zM455 0v27h27v-27h-27zM605 0v27h27v-27h-27zM605 675v27h27v-27h-27zM305 300v27h27v-27h-27zM305 150v27h27v-27h-27zM380 375v27h27v-27h-27zM455 375v27h27v-27h-27zM455 450v27h27v-27h-27zM455 525v27h27v-27h-27z
M605 600v27h27v-27h-27zM605 525v27h27v-27h-27zM605 375v27h27v-27h-27zM605 300v27h27v-27h-27zM605 150v27h27v-27h-27zM605 75v27h27v-27h-27zM605 225v27h27v-27h-27zM605 450v27h27v-27h-27z" />
    <glyph glyph-name=".null" horiz-adv-x="0" 
 />
    <glyph glyph-name="nonmarkingreturn" horiz-adv-x="333" 
 />
    <glyph glyph-name="space" unicode=" " horiz-adv-x="244" 
 />
    <glyph glyph-name="exclam" unicode="!" horiz-adv-x="305" 
d="M94 202l-8 173v332h133v-332l-7 -173h-118zM83 0v124h138v-124h-138z" />
    <glyph glyph-name="quotedbl" unicode="&#x22;" horiz-adv-x="400" 
d="M58 515l-8 239h113l-9 -239h-96zM247 515l-9 239h113l-9 -239h-95z" />
    <glyph glyph-name="numbersign" unicode="#" horiz-adv-x="671" 
d="M128 0l7 121h-86v105h93l6 104h-99v105h107l7 127h124l-7 -127h136l6 127h125l-8 -127h83v-105h-90l-7 -104h97v-105h-103l-7 -121h-124l7 121h-136l-6 -121h-125zM266 226h136l6 104h-136z" />
    <glyph glyph-name="dollar" unicode="$" horiz-adv-x="536" 
d="M215 -99l2 92q-105 3 -177 36l36 97q91 -29 169 -29q110 0 110 56q0 6 -2 12t-6.5 11t-9 9t-13 8.5t-15 8t-17.5 7.5t-18 6.5t-19.5 7t-19.5 6.5q-39 14 -63 25t-54 32t-45 50.5t-15 67.5q0 60 44.5 95.5t114.5 46.5l-2 108h99l-2 -104q74 -2 153 -31l-30 -93
q-86 22 -153 22q-86 0 -86 -44q0 -13 7.5 -23.5t27.5 -21t31 -15t41 -16.5q36 -14 53 -20.5t49.5 -23.5t48 -32.5t29 -40t13.5 -53.5q0 -71 -51 -110.5t-133 -50.5l3 -96h-100z" />
    <glyph glyph-name="percent" unicode="%" horiz-adv-x="837" 
d="M213 365q-75 0 -124 41.5t-49 127.5q0 83 51.5 131.5t124.5 48.5q78 0 127.5 -41t49.5 -131q0 -82 -52 -129.5t-128 -47.5zM213 458q31 0 49.5 21.5t18.5 62.5q0 80 -65 80q-27 0 -45 -20.5t-18 -67.5q0 -76 60 -76zM619 -10q-76 0 -124.5 41t-48.5 127q0 83 51.5 131.5
t124.5 48.5q78 0 127.5 -41t49.5 -131q0 -82 -52 -129t-128 -47zM619 83q31 0 49.5 21t18.5 62q0 80 -65 80q-27 0 -45.5 -21t-18.5 -67q0 -40 15 -57.5t46 -17.5zM166 45l-70 73l564 532l70 -73z" />
    <glyph glyph-name="ampersand" unicode="&#x26;" horiz-adv-x="708" 
d="M247 -11q-91 0 -151 44t-60 137q0 116 141 201q-48 87 -48 161q0 67 51.5 124.5t147.5 57.5q89 0 133.5 -46.5t44.5 -112.5q0 -68 -50.5 -115.5t-143.5 -90.5q59 -99 166 -166t223 -84l-14 -105q-130 7 -248 72q-86 -77 -192 -77zM259 89q54 0 101 34q-86 65 -139 159
q-60 -43 -60 -105q0 -43 28 -65.5t70 -22.5zM271 425q51 25 86 56.5t35 63.5t-19.5 51.5t-51.5 19.5q-34 0 -56 -21t-22 -57q0 -55 28 -113z" />
    <glyph glyph-name="quotesingle" unicode="'" horiz-adv-x="219" 
d="M58 515l-8 239h120l-9 -239h-103z" />
    <glyph glyph-name="parenleft" unicode="(" horiz-adv-x="339" 
d="M336 -150l-64 -70q-107 80 -172 206.5t-65 290.5q0 160 65.5 285.5t171.5 196.5l68 -67q-184 -157 -184 -414q0 -126 47.5 -237.5t132.5 -190.5z" />
    <glyph glyph-name="parenright" unicode=")" horiz-adv-x="339" 
d="M66 -220l-63 70q85 79 132 190.5t47 237.5q0 258 -183 414l68 67q106 -71 171.5 -196.5t65.5 -285.5q0 -165 -65 -291t-173 -206z" />
    <glyph glyph-name="asterisk" unicode="*" horiz-adv-x="448" 
d="M90 453l-47 84l122 37l20 -36zM166 591l-123 41l48 84l95 -88zM173 405l30 123h40l27 -123h-97zM202 638l-26 123h96l-27 -123h-43zM357 450l-96 87l21 37l123 -40zM281 592l-20 36l95 86l47 -84z" />
    <glyph glyph-name="plus" unicode="+" horiz-adv-x="600" 
d="M245 48l1 206l-205 -1v103l205 -3l-1 209h104l-4 -211l214 5v-103l-212 1l2 -206h-104z" />
    <glyph glyph-name="comma" unicode="," horiz-adv-x="266" 
d="M36 -130q28 60 28 163v100h139v-63q0 -118 -51 -200h-116z" />
    <glyph glyph-name="hyphen" unicode="-" horiz-adv-x="405" 
d="M54 232v109h298v-109h-298z" />
    <glyph glyph-name="period" unicode="." horiz-adv-x="277" 
d="M63 0v136h151v-136h-151z" />
    <glyph glyph-name="slash" unicode="/" horiz-adv-x="412" 
d="M30 -62l233 830h119l-233 -830h-119z" />
    <glyph glyph-name="zero" unicode="0" horiz-adv-x="672" 
d="M332 -12q-142 0 -216 70t-74 210q0 139 78 215.5t224 76.5q142 0 214 -74.5t72 -203.5q0 -146 -79.5 -220t-218.5 -74zM335 99q72 0 116 46.5t44 133.5q0 80 -41 125t-115 45q-76 0 -118.5 -46t-42.5 -133q0 -84 43.5 -127.5t113.5 -43.5z" />
    <glyph glyph-name="one" unicode="1" horiz-adv-x="388" 
d="M169 0v446h-142v105l276 8v-559h-134z" />
    <glyph glyph-name="two" unicode="2" horiz-adv-x="520" 
d="M38 0v110q14 11 72.5 52t99.5 71.5t78 70.5t37 67q0 79 -105 79q-63 0 -134 -30l-34 97q25 15 75 29t99 14q126 0 178 -52.5t52 -132.5q0 -130 -250 -267h277v-108h-445z" />
    <glyph glyph-name="three" unicode="3" horiz-adv-x="476" 
d="M183 -169q-104 0 -188 28l26 108q84 -23 152 -23q65 0 99 20.5t34 74.5q0 55 -34.5 83t-107.5 36q-13 2 -41 2v93q2 1 17 2t17 1q118 17 118 108q0 44 -32.5 64t-81.5 20q-61 0 -107 -20l-32 94q73 36 164 36q96 0 157.5 -45.5t61.5 -131.5q0 -117 -107 -161
q61 -22 102 -67t41 -113q0 -56 -21 -97.5t-58 -65t-81.5 -35t-97.5 -11.5z" />
    <glyph glyph-name="four" unicode="4" horiz-adv-x="604" 
d="M339 -162v191h-314v92l244 424h204v-407h104v-109h-104v-191h-134zM151 138h188v334z" />
    <glyph glyph-name="five" unicode="5" horiz-adv-x="516" 
d="M220 -173q-121 0 -191 25l32 109q80 -20 159 -20q59 0 94.5 29.5t35.5 78.5q0 117 -131 117q-63 0 -165 -10v389h396v-108h-268v-168q23 2 63 2q110 0 174.5 -55.5t64.5 -156.5q0 -109 -73.5 -170.5t-190.5 -61.5z" />
    <glyph glyph-name="six" unicode="6" horiz-adv-x="591" 
d="M204 335l-1 102q55 17 117 17q116 0 178 -55t62 -165q0 -115 -71 -180.5t-179 -65.5q-130 0 -197 75.5t-67 242.5q0 200 88 304t241 104q81 0 134 -20l-29 -104q-50 12 -106 12q-86 0 -140 -71.5t-54 -230.5q0 -111 29.5 -157t107.5 -46q50 0 79.5 35.5t29.5 91.5
q0 126 -119 126q-45 0 -103 -15z" />
    <glyph glyph-name="seven" unicode="7" horiz-adv-x="504" 
d="M171 -184l-118 39l295 570h-323v120h458v-94z" />
    <glyph glyph-name="eight" unicode="8" horiz-adv-x="592" 
d="M293 -12q-113 0 -182 46.5t-69 137.5q0 69 38 115.5t104 82.5q-116 74 -116 169q0 87 64.5 131.5t170.5 44.5q102 0 163.5 -48t61.5 -119q0 -58 -35 -99t-97 -77q72 -39 113 -82t41 -106q0 -96 -70 -146t-187 -50zM299 89q60 0 88.5 29t28.5 75q0 35 -32 62t-98 63
q-55 -31 -84.5 -60.5t-29.5 -67.5q0 -42 31 -71.5t96 -29.5zM294 419q49 25 75 50.5t26 59.5q0 39 -23.5 62.5t-69.5 23.5q-53 0 -78.5 -24t-25.5 -63q0 -57 96 -109z" />
    <glyph glyph-name="nine" unicode="9" horiz-adv-x="580" 
d="M383 210l3 -101q-56 -18 -122 -18q-114 0 -176 55.5t-62 170.5q0 114 71.5 179t179.5 65q126 0 194.5 -79.5t68.5 -238.5q0 -408 -334 -408q-76 0 -131 20l29 105q46 -13 104 -13q94 0 146 68.5t52 235.5q0 101 -31.5 150.5t-104.5 49.5q-50 0 -80 -34.5t-30 -90.5
q0 -131 119 -131q48 0 104 15z" />
    <glyph glyph-name="colon" unicode=":" horiz-adv-x="318" 
d="M84 0v136h151v-136h-151zM84 410v136h151v-136h-151z" />
    <glyph glyph-name="semicolon" unicode=";" horiz-adv-x="317" 
d="M55 -130q31 62 31 141v122h146v-84q0 -102 -58 -179h-119zM83 410v136h151v-136h-151z" />
    <glyph glyph-name="less" unicode="&#x3c;" horiz-adv-x="518" 
d="M456 54l-417 190v119l417 197v-114l-311 -143l311 -135v-114z" />
    <glyph glyph-name="equal" unicode="=" horiz-adv-x="605" 
d="M68 133l-1 103h469l2 -103h-470zM68 369l-1 103h469l2 -103h-470z" />
    <glyph glyph-name="greater" unicode="&#x3e;" horiz-adv-x="518" 
d="M62 54v114l311 135l-311 143v114l417 -197v-119z" />
    <glyph glyph-name="question" unicode="?" horiz-adv-x="413" 
d="M97 177q-23 46 -23 90q0 43 26 82.5t56.5 62.5t56.5 48.5t26 44.5q0 43 -47 66t-142 31l25 111q302 -21 302 -202q0 -35 -19 -67t-46.5 -56t-54.5 -45.5t-46 -43t-19 -40.5q0 -32 14 -64zM90 0v124h138v-124h-138z" />
    <glyph glyph-name="at" unicode="@" horiz-adv-x="810" 
d="M384 -73q-158 0 -247.5 84t-89.5 256q0 113 35 201t96 141.5t138.5 80.5t168.5 27q135 0 210.5 -73t75.5 -222q0 -133 -68.5 -209t-171.5 -76q-41 0 -66 19t-27 45q-15 -21 -44 -38t-51 -17q-55 0 -83.5 30t-28.5 106q0 93 56 153.5t149 60.5q67 0 130 -25l-24 -201
q-4 -40 20 -40q35 0 71 51.5t36 141.5q0 104 -50.5 155t-139.5 51q-68 0 -126 -20.5t-103.5 -62t-71.5 -111.5t-26 -162q0 -128 64.5 -190t177.5 -62q74 0 164 18l13 -85q-88 -27 -187 -27zM373 242q9 0 17 1.5t15.5 5t10.5 5.5t10.5 8t8.5 6l18 146q-1 0 -7 0.5t-9 0.5
q-42 0 -67 -33.5t-25 -88.5q0 -51 28 -51z" />
    <glyph glyph-name="A" unicode="A" horiz-adv-x="702" 
d="M-7 0l279 707h176l245 -707h-143l-77 229h-254l-88 -229h-138zM256 330h184l-86 290z" />
    <glyph glyph-name="B" unicode="B" horiz-adv-x="661" 
d="M90 0v707h228q250 0 250 -188q0 -47 -24.5 -84t-60.5 -53v-2q52 -12 94 -56t42 -112q0 -212 -271 -212h-258zM228 108h107q73 0 109.5 22.5t36.5 77.5q0 56 -38.5 80t-120.5 24h-94v-204zM228 409h84q61 0 90.5 23t29.5 73q0 53 -34 75t-104 22h-66v-193z" />
    <glyph glyph-name="C" unicode="C" horiz-adv-x="668" 
d="M427 -12q-185 0 -284 95.5t-99 265.5t101.5 269.5t277.5 99.5q120 0 214 -43l-37 -101q-95 28 -175 29q-108 1 -174.5 -60.5t-66.5 -183.5q0 -125 71.5 -189.5t188.5 -64.5q87 0 165 23l30 -105q-95 -35 -212 -35z" />
    <glyph glyph-name="D" unicode="D" horiz-adv-x="772" 
d="M90 0v707h230q187 0 296.5 -87t109.5 -264q0 -180 -104.5 -268t-295.5 -88h-236zM226 108h111q252 0 252 238q0 253 -272 253h-91v-491z" />
    <glyph glyph-name="E" unicode="E" horiz-adv-x="595" 
d="M90 0v707h439v-108h-302v-193h280v-102h-280v-196h325v-108h-462z" />
    <glyph glyph-name="F" unicode="F" horiz-adv-x="595" 
d="M90 0v707h465v-108h-328v-211h306v-102h-306v-286h-137z" />
    <glyph glyph-name="G" unicode="G" horiz-adv-x="707" 
d="M427 -11q-178 0 -279.5 93t-101.5 267q0 181 98 274.5t285 93.5q112 0 209 -41l-37 -102q-41 12 -56.5 16t-48 8.5t-69.5 4.5q-108 0 -175 -60t-67 -184q0 -126 72.5 -190t185.5 -64q33 0 71 6v238h137v-321q-104 -39 -224 -39z" />
    <glyph glyph-name="H" unicode="H" horiz-adv-x="788" 
d="M90 0v707h137v-299h333v299h137v-707h-137v302h-333v-302h-137z" />
    <glyph glyph-name="I" unicode="I" horiz-adv-x="318" 
d="M90 0v707h137v-707h-137z" />
    <glyph glyph-name="J" unicode="J" horiz-adv-x="320" 
d="M0 -194l-52 99q88 48 117 99.5t29 146.5v556h137v-554q0 -50 -4 -86t-17.5 -77t-38 -72t-67.5 -60.5t-104 -51.5z" />
    <glyph glyph-name="K" unicode="K" horiz-adv-x="678" 
d="M233 368v23l260 316h175l-289 -329l306 -378h-176zM227 707v-707h-137v707h137z" />
    <glyph glyph-name="L" unicode="L" horiz-adv-x="546" 
d="M90 0v707h137v-597h307v-110h-444z" />
    <glyph glyph-name="M" unicode="M" horiz-adv-x="971" 
d="M90 0v707h171l214 -594l244 594h162v-707h-137v343l6 145h-4l-193 -488h-163l-167 489h-4l8 -140v-349h-137z" />
    <glyph glyph-name="N" unicode="N" horiz-adv-x="790" 
d="M90 0v707h163l311 -534h3l-4 83v451h136v-707h-167l-305 523h-4l4 -86v-437h-137z" />
    <glyph glyph-name="O" unicode="O" horiz-adv-x="829" 
d="M406 -12q-175 0 -268 98t-93 269q0 167 102 265t276 98q178 0 269.5 -100.5t91.5 -264.5q0 -169 -99.5 -267t-278.5 -98zM409 97q120 0 178 70.5t58 186.5q0 115 -58.5 185t-170.5 70q-116 0 -174.5 -69.5t-58.5 -183.5q0 -113 57 -186t169 -73z" />
    <glyph glyph-name="P" unicode="P" horiz-adv-x="631" 
d="M251 221v107h51q79 0 120 35.5t41 99.5q0 136 -137 136h-98v-599h-138v707h258q116 0 186.5 -63.5t70.5 -176.5q0 -106 -81 -176t-228 -70h-45z" />
    <glyph glyph-name="Q" unicode="Q" horiz-adv-x="829" 
d="M785 -180q-117 0 -154 8q-91 14 -129 26q-58 16 -104 16v97q55 0 117 -14q98 -23 143 -27q36 -7 127 -7v-99zM406 -12q-175 0 -268 98t-93 269q0 167 102 265t276 98q178 0 269.5 -100.5t91.5 -264.5q0 -169 -99.5 -267t-278.5 -98zM409 97q120 0 178 70.5t58 186.5
q0 115 -58.5 185t-170.5 70q-116 0 -174.5 -69.5t-58.5 -183.5q0 -113 57 -186t169 -73z" />
    <glyph glyph-name="R" unicode="R" horiz-adv-x="718" 
d="M692 -13q-56 4 -104 27.5t-80.5 53.5t-72.5 79l-90 114q-21 -3 -48 -3h-69v-258h-138v707h259q117 0 186.5 -56t69.5 -166q0 -62 -30.5 -112.5t-90.5 -79.5l80 -98q67 -78 158 -103zM228 358h75q160 0 160 122q0 64 -31.5 91.5t-104.5 27.5h-99v-241z" />
    <glyph glyph-name="S" unicode="S" horiz-adv-x="567" 
d="M256 -12q-126 0 -222 54l40 104q102 -44 181 -44q63 0 101.5 24t38.5 69q0 38 -35 64t-85 45t-100 42t-85 68t-35 111q0 90 70 141.5t167 51.5q121 0 203 -49l-39 -101q-82 36 -160 36q-48 0 -78 -21.5t-30 -58.5q0 -27 25.5 -50t64 -38t83 -36t83 -44t64 -63t25.5 -92
q0 -104 -80.5 -158.5t-196.5 -54.5z" />
    <glyph glyph-name="T" unicode="T" horiz-adv-x="621" 
d="M242 0v598h-230v109h596v-109h-229v-598h-137z" />
    <glyph glyph-name="U" unicode="U" horiz-adv-x="781" 
d="M393 -13q-62 0 -114.5 14t-98.5 45.5t-72.5 89t-26.5 136.5v435h138v-429q0 -177 174 -177q173 0 173 199v407h135v-410q0 -69 -18 -123.5t-48 -89t-71 -57t-83 -31.5t-88 -9z" />
    <glyph glyph-name="V" unicode="V" horiz-adv-x="703" 
d="M254 0l-246 707h145l194 -604l225 604h138l-276 -707h-180z" />
    <glyph glyph-name="W" unicode="W" horiz-adv-x="1056" 
d="M198 0l-168 707h134l135 -621l175 448l-59 173h136l199 -617l165 617h131l-208 -707h-178l-133 391l-147 -391h-182z" />
    <glyph glyph-name="X" unicode="X" horiz-adv-x="649" 
d="M-1 0l251 367l-218 340h157l140 -236l151 236h152l-230 -338l236 -369h-158l-158 265l-170 -265h-153z" />
    <glyph glyph-name="Y" unicode="Y" horiz-adv-x="631" 
d="M245 0v243l-250 464h157l166 -348l177 348h152l-265 -461v-246h-137z" />
    <glyph glyph-name="Z" unicode="Z" horiz-adv-x="603" 
d="M36 0v98l344 495h-318v114h482v-91l-348 -502h369v-114h-529z" />
    <glyph glyph-name="bracketleft" unicode="[" horiz-adv-x="342" 
d="M79 -220v974h234v-104h-107v-766h107v-104h-234z" />
    <glyph glyph-name="backslash" unicode="\" horiz-adv-x="412" 
d="M263 -62l-233 830h119l233 -830h-119z" />
    <glyph glyph-name="bracketright" unicode="]" horiz-adv-x="342" 
d="M30 -220v104h107v766h-107v104h234v-974h-234z" />
    <glyph glyph-name="asciicircum" unicode="^" horiz-adv-x="544" 
d="M34 294l168 413h153l157 -413h-130l-105 313l-116 -313h-127z" />
    <glyph glyph-name="underscore" unicode="_" horiz-adv-x="523" 
d="M6 -186v109h511v-109h-511z" />
    <glyph glyph-name="grave" unicode="`" horiz-adv-x="578" 
d="M385 607l-224 111l46 95l220 -125z" />
    <glyph glyph-name="a" unicode="a" horiz-adv-x="578" 
d="M208 -9q-84 0 -131 41.5t-47 119.5q0 164 225 166l108 1v47q0 46 -25.5 63t-87.5 17q-70 0 -154 -25l-27 98q98 40 204 40q115 0 168 -38t53 -125v-265q0 -32 52 -34l-4 -101q-10 -1 -34 -1q-118 0 -133 62q-83 -66 -167 -66zM238 95q51 0 125 35v108l-100 -4
q-48 -1 -75.5 -20t-27.5 -52q0 -34 22 -50.5t56 -16.5z" />
    <glyph glyph-name="b" unicode="b" horiz-adv-x="618" 
d="M229 445l-8 93q51 20 110 20q247 0 247 -258q0 -68 -16 -121.5t-43 -88.5t-64.5 -58t-78.5 -33t-88 -10q-113 0 -216 33v732h132v-646q57 -13 87 -13q71 0 111 56t40 142q0 84 -29.5 124t-105.5 40q-30 0 -78 -12z" />
    <glyph glyph-name="c" unicode="c" horiz-adv-x="509" 
d="M343 -11q-162 0 -232.5 67.5t-70.5 219.5q0 130 76 207t206 77q97 0 165 -36l-36 -99q-63 25 -125 25q-66 0 -107.5 -42.5t-41.5 -131.5q0 -96 36.5 -137.5t137.5 -41.5q33 0 112 15l19 -103q-80 -20 -139 -20z" />
    <glyph glyph-name="d" unicode="d" horiz-adv-x="615" 
d="M278 -9q-35 0 -65.5 6.5t-63.5 26t-56 50t-38 83t-15 121.5q0 135 79.5 208.5t202.5 73.5q41 0 86 -9v203h134v-754h-134v44q-60 -53 -130 -53zM301 102q49 0 107 35v306q-44 11 -84 11q-77 0 -114 -48.5t-37 -130.5q0 -173 128 -173z" />
    <glyph glyph-name="e" unicode="e" horiz-adv-x="571" 
d="M323 -12q-138 0 -209.5 62t-71.5 214q0 295 265 295q224 0 224 -275v-48h-356q0 -83 44 -111.5t128 -28.5q63 0 148 23l21 -101q-90 -30 -193 -30zM178 325h216q1 63 -24.5 100.5t-73.5 37.5q-51 0 -82.5 -35.5t-35.5 -102.5z" />
    <glyph glyph-name="f" unicode="f" horiz-adv-x="373" 
d="M105 -171v621h-80v96h80v27q0 195 201 195q51 0 93 -13l-21 -101q-36 8 -67 8q-73 0 -73 -90v-26h117v-96h-117v-621h-133z" />
    <glyph glyph-name="g" unicode="g" horiz-adv-x="614" 
d="M287 -230q-123 0 -207 32l22 113q92 -28 167 -28q71 0 105.5 23.5t34.5 90.5v25q-46 -32 -105 -32q-47 0 -83 6t-71.5 24t-58.5 48t-37 80t-14 118q0 138 81.5 214t205.5 76q101 0 214 -26v-550q0 -104 -75.5 -159t-178.5 -55zM314 95q42 0 94 24v318q-44 12 -82 12
q-78 0 -115.5 -48t-37.5 -132q0 -94 36 -134t105 -40z" />
    <glyph glyph-name="h" unicode="h" 
d="M74 0v754h133v-268q93 73 183 73q48 0 82 -12.5t52.5 -30t28.5 -48.5t12 -57t2 -66v-345h-131v330q0 64 -18 88.5t-71 24.5q-63 0 -140 -45v-398h-133z" />
    <glyph glyph-name="i" unicode="i" horiz-adv-x="281" 
d="M74 0v546h134v-546h-134zM139 621l-93 95l93 94l95 -94z" />
    <glyph glyph-name="j" unicode="j" horiz-adv-x="281" 
d="M0 -225q-56 0 -106 22l24 105q37 -13 78 -13q43 0 60.5 25t17.5 81v551h133v-552q0 -65 -16 -109.5t-46.5 -67.5t-65 -32.5t-79.5 -9.5zM138 621l-93 95l93 94l95 -94z" />
    <glyph glyph-name="k" unicode="k" horiz-adv-x="570" 
d="M207 754v-450l189 242h146l-211 -253l90 -108q65 -75 137 -95l-18 -101q-64 4 -111.5 24t-94.5 81l-127 166v-260h-133v754h133z" />
    <glyph glyph-name="l" unicode="l" horiz-adv-x="281" 
d="M74 0v754h133v-754h-133z" />
    <glyph glyph-name="m" unicode="m" horiz-adv-x="968" 
d="M74 0v546h133v-59q91 73 177 73q115 0 152 -82q93 82 191 82q49 0 83.5 -14.5t51.5 -33t26 -52t10.5 -55.5t1.5 -59v-346h-133v331q0 59 -18 86t-68 27q-59 0 -131 -45q3 -25 3 -52v-347h-132v331q0 62 -17 87t-67 25q-66 0 -130 -44v-399h-133z" />
    <glyph glyph-name="n" unicode="n" horiz-adv-x="636" 
d="M74 0v546h133v-58q96 72 183 72q48 0 82.5 -12t52.5 -30t28 -48.5t12.5 -57t2.5 -66.5v-346h-132v331q0 64 -18 88.5t-71 24.5q-67 0 -140 -43v-401h-133z" />
    <glyph glyph-name="o" unicode="o" horiz-adv-x="618" 
d="M304 -12q-127 0 -196 74t-69 206q0 136 74.5 214t198.5 78q134 0 200 -74.5t66 -212.5q0 -137 -75.5 -211t-198.5 -74zM311 95q73 0 102 47.5t29 130.5q0 181 -133 181q-135 0 -135 -182q0 -177 137 -177z" />
    <glyph glyph-name="p" unicode="p" horiz-adv-x="620" 
d="M74 -220v766h132v-41q72 54 140 54q234 0 234 -264q0 -159 -82 -232t-208 -73q-26 0 -84 5v-215h-132zM294 93q71 0 111 53t40 138q0 81 -31.5 122t-105.5 41q-30 0 -102 -29v-317q80 -8 88 -8z" />
    <glyph glyph-name="q" unicode="q" horiz-adv-x="614" 
d="M408 -220v241q-52 -30 -116 -30q-252 0 -252 288q0 134 79.5 207.5t202.5 73.5q116 0 220 -30v-750h-134zM303 103q54 0 105 20v319q-37 11 -84 11q-78 0 -114.5 -47.5t-36.5 -129.5q0 -173 130 -173z" />
    <glyph glyph-name="r" unicode="r" horiz-adv-x="429" 
d="M74 0v546h133v-73q23 33 62 58.5t85 25.5q44 0 71 -9l-19 -110q-31 6 -70 6t-74 -18.5t-55 -43.5v-382h-133z" />
    <glyph glyph-name="s" unicode="s" horiz-adv-x="481" 
d="M222 -12q-107 0 -184 23l16 104q100 -18 156 -18q109 0 109 55q0 23 -28.5 38.5t-68.5 28.5t-80.5 31t-69 55t-28.5 91q0 78 61.5 121t148.5 43q92 0 170 -29l-24 -99q-78 21 -142 21q-39 0 -60 -13.5t-21 -36.5t28 -40.5t68.5 -31.5t80.5 -32.5t68 -54t28 -85.5
q0 -48 -22 -83t-58 -53t-73 -26.5t-75 -8.5z" />
    <glyph glyph-name="t" unicode="t" horiz-adv-x="447" 
d="M292 -13q-95 0 -142.5 39.5t-47.5 136.5v281h-80v102h80v112h132v-112h170v-102h-170v-274q0 -39 17 -54t57 -15q49 0 109 16l15 -106q-62 -24 -140 -24z" />
    <glyph glyph-name="u" unicode="u" horiz-adv-x="634" 
d="M243 -12q-48 0 -81.5 12.5t-51.5 30.5t-27.5 49t-12 57t-2.5 66v343h132v-328q0 -63 17 -88t69 -25q71 0 142 43v398h132v-546h-132v59q-98 -71 -185 -71z" />
    <glyph glyph-name="v" unicode="v" horiz-adv-x="570" 
d="M196 0l-190 546h143l101 -326l31 -112l34 113l112 325h139l-206 -546h-164z" />
    <glyph glyph-name="w" unicode="w" horiz-adv-x="900" 
d="M169 0l-152 546h140l97 -440l119 440h160l102 -440l117 440h136l-172 -546h-167l-82 336l-17 85l-21 -84l-92 -337h-168z" />
    <glyph glyph-name="x" unicode="x" horiz-adv-x="560" 
d="M7 0l198 279l-184 267h153l106 -183l107 183h151l-183 -266l199 -280h-160l-114 195l-116 -195h-157z" />
    <glyph glyph-name="y" unicode="y" horiz-adv-x="567" 
d="M167 -220l74 220h-51l-184 546h144l103 -349l26 -92l29 91l119 350h135l-267 -766h-128z" />
    <glyph glyph-name="z" unicode="z" horiz-adv-x="518" 
d="M35 0v93l281 344h-261v109h417v-90l-279 -348h283v-108h-441z" />
    <glyph glyph-name="braceleft" unicode="{" horiz-adv-x="364" 
d="M292 -222q-99 0 -152 34.5t-53 118.5q0 9 2 29l21 192q3 25 -17 46.5t-61 21.5v106q41 0 61 21t17 46l-21 196q-2 22 -1 31q1 81 54 115.5t150 34.5h45v-112h-41q-43 0 -63 -22t-15 -58l20 -176q12 -96 -68 -127v-2q80 -36 68 -128l-20 -176q-5 -35 15 -57t63 -22h41
v-112h-45z" />
    <glyph glyph-name="bar" unicode="|" horiz-adv-x="277" 
d="M79 -220v974h119v-974h-119z" />
    <glyph glyph-name="braceright" unicode="}" horiz-adv-x="364" 
d="M72 -222h-45v112h41q43 0 63 22t15 57l-20 176q-12 92 68 128v2q-80 31 -68 127l20 176q5 36 -15 58t-63 22h-41v112h45q97 0 150 -34.5t54 -115.5q1 -9 -1 -31l-21 -196q-3 -25 17 -46t61 -21v-106q-41 0 -61 -21.5t-17 -46.5l21 -192q2 -20 2 -29q0 -84 -53 -118.5
t-152 -34.5z" />
    <glyph glyph-name="asciitilde" unicode="~" horiz-adv-x="570" 
d="M379 257q-51 0 -110.5 30t-85.5 30q-41 0 -81 -32l-62 84q72 81 148 81q50 0 105 -30.5t86 -30.5q17 0 25 0.5t26 8.5t37 24l63 -78q-25 -36 -68.5 -61.5t-82.5 -25.5z" />
    <glyph glyph-name="exclamdown" unicode="&#xa1;" horiz-adv-x="305" 
d="M86 -161v332l8 173h118l7 -173v-332h-133zM84 422v124h138v-124h-138z" />
    <glyph glyph-name="cent" unicode="&#xa2;" horiz-adv-x="517" 
d="M244 -56l2 86q-114 16 -160 72t-46 175q0 203 206 240l-3 83h124l-3 -79q57 -5 105 -30l-36 -95q-58 18 -114 18q-142 0 -142 -139q0 -79 34 -111.5t133 -32.5q32 0 107 11l20 -101q-63 -15 -106 -17l2 -80h-123z" />
    <glyph glyph-name="sterling" unicode="&#xa3;" horiz-adv-x="516" 
d="M60 0v97q33 17 52 49t19 65h-84v102h87q0 21 -1.5 37t-1.5 30q0 53 16.5 90t41.5 57.5t66.5 32t78 15t90.5 3.5l6 -109q-103 -10 -129 -22q-36 -18 -35 -72q1 -16 1 -27v-7v-14.5v-13.5h160v-102h-172q-5 -66 -50 -104h266v-107h-411z" />
    <glyph glyph-name="yen" unicode="&#xa5;" horiz-adv-x="663" 
d="M261 0v50h-208v108h209l-6 23l-28 51h-175v108h114l-113 206h145l131 -266l138 266h141l-121 -206h122v-108h-187l-28 -48l-7 -26h222v-108h-220v-50h-129z" />
    <glyph glyph-name="section" unicode="&#xa7;" horiz-adv-x="668" 
d="M148 -88q-75 0 -121 40l36 98q47 -34 83 -34q41 0 41 77q0 39 -14 113l-10 56q-10 53 -10 98q0 121 92 196.5t224 75.5q102 0 162 -55q-47 -78 -55 -86q-47 39 -105 39q-46 0 -46 -58q0 -38 11 -78l12 -47q19 -91 19 -168q0 -113 -93.5 -190t-225.5 -77zM285 26
q68 61 68 143q0 47 -11 99l-16 80q-8 43 -8 88q0 38 9 78q-31 -22 -45 -61.5t-14 -77.5q0 -48 9 -89l16 -82q8 -38 8 -84q0 -33 -16 -94z" />
    <glyph glyph-name="dieresis" unicode="&#xa8;" horiz-adv-x="423" 
d="M102 636l-79 80l79 80l79 -80zM328 636l-80 80l80 80l79 -80z" />
    <glyph glyph-name="copyright" unicode="&#xa9;" horiz-adv-x="796" 
d="M417 74q-95 0 -149.5 56.5t-54.5 143.5q0 92 53.5 147.5t148.5 55.5q80 0 125 -28l-25 -68q-43 17 -98 17q-52 0 -84.5 -29.5t-32.5 -90.5q0 -60 35 -91t91 -31q51 0 93 14l24 -72q-58 -24 -126 -24zM389 -86q-162 0 -253.5 98.5t-91.5 262.5q0 166 100 261.5t264 95.5
q165 0 254 -99t89 -260q0 -165 -97 -262t-265 -97zM393 -22q137 0 209 82t72 214q0 130 -73 212t-202 82q-132 0 -205 -81t-73 -211q0 -128 71.5 -213t200.5 -85z" />
    <glyph glyph-name="ordfeminine" unicode="&#xaa;" horiz-adv-x="427" 
d="M167 388q-105 0 -105 94t133 94l57 1v27q0 22 -12.5 29t-47.5 7q-33 0 -91 -15l-18 65q64 24 123 24q29 0 48.5 -3t40.5 -11.5t31.5 -28.5t10.5 -50v-149q0 -6 4 -9.5t9 -4t16 -1.5l-4 -66q-87 -5 -102 31q-47 -34 -93 -34zM178 457q9 0 23.5 3.5t30.5 8.5t20 6v46
l-53 -2q-52 -2 -52 -31q0 -31 31 -31zM63 289v68h306v-68h-306z" />
    <glyph glyph-name="guillemotleft" unicode="&#xab;" horiz-adv-x="494" 
d="M158 46l-119 226l119 224l86 -34l-90 -190l89 -185zM362 46l-120 226l120 224l86 -34l-90 -190l89 -185z" />
    <glyph glyph-name="registered" unicode="&#xae;" horiz-adv-x="569" 
d="M525 531q0 -105 -67.5 -165t-171.5 -60q-43 0 -83.5 12t-77.5 36.5t-59.5 70.5t-22.5 106q0 107 68.5 168.5t173.5 61.5q46 0 87 -12.5t76 -39t56 -72.5t21 -106zM473 531q0 90 -55 137t-132 47q-83 0 -137 -45t-54 -135q0 -55 21 -94t54.5 -57t62.5 -25t58 -7
q80 0 131 47.5t51 131.5zM413 449l-7 -40q-50 2 -77 26q-17 14 -47 71h-31v-91h-62v252l99 1q44 0 70 -21t26 -61q0 -46 -42 -69q19 -33 32 -45q9 -9 39 -23zM326 586q0 21 -9 31t-32 10h-35v-85h31q45 0 45 44z" />
    <glyph glyph-name="degree" unicode="&#xb0;" horiz-adv-x="398" 
d="M197 403q-75 0 -116.5 41t-41.5 117q0 70 46 113t115 43q72 0 116 -42t44 -114t-46 -115t-117 -43zM199 487q61 0 61 74q0 35 -16.5 53.5t-44.5 18.5q-61 0 -61 -72q0 -74 61 -74z" />
    <glyph glyph-name="plusminus" unicode="&#xb1;" horiz-adv-x="543" 
d="M50 104h443v-104h-443v104zM324 115h-106l2 177l-170 -1v104l170 -3l-1 170h105l-4 -172l173 5v-104l-171 1z" />
    <glyph glyph-name="acute" unicode="&#xb4;" horiz-adv-x="578" 
d="M205 608l-40 80l219 124l47 -94z" />
    <glyph glyph-name="paragraph" unicode="&#xb6;" horiz-adv-x="627" 
d="M338 -224q-55 0 -103 17l24 112q48 -12 81 -12q42 0 59 23t17 78v713h133v-714q0 -217 -211 -217zM238 243q-100 0 -151.5 60.5t-51.5 174.5q0 69 19.5 115.5t57 70.5t80 33.5t101.5 9.5h59v-464h-114z" />
    <glyph glyph-name="periodcentered" unicode="&#xb7;" horiz-adv-x="253" 
d="M127 287l-89 90l89 88l88 -88z" />
    <glyph glyph-name="cedilla" unicode="&#xb8;" horiz-adv-x="463" 
d="M192 -267l-46 79q50 31 62 48q8 12 8 25q0 20 -16 64h109q21 -44 21 -76q0 -81 -138 -140z" />
    <glyph glyph-name="ordmasculine" unicode="&#xba;" horiz-adv-x="437" 
d="M215 383q-76 0 -117 43.5t-41 119.5q0 79 44.5 124.5t118.5 45.5q160 0 160 -167q0 -79 -45.5 -122.5t-119.5 -43.5zM219 455q39 0 54.5 24.5t15.5 69.5q0 95 -71 95t-71 -96q0 -93 72 -93zM65 289v68h305v-68h-305z" />
    <glyph glyph-name="guillemotright" unicode="&#xbb;" horiz-adv-x="493" 
d="M132 46l-85 41l88 185l-89 190l86 34l119 -224zM336 46l-85 41l88 185l-90 190l87 34l119 -224z" />
    <glyph glyph-name="questiondown" unicode="&#xbf;" horiz-adv-x="407" 
d="M336 -164q-302 21 -302 203q0 42 29 81t64 63.5t64 52.5t29 51q0 30 -14 64l108 18q23 -47 23 -89q0 -36 -17 -68t-41 -54.5t-48 -42t-41 -38t-17 -34.5q0 -81 188 -96zM184 422v124h138v-124h-138z" />
    <glyph glyph-name="Agrave" unicode="&#xc0;" horiz-adv-x="702" 
d="M446 745l-256 55l25 107l252 -72zM-7 0l279 707h176l245 -707h-143l-77 229h-254l-88 -229h-138zM256 330h184l-86 290z" />
    <glyph glyph-name="Atilde" unicode="&#xc3;" horiz-adv-x="702" 
d="M-7 0l279 707h176l245 -707h-143l-77 229h-254l-88 -229h-138zM256 330h184l-86 290zM419 755q-25 0 -66 18.5t-59 18.5q-37 0 -70 -26l-50 63q60 68 127 68q32 0 70 -19t52 -19q34 0 78 26l46 -62q-59 -68 -128 -68z" />
    <glyph glyph-name="Adieresis" unicode="&#xc4;" horiz-adv-x="702" 
d="M241 741l-83 84l83 84l84 -84zM467 741l-84 84l84 84l84 -84zM-7 0l279 707h176l245 -707h-143l-77 229h-254l-88 -229h-138zM256 330h184l-86 290z" />
    <glyph glyph-name="Aring" unicode="&#xc5;" horiz-adv-x="702" 
d="M-7 0l279 707h176l245 -707h-143l-77 229h-254l-88 -229h-138zM256 330h184l-86 290zM361 744q-51 0 -86.5 24.5t-35.5 79.5q0 53 35 81t84 28q45 0 82.5 -25.5t37.5 -81.5q0 -51 -33.5 -78.5t-83.5 -27.5zM359 798q51 0 54 51q0 23 -15.5 37t-38.5 14q-55 0 -55 -49
q0 -24 15 -38.5t40 -14.5z" />
    <glyph glyph-name="AE" unicode="&#xc6;" horiz-adv-x="962" 
d="M-7 0l348 707h555v-108h-302v-193h280v-102h-280v-196h325v-108h-462v270h-186l-124 -270h-154zM316 372h141v227h-37z" />
    <glyph glyph-name="Ccedilla" unicode="&#xc7;" horiz-adv-x="668" 
d="M344 -267l-45 79q2 2 10 7t11 7t10.5 6.5t10.5 7.5t8.5 8t8 8.5t5.5 8.5t4 10t1 10q0 20 -16 64h109q21 -44 21 -76q1 -81 -138 -140zM427 -12q-185 0 -284 95.5t-99 265.5t101.5 269.5t277.5 99.5q120 0 214 -43l-37 -101q-95 28 -175 29q-108 1 -174.5 -60.5
t-66.5 -183.5q0 -125 71.5 -189.5t188.5 -64.5q87 0 165 23l30 -105q-95 -35 -212 -35z" />
    <glyph glyph-name="Eacute" unicode="&#xc9;" horiz-adv-x="595" 
d="M233 745l-21 90l252 73l24 -106zM90 0v707h439v-108h-302v-193h280v-102h-280v-196h325v-108h-462z" />
    <glyph glyph-name="Ntilde" unicode="&#xd1;" horiz-adv-x="790" 
d="M462 755q-25 0 -66 18.5t-59 18.5q-37 0 -70 -26l-50 63q59 68 127 68q32 0 70 -19t52 -19q34 0 78 26l46 -62q-59 -68 -128 -68zM90 0v707h163l311 -534h3l-4 83v451h136v-707h-167l-305 523h-4l4 -86v-437h-137z" />
    <glyph glyph-name="Otilde" unicode="&#xd5;" horiz-adv-x="829" 
d="M480 755q-25 0 -66 18.5t-59 18.5q-37 0 -70 -26l-50 63q59 68 127 68q32 0 70 -19t52 -19q34 0 78 26l46 -62q-59 -68 -128 -68zM406 -12q-175 0 -268 98t-93 269q0 167 102 265t276 98q178 0 269.5 -100.5t91.5 -264.5q0 -169 -99.5 -267t-278.5 -98zM409 97
q120 0 178 70.5t58 186.5q0 115 -58.5 185t-170.5 70q-116 0 -174.5 -69.5t-58.5 -183.5q0 -113 57 -186t169 -73z" />
    <glyph glyph-name="Odieresis" unicode="&#xd6;" horiz-adv-x="829" 
d="M295 741l-83 84l83 84l84 -84zM521 741l-83 84l83 84l84 -84zM406 -12q-175 0 -268 98t-93 269q0 167 102 265t276 98q178 0 269.5 -100.5t91.5 -264.5q0 -169 -99.5 -267t-278.5 -98zM409 97q120 0 178 70.5t58 186.5q0 115 -58.5 185t-170.5 70q-116 0 -174.5 -69.5
t-58.5 -183.5q0 -113 57 -186t169 -73z" />
    <glyph glyph-name="multiply" unicode="&#xd7;" horiz-adv-x="563" 
d="M446 68l-166 167l-160 -163l-74 74l162 161l-162 160l72 74l161 -164l163 165l74 -74l-169 -163l170 -163z" />
    <glyph glyph-name="Oslash" unicode="&#xd8;" horiz-adv-x="829" 
d="M84 -39l-58 58l90 93q-71 94 -71 243q0 167 102 265t276 98q133 0 219 -61l89 91l61 -56l-87 -90q79 -95 79 -249q0 -169 -99.5 -267t-278.5 -98q-141 0 -231 67zM409 97q120 0 178 70.5t58 186.5q0 88 -36 149l-345 -357q55 -49 145 -49zM183 356q0 -82 31 -143l340 353
q-56 43 -138 43q-116 0 -174.5 -69.5t-58.5 -183.5z" />
    <glyph glyph-name="Udieresis" unicode="&#xdc;" horiz-adv-x="781" 
d="M280 741l-83 84l83 84l84 -84zM506 741l-84 84l84 84l83 -84zM393 -13q-62 0 -114.5 14t-98.5 45.5t-72.5 89t-26.5 136.5v435h138v-429q0 -177 174 -177q173 0 173 199v407h135v-410q0 -69 -18 -123.5t-48 -89t-71 -57t-83 -31.5t-88 -9z" />
    <glyph glyph-name="germandbls" unicode="&#xdf;" horiz-adv-x="637" 
d="M74 -171v717q0 222 237 222q31 0 63 -7t68 -24t59 -53t23 -87q0 -34 -17 -67t-38 -53.5t-38 -44.5t-17 -43q0 -24 21 -44t50.5 -35.5t59 -34t50.5 -49.5t21 -72q0 -45 -19 -79t-49.5 -52t-63.5 -26.5t-67 -8.5q-102 0 -159 21l17 104q71 -17 116 -17q95 0 95 49
q0 22 -21 39t-50.5 32t-59.5 33.5t-51 53t-21 80.5q0 37 25 74t50 70.5t25 62.5q0 31 -24.5 50t-57.5 19q-53 0 -74 -29t-21 -85v-716h-132z" />
    <glyph glyph-name="agrave" unicode="&#xe0;" horiz-adv-x="578" 
d="M348 608l-225 111l47 95l220 -125zM208 -9q-84 0 -131 41.5t-47 119.5q0 164 225 166l108 1v47q0 46 -25.5 63t-87.5 17q-70 0 -154 -25l-27 98q98 40 204 40q115 0 168 -38t53 -125v-265q0 -32 52 -34l-4 -101q-10 -1 -34 -1q-118 0 -133 62q-83 -66 -167 -66zM238 95
q51 0 125 35v108l-100 -4q-48 -1 -75.5 -20t-27.5 -52q0 -34 22 -50.5t56 -16.5z" />
    <glyph glyph-name="aacute" unicode="&#xe1;" horiz-adv-x="578" 
d="M210 608l-39 81l219 124l46 -94zM208 -9q-84 0 -131 41.5t-47 119.5q0 164 225 166l108 1v47q0 46 -25.5 63t-87.5 17q-70 0 -154 -25l-27 98q98 40 204 40q115 0 168 -38t53 -125v-265q0 -32 52 -34l-4 -101q-10 -1 -34 -1q-118 0 -133 62q-83 -66 -167 -66zM238 95
q51 0 125 35v108l-100 -4q-48 -1 -75.5 -20t-27.5 -52q0 -34 22 -50.5t56 -16.5z" />
    <glyph glyph-name="acircumflex" unicode="&#xe2;" horiz-adv-x="578" 
d="M401 615l-125 87l-129 -87l-58 75l188 123l179 -123zM208 -9q-84 0 -131 41.5t-47 119.5q0 164 225 166l108 1v47q0 46 -25.5 63t-87.5 17q-70 0 -154 -25l-27 98q98 40 204 40q115 0 168 -38t53 -125v-265q0 -32 52 -34l-4 -101q-10 -1 -34 -1q-118 0 -133 62
q-83 -66 -167 -66zM238 95q51 0 125 35v108l-100 -4q-48 -1 -75.5 -20t-27.5 -52q0 -34 22 -50.5t56 -16.5z" />
    <glyph glyph-name="atilde" unicode="&#xe3;" horiz-adv-x="578" 
d="M333 638q-26 0 -67 19t-60 19q-37 0 -69 -27l-51 63q59 68 129 68q32 0 70 -18.5t53 -18.5q34 0 81 26l46 -62q-62 -69 -132 -69zM208 -9q-84 0 -131 41.5t-47 119.5q0 164 225 166l108 1v47q0 46 -25.5 63t-87.5 17q-70 0 -154 -25l-27 98q98 40 204 40q115 0 168 -38
t53 -125v-265q0 -32 52 -34l-4 -101q-10 -1 -34 -1q-118 0 -133 62q-83 -66 -167 -66zM238 95q51 0 125 35v108l-100 -4q-48 -1 -75.5 -20t-27.5 -52q0 -34 22 -50.5t56 -16.5z" />
    <glyph glyph-name="adieresis" unicode="&#xe4;" horiz-adv-x="578" 
d="M167 636l-79 80l79 80l80 -80zM393 636l-79 80l79 80l79 -80zM208 -9q-84 0 -131 41.5t-47 119.5q0 164 225 166l108 1v47q0 46 -25.5 63t-87.5 17q-70 0 -154 -25l-27 98q98 40 204 40q115 0 168 -38t53 -125v-265q0 -32 52 -34l-4 -101q-10 -1 -34 -1q-118 0 -133 62
q-83 -66 -167 -66zM238 95q51 0 125 35v108l-100 -4q-48 -1 -75.5 -20t-27.5 -52q0 -34 22 -50.5t56 -16.5z" />
    <glyph glyph-name="aring" unicode="&#xe5;" horiz-adv-x="578" 
d="M288 597q-57 0 -96.5 27t-39.5 88q0 59 39.5 90.5t93.5 31.5q31 0 59.5 -10t51.5 -38.5t23 -71.5q0 -57 -37.5 -87t-93.5 -30zM286 656q28 0 43.5 15t17.5 42q0 26 -17.5 41.5t-43.5 15.5q-61 0 -61 -55q0 -27 16.5 -43t44.5 -16zM208 -9q-84 0 -131 41.5t-47 119.5
q0 164 225 166l108 1v47q0 46 -25.5 63t-87.5 17q-70 0 -154 -25l-27 98q98 40 204 40q115 0 168 -38t53 -125v-265q0 -32 52 -34l-4 -101q-10 -1 -34 -1q-118 0 -133 62q-83 -66 -167 -66zM238 95q51 0 125 35v108l-100 -4q-48 -1 -75.5 -20t-27.5 -52q0 -34 22 -50.5
t56 -16.5z" />
    <glyph glyph-name="ae" unicode="&#xe6;" horiz-adv-x="890" 
d="M644 -9q-170 0 -235 88q-101 -87 -203 -87q-85 0 -130.5 40t-45.5 119q0 49 20 83t56 49.5t70 22t79 7.5q87 3 108 3v56q0 46 -25 60t-89 14q-46 0 -153 -24l-27 98q106 39 204 39q136 0 183 -54q62 54 174 54q221 0 221 -271v-44l-356 -10q0 -43 12.5 -71t37.5 -42
t53 -19t69 -5q50 0 148 20l20 -99q-84 -27 -191 -27zM230 95q57 0 149 43q-11 34 -16 92l-99 -2q-104 -3 -104 -69q0 -64 70 -64zM499 324l215 9q1 59 -26 94t-70 35q-49 0 -83 -34t-36 -104z" />
    <glyph glyph-name="ccedilla" unicode="&#xe7;" horiz-adv-x="509" 
d="M343 -11q-162 0 -232.5 67.5t-70.5 219.5q0 130 76 207t206 77q97 0 165 -36l-36 -99q-63 25 -125 25q-66 0 -107.5 -42.5t-41.5 -131.5q0 -96 36.5 -137.5t137.5 -41.5q33 0 112 15l19 -103q-80 -20 -139 -20zM246 -267l-45 79q2 2 10 7t11 7t10.5 6.5t10.5 7.5t8.5 8
t8 8.5t5.5 8.5t4 10t1 10q0 20 -16 64h109q21 -44 21 -76q0 -82 -138 -140z" />
    <glyph glyph-name="egrave" unicode="&#xe8;" horiz-adv-x="571" 
d="M361 608l-225 111l47 95l219 -125zM323 -12q-138 0 -209.5 62t-71.5 214q0 295 265 295q224 0 224 -275v-48h-356q0 -83 44 -111.5t128 -28.5q63 0 148 23l21 -101q-90 -30 -193 -30zM178 325h216q1 63 -24.5 100.5t-73.5 37.5q-51 0 -82.5 -35.5t-35.5 -102.5z" />
    <glyph glyph-name="eacute" unicode="&#xe9;" horiz-adv-x="571" 
d="M225 608l-40 81l219 124l46 -94zM323 -12q-138 0 -209.5 62t-71.5 214q0 295 265 295q224 0 224 -275v-48h-356q0 -83 44 -111.5t128 -28.5q63 0 148 23l21 -101q-90 -30 -193 -30zM178 325h216q1 63 -24.5 100.5t-73.5 37.5q-51 0 -82.5 -35.5t-35.5 -102.5z" />
    <glyph glyph-name="ecircumflex" unicode="&#xea;" horiz-adv-x="571" 
d="M414 615l-125 87l-129 -87l-58 75l188 123l180 -123zM323 -12q-138 0 -209.5 62t-71.5 214q0 295 265 295q224 0 224 -275v-48h-356q0 -83 44 -111.5t128 -28.5q63 0 148 23l21 -101q-90 -30 -193 -30zM178 325h216q1 63 -24.5 100.5t-73.5 37.5q-51 0 -82.5 -35.5
t-35.5 -102.5z" />
    <glyph glyph-name="edieresis" unicode="&#xeb;" horiz-adv-x="571" 
d="M179 636l-79 80l79 80l79 -80zM405 636l-80 80l80 80l79 -80zM323 -12q-138 0 -209.5 62t-71.5 214q0 295 265 295q224 0 224 -275v-48h-356q0 -83 44 -111.5t128 -28.5q63 0 148 23l21 -101q-90 -30 -193 -30zM178 325h216q1 63 -24.5 100.5t-73.5 37.5
q-51 0 -82.5 -35.5t-35.5 -102.5z" />
    <glyph glyph-name="igrave" unicode="&#xec;" horiz-adv-x="281" 
d="M197 608l-225 111l47 95l219 -125zM74 0v546h134v-546h-134z" />
    <glyph glyph-name="iacute" unicode="&#xed;" horiz-adv-x="281" 
d="M73 608l-40 81l219 124l47 -94zM74 0v546h134v-546h-134z" />
    <glyph glyph-name="icircumflex" unicode="&#xee;" horiz-adv-x="281" 
d="M267 615l-126 87l-128 -87l-58 75l188 123l179 -123zM74 0v546h134v-546h-134z" />
    <glyph glyph-name="idieresis" unicode="&#xef;" horiz-adv-x="281" 
d="M31 636l-79 80l79 80l79 -80zM257 636l-80 80l80 80l79 -80zM74 0v546h134v-546h-134z" />
    <glyph glyph-name="ntilde" unicode="&#xf1;" horiz-adv-x="636" 
d="M378 638q-26 0 -66.5 19t-59.5 19q-37 0 -70 -27l-51 63q59 68 130 68q32 0 69.5 -18.5t53.5 -18.5q33 0 80 26l46 -62q-62 -69 -132 -69zM74 0v546h133v-58q96 72 183 72q48 0 82.5 -12t52.5 -30t28 -48.5t12.5 -57t2.5 -66.5v-346h-132v331q0 64 -18 88.5t-71 24.5
q-67 0 -140 -43v-401h-133z" />
    <glyph glyph-name="ograve" unicode="&#xf2;" horiz-adv-x="618" 
d="M385 608l-225 111l47 95l219 -125zM304 -12q-127 0 -196 74t-69 206q0 136 74.5 214t198.5 78q134 0 200 -74.5t66 -212.5q0 -137 -75.5 -211t-198.5 -74zM311 95q73 0 102 47.5t29 130.5q0 181 -133 181q-135 0 -135 -182q0 -177 137 -177z" />
    <glyph glyph-name="oacute" unicode="&#xf3;" horiz-adv-x="618" 
d="M227 608l-39 81l219 124l46 -94zM304 -12q-127 0 -196 74t-69 206q0 136 74.5 214t198.5 78q134 0 200 -74.5t66 -212.5q0 -137 -75.5 -211t-198.5 -74zM311 95q73 0 102 47.5t29 130.5q0 181 -133 181q-135 0 -135 -182q0 -177 137 -177z" />
    <glyph glyph-name="ocircumflex" unicode="&#xf4;" horiz-adv-x="618" 
d="M434 615l-125 87l-129 -87l-58 75l188 123l180 -123zM304 -12q-127 0 -196 74t-69 206q0 136 74.5 214t198.5 78q134 0 200 -74.5t66 -212.5q0 -137 -75.5 -211t-198.5 -74zM311 95q73 0 102 47.5t29 130.5q0 181 -133 181q-135 0 -135 -182q0 -177 137 -177z" />
    <glyph glyph-name="otilde" unicode="&#xf5;" horiz-adv-x="618" 
d="M364 638q-26 0 -67 19t-60 19q-37 0 -69 -27l-51 63q59 68 129 68q32 0 70 -18.5t53 -18.5q34 0 81 26l46 -62q-62 -69 -132 -69zM304 -12q-127 0 -196 74t-69 206q0 136 74.5 214t198.5 78q134 0 200 -74.5t66 -212.5q0 -137 -75.5 -211t-198.5 -74zM311 95
q73 0 102 47.5t29 130.5q0 181 -133 181q-135 0 -135 -182q0 -177 137 -177z" />
    <glyph glyph-name="odieresis" unicode="&#xf6;" horiz-adv-x="618" 
d="M198 636l-79 80l79 80l80 -80zM424 636l-79 80l79 80l79 -80zM304 -12q-127 0 -196 74t-69 206q0 136 74.5 214t198.5 78q134 0 200 -74.5t66 -212.5q0 -137 -75.5 -211t-198.5 -74zM311 95q73 0 102 47.5t29 130.5q0 181 -133 181q-135 0 -135 -182q0 -177 137 -177z
" />
    <glyph glyph-name="oslash" unicode="&#xf8;" horiz-adv-x="617" 
d="M304 -12q-106 0 -173 53l-63 -66l-44 43l64 69q-49 70 -49 181q0 136 74.5 214t198.5 78q110 0 174 -52l59 63l44 -43l-61 -64q50 -71 50 -191q0 -137 -75.5 -211t-198.5 -74zM311 95q73 0 102 47.5t29 130.5q0 52 -12 88l-214 -231q33 -35 95 -35zM174 272q0 -51 11 -85
l214 232q-33 35 -90 35q-135 0 -135 -182z" />
    <glyph glyph-name="ugrave" unicode="&#xf9;" horiz-adv-x="634" 
d="M372 608l-225 111l47 95l219 -125zM243 -12q-48 0 -81.5 12.5t-51.5 30.5t-27.5 49t-12 57t-2.5 66v343h132v-328q0 -63 17 -88t69 -25q71 0 142 43v398h132v-546h-132v59q-98 -71 -185 -71z" />
    <glyph glyph-name="uacute" unicode="&#xfa;" horiz-adv-x="634" 
d="M261 612l-40 80l219 124l46 -94zM243 -12q-48 0 -81.5 12.5t-51.5 30.5t-27.5 49t-12 57t-2.5 66v343h132v-328q0 -63 17 -88t69 -25q71 0 142 43v398h132v-546h-132v59q-98 -71 -185 -71z" />
    <glyph glyph-name="ucircumflex" unicode="&#xfb;" horiz-adv-x="634" 
d="M441 615l-125 87l-129 -87l-58 75l188 123l180 -123zM243 -12q-48 0 -81.5 12.5t-51.5 30.5t-27.5 49t-12 57t-2.5 66v343h132v-328q0 -63 17 -88t69 -25q71 0 142 43v398h132v-546h-132v59q-98 -71 -185 -71z" />
    <glyph glyph-name="udieresis" unicode="&#xfc;" horiz-adv-x="634" 
d="M204 636l-78 80l78 80l80 -80zM430 636l-79 80l79 80l80 -80zM243 -12q-48 0 -81.5 12.5t-51.5 30.5t-27.5 49t-12 57t-2.5 66v343h132v-328q0 -63 17 -88t69 -25q71 0 142 43v398h132v-546h-132v59q-98 -71 -185 -71z" />
    <glyph glyph-name="ydieresis" unicode="&#xff;" horiz-adv-x="567" 
d="M172 636l-79 80l79 80l80 -80zM398 636l-79 80l79 80l79 -80zM167 -220l74 220h-51l-184 546h144l103 -349l26 -92l29 91l119 350h135l-267 -766h-128z" />
    <glyph glyph-name="dotlessi" unicode="&#x131;" horiz-adv-x="281" 
d="M74 0v546h134v-546h-134z" />
    <glyph glyph-name="OE" unicode="&#x152;" horiz-adv-x="1099" 
d="M406 -12q-175 0 -268 98t-93 269q0 173 102 268t278 95q101 0 169 -38v27h438v-108h-301v-193h279v-102h-279v-196h324v-108h-461v33q-76 -45 -188 -45zM409 98q124 0 185 80v350q-61 80 -178 80q-116 0 -174 -69t-58 -183q0 -112 57 -185t168 -73z" />
    <glyph glyph-name="oe" unicode="&#x153;" horiz-adv-x="971" 
d="M304 -12q-127 0 -196 74t-69 206q0 136 74.5 214t198.5 78q134 0 197 -81q66 80 200 80q223 0 223 -275v-48h-357q1 -79 42 -109.5t125 -30.5q65 0 153 22l21 -105q-74 -23 -193 -23q-156 0 -220 80q-72 -82 -199 -82zM311 95q73 0 102 47.5t29 130.5q0 181 -133 181
q-135 0 -135 -182q0 -177 137 -177zM579 325h215q-1 64 -27 102t-72 38q-49 0 -80.5 -36.5t-35.5 -103.5z" />
    <glyph glyph-name="Ydieresis" unicode="&#x178;" horiz-adv-x="631" 
d="M203 741l-83 84l83 84l84 -84zM429 741l-84 84l84 84l83 -84zM245 0v243l-250 464h157l166 -348l177 348h152l-265 -461v-246h-137z" />
    <glyph glyph-name="florin" unicode="&#x192;" horiz-adv-x="479" 
d="M24 -48l-4 111q5 0 24.5 1t26 2t23 3t23 5t18.5 7.5t17.5 11.5t12 16t9.5 22t3 29v72h-103v109h104v56q1 112 71 158t197 46l9 -114q-82 -7 -104 -17q-41 -21 -42 -76v-53h116v-109h-117l-1 -75q-1 -104 -67.5 -154.5t-215.5 -50.5z" />
    <glyph glyph-name="uni0237" unicode="&#x237;" horiz-adv-x="281" 
d="M0 -225q-56 0 -106 22l24 105q37 -13 78 -13q43 0 60.5 25t17.5 81v551h133v-552q0 -65 -16 -109.5t-46.5 -67.5t-65 -32.5t-79.5 -9.5z" />
    <glyph glyph-name="circumflex" unicode="&#x2c6;" horiz-adv-x="550" 
d="M387 614l-125 88l-129 -88l-58 75l188 123l180 -123z" />
    <glyph glyph-name="dotaccent" unicode="&#x2d9;" horiz-adv-x="287" 
d="M143 621l-94 95l94 94l95 -94z" />
    <glyph glyph-name="ring" unicode="&#x2da;" horiz-adv-x="546" 
d="M275 597q-57 0 -96 27t-39 88q0 58 39.5 90t92.5 32q22 0 44 -6t43.5 -19t34.5 -37.5t13 -57.5q0 -57 -38 -87t-94 -30zM273 656q28 0 43.5 15t17.5 42q0 26 -17.5 41.5t-43.5 15.5q-61 0 -61 -55q0 -27 16.5 -43t44.5 -16z" />
    <glyph glyph-name="tilde" unicode="&#x2dc;" horiz-adv-x="550" 
d="M330 638q-26 0 -66.5 18.5t-59.5 18.5q-37 0 -70 -27l-51 64q62 68 130 68q32 0 69.5 -19t53.5 -19q34 0 80 27l46 -63q-64 -68 -132 -68z" />
    <glyph glyph-name="Ayb.arm" unicode="&#x531;" horiz-adv-x="814" 
d="M393 -13q-61 0 -114 14t-99 45.5t-72.5 89t-26.5 136.5v435h139v-429q0 -177 173 -177q174 0 174 199v407h134v-410q0 -90 -32 -156l143 -91l-62 -88l-143 96q-81 -71 -214 -71z" />
    <glyph glyph-name="Ben.arm" unicode="&#x532;" horiz-adv-x="762" 
d="M700 189h-484v-189h-135v413q0 83 26.5 144.5t72 95.5t97.5 49.5t112 15.5q62 0 114.5 -14.5t98 -46.5t72 -91.5t26.5 -140.5l-138 -6q0 186 -173 186t-173 -193v-113h484v-110z" />
    <glyph glyph-name="Gim.arm" unicode="&#x533;" horiz-adv-x="783" 
d="M328 718q142 0 226.5 -73t84.5 -228v-118h130v-109h-130v-190h-138v190h-185q-141 0 -212 66t-71 191q0 128 81.5 199.5t213.5 71.5zM169 456q0 -82 39 -119.5t118 -37.5h175v115q0 190 -173 190q-77 1 -118 -40t-41 -108z" />
    <glyph glyph-name="Da.arm" unicode="&#x534;" horiz-adv-x="792" 
d="M785 236h-137v-236h-139v419q0 186 -172 186q-174 0 -174 -193v-49h-135v53q0 83 26.5 144t72.5 94t98 48.5t112 15.5q61 0 113.5 -14.5t98.5 -46.5t72.5 -91.5t26.5 -140.5v-79h137v-110z" />
    <glyph glyph-name="Ech.arm" unicode="&#x535;" horiz-adv-x="756" 
d="M697 437h-478v-159q0 -91 46 -134t129 -43q161 0 172 167l131 -26q-8 -70 -37.5 -122t-73.5 -79.5t-91.5 -40.5t-100.5 -13q-62 0 -114.5 14t-99 45.5t-73 89t-26.5 136.5v435h138v-161h478v-109z" />
    <glyph glyph-name="Za.arm" unicode="&#x536;" horiz-adv-x="749" 
d="M168 -51h-113v253h113v-81l11 1q169 33 259 128q-42 -14 -82 -14q-121 0 -186 59t-65 165q0 115 73 186.5t196 71.5q133 0 206.5 -72t73.5 -187q0 -127 -77 -217.5t-204 -125.5l4 -5l166 9q81 6 133.5 -26t67.5 -100l-97 -46q-18 46 -47.5 59t-79.5 13h-352v-71zM391 319
q54 0 111 19q22 53 22 115q0 65 -37 112t-111 47q-72 0 -106.5 -42.5t-34.5 -98.5q0 -70 38 -111t118 -41z" />
    <glyph glyph-name="Eh.arm" unicode="&#x537;" horiz-adv-x="613" 
d="M554 437h-329v-328h124q82 0 131.5 -42t59.5 -113l-97 -45q-20 91 -124 91h-229v707h135v-161h329v-109z" />
    <glyph glyph-name="Et.arm" unicode="&#x538;" horiz-adv-x="772" 
d="M701 0h-620v416q0 67 18 119.5t47.5 86.5t70 56t83.5 31t90 9q61 0 113.5 -14.5t98.5 -46.5t72.5 -91.5t26.5 -140.5l-138 -6q0 186 -173 186q-174 0 -174 -193v-303h485v-109z" />
    <glyph glyph-name="To.arm" unicode="&#x539;" horiz-adv-x="973" 
d="M460 718q69 0 131 -15.5t116.5 -47.5t91 -89t44.5 -132h115v-100h-111v-67q0 -75 -21 -131t-58.5 -87.5t-83 -46.5t-99.5 -15q-105 0 -172 57t-67 160q0 102 65.5 166t205.5 64h87q-14 82 -76 126.5t-168 44.5q-121 0 -185 -55.5t-64 -159.5v-390h-135v393q0 70 21 126
t56.5 92.5t85 61t104.5 35t117 10.5zM581 100q57 0 92.5 33t35.5 104v97h-92q-64 0 -101.5 -29.5t-37.5 -86.5q0 -59 27 -88.5t76 -29.5z" />
    <glyph glyph-name="Zhe.arm" unicode="&#x53a;" horiz-adv-x="763" 
d="M323 -12q-123 0 -208.5 65.5t-85.5 189.5q0 130 81 204.5t241 74.5h138v185h138v-185h123v-110h-123v-132q0 -81 -26 -140.5t-71 -91t-96 -46t-111 -14.5zM163 257q0 -156 165 -156q82 0 121.5 44.5t39.5 140.5v126h-138q-188 0 -188 -155z" />
    <glyph glyph-name="Ini.arm" unicode="&#x53b;" horiz-adv-x="752" 
d="M229 707v-226q92 78 213 78q268 0 268 -289v-124h-138v119q0 95 -43 137.5t-128 42.5q-117 0 -172 -70v-375h-139v707h139z" />
    <glyph glyph-name="Liwn.arm" unicode="&#x53c;" horiz-adv-x="558" 
d="M90 0v707h137v-597h307v-110h-444z" />
    <glyph glyph-name="Xeh.arm" unicode="&#x53d;" horiz-adv-x="1045" 
d="M90 707h139v-161h323v-283q0 -85 38 -123t111 -38q81 0 115.5 43.5t34.5 141.5v259h131v-264q0 -82 -22 -141t-62.5 -91t-88.5 -46.5t-108 -14.5q-56 0 -103 12t-88.5 39t-65.5 77.5t-24 120.5v198h-191v-436h-139v707z" />
    <glyph glyph-name="Ca.arm" unicode="&#x53e;" horiz-adv-x="908" 
d="M660 567h-21q119 -78 119 -238q0 -68 -19.5 -127.5t-59 -108t-107 -77t-154.5 -28.5q-88 0 -153.5 27t-102.5 74.5t-54 104t-17 122.5q0 177 120 250q-33 -3 -42 -3q-73 0 -116 30t-70 90l90 71q30 -50 80 -69.5t136 -19.5h322q109 0 174 -18.5t91.5 -46.5t48.5 -80
l-91 -67q-50 108 -174 114zM619 330q0 105 -45 168.5t-136 67.5h-12q-100 0 -148.5 -64.5t-48.5 -170.5q0 -234 192 -234q47 0 83.5 15t57.5 38t34.5 55t18 62t4.5 63z" />
    <glyph glyph-name="Ken.arm" unicode="&#x53f;" horiz-adv-x="726" 
d="M333 160q-285 0 -285 257v290h132v-266q0 -171 170 -171q125 0 174 62v213h138v-545h-138v218q-76 -58 -191 -58z" />
    <glyph glyph-name="Ho.arm" unicode="&#x540;" horiz-adv-x="563" 
d="M529 0h-484l-27 68l254 399l-106 67q-62 37 -62 105q0 61 44 111l95 -49q-18 -25 -18 -45q0 -31 35 -55l180 -100l-250 -391h339v-110z" />
    <glyph glyph-name="Ja.arm" unicode="&#x541;" horiz-adv-x="755" 
d="M360 718q86 0 154 -28.5t113 -98t45 -174.5q0 -153 -77 -265q77 -43 144 -43l-18 -110q-96 0 -208 65q-101 -76 -245 -76q-109 0 -166 42t-57 116q0 71 55.5 117.5t149.5 46.5q64 0 119 -24t119 -67q45 79 45 192q0 104 -50 152t-123 48q-177 0 -177 -187l-132 10
q0 140 86.5 212t222.5 72zM266 82q88 0 151 45q-41 28 -61 41t-50.5 26t-54.5 13q-31 0 -53 -16.5t-22 -44.5q0 -33 25 -48.5t65 -15.5z" />
    <glyph glyph-name="Ghad.arm" unicode="&#x542;" horiz-adv-x="800" 
d="M807 0h-296v419q0 186 -173 186t-173 -193v-49h-135v52q0 84 26.5 145t72 94.5t97.5 48.5t112 15t112.5 -14.5t98.5 -46.5t73 -91.5t27 -140.5v-316h158v-109z" />
    <glyph glyph-name="Cheh.arm" unicode="&#x543;" horiz-adv-x="738" 
d="M733 0h-138l-40 80q-48 -41 -127 -66.5t-155 -25.5q-104 0 -166.5 64.5t-62.5 158.5t47.5 183t144.5 162q-64 37 -145 54l61 89q107 -19 192 -77q109 58 259 95l52 -100q-134 -27 -225 -70q69 -72 119 -170zM307 102q117 0 210 58l-79 161q-55 109 -117 168
q-146 -103 -146 -256q0 -63 37 -97t95 -34z" />
    <glyph glyph-name="Men.arm" unicode="&#x544;" horiz-adv-x="849" 
d="M857 598h-156v-301q0 -86 -27 -149t-72.5 -96.5t-97 -49t-110.5 -15.5q-62 0 -114.5 14t-99 45.5t-73 89t-26.5 136.5v435h139v-429q0 -177 174 -177q172 0 172 199v407h291v-109z" />
    <glyph glyph-name="Yi.arm" unicode="&#x545;" horiz-adv-x="726" 
d="M363 -12q-82 0 -140.5 13.5t-105.5 53t-68 106.5l121 40q18 -51 71.5 -76t121.5 -25q84 0 128.5 31.5t44.5 85.5q0 52 -30.5 76t-98.5 24h-356v105h345q66 1 93.5 23.5t27.5 68.5q0 49 -41.5 72.5t-111.5 23.5q-77 0 -116 -20.5t-60 -66.5l-124 22q49 173 300 173
q124 0 202 -46.5t78 -149.5q0 -98 -85 -142q116 -37 116 -148q0 -53 -18.5 -95.5t-49 -70t-71.5 -45.5t-84 -25.5t-89 -7.5z" />
    <glyph glyph-name="Now.arm" unicode="&#x546;" horiz-adv-x="776" 
d="M441 -13q-61 0 -113.5 14t-98.5 45.5t-72.5 89t-26.5 136.5v326h-145v109h283v-429q0 -91 45.5 -134.5t127.5 -43.5q79 0 125.5 41t46.5 128v48h132v-72q0 -71 -28 -124t-74.5 -80.5t-96.5 -40.5t-105 -13z" />
    <glyph glyph-name="Sha.arm" unicode="&#x547;" horiz-adv-x="726" 
d="M658 496l-232 44q-97 -12 -171 -76.5t-74 -171.5q0 -95 50 -143t126 -48q82 0 132 44t60 128l124 -26q-6 -69 -34 -120t-72 -80.5t-96 -43.5t-114 -14q-46 0 -87 8t-83.5 29t-73 53.5t-49.5 87t-19 124.5q0 99 58.5 171.5t157.5 108.5l-177 34l19 111l570 -116z" />
    <glyph glyph-name="Vo.arm" unicode="&#x548;" horiz-adv-x="790" 
d="M389 718q61 0 113.5 -14.5t98.5 -46.5t72.5 -91t26.5 -141v-425h-138v419q0 186 -173 186q-81 0 -127 -48t-46 -149v-408h-135v413q0 83 26.5 144.5t72 95t97.5 49.5t112 16z" />
    <glyph glyph-name="Cha.arm" unicode="&#x549;" horiz-adv-x="720" 
d="M561 -40l-527 183l40 105l215 -77q40 10 78 27.5t77.5 46t64 72.5t24.5 97q0 98 -48.5 144.5t-124.5 46.5q-84 0 -128.5 -45t-45.5 -153l-134 23q2 144 90 216t218 72q47 0 88.5 -8t83.5 -29t72 -54t48.5 -87.5t18.5 -124.5q0 -200 -262 -287l188 -68z" />
    <glyph glyph-name="Peh.arm" unicode="&#x54a;" horiz-adv-x="882" 
d="M354 153v446q-90 -13 -137.5 -66t-47.5 -142v-91h-135v93q0 88 35 153.5t93 101.5t123 53t136 17q61 0 114.5 -10t104.5 -33.5t87 -60t58 -93t22 -128.5v-393h-135v390q0 89 -47 142t-136 67v-446h-135z" />
    <glyph glyph-name="Jheh.arm" unicode="&#x54b;" horiz-adv-x="748" 
d="M161 -51h-113v253h113v-80q83 14 151 48q5 32 -4.5 55.5t-28 39t-42.5 29.5t-48.5 30t-45.5 36t-34 52.5t-13 75.5q0 99 74.5 164.5t196.5 65.5q133 0 204.5 -71.5t71.5 -185.5q0 -117 -77 -211t-202 -132l5 -7l167 9q81 6 133.5 -26t67.5 -100l-97 -46q-18 46 -47.5 59
t-79.5 13h-352v-71zM402 224l5 -2q110 88 110 231q0 64 -39 110t-113 46q-71 0 -104.5 -34t-33.5 -86q0 -35 20.5 -63t49 -47t55.5 -39t42 -49t8 -67z" />
    <glyph glyph-name="Ra.arm" unicode="&#x54c;" horiz-adv-x="847" 
d="M389 718q61 0 113.5 -14.5t98.5 -46.5t72.5 -91t26.5 -141v-79h140v-100h-140v-246h-138v419q0 186 -173 186q-81 0 -127 -48t-46 -149v-408h-135v413q0 83 26.5 144.5t72 95t97.5 49.5t112 16z" />
    <glyph glyph-name="Seh.arm" unicode="&#x54d;" horiz-adv-x="789" 
d="M393 -13q-62 0 -114.5 14t-98.5 45.5t-72.5 89t-26.5 136.5v435h138v-429q0 -177 174 -177q173 0 173 199v407h134v-410q0 -86 -27 -149t-72.5 -96.5t-97 -49t-110.5 -15.5z" />
    <glyph glyph-name="Vew.arm" unicode="&#x54e;" horiz-adv-x="802" 
d="M332 160q-61 0 -111.5 12.5t-93 40.5t-66 80t-23.5 124v129h132v-105q0 -92 44.5 -130t125.5 -38q59 0 107.5 18t67.5 56v360h138v-598h151v-109h-289v217q-73 -57 -183 -57z" />
    <glyph glyph-name="Tiwn.arm" unicode="&#x54f;" horiz-adv-x="665" 
d="M331 718q80 0 146.5 -31.5t101.5 -87.5l-82 -69q-63 77 -166 77q-61 0 -95.5 -22t-34.5 -59q0 -34 31.5 -56.5t78 -33.5t101.5 -27.5t101.5 -36.5t77.5 -62.5t31 -103.5q0 -89 -85.5 -153.5t-209.5 -64.5q-203 0 -296 129l79 84q78 -99 213 -99q73 0 117.5 28.5
t44.5 73.5q0 33 -23 55t-59.5 34.5t-80.5 22.5t-88 24t-80.5 35t-59.5 60t-23 93q0 76 69.5 133t190.5 57z" />
    <glyph glyph-name="Reh.arm" unicode="&#x550;" horiz-adv-x="740" 
d="M393 718q46 0 88 -9t83 -31t70.5 -56.5t48 -89t18.5 -124.5v-47h-134v44q0 200 -174 200q-82 0 -128 -44.5t-46 -135.5v-425h-138v430q0 79 26.5 137t72.5 90t99 46.5t114 14.5z" />
    <glyph glyph-name="Co.arm" unicode="&#x551;" horiz-adv-x="704" 
d="M96 524q0 101 69 147.5t174 46.5t174 -47t69 -148q0 -74 -68 -119q143 -39 143 -182q0 -53 -19.5 -94.5t-50.5 -67.5t-73.5 -42.5t-85.5 -23t-90 -6.5q-235 0 -309 137l103 69q59 -94 206 -94q85 0 132.5 32t47.5 90q0 109 -180 109q-128 0 -192 -57l-86 76q37 36 102 53
q-66 45 -66 121zM220 523q0 -50 31.5 -74.5t87.5 -24.5h4q53 2 84 26.5t31 72.5q0 52 -32 78.5t-87 26.5t-87 -27t-32 -78z" />
    <glyph glyph-name="Yiwn.arm" unicode="&#x552;" horiz-adv-x="666" 
d="M90 707h139v-169q51 18 101 18q58 0 96.5 -17.5t56 -48t26.5 -60.5t16 -65t16 -51q16 -31 43 -43.5t74 -12.5l-11 -116q-25 -6 -54 -6q-83 0 -130 58q-24 31 -37 80t-18 84.5t-27.5 62t-66.5 26.5q-41 0 -85 -12v-435h-139v707z" />
    <glyph glyph-name="Piwr.arm" unicode="&#x553;" horiz-adv-x="836" 
d="M351 0v71q-141 0 -228.5 73.5t-87.5 214.5t87.5 214.5t228.5 73.5v69h135v-69q141 0 228.5 -73.5t87.5 -214.5t-87.5 -214.5t-228.5 -73.5v-71h-135zM486 172q83 0 131 49t48 138q0 91 -48 139t-131 48v-374zM351 172v374q-84 0 -132 -48t-48 -139q0 -89 48 -138t132 -49
z" />
    <glyph glyph-name="Keh.arm" unicode="&#x554;" horiz-adv-x="741" 
d="M679 94h-420v-94h-132v94h-121v95h121l1 291q1 103 73.5 170.5t202.5 67.5q131 0 203.5 -64t72.5 -178q0 -107 -78 -163t-207 -56q-59 0 -135 19v-87h419v-95zM260 474v-100q76 -19 133 -20q81 0 117 37t36 91q0 52 -34.5 91.5t-108.5 38.5q-71 -1 -107 -39.5t-36 -98.5z
" />
    <glyph glyph-name="Oh.arm" unicode="&#x555;" horiz-adv-x="846" 
d="M406 -12q-175 0 -268 98t-93 269q0 166 103 264.5t277 98.5q177 0 268 -100t91 -265q0 -169 -99 -267t-279 -98zM409 97q120 0 178 70.5t58 186.5q0 115 -58.5 185t-170.5 70q-116 0 -174.5 -69.5t-58.5 -183.5q0 -113 57 -186t169 -73z" />
    <glyph glyph-name="Feh.arm" unicode="&#x556;" horiz-adv-x="788" 
d="M471 694v-259q295 -16 295 -217q0 -117 -100 -173.5t-263 -56.5q-130 0 -228 38.5t-154 100.5l73 90q91 -97 243 -115v231q-264 16 -264 201q0 91 69.5 137.5t178.5 46.5q83 0 150 -24zM631 212q0 107 -160 117v-231q73 6 116.5 34.5t43.5 79.5zM202 536q-1 -44 30.5 -68
t104.5 -29v181h-22q-54 0 -83.5 -22.5t-29.5 -61.5z" />
    <glyph glyph-name="ringhalfleft.arm" unicode="&#x559;" horiz-adv-x="218" 
d="M178 510h-84q-55 74 -55 168v76h109v-114q0 -71 30 -130z" />
    <glyph glyph-name="apostrophe.arm" unicode="&#x55a;" horiz-adv-x="218" 
d="M40 510q31 58 31 130v114h108v-76q0 -95 -54 -168h-85z" />
    <glyph glyph-name="emphasismark.arm" unicode="&#x55b;" horiz-adv-x="0" 
d="M-270 731l-59 68l179 173l73 -83z" />
    <glyph glyph-name="exclam.arm" unicode="&#x55c;" horiz-adv-x="0" 
d="M-248 921q17 8 38 8q12 0 34 -3t33 -3q20 0 32 6q28 15 46 58l61 -31q-17 -83 -82 -111q-20 -8 -45 -8q-10 0 -29 2t-28 2q-18 0 -33 -6q-18 -7 -30 -19.5t-31 -40.5l-55 35q6 30 28 62.5t61 48.5z" />
    <glyph glyph-name="comma.arm" unicode="&#x55d;" horiz-adv-x="230" 
d="M202 598l-75 -53l-156 194l91 65z" />
    <glyph glyph-name="question.arm" unicode="&#x55e;" horiz-adv-x="0" 
d="M-167 883q-80 0 -137 -125l-56 44q32 80 84 121t115 41q62 0 94.5 -29.5t32.5 -75.5q0 -45 -34 -71t-87 -28l-10 46q50 6 50 38q0 39 -52 39z" />
    <glyph glyph-name="abbreviationmark.arm" unicode="&#x55f;" horiz-adv-x="408" 
d="M355 551h-176q-49 0 -83 14t-48.5 36.5t-20 42t-5.5 39.5q0 23 6.5 43.5t24.5 43t57.5 36t97.5 13.5v-70l-25 -2q-74 -6 -74 -60q0 -63 77 -63h169v-73z" />
    <glyph glyph-name="ayb.arm" unicode="&#x561;" horiz-adv-x="994" 
d="M604 -12q-127 0 -159 85q-113 -85 -202 -85q-48 0 -81.5 12.5t-51.5 30.5t-28 48.5t-12.5 57t-2.5 66.5v319h133v-304q0 -63 16.5 -88t68.5 -25q65 0 144 44q-2 7 -2 68v305h134v-304q0 -63 16.5 -88t68.5 -25q62 0 142 43v374h133v-522h-133v59q-98 -71 -184 -71z" />
    <glyph glyph-name="ben.arm" unicode="&#x562;" horiz-adv-x="623" 
d="M567 0h-360v-220h-134v742h134v-58q97 72 182 72q49 0 83 -12t52.5 -30t28 -49t12 -56.5t2.5 -66.5v-82h-132v67q0 65 -17.5 89t-70.5 24q-61 0 -140 -43v-269h360v-108z" />
    <glyph glyph-name="gim.arm" unicode="&#x563;" horiz-adv-x="667" 
d="M674 0h-132v-220h-133v256q-21 -18 -57 -31.5t-73 -13.5q-46 0 -85 12t-75.5 40.5t-57.5 84.5t-21 134q0 134 79.5 204t203.5 70q115 0 219 -29v-400h132v-107zM303 103q58 0 106 34v282q-50 10 -84 10q-152 0 -152 -170q0 -156 130 -156z" />
    <glyph glyph-name="da.arm" unicode="&#x564;" horiz-adv-x="700" 
d="M706 0h-138v-220h-132v527q0 64 -17.5 88.5t-70.5 24.5q-60 0 -141 -43v-377h-133v522h133v-58q99 72 183 72q48 0 82.5 -12t52.5 -30t28 -48.5t12.5 -57t2.5 -66.5v-215h138v-107z" />
    <glyph glyph-name="ech.arm" unicode="&#x565;" horiz-adv-x="622" 
d="M560 414h-360v-196q0 -63 16.5 -88t68.5 -25q62 0 142 43v132h133v-280h-133v59q-98 -71 -184 -71q-48 0 -81.5 12.5t-51.5 30.5t-28 48.5t-12.5 57t-2.5 66.5v551h133v-232h360v-108z" />
    <glyph glyph-name="za.arm" unicode="&#x566;" horiz-adv-x="626" 
d="M675 -220h-266v256q-21 -18 -57 -31.5t-73 -13.5q-46 0 -85 12t-75.5 40.5t-57.5 84.5t-21 134q0 134 79.5 204t203.5 70q115 0 219 -29v-621h133v-106zM303 103q58 0 106 34v282q-50 10 -84 10q-152 0 -152 -170q0 -156 130 -156z" />
    <glyph glyph-name="eh.arm" unicode="&#x567;" horiz-adv-x="541" 
d="M507 414h-300v-306h123q81 0 116 -34t40 -110l-110 -34q-2 19 -4.5 29.5t-10 21t-23 15t-40.5 4.5h-225v754h134v-232h300v-108z" />
    <glyph glyph-name="et.arm" unicode="&#x568;" 
d="M74 -220v742h133v-58q99 72 183 72q48 0 82.5 -12t52.5 -30t28 -48.5t12.5 -57t2.5 -66.5v-322h-132v307q0 64 -17.5 88.5t-70.5 24.5q-60 0 -141 -43v-491h362v-106h-495z" />
    <glyph glyph-name="to.arm" unicode="&#x569;" horiz-adv-x="726" 
d="M393 536q239 0 256 -225h78v-90h-80q-13 -119 -72.5 -176.5t-136.5 -57.5q-82 0 -127.5 44t-45.5 116q0 79 49.5 121.5t130.5 42.5h81q-23 117 -166 117q-65 0 -153 -44v-604h-133v742h133v-52q93 66 186 66zM438 78q86 0 94 148h-77q-43 0 -64 -21t-21 -57q0 -30 19 -50
t49 -20z" />
    <glyph glyph-name="zhe.arm" unicode="&#x56a;" horiz-adv-x="667" 
d="M567 522h105l1 -108h-106v-146q0 -60 -11 -106.5t-37.5 -88t-78.5 -64t-127 -22.5q-263 0 -263 265q0 73 25 127t69 84.5t98 44.5t120 14h69v232h136v-232zM185 260q0 -167 129 -167q72 0 94.5 40.5t22.5 127.5v153h-61q-102 0 -143.5 -34.5t-41.5 -119.5z" />
    <glyph glyph-name="ini.arm" unicode="&#x56b;" 
d="M74 -220v974h133v-290q99 72 183 72q48 0 82.5 -12t52.5 -30t28 -48.5t12.5 -57t2.5 -66.5v-322h-132v307q0 64 -17.5 88.5t-70.5 24.5q-60 0 -141 -43v-597h-133z" />
    <glyph glyph-name="liwn.arm" unicode="&#x56c;" horiz-adv-x="328" 
d="M74 -220v742h134v-636h136v-106h-270z" />
    <glyph glyph-name="xeh.arm" unicode="&#x56d;" horiz-adv-x="916" 
d="M74 -220v974h133v-232h276v-304q0 -63 16.5 -88t68.5 -25q62 0 142 43v374h132v-522h-132v59q-101 -71 -184 -71q-48 0 -81.5 12.5t-52 30.5t-28 49t-12 57t-2.5 66v211h-143v-634h-133z" />
    <glyph glyph-name="ca.arm" unicode="&#x56e;" horiz-adv-x="661" 
d="M153 601l2 4l85 167l104 -50l-42 -84q95 -53 155 -116h178l1 -104h-105q38 -74 38 -150q0 -42 -7.5 -80.5t-27 -75.5t-49.5 -63.5t-77 -43t-106 -16.5q-264 0 -264 269q0 61 22.5 108.5t61.5 76.5t84.5 45t97.5 20q-54 44 -151 93zM173 259q0 -77 29 -120.5t101 -43.5
t100.5 43.5t28.5 127.5q0 81 -47 152h-14q-198 0 -198 -159z" />
    <glyph glyph-name="ken.arm" unicode="&#x56f;" horiz-adv-x="634" 
d="M243 -12q-48 0 -81.5 12.5t-51.5 30.5t-28 48.5t-12.5 57t-2.5 66.5v551h133v-536q0 -63 16.5 -88t68.5 -25q62 0 142 43v374h133v-742h-133v279q-98 -71 -184 -71z" />
    <glyph glyph-name="ho.arm" unicode="&#x570;" 
d="M74 0v754h133v-290q99 72 183 72q48 0 82.5 -12t52.5 -30t28 -48.5t12.5 -57t2.5 -66.5v-322h-132v307q0 64 -17.5 88.5t-70.5 24.5q-60 0 -141 -43v-377h-133z" />
    <glyph glyph-name="ja.arm" unicode="&#x571;" horiz-adv-x="599" 
d="M619 0h-138l-32 54q-100 -66 -214 -66q-93 0 -147.5 54.5t-54.5 137.5q0 77 51.5 151.5t162.5 170.5l-23 19q-57 48 -57 114q0 54 44 102l31 33l91 -74l-18 -20q-16 -19 -16 -41q0 -11 5.5 -21.5t11.5 -17.5t21 -23l64 -66l-56 -50zM261 101q69 0 140 36l-138 237
q-89 -97 -89 -175q0 -50 24.5 -74t62.5 -24z" />
    <glyph glyph-name="ghad.arm" unicode="&#x572;" horiz-adv-x="649" 
d="M686 -220h-250v527q0 64 -17.5 88.5t-70.5 24.5q-60 0 -141 -43v-377h-133v522h133v-58q99 72 183 72q48 0 82.5 -12t52.5 -30t28 -48.5t12.5 -57t2.5 -66.5v-436h118v-106z" />
    <glyph glyph-name="cheh.arm" unicode="&#x573;" horiz-adv-x="658" 
d="M658 0h-136l-34 72q-107 -84 -242 -84q-86 0 -137 52t-51 142q0 123 61 261q-19 3 -61 7l27 103q49 -2 85 -7q13 21 43 65q54 73 122 112t166 39q28 0 68 -5l-8 -116q-31 4 -64 4q-115 0 -177 -81q-26 -37 -30 -43q143 -49 200 -173zM276 101q89 0 174 54l-39 87
q-31 73 -71.5 114.5t-102.5 62.5q-48 -108 -48 -211q0 -107 87 -107z" />
    <glyph glyph-name="men.arm" unicode="&#x574;" horiz-adv-x="701" 
d="M243 -12q-48 0 -81.5 12.5t-51.5 30.5t-28 48.5t-12.5 57t-2.5 66.5v319h133v-304q0 -63 16.5 -88t68.5 -25q62 0 142 43v439q0 83 37.5 128t126.5 45q77 0 138 -29l-38 -102q-48 17 -78 17q-28 0 -40.5 -15.5t-12.5 -37.5v-593h-133v59q-98 -71 -184 -71z" />
    <glyph glyph-name="yi.arm" unicode="&#x575;" horiz-adv-x="318" 
d="M245 522v-549q0 -109 -48 -151t-136 -42q-61 0 -121 24l25 102q43 -13 90 -13q32 0 44.5 15.5t13.5 56.5v557h132z" />
    <glyph glyph-name="now.arm" unicode="&#x576;" horiz-adv-x="693" 
d="M487 522h132v-522h-132v59q-101 -71 -185 -71q-48 0 -81.5 12.5t-51.5 30.5t-28 48.5t-12.5 57t-2.5 66.5v383h-29q-68 0 -100.5 28t-34.5 86q0 20 1 31l105 23q0 -44 21 -59.5t64 -15.5h106v-461q0 -60 17 -86.5t68 -26.5q60 0 143 43v374z" />
    <glyph glyph-name="sha.arm" unicode="&#x577;" horiz-adv-x="510" 
d="M248 -114h226v-106h-247q-98 0 -142 33.5t-44 102.5q0 39 18.5 72t56.5 77l118 137q47 56 65 84.5t18 58.5q0 32 -25 54t-70 22q-38 0 -68.5 -11.5t-69.5 -41.5l-55 83q52 44 105 64.5t126 20.5q98 0 153 -53t55 -127q0 -81 -100 -190l-128 -142q-30 -33 -42 -52.5
t-12 -41.5q0 -44 62 -44z" />
    <glyph glyph-name="vo.arm" unicode="&#x578;" 
d="M74 0v522h133v-58q99 72 183 72q48 0 82.5 -12t52.5 -30t28 -48.5t12.5 -57t2.5 -66.5v-322h-132v307q0 64 -17.5 88.5t-70.5 24.5q-60 0 -141 -43v-377h-133z" />
    <glyph glyph-name="cha.arm" unicode="&#x579;" horiz-adv-x="439" 
d="M218 -114h198v-106h-230q-80 0 -120.5 40t-40.5 98q0 57 40 112l153 209l-31 22q-38 24 -58 59t-20 73q0 58 46 110l46 52l89 -74l-28 -34q-22 -25 -22 -53q0 -38 37 -69l100 -83l-185 -247q-29 -40 -29 -68q0 -41 55 -41z" />
    <glyph glyph-name="peh.arm" unicode="&#x57a;" horiz-adv-x="994" 
d="M921 -220h-133v279q-98 -71 -184 -71q-126 0 -159 84q-108 -84 -202 -84q-48 0 -81.5 12.5t-51.5 30.5t-28 48.5t-12.5 57t-2.5 66.5v319h133v-304q0 -63 16.5 -88t68.5 -25q65 0 144 44q-2 7 -2 75v298h134v-304q0 -63 16.5 -88t68.5 -25q62 0 142 43v374h133v-742z" />
    <glyph glyph-name="jheh.arm" unicode="&#x57b;" horiz-adv-x="569" 
d="M170 121q-6 18 -27.5 39.5t-43 39t-39 50t-17.5 71.5q0 88 69.5 152t179.5 64q111 0 175.5 -55.5t64.5 -140.5q-1 -96 -95 -190q-23 -28 -79.5 -69t-94.5 -63q-90 -55 -90 -91q0 -42 99 -42h255v-106h-327q-157 0 -157 128q0 61 59 117q28 28 66 54q10 24 2 42zM323 193
q40 35 59 65t19 64q0 52 -33 78.5t-83 26.5q-49 0 -82 -27.5t-33 -77.5q0 -31 19 -57t40.5 -50t25.5 -46q4 -16 1 -30q47 34 67 54z" />
    <glyph glyph-name="ra.arm" unicode="&#x57c;" horiz-adv-x="639" 
d="M585 0h-254v88q33 41 53 70.5t38.5 74t18.5 85.5q0 104 -93 104q-60 0 -141 -45v-377h-133v522h133v-58q91 72 186 72q97 0 140.5 -45.5t42.5 -136.5q0 -127 -104 -246h113v-108z" />
    <glyph glyph-name="seh.arm" unicode="&#x57d;" horiz-adv-x="633" 
d="M243 -12q-48 0 -81.5 12.5t-51.5 30.5t-28 48.5t-12.5 57t-2.5 66.5v319h133v-304q0 -63 16.5 -88t68.5 -25q62 0 142 43v374h133v-522h-133v59q-98 -71 -184 -71z" />
    <glyph glyph-name="vew.arm" unicode="&#x57e;" horiz-adv-x="662" 
d="M696 -220h-269v279q-98 -71 -184 -71q-48 0 -81.5 12.5t-51.5 30.5t-28 48.5t-12.5 57t-2.5 66.5v319h133v-304q0 -63 16.5 -88t68.5 -25q62 0 142 43v606h133v-867h136v-107z" />
    <glyph glyph-name="tiwn.arm" unicode="&#x57f;" horiz-adv-x="988" 
d="M921 0h-133v307q0 65 -17.5 89t-70.5 24q-61 0 -140 -43v-377h-133v59q-98 -71 -184 -71q-48 0 -81.5 12.5t-51.5 30.5t-28 48.5t-12.5 57t-2.5 66.5v319h133v-304q0 -63 16.5 -88t68.5 -25q62 0 142 43v374h133v-58q97 72 183 72q48 0 82.5 -12t52.5 -30t28 -48.5
t12.5 -57t2.5 -66.5v-322z" />
    <glyph glyph-name="reh.arm" unicode="&#x580;" 
d="M74 -220v742h133v-58q99 72 183 72q48 0 82.5 -12t52.5 -30t28 -48.5t12.5 -57t2.5 -66.5v-322h-132v307q0 64 -17.5 88.5t-70.5 24.5q-60 0 -141 -43v-597h-133z" />
    <glyph glyph-name="co.arm" unicode="&#x581;" horiz-adv-x="616" 
d="M293 -243q-112 0 -208 30l21 107q112 -22 166 -22q73 0 107 21t34 88v43q-20 -16 -51 -26t-58 -10q-41 0 -75 5.5t-69.5 23t-59.5 46t-39.5 77t-15.5 113.5q0 136 81 209t205 73q87 0 214 -25v-544q0 -104 -73.5 -156.5t-178.5 -52.5zM318 92q39 0 94 24v298
q-46 11 -82 11q-153 0 -153 -173q0 -86 36 -123t105 -37z" />
    <glyph glyph-name="yiwn.arm" unicode="&#x582;" horiz-adv-x="351" 
d="M78 0v522h133v-414h136v-108h-269z" />
    <glyph glyph-name="piwr.arm" unicode="&#x583;" horiz-adv-x="988" 
d="M921 0h-133v307q0 65 -17.5 89t-70.5 24q-61 0 -140 -43v-597h-133v279q-98 -71 -184 -71q-48 0 -81.5 12.5t-51.5 30.5t-28 48.5t-12.5 57t-2.5 66.5v319h133v-304q0 -63 16.5 -88t68.5 -25q62 0 142 43v606h133v-290q97 72 183 72q48 0 82.5 -12t52.5 -30t28 -48.5
t12.5 -57t2.5 -66.5v-322z" />
    <glyph glyph-name="keh.arm" unicode="&#x584;" horiz-adv-x="629" 
d="M581 -155h-367v-81h-133v81h-79v86h79v591h133v-41q23 21 62.5 38t76.5 17q234 0 234 -257q0 -284 -289 -284q-29 0 -84 5v-69h367v-86zM301 94q73 0 112 45.5t39 128.5q0 81 -31 118.5t-105 37.5q-39 0 -102 -30v-292q76 -8 87 -8z" />
    <glyph glyph-name="oh.arm" unicode="&#x585;" horiz-adv-x="619" 
d="M304 -12q-127 0 -196 69.5t-69 199.5q0 135 74 208.5t199 73.5q266 0 266 -277q0 -136 -75 -205t-199 -69zM311 95q74 0 102.5 42.5t28.5 124.5q0 79 -29 124.5t-104 45.5q-135 0 -135 -171q0 -81 31.5 -123.5t105.5 -42.5z" />
    <glyph glyph-name="feh.arm" unicode="&#x586;" horiz-adv-x="742" 
d="M434 736v-272q274 -17 274 -236q0 -113 -75 -172t-199 -70v-206h-134v206q-188 12 -275 107l63 97q70 -74 212 -87v262q-120 10 -182.5 63.5t-62.5 139.5q0 88 67.5 140.5t164.5 52.5q75 0 147 -25zM576 223q0 122 -142 136v-258q71 8 106.5 40.5t35.5 81.5zM176 570
q0 -45 29 -69.5t95 -30.5v192h-22q-47 0 -74.5 -26.5t-27.5 -65.5z" />
    <glyph glyph-name="echyiwn.arm" unicode="&#x587;" horiz-adv-x="691" 
d="M679 0h-252v70q-95 -82 -184 -82q-48 0 -81.5 12.5t-51.5 30.5t-28 48.5t-12.5 57t-2.5 66.5v551h133v-536q0 -63 16.5 -88t68.5 -25q61 0 142 53v364h133v-414h119v-108z" />
    <glyph glyph-name="period.arm" unicode="&#x589;" horiz-adv-x="318" 
d="M84 0v135h150v-135h-150zM84 364v135h150v-135h-150z" />
    <glyph glyph-name="hyphen.arm" unicode="&#x58a;" horiz-adv-x="602" 
d="M81 239v95h440v-95h-440z" />
    <glyph glyph-name="Dram.arm" unicode="&#x58c;" horiz-adv-x="826" 
d="M795 148h-137v-148h-137v148h-106v88h106v87h-106v88h106v17q-4 177 -174 177q-173 0 -173 -192v-51l-135 6v49q0 83 26.5 144t72 94t97.5 48t112 15t112.5 -14.5t98.5 -46.5t73 -91.5t27 -140.5v-14h137v-88h-137v-87h137v-88z" />
    <glyph glyph-name="eternity.arm" unicode="&#x58d;" horiz-adv-x="651" 
d="M544 476q-24 6 -45 6q-53 0 -98 -34.5t-64 -119.5q77 97 159 97q67 0 107 -54q22 -31 22 -68q0 -42 -29 -80q-14 39 -49.5 71.5t-93.5 32.5q-45 0 -95 -21q59 0 101.5 -14t63 -37.5t29 -47t8.5 -48.5q0 -15 -4 -33q-11 -40 -43 -63t-76 -24q24 38 24 85q0 92 -110 152
q64 -79 64 -146q0 -45 -25 -76.5t-55 -44.5q-23 -10 -47 -10q-56 0 -95 48q49 6 92.5 44t43.5 115q0 24 -6 54q-20 -92 -62 -130t-92 -38q-35 0 -63 15q-63 33 -63 104q0 15 3 30q47 -45 107 -45q74 0 139 77q-68 -34 -121 -34q-59 0 -92 34.5t-41 72.5q-9 40 9 75.5
t57 55.5q-2 -25 4.5 -50.5t23.5 -54t56 -47t96 -20.5q-133 61 -133 158q0 51 30 87q35 43 89 43q27 0 54 -12q-68 -47 -68 -125q0 -61 49 -125q-11 44 -11 83q0 44 14.5 76t37.5 47.5t44 22.5t40 7q41 0 72 -25t42 -66z" />
    <glyph glyph-name="index.arm" unicode="&#x58e;" horiz-adv-x="904" 
d="M516 0h-484l-27 68l254 399l-105 67q-63 37 -63 105q0 59 44 111l95 -49q-18 -28 -18 -45q0 -30 36 -55l180 -100l-251 -391h339v-110zM630 334q-62 0 -83 33t-21 92v172h85v-166q0 -32 10 -44t36 -12q31 0 70 21v230q0 47 25.5 74t76.5 27q42 0 79 -16l-23 -61
q-24 9 -43 9q-29 0 -29 -30v-322h-86v31q-52 -38 -97 -38zM528 223v69h299v-69h-299z" />
    <glyph glyph-name="Pomergranate.arm" unicode="&#x58f;" horiz-adv-x="579" 
d="M290 -12l-20 3q-1 0 -28.5 6.5t-51.5 6.5q-51 0 -100.5 45.5t-49.5 114.5v130q0 68 46.5 111t114.5 61q-1 1 -1 3q-21 56 -101 60q35 35 100 35q22 0 43 -13q6 21 13 38q5 15 13.5 31.5t13.5 25.5l6 9q25 -33 37 -66l13 -38q20 13 43 13q65 0 100 -35q-80 -4 -101 -60
l-1 -2q69 -19 115 -61.5t46 -111.5v-130q0 -69 -49.5 -114.5t-100.5 -45.5q-24 0 -51.5 -6.5t-28.5 -6.5z" />
    <glyph glyph-name="endash" unicode="&#x2013;" horiz-adv-x="581" 
d="M54 239v95h472v-95h-472z" />
    <glyph glyph-name="emdash" unicode="&#x2014;" horiz-adv-x="906" 
d="M54 239v95h798v-95h-798z" />
    <glyph glyph-name="quoteleft" unicode="&#x2018;" horiz-adv-x="220" 
d="M53 511v76q0 95 54 168h85q-30 -56 -30 -129v-115h-109z" />
    <glyph glyph-name="quoteright" unicode="&#x2019;" horiz-adv-x="221" 
d="M42 511q30 59 30 130v114h108v-76q0 -95 -54 -168h-84z" />
    <glyph glyph-name="quotedblleft" unicode="&#x201c;" horiz-adv-x="400" 
d="M53 511v76q0 95 54 168h85q-30 -59 -30 -129v-115h-109zM232 511v76q0 94 55 168h85q-30 -56 -30 -129v-115h-110z" />
    <glyph glyph-name="quotedblright" unicode="&#x201d;" horiz-adv-x="401" 
d="M42 511q30 59 30 130v114h109v-76q0 -95 -54 -168h-85zM221 511q31 58 31 130v114h109v-76q0 -94 -55 -168h-85z" />
    <glyph glyph-name="dagger" unicode="&#x2020;" horiz-adv-x="529" 
d="M196 0l8 482l-169 -8v121l168 -8l-9 167h141l-9 -167l168 8v-121l-169 8l9 -482h-138z" />
    <glyph glyph-name="daggerdbl" unicode="&#x2021;" horiz-adv-x="556" 
d="M209 0l8 166l-168 -7v121l168 -7v209l-168 -8v121l167 -8l-9 167h141l-8 -167l167 8v-121l-168 8v-209l168 7v-121l-168 7l8 -166h-138z" />
    <glyph glyph-name="bullet" unicode="&#x2022;" horiz-adv-x="377" 
d="M188 208q-60 0 -102.5 42t-42.5 102q0 61 42.5 103t102.5 42t102.5 -42t42.5 -103q0 -60 -42.5 -102t-102.5 -42z" />
    <glyph glyph-name="ellipsis" unicode="&#x2026;" horiz-adv-x="850" 
d="M63 0v126h139v-126h-139zM354 0v126h139v-126h-139zM648 0v126h139v-126h-139z" />
    <glyph glyph-name="guilsinglleft" unicode="&#x2039;" horiz-adv-x="290" 
d="M158 46l-119 226l119 224l86 -34l-90 -190l89 -185z" />
    <glyph glyph-name="guilsinglright" unicode="&#x203a;" horiz-adv-x="290" 
d="M132 46l-85 42l88 184l-89 190l86 34l119 -224z" />
    <glyph glyph-name="Euro" unicode="&#x20ac;" horiz-adv-x="615" 
d="M395 -9q-118 0 -192.5 48.5t-100.5 136.5h-58v64h48q-2 18 -2 29q0 15 2 39h-48v65h60q26 87 99 133.5t189 46.5q96 0 178 -35l-35 -92q-76 21 -142 22q-111 0 -151 -75h212v-65h-234q-1 -10 -1 -32q0 -25 2 -36h233v-64h-209q44 -80 164 -80q61 0 134 19l29 -95
q-82 -29 -177 -29z" />
    <glyph glyph-name="trademark" unicode="&#x2122;" horiz-adv-x="853" 
d="M372 353v355h105l101 -259l105 259h101v-355h-91l3 192l-76 -192h-92l-68 189l2 -189h-90zM148 353v275h-111v80h313v-80h-111v-275h-91z" />
    <glyph glyph-name="minus" unicode="&#x2212;" horiz-adv-x="652" 
d="M67 253v103h518v-103h-518z" />
    <glyph glyph-name="infinity" unicode="&#x221e;" horiz-adv-x="939" 
d="M228 123q-88 0 -132.5 46.5t-44.5 127.5t49 130t132 49q19 0 39.5 -5t35.5 -11t39 -20.5t37 -23t43 -30t44 -31.5q18 12 53.5 36.5t52 35t42.5 24.5t47.5 19.5t44.5 5.5q86 0 132.5 -47t46.5 -126q0 -81 -49.5 -130.5t-135.5 -49.5q-29 0 -60.5 12t-51 24t-63.5 42.5
t-64 43.5q-17 -11 -52 -36t-51 -35.5t-42 -25t-47.5 -20t-44.5 -5.5zM233 222q11 0 24 3.5t23 7.5t26.5 14t24.5 15t28 19t26 18q-6 4 -27 18.5t-28.5 19.5t-24.5 15t-27 14.5t-23.5 8t-24.5 3.5q-35 0 -56 -23t-21 -54q0 -34 21 -56.5t59 -22.5zM709 222q35 0 56 23t21 55
q0 34 -22 56t-59 22q-8 0 -17 -2t-17 -4.5t-19.5 -8.5t-18.5 -9.5t-20.5 -12t-19.5 -12.5t-21.5 -14.5t-20.5 -13.5q10 -6 41 -26.5t44 -28t34.5 -16t38.5 -8.5z" />
    <glyph glyph-name="notequal" unicode="&#x2260;" horiz-adv-x="604" 
d="M46 11l93 122h-73l-1 103h150l99 133h-248l-1 103h325l85 110h89l-84 -110h61v-103h-137l-99 -133h236v-103h-312l-92 -122h-91z" />
    <glyph glyph-name="lessequal" unicode="&#x2264;" horiz-adv-x="557" 
d="M498 109v-109h-447v109h447zM497 127l-444 161v131l444 161v-115l-312 -112l312 -111v-115z" />
    <glyph glyph-name="greaterequal" unicode="&#x2265;" horiz-adv-x="557" 
d="M59 0v109h447v-109h-447zM505 288l-444 -161v115l312 111l-312 112v115l444 -161v-131z" />
    <glyph glyph-name="apple" unicode="&#xf8ff;" horiz-adv-x="1241" 
d="M1141 357h-10v-10h-11v10h-10v11h10v10h11v-10h10v-11zM1081 377h-11v11h11v-11zM1081 338h-11v10h11v-10zM1041 377h-11v11h11v-11zM1071 357h-10v-10h-11v10h-10v11h10v10h11v-10h10v-11zM1041 338h-11v10h11v-10zM1001 387h-10v-10h-11v11h10v10h11v-11zM1001 328h-11
v10h-10v10h11v-10h10v-10zM951 377h-11v10h-10v11h11v-10h10v-11zM981 357h-10v-10h-11v10h-10v11h10v10h11v-10h10v-11zM951 338h-10v-10h-11v10h10v10h11v-10zM911 338h-31v9h-10v31h10v10h21v-10h10v-21h-30v-9h30v-10zM900 368v9h-19v-9h19zM851 338h-31v9h-10v41h11
v-40h19v40h11v-50zM791 318h-11v20h-20v9h-10v31h10v10h31v-70zM780 348v29h-19v-29h19zM731 338h-31v9h-10v31h10v10h21v-10h10v-21h-30v-9h30v-10zM720 368v9h-19v-9h19zM671 338h-11v39h-19v-39h-11v70h11v-20h20v-10h10v-40zM611 338h-21v9h-10v30h-10v11h10v10h11v-10
h20v-11h-20v-29h20v-10zM551 347h-10v-9h-21v9h-10v31h10v10h21v-10h10v-31zM540 348v29h-19v-29h19zM491 347h-10v-9h-20v-20h-11v70h31v-10h10v-31zM480 348v29h-19v-29h19zM431 347h-10v-9h-10v-10h-10v-10h-11v11h10v18h-10v41h11v-40h19v40h11v-41zM371 338h-21v9h-10
v30h-10v11h10v10h11v-10h20v-11h-20v-29h20v-10zM311 387h-10v-10h-11v11h10v10h11v-11zM311 328h-11v10h-10v10h11v-10h10v-10zM261 377h-11v10h-10v11h11v-10h10v-11zM291 357h-10v-10h-11v10h-10v11h10v10h11v-10h10v-11zM261 338h-10v-10h-11v10h10v10h11v-10zM211 377
h-11v11h11v-11zM211 338h-11v10h11v-10zM171 377h-11v11h11v-11zM201 357h-10v-10h-11v10h-10v11h10v10h11v-10h10v-11zM171 338h-11v10h11v-10zM131 357h-10v-10h-11v10h-10v11h10v10h11v-10h10v-11z" />
    <glyph glyph-name="CR" horiz-adv-x="235" 
 />
    <glyph glyph-name="dieresis.cap" horiz-adv-x="400" 
d="M93 741l-83 84l83 84l84 -84zM319 741l-84 84l84 84l83 -84z" />
    <glyph glyph-name="ring.cap" horiz-adv-x="788" 
d="M397 711q-50 0 -85.5 25t-35.5 79q0 53 35 81t83 28q46 0 83.5 -25.5t37.5 -81.5q0 -51 -34 -78.5t-84 -27.5zM395 765q52 0 55 51q0 23 -16 37t-39 14q-55 0 -55 -49q0 -24 15 -38.5t40 -14.5z" />
    <glyph glyph-name="grave.cap" horiz-adv-x="648" 
d="M441 745l-256 55l25 107l252 -72z" />
    <glyph glyph-name="tilde.cap" horiz-adv-x="696" 
d="M410 755q-25 0 -66 18.5t-59 18.5q-38 0 -70 -26l-51 63q62 68 127 68q33 0 70.5 -19t51.5 -19q35 0 78 26l46 -62q-59 -68 -127 -68z" />
    <glyph glyph-name="acute.cap" horiz-adv-x="694" 
d="M233 745l-21 90l251 73l25 -106z" />
    </font>
</defs>
</svg>
