<?xml version="1.0" standalone="no"?>
<!DOCTYPE svg PUBLIC "-//W3C//DTD SVG 1.1//EN" "http://www.w3.org/Graphics/SVG/1.1/DTD/svg11.dtd" >
<svg xmlns="http://www.w3.org/2000/svg" xmlns:xlink="http://www.w3.org/1999/xlink" version="1.1">
<metadata>
Created by FontForge 20170731 at Sat Oct 31 22:43:26 2009
 By Aleksey,,,
Copyright (c) 2001-2009 Typotheque.com All rights reserved. Cyrillic designed by Alexei Kassian and Gayaneh Bagdasaryan.
</metadata>
<defs>
<font id="FedraSansAltPro-BookItalic" horiz-adv-x="559" >
  <font-face 
    font-family="Fedra Sans Alt Pro Book"
    font-weight="400"
    font-style="italic"
    font-stretch="normal"
    units-per-em="1000"
    panose-1="2 0 5 3 2 0 0 9 0 4"
    ascent="780"
    descent="-220"
    x-height="546"
    cap-height="707"
    bbox="-480 -288 1318 1047"
    underline-thickness="50"
    underline-position="-200"
    slope="-6"
    unicode-range="U+0020-FB04"
  />
<missing-glyph horiz-adv-x="712" 
d="M305 375v27h27v-27h-27zM380 525v27h27v-27h-27zM305 525v27h27v-27h-27zM230 525v27h27v-27h-27zM80 0v27h27v-27h-27zM155 0v27h27v-27h-27zM230 0v27h27v-27h-27zM305 0v27h27v-27h-27zM380 0v27h27v-27h-27zM80 75v27h27v-27h-27zM80 150v27h27v-27h-27zM80 225v27
h27v-27h-27zM80 300v27h27v-27h-27zM80 375v27h27v-27h-27zM80 450v27h27v-27h-27zM80 525v27h27v-27h-27zM80 600v27h27v-27h-27zM80 675v27h27v-27h-27zM155 675v27h27v-27h-27zM230 675v27h27v-27h-27zM305 675v27h27v-27h-27zM380 675v27h27v-27h-27zM455 675v27h27v-27
h-27zM530 675v27h27v-27h-27zM530 0v27h27v-27h-27zM455 0v27h27v-27h-27zM605 0v27h27v-27h-27zM605 675v27h27v-27h-27zM305 300v27h27v-27h-27zM305 150v27h27v-27h-27zM380 375v27h27v-27h-27zM455 375v27h27v-27h-27zM455 450v27h27v-27h-27zM455 525v27h27v-27h-27z
M605 600v27h27v-27h-27zM605 525v27h27v-27h-27zM605 375v27h27v-27h-27zM605 300v27h27v-27h-27zM605 150v27h27v-27h-27zM605 75v27h27v-27h-27zM605 225v27h27v-27h-27zM605 450v27h27v-27h-27z" />
    <glyph glyph-name="f_f" unicode="ff" horiz-adv-x="609" 
d="M49 -205l73 688h-80l7 63h79l6 48q6 55 27 93t54.5 55.5t67 24.5t76.5 7q91 0 160 -28q50 28 139 28q24 0 61 -7t49 -12l-21 -60l-15 3q-14 3 -39 6.5t-44 3.5q-132 0 -143 -114l-6 -48h120l-7 -63h-119l-73 -688h-74l73 688h-225l-72 -688h-74zM202 546h225l5 48
q6 59 31 99q-64 15 -112 15q-131 0 -144 -114z" />
    <glyph glyph-name="fi" unicode="fi" horiz-adv-x="558" 
d="M48 -205l73 688h-80l7 63h80l3 26q12 111 65 156.5t138 45.5q17 0 69.5 -3.5t81.5 -3.5q16 0 64 5l9 -56q-42 -15 -107 -15q-26 0 -69 3t-56 3q-59 0 -85.5 -34.5t-34.5 -101.5l-2 -25h301l-57 -546h-76l50 483h-225l-73 -688h-76z" />
    <glyph glyph-name="fl" unicode="fl" horiz-adv-x="557" 
d="M48 -205l73 688h-80l7 63h80l3 26q12 111 65 156.5t138 45.5q19 0 68.5 -3.5t76.5 -3.5q34 0 50 2l-82 -769h-75l74 703q-23 -1 -65.5 1.5t-54.5 2.5q-59 0 -85.5 -34.5t-34.5 -101.5l-2 -25h116l-7 -63h-116l-73 -688h-76z" />
    <glyph glyph-name="f_f_i" unicode="ffi" horiz-adv-x="857" 
d="M49 -205l73 688h-80l7 63h79l6 48q6 56 27 93.5t54.5 55t67.5 24.5t77 7q23 0 83.5 -11t74.5 -16q46 27 115 27q17 0 69.5 -2.5t81.5 -2.5q34 0 64 3l4 -57q-39 -14 -103 -14q-23 0 -66 3t-59 3q-59 0 -85.5 -34.5t-33.5 -101.5l-3 -25h302l-58 -546h-76l51 483h-225
l-73 -688h-76l73 688h-225l-72 -688h-74zM202 546h225l3 26q7 72 35 120q-80 16 -114 16q-131 0 -144 -114z" />
    <glyph glyph-name="f_f_l" unicode="ffl" horiz-adv-x="856" 
d="M49 -205l73 688h-80l7 63h79l6 48q6 56 27 93.5t54.5 55t67.5 24.5t77 7q37 0 87.5 -10t70.5 -17q46 27 115 27q18 0 67.5 -3.5t76.5 -3.5q34 0 50 2l-81 -769h-76l75 703q-23 -1 -65.5 1.5t-54.5 2.5q-59 0 -86 -34.5t-34 -101.5l-2 -25h116l-7 -63h-116l-73 -688h-76
l73 688h-225l-72 -688h-74zM202 546h225l2 26q9 75 36 120q-75 16 -114 16q-131 0 -144 -114z" />
    <glyph glyph-name="f_idieresis" unicode="f&#xef;" horiz-adv-x="563" 
d="M49 -205l72 688h-80l7 63h80l6 60q7 86 49 127t106 41q44 0 88 -20l-20 -61q-37 16 -74 16q-65 0 -75 -98l-6 -65h119l-6 -63h-119l-73 -688h-74zM377 0l57 546h76l-57 -546h-76zM393 669l10 93h77l-10 -93h-77zM536 669l10 93h77l-10 -93h-77z" />
    <glyph glyph-name="f_igrave" unicode="f&#xec;" horiz-adv-x="563" 
d="M49 -205l72 688h-80l7 63h80l6 60q7 86 49 127t106 41q44 0 88 -20l-20 -61q-37 16 -74 16q-65 0 -75 -98l-6 -65h119l-6 -63h-119l-73 -688h-74zM507 609l-108 145l56 43l96 -153zM377 0l57 546h76l-57 -546h-76z" />
    <glyph glyph-name="f_h" unicode="fh" horiz-adv-x="851" 
d="M48 -205l73 688h-80l7 63h80l3 26q20 202 203 202q19 0 68.5 -3.5t76.5 -3.5q34 0 50 2l-32 -315l17 13q17 13 22.5 17t23.5 16.5t27.5 18.5t26.5 15.5t29 14t26.5 8t26.5 3.5q54 0 74.5 -20.5t20.5 -68.5q0 -17 -6 -77l-42 -394h-76l41 378q6 58 6 67q0 25 -10 34.5
t-38 9.5q-17 0 -54 -21t-78.5 -50t-44.5 -31l-41 -387h-76l73 702q-17 -1 -63 2t-56 3q-59 0 -86 -34.5t-34 -101.5l-2 -25h116l-7 -63h-116l-73 -688h-76z" />
    <glyph glyph-name="f_b" unicode="fb" horiz-adv-x="856" 
d="M517 -8q-66 0 -143 22l72 689q-22 -1 -65 1.5t-55 2.5q-59 0 -85.5 -34.5t-34.5 -101.5l-2 -25h116l-7 -63h-116l-73 -688h-76l73 688h-80l7 63h80l3 26q12 111 65 156.5t138 45.5q19 0 68.5 -3.5t76.5 -3.5q35 0 51 2l-32 -298q34 23 56.5 36.5t61 27.5t72.5 14
q123 0 123 -160q0 -68 -17.5 -135.5t-51.5 -127.5t-92.5 -97t-132.5 -37zM524 56q46 0 83 23t60 59t38.5 81.5t21.5 88t6 81.5q0 53 -16 73t-48 20q-63 0 -179 -77l-35 -339q45 -10 69 -10z" />
    <glyph glyph-name="f_j" unicode="fj" 
d="M243 -222q-38 0 -67 11l20 62q15 -6 56 -6q59 0 85.5 35t33.5 102l52 501h-225l-73 -688h-76l73 688h-80l6 63h80l3 26q12 111 65 156.5t138 45.5q17 0 69 -2.5t82 -2.5q35 0 64 3l5 -57q-38 -14 -102 -14q-24 1 -67 3.5t-58 2.5q-60 0 -86.5 -34.5t-33.5 -101.5l-3 -25
h302l-59 -565q-12 -111 -65.5 -157t-138.5 -46z" />
    <glyph glyph-name="f_k" unicode="fk" horiz-adv-x="809" 
d="M49 -205l73 688h-80l6 63h80l3 26q12 111 65.5 156.5t137.5 45.5q19 0 68.5 -3.5t76.5 -3.5q23 -1 50 2l-81 -769h-76l74 703q-22 -1 -64.5 1.5t-55.5 2.5q-59 0 -86 -34.5t-33 -101.5l-3 -25h116l-6 -63h-116l-73 -688h-76zM692 -14l-191 302l201 258h89l-202 -255
l180 -280z" />
    <glyph glyph-name="f_f_j" unicode="ffj" horiz-adv-x="857" 
d="M49 -205l73 688h-80l7 63h79l6 48q6 56 27 93.5t54.5 55t67.5 24.5t77 7q23 0 83.5 -11t74.5 -16q46 27 115 27q17 0 69.5 -2.5t81.5 -2.5q34 0 64 3l4 -57q-39 -14 -103 -14q-23 0 -66 3t-59 3q-59 0 -85.5 -34.5t-33.5 -101.5l-3 -25h302l-60 -564
q-11 -111 -61.5 -156.5t-134.5 -45.5q-41 0 -75 13l19 65q38 -11 65 -11q58 0 81 33.5t31 102.5l52 500h-225l-73 -688h-76l73 688h-225l-72 -688h-74zM202 546h225l3 26q7 72 35 120q-80 16 -114 16q-131 0 -144 -114z" />
    <glyph glyph-name="aogonek_j" unicode="&#x105;j" horiz-adv-x="778" 
d="M383 -233q-143 0 -143 108q0 37 26 72t66 59l10 93q-63 -57 -108.5 -84.5t-84.5 -27.5q-55 0 -82.5 44.5t-27.5 118.5q0 68 22.5 138t62.5 129t103 96.5t137 37.5q53 0 99 -8l-57 -543q-35 -20 -62 -50t-28 -59t18.5 -44.5t58.5 -15.5q163 0 179 152l59 563h76l-60 -568
q-6 -60 -33 -103.5t-66.5 -65.5t-80 -32t-84.5 -10zM168 59q31 0 86.5 40t94.5 77l33 307q-8 2 -34 2q-70 0 -125 -54t-81 -127t-26 -146q0 -44 13 -71.5t39 -27.5zM640 669l10 93h77l-10 -93h-77z" />
    <glyph glyph-name=".notdef" horiz-adv-x="712" 
d="M305 375v27h27v-27h-27zM380 525v27h27v-27h-27zM305 525v27h27v-27h-27zM230 525v27h27v-27h-27zM80 0v27h27v-27h-27zM155 0v27h27v-27h-27zM230 0v27h27v-27h-27zM305 0v27h27v-27h-27zM380 0v27h27v-27h-27zM80 75v27h27v-27h-27zM80 150v27h27v-27h-27zM80 225v27
h27v-27h-27zM80 300v27h27v-27h-27zM80 375v27h27v-27h-27zM80 450v27h27v-27h-27zM80 525v27h27v-27h-27zM80 600v27h27v-27h-27zM80 675v27h27v-27h-27zM155 675v27h27v-27h-27zM230 675v27h27v-27h-27zM305 675v27h27v-27h-27zM380 675v27h27v-27h-27zM455 675v27h27v-27
h-27zM530 675v27h27v-27h-27zM530 0v27h27v-27h-27zM455 0v27h27v-27h-27zM605 0v27h27v-27h-27zM605 675v27h27v-27h-27zM305 300v27h27v-27h-27zM305 150v27h27v-27h-27zM380 375v27h27v-27h-27zM455 375v27h27v-27h-27zM455 450v27h27v-27h-27zM455 525v27h27v-27h-27z
M605 600v27h27v-27h-27zM605 525v27h27v-27h-27zM605 375v27h27v-27h-27zM605 300v27h27v-27h-27zM605 150v27h27v-27h-27zM605 75v27h27v-27h-27zM605 225v27h27v-27h-27zM605 450v27h27v-27h-27z" />
    <glyph glyph-name=".null" horiz-adv-x="0" 
 />
    <glyph glyph-name="nonmarkingreturn" horiz-adv-x="333" 
 />
    <glyph glyph-name="space" unicode=" " horiz-adv-x="255" 
 />
    <glyph glyph-name="exclam" unicode="!" horiz-adv-x="275" 
d="M90 170l11 138l42 399h75l-43 -399l-18 -138h-67zM62 0l9 85h87l-9 -85h-87z" />
    <glyph glyph-name="quotedbl" unicode="&#x22;" horiz-adv-x="323" 
d="M82 560l20 204h69l-32 -204h-57zM233 560l20 203h69l-31 -203h-58z" />
    <glyph glyph-name="numbersign" unicode="#" horiz-adv-x="596" 
d="M95 0l24 153h-89l8 64h92l21 131h-99l6 65h104l25 154h71l-24 -154h171l23 154h72l-24 -154h84l-6 -65h-89l-21 -131h96l-8 -64h-99l-24 -153h-72l25 153h-171l-24 -153h-72zM201 217h171l22 131h-171z" />
    <glyph glyph-name="dollar" unicode="$" horiz-adv-x="491" 
d="M167 -99l10 94q-100 4 -167 38l31 63q77 -31 143 -35l21 196q-62 26 -96.5 57.5t-34.5 85.5q0 64 46.5 100.5t115.5 46.5l11 97h67l-10 -93q79 -3 142 -30l-26 -58q-71 22 -123 24l-19 -179q36 -15 56.5 -25.5t46.5 -28t38 -40t12 -49.5q0 -76 -54 -118.5t-133 -49.5
l-10 -96h-67zM351 153q0 25 -21 43t-61 35l-18 -167q100 16 100 89zM152 411q0 -40 62 -73l15 146q-77 -15 -77 -73z" />
    <glyph glyph-name="percent" unicode="%" horiz-adv-x="782" 
d="M205 388q-64 0 -99.5 33.5t-35.5 97.5q0 80 47 137.5t125 57.5q137 0 137 -131q0 -82 -47 -138.5t-127 -56.5zM211 445q50 0 76.5 38.5t26.5 90.5q0 86 -77 86q-50 0 -75 -42t-25 -95q0 -78 74 -78zM548 -9q-64 0 -99.5 33.5t-35.5 97.5q0 80 47 137.5t126 57.5
q137 0 137 -131q0 -82 -47.5 -138.5t-127.5 -56.5zM554 48q50 0 76.5 38.5t26.5 90.5q0 86 -77 86q-50 0 -75 -41.5t-25 -94.5q0 -79 74 -79zM112 61l-39 42l587 531l38 -42z" />
    <glyph glyph-name="ampersand" unicode="&#x26;" horiz-adv-x="683" 
d="M680 375q-59 -49 -153 -62q12 -26 12 -72q0 -102 -79.5 -176.5t-205.5 -74.5q-91 0 -151.5 42t-60.5 111q0 79 40 133.5t119 96.5q-48 36 -70.5 72.5t-22.5 92.5q0 83 61 129.5t152 46.5q63 0 110.5 -32t53.5 -88l-75 -13q-5 34 -35.5 53t-70.5 19q-53 0 -87.5 -30
t-34.5 -79q0 -59 43 -100t102.5 -57.5t127.5 -16.5q113 0 189 48zM268 52q53 0 92.5 17.5t60.5 46.5t31 60.5t10 65.5q0 41 -13 68q-100 1 -188 36q-68 -35 -105 -79t-37 -111q0 -49 40 -76.5t109 -27.5z" />
    <glyph glyph-name="quotesingle" unicode="'" horiz-adv-x="172" 
d="M82 560l20 204h69l-31 -204h-58z" />
    <glyph glyph-name="parenleft" unicode="(" horiz-adv-x="339" 
d="M207 -222q-81 66 -125.5 187t-44.5 235q0 102 30 210.5t94.5 207.5t150.5 151l40 -51q-109 -71 -172 -217.5t-63 -289.5q0 -102 37 -211.5t104 -169.5z" />
    <glyph glyph-name="parenright" unicode=")" horiz-adv-x="340" 
d="M20 -222l-40 52q107 81 172.5 232.5t65.5 296.5q0 99 -37 202.5t-107 156.5l51 51q83 -57 128.5 -173t45.5 -237q0 -161 -76 -327t-203 -254z" />
    <glyph glyph-name="asterisk" unicode="*" horiz-adv-x="427" 
d="M94 466l-28 60l105 44l17 -38zM174 598l-96 45l41 60l82 -65zM189 408l24 109h46l-1 -109h-69zM228 652l-1 110h69l-23 -110h-45zM366 466l-82 64l28 40l95 -43zM314 600l-18 38l95 65l28 -59z" />
    <glyph glyph-name="plus" unicode="+" horiz-adv-x="575" 
d="M221 54l23 216h-215l8 66l214 -1l23 222h69l-25 -223l228 2l-8 -66h-227l-22 -216h-68z" />
    <glyph glyph-name="comma" unicode="," horiz-adv-x="221" 
d="M-11 -144q28 63 37 103t20 137h89q-8 -82 -22.5 -128t-56.5 -112h-67z" />
    <glyph glyph-name="hyphen" unicode="-" horiz-adv-x="485" 
d="M88 254l7 68h298l-7 -68h-298z" />
    <glyph glyph-name="period" unicode="." horiz-adv-x="219" 
d="M34 0l9 87h90l-9 -87h-90z" />
    <glyph glyph-name="slash" unicode="/" horiz-adv-x="363" 
d="M-8 -62l319 831h70l-319 -831h-70z" />
    <glyph glyph-name="zero" unicode="0" horiz-adv-x="611" 
d="M273 -10q-109 0 -173 65t-64 183q0 140 80.5 230.5t215.5 90.5q109 0 172.5 -64.5t63.5 -184.5q0 -139 -81.5 -229.5t-213.5 -90.5zM280 54q97 0 154.5 71t57.5 174q0 89 -42.5 142.5t-124.5 53.5q-99 0 -154.5 -69t-55.5 -175q0 -90 41.5 -143.5t123.5 -53.5z" />
    <glyph glyph-name="one" unicode="1" horiz-adv-x="340" 
d="M132 0l51 486h-142l6 59l219 7l-58 -552h-76z" />
    <glyph glyph-name="two" unicode="2" horiz-adv-x="473" 
d="M21 0l7 62q19 15 60 47.5t67.5 53.5t62 55t56.5 62t36.5 63.5t15.5 69.5q0 79 -96 79q-61 0 -120 -36l-26 54q28 21 71 36t87 15q83 0 123 -41t40 -97q0 -181 -278 -356h274l-7 -67h-373z" />
    <glyph glyph-name="three" unicode="3" horiz-adv-x="463" 
d="M134 -169q-79 0 -150 35l23 62q65 -30 129 -30q81 0 128.5 50.5t47.5 117.5q0 55 -42.5 87t-120.5 38l-2 55q68 17 116 66.5t48 103.5q0 78 -102 78q-64 0 -119 -22l-17 57q61 32 149 32q75 0 120 -35t45 -100q0 -56 -37 -108.5t-99 -83.5q139 -44 139 -164
q0 -96 -72.5 -167.5t-183.5 -71.5z" />
    <glyph glyph-name="four" unicode="4" horiz-adv-x="548" 
d="M266 -160l21 195h-281l7 69l283 442h120l-47 -446h125l-6 -65h-125l-21 -195h-76zM86 100h208l41 393z" />
    <glyph glyph-name="five" unicode="5" horiz-adv-x="497" 
d="M170 -171q-88 0 -165 30l21 63q80 -25 150 -25q80 0 126.5 44t46.5 118q0 42 -26.5 74t-71.5 51t-91 29t-97 15l33 318h334l-6 -64h-264l-19 -193q124 -19 204.5 -73t80.5 -147q0 -102 -72 -171t-184 -69z" />
    <glyph glyph-name="six" unicode="6" horiz-adv-x="542" 
d="M261 -11q-104 0 -156.5 60.5t-52.5 174.5q0 71 10 137t34.5 132t62 114.5t97 78.5t134.5 30q55 0 93 -17l-22 -65q-37 14 -86 14q-178 0 -229 -246q76 34 148 34q85 0 139.5 -49.5t54.5 -140.5q0 -111 -59.5 -184t-167.5 -73zM271 52q69 0 103.5 54.5t34.5 131.5
q0 133 -133 133q-54 0 -140 -36q-6 -57 -6 -116q0 -79 36.5 -123t104.5 -44z" />
    <glyph glyph-name="seven" unicode="7" horiz-adv-x="462" 
d="M95 -175l-61 31l338 626h-324l7 64h400l-7 -66z" />
    <glyph glyph-name="eight" unicode="8" horiz-adv-x="528" 
d="M228 -10q-82 0 -137.5 40.5t-55.5 108.5q0 141 177 232q-36 27 -56 46t-37 51t-17 70q0 83 61 129.5t152 46.5q67 0 116.5 -36.5t49.5 -99.5q0 -123 -154 -209q61 -40 98.5 -84t37.5 -101q0 -92 -71.5 -143t-163.5 -51zM242 52q62 0 102.5 36t40.5 96q0 24 -11.5 46.5
t-37 45t-38.5 32.5t-42 30q-30 -18 -51 -33.5t-44.5 -39t-36 -51.5t-12.5 -60q0 -48 36.5 -75t93.5 -27zM280 401q124 72 124 169q0 39 -30.5 61t-75.5 22q-53 0 -87.5 -30.5t-34.5 -80.5q0 -28 20.5 -58t35.5 -43t48 -40z" />
    <glyph glyph-name="nine" unicode="9" horiz-adv-x="544" 
d="M147 -167q-54 0 -92 17l22 65q34 -14 86 -14q174 0 227 238q-66 -26 -146 -26q-85 0 -139.5 49.5t-54.5 140.5q0 112 59.5 184.5t167.5 72.5q208 0 208 -236q0 -71 -10 -137t-34.5 -131.5t-61.5 -114t-97 -78.5t-135 -30zM262 178q63 0 138 28q8 66 8 124q0 79 -36.5 123
t-104.5 44q-70 0 -104.5 -54.5t-34.5 -131.5q0 -133 134 -133z" />
    <glyph glyph-name="colon" unicode=":" horiz-adv-x="285" 
d="M65 0l10 87h90l-9 -87h-91zM113 459l10 87h90l-10 -87h-90z" />
    <glyph glyph-name="semicolon" unicode=";" horiz-adv-x="282" 
d="M19 -144q28 63 37 103t19 137h89q-8 -82 -22.5 -128t-56.5 -112h-66zM111 459l10 87h89l-9 -87h-90z" />
    <glyph glyph-name="less" unicode="&#x3c;" horiz-adv-x="503" 
d="M422 64l-384 190l10 99l424 192l-8 -74l-370 -168l335 -164z" />
    <glyph glyph-name="equal" unicode="=" horiz-adv-x="697" 
d="M87 166l7 66h494l-7 -66h-494zM109 376l7 66h494l-7 -66h-494z" />
    <glyph glyph-name="greater" unicode="&#x3e;" horiz-adv-x="502" 
d="M30 64l8 75l369 164l-334 168l8 74l383 -192l-10 -99z" />
    <glyph glyph-name="question" unicode="?" horiz-adv-x="354" 
d="M75 163q-6 24 -6 50q0 37 13.5 69.5t33.5 55.5t44 46t44 42t33.5 42.5t13.5 48.5q0 57 -50.5 88.5t-115.5 37.5l23 66q90 -7 156.5 -52.5t66.5 -128.5q0 -44 -18 -80t-44.5 -61t-53.5 -48t-48 -51t-25 -59q-1 -13 1 -57zM52 0l8 85h87l-9 -85h-86z" />
    <glyph glyph-name="at" unicode="@" horiz-adv-x="775" 
d="M323 -72q-132 0 -204 71t-72 203q0 106 31.5 199.5t89 163t145 110t194.5 40.5q116 0 177 -59t61 -174q0 -80 -25.5 -153.5t-84.5 -127t-142 -53.5q-35 0 -54 17t-14 49q-21 -21 -57.5 -40.5t-62.5 -19.5q-84 0 -84 94q0 104 59.5 178t160.5 74q58 0 102 -22l-50 -223
q-4 -16 -4 -25q0 -23 16 -23q46 0 81 26.5t53.5 69t27 86t8.5 86.5q0 181 -177 181q-93 0 -166.5 -36t-119.5 -98.5t-70 -142t-24 -169.5q0 -217 222 -217q74 0 152 19l7 -59q-68 -25 -176 -25zM324 215q25 0 55 17t52 39l38 169q-20 5 -35 5q-71 0 -108 -55.5t-37 -130.5
q0 -22 7 -33t28 -11z" />
    <glyph glyph-name="A" unicode="A" horiz-adv-x="636" 
d="M-34 0l352 707h118l148 -707h-82l-53 266h-270l-131 -266h-82zM210 330h225l-53 276l-11 60l-27 -61z" />
    <glyph glyph-name="B" unicode="B" horiz-adv-x="614" 
d="M67 0l75 707h192q202 0 202 -157q0 -59 -31 -108t-86 -64v-3q58 -7 94.5 -49t36.5 -101q0 -114 -70.5 -169.5t-189.5 -55.5h-223zM155 66h123q44 0 76 6.5t59 22t41 46.5t14 77q0 33 -14 56t-31.5 34t-49 17t-51.5 7t-54 1h-86zM189 396h100q81 0 121.5 33.5t40.5 112.5
q0 43 -22 67t-50.5 30t-72.5 6h-91z" />
    <glyph glyph-name="C" unicode="C" horiz-adv-x="638" 
d="M378 -10q-146 0 -232.5 86t-86.5 234q0 183 104.5 293t287.5 110q100 0 164 -28l-27 -63q-65 23 -143 23q-145 0 -224.5 -90.5t-79.5 -239.5q0 -122 70.5 -188t192.5 -66q88 0 152 21l15 -66q-82 -26 -193 -26z" />
    <glyph glyph-name="D" unicode="D" horiz-adv-x="728" 
d="M67 0l75 707h187q157 0 253 -77.5t96 -234.5q0 -194 -108.5 -294.5t-305.5 -100.5h-197zM153 66h126q154 0 236 82t82 243q0 128 -74 189t-204 61h-105z" />
    <glyph glyph-name="E" unicode="E" horiz-adv-x="567" 
d="M67 0l75 707h393l-7 -65h-314l-26 -254h291l-6 -66h-292l-27 -257h337l-7 -65h-417z" />
    <glyph glyph-name="F" unicode="F" horiz-adv-x="494" 
d="M67 0l75 707h352l-6 -65h-274l-28 -274h251l-7 -66h-252l-31 -302h-80z" />
    <glyph glyph-name="G" unicode="G" horiz-adv-x="665" 
d="M378 -10q-146 0 -232.5 85.5t-86.5 234.5q0 183 105 293t286 110q105 0 166 -28l-29 -62q-66 22 -142 22q-145 0 -224 -90t-79 -240q0 -123 70 -188.5t192 -65.5q50 0 94 11l27 278h80l-33 -326q-89 -34 -194 -34z" />
    <glyph glyph-name="H" unicode="H" horiz-adv-x="738" 
d="M67 0l75 707h79l-33 -320h380l33 320h80l-74 -707h-80l35 322h-381l-34 -322h-80z" />
    <glyph glyph-name="I" unicode="I" horiz-adv-x="278" 
d="M67 0l75 707h79l-74 -707h-80z" />
    <glyph glyph-name="J" unicode="J" horiz-adv-x="279" 
d="M-62 -187l-27 59q91 48 126.5 108.5t47.5 170.5l58 556h79l-58 -554q-13 -129 -63 -210.5t-163 -129.5z" />
    <glyph glyph-name="K" unicode="K" horiz-adv-x="602" 
d="M480 -19l-270 386l1 16l308 324h100l-318 -327l252 -359zM67 0l75 707h79l-74 -707h-80z" />
    <glyph glyph-name="L" unicode="L" horiz-adv-x="486" 
d="M67 0l75 707h79l-67 -639h307l-7 -68h-387z" />
    <glyph glyph-name="M" unicode="M" horiz-adv-x="889" 
d="M6 0l231 707h107l53 -661l296 661h106l-20 -707h-78l24 610l-273 -610h-126l-49 612l-192 -612h-79z" />
    <glyph glyph-name="N" unicode="N" horiz-adv-x="724" 
d="M67 0l76 707h116l264 -649l66 649h79l-76 -707h-123l-256 633l-66 -633h-80z" />
    <glyph glyph-name="O" unicode="O" horiz-adv-x="801" 
d="M359 -11q-143 0 -221 85.5t-78 232.5q0 184 104.5 297.5t285.5 113.5q143 0 222 -85.5t79 -232.5q0 -185 -105 -298t-287 -113zM369 55q143 0 221 97t78 245q0 116 -59 184.5t-171 68.5q-141 0 -219 -95.5t-78 -242.5q0 -116 58 -186.5t170 -70.5z" />
    <glyph glyph-name="P" unicode="P" horiz-adv-x="592" 
d="M67 0l75 707h229q95 0 151 -48.5t56 -141.5q0 -130 -86.5 -193.5t-220.5 -63.5h-96l-27 -260h-81zM182 326h94q217 0 217 184q0 133 -150 133h-128z" />
    <glyph glyph-name="Q" unicode="Q" horiz-adv-x="815" 
d="M359 -11q-143 0 -221 85.5t-78 232.5q0 184 104.5 297.5t285.5 113.5q143 0 222 -85.5t79 -232.5q0 -190 -110 -303l95 -108l-54 -42l-94 105q-94 -63 -229 -63zM369 55q99 0 171 51l-98 111l56 44l93 -107q77 94 77 243q0 116 -59 184.5t-171 68.5q-141 0 -219 -95.5
t-78 -242.5q0 -116 58 -186.5t170 -70.5z" />
    <glyph glyph-name="R" unicode="R" horiz-adv-x="641" 
d="M525 -18l-198 322q-31 -3 -85 -3h-61l-33 -301h-81l75 707h218q94 0 151.5 -45t57.5 -127q0 -76 -41 -133t-119 -79l192 -305zM187 365h93q204 0 204 167q0 111 -151 111h-118z" />
    <glyph glyph-name="S" unicode="S" horiz-adv-x="523" 
d="M210 -11q-48 0 -105 14t-91 34l31 67q96 -45 171 -45q166 0 166 134q0 36 -30 66.5t-72.5 54.5t-85.5 51.5t-73 71t-30 98.5q0 86 65 133t160 47q104 0 178 -41l-26 -62q-77 34 -155 34q-63 0 -103.5 -25.5t-40.5 -83.5q0 -36 30 -67.5t73 -57t86 -53.5t73 -70.5
t30 -93.5q0 -100 -71.5 -153t-179.5 -53z" />
    <glyph glyph-name="T" unicode="T" horiz-adv-x="571" 
d="M212 0l67 640h-242l8 67h563l-8 -67h-241l-67 -640h-80z" />
    <glyph glyph-name="U" unicode="U" horiz-adv-x="724" 
d="M337 -12q-51 0 -94 10t-80.5 33t-59 66.5t-21.5 104.5q0 26 2 40l49 465h81l-48 -458q-2 -26 -2 -36q0 -157 174 -157q90 0 146 49t69 168l45 434h76l-46 -437q-8 -81 -36.5 -139t-71.5 -87.5t-87.5 -42.5t-95.5 -13z" />
    <glyph glyph-name="V" unicode="V" horiz-adv-x="655" 
d="M226 0l-172 707h83l150 -650l330 650h84l-365 -707h-110z" />
    <glyph glyph-name="W" unicode="W" horiz-adv-x="964" 
d="M182 0l-105 707h83l87 -643l226 643h74l106 -645l253 645h80l-283 -707h-110l-96 588l-204 -588h-111z" />
    <glyph glyph-name="X" unicode="X" horiz-adv-x="588" 
d="M-29 0l290 373l-163 334h89l127 -273l202 273h87l-256 -333l184 -374h-89l-148 309l-231 -309h-92z" />
    <glyph glyph-name="Y" unicode="Y" horiz-adv-x="591" 
d="M219 0l29 274l-184 433h89l144 -365l235 365h86l-291 -432l-28 -275h-80z" />
    <glyph glyph-name="Z" unicode="Z" 
d="M5 0l7 70l431 565h-345l7 72h438l-6 -63l-434 -573h394l-7 -71h-485z" />
    <glyph glyph-name="bracketleft" unicode="[" horiz-adv-x="287" 
d="M24 -220l103 974h176l-6 -64h-100l-89 -846h100l-7 -64h-177z" />
    <glyph glyph-name="backslash" unicode="\" horiz-adv-x="365" 
d="M225 -62l-145 831h70l146 -831h-71z" />
    <glyph glyph-name="bracketright" unicode="]" horiz-adv-x="286" 
d="M-24 -220l6 64h100l89 846h-100l7 64h177l-103 -974h-176z" />
    <glyph glyph-name="asciicircum" unicode="^" horiz-adv-x="545" 
d="M14 294l205 413h101l104 -413h-79l-81 359l-171 -359h-79z" />
    <glyph glyph-name="underscore" unicode="_" horiz-adv-x="562" 
d="M-17 -165l6 68h500l-7 -68h-499z" />
    <glyph glyph-name="grave" unicode="`" horiz-adv-x="572" 
d="M387 614l-184 119l38 60l177 -129z" />
    <glyph glyph-name="a" unicode="a" horiz-adv-x="510" 
d="M142 -13q-55 0 -82.5 44.5t-27.5 118.5q0 68 22.5 138t62.5 129t103 96.5t137 37.5q53 0 99 -8l-56 -543h-76l11 99q-63 -57 -108.5 -84.5t-84.5 -27.5zM161 59q31 0 86.5 40t94.5 77l33 307q-8 2 -34 2q-70 0 -125 -54t-81 -127t-26 -146q0 -44 13 -71.5t39 -27.5z" />
    <glyph glyph-name="b" unicode="b" horiz-adv-x="528" 
d="M189 -8q-67 0 -142 22l78 741h75l-29 -284q35 23 56.5 36t60.5 27.5t73 14.5q122 0 122 -160q0 -68 -17.5 -135.5t-51.5 -127.5t-92.5 -97t-132.5 -37zM196 56q57 0 100 34t66 87.5t33.5 107t10.5 104.5q0 53 -16.5 73t-48.5 20q-63 0 -178 -77l-36 -339q45 -10 69 -10z
" />
    <glyph glyph-name="c" unicode="c" horiz-adv-x="450" 
d="M172 -12q-48 0 -78.5 32.5t-41 74t-10.5 89.5q0 160 72 268t196 108q77 0 128 -49l-42 -48q-43 33 -91 33q-51 0 -89 -30t-57 -78t-28 -95.5t-9 -94.5q0 -66 16.5 -103.5t39.5 -37.5q72 0 182 57l27 -54q-36 -22 -59.5 -34t-67.5 -25t-88 -13z" />
    <glyph glyph-name="d" unicode="d" horiz-adv-x="513" 
d="M144 -13q-107 0 -107 178q0 169 92 277.5t231 107.5h25l22 204h76l-81 -754h-76l11 99q-112 -112 -193 -112zM163 59q36 0 88 36.5t93 79.5l33 310q-9 1 -43 1q-59 0 -111 -44t-81 -113.5t-29 -143.5q0 -73 12.5 -99.5t37.5 -26.5z" />
    <glyph glyph-name="e" unicode="e" horiz-adv-x="468" 
d="M173 -12q-129 0 -129 204q0 100 29 182.5t90 134.5t144 52q69 0 103 -35.5t34 -89.5q0 -94 -143 -146l-178 -66v-27q0 -141 63 -141q65 0 171 55l27 -57q-37 -21 -61.5 -32.5t-66 -22.5t-83.5 -11zM130 291l159 62q38 15 59.5 36t21.5 44q0 33 -19.5 48t-46.5 15
q-137 0 -174 -205z" />
    <glyph glyph-name="f" unicode="f" horiz-adv-x="311" 
d="M49 -205l72 688h-80l7 63h80l4 43q4 45 18 78.5t33.5 53.5t47 32t55 16.5t60.5 4.5q55 0 103 -18l-20 -61q-50 14 -92 14q-63 0 -94 -27t-36 -88l-5 -48h119l-6 -63h-119l-73 -688h-74z" />
    <glyph glyph-name="g" unicode="g" horiz-adv-x="509" 
d="M147 -230q-95 0 -172 22l18 68q86 -23 142 -23q40 0 68.5 5t55 19.5t42 44t20.5 74.5l13 119q-61 -58 -106 -85t-87 -27q-57 0 -82 40.5t-25 123.5q0 160 93.5 280t229.5 120q51 0 99 -8l-61 -579q-5 -54 -29 -93.5t-60 -60.5t-75.5 -30.5t-83.5 -9.5zM160 59
q31 0 88 41.5t93 75.5l33 307q-8 2 -34 2q-64 0 -117.5 -48.5t-83 -122.5t-29.5 -152q0 -58 12.5 -80.5t37.5 -22.5z" />
    <glyph glyph-name="h" unicode="h" horiz-adv-x="525" 
d="M46 0l80 754h77l-32 -298q41 35 63.5 52t60.5 34.5t74 17.5q52 0 73.5 -25t21.5 -80q0 -30 -4 -61l-43 -394h-76l42 378q3 32 3 55q0 30 -9.5 42.5t-33.5 12.5q-57 0 -180 -101l-41 -387h-76z" />
    <glyph glyph-name="i" unicode="i" horiz-adv-x="233" 
d="M47 0l57 546h76l-57 -546h-76zM120 669l10 93h77l-10 -93h-77z" />
    <glyph glyph-name="j" unicode="j" horiz-adv-x="233" 
d="M-76 -220q-41 0 -75 13l19 65q36 -11 65 -11q58 0 81 33.5t30 102.5l60 563h76l-60 -564q-11 -111 -61.5 -156.5t-134.5 -45.5zM117 669l10 93h77l-10 -93h-77z" />
    <glyph glyph-name="k" unicode="k" horiz-adv-x="482" 
d="M365 -14l-192 302l201 258h90l-203 -255l181 -280zM46 0l79 754h77l-80 -754h-76z" />
    <glyph glyph-name="l" unicode="l" horiz-adv-x="233" 
d="M46 0l79 754h77l-80 -754h-76z" />
    <glyph glyph-name="m" unicode="m" horiz-adv-x="799" 
d="M47 0l57 546h77l-9 -89q36 31 56 47t60 36t74 20q51 0 72.5 -23t20.5 -72q113 95 191 95q51 0 71.5 -24t20.5 -79q0 -32 -4 -63l-42 -394h-76l41 378q4 29 4 55q0 31 -10 43.5t-36 12.5q-32 0 -69 -22.5t-96 -72.5l-42 -394h-76l41 378q5 37 5 55q0 31 -10 42.5t-36 11.5
q-29 0 -68 -24t-100 -76l-41 -387h-76z" />
    <glyph glyph-name="n" unicode="n" horiz-adv-x="526" 
d="M47 0l57 546h77l-9 -90q41 35 63.5 52t60.5 34.5t74 17.5q52 0 73 -25t21 -80q0 -27 -3 -61l-43 -394h-76l41 378q4 27 4 52q0 32 -9.5 45t-34.5 13q-56 0 -179 -101l-41 -387h-76z" />
    <glyph glyph-name="o" unicode="o" horiz-adv-x="515" 
d="M200 -12q-74 0 -117 55t-43 137q0 173 75 276.5t197 103.5q75 0 116 -55.5t41 -131.5q0 -69 -14.5 -134t-44.5 -123t-84 -93t-126 -35zM219 54q71 0 121.5 86.5t50.5 217.5q0 72 -24 105t-78 33q-69 0 -119.5 -88t-50.5 -213q0 -141 100 -141z" />
    <glyph glyph-name="p" unicode="p" horiz-adv-x="529" 
d="M22 -220l83 766h75l-7 -76q105 78 189 78q122 0 122 -160q0 -68 -17.5 -135.5t-51 -127t-92 -96.5t-132.5 -37q-34 0 -69 7l-24 -219h-76zM197 56q57 0 100 34t66 87.5t33.5 107t10.5 104.5q0 53 -16.5 73t-48.5 20q-63 0 -177 -78l-36 -338q56 -10 68 -10z" />
    <glyph glyph-name="q" unicode="q" horiz-adv-x="510" 
d="M301 -220l34 319q-66 -57 -110 -84.5t-83 -27.5q-56 0 -81.5 42t-25.5 126q0 104 41.5 194.5t116 146t164.5 55.5q53 0 99 -8l-79 -763h-76zM161 59q31 0 86.5 40t94.5 77l33 307q-9 2 -34 2q-96 0 -163 -99t-67 -221q0 -62 12.5 -84t37.5 -22z" />
    <glyph glyph-name="r" unicode="r" horiz-adv-x="350" 
d="M47 0l57 546h76l-9 -91q1 1 11.5 11t15.5 14t16.5 14t19.5 15.5t20 14t22.5 13t22.5 9.5t24 7.5t23 2.5q6 0 26 -2l-15 -71q-5 1 -24 1q-22 0 -59.5 -21.5t-56 -36.5t-54.5 -45l-40 -381h-76z" />
    <glyph glyph-name="s" unicode="s" horiz-adv-x="417" 
d="M154 -9q-92 0 -149 25l22 66q68 -25 132 -25q18 0 36.5 3t39 11t33.5 25t13 41q0 29 -21.5 55t-52.5 46.5t-62.5 43t-53 54.5t-21.5 71q0 78 50.5 113.5t128.5 35.5q82 0 142 -30l-23 -59q-72 26 -129 26q-41 0 -69 -18t-28 -57q0 -29 22 -55t53 -47t62.5 -43.5t53.5 -57
t22 -75.5t-18.5 -71.5t-49 -46.5t-64 -23.5t-69.5 -7.5z" />
    <glyph glyph-name="t" unicode="t" horiz-adv-x="373" 
d="M181 -12q-99 0 -102 106q-2 21 1 41l38 347h-80l7 64h81l11 112h75l-11 -112h169l-6 -64h-170l-37 -345q-9 -80 45 -80q50 0 114 33l17 -58q-67 -44 -152 -44z" />
    <glyph glyph-name="u" unicode="u" horiz-adv-x="525" 
d="M159 -11q-56 0 -80 26t-24 86q0 22 3 48l43 397h76l-42 -378q-3 -32 -3 -53q0 -34 10.5 -47t36.5 -13q70 0 175 103l42 388h76l-58 -546h-76l9 90q-50 -50 -93 -75.5t-95 -25.5z" />
    <glyph glyph-name="v" unicode="v" horiz-adv-x="473" 
d="M135 0l-92 546h83l71 -492l146 307q45 97 45 166q0 7 -2 19h78q1 -3 1 -19q0 -76 -48 -174l-171 -353h-111z" />
    <glyph glyph-name="w" unicode="w" horiz-adv-x="776" 
d="M135 0l-91 546h82l71 -492l180 313l-30 179h82l71 -492l146 307q44 91 44 165q0 14 -1 20h79q0 -2 0.5 -10t0.5 -9q0 -74 -48 -174l-171 -353h-113l-44 273l-157 -273h-101z" />
    <glyph glyph-name="x" unicode="x" horiz-adv-x="460" 
d="M-24 0l218 291l-114 255h81l83 -192l138 192h83l-192 -257l126 -289h-82l-93 224l-163 -224h-85z" />
    <glyph glyph-name="y" unicode="y" horiz-adv-x="477" 
d="M66 -220l107 220h-41l-85 546h82l70 -492l147 307q45 90 45 166q0 4 -0.5 10t-0.5 9h79q0 -2 0.5 -10t0.5 -9q0 -72 -48 -174l-277 -573h-79z" />
    <glyph glyph-name="z" unicode="z" horiz-adv-x="460" 
d="M1 0l7 66l338 414h-268l7 66h356l-7 -63l-342 -418h302l-7 -65h-386z" />
    <glyph glyph-name="braceleft" unicode="{" horiz-adv-x="331" 
d="M225 -220q-38 0 -66.5 4.5t-54.5 16.5t-40 36t-14 59q0 22 6 49l42 199q7 33 -14 63.5t-58 30.5l7 70q37 0 65 30t28 65v206q0 164 203 164h20l-7 -64h-23q-61 0 -90 -25t-29 -80l1 -182q0 -123 -100 -146v-2q74 -27 74 -103q0 -18 -5 -43l-40 -184q-3 -15 -3 -28
q0 -72 101 -72h24l-7 -64h-20z" />
    <glyph glyph-name="bar" unicode="|" horiz-adv-x="233" 
d="M24 -220l103 974h73l-102 -974h-74z" />
    <glyph glyph-name="braceright" unicode="}" horiz-adv-x="331" 
d="M-24 -220l7 64h23q119 0 119 100l-1 184q0 110 100 146v2q-74 19 -74 101q0 24 5 45l40 182q3 18 3 33q0 71 -101 71h-24l8 65h20q174 0 174 -119q0 -18 -5 -45l-43 -206q-8 -35 13.5 -65t58.5 -30l-7 -70q-37 0 -65 -30.5t-28 -63.5l1 -199q0 -41 -11.5 -71.5t-29.5 -48
t-46 -28t-55 -14t-62 -3.5h-20z" />
    <glyph glyph-name="asciitilde" unicode="~" horiz-adv-x="581" 
d="M401 285q-53 0 -117 30t-100 30q-44 0 -90 -30l-34 54q64 53 133 53q53 0 112 -31t100 -31q43 0 87 33l39 -48q-58 -60 -130 -60z" />
    <glyph glyph-name="uni00A0" unicode="&#xa0;" horiz-adv-x="255" 
 />
    <glyph glyph-name="exclamdown" unicode="&#xa1;" horiz-adv-x="242" 
d="M35 -161l42 399l18 138h67l-11 -138l-42 -399h-74zM94 461l9 85h87l-9 -85h-87z" />
    <glyph glyph-name="cent" unicode="&#xa2;" horiz-adv-x="467" 
d="M209 -45l8 75q-186 22 -186 196q0 117 61 195t177 90l9 82h67l-9 -79q69 -7 103 -29l-28 -56q-35 15 -82 20l-38 -356q40 1 102 14l4 -60q-57 -16 -113 -18l-8 -74h-67zM108 232q0 -67 29.5 -98t86.5 -38l38 353q-79 -10 -116.5 -68.5t-37.5 -148.5z" />
    <glyph glyph-name="sterling" unicode="&#xa3;" horiz-adv-x="463" 
d="M19 0l7 65q38 16 64.5 57t31.5 84h-95l6 62h97q2 17 4.5 47t3.5 40q5 60 27 100t61.5 60.5t81.5 28t102 9.5l-2 -65q-39 -4 -59 -6.5t-49.5 -11t-44 -22t-27 -38.5t-14.5 -60q-1 -25 -7 -82h177l-6 -62h-182q-11 -88 -83 -141h288l-7 -65h-375z" />
    <glyph glyph-name="currency" unicode="&#xa4;" horiz-adv-x="546" 
d="M104 138l-39 39l70 69q-36 43 -36 106q0 66 35 106l-68 68l38 38l70 -70q53 32 104 32q62 0 105 -30l68 69l40 -40l-67 -67q34 -39 34 -106q0 -68 -36 -107l68 -68l-38 -39l-69 69q-53 -28 -105 -28q-58 0 -102 30zM278 242q55 0 83 30.5t28 79.5q0 48 -28.5 79.5
t-82.5 31.5q-53 0 -82 -31.5t-29 -79.5t29.5 -79t81.5 -31z" />
    <glyph glyph-name="yen" unicode="&#xa5;" horiz-adv-x="614" 
d="M31 80l7 65h208l1 11l-39 98h-158l6 65h123l-97 227h85l128 -320l206 320h81l-151 -227h129l-7 -65h-166l-64 -97l-1 -12h220l-7 -65h-220l-9 -80h-75l9 80h-209z" />
    <glyph glyph-name="brokenbar" unicode="&#xa6;" horiz-adv-x="277" 
d="M46 -220l38 362h74l-38 -362h-74zM111 392l38 361h74l-38 -361h-74z" />
    <glyph glyph-name="section" unicode="&#xa7;" horiz-adv-x="566" 
d="M107 -55q-64 0 -111 40l32 64q46 -37 85 -37q23 0 38 21t19 43.5t4 46.5q0 31 -8 95l-3 32q-4 44 -4 68q0 127 68 204t193 77q84 0 142 -44l-32 -60q-59 39 -117 39q-55 0 -55 -101q0 -22 3 -43l6 -50q8 -74 8 -108q0 -125 -72.5 -206t-195.5 -81zM216 23q88 54 88 189
q0 12 -5 72l-6 63q-4 46 -4 63q0 76 22 109l-2 3q-76 -45 -76 -181q0 -30 3 -60l6 -62q4 -33 4 -74q0 -72 -31 -120z" />
    <glyph glyph-name="dieresis" unicode="&#xa8;" horiz-adv-x="408" 
d="M162 669l10 93h75l-10 -93h-75zM359 669l9 93h75l-10 -93h-74z" />
    <glyph glyph-name="copyright" unicode="&#xa9;" horiz-adv-x="791" 
d="M393 55q-94 0 -144 49.5t-48 130.5q2 107 63.5 173t171.5 66q71 0 117 -28l-25 -47q-46 21 -97 21q-73 0 -120 -46.5t-48 -132.5q-1 -64 40.5 -97t106.5 -33q40 0 96 16l13 -48q-67 -24 -126 -24zM343 -107q-143 0 -225 85t-82 227q0 182 111.5 299.5t291.5 117.5
q145 0 225.5 -86t80.5 -226q0 -181 -110 -299t-292 -118zM352 -53q155 0 243.5 102t88.5 253q0 120 -66 193t-190 73q-151 0 -240.5 -101t-89.5 -252q0 -117 64.5 -192.5t189.5 -75.5z" />
    <glyph glyph-name="ordfeminine" unicode="&#xaa;" horiz-adv-x="397" 
d="M161 387q-68 0 -68 111q0 91 54.5 154.5t136.5 63.5q30 0 65 -7l-34 -317h-59l7 49q-61 -54 -102 -54zM172 440q16 0 45.5 19t49.5 37l18 166l-16 1q-46 2 -82 -47.5t-36 -112.5t21 -63zM62 296l6 55h278l-7 -55h-277z" />
    <glyph glyph-name="guillemotleft" unicode="&#xab;" horiz-adv-x="432" 
d="M123 52l-83 220l129 220l54 -22l-108 -198l66 -195zM298 52l-83 220l130 220l53 -22l-108 -198l66 -195z" />
    <glyph glyph-name="logicalnot" unicode="&#xac;" horiz-adv-x="617" 
d="M449 112l16 158h-402l6 67h475l-24 -225h-71z" />
    <glyph glyph-name="registered" unicode="&#xae;" horiz-adv-x="549" 
d="M298 311q-41 0 -80 11.5t-74.5 36t-57 69.5t-21.5 104q0 104 65.5 164t166.5 60q94 0 162.5 -55.5t68.5 -168.5q0 -103 -65 -162t-165 -59zM303 353q78 0 128.5 47.5t50.5 131.5q0 89 -54.5 135.5t-129.5 46.5q-81 0 -133.5 -44.5t-52.5 -133.5q0 -55 20.5 -94t53 -57
t61 -25t56.5 -7zM413 417q-48 2 -72 27q-18 18 -51 70h-34v-91h-47v242h90q84 0 84 -75q0 -47 -45 -68q32 -44 36 -48q9 -9 45 -24zM256 547h31q51 0 51 42q0 22 -10 32t-36 10h-36v-84z" />
    <glyph glyph-name="macron" unicode="&#xaf;" horiz-adv-x="529" 
d="M163 670l7 64h261l-7 -64h-261z" />
    <glyph glyph-name="degree" unicode="&#xb0;" horiz-adv-x="401" 
d="M207 404q-74 0 -109 40t-28 118q7 68 56 111.5t118 43.5q73 0 110.5 -41t30.5 -114q-8 -73 -57 -115.5t-121 -42.5zM215 458q44 0 70.5 27t32.5 77q5 47 -16.5 74t-64.5 27t-69.5 -27t-31.5 -74q-6 -51 16 -77.5t63 -26.5z" />
    <glyph glyph-name="plusminus" unicode="&#xb1;" horiz-adv-x="545" 
d="M219 123l19 183h-183l7 67l183 -1l20 184h71l-21 -184l184 1l-7 -67h-183l-19 -183h-71zM23 0l7 68h437l-7 -68h-437z" />
    <glyph glyph-name="twosuperior" unicode="&#xb2;" horiz-adv-x="307" 
d="M-3 415l5 51q12 8 35.5 24t35 24t31.5 22t30 22.5t25 21.5t22.5 22.5t16 21.5t12.5 23t5 23q4 29 -12.5 44t-44.5 15q-53 0 -92 -34q-1 3 -11.5 21t-11.5 21q52 49 128 49q53 0 84.5 -29t26.5 -81q-4 -34 -21.5 -64t-51.5 -57.5t-57.5 -42.5t-66.5 -41h181l-6 -56h-263z
" />
    <glyph glyph-name="threesuperior" unicode="&#xb3;" horiz-adv-x="301" 
d="M114 410q-55 0 -106 16l19 51q45 -13 86 -13q85 0 90 55q4 36 -21 50t-81 18l4 39q94 8 99 64q1 22 -14.5 33.5t-41.5 11.5q-35 0 -73 -17q-1 3 -6 21.5t-6 21.5q50 26 100 26t80 -24.5t26 -64.5q-7 -62 -70 -86q38 -8 56 -33t15 -59q-6 -57 -50.5 -83.5t-105.5 -26.5z
" />
    <glyph glyph-name="acute" unicode="&#xb4;" horiz-adv-x="569" 
d="M258 618l-30 48l186 135l38 -60z" />
    <glyph glyph-name="mu" unicode="&#xb5;" horiz-adv-x="534" 
d="M21 -220l81 766h76l-41 -378q-4 -31 -4 -57q0 -32 11 -44.5t37 -12.5q29 0 61.5 18.5t73.5 52.5l40 34l41 387h76l-58 -546h-75l9 90q-6 -5 -35.5 -30.5t-45 -37t-45.5 -24t-58 -12.5q-34 2 -46 6l-22 -212h-76z" />
    <glyph glyph-name="paragraph" unicode="&#xb6;" horiz-adv-x="576" 
d="M262 -220q-39 0 -68 11l21 61q15 -5 55 -5q60 0 86 35.5t34 100.5l75 724h76l-76 -725q-22 -202 -203 -202zM250 270q-95 0 -148 45.5t-53 138.5q0 122 63 187.5t183 65.5h77l-45 -437h-77z" />
    <glyph glyph-name="periodcentered" unicode="&#xb7;" horiz-adv-x="238" 
d="M77 314l9 87h90l-9 -87h-90z" />
    <glyph glyph-name="cedilla" unicode="&#xb8;" horiz-adv-x="457" 
d="M164 -239l-21 44q59 34 66 77q2 23 -16 67h74q16 -32 13 -66q-7 -77 -116 -122z" />
    <glyph glyph-name="onesuperior" unicode="&#xb9;" horiz-adv-x="253" 
d="M95 415l33 312h-89l5 53q7 0 79 2t78 2l-39 -369h-67z" />
    <glyph glyph-name="ordmasculine" unicode="&#xba;" horiz-adv-x="405" 
d="M207 385q-49 0 -79.5 37.5t-30.5 91.5q0 92 41.5 149t113.5 57q53 0 81 -38t28 -93q0 -81 -38 -142.5t-116 -61.5zM216 435q41 0 63 50t22 102q0 33 -15.5 58t-44.5 25q-42 0 -62.5 -47.5t-20.5 -101.5q0 -36 14 -61t44 -25zM62 298l7 53h278l-7 -53h-278z" />
    <glyph glyph-name="guillemotright" unicode="&#xbb;" horiz-adv-x="432" 
d="M81 52l-52 25l106 195l-66 198l59 22l82 -220zM256 52l-52 25l106 195l-66 198l59 22l82 -220z" />
    <glyph glyph-name="onequarter" unicode="&#xbc;" horiz-adv-x="791" 
d="M562 1l9 88h-168l6 57l155 221h101l-24 -226h62l-5 -52h-62l-10 -88h-64zM460 141h116l20 189zM120 415l33 312h-89l5 53q7 0 79 2t78 2l-39 -369h-67zM91 76l-36 40l582 535l34 -38z" />
    <glyph glyph-name="onehalf" unicode="&#xbd;" horiz-adv-x="788" 
d="M401 0l5 51q12 8 35.5 24t35 24t31.5 22t30 22.5t25 21.5t22.5 22.5t16 21.5t12.5 23t5 23q4 29 -12.5 44t-44.5 15q-53 0 -92 -34q-1 3 -11.5 21t-11.5 21q52 49 128 49q53 0 84.5 -29t26.5 -81q-4 -34 -21.5 -64t-51.5 -57.5t-57.5 -42.5t-66.5 -41h181l-6 -56h-263z
M120 415l33 312h-89l5 53q7 0 79 2t78 2l-39 -369h-67zM82 76l-36 40l582 535l34 -38z" />
    <glyph glyph-name="threequarters" unicode="&#xbe;" horiz-adv-x="794" 
d="M565 1l9 88h-168l6 57l155 221h101l-24 -226h62l-5 -52h-62l-10 -88h-64zM105 76l-36 40l582 535l34 -38zM130 410q-55 0 -106 16l19 51q45 -13 86 -13q85 0 90 55q4 36 -21 50t-81 18l4 39q94 8 99 64q1 22 -14.5 33.5t-41.5 11.5q-35 0 -73 -17q-1 3 -6 21.5t-6 21.5
q50 26 100 26t80 -24.5t26 -64.5q-7 -62 -70 -86q38 -8 56 -33t15 -59q-6 -57 -50.5 -83.5t-105.5 -26.5zM463 141h116l20 189z" />
    <glyph glyph-name="questiondown" unicode="&#xbf;" horiz-adv-x="322" 
d="M225 -163q-90 7 -156.5 52.5t-66.5 128.5q0 44 18 80t44.5 61t53.5 47.5t48 51t25 59.5q1 13 -1 57l68 9q6 -24 6 -50q0 -37 -13.5 -69.5t-33.5 -55.5t-44 -46.5t-44 -42t-33.5 -42.5t-13.5 -49q0 -39 27.5 -67.5t63.5 -41.5t75 -16zM186 461l9 85h86l-8 -85h-87z" />
    <glyph glyph-name="Agrave" unicode="&#xc0;" horiz-adv-x="636" 
d="M439 736l-220 65l27 72l211 -82zM-34 0l352 707h118l148 -707h-82l-53 266h-270l-131 -266h-82zM210 330h225l-53 276l-11 60l-27 -61z" />
    <glyph glyph-name="Aacute" unicode="&#xc1;" horiz-adv-x="636" 
d="M-34 0l352 707h118l148 -707h-82l-53 266h-270l-131 -266h-82zM210 330h225l-53 276l-11 60l-27 -61zM313 737l-16 54l229 80l19 -70z" />
    <glyph glyph-name="Acircumflex" unicode="&#xc2;" horiz-adv-x="636" 
d="M-34 0l352 707h118l148 -707h-82l-53 266h-270l-131 -266h-82zM210 330h225l-53 276l-11 60l-27 -61zM526 737l-136 69l-155 -68l-21 54l182 85l160 -85z" />
    <glyph glyph-name="Atilde" unicode="&#xc3;" horiz-adv-x="636" 
d="M-34 0l352 707h118l148 -707h-82l-53 266h-270l-131 -266h-82zM210 330h225l-53 276l-11 60l-27 -61zM442 747q-20 0 -62 18.5t-60 18.5q-36 0 -73 -25l-27 43q52 45 106 45q25 0 65 -18t58 -18q35 0 74 27l25 -45q-52 -46 -106 -46z" />
    <glyph glyph-name="Adieresis" unicode="&#xc4;" horiz-adv-x="636" 
d="M-34 0l352 707h118l148 -707h-82l-53 266h-270l-131 -266h-82zM210 330h225l-53 276l-11 60l-27 -61zM239 764l9 92h74l-9 -92h-74zM448 764l9 92h74l-9 -92h-74z" />
    <glyph glyph-name="Aring" unicode="&#xc5;" horiz-adv-x="636" 
d="M-34 0l352 707h118l148 -707h-82l-53 266h-270l-131 -266h-82zM210 330h225l-53 276l-11 60l-27 -61zM383 736q-38 0 -64.5 20t-26.5 54q0 46 31 74.5t77 28.5q36 0 62.5 -22t26.5 -56q0 -45 -30 -72t-76 -27zM386 771q24 0 41 16t17 40q0 21 -14 34.5t-35 13.5
q-26 0 -42 -15.5t-16 -40.5q0 -22 14 -35t35 -13z" />
    <glyph glyph-name="AE" unicode="&#xc6;" horiz-adv-x="906" 
d="M-50 0l468 707h455l-6 -65h-314l-27 -254h293l-8 -66h-291l-28 -257h338l-7 -65h-416l35 322h-197l-206 -322h-89zM286 387h162l28 255h-26z" />
    <glyph glyph-name="Ccedilla" unicode="&#xc7;" horiz-adv-x="638" 
d="M378 -10q-146 0 -232.5 86t-86.5 234q0 183 104.5 293t287.5 110q100 0 164 -28l-27 -63q-65 23 -143 23q-145 0 -224.5 -90.5t-79.5 -239.5q0 -122 70.5 -188t192.5 -66q88 0 152 21l15 -66q-82 -26 -193 -26zM300 -239l-21 44q59 34 66 77q2 23 -16 67h74
q16 -32 13 -66q-7 -77 -116 -122z" />
    <glyph glyph-name="Egrave" unicode="&#xc8;" horiz-adv-x="567" 
d="M413 736l-220 65l27 72l211 -82zM67 0l75 707h393l-7 -65h-314l-26 -254h291l-6 -66h-292l-27 -257h337l-7 -65h-417z" />
    <glyph glyph-name="Eacute" unicode="&#xc9;" horiz-adv-x="567" 
d="M274 737l-16 54l229 80l19 -70zM67 0l75 707h393l-7 -65h-314l-26 -254h291l-6 -66h-292l-27 -257h337l-7 -65h-417z" />
    <glyph glyph-name="Ecircumflex" unicode="&#xca;" horiz-adv-x="567" 
d="M67 0l75 707h393l-7 -65h-314l-26 -254h291l-6 -66h-292l-27 -257h337l-7 -65h-417zM485 737l-136 69l-155 -68l-21 54l182 85l160 -85z" />
    <glyph glyph-name="Edieresis" unicode="&#xcb;" horiz-adv-x="567" 
d="M208 764l9 92h74l-9 -92h-74zM417 764l9 92h74l-9 -92h-74zM67 0l75 707h393l-7 -65h-314l-26 -254h291l-6 -66h-292l-27 -257h337l-7 -65h-417z" />
    <glyph glyph-name="Igrave" unicode="&#xcc;" horiz-adv-x="278" 
d="M231 736l-220 65l27 72l211 -82zM67 0l75 707h79l-74 -707h-80z" />
    <glyph glyph-name="Iacute" unicode="&#xcd;" horiz-adv-x="278" 
d="M67 0l75 707h79l-74 -707h-80zM135 737l-16 54l229 80l19 -70z" />
    <glyph glyph-name="Icircumflex" unicode="&#xce;" horiz-adv-x="278" 
d="M67 0l75 707h79l-74 -707h-80zM332 737l-136 69l-155 -68l-21 54l182 85l160 -85z" />
    <glyph glyph-name="Idieresis" unicode="&#xcf;" horiz-adv-x="278" 
d="M67 0l75 707h79l-74 -707h-80zM47 764l9 92h74l-9 -92h-74zM256 764l9 92h74l-9 -92h-74z" />
    <glyph glyph-name="Eth" unicode="&#xd0;" horiz-adv-x="753" 
d="M55 320l7 65h71l34 322h187q157 0 253 -77.5t96 -234.5q0 -194 -108.5 -294.5t-305.5 -100.5h-197l34 320h-71zM178 66h126q154 0 236 82t82 243q0 128 -74 189t-204 61h-105l-27 -256h147l-7 -65h-147z" />
    <glyph glyph-name="Ntilde" unicode="&#xd1;" horiz-adv-x="724" 
d="M480 747q-20 0 -62 18.5t-60 18.5q-36 0 -73 -25l-27 43q52 45 106 45q25 0 65 -18t58 -18q35 0 74 27l25 -45q-52 -46 -106 -46zM67 0l76 707h116l264 -649l66 649h79l-76 -707h-123l-256 633l-66 -633h-80z" />
    <glyph glyph-name="Ograve" unicode="&#xd2;" horiz-adv-x="801" 
d="M507 736l-220 65l27 72l211 -82zM359 -11q-143 0 -221 85.5t-78 232.5q0 184 104.5 297.5t285.5 113.5q143 0 222 -85.5t79 -232.5q0 -185 -105 -298t-287 -113zM369 55q143 0 221 97t78 245q0 116 -59 184.5t-171 68.5q-141 0 -219 -95.5t-78 -242.5q0 -116 58 -186.5
t170 -70.5z" />
    <glyph glyph-name="Oacute" unicode="&#xd3;" horiz-adv-x="801" 
d="M362 737l-16 54l229 80l19 -70zM359 -11q-143 0 -221 85.5t-78 232.5q0 184 104.5 297.5t285.5 113.5q143 0 222 -85.5t79 -232.5q0 -185 -105 -298t-287 -113zM369 55q143 0 221 97t78 245q0 116 -59 184.5t-171 68.5q-141 0 -219 -95.5t-78 -242.5q0 -116 58 -186.5
t170 -70.5z" />
    <glyph glyph-name="Ocircumflex" unicode="&#xd4;" horiz-adv-x="801" 
d="M587 737l-136 69l-155 -68l-21 54l182 85l160 -85zM359 -11q-143 0 -221 85.5t-78 232.5q0 184 104.5 297.5t285.5 113.5q143 0 222 -85.5t79 -232.5q0 -185 -105 -298t-287 -113zM369 55q143 0 221 97t78 245q0 116 -59 184.5t-171 68.5q-141 0 -219 -95.5t-78 -242.5
q0 -116 58 -186.5t170 -70.5z" />
    <glyph glyph-name="Otilde" unicode="&#xd5;" horiz-adv-x="801" 
d="M507 747q-21 0 -63 18.5t-59 18.5q-35 0 -73 -25l-27 43q52 45 106 45q25 0 65 -18t58 -18q35 0 74 27l25 -45q-52 -46 -106 -46zM359 -11q-143 0 -221 85.5t-78 232.5q0 184 104.5 297.5t285.5 113.5q143 0 222 -85.5t79 -232.5q0 -185 -105 -298t-287 -113zM369 55
q143 0 221 97t78 245q0 116 -59 184.5t-171 68.5q-141 0 -219 -95.5t-78 -242.5q0 -116 58 -186.5t170 -70.5z" />
    <glyph glyph-name="Odieresis" unicode="&#xd6;" horiz-adv-x="801" 
d="M306 764l9 92h74l-9 -92h-74zM515 764l9 92h74l-9 -92h-74zM359 -11q-143 0 -221 85.5t-78 232.5q0 184 104.5 297.5t285.5 113.5q143 0 222 -85.5t79 -232.5q0 -185 -105 -298t-287 -113zM369 55q143 0 221 97t78 245q0 116 -59 184.5t-171 68.5q-141 0 -219 -95.5
t-78 -242.5q0 -116 58 -186.5t170 -70.5z" />
    <glyph glyph-name="multiply" unicode="&#xd7;" horiz-adv-x="547" 
d="M427 81l-160 180l-191 -173l-43 48l191 173l-154 171l51 47l153 -172l196 176l44 -48l-198 -177l162 -179z" />
    <glyph glyph-name="Oslash" unicode="&#xd8;" horiz-adv-x="826" 
d="M88 -29l-41 39l84 87q-58 82 -58 210q0 184 104.5 297.5t285.5 113.5q123 0 202 -66l79 81l41 -40l-80 -84q59 -80 59 -209q0 -185 -105 -298t-287 -113q-127 0 -202 67zM190 157l419 438q-60 55 -158 55q-141 0 -219 -96t-78 -242q0 -95 36 -155zM382 55q143 0 221.5 97
t78.5 245q0 89 -37 151l-420 -436q59 -57 157 -57z" />
    <glyph glyph-name="Ugrave" unicode="&#xd9;" horiz-adv-x="725" 
d="M487 736l-220 65l27 72l211 -82zM337 -12q-51 0 -94 10t-80.5 33t-59 66.5t-21.5 104.5q0 26 2 40l49 465h81l-48 -458q-2 -26 -2 -36q0 -157 174 -157q90 0 146 49t69 168l45 434h76l-46 -437q-8 -81 -36.5 -139t-71.5 -87.5t-87.5 -42.5t-95.5 -13z" />
    <glyph glyph-name="Uacute" unicode="&#xda;" horiz-adv-x="725" 
d="M344 737l-16 54l229 80l19 -70zM337 -12q-51 0 -94 10t-80.5 33t-59 66.5t-21.5 104.5q0 26 2 40l49 465h81l-48 -458q-2 -26 -2 -36q0 -157 174 -157q90 0 146 49t69 168l45 434h76l-46 -437q-8 -81 -36.5 -139t-71.5 -87.5t-87.5 -42.5t-95.5 -13z" />
    <glyph glyph-name="Ucircumflex" unicode="&#xdb;" horiz-adv-x="725" 
d="M337 -12q-51 0 -94 10t-80.5 33t-59 66.5t-21.5 104.5q0 26 2 40l49 465h81l-48 -458q-2 -26 -2 -36q0 -157 174 -157q90 0 146 49t69 168l45 434h76l-46 -437q-8 -81 -36.5 -139t-71.5 -87.5t-87.5 -42.5t-95.5 -13zM557 737l-136 69l-155 -68l-21 54l182 85l160 -85z
" />
    <glyph glyph-name="Udieresis" unicode="&#xdc;" horiz-adv-x="725" 
d="M264 764l9 92h74l-9 -92h-74zM473 764l9 92h74l-9 -92h-74zM337 -12q-51 0 -94 10t-80.5 33t-59 66.5t-21.5 104.5q0 26 2 40l49 465h81l-48 -458q-2 -26 -2 -36q0 -157 174 -157q90 0 146 49t69 168l45 434h76l-46 -437q-8 -81 -36.5 -139t-71.5 -87.5t-87.5 -42.5
t-95.5 -13z" />
    <glyph glyph-name="Yacute" unicode="&#xdd;" horiz-adv-x="591" 
d="M219 0l29 274l-184 433h89l144 -365l235 365h86l-291 -432l-28 -275h-80zM284 737l-16 54l229 80l19 -70z" />
    <glyph glyph-name="Thorn" unicode="&#xde;" horiz-adv-x="591" 
d="M67 0l75 707h79l-13 -129h121q52 0 91.5 -8t73 -27.5t51 -57.5t17.5 -93q0 -125 -78.5 -188.5t-206.5 -63.5h-115l-14 -140h-81zM201 513l-32 -306h92q104 0 160 42t56 139q0 69 -39 97t-111 28h-126z" />
    <glyph glyph-name="germandbls" unicode="&#xdf;" horiz-adv-x="578" 
d="M24 -220l82 793q11 106 71.5 153.5t151.5 47.5q61 0 112.5 -38.5t51.5 -110.5q0 -36 -21.5 -71.5t-47.5 -58t-47.5 -47t-21.5 -41.5q0 -23 18.5 -46t45 -43.5t53 -44t45 -58.5t18.5 -76q0 -52 -32.5 -87.5t-73.5 -48.5t-85 -13q-70 0 -143 25l19 64q59 -21 120 -21
q49 0 84 20.5t35 50.5q0 33 -18.5 61t-44.5 49t-52 43t-44.5 52.5t-18.5 66.5q0 25 14 49t33.5 43t39.5 38.5t34 44t14 50.5q0 35 -28.5 58t-67.5 23q-68 0 -100 -34.5t-38 -100.5l-83 -792h-75z" />
    <glyph glyph-name="agrave" unicode="&#xe0;" horiz-adv-x="510" 
d="M142 -13q-55 0 -82.5 44.5t-27.5 118.5q0 68 22.5 138t62.5 129t103 96.5t137 37.5q53 0 99 -8l-56 -543h-76l11 99q-63 -57 -108.5 -84.5t-84.5 -27.5zM161 59q31 0 86.5 40t94.5 77l33 307q-8 2 -34 2q-70 0 -125 -54t-81 -127t-26 -146q0 -44 13 -71.5t39 -27.5z
M413 615l-184 119l38 60l177 -129z" />
    <glyph glyph-name="aacute" unicode="&#xe1;" horiz-adv-x="510" 
d="M142 -13q-55 0 -82.5 44.5t-27.5 118.5q0 68 22.5 138t62.5 129t103 96.5t137 37.5q53 0 99 -8l-56 -543h-76l11 99q-63 -57 -108.5 -84.5t-84.5 -27.5zM161 59q31 0 86.5 40t94.5 77l33 307q-8 2 -34 2q-70 0 -125 -54t-81 -127t-26 -146q0 -44 13 -71.5t39 -27.5z
M300 618l-30 48l186 135l38 -60z" />
    <glyph glyph-name="acircumflex" unicode="&#xe2;" horiz-adv-x="510" 
d="M491 621l-132 90l-151 -90l-32 50l191 115l160 -115zM142 -13q-55 0 -82.5 44.5t-27.5 118.5q0 68 22.5 138t62.5 129t103 96.5t137 37.5q53 0 99 -8l-56 -543h-76l11 99q-63 -57 -108.5 -84.5t-84.5 -27.5zM161 59q31 0 86.5 40t94.5 77l33 307q-8 2 -34 2
q-70 0 -125 -54t-81 -127t-26 -146q0 -44 13 -71.5t39 -27.5z" />
    <glyph glyph-name="atilde" unicode="&#xe3;" horiz-adv-x="510" 
d="M142 -13q-55 0 -82.5 44.5t-27.5 118.5q0 68 22.5 138t62.5 129t103 96.5t137 37.5q53 0 99 -8l-56 -543h-76l11 99q-63 -57 -108.5 -84.5t-84.5 -27.5zM161 59q31 0 86.5 40t94.5 77l33 307q-8 2 -34 2q-70 0 -125 -54t-81 -127t-26 -146q0 -44 13 -71.5t39 -27.5z
M416 646q-20 0 -62 18t-60 18q-38 0 -70 -24l-29 42q47 47 105 47q26 0 64.5 -18t56.5 -18q34 0 73 27l27 -43q-45 -49 -105 -49z" />
    <glyph glyph-name="adieresis" unicode="&#xe4;" horiz-adv-x="510" 
d="M220 669l10 93h75l-10 -93h-75zM417 669l9 93h75l-10 -93h-74zM142 -13q-55 0 -82.5 44.5t-27.5 118.5q0 68 22.5 138t62.5 129t103 96.5t137 37.5q53 0 99 -8l-56 -543h-76l11 99q-63 -57 -108.5 -84.5t-84.5 -27.5zM161 59q31 0 86.5 40t94.5 77l33 307q-8 2 -34 2
q-70 0 -125 -54t-81 -127t-26 -146q0 -44 13 -71.5t39 -27.5z" />
    <glyph glyph-name="aring" unicode="&#xe5;" horiz-adv-x="510" 
d="M142 -13q-55 0 -82.5 44.5t-27.5 118.5q0 68 22.5 138t62.5 129t103 96.5t137 37.5q53 0 99 -8l-56 -543h-76l11 99q-63 -57 -108.5 -84.5t-84.5 -27.5zM161 59q31 0 86.5 40t94.5 77l33 307q-8 2 -34 2q-70 0 -125 -54t-81 -127t-26 -146q0 -44 13 -71.5t39 -27.5z
M354 616q-42 0 -71.5 22.5t-29.5 60.5q0 51 34.5 82.5t85.5 31.5q41 0 70 -24t29 -62q0 -50 -33.5 -80.5t-84.5 -30.5zM357 657q28 0 46 17t18 44q0 24 -15 38t-38 14q-29 0 -46.5 -17t-17.5 -45q0 -24 14.5 -37.5t38.5 -13.5z" />
    <glyph glyph-name="ae" unicode="&#xe6;" horiz-adv-x="767" 
d="M144 -13q-55 0 -81.5 48.5t-26.5 129.5q0 166 92.5 276t230.5 110q49 0 93 -8l-7 -62q65 80 162 80q72 0 104 -34t32 -90q0 -94 -143 -146l-177 -66q0 -5 -0.5 -14t-0.5 -13q0 -142 65 -142q54 0 170 55l27 -57q-37 -21 -61 -32.5t-66 -22.5t-84 -11q-101 0 -120 125
q-128 -126 -209 -126zM163 59q31 0 86.5 41t92.5 76l33 307l-41 2q-89 3 -155 -91t-66 -209q0 -73 12.5 -99.5t37.5 -26.5zM431 292l157 62q81 34 81 80q0 32 -19 47t-46 15q-40 0 -71.5 -17.5t-51 -48t-31.5 -64.5t-19 -74z" />
    <glyph glyph-name="ccedilla" unicode="&#xe7;" horiz-adv-x="449" 
d="M172 -12q-48 0 -78.5 32.5t-41 74t-10.5 89.5q0 160 72 268t196 108q77 0 128 -49l-42 -48q-43 33 -91 33q-51 0 -89 -30t-57 -78t-28 -95.5t-9 -94.5q0 -66 16.5 -103.5t39.5 -37.5q72 0 182 57l27 -54q-36 -22 -59.5 -34t-67.5 -25t-88 -13zM147 -239l-21 44
q59 34 66 77q2 23 -16 67h74q16 -32 13 -66q-7 -77 -116 -122z" />
    <glyph glyph-name="egrave" unicode="&#xe8;" horiz-adv-x="468" 
d="M173 -12q-129 0 -129 204q0 100 29 182.5t90 134.5t144 52q69 0 103 -35.5t34 -89.5q0 -94 -143 -146l-178 -66v-27q0 -141 63 -141q65 0 171 55l27 -57q-37 -21 -61.5 -32.5t-66 -22.5t-83.5 -11zM130 291l159 62q38 15 59.5 36t21.5 44q0 33 -19.5 48t-46.5 15
q-137 0 -174 -205zM333 615l-184 119l38 60l177 -129z" />
    <glyph glyph-name="eacute" unicode="&#xe9;" horiz-adv-x="468" 
d="M173 -12q-129 0 -129 204q0 100 29 182.5t90 134.5t144 52q69 0 103 -35.5t34 -89.5q0 -94 -143 -146l-178 -66v-27q0 -141 63 -141q65 0 171 55l27 -57q-37 -21 -61.5 -32.5t-66 -22.5t-83.5 -11zM130 291l159 62q38 15 59.5 36t21.5 44q0 33 -19.5 48t-46.5 15
q-137 0 -174 -205zM234 618l-30 48l186 135l38 -60z" />
    <glyph glyph-name="ecircumflex" unicode="&#xea;" horiz-adv-x="468" 
d="M173 -12q-129 0 -129 204q0 100 29 182.5t90 134.5t144 52q69 0 103 -35.5t34 -89.5q0 -94 -143 -146l-178 -66v-27q0 -141 63 -141q65 0 171 55l27 -57q-37 -21 -61.5 -32.5t-66 -22.5t-83.5 -11zM130 291l159 62q38 15 59.5 36t21.5 44q0 33 -19.5 48t-46.5 15
q-137 0 -174 -205zM440 621l-132 90l-151 -90l-32 50l191 115l160 -115z" />
    <glyph glyph-name="edieresis" unicode="&#xeb;" horiz-adv-x="468" 
d="M173 -12q-129 0 -129 204q0 100 29 182.5t90 134.5t144 52q69 0 103 -35.5t34 -89.5q0 -94 -143 -146l-178 -66v-27q0 -141 63 -141q65 0 171 55l27 -57q-37 -21 -61.5 -32.5t-66 -22.5t-83.5 -11zM130 291l159 62q38 15 59.5 36t21.5 44q0 33 -19.5 48t-46.5 15
q-137 0 -174 -205zM168 669l10 93h75l-10 -93h-75zM365 669l9 93h75l-10 -93h-74z" />
    <glyph glyph-name="igrave" unicode="&#xec;" horiz-adv-x="233" 
d="M47 0l57 546h76l-57 -546h-76zM191 615l-184 119l38 60l177 -129z" />
    <glyph glyph-name="iacute" unicode="&#xed;" horiz-adv-x="233" 
d="M103 618l-30 48l186 135l38 -60zM47 0l57 546h76l-57 -546h-76z" />
    <glyph glyph-name="icircumflex" unicode="&#xee;" horiz-adv-x="233" 
d="M298 621l-132 90l-151 -90l-32 50l191 115l160 -115zM47 0l57 546h76l-57 -546h-76z" />
    <glyph glyph-name="idieresis" unicode="&#xef;" horiz-adv-x="233" 
d="M18 669l10 93h75l-10 -93h-75zM215 669l9 93h75l-10 -93h-74zM47 0l57 546h76l-57 -546h-76z" />
    <glyph glyph-name="eth" unicode="&#xf0;" horiz-adv-x="523" 
d="M200 -12q-74 0 -117 56.5t-43 135.5q0 171 73.5 273.5t192.5 104.5q29 0 53 -11q-13 41 -33 78l-97 -34l-18 48l86 29q-23 30 -47 50l49 51q36 -26 67 -68l98 34l19 -47l-88 -31q75 -134 75 -298q0 -61 -14.5 -122.5t-44.5 -119t-85 -93.5t-126 -36zM224 54
q73 0 120.5 89.5t47.5 214.5q0 70 -25.5 104t-81.5 34q-68 0 -116.5 -92.5t-48.5 -208.5q0 -141 104 -141z" />
    <glyph glyph-name="ntilde" unicode="&#xf1;" horiz-adv-x="526" 
d="M380 646q-20 0 -62 18t-60 18q-38 0 -70 -24l-29 42q47 47 105 47q26 0 64.5 -18t56.5 -18q34 0 73 27l27 -43q-45 -49 -105 -49zM47 0l57 546h77l-9 -90q41 35 63.5 52t60.5 34.5t74 17.5q52 0 73 -25t21 -80q0 -27 -3 -61l-43 -394h-76l41 378q4 27 4 52q0 32 -9.5 45
t-34.5 13q-56 0 -179 -101l-41 -387h-76z" />
    <glyph glyph-name="ograve" unicode="&#xf2;" horiz-adv-x="515" 
d="M350 615l-184 119l38 60l177 -129zM200 -12q-74 0 -117 55t-43 137q0 173 75 276.5t197 103.5q75 0 116 -55.5t41 -131.5q0 -69 -14.5 -134t-44.5 -123t-84 -93t-126 -35zM219 54q71 0 121.5 86.5t50.5 217.5q0 72 -24 105t-78 33q-69 0 -119.5 -88t-50.5 -213
q0 -141 100 -141z" />
    <glyph glyph-name="oacute" unicode="&#xf3;" horiz-adv-x="515" 
d="M254 618l-30 48l186 135l38 -60zM200 -12q-74 0 -117 55t-43 137q0 173 75 276.5t197 103.5q75 0 116 -55.5t41 -131.5q0 -69 -14.5 -134t-44.5 -123t-84 -93t-126 -35zM219 54q71 0 121.5 86.5t50.5 217.5q0 72 -24 105t-78 33q-69 0 -119.5 -88t-50.5 -213
q0 -141 100 -141z" />
    <glyph glyph-name="ocircumflex" unicode="&#xf4;" horiz-adv-x="515" 
d="M457 621l-132 90l-151 -90l-32 50l191 115l160 -115zM200 -12q-74 0 -117 55t-43 137q0 173 75 276.5t197 103.5q75 0 116 -55.5t41 -131.5q0 -69 -14.5 -134t-44.5 -123t-84 -93t-126 -35zM219 54q71 0 121.5 86.5t50.5 217.5q0 72 -24 105t-78 33q-69 0 -119.5 -88
t-50.5 -213q0 -141 100 -141z" />
    <glyph glyph-name="otilde" unicode="&#xf5;" horiz-adv-x="515" 
d="M200 -12q-74 0 -117 55t-43 137q0 173 75 276.5t197 103.5q75 0 116 -55.5t41 -131.5q0 -69 -14.5 -134t-44.5 -123t-84 -93t-126 -35zM219 54q71 0 121.5 86.5t50.5 217.5q0 72 -24 105t-78 33q-69 0 -119.5 -88t-50.5 -213q0 -141 100 -141zM375 646q-21 0 -63 18
t-59 18q-38 0 -70 -24l-29 42q47 47 105 47q26 0 64.5 -18t56.5 -18q34 0 73 27l27 -43q-45 -49 -105 -49z" />
    <glyph glyph-name="odieresis" unicode="&#xf6;" horiz-adv-x="515" 
d="M171 669l10 93h75l-10 -93h-75zM368 669l9 93h75l-10 -93h-74zM200 -12q-74 0 -117 55t-43 137q0 173 75 276.5t197 103.5q75 0 116 -55.5t41 -131.5q0 -69 -14.5 -134t-44.5 -123t-84 -93t-126 -35zM219 54q71 0 121.5 86.5t50.5 217.5q0 72 -24 105t-78 33
q-69 0 -119.5 -88t-50.5 -213q0 -141 100 -141z" />
    <glyph glyph-name="divide" unicode="&#xf7;" horiz-adv-x="643" 
d="M251 68l8 78h80l-9 -78h-79zM63 270l7 66h509l-7 -66h-509zM292 461l9 79h79l-8 -79h-80z" />
    <glyph glyph-name="oslash" unicode="&#xf8;" horiz-adv-x="546" 
d="M35 -28l-36 30l76 90q-16 42 -16 88q0 171 75 275.5t196 104.5q65 0 108 -48l54 62l36 -31l-62 -73q22 -46 22 -97q0 -69 -14.5 -134t-44.5 -123t-84 -93t-126 -35q-73 0 -119 59zM140 167l250 289q-25 40 -83 40q-66 0 -117 -84.5t-52 -211.5q0 -13 2 -33zM237 54
q70 0 121 85.5t52 215.5q0 11 -3 47l-255 -295q22 -53 85 -53z" />
    <glyph glyph-name="ugrave" unicode="&#xf9;" horiz-adv-x="525" 
d="M159 -11q-56 0 -80 26t-24 86q0 22 3 48l43 397h76l-42 -378q-3 -32 -3 -53q0 -34 10.5 -47t36.5 -13q70 0 175 103l42 388h76l-58 -546h-76l9 90q-50 -50 -93 -75.5t-95 -25.5zM342 614l-184 119l38 60l177 -129z" />
    <glyph glyph-name="uacute" unicode="&#xfa;" horiz-adv-x="525" 
d="M256 618l-30 48l186 135l38 -60zM159 -11q-56 0 -80 26t-24 86q0 22 3 48l43 397h76l-42 -378q-3 -32 -3 -53q0 -34 10.5 -47t36.5 -13q70 0 175 103l42 388h76l-58 -546h-76l9 90q-50 -50 -93 -75.5t-95 -25.5z" />
    <glyph glyph-name="ucircumflex" unicode="&#xfb;" horiz-adv-x="525" 
d="M444 621l-132 90l-151 -90l-32 50l191 115l160 -115zM159 -11q-56 0 -80 26t-24 86q0 22 3 48l43 397h76l-42 -378q-3 -32 -3 -53q0 -34 10.5 -47t36.5 -13q70 0 175 103l42 388h76l-58 -546h-76l9 90q-50 -50 -93 -75.5t-95 -25.5z" />
    <glyph glyph-name="udieresis" unicode="&#xfc;" horiz-adv-x="525" 
d="M162 669l10 93h75l-10 -93h-75zM359 669l9 93h75l-10 -93h-74zM159 -11q-56 0 -80 26t-24 86q0 22 3 48l43 397h76l-42 -378q-3 -32 -3 -53q0 -34 10.5 -47t36.5 -13q70 0 175 103l42 388h76l-58 -546h-76l9 90q-50 -50 -93 -75.5t-95 -25.5z" />
    <glyph glyph-name="yacute" unicode="&#xfd;" horiz-adv-x="477" 
d="M66 -220l107 220h-41l-85 546h82l70 -492l147 307q45 90 45 166q0 4 -0.5 10t-0.5 9h79q0 -2 0.5 -10t0.5 -9q0 -72 -48 -174l-277 -573h-79zM236 618l-30 48l186 135l38 -60z" />
    <glyph glyph-name="thorn" unicode="&#xfe;" horiz-adv-x="532" 
d="M21 -220l106 973h76l-30 -276q105 74 179 74q66 0 100 -38t34 -123q0 -75 -18 -144.5t-52.5 -127t-93 -92t-132.5 -34.5q-29 0 -69 6l-24 -218h-76zM197 57q57 0 100 34t66 87t34 107t11 104q0 97 -64 97q-60 0 -178 -82l-38 -337q58 -10 69 -10z" />
    <glyph glyph-name="ydieresis" unicode="&#xff;" horiz-adv-x="477" 
d="M136 669l10 93h75l-10 -93h-75zM333 669l9 93h75l-10 -93h-74zM66 -220l107 220h-41l-85 546h82l70 -492l147 307q45 90 45 166q0 4 -0.5 10t-0.5 9h79q0 -2 0.5 -10t0.5 -9q0 -72 -48 -174l-277 -573h-79z" />
    <glyph glyph-name="Amacron" unicode="&#x100;" horiz-adv-x="636" 
d="M-34 0l352 707h118l148 -707h-82l-53 266h-270l-131 -266h-82zM210 330h225l-53 276l-11 60l-27 -61zM241 766l7 64h282l-7 -64h-282z" />
    <glyph glyph-name="amacron" unicode="&#x101;" horiz-adv-x="510" 
d="M142 -13q-55 0 -82.5 44.5t-27.5 118.5q0 68 22.5 138t62.5 129t103 96.5t137 37.5q53 0 99 -8l-56 -543h-76l11 99q-63 -57 -108.5 -84.5t-84.5 -27.5zM161 59q31 0 86.5 40t94.5 77l33 307q-8 2 -34 2q-70 0 -125 -54t-81 -127t-26 -146q0 -44 13 -71.5t39 -27.5z
M222 670l7 64h261l-7 -64h-261z" />
    <glyph glyph-name="Abreve" unicode="&#x102;" horiz-adv-x="636" 
d="M-34 0l352 707h118l148 -707h-82l-53 266h-270l-131 -266h-82zM210 330h225l-53 276l-11 60l-27 -61zM377 753q-45 0 -82.5 25t-53.5 56l44 38q41 -58 100 -58q68 0 112 57l34 -36q-61 -82 -154 -82z" />
    <glyph glyph-name="abreve" unicode="&#x103;" horiz-adv-x="510" 
d="M142 -13q-55 0 -82.5 44.5t-27.5 118.5q0 68 22.5 138t62.5 129t103 96.5t137 37.5q53 0 99 -8l-56 -543h-76l11 99q-63 -57 -108.5 -84.5t-84.5 -27.5zM161 59q31 0 86.5 40t94.5 77l33 307q-8 2 -34 2q-70 0 -125 -54t-81 -127t-26 -146q0 -44 13 -71.5t39 -27.5z
M343 645q-44 0 -82 25t-54 56l44 39q39 -58 100 -58q68 0 112 57l34 -37q-63 -82 -154 -82z" />
    <glyph glyph-name="Aogonek" unicode="&#x104;" horiz-adv-x="636" 
d="M503 -225q-62 0 -85 28t-20 73q5 66 102 131l-51 259h-270l-131 -266h-82l352 707h118l148 -707q-41 -24 -76.5 -55t-37.5 -59q-3 -27 12 -37.5t46 -10.5q29 0 45 8l12 -55q-28 -16 -82 -16zM210 330h225l-64 336z" />
    <glyph glyph-name="aogonek" unicode="&#x105;" horiz-adv-x="510" 
d="M318 -225q-54 0 -79.5 25.5t-25.5 67.5q0 38 34 76.5t78 65.5l10 89q-63 -57 -108.5 -84.5t-84.5 -27.5q-55 0 -82.5 44.5t-27.5 118.5q0 68 22.5 138t62.5 129t103 96.5t137 37.5q53 0 99 -8l-57 -543q-41 -24 -76.5 -56t-36.5 -60q-1 -27 13 -36.5t45 -9.5q26 0 45 8
l12 -55q-30 -16 -83 -16zM161 59q31 0 86.5 40t94.5 77l33 307q-8 2 -34 2q-70 0 -125 -54t-81 -127t-26 -146q0 -44 13 -71.5t39 -27.5z" />
    <glyph glyph-name="Cacute" unicode="&#x106;" horiz-adv-x="638" 
d="M378 -10q-146 0 -232.5 86t-86.5 234q0 183 104.5 293t287.5 110q100 0 164 -28l-27 -63q-65 23 -143 23q-145 0 -224.5 -90.5t-79.5 -239.5q0 -122 70.5 -188t192.5 -66q88 0 152 21l15 -66q-82 -26 -193 -26zM352 737l-16 54l229 80l19 -70z" />
    <glyph glyph-name="cacute" unicode="&#x107;" horiz-adv-x="450" 
d="M250 618l-30 48l186 135l38 -60zM172 -12q-48 0 -78.5 32.5t-41 74t-10.5 89.5q0 160 72 268t196 108q77 0 128 -49l-42 -48q-43 33 -91 33q-51 0 -89 -30t-57 -78t-28 -95.5t-9 -94.5q0 -66 16.5 -103.5t39.5 -37.5q72 0 182 57l27 -54q-36 -22 -59.5 -34t-67.5 -25
t-88 -13z" />
    <glyph glyph-name="Ccircumflex" unicode="&#x108;" horiz-adv-x="638" 
d="M378 -10q-146 0 -232.5 86t-86.5 234q0 183 104.5 293t287.5 110q100 0 164 -28l-27 -63q-65 23 -143 23q-145 0 -224.5 -90.5t-79.5 -239.5q0 -122 70.5 -188t192.5 -66q88 0 152 21l15 -66q-82 -26 -193 -26zM593 737l-136 69l-155 -68l-21 54l182 85l160 -85z" />
    <glyph glyph-name="ccircumflex" unicode="&#x109;" horiz-adv-x="450" 
d="M448 621l-132 90l-151 -90l-32 50l191 115l160 -115zM172 -12q-48 0 -78.5 32.5t-41 74t-10.5 89.5q0 160 72 268t196 108q77 0 128 -49l-42 -48q-43 33 -91 33q-51 0 -89 -30t-57 -78t-28 -95.5t-9 -94.5q0 -66 16.5 -103.5t39.5 -37.5q72 0 182 57l27 -54
q-36 -22 -59.5 -34t-67.5 -25t-88 -13z" />
    <glyph glyph-name="Cdotaccent" unicode="&#x10a;" horiz-adv-x="638" 
d="M407 765l9 92h74l-9 -92h-74zM378 -10q-146 0 -232.5 86t-86.5 234q0 183 104.5 293t287.5 110q100 0 164 -28l-27 -63q-65 23 -143 23q-145 0 -224.5 -90.5t-79.5 -239.5q0 -122 70.5 -188t192.5 -66q88 0 152 21l15 -66q-82 -26 -193 -26z" />
    <glyph glyph-name="cdotaccent" unicode="&#x10b;" horiz-adv-x="450" 
d="M172 -12q-48 0 -78.5 32.5t-41 74t-10.5 89.5q0 160 72 268t196 108q77 0 128 -49l-42 -48q-43 33 -91 33q-51 0 -89 -30t-57 -78t-28 -95.5t-9 -94.5q0 -66 16.5 -103.5t39.5 -37.5q72 0 182 57l27 -54q-36 -22 -59.5 -34t-67.5 -25t-88 -13zM282 669l10 93h77l-10 -93
h-77z" />
    <glyph glyph-name="Ccaron" unicode="&#x10c;" horiz-adv-x="638" 
d="M416 739l-159 85l30 54l135 -69l155 68l21 -54zM378 -10q-146 0 -232.5 86t-86.5 234q0 183 104.5 293t287.5 110q100 0 164 -28l-27 -63q-65 23 -143 23q-145 0 -224.5 -90.5t-79.5 -239.5q0 -122 70.5 -188t192.5 -66q88 0 152 21l15 -66q-82 -26 -193 -26z" />
    <glyph glyph-name="ccaron" unicode="&#x10d;" horiz-adv-x="450" 
d="M298 616l-161 116l37 50l132 -93l153 91l29 -48zM172 -12q-48 0 -78.5 32.5t-41 74t-10.5 89.5q0 160 72 268t196 108q77 0 128 -49l-42 -48q-43 33 -91 33q-51 0 -89 -30t-57 -78t-28 -95.5t-9 -94.5q0 -66 16.5 -103.5t39.5 -37.5q72 0 182 57l27 -54
q-36 -22 -59.5 -34t-67.5 -25t-88 -13z" />
    <glyph glyph-name="Dcaron" unicode="&#x10e;" horiz-adv-x="728" 
d="M342 739l-159 85l30 54l135 -69l155 68l21 -54zM67 0l75 707h187q157 0 253 -77.5t96 -234.5q0 -194 -108.5 -294.5t-305.5 -100.5h-197zM153 66h126q154 0 236 82t82 243q0 128 -74 189t-204 61h-105z" />
    <glyph glyph-name="dcaron" unicode="&#x10f;" horiz-adv-x="513" 
d="M144 -13q-107 0 -107 178q0 169 92 277.5t231 107.5h25l22 204h76l-81 -754h-76l11 99q-112 -112 -193 -112zM163 59q36 0 88 36.5t93 79.5l33 310q-9 1 -43 1q-59 0 -111 -44t-81 -113.5t-29 -143.5q0 -73 12.5 -99.5t37.5 -26.5zM511 553l44 202h72l-55 -202h-61z" />
    <glyph glyph-name="Dcroat" unicode="&#x110;" horiz-adv-x="753" 
d="M55 320l7 66h71l34 321h187q157 0 253 -77.5t96 -234.5q0 -194 -108.5 -294.5t-305.5 -100.5h-197l34 320h-71zM178 66h126q154 0 236 82t82 243q0 128 -74 189t-204 61h-105l-27 -255h147l-7 -66h-147z" />
    <glyph glyph-name="dcroat" unicode="&#x111;" horiz-adv-x="513" 
d="M251 617l7 57h140l9 80h76l-9 -80h87l-7 -57h-86l-66 -617h-76l11 99q-112 -112 -193 -112q-107 0 -107 178q0 169 92 277.5t231 107.5h25l7 67h-141zM163 59q36 0 88 36.5t93 79.5l33 310q-9 1 -43 1q-59 0 -111 -44t-81 -113.5t-29 -143.5q0 -73 12.5 -99.5t37.5 -26.5
z" />
    <glyph glyph-name="Emacron" unicode="&#x112;" horiz-adv-x="567" 
d="M202 766l7 64h282l-7 -64h-282zM67 0l75 707h393l-7 -65h-314l-26 -254h291l-6 -66h-292l-27 -257h337l-7 -65h-417z" />
    <glyph glyph-name="emacron" unicode="&#x113;" horiz-adv-x="468" 
d="M173 -12q-129 0 -129 204q0 100 29 182.5t90 134.5t144 52q69 0 103 -35.5t34 -89.5q0 -94 -143 -146l-178 -66v-27q0 -141 63 -141q65 0 171 55l27 -57q-37 -21 -61.5 -32.5t-66 -22.5t-83.5 -11zM130 291l159 62q38 15 59.5 36t21.5 44q0 33 -19.5 48t-46.5 15
q-137 0 -174 -205zM181 670l7 64h261l-7 -64h-261z" />
    <glyph glyph-name="Ebreve" unicode="&#x114;" horiz-adv-x="567" 
d="M347 755q-45 0 -82.5 25t-53.5 56l44 38q41 -58 100 -58q68 0 112 57l34 -36q-61 -82 -154 -82zM67 0l75 707h393l-7 -65h-314l-26 -254h291l-6 -66h-292l-27 -257h337l-7 -65h-417z" />
    <glyph glyph-name="ebreve" unicode="&#x115;" horiz-adv-x="468" 
d="M173 -12q-129 0 -129 204q0 100 29 182.5t90 134.5t144 52q69 0 103 -35.5t34 -89.5q0 -94 -143 -146l-178 -66v-27q0 -141 63 -141q65 0 171 55l27 -57q-37 -21 -61.5 -32.5t-66 -22.5t-83.5 -11zM130 291l159 62q38 15 59.5 36t21.5 44q0 33 -19.5 48t-46.5 15
q-137 0 -174 -205zM312 645q-44 0 -82 25t-54 56l44 39q39 -58 100 -58q68 0 112 57l34 -37q-63 -82 -154 -82z" />
    <glyph glyph-name="Edotaccent" unicode="&#x116;" horiz-adv-x="567" 
d="M308 765l9 92h74l-9 -92h-74zM67 0l75 707h393l-7 -65h-314l-26 -254h291l-6 -66h-292l-27 -257h337l-7 -65h-417z" />
    <glyph glyph-name="edotaccent" unicode="&#x117;" horiz-adv-x="468" 
d="M173 -12q-129 0 -129 204q0 100 29 182.5t90 134.5t144 52q69 0 103 -35.5t34 -89.5q0 -94 -143 -146l-178 -66v-27q0 -141 63 -141q65 0 171 55l27 -57q-37 -21 -61.5 -32.5t-66 -22.5t-83.5 -11zM130 291l159 62q38 15 59.5 36t21.5 44q0 33 -19.5 48t-46.5 15
q-137 0 -174 -205zM256 669l10 93h77l-10 -93h-77z" />
    <glyph glyph-name="Eogonek" unicode="&#x118;" horiz-adv-x="567" 
d="M402 -225q-112 0 -104 105q5 61 94 120h-325l75 707h393l-7 -65h-314l-26 -254h291l-6 -66h-292l-27 -257h337l-8 -65q-110 -65 -113 -113q-3 -28 12 -38.5t46 -10.5q29 0 45 8l12 -55q-28 -16 -83 -16z" />
    <glyph glyph-name="eogonek" unicode="&#x119;" horiz-adv-x="469" 
d="M268 -225q-51 0 -76 25.5t-25 69.5q0 56 69 125q-35 -7 -63 -7q-129 0 -129 204q0 100 29 182.5t90 134.5t144 52q69 0 103 -35.5t34 -89.5q0 -94 -143 -146l-178 -66v-27q0 -141 63 -141q65 0 171 55l27 -57q-50 -29 -97.5 -81.5t-47.5 -90.5q0 -45 49 -45q24 0 55 9
l12 -55q-38 -16 -87 -16zM130 291l159 62q38 15 59.5 36t21.5 44q0 33 -19.5 48t-46.5 15q-137 0 -174 -205z" />
    <glyph glyph-name="Ecaron" unicode="&#x11a;" horiz-adv-x="567" 
d="M334 739l-159 85l30 54l135 -69l155 68l21 -54zM67 0l75 707h393l-7 -65h-314l-26 -254h291l-6 -66h-292l-27 -257h337l-7 -65h-417z" />
    <glyph glyph-name="ecaron" unicode="&#x11b;" horiz-adv-x="468" 
d="M173 -12q-129 0 -129 204q0 100 29 182.5t90 134.5t144 52q69 0 103 -35.5t34 -89.5q0 -94 -143 -146l-178 -66v-27q0 -141 63 -141q65 0 171 55l27 -57q-37 -21 -61.5 -32.5t-66 -22.5t-83.5 -11zM130 291l159 62q38 15 59.5 36t21.5 44q0 33 -19.5 48t-46.5 15
q-137 0 -174 -205zM288 616l-161 116l37 50l132 -93l153 91l29 -48z" />
    <glyph glyph-name="Gcircumflex" unicode="&#x11c;" horiz-adv-x="665" 
d="M593 737l-136 69l-155 -68l-21 54l182 85l160 -85zM378 -10q-146 0 -232.5 85.5t-86.5 234.5q0 183 105 293t286 110q105 0 166 -28l-29 -62q-66 22 -142 22q-145 0 -224 -90t-79 -240q0 -123 70 -188.5t192 -65.5q50 0 94 11l27 278h80l-33 -326q-89 -34 -194 -34z" />
    <glyph glyph-name="gcircumflex" unicode="&#x11d;" horiz-adv-x="509" 
d="M481 621l-132 90l-151 -90l-32 50l191 115l160 -115zM147 -230q-95 0 -172 22l18 68q86 -23 142 -23q40 0 68.5 5t55 19.5t42 44t20.5 74.5l13 119q-61 -58 -106 -85t-87 -27q-57 0 -82 40.5t-25 123.5q0 160 93.5 280t229.5 120q51 0 99 -8l-61 -579q-5 -54 -29 -93.5
t-60 -60.5t-75.5 -30.5t-83.5 -9.5zM160 59q31 0 88 41.5t93 75.5l33 307q-8 2 -34 2q-64 0 -117.5 -48.5t-83 -122.5t-29.5 -152q0 -58 12.5 -80.5t37.5 -22.5z" />
    <glyph glyph-name="Gbreve" unicode="&#x11e;" horiz-adv-x="665" 
d="M432 753q-45 0 -82.5 25t-53.5 56l44 38q41 -58 100 -58q68 0 112 57l34 -36q-62 -82 -154 -82zM378 -10q-146 0 -232.5 85.5t-86.5 234.5q0 183 105 293t286 110q105 0 166 -28l-29 -62q-66 22 -142 22q-145 0 -224 -90t-79 -240q0 -123 70 -188.5t192 -65.5q50 0 94 11
l27 278h80l-33 -326q-89 -34 -194 -34z" />
    <glyph glyph-name="gbreve" unicode="&#x11f;" horiz-adv-x="509" 
d="M147 -230q-95 0 -172 22l18 68q86 -23 142 -23q40 0 68.5 5t55 19.5t42 44t20.5 74.5l13 119q-61 -58 -106 -85t-87 -27q-57 0 -82 40.5t-25 123.5q0 160 93.5 280t229.5 120q51 0 99 -8l-61 -579q-5 -54 -29 -93.5t-60 -60.5t-75.5 -30.5t-83.5 -9.5zM160 59
q31 0 88 41.5t93 75.5l33 307q-8 2 -34 2q-64 0 -117.5 -48.5t-83 -122.5t-29.5 -152q0 -58 12.5 -80.5t37.5 -22.5zM329 645q-44 0 -82 25t-54 56l44 39q39 -58 100 -58q68 0 112 57l34 -37q-63 -82 -154 -82z" />
    <glyph glyph-name="Gdotaccent" unicode="&#x120;" horiz-adv-x="665" 
d="M423 765l9 92h74l-9 -92h-74zM378 -10q-146 0 -232.5 85.5t-86.5 234.5q0 183 105 293t286 110q105 0 166 -28l-29 -62q-66 22 -142 22q-145 0 -224 -90t-79 -240q0 -123 70 -188.5t192 -65.5q50 0 94 11l27 278h80l-33 -326q-89 -34 -194 -34z" />
    <glyph glyph-name="gdotaccent" unicode="&#x121;" horiz-adv-x="509" 
d="M302 669l10 93h77l-10 -93h-77zM147 -230q-95 0 -172 22l18 68q86 -23 142 -23q40 0 68.5 5t55 19.5t42 44t20.5 74.5l13 119q-61 -58 -106 -85t-87 -27q-57 0 -82 40.5t-25 123.5q0 160 93.5 280t229.5 120q51 0 99 -8l-61 -579q-5 -54 -29 -93.5t-60 -60.5t-75.5 -30.5
t-83.5 -9.5zM160 59q31 0 88 41.5t93 75.5l33 307q-8 2 -34 2q-64 0 -117.5 -48.5t-83 -122.5t-29.5 -152q0 -58 12.5 -80.5t37.5 -22.5z" />
    <glyph glyph-name="Gcommaaccent" unicode="&#x122;" horiz-adv-x="666" 
d="M300 -261l44 202h72l-55 -202h-61zM378 -10q-146 0 -232.5 85.5t-86.5 234.5q0 183 105 293t286 110q105 0 166 -28l-29 -62q-66 22 -142 22q-145 0 -224 -90t-79 -240q0 -123 70 -188.5t192 -65.5q50 0 94 11l27 278h80l-33 -326q-89 -34 -194 -34z" />
    <glyph glyph-name="gcommaaccent" unicode="&#x123;" horiz-adv-x="509" 
d="M431 807l-44 -202h-72l55 202h61zM147 -230q-95 0 -172 22l18 68q86 -23 142 -23q40 0 68.5 5t55 19.5t42 44t20.5 74.5l13 119q-61 -58 -106 -85t-87 -27q-57 0 -82 40.5t-25 123.5q0 160 93.5 280t229.5 120q51 0 99 -8l-61 -579q-5 -54 -29 -93.5t-60 -60.5
t-75.5 -30.5t-83.5 -9.5zM160 59q31 0 88 41.5t93 75.5l33 307q-8 2 -34 2q-64 0 -117.5 -48.5t-83 -122.5t-29.5 -152q0 -58 12.5 -80.5t37.5 -22.5z" />
    <glyph glyph-name="Hcircumflex" unicode="&#x124;" horiz-adv-x="738" 
d="M67 0l75 707h79l-33 -320h380l33 320h80l-74 -707h-80l35 322h-381l-34 -322h-80zM558 737l-136 69l-155 -68l-21 54l182 85l160 -85z" />
    <glyph glyph-name="hcircumflex" unicode="&#x125;" horiz-adv-x="525" 
d="M46 0l80 754h77l-32 -298q41 35 63.5 52t60.5 34.5t74 17.5q52 0 73.5 -25t21.5 -80q0 -30 -4 -61l-43 -394h-76l42 378q3 32 3 55q0 30 -9.5 42.5t-33.5 12.5q-57 0 -180 -101l-41 -387h-76zM309 745l-136 69l-155 -68l-21 54l182 85l160 -85z" />
    <glyph glyph-name="Hbar" unicode="&#x126;" horiz-adv-x="769" 
d="M71 502l7 59h63l16 146h79l-15 -146h380l15 146h80l-16 -146h71l-6 -59h-71l-52 -502h-80l35 322h-381l-34 -322h-80l53 502h-64zM203 387h380l12 115h-380z" />
    <glyph glyph-name="hbar" unicode="&#x127;" horiz-adv-x="525" 
d="M30 617l6 55h81l9 82h77l-9 -82h133l-7 -55h-132l-17 -161q41 35 63.5 52t60.5 34.5t74 17.5q52 0 73.5 -25t21.5 -80q0 -30 -4 -61l-43 -394h-76l42 378q3 32 3 55q0 30 -9.5 42.5t-33.5 12.5q-57 0 -180 -101l-41 -387h-76l65 617h-81z" />
    <glyph glyph-name="Itilde" unicode="&#x128;" horiz-adv-x="278" 
d="M67 0l75 707h79l-74 -707h-80zM246 747q-20 0 -62 18.5t-60 18.5q-36 0 -73 -25l-27 43q52 45 106 45q25 0 65 -18t58 -18q35 0 74 27l25 -45q-52 -46 -106 -46z" />
    <glyph glyph-name="itilde" unicode="&#x129;" horiz-adv-x="233" 
d="M47 0l57 546h76l-57 -546h-76zM223 646q-21 0 -63 18t-59 18q-38 0 -70 -24l-29 42q47 47 105 47q26 0 64.5 -18t56.5 -18q34 0 73 27l27 -43q-45 -49 -105 -49z" />
    <glyph glyph-name="Imacron" unicode="&#x12a;" horiz-adv-x="278" 
d="M67 0l75 707h79l-74 -707h-80zM48 766l7 64h282l-7 -64h-282z" />
    <glyph glyph-name="imacron" unicode="&#x12b;" horiz-adv-x="233" 
d="M47 0l57 546h76l-57 -546h-76zM30 670l7 64h261l-7 -64h-261z" />
    <glyph glyph-name="Ibreve" unicode="&#x12c;" horiz-adv-x="278" 
d="M67 0l75 707h79l-74 -707h-80zM185 753q-45 0 -82.5 25t-53.5 56l44 38q41 -58 100 -58q68 0 112 57l34 -36q-61 -82 -154 -82z" />
    <glyph glyph-name="ibreve" unicode="&#x12d;" horiz-adv-x="233" 
d="M47 0l57 546h76l-57 -546h-76zM150 645q-44 0 -82 25t-54 56l44 39q39 -58 100 -58q68 0 112 57l34 -37q-63 -82 -154 -82z" />
    <glyph glyph-name="Iogonek" unicode="&#x12e;" horiz-adv-x="277" 
d="M65 -225q-61 0 -84 28.5t-20 73.5q5 70 107 132l74 698h79l-76 -708q-107 -63 -112 -113q-3 -27 12 -37.5t46 -10.5q26 0 45 8l12 -55q-30 -16 -83 -16z" />
    <glyph glyph-name="iogonek" unicode="&#x12f;" horiz-adv-x="233" 
d="M128 -154l12 -55q-34 -15 -75 -15q-53 0 -82.5 24.5t-29.5 72.5q0 34 28.5 72.5t66.5 65.5l56 535h76l-57 -546q-34 -20 -65.5 -55.5t-32.5 -64.5q-1 -22 14.5 -31.5t39.5 -9.5q29 0 49 7zM126 669l10 93h77l-10 -93h-77z" />
    <glyph glyph-name="Idotaccent" unicode="&#x130;" horiz-adv-x="278" 
d="M150 765l9 92h74l-9 -92h-74zM67 0l75 707h79l-74 -707h-80z" />
    <glyph glyph-name="dotlessi" unicode="&#x131;" horiz-adv-x="233" 
d="M47 0l57 546h76l-57 -546h-76z" />
    <glyph glyph-name="IJ" unicode="&#x132;" horiz-adv-x="557" 
d="M67 0l75 707h79l-74 -707h-80zM216 -187l-27 59q91 48 126.5 108.5t47.5 170.5l58 556h79l-58 -554q-13 -129 -63 -210.5t-163 -129.5z" />
    <glyph glyph-name="ij" unicode="&#x133;" horiz-adv-x="480" 
d="M171 -220q-41 0 -75 13l19 65q36 -11 65 -11q58 0 81 33.5t30 102.5l60 563h76l-60 -564q-11 -111 -61.5 -156.5t-134.5 -45.5zM47 0l57 546h76l-57 -546h-76zM123 669l10 93h77l-10 -93h-77zM369 669l10 93h77l-10 -93h-77z" />
    <glyph glyph-name="Jcircumflex" unicode="&#x134;" horiz-adv-x="279" 
d="M-62 -187l-27 59q91 48 126.5 108.5t47.5 170.5l58 556h79l-58 -554q-13 -129 -63 -210.5t-163 -129.5zM334 737l-136 69l-155 -68l-21 54l182 85l160 -85z" />
    <glyph glyph-name="jcircumflex" unicode="&#x135;" horiz-adv-x="233" 
d="M294 621l-132 90l-151 -90l-32 50l191 115l160 -115zM-76 -220q-41 0 -75 13l19 65q36 -11 65 -11q58 0 81 33.5t30 102.5l60 563h76l-60 -564q-11 -111 -61.5 -156.5t-134.5 -45.5z" />
    <glyph glyph-name="Kcommaaccent" unicode="&#x136;" horiz-adv-x="602" 
d="M201 -261l44 202h72l-55 -202h-61zM480 -19l-270 386l1 16l308 324h100l-318 -327l252 -359zM67 0l75 707h79l-74 -707h-80z" />
    <glyph glyph-name="kcommaaccent" unicode="&#x137;" horiz-adv-x="481" 
d="M144 -261l44 202h72l-55 -202h-61zM365 -14l-192 302l201 258h90l-203 -255l181 -280zM46 0l79 754h77l-80 -754h-76z" />
    <glyph glyph-name="uni0138" unicode="&#x138;" horiz-adv-x="482" 
d="M365 -14l-191 303l202 257h90l-205 -255l180 -280zM47 0l57 546h76l-57 -546h-76z" />
    <glyph glyph-name="Lacute" unicode="&#x139;" horiz-adv-x="486" 
d="M159 737l-16 54l229 80l19 -70zM67 0l75 707h79l-67 -639h307l-7 -68h-387z" />
    <glyph glyph-name="lacute" unicode="&#x13a;" horiz-adv-x="233" 
d="M126 785l-16 54l229 80l19 -70zM46 0l79 754h77l-80 -754h-76z" />
    <glyph glyph-name="Lcommaaccent" unicode="&#x13b;" horiz-adv-x="487" 
d="M184 -261l44 202h72l-55 -202h-61zM67 0l75 707h79l-67 -639h307l-7 -68h-387z" />
    <glyph glyph-name="lcommaaccent" unicode="&#x13c;" horiz-adv-x="232" 
d="M10 -261l44 202h72l-55 -202h-61zM46 0l79 754h77l-80 -754h-76z" />
    <glyph glyph-name="Lcaron" unicode="&#x13d;" horiz-adv-x="486" 
d="M278 555l44 202h72l-55 -202h-61zM67 0l75 707h79l-67 -639h307l-7 -68h-387z" />
    <glyph glyph-name="lcaron" unicode="&#x13e;" horiz-adv-x="263" 
d="M227 553l44 202h72l-55 -202h-61zM46 0l79 754h77l-80 -754h-76z" />
    <glyph glyph-name="Ldot" unicode="&#x13f;" horiz-adv-x="493" 
d="M67 0l75 707h79l-67 -639h307l-7 -68h-387zM313 314l9 87h90l-9 -87h-90z" />
    <glyph glyph-name="ldot" unicode="&#x140;" horiz-adv-x="299" 
d="M232 314l9 87h90l-9 -87h-90zM46 0l79 754h77l-80 -754h-76z" />
    <glyph glyph-name="Lslash" unicode="&#x141;" horiz-adv-x="510" 
d="M41 268l6 63l84 46l35 330h79l-30 -284l135 74l-7 -64l-135 -74l-30 -291h307l-7 -68h-387l33 313z" />
    <glyph glyph-name="lslash" unicode="&#x142;" horiz-adv-x="308" 
d="M26 286l7 63l84 45l38 360h77l-34 -316l94 50l-6 -61l-94 -51l-40 -376h-76l35 332z" />
    <glyph glyph-name="Nacute" unicode="&#x143;" horiz-adv-x="724" 
d="M357 737l-16 54l229 80l19 -70zM67 0l76 707h116l264 -649l66 649h79l-76 -707h-123l-256 633l-66 -633h-80z" />
    <glyph glyph-name="nacute" unicode="&#x144;" horiz-adv-x="526" 
d="M267 618l-30 48l186 135l38 -60zM47 0l57 546h77l-9 -90q41 35 63.5 52t60.5 34.5t74 17.5q52 0 73 -25t21 -80q0 -27 -3 -61l-43 -394h-76l41 378q4 27 4 52q0 32 -9.5 45t-34.5 13q-56 0 -179 -101l-41 -387h-76z" />
    <glyph glyph-name="Ncommaaccent" unicode="&#x145;" horiz-adv-x="723" 
d="M244 -261l44 202h72l-55 -202h-61zM67 0l76 707h116l264 -649l66 649h79l-76 -707h-123l-256 633l-66 -633h-80z" />
    <glyph glyph-name="ncommaaccent" unicode="&#x146;" horiz-adv-x="525" 
d="M159 -261l44 202h72l-55 -202h-61zM46 0l57 546h77l-9 -90q41 35 63.5 52t60.5 34.5t74 17.5q52 0 73 -25t21 -80q0 -27 -3 -61l-43 -394h-76l41 378q4 27 4 52q0 32 -9.5 45t-34.5 13q-56 0 -179 -101l-41 -387h-76z" />
    <glyph glyph-name="Ncaron" unicode="&#x147;" horiz-adv-x="724" 
d="M412 739l-159 85l30 54l135 -69l155 68l21 -54zM67 0l76 707h116l264 -649l66 649h79l-76 -707h-123l-256 633l-66 -633h-80z" />
    <glyph glyph-name="ncaron" unicode="&#x148;" horiz-adv-x="526" 
d="M304 616l-161 116l37 50l132 -93l153 91l29 -48zM47 0l57 546h77l-9 -90q41 35 63.5 52t60.5 34.5t74 17.5q52 0 73 -25t21 -80q0 -27 -3 -61l-43 -394h-76l41 378q4 27 4 52q0 32 -9.5 45t-34.5 13q-56 0 -179 -101l-41 -387h-76z" />
    <glyph glyph-name="napostrophe" unicode="&#x149;" horiz-adv-x="546" 
d="M-7 556q38 84 47 207h83q-3 -68 -20 -114.5t-47 -92.5h-63zM66 0l57 546h77l-9 -90q41 35 63.5 52t60.5 34.5t74 17.5q52 0 73 -25t21 -80q0 -27 -3 -61l-43 -394h-76l41 378q4 27 4 52q0 32 -9.5 45t-34.5 13q-56 0 -179 -101l-41 -387h-76z" />
    <glyph glyph-name="Eng" unicode="&#x14a;" horiz-adv-x="723" 
d="M393 -220q-41 0 -75 13l18 65q38 -11 65 -11q57 0 81 33t31 98l2 22h-46l-256 633l-66 -633h-80l76 707h116l264 -649l66 649h79l-80 -739q-11 -98 -56.5 -143t-138.5 -45z" />
    <glyph glyph-name="eng" unicode="&#x14b;" horiz-adv-x="526" 
d="M219 -220q-39 0 -75 13l19 65q39 -11 65 -11q58 0 81 33.5t31 102.5l43 394q4 38 4 50q0 34 -10.5 47.5t-35.5 13.5q-52 0 -177 -101l-41 -387h-76l57 546h77l-9 -90q2 2 18 15l24 19.5t25 19t30 19.5t30 15.5t33.5 12t32.5 3.5q56 0 77.5 -24t21.5 -79q0 -29 -3 -63
l-45 -412q-12 -111 -62.5 -156.5t-134.5 -45.5z" />
    <glyph glyph-name="Omacron" unicode="&#x14c;" horiz-adv-x="801" 
d="M306 766l7 64h282l-7 -64h-282zM359 -11q-143 0 -221 85.5t-78 232.5q0 184 104.5 297.5t285.5 113.5q143 0 222 -85.5t79 -232.5q0 -185 -105 -298t-287 -113zM369 55q143 0 221 97t78 245q0 116 -59 184.5t-171 68.5q-141 0 -219 -95.5t-78 -242.5q0 -116 58 -186.5
t170 -70.5z" />
    <glyph glyph-name="omacron" unicode="&#x14d;" horiz-adv-x="515" 
d="M181 670l7 64h261l-7 -64h-261zM200 -12q-74 0 -117 55t-43 137q0 173 75 276.5t197 103.5q75 0 116 -55.5t41 -131.5q0 -69 -14.5 -134t-44.5 -123t-84 -93t-126 -35zM219 54q71 0 121.5 86.5t50.5 217.5q0 72 -24 105t-78 33q-69 0 -119.5 -88t-50.5 -213
q0 -141 100 -141z" />
    <glyph glyph-name="Obreve" unicode="&#x14e;" horiz-adv-x="801" 
d="M443 754q-45 0 -82.5 25t-53.5 56l44 38q41 -58 100 -58q68 0 112 57l34 -36q-61 -82 -154 -82zM359 -11q-143 0 -221 85.5t-78 232.5q0 184 104.5 297.5t285.5 113.5q143 0 222 -85.5t79 -232.5q0 -185 -105 -298t-287 -113zM369 55q143 0 221 97t78 245
q0 116 -59 184.5t-171 68.5q-141 0 -219 -95.5t-78 -242.5q0 -116 58 -186.5t170 -70.5z" />
    <glyph glyph-name="obreve" unicode="&#x14f;" horiz-adv-x="515" 
d="M200 -12q-74 0 -117 55t-43 137q0 173 75 276.5t197 103.5q75 0 116 -55.5t41 -131.5q0 -69 -14.5 -134t-44.5 -123t-84 -93t-126 -35zM219 54q71 0 121.5 86.5t50.5 217.5q0 72 -24 105t-78 33q-69 0 -119.5 -88t-50.5 -213q0 -141 100 -141zM297 645q-44 0 -82 25
t-54 56l44 39q39 -58 100 -58q68 0 112 57l34 -37q-63 -82 -154 -82z" />
    <glyph glyph-name="Ohungarumlaut" unicode="&#x150;" horiz-adv-x="801" 
d="M359 -11q-143 0 -221 85.5t-78 232.5q0 184 104.5 297.5t285.5 113.5q143 0 222 -85.5t79 -232.5q0 -185 -105 -298t-287 -113zM369 55q143 0 221 97t78 245q0 116 -59 184.5t-171 68.5q-141 0 -219 -95.5t-78 -242.5q0 -116 58 -186.5t170 -70.5zM313 737l-36 45
l189 152l43 -60zM500 736l-17 55l229 80l19 -71z" />
    <glyph glyph-name="ohungarumlaut" unicode="&#x151;" horiz-adv-x="515" 
d="M177 617l-26 45l197 142l38 -61zM407 621l-28 46l188 124l35 -61zM200 -12q-74 0 -117 55t-43 137q0 173 75 276.5t197 103.5q75 0 116 -55.5t41 -131.5q0 -69 -14.5 -134t-44.5 -123t-84 -93t-126 -35zM219 54q71 0 121.5 86.5t50.5 217.5q0 72 -24 105t-78 33
q-69 0 -119.5 -88t-50.5 -213q0 -141 100 -141z" />
    <glyph glyph-name="OE" unicode="&#x152;" horiz-adv-x="1090" 
d="M359 -11q-143 0 -221 85.5t-78 232.5q0 184 104.5 297.5t285.5 113.5q131 0 207 -76l7 65h393l-7 -65h-313l-27 -254h292l-7 -66h-291l-28 -257h337l-6 -65h-417l6 61q-95 -72 -237 -72zM369 56q159 0 240 122l36 345q-53 126 -207 126q-141 0 -219 -95.5t-78 -241.5
q0 -116 58 -186t170 -70z" />
    <glyph glyph-name="oe" unicode="&#x153;" horiz-adv-x="801" 
d="M200 -12q-74 0 -117 55t-43 137q0 173 75 276.5t197 103.5q52 0 87 -29t52 -76q72 106 190 106q69 0 102.5 -35t33.5 -89q0 -94 -143 -146l-177 -66q-1 -8 -1 -27q0 -142 64 -142q65 0 171 55l27 -57q-38 -21 -62 -32.5t-65.5 -22.5t-83.5 -11q-88 0 -114 107
q-71 -107 -193 -107zM219 54q71 0 121.5 86.5t50.5 217.5q0 72 -24 105t-78 33q-67 0 -118.5 -87t-51.5 -214q0 -141 100 -141zM464 292l158 62q81 34 81 80q0 32 -19 47t-46 15q-40 0 -71.5 -17.5t-51.5 -48.5t-32 -64.5t-19 -73.5z" />
    <glyph glyph-name="Racute" unicode="&#x154;" horiz-adv-x="641" 
d="M525 -18l-198 322q-31 -3 -85 -3h-61l-33 -301h-81l75 707h218q94 0 151.5 -45t57.5 -127q0 -76 -41 -133t-119 -79l192 -305zM187 365h93q204 0 204 167q0 111 -151 111h-118zM266 737l-16 54l229 80l19 -70z" />
    <glyph glyph-name="racute" unicode="&#x155;" horiz-adv-x="350" 
d="M200 618l-30 48l186 135l38 -60zM47 0l57 546h76l-9 -91q1 1 11.5 11t15.5 14t16.5 14t19.5 15.5t20 14t22.5 13t22.5 9.5t24 7.5t23 2.5q6 0 26 -2l-15 -71q-5 1 -24 1q-22 0 -59.5 -21.5t-56 -36.5t-54.5 -45l-40 -381h-76z" />
    <glyph glyph-name="Rcommaaccent" unicode="&#x156;" horiz-adv-x="641" 
d="M525 -18l-198 322q-31 -3 -85 -3h-61l-33 -301h-81l75 707h218q94 0 151.5 -45t57.5 -127q0 -76 -41 -133t-119 -79l192 -305zM187 365h93q204 0 204 167q0 111 -151 111h-118zM222 -261l44 202h72l-55 -202h-61z" />
    <glyph glyph-name="rcommaaccent" unicode="&#x157;" horiz-adv-x="348" 
d="M11 -261l44 202h72l-55 -202h-61zM47 0l57 546h76l-9 -91q1 1 11.5 11t15.5 14t16.5 14t19.5 15.5t20 14t22.5 13t22.5 9.5t24 7.5t23 2.5q6 0 26 -2l-15 -71q-5 1 -24 1q-22 0 -59.5 -21.5t-56 -36.5t-54.5 -45l-40 -381h-76z" />
    <glyph glyph-name="Rcaron" unicode="&#x158;" horiz-adv-x="641" 
d="M525 -18l-198 322q-31 -3 -85 -3h-61l-33 -301h-81l75 707h218q94 0 151.5 -45t57.5 -127q0 -76 -41 -133t-119 -79l192 -305zM187 365h93q204 0 204 167q0 111 -151 111h-118zM331 739l-159 85l30 54l135 -69l155 68l21 -54z" />
    <glyph glyph-name="rcaron" unicode="&#x159;" horiz-adv-x="350" 
d="M239 616l-161 116l37 50l132 -93l153 91l29 -48zM47 0l57 546h76l-9 -91q1 1 11.5 11t15.5 14t16.5 14t19.5 15.5t20 14t22.5 13t22.5 9.5t24 7.5t23 2.5q6 0 26 -2l-15 -71q-5 1 -24 1q-22 0 -59.5 -21.5t-56 -36.5t-54.5 -45l-40 -381h-76z" />
    <glyph glyph-name="Sacute" unicode="&#x15a;" horiz-adv-x="523" 
d="M210 -11q-48 0 -105 14t-91 34l31 67q96 -45 171 -45q166 0 166 134q0 36 -30 66.5t-72.5 54.5t-85.5 51.5t-73 71t-30 98.5q0 86 65 133t160 47q104 0 178 -41l-26 -62q-77 34 -155 34q-63 0 -103.5 -25.5t-40.5 -83.5q0 -36 30 -67.5t73 -57t86 -53.5t73 -70.5
t30 -93.5q0 -100 -71.5 -153t-179.5 -53zM249 737l-16 54l229 80l19 -70z" />
    <glyph glyph-name="sacute" unicode="&#x15b;" horiz-adv-x="417" 
d="M206 618l-30 48l186 135l38 -60zM154 -9q-92 0 -149 25l22 66q68 -25 132 -25q18 0 36.5 3t39 11t33.5 25t13 41q0 29 -21.5 55t-52.5 46.5t-62.5 43t-53 54.5t-21.5 71q0 78 50.5 113.5t128.5 35.5q82 0 142 -30l-23 -59q-72 26 -129 26q-41 0 -69 -18t-28 -57
q0 -29 22 -55t53 -47t62.5 -43.5t53.5 -57t22 -75.5t-18.5 -71.5t-49 -46.5t-64 -23.5t-69.5 -7.5z" />
    <glyph glyph-name="Scircumflex" unicode="&#x15c;" horiz-adv-x="523" 
d="M210 -11q-48 0 -105 14t-91 34l31 67q96 -45 171 -45q166 0 166 134q0 36 -30 66.5t-72.5 54.5t-85.5 51.5t-73 71t-30 98.5q0 86 65 133t160 47q104 0 178 -41l-26 -62q-77 34 -155 34q-63 0 -103.5 -25.5t-40.5 -83.5q0 -36 30 -67.5t73 -57t86 -53.5t73 -70.5
t30 -93.5q0 -100 -71.5 -153t-179.5 -53zM466 737l-136 69l-155 -68l-21 54l182 85l160 -85z" />
    <glyph glyph-name="scircumflex" unicode="&#x15d;" horiz-adv-x="417" 
d="M392 621l-132 90l-151 -90l-32 50l191 115l160 -115zM154 -9q-92 0 -149 25l22 66q68 -25 132 -25q18 0 36.5 3t39 11t33.5 25t13 41q0 29 -21.5 55t-52.5 46.5t-62.5 43t-53 54.5t-21.5 71q0 78 50.5 113.5t128.5 35.5q82 0 142 -30l-23 -59q-72 26 -129 26
q-41 0 -69 -18t-28 -57q0 -29 22 -55t53 -47t62.5 -43.5t53.5 -57t22 -75.5t-18.5 -71.5t-49 -46.5t-64 -23.5t-69.5 -7.5z" />
    <glyph glyph-name="Scedilla" unicode="&#x15e;" horiz-adv-x="523" 
d="M210 -11q-48 0 -105 14t-91 34l31 67q96 -45 171 -45q166 0 166 134q0 36 -30 66.5t-72.5 54.5t-85.5 51.5t-73 71t-30 98.5q0 86 65 133t160 47q104 0 178 -41l-26 -62q-77 34 -155 34q-63 0 -103.5 -25.5t-40.5 -83.5q0 -36 30 -67.5t73 -57t86 -53.5t73 -70.5
t30 -93.5q0 -100 -71.5 -153t-179.5 -53zM152 -239l-21 44q59 34 66 77q2 23 -16 67h74q16 -32 13 -66q-7 -77 -116 -122z" />
    <glyph glyph-name="scedilla" unicode="&#x15f;" horiz-adv-x="417" 
d="M154 -9q-92 0 -149 25l22 66q68 -25 132 -25q18 0 36.5 3t39 11t33.5 25t13 41q0 29 -21.5 55t-52.5 46.5t-62.5 43t-53 54.5t-21.5 71q0 78 50.5 113.5t128.5 35.5q82 0 142 -30l-23 -59q-72 26 -129 26q-41 0 -69 -18t-28 -57q0 -29 22 -55t53 -47t62.5 -43.5t53.5 -57
t22 -75.5t-18.5 -71.5t-49 -46.5t-64 -23.5t-69.5 -7.5zM89 -239l-21 44q59 34 66 77q2 23 -16 67h74q16 -32 13 -66q-7 -77 -116 -122z" />
    <glyph glyph-name="Scaron" unicode="&#x160;" horiz-adv-x="523" 
d="M305 739l-159 85l30 54l135 -69l155 68l21 -54zM210 -11q-48 0 -105 14t-91 34l31 67q96 -45 171 -45q166 0 166 134q0 36 -30 66.5t-72.5 54.5t-85.5 51.5t-73 71t-30 98.5q0 86 65 133t160 47q104 0 178 -41l-26 -62q-77 34 -155 34q-63 0 -103.5 -25.5t-40.5 -83.5
q0 -36 30 -67.5t73 -57t86 -53.5t73 -70.5t30 -93.5q0 -100 -71.5 -153t-179.5 -53z" />
    <glyph glyph-name="scaron" unicode="&#x161;" horiz-adv-x="417" 
d="M253 616l-161 116l37 50l132 -93l153 91l29 -48zM154 -9q-92 0 -149 25l22 66q68 -25 132 -25q18 0 36.5 3t39 11t33.5 25t13 41q0 29 -21.5 55t-52.5 46.5t-62.5 43t-53 54.5t-21.5 71q0 78 50.5 113.5t128.5 35.5q82 0 142 -30l-23 -59q-72 26 -129 26q-41 0 -69 -18
t-28 -57q0 -29 22 -55t53 -47t62.5 -43.5t53.5 -57t22 -75.5t-18.5 -71.5t-49 -46.5t-64 -23.5t-69.5 -7.5z" />
    <glyph glyph-name="Tcommaaccent" unicode="&#x162;" horiz-adv-x="569" 
d="M173 -261l44 202h72l-55 -202h-61zM211 0l67 640h-242l8 67h563l-8 -67h-241l-67 -640h-80z" />
    <glyph glyph-name="tcommaaccent" unicode="&#x163;" horiz-adv-x="375" 
d="M109 -261l44 202h72l-55 -202h-61zM181 -12q-99 0 -102 106q-2 21 1 41l38 347h-80l7 64h81l11 112h75l-11 -112h169l-6 -64h-170l-37 -345q-9 -80 45 -80q50 0 114 33l17 -58q-67 -44 -152 -44z" />
    <glyph glyph-name="Tcaron" unicode="&#x164;" horiz-adv-x="571" 
d="M324 739l-159 85l30 54l135 -69l155 68l21 -54zM212 0l67 640h-242l8 67h563l-8 -67h-241l-67 -640h-80z" />
    <glyph glyph-name="tcaron" unicode="&#x165;" horiz-adv-x="373" 
d="M276 608l44 202h72l-55 -202h-61zM181 -12q-99 0 -102 106q-2 21 1 41l38 347h-80l7 64h81l11 112h75l-11 -112h169l-6 -64h-170l-37 -345q-9 -80 45 -80q50 0 114 33l17 -58q-67 -44 -152 -44z" />
    <glyph glyph-name="Tbar" unicode="&#x166;" horiz-adv-x="571" 
d="M98 340l7 58h148l26 242h-242l8 67h563l-8 -67h-241l-26 -242h151l-7 -58h-150l-35 -340h-80l35 340h-149z" />
    <glyph glyph-name="tbar" unicode="&#x167;" horiz-adv-x="373" 
d="M37 291l6 58h60l15 133h-80l7 64h81l11 112h75l-11 -112h169l-6 -64h-170l-15 -133h151l-6 -58h-151l-16 -154q-9 -80 45 -80q50 0 114 33l17 -58q-67 -44 -152 -44q-99 0 -102 106q-2 21 1 41l17 156h-60z" />
    <glyph glyph-name="Utilde" unicode="&#x168;" horiz-adv-x="725" 
d="M474 747q-20 0 -62 18.5t-60 18.5q-36 0 -73 -25l-27 43q52 45 106 45q25 0 65 -18t58 -18q35 0 74 27l25 -45q-52 -46 -106 -46zM337 -12q-51 0 -94 10t-80.5 33t-59 66.5t-21.5 104.5q0 26 2 40l49 465h81l-48 -458q-2 -26 -2 -36q0 -157 174 -157q90 0 146 49t69 168
l45 434h76l-46 -437q-8 -81 -36.5 -139t-71.5 -87.5t-87.5 -42.5t-95.5 -13z" />
    <glyph glyph-name="utilde" unicode="&#x169;" horiz-adv-x="525" 
d="M159 -11q-56 0 -80 26t-24 86q0 22 3 48l43 397h76l-42 -378q-3 -32 -3 -53q0 -34 10.5 -47t36.5 -13q70 0 175 103l42 388h76l-58 -546h-76l9 90q-50 -50 -93 -75.5t-95 -25.5zM384 646q-20 0 -62 18t-60 18q-38 0 -70 -24l-29 42q47 47 105 47q26 0 64.5 -18t56.5 -18
q34 0 73 27l27 -43q-45 -49 -105 -49z" />
    <glyph glyph-name="Umacron" unicode="&#x16a;" horiz-adv-x="725" 
d="M268 766l7 64h282l-7 -64h-282zM337 -12q-51 0 -94 10t-80.5 33t-59 66.5t-21.5 104.5q0 26 2 40l49 465h81l-48 -458q-2 -26 -2 -36q0 -157 174 -157q90 0 146 49t69 168l45 434h76l-46 -437q-8 -81 -36.5 -139t-71.5 -87.5t-87.5 -42.5t-95.5 -13z" />
    <glyph glyph-name="umacron" unicode="&#x16b;" horiz-adv-x="525" 
d="M159 -11q-56 0 -80 26t-24 86q0 22 3 48l43 397h76l-42 -378q-3 -32 -3 -53q0 -34 10.5 -47t36.5 -13q70 0 175 103l42 388h76l-58 -546h-76l9 90q-50 -50 -93 -75.5t-95 -25.5zM170 670l7 64h261l-7 -64h-261z" />
    <glyph glyph-name="Ubreve" unicode="&#x16c;" horiz-adv-x="725" 
d="M412 746q-45 0 -82.5 25t-53.5 56l44 38q41 -58 100 -58q68 0 112 57l34 -36q-62 -82 -154 -82zM337 -12q-51 0 -94 10t-80.5 33t-59 66.5t-21.5 104.5q0 26 2 40l49 465h81l-48 -458q-2 -26 -2 -36q0 -157 174 -157q90 0 146 49t69 168l45 434h76l-46 -437
q-8 -81 -36.5 -139t-71.5 -87.5t-87.5 -42.5t-95.5 -13z" />
    <glyph glyph-name="ubreve" unicode="&#x16d;" horiz-adv-x="525" 
d="M159 -11q-56 0 -80 26t-24 86q0 22 3 48l43 397h76l-42 -378q-3 -32 -3 -53q0 -34 10.5 -47t36.5 -13q70 0 175 103l42 388h76l-58 -546h-76l9 90q-50 -50 -93 -75.5t-95 -25.5zM305 645q-44 0 -82 25t-54 56l44 39q39 -58 100 -58q68 0 112 57l34 -37q-63 -82 -154 -82z
" />
    <glyph glyph-name="Uring" unicode="&#x16e;" horiz-adv-x="724" 
d="M407 709q-38 0 -64.5 20t-26.5 54q0 46 31 74.5t77 28.5q36 0 62.5 -22t26.5 -56q0 -45 -30 -72t-76 -27zM410 744q24 0 41 16t17 40q0 21 -14 34.5t-35 13.5q-26 0 -42 -15.5t-16 -40.5q0 -22 14 -35t35 -13zM337 -12q-51 0 -94 10t-80.5 33t-59 66.5t-21.5 104.5
q0 26 2 40l49 465h81l-48 -458q-2 -26 -2 -36q0 -157 174 -157q90 0 146 49t69 168l45 434h76l-46 -437q-8 -81 -36.5 -139t-71.5 -87.5t-87.5 -42.5t-95.5 -13z" />
    <glyph glyph-name="uring" unicode="&#x16f;" horiz-adv-x="525" 
d="M304 615q-42 0 -71.5 22.5t-29.5 60.5q0 51 34.5 82.5t85.5 31.5q41 0 70 -24t29 -62q0 -50 -33.5 -80.5t-84.5 -30.5zM307 656q28 0 46 17t18 44q0 24 -15 38t-38 14q-29 0 -46.5 -17t-17.5 -45q0 -24 14.5 -37.5t38.5 -13.5zM159 -11q-56 0 -80 26t-24 86q0 22 3 48
l43 397h76l-42 -378q-3 -32 -3 -53q0 -34 10.5 -47t36.5 -13q70 0 175 103l42 388h76l-58 -546h-76l9 90q-50 -50 -93 -75.5t-95 -25.5z" />
    <glyph glyph-name="Uhungarumlaut" unicode="&#x170;" horiz-adv-x="725" 
d="M337 -12q-51 0 -94 10t-80.5 33t-59 66.5t-21.5 104.5q0 26 2 40l49 465h81l-48 -458q-2 -26 -2 -36q0 -157 174 -157q90 0 146 49t69 168l45 434h76l-46 -437q-8 -81 -36.5 -139t-71.5 -87.5t-87.5 -42.5t-95.5 -13zM270 737l-36 45l189 152l43 -60zM457 736l-17 55
l229 80l19 -71z" />
    <glyph glyph-name="uhungarumlaut" unicode="&#x171;" horiz-adv-x="525" 
d="M159 -11q-56 0 -80 26t-24 86q0 22 3 48l43 397h76l-42 -378q-3 -32 -3 -53q0 -34 10.5 -47t36.5 -13q70 0 175 103l42 388h76l-58 -546h-76l9 90q-50 -50 -93 -75.5t-95 -25.5zM171 617l-26 45l197 142l38 -61zM401 621l-28 46l188 124l35 -61z" />
    <glyph glyph-name="Uogonek" unicode="&#x172;" horiz-adv-x="729" 
d="M353 -225q-116 0 -104 108q5 54 75 105q-241 8 -241 211q0 26 2 40l49 468h81l-48 -461q-2 -24 -2 -35q0 -155 174 -155q91 0 146.5 47.5t68.5 166.5l46 437h76l-47 -440q-22 -221 -195 -267q-108 -64 -113 -114q-3 -27 12 -37.5t45 -10.5q27 0 46 8l12 -55
q-30 -16 -83 -16z" />
    <glyph glyph-name="uogonek" unicode="&#x173;" horiz-adv-x="524" 
d="M333 -225q-62 0 -84.5 28t-19.5 75q5 67 110 133l8 79q-104 -101 -188 -101q-56 0 -80 26t-24 86q0 22 3 48l43 397h76l-42 -378q-4 -48 -4 -59q1 -30 11.5 -42t36.5 -12q29 0 69 23t56.5 36.5t49.5 43.5l42 388h76l-59 -546q-40 -23 -75 -54.5t-38 -59.5
q-3 -27 12 -37.5t46 -10.5q29 0 45 8l12 -55q-28 -16 -82 -16z" />
    <glyph glyph-name="Wcircumflex" unicode="&#x174;" horiz-adv-x="964" 
d="M644 737l-136 69l-155 -68l-21 54l182 85l160 -85zM182 0l-105 707h83l87 -643l226 643h74l106 -645l253 645h80l-283 -707h-110l-96 588l-204 -588h-111z" />
    <glyph glyph-name="wcircumflex" unicode="&#x175;" horiz-adv-x="776" 
d="M554 621l-132 90l-151 -90l-32 50l191 115l160 -115zM135 0l-91 546h82l71 -492l180 313l-30 179h82l71 -492l146 307q44 91 44 165q0 14 -1 20h79q0 -2 0.5 -10t0.5 -9q0 -74 -48 -174l-171 -353h-113l-44 273l-157 -273h-101z" />
    <glyph glyph-name="Ycircumflex" unicode="&#x176;" horiz-adv-x="591" 
d="M219 0l29 274l-184 433h89l144 -365l235 365h86l-291 -432l-28 -275h-80zM486 737l-136 69l-155 -68l-21 54l182 85l160 -85z" />
    <glyph glyph-name="ycircumflex" unicode="&#x177;" horiz-adv-x="477" 
d="M406 621l-132 90l-151 -90l-32 50l191 115l160 -115zM66 -220l107 220h-41l-85 546h82l70 -492l147 307q45 90 45 166q0 4 -0.5 10t-0.5 9h79q0 -2 0.5 -10t0.5 -9q0 -72 -48 -174l-277 -573h-79z" />
    <glyph glyph-name="Ydieresis" unicode="&#x178;" horiz-adv-x="591" 
d="M219 0l29 274l-184 433h89l144 -365l235 365h86l-291 -432l-28 -275h-80zM197 764l9 92h74l-9 -92h-74zM406 764l9 92h74l-9 -92h-74z" />
    <glyph glyph-name="Zacute" unicode="&#x179;" 
d="M257 737l-16 54l229 80l19 -70zM5 0l7 70l431 565h-345l7 72h438l-6 -63l-434 -573h394l-7 -71h-485z" />
    <glyph glyph-name="zacute" unicode="&#x17a;" horiz-adv-x="460" 
d="M224 618l-30 48l186 135l38 -60zM1 0l7 66l338 414h-268l7 66h356l-7 -63l-342 -418h302l-7 -65h-386z" />
    <glyph glyph-name="Zdotaccent" unicode="&#x17b;" 
d="M295 765l9 92h74l-9 -92h-74zM5 0l7 70l431 565h-345l7 72h438l-6 -63l-434 -573h394l-7 -71h-485z" />
    <glyph glyph-name="zdotaccent" unicode="&#x17c;" horiz-adv-x="460" 
d="M1 0l7 66l338 414h-268l7 66h356l-7 -63l-342 -418h302l-7 -65h-386zM239 669l10 93h77l-10 -93h-77z" />
    <glyph glyph-name="Zcaron" unicode="&#x17d;" 
d="M321 739l-159 85l30 54l135 -69l155 68l21 -54zM5 0l7 70l431 565h-345l7 72h438l-6 -63l-434 -573h394l-7 -71h-485z" />
    <glyph glyph-name="zcaron" unicode="&#x17e;" horiz-adv-x="460" 
d="M269 616l-161 116l37 50l132 -93l153 91l29 -48zM1 0l7 66l338 414h-268l7 66h356l-7 -63l-342 -418h302l-7 -65h-386z" />
    <glyph glyph-name="uni018E" unicode="&#x18e;" horiz-adv-x="567" 
d="M510 707l-75 -707h-393l7 65h314l26 254h-291l6 66h292l27 257h-337l7 65h417z" />
    <glyph glyph-name="uni018F" unicode="&#x18f;" horiz-adv-x="757" 
d="M332 -12q-142 0 -212.5 80t-70.5 220q0 20 8 100h571q5 118 -53 190t-176 72q-126 0 -261 -66l-19 59q140 74 295 74q146 0 220 -83t74 -222q0 -185 -99 -304.5t-277 -119.5zM342 54q125 0 192.5 73t86.5 197h-492q-1 -11 -1 -32q2 -108 52.5 -173t161.5 -65z" />
    <glyph glyph-name="florin" unicode="&#x192;" horiz-adv-x="495" 
d="M0 -19l4 63q85 6 109 13q71 23 83 119l9 78h-104l7 65h106l6 48q6 49 23.5 85t41.5 57t57.5 34t66.5 17.5t74 4.5l-3 -65q-84 -8 -109 -17q-64 -27 -76 -119l-6 -45h112l-6 -65h-114l-11 -81q-8 -59 -33 -99t-64.5 -59.5t-80 -26.5t-92.5 -7z" />
    <glyph glyph-name="Ohorn" unicode="&#x1a0;" horiz-adv-x="819" 
d="M359 -11q-143 0 -221 85.5t-78 232.5q0 184 104.5 297.5t285.5 113.5q120 0 196 -62q75 34 75 124q0 31 -4 47h74q6 -19 6 -49q0 -120 -102 -175q56 -80 56 -203q0 -185 -105 -298t-287 -113zM369 55q143 0 221 97t78 245q0 116 -59 184.5t-171 68.5q-141 0 -219 -95.5
t-78 -242.5q0 -116 58 -186.5t170 -70.5z" />
    <glyph glyph-name="ohorn" unicode="&#x1a1;" horiz-adv-x="535" 
d="M200 -12q-74 0 -117 55t-43 137q0 173 75 276.5t197 103.5q58 0 98 -37q29 8 46 30t17 56q0 5 -5 38h72q6 -19 6 -41q0 -49 -27 -86t-69 -53q19 -46 19 -94q0 -69 -14.5 -134t-44.5 -123t-84 -93t-126 -35zM219 54q71 0 121.5 86.5t50.5 217.5q0 72 -24 105t-78 33
q-69 0 -119.5 -88t-50.5 -213q0 -141 100 -141z" />
    <glyph glyph-name="Uhorn" unicode="&#x1af;" horiz-adv-x="757" 
d="M337 -12q-51 0 -94 10t-80.5 33t-59 66.5t-21.5 104.5q0 26 2 40l49 465h81l-48 -458q-2 -26 -2 -36q0 -157 174 -157q90 0 146 49t69 168l45 434h25q40 2 63.5 24t23.5 63q0 15 -4 41h70q5 -15 5 -40q0 -57 -30.5 -96.5t-82.5 -50.5l-40 -378q-8 -81 -36.5 -139
t-71.5 -87.5t-87.5 -42.5t-95.5 -13z" />
    <glyph glyph-name="uhorn" unicode="&#x1b0;" horiz-adv-x="546" 
d="M159 -11q-56 0 -80 26t-24 86q0 22 3 48l43 397h76l-42 -378q-3 -32 -3 -53q0 -34 10.5 -47t36.5 -13q70 0 175 103l42 388h24q86 5 86 79q0 12 -6 40h70q6 -16 6 -41q0 -54 -30.5 -90t-79.5 -46l-52 -488h-76l9 90q-50 -50 -93 -75.5t-95 -25.5z" />
    <glyph glyph-name="uni01C4" unicode="&#x1c4;" horiz-adv-x="1264" 
d="M1025 739l-159 85l30 54l135 -69l155 68l21 -54zM710 0l7 70l431 565h-345l7 72h438l-6 -63l-434 -573h394l-7 -71h-485zM67 0l75 707h187q157 0 253 -77.5t96 -234.5q0 -194 -108.5 -294.5t-305.5 -100.5h-197zM153 66h126q154 0 236 82t82 243q0 128 -74 189t-204 61
h-105z" />
    <glyph glyph-name="uni01C5" unicode="&#x1c5;" horiz-adv-x="1152" 
d="M965 616l-161 116l37 50l132 -93l153 91l29 -48zM692 0l7 66l338 414h-268l7 66h356l-7 -63l-342 -418h302l-7 -65h-386zM45 0l75 707h187q157 0 253 -77.5t96 -234.5q0 -194 -108.5 -294.5t-305.5 -100.5h-197zM131 66h126q154 0 236 82t82 243q0 128 -74 189t-204 61
h-105z" />
    <glyph glyph-name="uni01C6" unicode="&#x1c6;" horiz-adv-x="966" 
d="M144 -13q-107 0 -107 178q0 169 92 277.5t231 107.5h25l22 204h76l-81 -754h-76l11 99q-112 -112 -193 -112zM507 0l7 66l338 414h-268l7 66h356l-7 -63l-342 -418h302l-7 -65h-386zM163 59q36 0 88 36.5t93 79.5l33 310q-9 1 -43 1q-59 0 -111 -44t-81 -113.5
t-29 -143.5q0 -73 12.5 -99.5t37.5 -26.5zM767 616l-161 116l37 50l132 -93l153 91l29 -48z" />
    <glyph glyph-name="uni01C7" unicode="&#x1c7;" horiz-adv-x="805" 
d="M464 -187l-27 59q91 48 126.5 108.5t47.5 170.5l58 556h79l-58 -554q-13 -129 -63 -210.5t-163 -129.5zM67 0l75 707h79l-67 -639h307l-7 -68h-387z" />
    <glyph glyph-name="uni01C8" unicode="&#x1c8;" horiz-adv-x="742" 
d="M432 -220q-41 0 -75 13l19 65q36 -11 65 -11q58 0 81 33.5t30 102.5l60 563h76l-60 -564q-11 -111 -61.5 -156.5t-134.5 -45.5zM45 0l75 707h79l-67 -639h307l-7 -68h-387zM625 669l10 93h77l-10 -93h-77z" />
    <glyph glyph-name="uni01C9" unicode="&#x1c9;" horiz-adv-x="497" 
d="M188 -220q-41 0 -75 13l19 65q36 -11 65 -11q58 0 81 33.5t30 102.5l60 563h76l-60 -564q-11 -111 -61.5 -156.5t-134.5 -45.5zM46 0l79 754h77l-80 -754h-76zM381 669l10 93h77l-10 -93h-77z" />
    <glyph glyph-name="uni01CA" unicode="&#x1ca;" horiz-adv-x="1076" 
d="M735 -187l-27 59q91 48 126.5 108.5t47.5 170.5l58 556h79l-58 -554q-13 -129 -63 -210.5t-163 -129.5zM67 0l76 707h116l264 -649l66 649h79l-76 -707h-123l-256 633l-66 -633h-80z" />
    <glyph glyph-name="uni01CB" unicode="&#x1cb;" horiz-adv-x="1012" 
d="M703 -220q-41 0 -75 13l19 65q36 -11 65 -11q58 0 81 33.5t30 102.5l60 563h76l-60 -564q-11 -111 -61.5 -156.5t-134.5 -45.5zM896 669l10 93h77l-10 -93h-77zM45 0l76 707h116l264 -649l66 649h79l-76 -707h-123l-256 633l-66 -633h-80z" />
    <glyph glyph-name="uni01CC" unicode="&#x1cc;" horiz-adv-x="787" 
d="M478 -220q-41 0 -75 13l19 65q36 -11 65 -11q58 0 81 33.5t30 102.5l60 563h76l-60 -564q-11 -111 -61.5 -156.5t-134.5 -45.5zM671 669l10 93h77l-10 -93h-77zM47 0l57 546h77l-9 -90q41 35 63.5 52t60.5 34.5t74 17.5q52 0 73 -25t21 -80q0 -27 -3 -61l-43 -394h-76
l41 378q4 27 4 52q0 32 -9.5 45t-34.5 13q-56 0 -179 -101l-41 -387h-76z" />
    <glyph glyph-name="uni01CD" unicode="&#x1cd;" horiz-adv-x="636" 
d="M-34 0l352 707h118l148 -707h-82l-53 266h-270l-131 -266h-82zM210 330h225l-53 276l-11 60l-27 -61zM374 739l-159 85l30 54l135 -69l155 68l21 -54z" />
    <glyph glyph-name="uni01CE" unicode="&#x1ce;" horiz-adv-x="510" 
d="M142 -13q-55 0 -82.5 44.5t-27.5 118.5q0 68 22.5 138t62.5 129t103 96.5t137 37.5q53 0 99 -8l-56 -543h-76l11 99q-63 -57 -108.5 -84.5t-84.5 -27.5zM161 59q31 0 86.5 40t94.5 77l33 307q-8 2 -34 2q-70 0 -125 -54t-81 -127t-26 -146q0 -44 13 -71.5t39 -27.5z
M319 616l-161 116l37 50l132 -93l153 91l29 -48z" />
    <glyph glyph-name="uni01CF" unicode="&#x1cf;" horiz-adv-x="278" 
d="M67 0l75 707h79l-74 -707h-80zM182 739l-159 85l30 54l135 -69l155 68l21 -54z" />
    <glyph glyph-name="uni01D0" unicode="&#x1d0;" horiz-adv-x="233" 
d="M145 616l-161 116l37 50l132 -93l153 91l29 -48zM47 0l57 546h76l-57 -546h-76z" />
    <glyph glyph-name="uni01D1" unicode="&#x1d1;" horiz-adv-x="801" 
d="M450 739l-159 85l30 54l135 -69l155 68l21 -54zM359 -11q-143 0 -221 85.5t-78 232.5q0 184 104.5 297.5t285.5 113.5q143 0 222 -85.5t79 -232.5q0 -185 -105 -298t-287 -113zM369 55q143 0 221 97t78 245q0 116 -59 184.5t-171 68.5q-141 0 -219 -95.5t-78 -242.5
q0 -116 58 -186.5t170 -70.5z" />
    <glyph glyph-name="uni01D2" unicode="&#x1d2;" horiz-adv-x="515" 
d="M305 616l-161 116l37 50l132 -93l153 91l29 -48zM200 -12q-74 0 -117 55t-43 137q0 173 75 276.5t197 103.5q75 0 116 -55.5t41 -131.5q0 -69 -14.5 -134t-44.5 -123t-84 -93t-126 -35zM219 54q71 0 121.5 86.5t50.5 217.5q0 72 -24 105t-78 33q-69 0 -119.5 -88
t-50.5 -213q0 -141 100 -141z" />
    <glyph glyph-name="uni01D3" unicode="&#x1d3;" horiz-adv-x="725" 
d="M398 739l-159 85l30 54l135 -69l155 68l21 -54zM337 -12q-51 0 -94 10t-80.5 33t-59 66.5t-21.5 104.5q0 26 2 40l49 465h81l-48 -458q-2 -26 -2 -36q0 -157 174 -157q90 0 146 49t69 168l45 434h76l-46 -437q-8 -81 -36.5 -139t-71.5 -87.5t-87.5 -42.5t-95.5 -13z" />
    <glyph glyph-name="uni01D4" unicode="&#x1d4;" horiz-adv-x="525" 
d="M293 616l-161 116l37 50l132 -93l153 91l29 -48zM159 -11q-56 0 -80 26t-24 86q0 22 3 48l43 397h76l-42 -378q-3 -32 -3 -53q0 -34 10.5 -47t36.5 -13q70 0 175 103l42 388h76l-58 -546h-76l9 90q-50 -50 -93 -75.5t-95 -25.5z" />
    <glyph glyph-name="uni01D5" unicode="&#x1d5;" horiz-adv-x="725" 
d="M264 754l9 92h74l-9 -92h-74zM473 754l9 92h74l-9 -92h-74zM337 -12q-51 0 -94 10t-80.5 33t-59 66.5t-21.5 104.5q0 26 2 40l49 465h81l-48 -458q-2 -26 -2 -36q0 -157 174 -157q90 0 146 49t69 168l45 434h76l-46 -437q-8 -81 -36.5 -139t-71.5 -87.5t-87.5 -42.5
t-95.5 -13zM284 888l7 64h261l-7 -64h-261z" />
    <glyph glyph-name="uni01D6" unicode="&#x1d6;" horiz-adv-x="525" 
d="M162 649l10 93h75l-10 -93h-75zM359 649l9 93h75l-10 -93h-74zM180 787l7 64h261l-7 -64h-261zM159 -11q-56 0 -80 26t-24 86q0 22 3 48l43 397h76l-42 -378q-3 -32 -3 -53q0 -34 10.5 -47t36.5 -13q70 0 175 103l42 388h76l-58 -546h-76l9 90q-50 -50 -93 -75.5
t-95 -25.5z" />
    <glyph glyph-name="uni01D7" unicode="&#x1d7;" horiz-adv-x="725" 
d="M264 754l9 92h74l-9 -92h-74zM473 754l9 92h74l-9 -92h-74zM375 868l-16 54l229 80l19 -70zM337 -12q-51 0 -94 10t-80.5 33t-59 66.5t-21.5 104.5q0 26 2 40l49 465h81l-48 -458q-2 -26 -2 -36q0 -157 174 -157q90 0 146 49t69 168l45 434h76l-46 -437
q-8 -81 -36.5 -139t-71.5 -87.5t-87.5 -42.5t-95.5 -13z" />
    <glyph glyph-name="uni01D8" unicode="&#x1d8;" horiz-adv-x="525" 
d="M162 649l10 93h75l-10 -93h-75zM359 649l9 93h75l-10 -93h-74zM284 754l-30 48l186 135l38 -60zM159 -11q-56 0 -80 26t-24 86q0 22 3 48l43 397h76l-42 -378q-3 -32 -3 -53q0 -34 10.5 -47t36.5 -13q70 0 175 103l42 388h76l-58 -546h-76l9 90q-50 -50 -93 -75.5
t-95 -25.5z" />
    <glyph glyph-name="uni01D9" unicode="&#x1d9;" horiz-adv-x="725" 
d="M264 754l9 92h74l-9 -92h-74zM473 754l9 92h74l-9 -92h-74zM337 -12q-51 0 -94 10t-80.5 33t-59 66.5t-21.5 104.5q0 26 2 40l49 465h81l-48 -458q-2 -26 -2 -36q0 -157 174 -157q90 0 146 49t69 168l45 434h76l-46 -437q-8 -81 -36.5 -139t-71.5 -87.5t-87.5 -42.5
t-95.5 -13zM411 855l-159 85l30 54l135 -69l155 68l21 -54z" />
    <glyph glyph-name="uni01DA" unicode="&#x1da;" horiz-adv-x="525" 
d="M162 649l10 93h75l-10 -93h-75zM359 649l9 93h75l-10 -93h-74zM159 -11q-56 0 -80 26t-24 86q0 22 3 48l43 397h76l-42 -378q-3 -32 -3 -53q0 -34 10.5 -47t36.5 -13q70 0 175 103l42 388h76l-58 -546h-76l9 90q-50 -50 -93 -75.5t-95 -25.5zM311 752l-161 116l37 50
l131 -93l153 91l30 -48z" />
    <glyph glyph-name="uni01DB" unicode="&#x1db;" horiz-adv-x="725" 
d="M446 854l-220 65l27 72l211 -82zM264 754l9 92h74l-9 -92h-74zM473 754l9 92h74l-9 -92h-74zM337 -12q-51 0 -94 10t-80.5 33t-59 66.5t-21.5 104.5q0 26 2 40l49 465h81l-48 -458q-2 -26 -2 -36q0 -157 174 -157q90 0 146 49t69 168l45 434h76l-46 -437
q-8 -81 -36.5 -139t-71.5 -87.5t-87.5 -42.5t-95.5 -13z" />
    <glyph glyph-name="uni01DC" unicode="&#x1dc;" horiz-adv-x="525" 
d="M162 649l10 93h75l-10 -93h-75zM359 649l9 93h75l-10 -93h-74zM159 -11q-56 0 -80 26t-24 86q0 22 3 48l43 397h76l-42 -378q-3 -32 -3 -53q0 -34 10.5 -47t36.5 -13q70 0 175 103l42 388h76l-58 -546h-76l9 90q-50 -50 -93 -75.5t-95 -25.5zM319 745l-184 119l38 60
l177 -129z" />
    <glyph glyph-name="uni01DD" unicode="&#x1dd;" horiz-adv-x="475" 
d="M292 561q129 0 129 -204q0 -100 -29 -182.5t-90 -134.5t-144 -52q-69 0 -103 35.5t-34 89.5q0 94 143 146l178 66v27q0 141 -63 141q-65 0 -171 -55l-27 57q37 21 61.5 32.5t66 22.5t83.5 11zM335 258l-159 -62q-38 -15 -59.5 -36t-21.5 -44q0 -33 19.5 -48t46.5 -15
q137 0 174 205z" />
    <glyph glyph-name="uni01E2" unicode="&#x1e2;" horiz-adv-x="906" 
d="M505 766l7 64h282l-7 -64h-282zM-50 0l468 707h455l-6 -65h-314l-27 -254h293l-8 -66h-291l-28 -257h338l-7 -65h-416l35 322h-197l-206 -322h-89zM286 387h162l28 255h-26z" />
    <glyph glyph-name="uni01E3" unicode="&#x1e3;" horiz-adv-x="767" 
d="M144 -13q-55 0 -81.5 48.5t-26.5 129.5q0 166 92.5 276t230.5 110q49 0 93 -8l-7 -62q65 80 162 80q72 0 104 -34t32 -90q0 -94 -143 -146l-177 -66q0 -5 -0.5 -14t-0.5 -13q0 -142 65 -142q54 0 170 55l27 -57q-37 -21 -61 -32.5t-66 -22.5t-84 -11q-101 0 -120 125
q-128 -126 -209 -126zM163 59q31 0 86.5 41t92.5 76l33 307l-41 2q-89 3 -155 -91t-66 -209q0 -73 12.5 -99.5t37.5 -26.5zM431 292l157 62q81 34 81 80q0 32 -19 47t-46 15q-40 0 -71.5 -17.5t-51 -48t-31.5 -64.5t-19 -74zM333 670l7 64h261l-7 -64h-261z" />
    <glyph glyph-name="uni01E6" unicode="&#x1e6;" horiz-adv-x="665" 
d="M434 739l-159 85l30 54l135 -69l155 68l21 -54zM378 -10q-146 0 -232.5 85.5t-86.5 234.5q0 183 105 293t286 110q105 0 166 -28l-29 -62q-66 22 -142 22q-145 0 -224 -90t-79 -240q0 -123 70 -188.5t192 -65.5q50 0 94 11l27 278h80l-33 -326q-89 -34 -194 -34z" />
    <glyph glyph-name="uni01E7" unicode="&#x1e7;" horiz-adv-x="509" 
d="M301 616l-161 116l37 50l132 -93l153 91l29 -48zM147 -230q-95 0 -172 22l18 68q86 -23 142 -23q40 0 68.5 5t55 19.5t42 44t20.5 74.5l13 119q-61 -58 -106 -85t-87 -27q-57 0 -82 40.5t-25 123.5q0 160 93.5 280t229.5 120q51 0 99 -8l-61 -579q-5 -54 -29 -93.5
t-60 -60.5t-75.5 -30.5t-83.5 -9.5zM160 59q31 0 88 41.5t93 75.5l33 307q-8 2 -34 2q-64 0 -117.5 -48.5t-83 -122.5t-29.5 -152q0 -58 12.5 -80.5t37.5 -22.5z" />
    <glyph glyph-name="uni01E8" unicode="&#x1e8;" horiz-adv-x="602" 
d="M480 -19l-270 386l1 16l308 324h100l-318 -327l252 -359zM67 0l75 707h79l-74 -707h-80zM361 739l-159 85l30 54l135 -69l155 68l21 -54z" />
    <glyph glyph-name="uni01E9" unicode="&#x1e9;" horiz-adv-x="482" 
d="M365 -14l-192 302l201 258h90l-203 -255l181 -280zM46 0l79 754h77l-80 -754h-76zM326 739l-159 85l30 54l135 -69l155 68l21 -54z" />
    <glyph glyph-name="uni01EA" unicode="&#x1ea;" horiz-adv-x="802" 
d="M359 -11q-143 0 -221 85.5t-78 232.5q0 184 104.5 297.5t285.5 113.5q143 0 222 -85.5t79 -232.5q0 -145 -66.5 -248t-185.5 -142q-135 -73 -135 -129q0 -46 50 -46q26 0 54 10l11 -55q-37 -15 -85 -15q-49 0 -75.5 25t-26.5 69q0 62 77 121q-2 0 -5.5 -0.5t-4.5 -0.5z
M369 55q143 0 221 97t78 245q0 116 -59 184.5t-171 68.5q-141 0 -219 -95.5t-78 -242.5q0 -116 58 -186.5t170 -70.5z" />
    <glyph glyph-name="uni01EB" unicode="&#x1eb;" horiz-adv-x="518" 
d="M272 -155l11 -55q-38 -15 -85 -15q-49 0 -75.5 25t-26.5 69q0 63 78 121q-63 10 -98 63t-35 127q0 173 75 276.5t197 103.5q75 0 116 -55.5t41 -131.5q0 -118 -41 -220.5t-126 -142.5q-135 -73 -135 -129q0 -46 50 -46q26 0 54 10zM220 54q71 0 121.5 86.5t50.5 217.5
q0 72 -24 105t-78 33q-69 0 -119.5 -88t-50.5 -213q0 -141 100 -141z" />
    <glyph glyph-name="uni01EC" unicode="&#x1ec;" horiz-adv-x="802" 
d="M359 -11q-143 0 -221 85.5t-78 232.5q0 184 104.5 297.5t285.5 113.5q143 0 222 -85.5t79 -232.5q0 -145 -66.5 -248t-185.5 -142q-135 -73 -135 -129q0 -46 50 -46q26 0 54 10l11 -55q-37 -15 -85 -15q-49 0 -75.5 25t-26.5 69q0 62 77 121q-2 0 -5.5 -0.5t-4.5 -0.5z
M369 55q143 0 221 97t78 245q0 116 -59 184.5t-171 68.5q-141 0 -219 -95.5t-78 -242.5q0 -116 58 -186.5t170 -70.5zM316 766l7 64h282l-7 -64h-282z" />
    <glyph glyph-name="uni01ED" unicode="&#x1ed;" horiz-adv-x="518" 
d="M271 -155l11 -55q-37 -15 -85 -15q-49 0 -75.5 25t-26.5 69q0 63 78 121q-62 10 -97 63t-35 127q0 173 75 276.5t197 103.5q75 0 116 -55.5t41 -131.5q0 -56 -9.5 -110.5t-29.5 -105.5t-55.5 -91t-81.5 -60q-127 -68 -127 -125q0 -46 50 -46q26 0 54 10zM220 54
q71 0 121.5 86.5t50.5 217.5q0 72 -24 105t-78 33q-69 0 -119.5 -88t-50.5 -213q0 -141 100 -141zM191 670l7 64h261l-7 -64h-261z" />
    <glyph glyph-name="uni01EE" unicode="&#x1ee;" horiz-adv-x="529" 
d="M293 739l-159 85l30 54l135 -69l155 68l21 -54zM169 398l233 239h-316l7 70h406l-7 -65l-238 -240q90 -10 151 -60.5t61 -124.5q0 -71 -39.5 -124.5t-98.5 -79t-125 -25.5q-130 0 -193 46l30 65q29 -17 75 -30t86 -13q32 0 62 8t57.5 24.5t44.5 47.5t17 73q0 61 -58 96.5
t-132 35.5q-3 0 -9.5 -0.5t-9.5 -0.5z" />
    <glyph glyph-name="uni01EF" unicode="&#x1ef;" horiz-adv-x="462" 
d="M105 181l6 62l232 234h-297l7 69h387l-7 -64l-244 -245q86 -11 144.5 -61t58.5 -124q0 -63 -34 -115t-89.5 -86t-121.5 -54t-136 -26l-7 64q81 9 146.5 32.5t112 68.5t46.5 105q0 63 -61.5 98.5t-142.5 41.5zM251 616l-161 116l37 50l132 -93l153 91l29 -48z" />
    <glyph glyph-name="uni01F1" unicode="&#x1f1;" horiz-adv-x="1264" 
d="M710 0l7 70l431 565h-345l7 72h438l-6 -63l-434 -573h394l-7 -71h-485zM67 0l75 707h187q157 0 253 -77.5t96 -234.5q0 -194 -108.5 -294.5t-305.5 -100.5h-197zM153 66h126q154 0 236 82t82 243q0 128 -74 189t-204 61h-105z" />
    <glyph glyph-name="uni01F2" unicode="&#x1f2;" horiz-adv-x="1152" 
d="M692 0l7 66l338 414h-268l7 66h356l-7 -63l-342 -418h302l-7 -65h-386zM45 0l75 707h187q157 0 253 -77.5t96 -234.5q0 -194 -108.5 -294.5t-305.5 -100.5h-197zM131 66h126q154 0 236 82t82 243q0 128 -74 189t-204 61h-105z" />
    <glyph glyph-name="uni01F3" unicode="&#x1f3;" horiz-adv-x="966" 
d="M144 -13q-107 0 -107 178q0 169 92 277.5t231 107.5h25l22 204h76l-81 -754h-76l11 99q-112 -112 -193 -112zM507 0l7 66l338 414h-268l7 66h356l-7 -63l-342 -418h302l-7 -65h-386zM163 59q36 0 88 36.5t93 79.5l33 310q-9 1 -43 1q-59 0 -111 -44t-81 -113.5
t-29 -143.5q0 -73 12.5 -99.5t37.5 -26.5z" />
    <glyph glyph-name="uni01F4" unicode="&#x1f4;" horiz-adv-x="665" 
d="M362 737l-16 54l229 80l19 -70zM378 -10q-146 0 -232.5 85.5t-86.5 234.5q0 183 105 293t286 110q105 0 166 -28l-29 -62q-66 22 -142 22q-145 0 -224 -90t-79 -240q0 -123 70 -188.5t192 -65.5q50 0 94 11l27 278h80l-33 -326q-89 -34 -194 -34z" />
    <glyph glyph-name="uni01F5" unicode="&#x1f5;" horiz-adv-x="509" 
d="M264 618l-30 48l186 135l38 -60zM147 -230q-95 0 -172 22l18 68q86 -23 142 -23q40 0 68.5 5t55 19.5t42 44t20.5 74.5l13 119q-61 -58 -106 -85t-87 -27q-57 0 -82 40.5t-25 123.5q0 160 93.5 280t229.5 120q51 0 99 -8l-61 -579q-5 -54 -29 -93.5t-60 -60.5
t-75.5 -30.5t-83.5 -9.5zM160 59q31 0 88 41.5t93 75.5l33 307q-8 2 -34 2q-64 0 -117.5 -48.5t-83 -122.5t-29.5 -152q0 -58 12.5 -80.5t37.5 -22.5z" />
    <glyph glyph-name="uni01F8" unicode="&#x1f8;" horiz-adv-x="724" 
d="M504 736l-220 65l27 72l211 -82zM67 0l76 707h116l264 -649l66 649h79l-76 -707h-123l-256 633l-66 -633h-80z" />
    <glyph glyph-name="uni01F9" unicode="&#x1f9;" horiz-adv-x="526" 
d="M335 614l-184 119l38 60l177 -129zM47 0l57 546h77l-9 -90q41 35 63.5 52t60.5 34.5t74 17.5q52 0 73 -25t21 -80q0 -27 -3 -61l-43 -394h-76l41 378q4 27 4 52q0 32 -9.5 45t-34.5 13q-56 0 -179 -101l-41 -387h-76z" />
    <glyph glyph-name="uni01FA" unicode="&#x1fa;" horiz-adv-x="636" 
d="M-34 0l352 707h118l148 -707h-82l-53 266h-270l-131 -266h-82zM210 330h225l-53 276l-11 60l-27 -61zM322 909l-16 54l229 80l19 -70zM381 726q-38 0 -64.5 20t-26.5 54q0 46 31 74.5t77 28.5q36 0 62.5 -22t26.5 -56q0 -45 -30 -72t-76 -27zM384 761q24 0 41 16t17 40
q0 21 -14 34.5t-35 13.5q-26 0 -42 -15.5t-16 -40.5q0 -22 14 -35t35 -13z" />
    <glyph glyph-name="uni01FB" unicode="&#x1fb;" horiz-adv-x="510" 
d="M142 -13q-55 0 -82.5 44.5t-27.5 118.5q0 68 22.5 138t62.5 129t103 96.5t137 37.5q53 0 99 -8l-56 -543h-76l11 99q-63 -57 -108.5 -84.5t-84.5 -27.5zM161 59q31 0 86.5 40t94.5 77l33 307q-8 2 -34 2q-70 0 -125 -54t-81 -127t-26 -146q0 -44 13 -71.5t39 -27.5z
M251 843l-16 54l229 80l19 -70zM317 607q-46 0 -77.5 24t-31.5 66q0 54 37.5 88.5t91.5 34.5q44 0 75.5 -26t31.5 -67q0 -54 -36 -87t-91 -33zM320 650q30 0 50 19t20 49q0 25 -16.5 40.5t-41.5 15.5q-31 0 -50.5 -18.5t-19.5 -48.5q0 -26 16.5 -41.5t41.5 -15.5z" />
    <glyph glyph-name="AEacute" unicode="&#x1fc;" horiz-adv-x="906" 
d="M563 737l-16 54l229 80l19 -70zM-50 0l468 707h455l-6 -65h-314l-27 -254h293l-8 -66h-291l-28 -257h338l-7 -65h-416l35 322h-197l-206 -322h-89zM286 387h162l28 255h-26z" />
    <glyph glyph-name="aeacute" unicode="&#x1fd;" horiz-adv-x="767" 
d="M144 -13q-55 0 -81.5 48.5t-26.5 129.5q0 166 92.5 276t230.5 110q49 0 93 -8l-7 -62q65 80 162 80q72 0 104 -34t32 -90q0 -94 -143 -146l-177 -66q0 -5 -0.5 -14t-0.5 -13q0 -142 65 -142q54 0 170 55l27 -57q-37 -21 -61 -32.5t-66 -22.5t-84 -11q-101 0 -120 125
q-128 -126 -209 -126zM163 59q31 0 86.5 41t92.5 76l33 307l-41 2q-89 3 -155 -91t-66 -209q0 -73 12.5 -99.5t37.5 -26.5zM431 292l157 62q81 34 81 80q0 32 -19 47t-46 15q-40 0 -71.5 -17.5t-51 -48t-31.5 -64.5t-19 -74zM410 618l-30 48l186 135l38 -60z" />
    <glyph glyph-name="Oslashacute" unicode="&#x1fe;" horiz-adv-x="826" 
d="M88 -29l-41 39l84 87q-58 82 -58 210q0 184 104.5 297.5t285.5 113.5q123 0 202 -66l79 81l41 -40l-80 -84q59 -80 59 -209q0 -185 -105 -298t-287 -113q-127 0 -202 67zM190 157l419 438q-60 55 -158 55q-141 0 -219 -96t-78 -242q0 -95 36 -155zM382 55q143 0 221.5 97
t78.5 245q0 89 -37 151l-420 -436q59 -57 157 -57zM351 737l-16 54l229 80l19 -70z" />
    <glyph glyph-name="oslashacute" unicode="&#x1ff;" horiz-adv-x="546" 
d="M35 -28l-36 30l76 90q-16 42 -16 88q0 171 75 275.5t196 104.5q65 0 108 -48l54 62l36 -31l-62 -73q22 -46 22 -97q0 -69 -14.5 -134t-44.5 -123t-84 -93t-126 -35q-73 0 -119 59zM140 167l250 289q-25 40 -83 40q-66 0 -117 -84.5t-52 -211.5q0 -13 2 -33zM237 54
q70 0 121 85.5t52 215.5q0 11 -3 47l-255 -295q22 -53 85 -53zM247 618l-30 48l186 135l38 -60z" />
    <glyph glyph-name="Scommaaccent" unicode="&#x218;" horiz-adv-x="523" 
d="M139 -261l44 202h72l-55 -202h-61zM210 -11q-48 0 -105 14t-91 34l31 67q96 -45 171 -45q166 0 166 134q0 36 -30 66.5t-72.5 54.5t-85.5 51.5t-73 71t-30 98.5q0 86 65 133t160 47q104 0 178 -41l-26 -62q-77 34 -155 34q-63 0 -103.5 -25.5t-40.5 -83.5q0 -36 30 -67.5
t73 -57t86 -53.5t73 -70.5t30 -93.5q0 -100 -71.5 -153t-179.5 -53z" />
    <glyph glyph-name="scommaaccent" unicode="&#x219;" horiz-adv-x="417" 
d="M78 -261l44 202h72l-55 -202h-61zM154 -9q-92 0 -149 25l22 66q68 -25 132 -25q18 0 36.5 3t39 11t33.5 25t13 41q0 29 -21.5 55t-52.5 46.5t-62.5 43t-53 54.5t-21.5 71q0 78 50.5 113.5t128.5 35.5q82 0 142 -30l-23 -59q-72 26 -129 26q-41 0 -69 -18t-28 -57
q0 -29 22 -55t53 -47t62.5 -43.5t53.5 -57t22 -75.5t-18.5 -71.5t-49 -46.5t-64 -23.5t-69.5 -7.5z" />
    <glyph glyph-name="uni021A" unicode="&#x21a;" horiz-adv-x="569" 
d="M173 -261l44 202h72l-55 -202h-61zM211 0l67 640h-242l8 67h563l-8 -67h-241l-67 -640h-80z" />
    <glyph glyph-name="uni021B" unicode="&#x21b;" horiz-adv-x="375" 
d="M109 -261l44 202h72l-55 -202h-61zM181 -12q-99 0 -102 106q-2 21 1 41l38 347h-80l7 64h81l11 112h75l-11 -112h169l-6 -64h-170l-37 -345q-9 -80 45 -80q50 0 114 33l17 -58q-67 -44 -152 -44z" />
    <glyph glyph-name="uni021C" unicode="&#x21c;" horiz-adv-x="529" 
d="M169 398l233 239h-316l7 70h406l-7 -65l-238 -240q90 -10 151 -60.5t61 -124.5q0 -71 -39.5 -124.5t-98.5 -79t-125 -25.5q-130 0 -193 46l30 65q29 -17 75 -30t86 -13q32 0 62 8t57.5 24.5t44.5 47.5t17 73q0 61 -58 96.5t-132 35.5q-3 0 -9.5 -0.5t-9.5 -0.5z" />
    <glyph glyph-name="uni021D" unicode="&#x21d;" horiz-adv-x="462" 
d="M105 181l6 62l232 234h-297l7 69h387l-7 -64l-244 -245q86 -11 144.5 -61t58.5 -124q0 -63 -34 -115t-89.5 -86t-121.5 -54t-136 -26l-7 64q81 9 146.5 32.5t112 68.5t46.5 105q0 63 -61.5 98.5t-142.5 41.5z" />
    <glyph glyph-name="uni021E" unicode="&#x21e;" horiz-adv-x="738" 
d="M67 0l75 707h79l-33 -320h380l33 320h80l-74 -707h-80l35 322h-381l-34 -322h-80zM414 739l-159 85l30 54l135 -69l155 68l21 -54z" />
    <glyph glyph-name="uni021F" unicode="&#x21f;" horiz-adv-x="525" 
d="M46 0l80 754h77l-32 -298q41 35 63.5 52t60.5 34.5t74 17.5q52 0 73.5 -25t21.5 -80q0 -30 -4 -61l-43 -394h-76l42 378q3 32 3 55q0 30 -9.5 42.5t-33.5 12.5q-57 0 -180 -101l-41 -387h-76zM334 739l-159 85l30 54l135 -69l155 68l21 -54z" />
    <glyph glyph-name="uni0226" unicode="&#x226;" horiz-adv-x="636" 
d="M-34 0l352 707h118l148 -707h-82l-53 266h-270l-131 -266h-82zM210 330h225l-53 276l-11 60l-27 -61zM344 765l9 92h74l-9 -92h-74z" />
    <glyph glyph-name="uni0227" unicode="&#x227;" horiz-adv-x="510" 
d="M142 -13q-55 0 -82.5 44.5t-27.5 118.5q0 68 22.5 138t62.5 129t103 96.5t137 37.5q53 0 99 -8l-56 -543h-76l11 99q-63 -57 -108.5 -84.5t-84.5 -27.5zM161 59q31 0 86.5 40t94.5 77l33 307q-8 2 -34 2q-70 0 -125 -54t-81 -127t-26 -146q0 -44 13 -71.5t39 -27.5z
M302 669l10 93h77l-10 -93h-77z" />
    <glyph glyph-name="uni0228" unicode="&#x228;" horiz-adv-x="567" 
d="M67 0l75 707h393l-7 -65h-314l-26 -254h291l-6 -66h-292l-27 -257h337l-7 -65h-417zM212 -239l-21 44q59 34 66 77q2 23 -16 67h74q16 -32 13 -66q-7 -77 -116 -122z" />
    <glyph glyph-name="uni0229" unicode="&#x229;" horiz-adv-x="468" 
d="M173 -12q-129 0 -129 204q0 100 29 182.5t90 134.5t144 52q69 0 103 -35.5t34 -89.5q0 -94 -143 -146l-178 -66v-27q0 -141 63 -141q65 0 171 55l27 -57q-37 -21 -61.5 -32.5t-66 -22.5t-83.5 -11zM130 291l159 62q38 15 59.5 36t21.5 44q0 33 -19.5 48t-46.5 15
q-137 0 -174 -205zM154 -239l-21 44q59 34 66 77q2 23 -16 67h74q16 -32 13 -66q-7 -77 -116 -122z" />
    <glyph glyph-name="uni022E" unicode="&#x22e;" horiz-adv-x="801" 
d="M419 765l9 92h74l-9 -92h-74zM359 -11q-143 0 -221 85.5t-78 232.5q0 184 104.5 297.5t285.5 113.5q143 0 222 -85.5t79 -232.5q0 -185 -105 -298t-287 -113zM369 55q143 0 221 97t78 245q0 116 -59 184.5t-171 68.5q-141 0 -219 -95.5t-78 -242.5q0 -116 58 -186.5
t170 -70.5z" />
    <glyph glyph-name="uni022F" unicode="&#x22f;" horiz-adv-x="515" 
d="M200 -12q-74 0 -117 55t-43 137q0 173 75 276.5t197 103.5q75 0 116 -55.5t41 -131.5q0 -69 -14.5 -134t-44.5 -123t-84 -93t-126 -35zM219 54q71 0 121.5 86.5t50.5 217.5q0 72 -24 105t-78 33q-69 0 -119.5 -88t-50.5 -213q0 -141 100 -141zM286 669l10 93h77l-10 -93
h-77z" />
    <glyph glyph-name="uni0232" unicode="&#x232;" horiz-adv-x="591" 
d="M219 0l29 274l-184 433h89l144 -365l235 365h86l-291 -432l-28 -275h-80zM200 766l7 64h282l-7 -64h-282z" />
    <glyph glyph-name="uni0233" unicode="&#x233;" horiz-adv-x="477" 
d="M66 -220l107 220h-41l-85 546h82l70 -492l147 307q45 90 45 166q0 4 -0.5 10t-0.5 9h79q0 -2 0.5 -10t0.5 -9q0 -72 -48 -174l-277 -573h-79zM140 670l7 64h261l-7 -64h-261z" />
    <glyph glyph-name="uni0237" unicode="&#x237;" horiz-adv-x="233" 
d="M-76 -220q-41 0 -75 13l19 65q36 -11 65 -11q58 0 81 33.5t30 102.5l60 563h76l-60 -564q-11 -111 -61.5 -156.5t-134.5 -45.5z" />
    <glyph glyph-name="uni0259" unicode="&#x259;" horiz-adv-x="475" 
d="M292 561q129 0 129 -204q0 -100 -29 -182.5t-90 -134.5t-144 -52q-69 0 -103 35.5t-34 89.5q0 94 143 146l178 66v27q0 141 -63 141q-65 0 -171 -55l-27 57q37 21 61.5 32.5t66 22.5t83.5 11zM335 258l-159 -62q-38 -15 -59.5 -36t-21.5 -44q0 -33 19.5 -48t46.5 -15
q137 0 174 205z" />
    <glyph glyph-name="uni02BC" unicode="&#x2bc;" horiz-adv-x="552" 
d="M-44 556q38 84 47 207h83q-3 -68 -20 -114.5t-47 -92.5h-63z" />
    <glyph glyph-name="circumflex" unicode="&#x2c6;" horiz-adv-x="529" 
d="M432 621l-132 90l-151 -90l-32 50l191 115l160 -115z" />
    <glyph glyph-name="caron" unicode="&#x2c7;" horiz-adv-x="529" 
d="M317 616l-161 116l37 50l132 -93l153 91l29 -48z" />
    <glyph glyph-name="breve" unicode="&#x2d8;" horiz-adv-x="496" 
d="M325 645q-44 0 -82 25t-54 56l44 39q39 -58 100 -58q68 0 112 57l34 -37q-63 -82 -154 -82z" />
    <glyph glyph-name="dotaccent" unicode="&#x2d9;" horiz-adv-x="313" 
d="M133 669l10 93h77l-10 -93h-77z" />
    <glyph glyph-name="ring" unicode="&#x2da;" horiz-adv-x="525" 
d="M333 615q-42 0 -71.5 22.5t-29.5 60.5q0 51 34.5 82.5t85.5 31.5q41 0 70 -24t29 -62q0 -50 -33.5 -80.5t-84.5 -30.5zM336 656q28 0 46 17t18 44q0 24 -15 38t-38 14q-29 0 -46.5 -17t-17.5 -45q0 -24 14.5 -37.5t38.5 -13.5z" />
    <glyph glyph-name="ogonek" unicode="&#x2db;" horiz-adv-x="549" 
d="M449 -155l11 -55q-38 -15 -85 -15q-49 0 -75.5 25t-26.5 69q0 95 180 181l27 -40q-135 -73 -135 -129q0 -46 50 -46q26 0 54 10z" />
    <glyph glyph-name="tilde" unicode="&#x2dc;" horiz-adv-x="529" 
d="M393 646q-21 0 -63 18t-59 18q-38 0 -70 -24l-29 42q47 47 105 47q26 0 64.5 -18t56.5 -18q34 0 73 27l27 -43q-45 -49 -105 -49z" />
    <glyph glyph-name="hungarumlaut" unicode="&#x2dd;" horiz-adv-x="539" 
d="M135 617l-26 45l197 142l38 -61zM365 621l-28 46l188 124l35 -61z" />
    <glyph glyph-name="gravecmb" unicode="&#x300;" horiz-adv-x="0" 
d="M-132 614l-184 119l38 60l177 -129z" />
    <glyph glyph-name="acutecmb" unicode="&#x301;" horiz-adv-x="0" 
d="M-263 618l-31 48l187 135l38 -60z" />
    <glyph glyph-name="uni0302" unicode="&#x302;" horiz-adv-x="0" 
d="M-60 621l-132 90l-151 -90l-32 50l191 115l160 -115z" />
    <glyph glyph-name="tildecmb" unicode="&#x303;" horiz-adv-x="0" 
d="M-135 646q-21 0 -63 18t-59 18q-38 0 -70 -24l-29 42q47 47 105 47q26 0 64.5 -18t56.5 -18q34 0 73 27l27 -43q-45 -49 -105 -49z" />
    <glyph glyph-name="uni0304" unicode="&#x304;" horiz-adv-x="0" 
d="M-328 670l7 64h261l-7 -64h-261z" />
    <glyph glyph-name="uni0306" unicode="&#x306;" horiz-adv-x="0" 
d="M-206 645q-44 0 -82 25t-54 56l44 39q41 -58 100 -58q68 0 112 57l34 -37q-63 -82 -154 -82z" />
    <glyph glyph-name="uni0307" unicode="&#x307;" horiz-adv-x="0" 
d="M-226 671l9 92h74l-9 -92h-74z" />
    <glyph glyph-name="uni0308" unicode="&#x308;" horiz-adv-x="0" 
d="M-327 668l9 92h74l-9 -92h-74zM-131 668l9 92h74l-9 -92h-74z" />
    <glyph glyph-name="hookcmb" unicode="&#x309;" horiz-adv-x="0" 
d="M-116 766q0 -50 -30 -83.5t-63 -46.5l-36 39q25 11 45 32.5t20 46.5q0 19 -12.5 28t-27.5 9q-25 0 -47 -9l2 53q31 13 66 13t58 -20q25 -22 25 -62z" />
    <glyph glyph-name="uni030A" unicode="&#x30a;" horiz-adv-x="0" 
d="M-197 607q-46 0 -77.5 24t-31.5 66q0 54 37.5 88.5t91.5 34.5q44 0 75.5 -26t31.5 -67q0 -54 -36 -87t-91 -33zM-194 650q30 0 50 19t20 49q0 25 -16.5 40.5t-41.5 15.5q-31 0 -50.5 -18.5t-19.5 -48.5q0 -26 16.5 -41.5t41.5 -15.5z" />
    <glyph glyph-name="uni030B" unicode="&#x30b;" horiz-adv-x="0" 
d="M-325 617l-26 45l197 142l38 -61zM-95 621l-28 46l188 124l35 -61z" />
    <glyph glyph-name="uni030C" unicode="&#x30c;" horiz-adv-x="0" 
d="M-188 616l-161 116l37 50l131 -93l153 91l30 -48z" />
    <glyph glyph-name="uni0310" unicode="&#x310;" horiz-adv-x="0" 
d="M-190 645q-44 0 -81.5 25t-54.5 56l45 39q39 -58 99 -58q68 0 112 57l35 -37q-63 -82 -155 -82zM-215 775l9 92h74l-9 -92h-74z" />
    <glyph glyph-name="dotbelowcmb" unicode="&#x323;" horiz-adv-x="0" 
d="M-349 -220l9 92h74l-9 -92h-74z" />
    <glyph glyph-name="uni0324" unicode="&#x324;" horiz-adv-x="0" 
d="M-458 -220l9 92h74l-9 -92h-74zM-261 -220l9 92h74l-9 -92h-74z" />
    <glyph glyph-name="uni0325" unicode="&#x325;" horiz-adv-x="0" 
d="M-353 -288q-45 0 -77 24t-32 66q0 54 38 88t92 34q44 0 75.5 -26t31.5 -66q0 -54 -36.5 -87t-91.5 -33zM-349 -245q30 0 50 19t20 49q0 25 -17 40.5t-42 15.5q-31 0 -50.5 -18.5t-19.5 -49.5q0 -26 16.5 -41t42.5 -15z" />
    <glyph glyph-name="uni0327" unicode="&#x327;" horiz-adv-x="0" 
d="M-375 -239l-20 44q62 36 65 79q2 23 -15 65h74q16 -33 13 -64q-3 -78 -117 -124z" />
    <glyph glyph-name="uni0328" unicode="&#x328;" horiz-adv-x="0" 
d="M-240 -155l12 -55q-35 -15 -85 -15q-49 0 -76 25t-27 69q0 95 180 181l27 -40q-135 -73 -135 -129q0 -45 49 -45q24 0 55 9z" />
    <glyph glyph-name="uni032E" unicode="&#x32e;" horiz-adv-x="0" 
d="M-318 -206q-44 0 -81.5 25t-54.5 57l45 38q39 -58 99 -58q68 0 112 57l35 -37q-66 -82 -155 -82z" />
    <glyph glyph-name="uni0331" unicode="&#x331;" horiz-adv-x="0" 
d="M-445 -192l7 63h261l-7 -63h-261z" />
    <glyph glyph-name="uni0374" unicode="&#x374;" horiz-adv-x="147" 
d="M40 556q38 84 47 207h83q-3 -68 -20 -114.5t-47 -92.5h-63z" />
    <glyph glyph-name="uni0375" unicode="&#x375;" horiz-adv-x="163" 
d="M22 -121q38 83 47 206h83q-3 -68 -20 -114.5t-47 -91.5h-63z" />
    <glyph glyph-name="uni037E" unicode="&#x37e;" horiz-adv-x="518" 
d="M149 -125q33 71 39 124q4 22 9 82h80q-3 -37 -6 -49q-12 -89 -57 -157h-65zM228 459l9 87h91l-10 -87h-90z" />
    <glyph glyph-name="tonos" unicode="&#x384;" horiz-adv-x="474" 
d="M259 621l65 158h83l-81 -158h-67z" />
    <glyph glyph-name="dieresistonos" unicode="&#x385;" horiz-adv-x="462" 
d="M89 624l89 158h83l-105 -158h-67zM-23 633l9 92h74l-9 -92h-74zM247 633l9 92h74l-9 -92h-74z" />
    <glyph glyph-name="Alphatonos" unicode="&#x386;" horiz-adv-x="635" 
d="M-34 0l352 707h118l148 -707h-82l-53 266h-270l-131 -266h-82zM210 330h225l-53 276l-11 60l-27 -61zM11 547l65 160h81l-81 -160h-65z" />
    <glyph glyph-name="anoteleia" unicode="&#x387;" horiz-adv-x="238" 
d="M77 314l9 87h90l-9 -87h-90z" />
    <glyph glyph-name="Epsilontonos" unicode="&#x388;" horiz-adv-x="568" 
d="M-52 547l65 160h81l-81 -160h-65zM68 0l75 707h393l-7 -65h-314l-26 -254h291l-6 -66h-292l-27 -257h337l-7 -65h-417z" />
    <glyph glyph-name="Etatonos" unicode="&#x389;" horiz-adv-x="742" 
d="M68 0l75 707h79l-33 -320h380l33 320h80l-74 -707h-80l35 322h-381l-34 -322h-80zM-56 547l65 160h81l-81 -160h-65z" />
    <glyph glyph-name="Iotatonos" unicode="&#x38a;" horiz-adv-x="281" 
d="M68 0l75 707h79l-74 -707h-80zM-53 547l65 160h81l-81 -160h-65z" />
    <glyph glyph-name="Omicrontonos" unicode="&#x38c;" horiz-adv-x="802" 
d="M-27 547l65 160h81l-81 -160h-65zM359 -11q-143 0 -221 85.5t-78 232.5q0 184 104.5 297.5t285.5 113.5q143 0 222 -85.5t79 -232.5q0 -185 -105 -298t-287 -113zM369 55q143 0 221 97t78 245q0 116 -59 184.5t-171 68.5q-141 0 -219 -95.5t-78 -242.5q0 -116 58 -186.5
t170 -70.5z" />
    <glyph glyph-name="Upsilontonos" unicode="&#x38e;" horiz-adv-x="598" 
d="M222 0l29 274l-184 433h89l144 -365l235 365h86l-291 -432l-28 -275h-80zM-115 547l65 160h81l-81 -160h-65z" />
    <glyph glyph-name="Omegatonos" unicode="&#x38f;" horiz-adv-x="816" 
d="M-37 547l65 160h81l-81 -160h-65zM44 0l7 71h167q-59 31 -104 102t-45 165q0 168 108.5 274t278.5 106q148 0 226 -86t78 -223q0 -109 -59 -203.5t-153 -134.5h171l-7 -71h-270l6 69q228 122 228 334q0 112 -58 179.5t-173 67.5q-138 0 -217 -90t-79 -223
q0 -161 168 -268l-6 -69h-267z" />
    <glyph glyph-name="iotadieresistonos" unicode="&#x390;" horiz-adv-x="232" 
d="M111 630l89 158h83l-105 -158h-67zM-1 639l9 92h74l-9 -92h-74zM269 639l9 92h74l-9 -92h-74zM46 0l57 546h76l-57 -546h-76z" />
    <glyph glyph-name="Alpha" unicode="&#x391;" horiz-adv-x="635" 
d="M-34 0l352 707h118l148 -707h-82l-53 266h-270l-131 -266h-82zM210 330h225l-53 276l-11 60l-27 -61z" />
    <glyph glyph-name="Beta" unicode="&#x392;" horiz-adv-x="615" 
d="M68 0l75 707h192q202 0 202 -157q0 -59 -31 -108t-86 -64v-3q58 -7 94.5 -49t36.5 -101q0 -114 -70.5 -169.5t-189.5 -55.5h-223zM156 66h123q44 0 76 6.5t59 22t41 46.5t14 77q0 33 -14 56t-31.5 34t-49 17t-51.5 7t-54 1h-86zM190 396h100q81 0 121.5 33.5t40.5 112.5
q0 43 -22 67t-50.5 30t-72.5 6h-91z" />
    <glyph glyph-name="Gamma" unicode="&#x393;" horiz-adv-x="442" 
d="M69 0l75 707h338l-8 -65h-258l-67 -642h-80z" />
    <glyph glyph-name="uni0394" unicode="&#x394;" horiz-adv-x="657" 
d="M79 68h435l-120 538l-12 61l-28 -61zM-37 0l365 707h118l166 -707h-649z" />
    <glyph glyph-name="Epsilon" unicode="&#x395;" horiz-adv-x="568" 
d="M68 0l75 707h393l-7 -65h-314l-26 -254h291l-6 -66h-292l-27 -257h337l-7 -65h-417z" />
    <glyph glyph-name="Zeta" unicode="&#x396;" horiz-adv-x="557" 
d="M5 0l7 70l431 565h-345l7 72h438l-6 -63l-434 -573h394l-7 -71h-485z" />
    <glyph glyph-name="Eta" unicode="&#x397;" horiz-adv-x="742" 
d="M68 0l75 707h79l-33 -320h380l33 320h80l-74 -707h-80l35 322h-381l-34 -322h-80z" />
    <glyph glyph-name="Theta" unicode="&#x398;" horiz-adv-x="802" 
d="M260 322l7 66h284l-6 -66h-285zM359 -11q-143 0 -221 85.5t-78 232.5q0 184 104.5 297.5t285.5 113.5q143 0 222 -85.5t79 -232.5q0 -185 -105 -298t-287 -113zM369 55q143 0 221 97t78 245q0 116 -59 184.5t-171 68.5q-141 0 -219 -95.5t-78 -242.5q0 -116 58 -186.5
t170 -70.5z" />
    <glyph glyph-name="Iota" unicode="&#x399;" horiz-adv-x="281" 
d="M68 0l75 707h79l-74 -707h-80z" />
    <glyph glyph-name="Kappa" unicode="&#x39a;" horiz-adv-x="603" 
d="M481 -19l-270 386l1 16l308 324h100l-318 -327l252 -359zM68 0l75 707h79l-74 -707h-80z" />
    <glyph glyph-name="Lambda" unicode="&#x39b;" horiz-adv-x="619" 
d="M-30 0l337 707h118l138 -707h-82l-110 605l-10 59l-26 -60l-284 -604h-81z" />
    <glyph glyph-name="Mu" unicode="&#x39c;" horiz-adv-x="892" 
d="M6 0l231 707h107l53 -661l296 661h106l-20 -707h-78l24 610l-273 -610h-126l-49 612l-192 -612h-79z" />
    <glyph glyph-name="Nu" unicode="&#x39d;" horiz-adv-x="728" 
d="M68 0l76 707h116l264 -649l66 649h79l-76 -707h-123l-256 633l-66 -633h-80z" />
    <glyph glyph-name="Xi" unicode="&#x39e;" horiz-adv-x="570" 
d="M19 0l8 71h468l-8 -71h-468zM85 320l8 70h403l-7 -70h-404zM96 636l8 71h448l-8 -71h-448z" />
    <glyph glyph-name="Omicron" unicode="&#x39f;" horiz-adv-x="802" 
d="M359 -11q-143 0 -221 85.5t-78 232.5q0 184 104.5 297.5t285.5 113.5q143 0 222 -85.5t79 -232.5q0 -185 -105 -298t-287 -113zM369 55q143 0 221 97t78 245q0 116 -59 184.5t-171 68.5q-141 0 -219 -95.5t-78 -242.5q0 -116 58 -186.5t170 -70.5z" />
    <glyph glyph-name="Pi" unicode="&#x3a0;" horiz-adv-x="723" 
d="M69 0l75 707h520l-74 -707h-80l67 638h-361l-67 -638h-80z" />
    <glyph glyph-name="Rho" unicode="&#x3a1;" horiz-adv-x="592" 
d="M68 0l75 707h229q95 0 151 -48.5t56 -141.5q0 -130 -86.5 -193.5t-220.5 -63.5h-96l-27 -260h-81zM183 326h94q217 0 217 184q0 133 -150 133h-128z" />
    <glyph glyph-name="Sigma" unicode="&#x3a3;" horiz-adv-x="564" 
d="M16 0l7 72l236 280l-173 286l7 69h466l-6 -64h-378l174 -289l-239 -283h387l-7 -71h-474z" />
    <glyph glyph-name="Tau" unicode="&#x3a4;" horiz-adv-x="569" 
d="M212 0l67 640h-242l8 67h563l-8 -67h-241l-67 -640h-80z" />
    <glyph glyph-name="Upsilon" unicode="&#x3a5;" horiz-adv-x="598" 
d="M222 0l29 274l-184 433h89l144 -365l235 365h86l-291 -432l-28 -275h-80z" />
    <glyph glyph-name="Phi" unicode="&#x3a6;" horiz-adv-x="780" 
d="M319 0l9 85q-130 0 -206.5 63.5t-76.5 190.5q0 152 94 236t248 86l8 76h79l-8 -76q131 0 207 -63.5t76 -191.5q0 -151 -94.5 -235t-246.5 -86l-9 -85h-80zM334 151l46 444q-118 0 -186.5 -66t-68.5 -181q0 -96 55 -146.5t154 -50.5zM414 151q117 0 186 66.5t69 181.5
q0 96 -55 146t-154 50z" />
    <glyph glyph-name="Chi" unicode="&#x3a7;" horiz-adv-x="587" 
d="M-29 0l290 373l-163 334h89l127 -273l202 273h87l-256 -333l184 -374h-89l-148 309l-231 -309h-92z" />
    <glyph glyph-name="Psi" unicode="&#x3a8;" horiz-adv-x="724" 
d="M290 0l17 163q-241 25 -241 212q0 22 1 33l30 299h81l-29 -295q-5 -48 7 -83t38 -54.5t54.5 -29.5t65.5 -15l50 477h79l-49 -476q192 30 210 205l27 271h76l-26 -273q-25 -245 -295 -272l-17 -162h-79z" />
    <glyph glyph-name="uni03A9" unicode="&#x3a9;" horiz-adv-x="816" 
d="M44 0l7 71h167q-59 31 -104 102t-45 165q0 168 108.5 274t278.5 106q148 0 226 -86t78 -223q0 -109 -59 -203.5t-153 -134.5h171l-7 -71h-270l6 69q228 122 228 334q0 112 -58 179.5t-173 67.5q-138 0 -217 -90t-79 -223q0 -161 168 -268l-6 -69h-267z" />
    <glyph glyph-name="Iotadieresis" unicode="&#x3aa;" horiz-adv-x="281" 
d="M68 0l75 707h79l-74 -707h-80zM48 764l9 92h74l-9 -92h-74zM257 764l9 92h74l-9 -92h-74z" />
    <glyph glyph-name="Upsilondieresis" unicode="&#x3ab;" horiz-adv-x="598" 
d="M222 0l29 274l-184 433h89l144 -365l235 365h86l-291 -432l-28 -275h-80zM200 764l9 92h74l-9 -92h-74zM409 764l9 92h74l-9 -92h-74z" />
    <glyph glyph-name="alphatonos" unicode="&#x3ac;" horiz-adv-x="517" 
d="M290 631l65 158h83l-81 -158h-67zM149 -13q-55 0 -82.5 44.5t-27.5 118.5q0 67 16 135.5t45.5 129t79 98.5t109.5 38q68 0 95 -73l8 68h72l-57 -546h-76l12 112q-38 -55 -90.5 -90t-103.5 -35zM168 59q41 0 92.5 36.5t89.5 94.5l24 211q-38 83 -90 83q-51 0 -91 -55
t-58.5 -127.5t-18.5 -143.5q0 -44 13 -71.5t39 -27.5z" />
    <glyph glyph-name="epsilontonos" unicode="&#x3ad;" horiz-adv-x="452" 
d="M229 629l65 158h83l-81 -158h-67zM212 -12q-87 0 -133.5 38.5t-46.5 103.5q0 57 29.5 101t87.5 66q-33 12 -54 40t-21 64q0 66 54 112t149 46q83 0 139 -36l-27 -53q-56 27 -115 27q-123 0 -123 -96q0 -40 28 -58.5t68 -18.5h65l-6 -62h-74q-50 0 -85.5 -31.5
t-35.5 -85.5q0 -90 114 -90q63 0 156 39l24 -59q-100 -47 -193 -47z" />
    <glyph glyph-name="etatonos" unicode="&#x3ae;" horiz-adv-x="524" 
d="M264 631l65 158h83l-81 -158h-67zM317 -219l65 597q6 42 6 66q0 25 -10 35t-38 10q-15 0 -42.5 -14t-51.5 -30t-51.5 -35.5t-31.5 -22.5l-41 -387h-76l57 546h77l-9 -90l12 10q12 10 16 13t17 13t19.5 14.5t19.5 13t22 13t22 10.5t23.5 9t23 5.5t23.5 2.5q55 0 75.5 -21
t20.5 -71q0 -2 -5 -74l-67 -613h-76z" />
    <glyph glyph-name="iotatonos" unicode="&#x3af;" horiz-adv-x="232" 
d="M107 628l65 158h83l-81 -158h-67zM46 0l57 546h76l-57 -546h-76z" />
    <glyph glyph-name="upsilondieresistonos" unicode="&#x3b0;" horiz-adv-x="512" 
d="M239 624l89 158h83l-105 -158h-67zM127 633l9 92h74l-9 -92h-74zM397 633l9 92h74l-9 -92h-74zM222 -11q-164 0 -164 160q0 17 3 38l37 359h75l-38 -352q-2 -26 -2 -34q0 -105 96 -105q61 0 104 70.5t43 197.5q0 103 -44 223h76q44 -108 44 -225q0 -151 -66.5 -241.5
t-163.5 -90.5z" />
    <glyph glyph-name="alpha" unicode="&#x3b1;" horiz-adv-x="517" 
d="M149 -13q-55 0 -82.5 44.5t-27.5 118.5q0 67 16 135.5t45.5 129t79 98.5t109.5 38q68 0 95 -73l8 68h72l-57 -546h-76l12 112q-38 -55 -90.5 -90t-103.5 -35zM168 59q41 0 92.5 36.5t89.5 94.5l24 211q-38 83 -90 83q-51 0 -91 -55t-58.5 -127.5t-18.5 -143.5
q0 -44 13 -71.5t39 -27.5z" />
    <glyph glyph-name="beta" unicode="&#x3b2;" horiz-adv-x="521" 
d="M223 -12q-161 0 -161 231q0 45 4 85l21 213q12 120 76.5 188.5t153.5 68.5q152 0 152 -135q0 -109 -108 -183q54 -9 82.5 -53t28.5 -112q0 -124 -68.5 -213.5t-180.5 -89.5zM229 51q72 0 119 68.5t47 160.5q0 67 -20.5 96.5t-75.5 29.5q-16 0 -39.5 -6.5t-36.5 -12
t-44.5 -20t-34.5 -15.5l-6 -51q-4 -60 -4 -83q0 -167 95 -167zM149 408q67 28 75 31q168 73 168 191q0 80 -90 80q-56 0 -93 -48.5t-47 -139.5z" />
    <glyph glyph-name="gamma" unicode="&#x3b3;" horiz-adv-x="454" 
d="M116 -220q3 88 20 224q-12 265 -106 542h83q69 -204 87 -445q151 265 176 445h79q-8 -52 -26.5 -109.5t-50 -123t-53.5 -108t-63.5 -115t-52.5 -93.5l1 -27q0 -26 -1 -26q-3 -90 -17 -164h-76z" />
    <glyph glyph-name="delta" unicode="&#x3b4;" horiz-adv-x="505" 
d="M204 -12q-76 0 -122.5 51t-46.5 141q0 123 55.5 207t145.5 118q-82 53 -82 121q0 75 53 111.5t134 36.5q80 0 153 -29l-21 -60q-75 25 -141 25q-106 0 -106 -74q0 -17 6.5 -32t21 -28.5t25.5 -21.5t33.5 -22t30.5 -19q51 -33 83 -78.5t32 -121.5q0 -153 -75 -239
t-179 -86zM218 54q49 0 88 42t57 98t18 110q0 47 -13.5 80t-31.5 50.5t-51 37.5q-85 -36 -128.5 -113t-43.5 -169q0 -136 105 -136z" />
    <glyph glyph-name="epsilon" unicode="&#x3b5;" horiz-adv-x="452" 
d="M212 -12q-87 0 -133.5 38.5t-46.5 103.5q0 57 29.5 101t87.5 66q-33 12 -54 40t-21 64q0 66 54 112t149 46q83 0 139 -36l-27 -53q-56 27 -115 27q-123 0 -123 -96q0 -40 28 -58.5t68 -18.5h65l-6 -62h-74q-50 0 -85.5 -31.5t-35.5 -85.5q0 -90 114 -90q63 0 156 39
l24 -59q-100 -47 -193 -47z" />
    <glyph glyph-name="zeta" unicode="&#x3b6;" horiz-adv-x="425" 
d="M335 -159l-56 9q52 88 52 129q0 21 -16 21q-23 0 -66 -6t-65 -6q-71 0 -111.5 39.5t-40.5 114.5q0 83 36 171t93 160t114 127t112 92h-261l7 62h349l-7 -63q-62 -44 -122 -100t-117 -126t-91.5 -151.5t-34.5 -157.5q0 -52 22.5 -75t68.5 -23q28 0 73.5 6.5t71.5 6.5
q27 0 40 -18t13 -45q0 -39 -21 -87t-43 -80z" />
    <glyph glyph-name="eta" unicode="&#x3b7;" horiz-adv-x="524" 
d="M317 -219l65 597q6 42 6 66q0 25 -10 35t-38 10q-15 0 -42.5 -14t-51.5 -30t-51.5 -35.5t-31.5 -22.5l-41 -387h-76l57 546h77l-9 -90l12 10q12 10 16 13t17 13t19.5 14.5t19.5 13t22 13t22 10.5t23.5 9t23 5.5t23.5 2.5q55 0 75.5 -21t20.5 -71q0 -2 -5 -74l-67 -613
h-76z" />
    <glyph glyph-name="theta" unicode="&#x3b8;" horiz-adv-x="519" 
d="M217 -12q-78 0 -110 49t-34 154q0 5 0.5 13t0.5 13q-1 26 -47 9l-8 50q55 20 82 20q25 0 35.5 -20.5t10.5 -64.5q0 -87 17 -122.5t65 -35.5q40 0 71 29.5t49 81t28.5 107.5t15.5 122q-60 -31 -124 -31q-86 0 -131.5 49.5t-45.5 124.5q0 92 58 164t146 72q99 0 140 -65.5
t41 -188.5q0 -93 -13.5 -181t-41.5 -169t-81 -130.5t-124 -49.5zM278 423q60 0 118 28q2 42 2 66q0 98 -26 144t-86 46q-56 0 -88 -47.5t-32 -113.5q0 -54 30.5 -88.5t81.5 -34.5z" />
    <glyph glyph-name="iota" unicode="&#x3b9;" horiz-adv-x="232" 
d="M46 0l57 546h76l-57 -546h-76z" />
    <glyph glyph-name="kappa" unicode="&#x3ba;" horiz-adv-x="482" 
d="M365 -14l-191 303l202 257h90l-205 -255l180 -280zM47 0l57 546h76l-57 -546h-76z" />
    <glyph glyph-name="lambda" unicode="&#x3bb;" horiz-adv-x="492" 
d="M439 -11q-53 2 -78.5 33.5t-33.5 87.5l-41 268l-13 106l-45 -109l-167 -375h-83l256 546h27l-12 74q-7 47 -21.5 68.5t-53.5 21.5q-30 0 -75 -17l-9 58q56 24 96 24q67 0 96 -32t38 -93l81 -521q5 -30 15 -47.5t18.5 -22t23.5 -9.5z" />
    <glyph glyph-name="uni03BC" unicode="&#x3bc;" horiz-adv-x="527" 
d="M22 -220l81 766h76l-41 -378q-4 -31 -4 -57q0 -32 11 -44.5t37 -12.5q29 0 61.5 18.5t72.5 52.5l41 34l41 387h76l-58 -546h-75l9 90q-6 -5 -35.5 -30.5t-45 -37t-45.5 -24t-58 -12.5q-34 2 -46 6l-22 -212h-76z" />
    <glyph glyph-name="nu" unicode="&#x3bd;" horiz-adv-x="479" 
d="M129 0l-83 546h83l62 -465q199 275 199 446q0 4 -0.5 10t-0.5 9h78q1 -3 1 -19q0 -192 -255 -527h-84z" />
    <glyph glyph-name="xi" unicode="&#x3be;" horiz-adv-x="432" 
d="M330 -159l-57 9q52 88 52 129q0 21 -18 21q-136 0 -207 40.5t-71 145.5q0 83 55 145.5t149 82.5q-64 23 -97 67.5t-33 95.5q0 92 69 141.5t173 49.5q60 0 121 -25l-12 -61q-49 20 -108 20q-72 0 -119.5 -29.5t-47.5 -91.5q0 -56 45 -96t122 -41l-12 -60
q-114 -19 -170 -64.5t-56 -121.5q0 -36 11.5 -60.5t29.5 -38.5t50.5 -21t62.5 -9t78 -2q53 0 53 -61q0 -69 -63 -165z" />
    <glyph glyph-name="omicron" unicode="&#x3bf;" horiz-adv-x="515" 
d="M200 -12q-74 0 -117 55t-43 137q0 173 75 276.5t197 103.5q75 0 116 -55.5t41 -131.5q0 -69 -14.5 -134t-44.5 -123t-84 -93t-126 -35zM219 54q71 0 121.5 86.5t50.5 217.5q0 72 -24 105t-78 33q-69 0 -119.5 -88t-50.5 -213q0 -141 100 -141z" />
    <glyph glyph-name="pi" unicode="&#x3c0;" horiz-adv-x="545" 
d="M67 0l50 476h-68l8 70h475l-6 -70h-61l-51 -476h-77l51 476h-194l-51 -476h-76z" />
    <glyph glyph-name="rho" unicode="&#x3c1;" horiz-adv-x="515" 
d="M6 -220l43 413q21 195 85 281t172 86q70 0 116.5 -45.5t46.5 -132.5q0 -163 -70 -277.5t-191 -114.5q-57 0 -102 27l-24 -237h-76zM206 55q63 0 107 53t62 124t18 150q0 53 -26 83.5t-72 30.5q-71 0 -111 -71.5t-58 -226.5l-13 -114q50 -29 93 -29z" />
    <glyph glyph-name="uni03C2" unicode="&#x3c2;" horiz-adv-x="481" 
d="M347 -159l-57 9q53 86 53 129q0 21 -17 21q-25 0 -74.5 -6t-76.5 -6q-133 0 -133 205q0 153 73 260t195 107q78 0 127 -49l-41 -48q-43 33 -91 33q-43 0 -76.5 -21.5t-53 -54t-32 -76t-17 -82t-4.5 -77.5q0 -73 20.5 -100.5t55.5 -27.5q27 0 80.5 7t78.5 7q28 0 41 -18
t13 -45q0 -39 -21 -87t-43 -80z" />
    <glyph glyph-name="sigma" unicode="&#x3c3;" horiz-adv-x="539" 
d="M200 -12q-72 0 -116.5 53.5t-44.5 140.5q0 100 31 184t99 138.5t162 50.5l207 -9l-9 -64l-91 4q34 -57 34 -135q0 -98 -30 -179t-93 -132.5t-149 -51.5zM219 54q55 0 96.5 47t61 112.5t19.5 133.5q0 94 -40 142l-35 2q-66 3 -113.5 -40.5t-68 -109.5t-20.5 -144
q0 -143 100 -143z" />
    <glyph glyph-name="tau" unicode="&#x3c4;" horiz-adv-x="411" 
d="M240 -12q-59 0 -89 27t-29 97q0 24 3 42l34 324h-131l8 68h377l-8 -68h-170l-34 -319q-2 -18 -2 -31q-1 -72 59 -72q35 0 77 19l8 -59q-47 -28 -103 -28z" />
    <glyph glyph-name="upsilon" unicode="&#x3c5;" horiz-adv-x="510" 
d="M222 -11q-164 0 -164 160q0 17 3 38l37 359h75l-38 -352q-2 -26 -2 -34q0 -105 96 -105q61 0 104 70.5t43 197.5q0 103 -44 223h76q44 -108 44 -225q0 -151 -66.5 -241.5t-163.5 -90.5z" />
    <glyph glyph-name="phi" unicode="&#x3c6;" horiz-adv-x="640" 
d="M228 -220l22 213q-91 1 -148.5 55t-57.5 142q0 116 39.5 210.5t102.5 145.5h76q-61 -47 -99.5 -139.5t-38.5 -200.5q0 -65 31.5 -107t100.5 -46l35 329q8 77 45.5 127.5t100.5 50.5q81 0 118.5 -52.5t37.5 -142.5q0 -92 -26 -168.5t-88 -133t-153 -67.5l-23 -216h-75z
M332 57q82 16 132.5 98t50.5 193q0 147 -78 147q-32 0 -48 -31t-23 -96z" />
    <glyph glyph-name="chi" unicode="&#x3c7;" horiz-adv-x="444" 
d="M366 -227q-57 12 -80 44t-46 120l-42 162l-175 -319h-83l230 401l-73 245q-17 59 -60 71l21 65q50 -8 72.5 -34.5t37.5 -79.5l53 -184l155 282h84l-212 -364l65 -223q18 -66 33 -89.5t40 -31.5z" />
    <glyph glyph-name="psi" unicode="&#x3c8;" horiz-adv-x="650" 
d="M230 -220l22 211q-90 8 -141 65t-51 152q0 20 1 30l32 308h75l-32 -301q-1 -10 -1 -30q2 -142 124 -156l64 599h76l-64 -598q81 14 132.5 81.5t51.5 181.5q0 122 -37 223h76q37 -91 37 -225q0 -140 -76 -227.5t-191 -101.5l-22 -212h-76z" />
    <glyph glyph-name="omega" unicode="&#x3c9;" horiz-adv-x="698" 
d="M179 -9q-62 0 -100 48t-38 128q0 240 162 379h83q-166 -135 -166 -365q0 -122 77 -122q38 0 66 39.5t35 109.5l16 152h75l-15 -148q-2 -28 -2 -48q0 -105 60 -105q37 0 64.5 28.5t41 72t19.5 82t6 71.5q0 139 -79 233h85q73 -104 73 -217q0 -61 -13 -119t-38 -108
t-67.5 -80.5t-96.5 -30.5q-39 0 -71 27.5t-35 77.5q-22 -52 -62 -78.5t-80 -26.5z" />
    <glyph glyph-name="iotadieresis" unicode="&#x3ca;" horiz-adv-x="232" 
d="M15 669l10 93h75l-10 -93h-75zM212 669l9 93h75l-10 -93h-74zM46 0l57 546h76l-57 -546h-76z" />
    <glyph glyph-name="upsilondieresis" unicode="&#x3cb;" horiz-adv-x="512" 
d="M147 669l10 93h75l-10 -93h-75zM344 669l9 93h75l-10 -93h-74zM222 -11q-164 0 -164 160q0 17 3 38l37 359h75l-38 -352q-2 -26 -2 -34q0 -105 96 -105q61 0 104 70.5t43 197.5q0 103 -44 223h76q44 -108 44 -225q0 -151 -66.5 -241.5t-163.5 -90.5z" />
    <glyph glyph-name="omicrontonos" unicode="&#x3cc;" horiz-adv-x="515" 
d="M268 629l65 158h83l-81 -158h-67zM200 -12q-74 0 -117 55t-43 137q0 173 75 276.5t197 103.5q75 0 116 -55.5t41 -131.5q0 -69 -14.5 -134t-44.5 -123t-84 -93t-126 -35zM219 54q71 0 121.5 86.5t50.5 217.5q0 72 -24 105t-78 33q-69 0 -119.5 -88t-50.5 -213
q0 -141 100 -141z" />
    <glyph glyph-name="upsilontonos" unicode="&#x3cd;" horiz-adv-x="512" 
d="M245 628l65 158h83l-81 -158h-67zM222 -11q-164 0 -164 160q0 17 3 38l37 359h75l-38 -352q-2 -26 -2 -34q0 -105 96 -105q61 0 104 70.5t43 197.5q0 103 -44 223h76q44 -108 44 -225q0 -151 -66.5 -241.5t-163.5 -90.5z" />
    <glyph glyph-name="omegatonos" unicode="&#x3ce;" horiz-adv-x="698" 
d="M340 623l65 158h83l-81 -158h-67zM179 -9q-62 0 -100 48t-38 128q0 240 162 379h83q-166 -135 -166 -365q0 -122 77 -122q38 0 66 39.5t35 109.5l16 152h75l-15 -148q-2 -28 -2 -48q0 -105 60 -105q37 0 64.5 28.5t41 72t19.5 82t6 71.5q0 139 -79 233h85
q73 -104 73 -217q0 -61 -13 -119t-38 -108t-67.5 -80.5t-96.5 -30.5q-39 0 -71 27.5t-35 77.5q-22 -52 -62 -78.5t-80 -26.5z" />
    <glyph glyph-name="uni03D0" unicode="&#x3d0;" horiz-adv-x="533" 
d="M23 -220l79 750q12 114 75 179t153 65q151 0 151 -134q0 -73 -38.5 -135t-95.5 -81q61 3 99.5 -30.5t38.5 -104.5q0 -124 -68.5 -211t-182.5 -87q-68 0 -113 24l-25 -235h-73zM240 55q74 0 120.5 64.5t46.5 156.5q0 66 -37 88t-108 20l-2 52q60 6 102 64.5t42 130.5
q0 43 -22.5 61t-67.5 18q-56 0 -91.5 -46.5t-46.5 -135.5l-49 -446q54 -27 113 -27z" />
    <glyph glyph-name="uni03D8" unicode="&#x3d8;" horiz-adv-x="743" 
d="M254 -166l25 157q-101 13 -164.5 77t-63.5 194q0 107 32 195.5t85.5 146t123.5 89t147 31.5q123 0 196 -69.5t73 -205.5q0 -102 -29 -187t-78.5 -140t-109.5 -88.5t-127 -41.5l-25 -158h-85zM332 57q119 0 207.5 104t88.5 281q0 102 -50 158t-150 56q-93 0 -161.5 -54
t-102 -140t-33.5 -190q0 -114 56.5 -164.5t144.5 -50.5z" />
    <glyph glyph-name="uni03D9" unicode="&#x3d9;" horiz-adv-x="558" 
d="M190 -190l20 192q-78 8 -122.5 60t-44.5 138q0 125 73.5 201t182.5 76q96 0 150 -53t54 -147q0 -110 -62 -187t-154 -86l-22 -194h-75zM254 63q82 0 126 60.5t44 147.5q0 63 -32.5 102.5t-101.5 39.5q-46 0 -80.5 -19t-54 -50t-28.5 -66t-9 -72q0 -64 33 -103.5
t103 -39.5z" />
    <glyph glyph-name="uni03DA" unicode="&#x3da;" horiz-adv-x="565" 
d="M568 665l-34 -64q-91 44 -188 44q-106 0 -156.5 -72t-50.5 -189q0 -54 18 -91.5t47 -55.5t63.5 -30t68 -21t60.5 -22t41.5 -39.5t10.5 -67.5q-5 -46 -37.5 -83.5t-81.5 -61.5t-92.5 -37.5t-88.5 -22.5l-11 59q130 37 172 61q57 33 62 79q3 28 -19 45.5t-57.5 25.5
t-77.5 23.5t-78 36.5t-60.5 68t-24.5 115q0 156 78.5 253.5t217.5 97.5q136 0 218 -51z" />
    <glyph glyph-name="uni03DB" unicode="&#x3db;" horiz-adv-x="485" 
d="M473 510l-33 -62q-77 33 -155 33q-86 0 -128.5 -71.5t-42.5 -170.5q0 -133 119 -150q70 -8 104 -34.5t28 -83.5q-7 -64 -70 -97.5t-170 -35.5l6 61q154 1 163 68q2 26 -19.5 38.5t-73.5 19.5q-163 19 -163 201q0 137 66 229.5t185 92.5q104 0 184 -38z" />
    <glyph glyph-name="uni03DC" unicode="&#x3dc;" horiz-adv-x="495" 
d="M69 0l75 707h352l-7 -65h-273l-29 -274h252l-7 -66h-252l-31 -302h-80z" />
    <glyph glyph-name="uni03DD" unicode="&#x3dd;" horiz-adv-x="407" 
d="M65 -220l54 530h-80l7 63h80l23 216q5 55 24 93.5t50 57.5t64 26.5t75 7.5q56 0 104 -18l-20 -61q-50 14 -93 14q-63 0 -93.5 -27t-36.5 -88l-23 -221h118l-5 -63h-119l-56 -530h-73z" />
    <glyph glyph-name="uni03DE" unicode="&#x3de;" horiz-adv-x="480" 
d="M156 -129l201 393h-349l232 467l84 10l-199 -411h346l-229 -438z" />
    <glyph glyph-name="uni03DF" unicode="&#x3df;" horiz-adv-x="474" 
d="M170 -64l177 347h-335l207 391l85 9l-174 -328h333l-205 -401z" />
    <glyph glyph-name="uni03E0" unicode="&#x3e0;" horiz-adv-x="738" 
d="M464 -74l-37 49q160 112 173 278l-424 -252l-26 59l440 265q-8 48 -41 89q-98 -60 -260 -157t-215 -129l-31 60l450 266q-61 40 -146 40q-82 0 -178 -49l-28 51q102 66 221 66q141 0 224.5 -81.5t83.5 -201.5q0 -109 -67 -210.5t-139 -142.5z" />
    <glyph glyph-name="uni03E1" unicode="&#x3e1;" horiz-adv-x="680" 
d="M427 -74l-37 49q160 112 173 278l-424 -252l-26 59l440 265q-8 48 -41 89q-98 -60 -260 -157t-215 -129l-31 60l450 266q-61 40 -146 40q-82 0 -178 -49l-28 51q102 66 221 66q141 0 224.5 -81.5t83.5 -201.5q0 -109 -67 -210.5t-139 -142.5z" />
    <glyph glyph-name="uni0400" unicode="&#x400;" horiz-adv-x="567" 
d="M423 736l-220 65l27 72l211 -82zM67 0l75 707h393l-7 -65h-314l-26 -254h291l-6 -66h-292l-27 -257h337l-7 -65h-417z" />
    <glyph glyph-name="uni0401" unicode="&#x401;" horiz-adv-x="567" 
d="M206 764l9 92h74l-9 -92h-74zM415 764l9 92h74l-9 -92h-74zM67 0l75 707h393l-7 -65h-314l-26 -254h291l-6 -66h-292l-27 -257h337l-7 -65h-417z" />
    <glyph glyph-name="uni0402" unicode="&#x402;" horiz-adv-x="731" 
d="M391 -220l-41 56q73 56 110 95q139 144 139 303q0 133 -127 133q-90 0 -182 -47l-34 -320h-79l67 640h-205l8 67h536l-7 -67h-253l-25 -249q113 42 201 42q93 0 137.5 -52.5t44.5 -142.5q0 -74 -25 -144t-68.5 -127.5t-91.5 -102.5t-105 -84z" />
    <glyph glyph-name="uni0403" unicode="&#x403;" horiz-adv-x="479" 
d="M258 737l-16 54l229 80l19 -70zM67 0l75 707h404l-6 -67h-326l-67 -640h-80z" />
    <glyph glyph-name="uni0404" unicode="&#x404;" horiz-adv-x="637" 
d="M378 -10q-146 0 -232.5 86t-86.5 234q0 183 104.5 293t287.5 110q100 0 164 -28l-27 -63q-65 23 -143 23q-126 0 -202.5 -69t-95.5 -187h380l-7 -67h-378q0 -2 0.5 -11t0.5 -10q4 -116 73.5 -178t187.5 -62q88 0 152 21l15 -66q-82 -26 -193 -26z" />
    <glyph glyph-name="uni0405" unicode="&#x405;" horiz-adv-x="523" 
d="M210 -11q-48 0 -105 14t-91 34l31 67q96 -45 171 -45q166 0 166 134q0 36 -30 66.5t-72.5 54.5t-85.5 51.5t-73 71t-30 98.5q0 86 65 133t160 47q104 0 178 -41l-26 -62q-77 34 -155 34q-63 0 -103.5 -25.5t-40.5 -83.5q0 -36 30 -67.5t73 -57t86 -53.5t73 -70.5
t30 -93.5q0 -100 -71.5 -153t-179.5 -53z" />
    <glyph glyph-name="uni0406" unicode="&#x406;" horiz-adv-x="278" 
d="M67 0l75 707h79l-74 -707h-80z" />
    <glyph glyph-name="uni0407" unicode="&#x407;" horiz-adv-x="278" 
d="M67 0l75 707h79l-74 -707h-80zM47 764l9 92h74l-9 -92h-74zM256 764l9 92h74l-9 -92h-74z" />
    <glyph glyph-name="uni0408" unicode="&#x408;" horiz-adv-x="279" 
d="M-62 -187l-27 59q91 48 126.5 108.5t47.5 170.5l58 556h79l-58 -554q-13 -129 -63 -210.5t-163 -129.5z" />
    <glyph glyph-name="uni0409" unicode="&#x409;" horiz-adv-x="962" 
d="M2 -22l-32 73q92 41 133 109q64 103 130 547h369l-29 -277h112q114 0 176.5 -47.5t62.5 -141.5q0 -8 -2 -24q-7 -103 -79.5 -160t-183.5 -57h-210l66 641h-215q-7 -37 -19.5 -102t-18.5 -96.5t-16.5 -81.5t-18 -78t-18 -62.5t-21 -59.5t-22.5 -45q-57 -92 -164 -138z
M673 363h-107l-31 -298q2 -1 120 -1q81 0 129 39.5t54 115.5q7 78 -37.5 111t-127.5 33z" />
    <glyph glyph-name="uni040A" unicode="&#x40a;" horiz-adv-x="987" 
d="M67 0l75 707h79l-31 -298h334l31 298h80l-31 -298h110q112 0 173 -45.5t61 -133.5q0 -9 -2 -23q-7 -98 -77 -152.5t-177 -54.5h-211l37 343h-335l-36 -343h-80zM703 342h-106l-29 -277q2 -1 119 -1q77 0 122.5 37t51.5 107l1 18q0 116 -159 116z" />
    <glyph glyph-name="uni040B" unicode="&#x40b;" horiz-adv-x="742" 
d="M177 0l67 640h-205l8 67h536l-7 -67h-253l-24 -249q107 43 204 43q186 0 186 -158q0 -11 -2 -35l-26 -241h-79l26 246q1 7 1 19q0 103 -144 103q-83 0 -174 -48l-35 -320h-79z" />
    <glyph glyph-name="uni040C" unicode="&#x40c;" horiz-adv-x="602" 
d="M480 -19l-270 386l1 16l308 324h100l-318 -327l252 -359zM67 0l75 707h79l-74 -707h-80zM282 737l-16 54l229 80l19 -70z" />
    <glyph glyph-name="uni040D" unicode="&#x40d;" horiz-adv-x="757" 
d="M506 736l-220 65l27 72l211 -82zM67 0l75 707h79l-51 -489l-14 -106l71 105l393 490h79l-74 -707h-80l51 489l14 106l-48 -70l-415 -525h-80z" />
    <glyph glyph-name="uni040E" unicode="&#x40e;" horiz-adv-x="557" 
d="M122 -9l-24 71q53 17 87.5 43t64.5 83l18 32h-38l-189 487h88l167 -434l213 434h88l-275 -527q-49 -94 -89 -128.5t-111 -60.5zM319 755q-109 0 -162 84l48 43q41 -58 121 -58q77 0 131 58l41 -43q-70 -84 -179 -84z" />
    <glyph glyph-name="uni040F" unicode="&#x40f;" horiz-adv-x="722" 
d="M276 -153l16 153h-224l74 707h80l-66 -641h362l66 641h80l-73 -707h-222l-15 -153h-78z" />
    <glyph glyph-name="uni0410" unicode="&#x410;" horiz-adv-x="636" 
d="M-34 0l352 707h118l148 -707h-82l-53 266h-270l-131 -266h-82zM210 330h225l-53 276l-11 60l-27 -61z" />
    <glyph glyph-name="uni0411" unicode="&#x411;" horiz-adv-x="607" 
d="M68 0l73 707h416l-6 -67h-337l-22 -215h119q115 0 178 -46t63 -138q0 -21 -3 -40q-13 -94 -85 -147.5t-178 -53.5h-218zM299 359h-114l-30 -294q2 -1 126 -1q82 0 131 39t55 114q6 77 -39 109.5t-129 32.5z" />
    <glyph glyph-name="uni0412" unicode="&#x412;" horiz-adv-x="614" 
d="M67 0l75 707h192q202 0 202 -157q0 -59 -31 -108t-86 -64v-3q58 -7 94.5 -49t36.5 -101q0 -114 -70.5 -169.5t-189.5 -55.5h-223zM155 66h123q44 0 76 6.5t59 22t41 46.5t14 77q0 33 -14 56t-31.5 34t-49 17t-51.5 7t-54 1h-86zM189 396h100q81 0 121.5 33.5t40.5 112.5
q0 43 -22 67t-50.5 30t-72.5 6h-91z" />
    <glyph glyph-name="uni0413" unicode="&#x413;" horiz-adv-x="508" 
d="M67 0l75 707h404l-6 -67h-326l-67 -640h-80z" />
    <glyph glyph-name="uni0414" unicode="&#x414;" horiz-adv-x="700" 
d="M-41 -153l23 219h59q56 88 102 191q18 41 50.5 169t56.5 281h364l-67 -641h90l-22 -219h-78l15 153h-501l-15 -153h-77zM131 66h336l59 574h-212q-44 -244 -94 -389q-29 -76 -89 -185z" />
    <glyph glyph-name="uni0415" unicode="&#x415;" horiz-adv-x="567" 
d="M67 0l75 707h393l-7 -65h-314l-26 -254h291l-6 -66h-292l-27 -257h337l-7 -65h-417z" />
    <glyph glyph-name="uni0416" unicode="&#x416;" horiz-adv-x="876" 
d="M59 -24l-73 43l306 365l-215 323h90l211 -328l-2 -16zM755 -24l-249 387l2 15l280 329h100l-294 -329l234 -359zM364 0l74 707h79l-73 -707h-80z" />
    <glyph glyph-name="uni0417" unicode="&#x417;" horiz-adv-x="532" 
d="M200 -9q-114 0 -195 44l32 65q76 -39 167 -39q74 0 123.5 32.5t55.5 103.5q12 126 -168 126h-69l8 66h69q70 0 114.5 35t50.5 98q5 60 -28 92t-97 32q-59 0 -148 -32l-20 58q90 40 183 40q99 0 148.5 -48.5t43.5 -125.5q-3 -40 -18.5 -73t-37 -53.5t-38 -32t-32.5 -18.5
v-2q131 -37 121 -160q-7 -85 -72.5 -146.5t-192.5 -61.5z" />
    <glyph glyph-name="uni0418" unicode="&#x418;" horiz-adv-x="757" 
d="M67 0l75 707h79l-51 -489l-14 -106l71 105l393 490h79l-74 -707h-80l51 489l14 106l-48 -70l-415 -525h-80z" />
    <glyph glyph-name="uni0419" unicode="&#x419;" horiz-adv-x="757" 
d="M429 755q-109 0 -162 84l48 43q41 -58 121 -58q77 0 131 58l41 -43q-70 -84 -179 -84zM67 0l75 707h79l-51 -489l-14 -106l71 105l393 490h79l-74 -707h-80l51 489l14 106l-48 -70l-415 -525h-80z" />
    <glyph glyph-name="uni041A" unicode="&#x41a;" horiz-adv-x="602" 
d="M480 -19l-270 386l1 16l308 324h100l-318 -327l252 -359zM67 0l75 707h79l-74 -707h-80z" />
    <glyph glyph-name="uni041B" unicode="&#x41b;" horiz-adv-x="660" 
d="M2 -22l-32 73q92 41 133 109q64 103 130 547h369l-73 -707h-80l66 641h-215q-7 -37 -19.5 -102t-18.5 -96.5t-16.5 -81.5t-18 -78t-18 -62.5t-21 -59.5t-22.5 -45q-57 -92 -164 -138z" />
    <glyph glyph-name="uni041C" unicode="&#x41c;" horiz-adv-x="889" 
d="M6 0l231 707h107l53 -661l296 661h106l-20 -707h-78l24 610l-273 -610h-126l-49 612l-192 -612h-79z" />
    <glyph glyph-name="uni041D" unicode="&#x41d;" horiz-adv-x="738" 
d="M67 0l75 707h79l-33 -320h380l33 320h80l-74 -707h-80l35 322h-381l-34 -322h-80z" />
    <glyph glyph-name="uni041E" unicode="&#x41e;" horiz-adv-x="801" 
d="M359 -11q-143 0 -221 85.5t-78 232.5q0 184 104.5 297.5t285.5 113.5q143 0 222 -85.5t79 -232.5q0 -185 -105 -298t-287 -113zM369 55q143 0 221 97t78 245q0 116 -59 184.5t-171 68.5q-141 0 -219 -95.5t-78 -242.5q0 -116 58 -186.5t170 -70.5z" />
    <glyph glyph-name="uni041F" unicode="&#x41f;" horiz-adv-x="728" 
d="M67 0l75 707h529l-74 -707h-80l68 639h-371l-67 -639h-80z" />
    <glyph glyph-name="uni0420" unicode="&#x420;" horiz-adv-x="592" 
d="M67 0l75 707h229q95 0 151 -48.5t56 -141.5q0 -130 -86.5 -193.5t-220.5 -63.5h-96l-27 -260h-81zM182 326h94q217 0 217 184q0 133 -150 133h-128z" />
    <glyph glyph-name="uni0421" unicode="&#x421;" horiz-adv-x="630" 
d="M378 -10q-146 0 -232.5 86t-86.5 234q0 183 104.5 293t287.5 110q100 0 164 -28l-27 -63q-65 23 -143 23q-145 0 -224.5 -90.5t-79.5 -239.5q0 -122 70.5 -188t192.5 -66q88 0 152 21l15 -66q-82 -26 -193 -26z" />
    <glyph glyph-name="uni0422" unicode="&#x422;" horiz-adv-x="571" 
d="M212 0l67 640h-242l8 67h563l-8 -67h-241l-67 -640h-80z" />
    <glyph glyph-name="uni0423" unicode="&#x423;" horiz-adv-x="557" 
d="M122 -9l-24 71q53 17 87.5 43t64.5 83l18 32h-38l-189 487h88l167 -434l213 434h88l-275 -527q-49 -94 -89 -128.5t-111 -60.5z" />
    <glyph glyph-name="uni0424" unicode="&#x424;" horiz-adv-x="782" 
d="M320 0l9 85q-131 0 -207 63.5t-76 190.5q0 152 93.5 236t248.5 86l8 76h79l-8 -76q131 0 207 -63.5t76 -191.5q0 -151 -94 -235t-248 -86l-9 -85h-79zM335 151l46 444q-117 0 -186.5 -64.5t-69.5 -182.5q0 -95 55.5 -146t154.5 -51zM415 151q117 0 186 66.5t69 181.5
q0 96 -55 146t-154 50z" />
    <glyph glyph-name="uni0425" unicode="&#x425;" horiz-adv-x="588" 
d="M-27 0l290 373l-163 334h89l127 -273l202 273h87l-256 -333l184 -374h-89l-148 309l-231 -309h-92z" />
    <glyph glyph-name="uni0426" unicode="&#x426;" horiz-adv-x="750" 
d="M587 -153l16 153h-535l74 707h80l-66 -641h362l66 641h80l-67 -641h90l-22 -219h-78z" />
    <glyph glyph-name="uni0427" unicode="&#x427;" horiz-adv-x="630" 
d="M418 0l34 324q-99 -42 -198 -42q-193 0 -193 157q0 23 2 35l24 233h79l-25 -238q-1 -7 -1 -19q0 -103 136 -103q92 0 183 48l32 312h81l-74 -707h-80z" />
    <glyph glyph-name="uni0428" unicode="&#x428;" horiz-adv-x="981" 
d="M68 0l74 707h80l-66 -641h270l67 641h80l-67 -641h271l66 641h80l-73 -707h-782z" />
    <glyph glyph-name="uni0429" unicode="&#x429;" horiz-adv-x="1009" 
d="M846 -153l16 153h-794l74 707h80l-66 -641h270l67 641h80l-67 -641h271l66 641h80l-67 -641h91l-23 -219h-78z" />
    <glyph glyph-name="uni042A" unicode="&#x42a;" horiz-adv-x="679" 
d="M165 0l66 640h-191l7 67h271l-29 -277h111q115 0 177 -47t62 -141q0 -17 -1 -25q-8 -103 -80.5 -160t-182.5 -57h-210zM389 363h-107l-31 -298q2 -1 120 -1q81 0 128.5 40t53.5 115q8 78 -36.5 111t-127.5 33z" />
    <glyph glyph-name="uni042B" unicode="&#x42b;" horiz-adv-x="837" 
d="M141 707h80l-29 -277h112q114 0 176 -47.5t62 -141.5q0 -16 -1 -24q-7 -103 -79.5 -160t-183.5 -57h-210zM292 363h-107l-31 -298q2 -1 120 -1q81 0 129 40t53 115q1 7 1 20q0 124 -165 124zM625 0l75 707h79l-74 -707h-80z" />
    <glyph glyph-name="uni042C" unicode="&#x42c;" horiz-adv-x="582" 
d="M141 707h80l-29 -277h112q114 0 176 -47.5t62 -141.5q0 -16 -1 -24q-7 -103 -79.5 -160t-183.5 -57h-210zM292 363h-107l-31 -298q2 -1 120 -1q81 0 129 40t53 115q1 7 1 20q0 124 -165 124z" />
    <glyph glyph-name="uni042D" unicode="&#x42d;" horiz-adv-x="655" 
d="M208 -10q-132 0 -193 33l26 62q77 -28 162 -28q122 0 208 66.5t106 199.5h-364l7 66h364q2 69 -17 120t-53.5 80.5t-78.5 43.5t-97 14q-96 0 -175 -31l-18 63q82 36 203 36q154 0 237 -79.5t83 -222.5q0 -33 -4 -61q-17 -159 -123 -260.5t-273 -101.5z" />
    <glyph glyph-name="uni042E" unicode="&#x42e;" horiz-adv-x="1061" 
d="M619 -11q-139 0 -216 81.5t-82 221.5q-1 5 -1 30h-139l-34 -322h-80l75 707h79l-33 -320h138q21 151 122.5 241t261.5 90q144 0 223 -85.5t79 -232.5q0 -184 -105.5 -297.5t-287.5 -113.5zM629 55q143 0 221.5 97t78.5 245q0 116 -59.5 184.5t-171.5 68.5
q-140 0 -218.5 -95.5t-78.5 -242.5q0 -116 58 -186.5t170 -70.5z" />
    <glyph glyph-name="uni042F" unicode="&#x42f;" horiz-adv-x="635" 
d="M69 -22l-71 39l236 287q-63 18 -96.5 61.5t-33.5 105.5q0 110 72 173t175 63h225l-72 -707h-81l29 286h-94q-30 0 -39 1zM358 350h101l31 293h-124q-82 0 -130 -46t-48 -121q0 -67 43.5 -96.5t126.5 -29.5z" />
    <glyph glyph-name="uni0430" unicode="&#x430;" horiz-adv-x="510" 
d="M142 -13q-55 0 -82.5 44.5t-27.5 118.5q0 68 22.5 138t62.5 129t103 96.5t137 37.5q53 0 99 -8l-56 -543h-76l11 99q-63 -57 -108.5 -84.5t-84.5 -27.5zM161 59q31 0 86.5 40t94.5 77l33 307q-8 2 -34 2q-70 0 -125 -54t-81 -127t-26 -146q0 -44 13 -71.5t39 -27.5z" />
    <glyph glyph-name="uni0431" unicode="&#x431;" horiz-adv-x="531" 
d="M213 -8q-73 0 -114.5 47t-41.5 127q0 143 37.5 282.5t97.5 212.5q50 61 307 110l13 -71q-16 -4 -63.5 -13t-79.5 -16t-69.5 -21.5t-55.5 -32.5q-43 -43 -78 -182q37 24 60 37t62 27t74 14q120 0 120 -161q0 -91 -31.5 -172.5t-94.5 -134.5t-143 -53zM227 57q44 0 79 28
t55.5 72t31.5 93.5t11 98.5q0 57 -16.5 77.5t-49.5 20.5q-66 0 -185 -82q-18 -105 -18 -186q0 -122 92 -122z" />
    <glyph glyph-name="uni0432" unicode="&#x432;" horiz-adv-x="494" 
d="M212 -12q-92 0 -133 48.5t-41 119.5q0 105 30.5 195.5t95 150t149.5 59.5q66 0 97 -34t31 -82q0 -92 -101 -138q92 -33 92 -125q0 -81 -60 -137.5t-160 -56.5zM213 53q68 0 106 36t38 86q0 83 -88 101l-150 -52q-4 -20 -4 -48q0 -123 98 -123zM125 290l119 40
q68 25 94.5 49.5t26.5 54.5t-18.5 46t-48.5 16q-71 0 -114.5 -60.5t-58.5 -145.5z" />
    <glyph glyph-name="uni0433" unicode="&#x433;" horiz-adv-x="422" 
d="M154 -9q-58 0 -94.5 30.5t-36.5 86.5q0 31 12 58t38.5 52.5t46 41t57.5 41.5q85 58 106 83q23 27 23 52q0 56 -64 56q-25 0 -54 -11t-43 -19.5t-46 -28.5l-30 55q87 68 191 68q52 0 85.5 -28.5t33.5 -85.5q0 -30 -11 -55.5t-36.5 -50.5t-43 -39t-54.5 -40q-9 -7 -14 -10
q-42 -29 -63 -45.5t-40.5 -40t-19.5 -44.5q0 -60 67 -60q57 0 168 76l33 -55q-43 -35 -101.5 -61t-109.5 -26z" />
    <glyph glyph-name="uni0434" unicode="&#x434;" horiz-adv-x="522" 
d="M203 -12q-73 0 -117 54.5t-44 136.5q0 167 67 250.5t164 83.5q56 0 125 -53q-2 108 -33.5 164.5t-102.5 56.5q-46 0 -115 -20l-11 63q82 25 147 25q192 0 192 -297q0 -52 -5.5 -106t-23.5 -120.5t-46.5 -117.5t-79.5 -85.5t-117 -34.5zM218 53q71 0 122 96.5t54 238.5
q-21 23 -57.5 40.5t-63.5 17.5q-71 0 -111.5 -63.5t-40.5 -183.5q0 -146 97 -146z" />
    <glyph glyph-name="uni0435" unicode="&#x435;" horiz-adv-x="468" 
d="M173 -12q-129 0 -129 204q0 100 29 182.5t90 134.5t144 52q69 0 103 -35.5t34 -89.5q0 -94 -143 -146l-178 -66v-27q0 -141 63 -141q65 0 171 55l27 -57q-37 -21 -61.5 -32.5t-66 -22.5t-83.5 -11zM130 291l159 62q38 15 59.5 36t21.5 44q0 33 -19.5 48t-46.5 15
q-137 0 -174 -205z" />
    <glyph glyph-name="uni0436" unicode="&#x436;" horiz-adv-x="734" 
d="M62 -14l-79 25l240 285l-164 250h89l158 -261zM296 0l57 546h77l-58 -546h-76zM614 -14l-190 299l209 261h91l-212 -257l179 -278z" />
    <glyph glyph-name="uni0437" unicode="&#x437;" horiz-adv-x="420" 
d="M150 -9q-84 0 -151 26l22 62q62 -22 119 -22q72 0 108 29t36 73q0 92 -149 95l-6 53q70 16 116.5 51t46.5 76q0 55 -101 55q-56 0 -108 -15l-17 59q57 23 138 23q76 0 120 -28.5t44 -82.5q0 -47 -34.5 -87t-91.5 -64q115 -24 115 -132q0 -74 -56 -122.5t-151 -48.5z" />
    <glyph glyph-name="uni0438" unicode="&#x438;" horiz-adv-x="525" 
d="M159 -11q-56 0 -80 26t-24 86q0 22 3 48l43 397h76l-42 -378q-3 -32 -3 -53q0 -34 10.5 -47t36.5 -13q70 0 175 103l42 388h76l-58 -546h-76l9 90q-50 -50 -93 -75.5t-95 -25.5z" />
    <glyph glyph-name="uni0439" unicode="&#x439;" horiz-adv-x="525" 
d="M273 652q-28 0 -59 27t-55 68l60 40q47 -69 74 -69q64 0 150 70l29 -36q-48 -44 -102 -72t-97 -28zM159 -11q-56 0 -80 26t-24 86q0 22 3 48l43 397h76l-42 -378q-3 -32 -3 -53q0 -34 10.5 -47t36.5 -13q70 0 175 103l42 388h76l-58 -546h-76l9 90q-50 -50 -93 -75.5
t-95 -25.5z" />
    <glyph glyph-name="uni043A" unicode="&#x43a;" horiz-adv-x="485" 
d="M364 -14l-190 301l210 259h91l-213 -257l179 -278zM47 0l57 546h77l-58 -546h-76z" />
    <glyph glyph-name="uni043B" unicode="&#x43b;" horiz-adv-x="458" 
d="M3 0q-1 3 -1 18q0 77 48 175l182 353h126l21 -546h-80l-8 476h-21l-147 -291q-44 -95 -44 -167v-18h-76z" />
    <glyph glyph-name="uni043C" unicode="&#x43c;" horiz-adv-x="716" 
d="M19 0q-1 3 -1 18q0 76 34 175l123 353h116l34 -470l214 470h124l-57 -546h-76l51 492l-225 -492h-98l-33 492l-99 -307q-30 -95 -30 -167v-18h-77z" />
    <glyph glyph-name="uni043D" unicode="&#x43d;" horiz-adv-x="528" 
d="M46 0l59 546h76l-26 -237l221 18l24 219h76l-59 -546h-76l27 256l-221 -17l-25 -239h-76z" />
    <glyph glyph-name="uni043E" unicode="&#x43e;" horiz-adv-x="515" 
d="M200 -12q-74 0 -117 55t-43 137q0 173 75 276.5t197 103.5q75 0 116 -55.5t41 -131.5q0 -69 -14.5 -134t-44.5 -123t-84 -93t-126 -35zM219 54q71 0 121.5 86.5t50.5 217.5q0 72 -24 105t-78 33q-69 0 -119.5 -88t-50.5 -213q0 -141 100 -141z" />
    <glyph glyph-name="uni043F" unicode="&#x43f;" horiz-adv-x="526" 
d="M47 0l57 546h77l-9 -90q41 35 63.5 52t60.5 34.5t74 17.5q52 0 73 -25t21 -80q0 -27 -3 -61l-43 -394h-76l41 378q4 27 4 52q0 32 -9.5 45t-34.5 13q-56 0 -179 -101l-41 -387h-76z" />
    <glyph glyph-name="uni0440" unicode="&#x440;" horiz-adv-x="529" 
d="M22 -220l83 766h75l-7 -76q105 78 189 78q122 0 122 -160q0 -68 -17.5 -135.5t-51 -127t-92 -96.5t-132.5 -37q-34 0 -69 7l-24 -219h-76zM197 56q57 0 100 34t66 87.5t33.5 107t10.5 104.5q0 53 -16.5 73t-48.5 20q-63 0 -177 -78l-36 -338q56 -10 68 -10z" />
    <glyph glyph-name="uni0441" unicode="&#x441;" horiz-adv-x="450" 
d="M172 -12q-48 0 -78.5 32.5t-41 74t-10.5 89.5q0 160 72 268t196 108q77 0 128 -49l-42 -48q-43 33 -91 33q-51 0 -89 -30t-57 -78t-28 -95.5t-9 -94.5q0 -66 16.5 -103.5t39.5 -37.5q72 0 182 57l27 -54q-36 -22 -59.5 -34t-67.5 -25t-88 -13z" />
    <glyph glyph-name="uni0442" unicode="&#x442;" horiz-adv-x="799" 
d="M47 0l57 546h77l-9 -89q36 31 56 47t60 36t74 20q51 0 72.5 -23t20.5 -72q113 95 191 95q51 0 71.5 -24t20.5 -79q0 -32 -4 -63l-42 -394h-76l41 378q4 29 4 55q0 31 -10 43.5t-36 12.5q-32 0 -69 -22.5t-96 -72.5l-42 -394h-76l41 378q5 37 5 55q0 31 -10 42.5t-36 11.5
q-29 0 -68 -24t-100 -76l-41 -387h-76z" />
    <glyph glyph-name="uni0443" unicode="&#x443;" horiz-adv-x="476" 
d="M66 -220l107 220h-41l-85 546h82l70 -492l147 307q45 90 45 166q0 4 -0.5 10t-0.5 9h79q0 -2 0.5 -10t0.5 -9q0 -72 -48 -174l-277 -573h-79z" />
    <glyph glyph-name="uni0444" unicode="&#x444;" horiz-adv-x="691" 
d="M252 -220l22 208q-109 1 -169.5 57.5t-60.5 146.5q0 173 72.5 269.5t217.5 97.5l21 195h77l-21 -195q109 -1 169.5 -57.5t60.5 -146.5q0 -173 -73 -269.5t-218 -97.5l-22 -208h-76zM281 54l46 442q-100 0 -152 -78.5t-52 -207.5q0 -32 6.5 -57.5t22.5 -49t48.5 -36.5
t80.5 -13zM356 52q101 0 153.5 78.5t52.5 207.5q0 68 -33.5 110.5t-124.5 45.5z" />
    <glyph glyph-name="uni0445" unicode="&#x445;" horiz-adv-x="453" 
d="M-28 0l218 291l-114 255h81l83 -192l138 192h83l-192 -257l126 -289h-82l-93 224l-163 -224h-85z" />
    <glyph glyph-name="uni0446" unicode="&#x446;" horiz-adv-x="557" 
d="M418 -137l14 137q-46 0 -64.5 15.5t-21.5 44.5q0 20 1 30q-104 -101 -188 -101q-56 0 -80 26t-24 86q0 22 3 48l43 397h76l-42 -378q-4 -48 -4 -58q1 -31 11.5 -43t36.5 -12q29 0 69 23t56.5 36.5t49.5 43.5l42 388h76l-45 -419q-2 -24 -2 -29q1 -20 11 -26.5t39 -8.5h38
l-21 -200h-74z" />
    <glyph glyph-name="uni0447" unicode="&#x447;" horiz-adv-x="481" 
d="M296 0l29 275q-101 -87 -184 -87q-54 0 -74.5 21.5t-20.5 72.5q0 16 6 74l19 190h77l-19 -178q-6 -44 -6 -66q0 -26 10 -35.5t37 -9.5q36 0 162 86l20 203h76l-57 -546h-75z" />
    <glyph glyph-name="uni0448" unicode="&#x448;" horiz-adv-x="758" 
d="M141 -14q-52 0 -73 21t-21 69q0 25 7 76l58 394h75l-56 -378q-6 -60 -6 -68q0 -24 9 -33.5t33 -9.5q44 0 153 95l52 394h76l-51 -378l-7 -68q0 -24 9 -32.5t33 -8.5q38 0 156 100l42 387h76l-58 -546h-76l9 89q-6 -5 -25.5 -23t-33 -28.5t-33.5 -24t-41 -20.5t-41 -7
q-55 0 -74 22t-18 73q-1 -1 -17.5 -15t-22.5 -18.5t-22 -17t-26.5 -18t-26 -13t-30 -10.5t-29.5 -3z" />
    <glyph glyph-name="uni0449" unicode="&#x449;" horiz-adv-x="791" 
d="M652 -137l14 137q-82 0 -85 59q-1 13 0 30q-3 -3 -24.5 -22.5t-33.5 -29t-33.5 -24t-42 -21t-40.5 -6.5q-55 0 -74 22t-18 73q-1 -1 -17.5 -15t-22.5 -18.5t-22 -17t-26.5 -18t-26 -13t-30 -10.5t-29.5 -3q-52 0 -73 21t-21 69q0 25 7 76l58 394h75l-56 -378
q-6 -62 -6 -70q0 -23 9 -32t33 -9q44 0 153 95l52 394h76l-51 -378q-7 -54 -7 -71q1 -22 10 -30t32 -8q38 0 156 100l42 387h76l-44 -419q-2 -26 -2 -30q1 -20 11.5 -26.5t40.5 -7.5h36l-22 -200h-74z" />
    <glyph glyph-name="uni044A" unicode="&#x44a;" horiz-adv-x="510" 
d="M232 -8q-58 0 -98 33.5t-40 108.5q0 90 35 171t104 175h-199l7 66h289l14 -34q-97 -106 -130 -195q89 67 152 67q102 0 102 -123q0 -118 -70.5 -193.5t-165.5 -75.5zM245 55q58 0 102 53t44 148q0 62 -51 62q-60 0 -150 -72q-18 -57 -18 -109q0 -82 73 -82z" />
    <glyph glyph-name="uni044B" unicode="&#x44b;" horiz-adv-x="653" 
d="M467 0l57 546h76l-57 -546h-76zM178 -8q-75 0 -142 26l80 528h75l-33 -235q34 24 52 36t50 24.5t60 12.5q103 0 103 -123q0 -118 -70.5 -193.5t-174.5 -75.5zM188 56q64 0 111 52.5t47 147.5q0 62 -51 62q-22 0 -51.5 -13.5t-46.5 -25t-49 -34.5l-27 -177q25 -12 67 -12z
" />
    <glyph glyph-name="uni044C" unicode="&#x44c;" horiz-adv-x="464" 
d="M178 -8q-75 0 -142 26l80 528h75l-33 -235q34 24 52 36t50 24.5t60 12.5q103 0 103 -123q0 -118 -70.5 -193.5t-174.5 -75.5zM188 56q64 0 111 52.5t47 147.5q0 62 -51 62q-22 0 -51.5 -13.5t-46.5 -25t-49 -34.5l-27 -177q25 -12 67 -12z" />
    <glyph glyph-name="uni044D" unicode="&#x44d;" horiz-adv-x="435" 
d="M120 -12q-34 0 -68 13t-54 33l33 55q55 -36 104 -36q57 0 101.5 53.5t62.5 140.5h-170l5 61h174q2 15 2 49q0 72 -18 105t-67 33q-59 0 -133 -34l-23 51q81 48 169 48q79 0 115 -52.5t36 -132.5q0 -73 -15.5 -139.5t-46.5 -123t-84.5 -90.5t-122.5 -34z" />
    <glyph glyph-name="uni044E" unicode="&#x44e;" horiz-adv-x="727" 
d="M412 -12q-74 0 -117 55t-43 137q0 36 3 68l-108 -9l-25 -239h-76l59 546h76l-26 -237l112 9q26 113 94.5 177.5t162.5 64.5q75 0 116 -55.5t41 -131.5q0 -69 -14.5 -134t-44.5 -123t-84 -93t-126 -35zM430 54q71 0 122 86.5t51 217.5q0 72 -24 105t-78 33
q-69 0 -119.5 -88t-50.5 -213q0 -141 99 -141z" />
    <glyph glyph-name="uni044F" unicode="&#x44f;" horiz-adv-x="484" 
d="M70 -14l-78 25l191 211q-41 11 -76.5 44.5t-35.5 90.5q0 28 8 56.5t30 63.5t72 57t122 22q70 0 128 -21l-55 -535h-76l51 485q-25 7 -62 7q-63 0 -103 -32t-40 -97q0 -31 15.5 -53.5t43 -34.5t45.5 -17t43 -10z" />
    <glyph glyph-name="uni0450" unicode="&#x450;" horiz-adv-x="468" 
d="M173 -12q-129 0 -129 204q0 100 29 182.5t90 134.5t144 52q69 0 103 -35.5t34 -89.5q0 -94 -143 -146l-178 -66v-27q0 -141 63 -141q65 0 171 55l27 -57q-37 -21 -61.5 -32.5t-66 -22.5t-83.5 -11zM130 291l159 62q38 15 59.5 36t21.5 44q0 33 -19.5 48t-46.5 15
q-137 0 -174 -205zM343 615l-184 119l38 60l177 -129z" />
    <glyph glyph-name="uni0451" unicode="&#x451;" horiz-adv-x="468" 
d="M173 -12q-129 0 -129 204q0 100 29 182.5t90 134.5t144 52q69 0 103 -35.5t34 -89.5q0 -94 -143 -146l-178 -66v-27q0 -141 63 -141q65 0 171 55l27 -57q-37 -21 -61.5 -32.5t-66 -22.5t-83.5 -11zM130 291l159 62q38 15 59.5 36t21.5 44q0 33 -19.5 48t-46.5 15
q-137 0 -174 -205zM168 669l10 93h75l-10 -93h-75zM365 669l9 93h75l-10 -93h-74z" />
    <glyph glyph-name="uni0452" unicode="&#x452;" horiz-adv-x="529" 
d="M264 -220l-54 45q72 82 124 216t52 256q0 62 -12 86.5t-45 24.5q-20 0 -54.5 -19.5t-77 -50.5t-43.5 -32l-32 -306h-76l60 575h-91l6 63h92l13 117h76l-12 -117h189l-6 -63h-190l-21 -200q83 68 133 89q38 15 69 15q54 0 77.5 -41t23.5 -120q0 -146 -57.5 -289
t-143.5 -249z" />
    <glyph glyph-name="uni0453" unicode="&#x453;" horiz-adv-x="422" 
d="M214 618l-30 48l186 135l38 -60zM154 -9q-58 0 -94.5 30.5t-36.5 86.5q0 31 12 58t38.5 52.5t46 41t57.5 41.5q85 58 106 83q23 27 23 52q0 56 -64 56q-25 0 -54 -11t-43 -19.5t-46 -28.5l-30 55q87 68 191 68q52 0 85.5 -28.5t33.5 -85.5q0 -30 -11 -55.5t-36.5 -50.5
t-43 -39t-54.5 -40q-9 -7 -14 -10q-42 -29 -63 -45.5t-40.5 -40t-19.5 -44.5q0 -60 67 -60q57 0 168 76l33 -55q-43 -35 -101.5 -61t-109.5 -26z" />
    <glyph glyph-name="uni0454" unicode="&#x454;" horiz-adv-x="450" 
d="M172 -12q-48 0 -78.5 32.5t-41 74t-10.5 89.5q0 160 72 268t196 108q77 0 128 -49l-42 -48q-43 33 -91 33q-125 0 -169 -178h198l-7 -62h-202q-3 -32 -3 -58q0 -66 16.5 -103.5t39.5 -37.5q72 0 182 57l27 -54q-36 -22 -59.5 -34t-67.5 -25t-88 -13z" />
    <glyph glyph-name="uni0455" unicode="&#x455;" horiz-adv-x="417" 
d="M154 -9q-92 0 -149 25l22 66q68 -25 132 -25q18 0 36.5 3t39 11t33.5 25t13 41q0 29 -21.5 55t-52.5 46.5t-62.5 43t-53 54.5t-21.5 71q0 78 50.5 113.5t128.5 35.5q82 0 142 -30l-23 -59q-72 26 -129 26q-41 0 -69 -18t-28 -57q0 -29 22 -55t53 -47t62.5 -43.5t53.5 -57
t22 -75.5t-18.5 -71.5t-49 -46.5t-64 -23.5t-69.5 -7.5z" />
    <glyph glyph-name="uni0456" unicode="&#x456;" horiz-adv-x="233" 
d="M47 0l57 546h76l-57 -546h-76zM120 669l10 93h77l-10 -93h-77z" />
    <glyph glyph-name="uni0457" unicode="&#x457;" horiz-adv-x="233" 
d="M18 669l10 93h75l-10 -93h-75zM215 669l9 93h75l-10 -93h-74zM47 0l57 546h76l-57 -546h-76z" />
    <glyph glyph-name="uni0458" unicode="&#x458;" horiz-adv-x="233" 
d="M-76 -220q-41 0 -75 13l19 65q36 -11 65 -11q58 0 81 33.5t30 102.5l60 563h76l-60 -564q-11 -111 -61.5 -156.5t-134.5 -45.5zM117 669l10 93h77l-10 -93h-77z" />
    <glyph glyph-name="uni0459" unicode="&#x459;" horiz-adv-x="681" 
d="M399 -8q-46 0 -102 14l-23 476h-11l-138 -297q-45 -97 -45 -167q0 -15 1 -18h-77q-1 3 -1 18q0 77 48 175l172 353h114l19 -248q112 86 181 86q103 0 103 -123q0 -117 -70.5 -193t-170.5 -76zM407 56q64 0 110 52t46 148q0 62 -51 62q-23 0 -54.5 -14.5t-45.5 -24.5
t-52 -37l15 -185q8 -1 32 -1z" />
    <glyph glyph-name="uni045A" unicode="&#x45a;" horiz-adv-x="761" 
d="M475 -8q-75 0 -132 23l25 241l-221 -17l-25 -239h-76l59 546h76l-26 -237l221 18l24 219h76l-26 -238q103 76 167 76q103 0 103 -123q0 -118 -70.5 -193.5t-174.5 -75.5zM485 56q64 0 111 52.5t47 147.5q0 62 -51 62q-17 0 -35 -5.5t-42.5 -20.5t-34 -21.5t-37.5 -26.5
l-19 -179q23 -9 61 -9z" />
    <glyph glyph-name="uni045B" unicode="&#x45b;" horiz-adv-x="521" 
d="M46 0l60 575h-91l6 63h92l13 117h76l-12 -117h189l-6 -63h-190l-21 -200l12 10q12 10 16 13t17 13t19.5 14.5t19.5 13t22 13t22 10.5t23.5 9t23 5.5t23.5 2.5q55 0 75.5 -21.5t20.5 -71.5q0 -3 -5 -73l-34 -313h-76l33 297q5 47 5 66q0 25 -10 35t-38 10q-19 0 -55 -20.5
t-78 -50.5t-44 -31l-32 -306h-76z" />
    <glyph glyph-name="uni045C" unicode="&#x45c;" horiz-adv-x="485" 
d="M241 618l-30 48l186 135l38 -60zM364 -14l-190 301l210 259h91l-213 -257l179 -278zM47 0l57 546h77l-58 -546h-76z" />
    <glyph glyph-name="uni045D" unicode="&#x45d;" horiz-adv-x="525" 
d="M159 -11q-56 0 -80 26t-24 86q0 22 3 48l43 397h76l-42 -378q-3 -32 -3 -53q0 -34 10.5 -47t36.5 -13q70 0 175 103l42 388h76l-58 -546h-76l9 90q-50 -50 -93 -75.5t-95 -25.5zM333 615l-184 119l38 60l177 -129z" />
    <glyph glyph-name="uni045E" unicode="&#x45e;" horiz-adv-x="476" 
d="M66 -220l107 220h-41l-85 546h82l70 -492l147 307q45 90 45 166q0 4 -0.5 10t-0.5 9h79q0 -2 0.5 -10t0.5 -9q0 -72 -48 -174l-277 -573h-79zM246 652q-28 0 -59 27t-55 68l60 40q47 -69 74 -69q64 0 150 70l29 -36q-48 -44 -102 -72t-97 -28z" />
    <glyph glyph-name="uni045F" unicode="&#x45f;" horiz-adv-x="525" 
d="M208 -220l40 182h59l-19 -182h-80zM159 -11q-56 0 -80 26t-24 86q0 22 3 48l43 397h76l-42 -378q-3 -32 -3 -53q0 -34 10.5 -47t36.5 -13q70 0 175 103l42 388h76l-58 -546h-76l9 90q-50 -50 -93 -75.5t-95 -25.5z" />
    <glyph glyph-name="uni0462" unicode="&#x462;" horiz-adv-x="680" 
d="M163 0l56 533h-191l8 68h190l11 106h80l-12 -106h223l-6 -67h-223l-14 -129h103q128 0 188.5 -46t60.5 -140q0 -101 -69.5 -160t-182.5 -59h-222zM379 338h-101l-29 -272h126q84 0 132 41.5t48 107.5q0 67 -44 95t-132 28z" />
    <glyph glyph-name="uni0463" unicode="&#x463;" horiz-adv-x="762" 
d="M476 -8q-77 0 -132 23l39 363q4 38 4 49q0 35 -10.5 48.5t-35.5 13.5q-19 0 -53.5 -18.5t-56 -34t-67.5 -49.5l-41 -387h-76l57 546h77l-9 -90l12 10q12 10 16 13t17 13t19.5 14.5t19.5 13t22 13t22 10.5t23.5 9t23 5.5t23.5 2.5q51 0 72.5 -25t21.5 -81q0 -27 -3 -60
l-10 -86q103 76 167 76q103 0 103 -123q0 -118 -70.5 -193.5t-174.5 -75.5zM486 56q64 0 111 52.5t47 147.5q0 62 -51 62q-48 0 -149 -74l-19 -180q24 -8 61 -8z" />
    <glyph glyph-name="uni0472" unicode="&#x472;" horiz-adv-x="801" 
d="M359 -11q-143 0 -221 85.5t-78 232.5q0 184 104.5 297.5t285.5 113.5q143 0 222 -85.5t79 -232.5q0 -185 -105 -298t-287 -113zM369 55q125 0 200.5 75t93.5 196h-522v-14q0 -116 58 -186.5t170 -70.5zM438 650q-122 0 -197 -72.5t-94 -190.5h521v10q0 116 -59 184.5
t-171 68.5z" />
    <glyph glyph-name="uni0473" unicode="&#x473;" horiz-adv-x="515" 
d="M200 -12q-74 0 -117 55t-43 137q0 173 75 276.5t197 103.5q75 0 116 -55.5t41 -131.5q0 -69 -14.5 -134t-44.5 -123t-84 -93t-126 -35zM219 54q54 0 97.5 52.5t62.5 139.5h-258q-2 -34 -2 -51q0 -141 100 -141zM289 496q-52 0 -95.5 -53t-62.5 -138h257q3 25 3 53
q0 72 -24 105t-78 33z" />
    <glyph glyph-name="uni0474" unicode="&#x474;" horiz-adv-x="681" 
d="M218 0l-172 707h83l150 -650l239 467q78 158 155 201l52 -47q-70 -43 -130 -162l-266 -516h-111z" />
    <glyph glyph-name="uni0475" unicode="&#x475;" horiz-adv-x="522" 
d="M134 0l-91 546h82l71 -492q152 318 152 319q68 141 145 189l51 -46q-72 -47 -138 -185l-161 -331h-111z" />
    <glyph glyph-name="uni048A" unicode="&#x48a;" horiz-adv-x="792" 
d="M555 97l41 392l14 106l-48 -70l-415 -525h-80l75 707h79l-51 -489l-14 -106l71 105l393 490h79l-61 -591q-3 -30 13 -41t45 -11h61l-113 -217h-85l84 152q-44 3 -68 28t-20 70zM430 755q-109 0 -162 84l48 43q41 -58 121 -58q77 0 131 58l41 -43q-70 -84 -179 -84z" />
    <glyph glyph-name="uni048B" unicode="&#x48b;" horiz-adv-x="525" 
d="M160 -11q-56 0 -80 26t-24 86q0 22 3 48l42 397h77l-42 -378q-3 -21 -3 -53q0 -34 10 -47t36 -13q71 0 176 103l42 388h76l-58 -546q-59 -29 -59 -70q0 -38 59 -38l-8 -67q-55 0 -89 24.5t-34 66.5q0 58 57 108l7 66q-49 -49 -92.5 -75t-95.5 -26zM272 652q-28 0 -59 27
t-55 68l60 40q47 -69 74 -69q64 0 150 70l29 -36q-48 -44 -102 -72t-97 -28z" />
    <glyph glyph-name="uni048C" unicode="&#x48c;" horiz-adv-x="610" 
d="M168 707h80l-11 -104h148l-7 -66h-148l-11 -107h112q114 0 176 -47.5t62 -141.5q0 -16 -1 -24q-7 -103 -79.5 -160t-183.5 -57h-210l55 537h-82l7 66h82zM319 363h-107l-31 -298q2 -1 120 -1q81 0 129 40t53 115q1 7 1 20q0 124 -165 124z" />
    <glyph glyph-name="uni048D" unicode="&#x48d;" horiz-adv-x="487" 
d="M44 424l5 52h78l11 70h75l-10 -70h98l-5 -52h-100l-16 -113q34 24 52 36t50 24.5t60 12.5q103 0 103 -123q0 -118 -70.5 -193.5t-174.5 -75.5q-75 0 -142 26l61 406h-75zM210 56q64 0 111 52.5t47 147.5q0 62 -51 62q-22 0 -51.5 -13.5t-46.5 -25t-49 -34.5l-27 -177
q25 -12 67 -12z" />
    <glyph glyph-name="uni048E" unicode="&#x48e;" horiz-adv-x="607" 
d="M67 0l75 707h229q95 0 151 -48.5t56 -141.5q0 -130 -91 -197l56 -63l-49 -45l-67 75q-65 -27 -156 -27h-96l-27 -260h-81zM340 385l49 45l51 -57q53 47 53 137q0 133 -150 133h-128l-33 -317h94q61 0 104 14z" />
    <glyph glyph-name="uni048F" unicode="&#x48f;" horiz-adv-x="534" 
d="M22 -220l83 766h75l-7 -76q105 78 189 78q122 0 122 -160q0 -90 -29.5 -178.5t-87.5 -145.5l52 -50l-41 -45l-61 57q-56 -34 -126 -34q-34 0 -69 7l-24 -219h-76zM231 108l45 45l43 -42q45 48 66.5 126.5t21.5 151.5q0 53 -16.5 73t-48.5 20q-63 0 -177 -78l-36 -338
q56 -10 68 -10q41 0 72 16z" />
    <glyph glyph-name="uni0490" unicode="&#x490;" horiz-adv-x="509" 
d="M67 0l75 707h327l16 161h78l-23 -228h-326l-67 -640h-80z" />
    <glyph glyph-name="uni0491" unicode="&#x491;" horiz-adv-x="388" 
d="M46 0l59 546h227l12 114h73l-18 -178h-225l-52 -482h-76z" />
    <glyph glyph-name="uni0492" unicode="&#x492;" horiz-adv-x="541" 
d="M55 317l8 66h68l35 324h404l-6 -67h-326l-27 -257h191l-8 -66h-190l-33 -317h-80l33 317h-69z" />
    <glyph glyph-name="uni0493" unicode="&#x493;" horiz-adv-x="435" 
d="M53 244l7 60h130q42 28 63.5 44t41.5 40.5t20 47.5q0 56 -64 56q-25 0 -54 -11t-43 -19.5t-46 -28.5l-30 55q87 68 191 68q52 0 85.5 -28.5t33.5 -85.5q0 -72 -82 -138h53l-7 -60h-128q-29 -20 -46 -33t-36 -30t-27.5 -33t-8.5 -31q0 -60 67 -60q57 0 168 76l33 -55
q-43 -35 -101.5 -61t-109.5 -26q-58 0 -94.5 30.5t-36.5 86.5q0 70 77 136h-56z" />
    <glyph glyph-name="uni0494" unicode="&#x494;" horiz-adv-x="622" 
d="M281 -220l-41 56q71 53 105 86q144 143 144 305q0 132 -127 132q-90 0 -182 -47l-33 -312h-79l74 707h364l-8 -67h-284l-26 -257q113 42 201 42q93 0 137.5 -52.5t44.5 -142.5q0 -251 -290 -450z" />
    <glyph glyph-name="uni0495" unicode="&#x495;" horiz-adv-x="509" 
d="M46 0l59 546h301l-7 -65h-225l-21 -197q110 102 198 102q102 0 102 -173q0 -130 -51 -230.5t-147 -204.5l-49 48q167 174 167 372q0 64 -12 92.5t-45 28.5q-28 0 -84.5 -36t-85.5 -64l-24 -219h-76z" />
    <glyph glyph-name="uni0496" unicode="&#x496;" horiz-adv-x="907" 
d="M59 -24l-73 43l307 365l-216 323h90l211 -328l-2 -16zM364 0l74 707h79l-73 -707h-80zM877 64l-27 -217h-79l18 150q-30 1 -49.5 18.5t-38.5 46.5l-194 301l1 15l280 329h100l-293 -329l179 -270q10 -15 16.5 -23t18.5 -14.5t27 -6.5h41z" />
    <glyph glyph-name="uni0497" unicode="&#x497;" horiz-adv-x="764" 
d="M62 -14l-79 25l240 285l-164 250h89l158 -261zM296 0l57 546h77l-58 -546h-76zM512 289l121 -187q25 -39 62 -39h35l-21 -200h-74l14 137q-28 0 -47 17.5t-39 48.5l-139 219l209 261h91z" />
    <glyph glyph-name="uni0498" unicode="&#x498;" horiz-adv-x="532" 
d="M200 -9q-114 0 -195 44l32 65q76 -39 167 -39q74 0 123.5 32.5t55.5 103.5q12 126 -168 126h-69l8 66h69q70 0 114.5 35t50.5 98q5 60 -28 92t-97 32q-59 0 -148 -32l-20 58q90 40 183 40q99 0 148.5 -48.5t43.5 -125.5q-3 -40 -18.5 -73t-37 -53.5t-38 -32t-32.5 -18.5
v-2q131 -37 121 -160q-7 -85 -72.5 -146.5t-192.5 -61.5zM155 -239l-21 44q59 34 66 77q2 23 -16 67h74q16 -32 13 -66q-7 -77 -116 -122z" />
    <glyph glyph-name="uni0499" unicode="&#x499;" horiz-adv-x="421" 
d="M150 -9q-84 0 -151 26l22 62q62 -22 119 -22q72 0 108 29t36 73q0 92 -149 95l-6 53q70 16 116.5 51t46.5 76q0 55 -101 55q-56 0 -108 -15l-17 59q57 23 138 23q76 0 120 -28.5t44 -82.5q0 -47 -34.5 -87t-91.5 -64q115 -24 115 -132q0 -74 -56 -122.5t-151 -48.5z
M97 -239l-21 44q59 34 66 77q2 23 -16 67h74q16 -32 13 -66q-7 -77 -116 -122z" />
    <glyph glyph-name="uni049A" unicode="&#x49a;" horiz-adv-x="627" 
d="M507 -3q-19 1 -37 13t-27 23.5t-22 30.5l-211 303l1 16l308 324h100l-318 -327l192 -272q10 -15 16.5 -23t18.5 -14.5t26 -6.5h42l-27 -217h-80zM67 0l75 707h79l-74 -707h-80z" />
    <glyph glyph-name="uni049B" unicode="&#x49b;" horiz-adv-x="503" 
d="M383 0q-28 0 -47 17.5t-39 48.5l-123 221l210 259h91l-213 -257l105 -187q25 -39 62 -39h35l-21 -200h-74zM47 0l57 546h77l-58 -546h-76z" />
    <glyph glyph-name="uni049C" unicode="&#x49c;" horiz-adv-x="623" 
d="M499 -25l-215 392l1 16l249 324h100l-272 -327l209 -363zM67 0l75 707h79l-74 -707h-80zM213 277l19 183h50l-19 -183h-50z" />
    <glyph glyph-name="uni049D" unicode="&#x49d;" horiz-adv-x="517" 
d="M387 -14l-144 301l179 259h91l-191 -257l140 -278zM47 0l57 546h77l-58 -546h-76zM176 193l19 180h51l-20 -180h-50z" />
    <glyph glyph-name="uni049E" unicode="&#x49e;" horiz-adv-x="629" 
d="M507 -19l-270 386l1 16l308 324h100l-318 -327l252 -359zM62 545l7 62h89l11 100h79l-11 -100h105l-7 -62h-104l-57 -545h-80l58 545h-90z" />
    <glyph glyph-name="uni049F" unicode="&#x49f;" horiz-adv-x="504" 
d="M47 558l6 53h79l15 143h77l-16 -143h93l-6 -53h-92l-59 -558h-76l58 558h-79zM387 -14l-192 302l201 258h90l-203 -255l181 -280z" />
    <glyph glyph-name="uni04A0" unicode="&#x4a0;" horiz-adv-x="685" 
d="M562 -19l-270 386l1 16l308 324h100l-318 -327l252 -359zM32 640l7 67h264l-74 -707h-80l68 640h-185z" />
    <glyph glyph-name="uni04A1" unicode="&#x4a1;" horiz-adv-x="580" 
d="M15 481l6 65h255l-58 -546h-76l50 481h-177zM460 -14l-191 301l210 259h91l-213 -257l179 -278z" />
    <glyph glyph-name="uni04A2" unicode="&#x4a2;" horiz-adv-x="772" 
d="M539 93l23 229h-381l-34 -322h-80l75 707h79l-33 -320h380l33 321h80l-63 -598q-2 -20 7.5 -31t21.5 -13t31 -2h42l-27 -217h-80l18 150q-40 0 -68.5 25t-23.5 71z" />
    <glyph glyph-name="uni04A3" unicode="&#x4a3;" horiz-adv-x="561" 
d="M476 546l-47 -435q-3 -30 10.5 -39t42.5 -9h35l-21 -200h-74l14 137q-37 0 -63.5 22.5t-22.5 63.5l18 170l-221 -17l-25 -239h-76l59 546h76l-26 -237l221 18l24 219h76z" />
    <glyph glyph-name="uni04A4" unicode="&#x4a4;" horiz-adv-x="837" 
d="M67 0l75 707h79l-33 -320h380l33 320h19v1h266l-6 -68h-206l-67 -640h-80l35 322h-381l-34 -322h-80z" />
    <glyph glyph-name="uni04A5" unicode="&#x4a5;" horiz-adv-x="609" 
d="M46 0l59 546h76l-26 -237l221 18l24 219h232l-7 -65h-156l-52 -481h-76l27 256l-221 -17l-25 -239h-76z" />
    <glyph glyph-name="uni04A6" unicode="&#x4a6;" horiz-adv-x="763" 
d="M671 708l-62 -598q-2 -20 7.5 -31t21.5 -13t31 -2h41l-26 -217h-80l18 150q-41 0 -70.5 25t-24.5 71l58 547h-371l-67 -640h-80l75 708h529z" />
    <glyph glyph-name="uni04A7" unicode="&#x4a7;" horiz-adv-x="557" 
d="M418 -137l14 137q-46 0 -64.5 15.5t-21.5 44.5q0 20 1 30q-104 -101 -188 -101q-56 0 -80 26t-24 86q0 22 3 48l43 397h76l-42 -378q-4 -48 -4 -58q1 -31 11.5 -43t36.5 -12q29 0 69 23t56.5 36.5t49.5 43.5l42 388h76l-45 -419q-2 -24 -2 -29q1 -20 11 -26.5t39 -8.5h38
l-21 -200h-74zM284 652q-28 0 -59 27t-55 68l60 40q47 -69 74 -69q64 0 150 70l29 -36q-48 -44 -102 -72t-97 -28z" />
    <glyph glyph-name="uni04A8" unicode="&#x4a8;" horiz-adv-x="776" 
d="M372 -12q-147 0 -229.5 84.5t-82.5 237.5q0 191 108.5 299t296.5 108q117 0 195 -39l-29 -64q-71 35 -182 35q-142 0 -225 -91.5t-83 -235.5q0 -115 50.5 -182.5t148.5 -80.5q-26 67 -26 146q0 119 61.5 193t180.5 74q82 0 130.5 -53t48.5 -131q0 -107 -70.5 -187
t-195.5 -104q68 -73 171 -73q50 0 107 16l7 -62q-62 -20 -128 -20q-77 0 -141.5 34.5t-106.5 95.5h-6zM393 214q0 -86 34 -156q118 10 175 73.5t57 149.5q1 61 -34.5 94t-83.5 33q-77 0 -112.5 -56t-35.5 -138z" />
    <glyph glyph-name="uni04A9" unicode="&#x4a9;" horiz-adv-x="518" 
d="M217 -12q-89 0 -132 53.5t-43 144.5q0 72 15.5 137t46.5 119t83.5 86t120.5 32q85 0 141 -35l-33 -58q-60 29 -115 29q-83 0 -131 -85.5t-48 -205.5q0 -135 81 -151q-6 31 -6 70q0 64 11.5 115.5t47.5 91.5t94 40q55 0 87 -33t32 -94q0 -95 -46.5 -157.5t-120.5 -85.5
q37 -49 107 -49q45 0 88 13l19 -58q-62 -20 -122 -20q-118 0 -169 101h-8zM266 132q0 -44 9 -77q62 13 93.5 62t31.5 120q0 77 -56 77q-78 0 -78 -182z" />
    <glyph glyph-name="uni04AA" unicode="&#x4aa;" horiz-adv-x="630" 
d="M378 -10q-146 0 -232.5 86t-86.5 234q0 183 104.5 293t287.5 110q100 0 164 -28l-27 -63q-65 23 -143 23q-145 0 -224.5 -90.5t-79.5 -239.5q0 -122 70.5 -188t192.5 -66q88 0 152 21l15 -66q-82 -26 -193 -26zM319 -239l-21 44q59 34 66 77q2 23 -16 67h74
q16 -32 13 -66q-7 -77 -116 -122z" />
    <glyph glyph-name="uni04AB" unicode="&#x4ab;" horiz-adv-x="449" 
d="M172 -12q-48 0 -78.5 32.5t-41 74t-10.5 89.5q0 160 72 268t196 108q77 0 128 -49l-42 -48q-43 33 -91 33q-51 0 -89 -30t-57 -78t-28 -95.5t-9 -94.5q0 -66 16.5 -103.5t39.5 -37.5q72 0 182 57l27 -54q-36 -22 -59.5 -34t-67.5 -25t-88 -13zM140 -239l-21 44
q59 34 66 77q2 23 -16 67h74q16 -32 13 -66q-7 -77 -116 -122z" />
    <glyph glyph-name="uni04AC" unicode="&#x4ac;" horiz-adv-x="575" 
d="M220 93l58 547h-241l7 67h563l-7 -67h-242l-56 -530q-2 -20 7.5 -31t21.5 -13t32 -2h41l-26 -217h-80l18 150q-41 0 -71 25t-25 71z" />
    <glyph glyph-name="uni04AD" unicode="&#x4ad;" horiz-adv-x="834" 
d="M625 86l32 292q4 29 4 55q0 31 -10 43.5t-36 12.5q-32 0 -69 -22.5t-96 -72.5l-42 -394h-76l41 378q5 37 5 55q0 31 -10 42.5t-36 11.5q-29 0 -68 -24t-100 -76l-41 -387h-76l57 546h77l-9 -89q36 31 56 47t60 36t74 20q51 0 72.5 -23t20.5 -72q113 95 191 95
q51 0 71.5 -24t20.5 -79q0 -32 -4 -63l-30 -283q-3 -30 10.5 -39t42.5 -9h35l-21 -200h-74l14 137q-37 0 -63.5 22.5t-22.5 63.5z" />
    <glyph glyph-name="uni04AE" unicode="&#x4ae;" horiz-adv-x="538" 
d="M188 0l29 274l-184 433h89l144 -365l235 365h86l-291 -432l-28 -275h-80z" />
    <glyph glyph-name="uni04AF" unicode="&#x4af;" horiz-adv-x="465" 
d="M122 -220l24 226l-109 540h82l81 -444l136 259q45 93 45 166q0 4 -0.5 10t-0.5 9h78q1 -3 1 -19q0 -74 -49 -174l-188 -347l-24 -226h-76z" />
    <glyph glyph-name="uni04B0" unicode="&#x4b0;" horiz-adv-x="566" 
d="M87 218l8 68h131l-179 421h89l144 -365l235 365h86l-284 -421h140l-8 -68h-145l-22 -218h-80l23 218h-138z" />
    <glyph glyph-name="uni04B1" unicode="&#x4b1;" horiz-adv-x="487" 
d="M42 0l7 67h96l-96 479h82l81 -444l136 259q45 93 45 166q0 4 -0.5 10t-0.5 9h78q1 -3 1 -19q0 -74 -49 -174l-155 -286h113l-7 -67h-140l-23 -220h-76l23 220h-115z" />
    <glyph glyph-name="uni04B2" unicode="&#x4b2;" horiz-adv-x="620" 
d="M410 71l-113 238l-232 -309h-91l289 373l-162 334h88l127 -273l202 273h88l-257 -333l126 -256q15 -29 30 -41.5t37 -12.5h41l-26 -217h-80l18 150q-51 2 -85 74z" />
    <glyph glyph-name="uni04B3" unicode="&#x4b3;" horiz-adv-x="479" 
d="M269 289l75 -172q13 -31 24.5 -42.5t33.5 -11.5h35l-21 -200h-74l14 137q-29 0 -44.5 20t-35.5 67l-57 137l-163 -224h-84l217 291l-114 255h82l82 -192l139 192h82z" />
    <glyph glyph-name="uni04B4" unicode="&#x4b4;" horiz-adv-x="894" 
d="M592 640h-233l-59 -574h362l66 641h80l-67 -641h91l-23 -219h-78l16 153h-535l66 640h-241l8 67h555z" />
    <glyph glyph-name="uni04B5" unicode="&#x4b5;" horiz-adv-x="633" 
d="M20 480l6 66h227l-41 -378q-5 -41 -4 -58q0 -31 10.5 -43t36.5 -12q22 0 47 10t54.5 32t39 30t35.5 31l41 388h76l-44 -419q-2 -24 -2 -29q0 -20 10 -26.5t40 -8.5h38l-22 -200h-74l14 137q-46 0 -64 15.5t-21 44.5q-1 9 1 30q-106 -101 -188 -101q-56 0 -80 26t-24 86
q0 22 3 48l35 331h-150z" />
    <glyph glyph-name="uni04B6" unicode="&#x4b6;" horiz-adv-x="664" 
d="M427 93l25 231q-99 -42 -198 -42q-193 0 -193 157q0 23 2 35l24 233h79l-25 -238q-1 -7 -1 -19q0 -103 136 -103q92 0 183 48l32 312h81l-63 -597q-2 -20 7.5 -31t21.5 -13t32 -2h41l-26 -217h-80l18 150q-41 0 -71 25t-25 71z" />
    <glyph glyph-name="uni04B7" unicode="&#x4b7;" horiz-adv-x="514" 
d="M428 546l-45 -431q-3 -30 11 -41t42 -11h35l-21 -200h-74l14 137q-36 0 -62 25t-22 66l19 184q-101 -87 -184 -87q-54 0 -74.5 21.5t-20.5 72.5q0 16 6 74l19 190h77l-19 -178q-6 -44 -6 -66q0 -26 10 -35.5t37 -9.5q36 0 162 86l20 203h76z" />
    <glyph glyph-name="uni04B8" unicode="&#x4b8;" horiz-adv-x="630" 
d="M418 0l34 324q-72 -31 -143 -39l-7 -68h-58l7 65q-190 1 -190 157q0 23 2 35l24 233h79l-25 -238q-1 -7 -1 -19q0 -96 117 -103l8 71h59l-8 -69q75 10 143 46l32 312h81l-74 -707h-80z" />
    <glyph glyph-name="uni04B9" unicode="&#x4b9;" horiz-adv-x="481" 
d="M296 0l29 275q-46 -40 -90 -61l-7 -69h-50l5 48q-23 -5 -42 -5q-54 0 -74.5 21.5t-20.5 72.5q0 16 6 74l19 190h77l-19 -178q-6 -44 -6 -66q0 -26 10 -35.5t37 -9.5q8 0 20 3l8 76h50l-6 -51q18 10 90 58l20 203h76l-57 -546h-75z" />
    <glyph glyph-name="uni04BA" unicode="&#x4ba;" horiz-adv-x="631" 
d="M68 0l74 707h80l-33 -316q108 43 205 43q186 0 186 -158q0 -11 -2 -35l-26 -241h-79l26 246q1 7 1 19q0 103 -144 103q-82 0 -174 -48l-35 -320h-79z" />
    <glyph glyph-name="uni04BB" unicode="&#x4bb;" horiz-adv-x="525" 
d="M46 0l80 754h77l-32 -298q41 35 63.5 52t60.5 34.5t74 17.5q52 0 73.5 -25t21.5 -80q0 -30 -4 -61l-43 -394h-76l42 378q3 32 3 55q0 30 -9.5 42.5t-33.5 12.5q-57 0 -180 -101l-41 -387h-76z" />
    <glyph glyph-name="uni04BC" unicode="&#x4bc;" horiz-adv-x="926" 
d="M603 717q139 0 210.5 -79.5t71.5 -212.5q0 -20 -8 -100h-570q1 -270 240 -270q71 0 142 18.5t115 39.5l20 -58q-128 -67 -296 -67q-140 0 -221 83.5t-81 228.5v25h-16q-85 1 -126.5 34t-41.5 93t38 134h66q-35 -67 -35 -117q0 -40 23.5 -59t83.5 -20q0 -1 14 -1
q23 149 119 238.5t252 89.5zM592 651q-239 0 -278 -262h491q0 5 0.5 13t0.5 12q-1 107 -52.5 172t-161.5 65z" />
    <glyph glyph-name="uni04BD" unicode="&#x4bd;" horiz-adv-x="576" 
d="M281 -12q-129 0 -129 204v18q-11 -3 -33 -3q-89 0 -89 99q0 50 24 117h64q-22 -66 -22 -104q0 -27 8 -39t28 -12q15 0 25 1q17 129 83.5 210.5t174.5 81.5q69 0 103 -35.5t34 -89.5q0 -94 -143 -146l-177 -66q-1 -8 -1 -27q0 -141 63 -141q65 0 171 55l27 -57
q-37 -21 -61.5 -32.5t-66 -22.5t-83.5 -11zM238 291l159 62q38 15 59.5 36t21.5 44q0 33 -19 48t-47 15q-137 0 -174 -205z" />
    <glyph glyph-name="uni04BE" unicode="&#x4be;" horiz-adv-x="926" 
d="M603 717q139 0 210.5 -79.5t71.5 -212.5q0 -20 -8 -100h-570q1 -270 240 -270q71 0 142 18.5t115 39.5l20 -58q-68 -37 -162 -54q-118 -67 -118 -120q0 -46 50 -46q26 0 54 10l11 -55q-37 -15 -85 -15q-49 0 -75.5 25t-26.5 69q0 60 75 119h-19q-140 0 -221 83.5
t-81 228.5v25h-16q-85 1 -126.5 34t-41.5 93t38 134h66q-35 -67 -35 -117q0 -40 23.5 -59t83.5 -20q0 -1 14 -1q23 149 119 238.5t252 89.5zM592 651q-239 0 -278 -262h491q0 5 0.5 13t0.5 12q-1 107 -52.5 172t-161.5 65z" />
    <glyph glyph-name="uni04BF" unicode="&#x4bf;" horiz-adv-x="577" 
d="M354 -155l11 -55q-37 -15 -85 -15q-49 0 -75.5 25t-26.5 69q0 63 78 121q-104 19 -104 202v18q-11 -3 -33 -3q-89 0 -89 99q0 50 24 117h64q-22 -66 -22 -104q0 -27 8 -39t28 -12q15 0 25 1q17 129 83.5 210.5t174.5 81.5q69 0 103 -35.5t34 -89.5q0 -94 -143 -146
l-177 -66q-1 -8 -1 -27q0 -141 63 -141q65 0 171 55l27 -57q-74 -43 -129 -56q-113 -66 -113 -117q0 -46 50 -46q26 0 54 10zM238 291l159 62q38 15 59.5 36t21.5 44q0 33 -19 48t-47 15q-137 0 -174 -205z" />
    <glyph glyph-name="uni04C0" unicode="&#x4c0;" horiz-adv-x="278" 
d="M67 0l75 707h79l-74 -707h-80z" />
    <glyph glyph-name="uni04C1" unicode="&#x4c1;" horiz-adv-x="876" 
d="M59 -24l-73 43l306 365l-215 323h90l211 -328l-2 -16zM755 -24l-249 387l2 15l280 329h100l-294 -329l234 -359zM364 0l74 707h79l-73 -707h-80zM483 755q-109 0 -162 84l48 43q41 -58 121 -58q77 0 131 58l41 -43q-70 -84 -179 -84z" />
    <glyph glyph-name="uni04C2" unicode="&#x4c2;" horiz-adv-x="734" 
d="M62 -14l-79 25l240 285l-164 250h89l158 -261zM296 0l57 546h77l-58 -546h-76zM614 -14l-190 299l209 261h91l-212 -257l179 -278zM373 652q-28 0 -59 27t-55 68l60 40q47 -69 74 -69q64 0 150 70l29 -36q-48 -44 -102 -72t-97 -28z" />
    <glyph glyph-name="uni04C3" unicode="&#x4c3;" horiz-adv-x="620" 
d="M620 707l-313 -319q118 -16 178.5 -75t60.5 -146q0 -205 -246 -396l-42 51q94 77 149 162.5t55 169.5q0 79 -61.5 125.5t-186.5 51.5l7 63l296 313h103zM67 0l75 707h79l-74 -707h-80z" />
    <glyph glyph-name="uni04C4" unicode="&#x4c4;" horiz-adv-x="517" 
d="M475 546l-199 -237q40 6 56 6q126 0 126 -155q0 -66 -41.5 -143.5t-94 -135.5t-108.5 -102l-43 50q81 67 144 155t63 163q0 67 -20.5 89t-62.5 22q-55 0 -104 -14l-11 45l204 257h91zM47 0l57 546h77l-58 -546h-76z" />
    <glyph glyph-name="uni04C5" unicode="&#x4c5;" horiz-adv-x="695" 
d="M459 97l56 544h-215q-7 -37 -19.5 -102t-18.5 -96.5t-16.5 -81.5t-18 -78t-18 -62.5t-21 -59.5t-22.5 -45q-57 -92 -164 -138l-32 73q92 41 133 109q64 103 130 547h369l-61 -591q-3 -30 13 -41t46 -11h61l-113 -217h-85l84 152q-44 3 -68 28t-20 70z" />
    <glyph glyph-name="uni04C6" unicode="&#x4c6;" horiz-adv-x="458" 
d="M358 546l21 -546q-59 -29 -59 -70q0 -38 59 -38l-8 -67q-55 0 -89.5 24.5t-34.5 66.5q0 53 55 101l-11 459h-21l-147 -291q-44 -95 -44 -167v-18h-76q-1 3 -1 18q0 77 48 175l182 353h126z" />
    <glyph glyph-name="uni04C7" unicode="&#x4c7;" horiz-adv-x="737" 
d="M681 708l-59 -555q-6 -62 -18 -107.5t-36 -90.5t-66.5 -79.5t-104.5 -61.5l-29 58q91 47 127.5 110.5t47.5 169.5l19 170h-381l-34 -322h-80l75 707h79l-33 -320h380l33 321h80z" />
    <glyph glyph-name="uni04C8" unicode="&#x4c8;" horiz-adv-x="528" 
d="M415 -17q-11 -112 -62 -157.5t-134 -45.5q-41 0 -75 13l18 65q38 -11 66 -11q58 0 81 33.5t31 102.5l28 273l-221 -17l-25 -239h-76l59 546h76l-26 -237l221 18l24 219h76z" />
    <glyph glyph-name="uni04C9" unicode="&#x4c9;" horiz-adv-x="774" 
d="M681 708l-61 -592q-3 -30 13.5 -41t45.5 -11h61l-113 -217h-85l84 152q-44 3 -68 28t-20 70l24 225h-381l-34 -322h-80l75 707h79l-33 -320h380l33 321h80z" />
    <glyph glyph-name="uni04CA" unicode="&#x4ca;" horiz-adv-x="528" 
d="M344 24l24 232l-221 -17l-25 -239h-76l59 546h76l-26 -237l221 18l24 219h76l-59 -546q-59 -29 -59 -70q0 -38 59 -38l-8 -67q-55 0 -89 24.5t-34 66.5q0 57 58 108z" />
    <glyph glyph-name="uni04CB" unicode="&#x4cb;" horiz-adv-x="629" 
d="M327 66h61q39 0 43 41l22 217q-97 -42 -198 -42q-193 0 -193 157q0 11 2 35l24 233h79l-24 -238q-2 -14 -2 -19q0 -103 136 -103q91 0 183 48l33 312h80l-64 -611q-3 -36 -28.5 -66t-64.5 -30h-16l-16 -153h-80z" />
    <glyph glyph-name="uni04CC" unicode="&#x4cc;" horiz-adv-x="481" 
d="M160 -138l35 138h59l-19 -138h-75zM296 0l29 275q-101 -87 -184 -87q-54 0 -74.5 21.5t-20.5 72.5q0 16 6 74l19 190h77l-19 -178q-6 -44 -6 -66q0 -26 10 -35.5t37 -9.5q36 0 162 86l20 203h76l-57 -546h-75z" />
    <glyph glyph-name="uni04CD" unicode="&#x4cd;" horiz-adv-x="929" 
d="M703 98l22 512l-273 -610h-126l-49 612l-192 -612h-79l231 707h107l53 -661l296 661h106l-17 -591q-1 -30 15 -41t44 -11h61l-114 -217h-84l83 152q-85 6 -84 99z" />
    <glyph glyph-name="uni04CE" unicode="&#x4ce;" horiz-adv-x="749" 
d="M539 86l42 406l-225 -492h-98l-33 492l-99 -307q-30 -95 -30 -167v-18h-77q-1 3 -1 18q0 76 34 175l123 353h116l34 -470l214 470h124l-45 -435q-3 -30 10 -39t43 -9h35l-21 -200h-74l14 137q-38 0 -64 22.5t-22 63.5z" />
    <glyph glyph-name="uni04CF" unicode="&#x4cf;" horiz-adv-x="233" 
d="M46 0l79 754h77l-80 -754h-76z" />
    <glyph glyph-name="uni04D0" unicode="&#x4d0;" horiz-adv-x="636" 
d="M-34 0l352 707h118l148 -707h-82l-53 266h-270l-131 -266h-82zM210 330h225l-53 276l-11 60l-27 -61zM376 755q-109 0 -162 84l48 43q41 -58 121 -58q77 0 131 58l41 -43q-70 -84 -179 -84z" />
    <glyph glyph-name="uni04D1" unicode="&#x4d1;" horiz-adv-x="510" 
d="M142 -13q-55 0 -82.5 44.5t-27.5 118.5q0 68 22.5 138t62.5 129t103 96.5t137 37.5q53 0 99 -8l-56 -543h-76l11 99q-63 -57 -108.5 -84.5t-84.5 -27.5zM161 59q31 0 86.5 40t94.5 77l33 307q-8 2 -34 2q-70 0 -125 -54t-81 -127t-26 -146q0 -44 13 -71.5t39 -27.5z
M312 652q-28 0 -59 27t-55 68l60 40q47 -69 74 -69q64 0 150 70l29 -36q-48 -44 -102 -72t-97 -28z" />
    <glyph glyph-name="uni04D2" unicode="&#x4d2;" horiz-adv-x="636" 
d="M-34 0l352 707h118l148 -707h-82l-53 266h-270l-131 -266h-82zM210 330h225l-53 276l-11 60l-27 -61zM244 764l9 92h74l-9 -92h-74zM453 764l9 92h74l-9 -92h-74z" />
    <glyph glyph-name="uni04D3" unicode="&#x4d3;" horiz-adv-x="510" 
d="M142 -13q-55 0 -82.5 44.5t-27.5 118.5q0 68 22.5 138t62.5 129t103 96.5t137 37.5q53 0 99 -8l-56 -543h-76l11 99q-63 -57 -108.5 -84.5t-84.5 -27.5zM161 59q31 0 86.5 40t94.5 77l33 307q-8 2 -34 2q-70 0 -125 -54t-81 -127t-26 -146q0 -44 13 -71.5t39 -27.5z
M197 669l10 93h75l-10 -93h-75zM394 669l9 93h75l-10 -93h-74z" />
    <glyph glyph-name="uni04D4" unicode="&#x4d4;" horiz-adv-x="913" 
d="M-43 0l468 707h455l-6 -65h-314l-27 -254h293l-8 -66h-291l-28 -257h338l-7 -65h-416l35 322h-197l-206 -322h-89zM293 387h162l28 255h-26z" />
    <glyph glyph-name="uni04D5" unicode="&#x4d5;" horiz-adv-x="767" 
d="M144 -13q-55 0 -81.5 48.5t-26.5 129.5q0 166 92.5 276t230.5 110q49 0 93 -8l-7 -62q65 80 162 80q72 0 104 -34t32 -90q0 -94 -143 -146l-177 -66q0 -5 -0.5 -14t-0.5 -13q0 -142 65 -142q54 0 170 55l27 -57q-37 -21 -61 -32.5t-66 -22.5t-84 -11q-101 0 -120 125
q-128 -126 -209 -126zM163 59q31 0 86.5 41t92.5 76l33 307l-41 2q-89 3 -155 -91t-66 -209q0 -73 12.5 -99.5t37.5 -26.5zM431 292l157 62q81 34 81 80q0 32 -19 47t-46 15q-40 0 -71.5 -17.5t-51 -48t-31.5 -64.5t-19 -74z" />
    <glyph glyph-name="uni04D6" unicode="&#x4d6;" horiz-adv-x="567" 
d="M67 0l75 707h393l-7 -65h-314l-26 -254h291l-6 -66h-292l-27 -257h337l-7 -65h-417zM353 755q-109 0 -162 84l48 43q41 -58 121 -58q77 0 131 58l41 -43q-70 -84 -179 -84z" />
    <glyph glyph-name="uni04D7" unicode="&#x4d7;" horiz-adv-x="468" 
d="M173 -12q-129 0 -129 204q0 100 29 182.5t90 134.5t144 52q69 0 103 -35.5t34 -89.5q0 -94 -143 -146l-178 -66v-27q0 -141 63 -141q65 0 171 55l27 -57q-37 -21 -61.5 -32.5t-66 -22.5t-83.5 -11zM130 291l159 62q38 15 59.5 36t21.5 44q0 33 -19.5 48t-46.5 15
q-137 0 -174 -205zM298 652q-28 0 -59 27t-55 68l60 40q47 -69 74 -69q64 0 150 70l29 -36q-48 -44 -102 -72t-97 -28z" />
    <glyph glyph-name="uni04D8" unicode="&#x4d8;" horiz-adv-x="757" 
d="M332 -12q-142 0 -212.5 80t-70.5 220q0 20 8 100h571q5 118 -53 190t-176 72q-126 0 -261 -66l-19 59q140 74 295 74q146 0 220 -83t74 -222q0 -185 -99 -304.5t-277 -119.5zM342 54q125 0 192.5 73t86.5 197h-492q-1 -11 -1 -32q2 -108 52.5 -173t161.5 -65z" />
    <glyph glyph-name="uni04D9" unicode="&#x4d9;" horiz-adv-x="467" 
d="M288 560q129 0 129 -203q0 -156 -69.5 -263t-193.5 -107q-68 0 -102.5 35.5t-34.5 89.5q0 94 143 146l178 66q1 8 1 28q0 140 -64 140q-65 0 -171 -55l-27 57q38 21 62 32.5t65.5 22.5t83.5 11zM331 258l-159 -63q-81 -32 -81 -80q0 -32 19.5 -47.5t46.5 -15.5
q139 0 174 206z" />
    <glyph glyph-name="uni04DA" unicode="&#x4da;" horiz-adv-x="757" 
d="M260 764l9 92h74l-9 -92h-74zM469 764l9 92h74l-9 -92h-74zM332 -12q-142 0 -212.5 80t-70.5 220q0 20 8 100h571q5 118 -53 190t-176 72q-126 0 -261 -66l-19 59q140 74 295 74q146 0 220 -83t74 -222q0 -185 -99 -304.5t-277 -119.5zM342 54q125 0 192.5 73t86.5 197
h-492q-1 -11 -1 -32q2 -108 52.5 -173t161.5 -65z" />
    <glyph glyph-name="uni04DB" unicode="&#x4db;" horiz-adv-x="467" 
d="M137 669l10 93h75l-10 -93h-75zM334 669l9 93h75l-10 -93h-74zM288 560q129 0 129 -203q0 -156 -69.5 -263t-193.5 -107q-68 0 -102.5 35.5t-34.5 89.5q0 94 143 146l178 66q1 8 1 28q0 140 -64 140q-65 0 -171 -55l-27 57q38 21 62 32.5t65.5 22.5t83.5 11zM331 258
l-159 -63q-81 -32 -81 -80q0 -32 19.5 -47.5t46.5 -15.5q139 0 174 206z" />
    <glyph glyph-name="uni04DC" unicode="&#x4dc;" horiz-adv-x="876" 
d="M59 -24l-73 43l306 365l-215 323h90l211 -328l-2 -16zM755 -24l-249 387l2 15l280 329h100l-294 -329l234 -359zM364 0l74 707h79l-73 -707h-80zM341 764l9 92h74l-9 -92h-74zM550 764l9 92h74l-9 -92h-74z" />
    <glyph glyph-name="uni04DD" unicode="&#x4dd;" horiz-adv-x="734" 
d="M266 669l10 93h75l-10 -93h-75zM463 669l9 93h75l-10 -93h-74zM62 -14l-79 25l240 285l-164 250h89l158 -261zM296 0l57 546h77l-58 -546h-76zM614 -14l-190 299l209 261h91l-212 -257l179 -278z" />
    <glyph glyph-name="uni04DE" unicode="&#x4de;" horiz-adv-x="532" 
d="M200 -9q-114 0 -195 44l32 65q76 -39 167 -39q74 0 123.5 32.5t55.5 103.5q12 126 -168 126h-69l8 66h69q70 0 114.5 35t50.5 98q5 60 -28 92t-97 32q-59 0 -148 -32l-20 58q90 40 183 40q99 0 148.5 -48.5t43.5 -125.5q-3 -40 -18.5 -73t-37 -53.5t-38 -32t-32.5 -18.5
v-2q131 -37 121 -160q-7 -85 -72.5 -146.5t-192.5 -61.5zM147 764l9 92h74l-9 -92h-74zM356 764l9 92h74l-9 -92h-74z" />
    <glyph glyph-name="uni04DF" unicode="&#x4df;" horiz-adv-x="420" 
d="M93 669l10 93h75l-10 -93h-75zM290 669l9 93h75l-10 -93h-74zM150 -9q-84 0 -151 26l22 62q62 -22 119 -22q72 0 108 29t36 73q0 92 -149 95l-6 53q70 16 116.5 51t46.5 76q0 55 -101 55q-56 0 -108 -15l-17 59q57 23 138 23q76 0 120 -28.5t44 -82.5q0 -47 -34.5 -87
t-91.5 -64q115 -24 115 -132q0 -74 -56 -122.5t-151 -48.5z" />
    <glyph glyph-name="uni04E0" unicode="&#x4e0;" horiz-adv-x="529" 
d="M169 398l233 239h-316l7 70h406l-7 -65l-238 -240q90 -10 151 -60.5t61 -124.5q0 -71 -39.5 -124.5t-98.5 -79t-125 -25.5q-130 0 -193 46l30 65q29 -17 75 -30t86 -13q32 0 62 8t57.5 24.5t44.5 47.5t17 73q0 61 -58 96.5t-132 35.5q-3 0 -9.5 -0.5t-9.5 -0.5z" />
    <glyph glyph-name="uni04E1" unicode="&#x4e1;" horiz-adv-x="449" 
d="M93 181l6 62l232 234h-297l7 69h387l-7 -64l-244 -245q86 -11 144.5 -61t58.5 -124q0 -63 -34 -115t-89.5 -86t-121.5 -54t-136 -26l-7 64q81 9 146.5 32.5t112 68.5t46.5 105q0 63 -61.5 98.5t-142.5 41.5z" />
    <glyph glyph-name="uni04E2" unicode="&#x4e2;" horiz-adv-x="757" 
d="M289 766l7 64h282l-7 -64h-282zM67 0l75 707h79l-51 -489l-14 -106l71 105l393 490h79l-74 -707h-80l51 489l14 106l-48 -70l-415 -525h-80z" />
    <glyph glyph-name="uni04E3" unicode="&#x4e3;" horiz-adv-x="525" 
d="M165 670l7 64h261l-7 -64h-261zM159 -11q-56 0 -80 26t-24 86q0 22 3 48l43 397h76l-42 -378q-3 -32 -3 -53q0 -34 10.5 -47t36.5 -13q70 0 175 103l42 388h76l-58 -546h-76l9 90q-50 -50 -93 -75.5t-95 -25.5z" />
    <glyph glyph-name="uni04E4" unicode="&#x4e4;" horiz-adv-x="757" 
d="M297 764l9 92h74l-9 -92h-74zM506 764l9 92h74l-9 -92h-74zM67 0l75 707h79l-51 -489l-14 -106l71 105l393 490h79l-74 -707h-80l51 489l14 106l-48 -70l-415 -525h-80z" />
    <glyph glyph-name="uni04E5" unicode="&#x4e5;" horiz-adv-x="525" 
d="M168 669l10 93h75l-10 -93h-75zM365 669l9 93h75l-10 -93h-74zM159 -11q-56 0 -80 26t-24 86q0 22 3 48l43 397h76l-42 -378q-3 -32 -3 -53q0 -34 10.5 -47t36.5 -13q70 0 175 103l42 388h76l-58 -546h-76l9 90q-50 -50 -93 -75.5t-95 -25.5z" />
    <glyph glyph-name="uni04E6" unicode="&#x4e6;" horiz-adv-x="801" 
d="M313 764l9 92h74l-9 -92h-74zM522 764l9 92h74l-9 -92h-74zM359 -11q-143 0 -221 85.5t-78 232.5q0 184 104.5 297.5t285.5 113.5q143 0 222 -85.5t79 -232.5q0 -185 -105 -298t-287 -113zM369 55q143 0 221 97t78 245q0 116 -59 184.5t-171 68.5q-141 0 -219 -95.5
t-78 -242.5q0 -116 58 -186.5t170 -70.5z" />
    <glyph glyph-name="uni04E7" unicode="&#x4e7;" horiz-adv-x="515" 
d="M174 669l10 93h75l-10 -93h-75zM371 669l9 93h75l-10 -93h-74zM200 -12q-74 0 -117 55t-43 137q0 173 75 276.5t197 103.5q75 0 116 -55.5t41 -131.5q0 -69 -14.5 -134t-44.5 -123t-84 -93t-126 -35zM219 54q71 0 121.5 86.5t50.5 217.5q0 72 -24 105t-78 33
q-69 0 -119.5 -88t-50.5 -213q0 -141 100 -141z" />
    <glyph glyph-name="uni04E8" unicode="&#x4e8;" horiz-adv-x="801" 
d="M359 -11q-143 0 -221 85.5t-78 232.5q0 184 104.5 297.5t285.5 113.5q143 0 222 -85.5t79 -232.5q0 -185 -105 -298t-287 -113zM369 55q125 0 200.5 75t93.5 196h-522v-14q0 -116 58 -186.5t170 -70.5zM438 650q-122 0 -197 -72.5t-94 -191.5h521v11q0 116 -59 184.5
t-171 68.5z" />
    <glyph glyph-name="uni04E9" unicode="&#x4e9;" horiz-adv-x="515" 
d="M200 -12q-74 0 -117 55t-43 137q0 173 75 276.5t197 103.5q75 0 116 -55.5t41 -131.5q0 -69 -14.5 -134t-44.5 -123t-84 -93t-126 -35zM289 496q-53 0 -96.5 -53.5t-62.5 -139.5h258q3 51 3 55q0 72 -24 105t-78 33zM219 54q53 0 97 52t63 139h-258q-2 -32 -2 -50
q0 -141 100 -141z" />
    <glyph glyph-name="uni04EA" unicode="&#x4ea;" horiz-adv-x="801" 
d="M359 -11q-143 0 -221 85.5t-78 232.5q0 184 104.5 297.5t285.5 113.5q143 0 222 -85.5t79 -232.5q0 -185 -105 -298t-287 -113zM369 55q125 0 200.5 75t93.5 196h-522v-14q0 -116 58 -186.5t170 -70.5zM438 650q-122 0 -197 -72.5t-94 -191.5h521v11q0 116 -59 184.5
t-171 68.5zM524 764l9 92h74l-9 -92h-74zM315 764l9 92h74l-9 -92h-74z" />
    <glyph glyph-name="uni04EB" unicode="&#x4eb;" horiz-adv-x="515" 
d="M200 -12q-74 0 -117 55t-43 137q0 173 75 276.5t197 103.5q75 0 116 -55.5t41 -131.5q0 -69 -14.5 -134t-44.5 -123t-84 -93t-126 -35zM219 54q54 0 97.5 52.5t62.5 139.5h-258q-2 -34 -2 -51q0 -141 100 -141zM289 496q-52 0 -95.5 -53t-62.5 -138h257q3 25 3 53
q0 72 -24 105t-78 33zM173 669l10 93h75l-10 -93h-75zM370 669l9 93h75l-10 -93h-74z" />
    <glyph glyph-name="uni04EC" unicode="&#x4ec;" horiz-adv-x="655" 
d="M177 764l9 92h74l-9 -92h-74zM386 764l9 92h74l-9 -92h-74zM208 -10q-132 0 -193 33l26 62q77 -28 162 -28q122 0 208 66.5t106 199.5h-364l7 66h364q2 69 -17 120t-53.5 80.5t-78.5 43.5t-97 14q-96 0 -175 -31l-18 63q82 36 203 36q154 0 237 -79.5t83 -222.5
q0 -33 -4 -61q-17 -159 -123 -260.5t-273 -101.5z" />
    <glyph glyph-name="uni04ED" unicode="&#x4ed;" horiz-adv-x="435" 
d="M108 669l10 93h75l-10 -93h-75zM305 669l9 93h75l-10 -93h-74zM120 -12q-34 0 -68 13t-54 33l33 55q55 -36 104 -36q57 0 101.5 53.5t62.5 140.5h-170l5 61h174q2 15 2 49q0 72 -18 105t-67 33q-59 0 -133 -34l-23 51q81 48 169 48q79 0 115 -52.5t36 -132.5
q0 -73 -15.5 -139.5t-46.5 -123t-84.5 -90.5t-122.5 -34z" />
    <glyph glyph-name="uni04EE" unicode="&#x4ee;" horiz-adv-x="557" 
d="M193 766l7 64h282l-7 -64h-282zM122 -9l-24 71q53 17 87.5 43t64.5 83l18 32h-38l-189 487h88l167 -434l213 434h88l-275 -527q-49 -94 -89 -128.5t-111 -60.5z" />
    <glyph glyph-name="uni04EF" unicode="&#x4ef;" horiz-adv-x="476" 
d="M66 -220l107 220h-41l-85 546h82l70 -492l147 307q45 90 45 166q0 4 -0.5 10t-0.5 9h79q0 -2 0.5 -10t0.5 -9q0 -72 -48 -174l-277 -573h-79zM140 670l7 64h261l-7 -64h-261z" />
    </font>
</defs>
</svg>
