<?xml version="1.0" standalone="no"?>
<!DOCTYPE svg PUBLIC "-//W3C//DTD SVG 1.1//EN" "http://www.w3.org/Graphics/SVG/1.1/DTD/svg11.dtd" >
<svg xmlns="http://www.w3.org/2000/svg" xmlns:xlink="http://www.w3.org/1999/xlink" version="1.1">
<metadata>
Created by FontForge 20170731 at Wed Aug 18 02:37:06 2010
 By Aleksey,,,
Copyright (c) 2010 Typotheque.com All rights reserved.
</metadata>
<defs>
<font id="FedraSansArm-LightItalic" horiz-adv-x="521" >
  <font-face 
    font-family="Fedra Sans Arm"
    font-weight="300"
    font-style="italic"
    font-stretch="normal"
    units-per-em="1000"
    panose-1="0 0 0 0 0 0 0 0 0 0"
    ascent="780"
    descent="-220"
    x-height="546"
    cap-height="707"
    bbox="-312 -231 1263 975"
    underline-thickness="50"
    underline-position="-200"
    slope="-6"
    unicode-range="U+0020-FB17"
  />
<missing-glyph horiz-adv-x="712" 
d="M305 375v27h27v-27h-27zM380 525v27h27v-27h-27zM305 525v27h27v-27h-27zM230 525v27h27v-27h-27zM80 0v27h27v-27h-27zM155 0v27h27v-27h-27zM230 0v27h27v-27h-27zM305 0v27h27v-27h-27zM380 0v27h27v-27h-27zM80 75v27h27v-27h-27zM80 150v27h27v-27h-27zM80 225v27
h27v-27h-27zM80 300v27h27v-27h-27zM80 375v27h27v-27h-27zM80 450v27h27v-27h-27zM80 525v27h27v-27h-27zM80 600v27h27v-27h-27zM80 675v27h27v-27h-27zM155 675v27h27v-27h-27zM230 675v27h27v-27h-27zM305 675v27h27v-27h-27zM380 675v27h27v-27h-27zM455 675v27h27v-27
h-27zM530 675v27h27v-27h-27zM530 0v27h27v-27h-27zM455 0v27h27v-27h-27zM605 0v27h27v-27h-27zM605 675v27h27v-27h-27zM305 300v27h27v-27h-27zM305 150v27h27v-27h-27zM380 375v27h27v-27h-27zM455 375v27h27v-27h-27zM455 450v27h27v-27h-27zM455 525v27h27v-27h-27z
M605 600v27h27v-27h-27zM605 525v27h27v-27h-27zM605 375v27h27v-27h-27zM605 300v27h27v-27h-27zM605 150v27h27v-27h-27zM605 75v27h27v-27h-27zM605 225v27h27v-27h-27zM605 450v27h27v-27h-27z" />
    <glyph glyph-name=".notdef" unicode="&#x574;&#x56f;" horiz-adv-x="712" 
d="M305 375v27h27v-27h-27zM380 525v27h27v-27h-27zM305 525v27h27v-27h-27zM230 525v27h27v-27h-27zM80 0v27h27v-27h-27zM155 0v27h27v-27h-27zM230 0v27h27v-27h-27zM305 0v27h27v-27h-27zM380 0v27h27v-27h-27zM80 75v27h27v-27h-27zM80 150v27h27v-27h-27zM80 225v27
h27v-27h-27zM80 300v27h27v-27h-27zM80 375v27h27v-27h-27zM80 450v27h27v-27h-27zM80 525v27h27v-27h-27zM80 600v27h27v-27h-27zM80 675v27h27v-27h-27zM155 675v27h27v-27h-27zM230 675v27h27v-27h-27zM305 675v27h27v-27h-27zM380 675v27h27v-27h-27zM455 675v27h27v-27
h-27zM530 675v27h27v-27h-27zM530 0v27h27v-27h-27zM455 0v27h27v-27h-27zM605 0v27h27v-27h-27zM605 675v27h27v-27h-27zM305 300v27h27v-27h-27zM305 150v27h27v-27h-27zM380 375v27h27v-27h-27zM455 375v27h27v-27h-27zM455 450v27h27v-27h-27zM455 525v27h27v-27h-27z
M605 600v27h27v-27h-27zM605 525v27h27v-27h-27zM605 375v27h27v-27h-27zM605 300v27h27v-27h-27zM605 150v27h27v-27h-27zM605 75v27h27v-27h-27zM605 225v27h27v-27h-27zM605 450v27h27v-27h-27z" />
    <glyph glyph-name="fi" unicode="fi" horiz-adv-x="545" 
d="M56 -219l75 715h-80l6 50h80l3 28q12 111 62 155.5t131 44.5q15 0 71 -3.5t87 -3.5q11 0 26 2t18 2l8 -41q-32 -12 -92 -12q-27 0 -71 3t-54 3q-65 0 -94 -39t-37 -113l-3 -26h291l-58 -546h-56l52 496h-234l-75 -715h-56z" />
    <glyph glyph-name="fl" unicode="fl" horiz-adv-x="545" 
d="M56 -220l75 716h-80l6 50h80l3 28q12 111 62 155.5t131 44.5q18 0 70 -4t80 -4h11.5t11.5 1l-81 -767h-56l76 720q-22 -1 -66 1.5t-53 2.5q-65 0 -94 -39t-37 -113l-3 -26h117l-6 -50h-116l-75 -716h-56z" />
    <glyph glyph-name="men_now" unicode="&#x574;&#x576;" horiz-adv-x="1106" 
d="M161 -11q-53 0 -75.5 26.5t-22.5 82.5q0 22 3 47l40 377h56l-39 -355q-4 -35 -4 -64q0 -38 11.5 -52.5t40.5 -14.5q46 0 89 30t100 88l50 474q6 61 31 93.5t82 32.5q48 0 101 -25q-5 -33 11.5 -43.5t48.5 -10.5h78l-54 -508q-4 -35 -4 -64q0 -38 11.5 -52.5t40.5 -14.5
q33 0 68.5 19t59 40t61.5 60l39 367h56l-55 -522h-56l10 98q-54 -55 -96.5 -82t-96.5 -27q-53 0 -75.5 26.5t-22.5 82.5q0 22 3 47l50 482h-15q-63 0 -91 14.5t-25 58.5q-20 7 -43 7q-48 0 -58 -51l-68 -656h-57l10 97q-53 -54 -96 -81t-97 -27z" />
    <glyph glyph-name="men_ech" unicode="&#x574;&#x565;" horiz-adv-x="1095" 
d="M748 -11q-53 0 -75.5 26.5t-22.5 82.5q0 22 3 47l57 534q-83 27 -137 27q-59 0 -81 -19t-26 -62l-65 -625h-57l10 93q-99 -104 -193 -104q-53 0 -75.5 26.5t-22.5 82.5q0 22 3 47l40 377h56l-39 -355q-4 -35 -4 -64q0 -38 11.5 -52.5t40.5 -14.5q80 0 189 115l47 447
q3 34 9.5 56.5t22.5 48t49.5 38.5t84.5 13q42 0 105.5 -13.5t91.5 -26.5l-21 -192h292l-5 -48h-293l-33 -307q-4 -35 -4 -64q0 -38 11.5 -52.5t40.5 -14.5q33 0 68.5 19t59 40t61.5 60l13 125h56l-29 -280h-56l10 98q-54 -55 -96.5 -82t-96.5 -27z" />
    <glyph glyph-name="men_ini" unicode="&#x574;&#x56b;" horiz-adv-x="1103" 
d="M161 -11q-53 0 -75.5 26.5t-22.5 82.5q0 22 3 47l40 377h56l-39 -355q-4 -35 -4 -64q0 -38 11.5 -52.5t40.5 -14.5q80 0 189 115l47 447q3 34 9.5 56.5t22.5 48t49.5 38.5t84.5 13q42 0 105.5 -13.5t91.5 -26.5l-31 -290q4 3 19.5 16.5t20 17.5t18.5 15.5t19.5 15.5
t18.5 12.5t20.5 12t19.5 9t21.5 7.5t21.5 4t24 2q49 0 69 -25t20 -78q0 -31 -4 -63l-43 -370h-56l42 357q4 32 4 61q0 36 -11 51t-39 15q-32 0 -72.5 -25t-118.5 -91l-66 -588h-56l98 900q-80 26 -136 26q-59 0 -81 -19t-26 -62l-65 -625h-57l10 93q-99 -104 -193 -104z" />
    <glyph glyph-name="vew_now" unicode="&#x57e;&#x576;" horiz-adv-x="1105" 
d="M745 -11q-53 0 -75.5 26.5t-22.5 82.5q0 22 3 47l52 482h-237l-82 -795h125l-6 -52h-180l32 318q-54 -55 -96.5 -82t-96.5 -27q-53 0 -75.5 26.5t-22.5 82.5q0 22 3 47l40 377h56l-39 -355q-4 -35 -4 -64q0 -38 11.5 -52.5t40.5 -14.5q33 0 68.5 19t59 40t61.5 60l49 472
h-87q-58 0 -85 14t-27 54q0 22 7 49l52 11q-6 -23 -6 -37q0 -18 8.5 -28t19.5 -12.5t29 -2.5h94l9 81h56l-9 -81h293l-56 -508q-4 -35 -4 -64q0 -38 11.5 -52.5t40.5 -14.5q33 0 68.5 19t59 40t61.5 60l39 367h56l-55 -522h-56l10 98q-54 -55 -96.5 -82t-96.5 -27z" />
    <glyph glyph-name="men_xeh" unicode="&#x574;&#x56d;" horiz-adv-x="1329" 
d="M161 -11q-53 0 -75.5 26.5t-22.5 82.5q0 22 3 47l40 377h56l-39 -355q-4 -35 -4 -64q0 -38 11.5 -52.5t40.5 -14.5q80 0 189 115l47 447q3 34 9.5 56.5t22.5 48t49.5 38.5t84.5 13q42 0 105.5 -13.5t91.5 -26.5l-21 -192h221l-39 -355q-4 -35 -4 -64q0 -38 11.5 -52.5
t40.5 -14.5q33 0 68.5 19t59 40t61.5 60l39 367h56l-55 -522h-56l10 98q-54 -55 -96.5 -82t-96.5 -27q-53 0 -75.5 26.5t-22.5 82.5q0 22 3 47l35 329h-165l-73 -694h-55l95 899q-83 27 -138 27q-59 0 -81 -19t-26 -62l-65 -625h-57l10 93q-99 -104 -193 -104z" />
    <glyph glyph-name="Ayb_emph" unicode="&#x531;&#x55b;" horiz-adv-x="745" 
d="M338 -12q-50 0 -91 9.5t-77.5 31.5t-57 64t-20.5 101q0 11 2 39l50 474h61l-49 -467q-2 -26 -2 -36q0 -164 181 -164q92 0 151.5 50t72.5 175l46 442h56l-47 -445q-10 -94 -48 -158l136 -93l-34 -47l-136 97q-70 -73 -194 -73zM514 746l-23 30l144 153l44 -48z" />
    <glyph glyph-name="Ech_emph" unicode="&#x535;&#x55b;" horiz-adv-x="688" 
d="M338 -12q-50 0 -91 9.5t-77.5 31.5t-57 64t-20.5 101q0 11 2 39l50 474h61l-17 -161h439l-5 -52h-440l-26 -254q-2 -26 -2 -36q0 -164 181 -164q92 0 151.5 50t72.5 175l55 -4q-9 -79 -36 -135t-67.5 -85t-82.5 -41t-90 -12zM498 746l-23 30l144 153l44 -48z" />
    <glyph glyph-name="Eh_emph" unicode="&#x537;&#x55b;" horiz-adv-x="566" 
d="M532 494h-344l-46 -442h121q87 0 133.5 -28.5t55.5 -93.5l-53 -21q-6 49 -35 70t-80 21h-206l74 707h59l-17 -161h344zM407 746l-23 30l144 153l44 -48z" />
    <glyph glyph-name="Et_emph" unicode="&#x538;&#x55b;" horiz-adv-x="690" 
d="M392 719q50 0 91 -9.5t77.5 -31.5t57 -64t20.5 -101q0 -5 -2 -33q0 -21 -2 -35l-62 -4q2 14 2 32q2 24 2 30q0 164 -181 164q-92 0 -151.5 -50t-72.5 -175l-41 -390h462l-7 -52h-516l47 445q8 79 35.5 135.5t68 85.5t82.5 41t90 12zM515 746l-23 30l144 153l44 -48z" />
    <glyph glyph-name="Ini_emph" unicode="&#x53b;&#x55b;" horiz-adv-x="702" 
d="M211 707l-26 -243q44 46 105.5 71t120.5 25q44 0 83 -11t74.5 -35.5t56.5 -71.5t21 -112q0 -22 -3 -47l-12 -113h-59l12 109q3 26 3 47q0 181 -181 181q-73 0 -138.5 -35.5t-91.5 -94.5l-40 -377h-59l75 707h59zM540 746l-23 30l144 153l44 -48z" />
    <glyph glyph-name="Vo_emph" unicode="&#x548;&#x55b;" horiz-adv-x="722" 
d="M392 719q50 0 91 -9.5t77.5 -31.5t57 -64t20.5 -101q0 -11 -2 -39l-50 -474h-61l49 467q2 26 2 36q0 164 -181 164q-92 0 -151.5 -50t-72.5 -175l-46 -442h-56l47 445q8 79 35.5 135.5t68 85.5t82.5 41t90 12zM514 746l-23 30l144 153l44 -48z" />
    <glyph glyph-name="Yiwn_emph" unicode="&#x552;&#x55b;" horiz-adv-x="590" 
d="M152 707h61l-18 -169q52 19 118 19q50 0 81.5 -21t44 -56t17 -70t8 -72.5t11.5 -54.5q14 -32 36 -44.5t67 -12.5l-11 -53q-17 -3 -32 -3q-70 0 -108 72q-16 30 -23 81.5t-9.5 88t-25 64.5t-69.5 28q-62 0 -111 -17l-51 -487h-61zM404 746l-23 30l144 153l44 -48z" />
    <glyph glyph-name="Oh_emph" unicode="&#x555;&#x55b;" horiz-adv-x="808" 
d="M361 -11q-141 0 -216 87t-75 234q0 180 102.5 294t278.5 114q141 0 218 -87.5t77 -233.5q0 -181 -103.5 -294.5t-281.5 -113.5zM370 40q149 0 231 102t82 256q0 122 -62 194.5t-179 72.5q-146 0 -228.5 -100.5t-82.5 -252.5q0 -122 60.5 -197t178.5 -75zM634 746l-23 30
l144 153l44 -48z" />
    <glyph glyph-name="ayb_emph" unicode="&#x561;&#x55b;" horiz-adv-x="815" 
d="M161 -11q-53 0 -75.5 26.5t-22.5 82.5q0 22 3 47l40 377h56l-39 -355q-4 -35 -4 -64q0 -38 11.5 -52.5t40.5 -14.5q46 0 90 31t100 88l39 367h56l-39 -355q-4 -35 -4 -64q0 -38 11.5 -52.5t40.5 -14.5q33 0 68.5 19t59 40t61.5 60l39 367h56l-55 -522h-56l10 98
q-54 -55 -96.5 -82t-96.5 -27q-53 0 -75.5 26.5t-22.5 82.5v2q-51 -54 -96.5 -82.5t-99.5 -28.5zM620 746l-23 30l144 153l44 -48z" />
    <glyph glyph-name="ech_emph" unicode="&#x565;&#x55b;" horiz-adv-x="507" 
d="M448 474h-293l-33 -307q-4 -35 -4 -64q0 -38 11.5 -52.5t40.5 -14.5q33 0 68.5 19t59 40t61.5 60l13 125h56l-29 -280h-56l10 98q-54 -55 -96.5 -82t-96.5 -27q-53 0 -75.5 26.5t-22.5 82.5q0 22 3 47l65 610h56l-26 -233h293zM326 746l-23 30l144 153l44 -48z" />
    <glyph glyph-name="eh_emph" unicode="&#x567;&#x55b;" horiz-adv-x="399" 
d="M382 474h-223l-45 -426h113q35 0 56.5 -7.5t30.5 -22.5t11 -29t1 -34l-55 -16q3 31 -10.5 46t-60.5 15h-146l79 755h55l-24 -233h223zM260 746l-23 30l144 153l44 -48z" />
    <glyph glyph-name="et_emph" unicode="&#x568;&#x55b;" 
d="M30 -220l80 742h57l-10 -98q4 3 19.5 16.5t20 17.5t18.5 15.5t19.5 15.5t18.5 12.5t20.5 12t19.5 9t21.5 7.5t21.5 4t24 2q49 0 69 -25t20 -78q0 -31 -4 -63l-43 -370h-56l42 357q4 32 4 61q0 36 -11 51t-39 15q-32 0 -72.5 -25t-118.5 -91l-60 -538h292l-5 -50h-348z
M331 746l-23 30l144 153l44 -48z" />
    <glyph glyph-name="ini_emph" unicode="&#x56b;&#x55b;" 
d="M29 -220l106 975h57l-35 -331q4 3 19.5 16.5t20 17.5t18.5 15.5t19.5 15.5t18.5 12.5t20.5 12t19.5 9t21.5 7.5t21.5 4t24 2q49 0 69 -25t20 -78q0 -31 -4 -63l-43 -370h-56l42 357q4 32 4 61q0 36 -11 51t-39 15q-32 0 -72.5 -25t-118.5 -91l-66 -588h-56zM330 746
l-23 30l144 153l44 -48z" />
    <glyph glyph-name="vo_emph" unicode="&#x578;&#x55b;" horiz-adv-x="522" 
d="M54 0l57 522h57l-10 -98q4 3 19.5 16.5t20 17.5t18.5 15.5t19.5 15.5t18.5 12.5t20.5 12t19.5 9t21.5 7.5t21.5 4t24 2q49 0 69 -25t20 -78q0 -31 -4 -63l-43 -370h-56l42 357q4 32 4 61q0 36 -11 51t-39 15q-32 0 -72.5 -25t-118.5 -91l-42 -368h-56zM332 746l-23 30
l144 153l44 -48z" />
    <glyph glyph-name="yiwn_emph" unicode="&#x582;&#x55b;" horiz-adv-x="265" 
d="M54 0l57 522h57l-53 -472h132l-5 -50h-188zM167 746l-23 30l144 153l44 -48z" />
    <glyph glyph-name="oh_emph" unicode="&#x585;&#x55b;" horiz-adv-x="502" 
d="M191 -12q-66 0 -104 52.5t-38 127.5q0 169 71 269t183 100q66 0 102.5 -52.5t36.5 -120.5q0 -69 -14 -133t-42.5 -120t-78.5 -89.5t-116 -33.5zM209 38q73 0 124.5 88.5t51.5 217.5q0 73 -23.5 107.5t-79.5 34.5q-71 0 -122.5 -89t-51.5 -212q0 -28 3 -50t12.5 -46
t31 -37.5t54.5 -13.5zM334 746l-23 30l144 153l44 -48z" />
    <glyph glyph-name="men_ech_emph" unicode="&#xfb14;&#x55b;" horiz-adv-x="1095" 
d="M748 -11q-53 0 -75.5 26.5t-22.5 82.5q0 22 3 47l57 534q-83 27 -137 27q-59 0 -81 -19t-26 -62l-65 -625h-57l10 93q-99 -104 -193 -104q-53 0 -75.5 26.5t-22.5 82.5q0 22 3 47l40 377h56l-39 -355q-4 -35 -4 -64q0 -38 11.5 -52.5t40.5 -14.5q80 0 189 115l47 447
q3 34 9.5 56.5t22.5 48t49.5 38.5t84.5 13q42 0 105.5 -13.5t91.5 -26.5l-21 -192h292l-5 -48h-293l-33 -307q-4 -35 -4 -64q0 -38 11.5 -52.5t40.5 -14.5q33 0 68.5 19t59 40t61.5 60l13 125h56l-29 -280h-56l10 98q-54 -55 -96.5 -82t-96.5 -27zM913 746l-23 30l144 153
l44 -48z" />
    <glyph glyph-name="men_ini_emph" unicode="&#xfb15;&#x55b;" horiz-adv-x="1103" 
d="M161 -11q-53 0 -75.5 26.5t-22.5 82.5q0 22 3 47l40 377h56l-39 -355q-4 -35 -4 -64q0 -38 11.5 -52.5t40.5 -14.5q80 0 189 115l47 447q3 34 9.5 56.5t22.5 48t49.5 38.5t84.5 13q42 0 105.5 -13.5t91.5 -26.5l-31 -290q4 3 19.5 16.5t20 17.5t18.5 15.5t19.5 15.5
t18.5 12.5t20.5 12t19.5 9t21.5 7.5t21.5 4t24 2q49 0 69 -25t20 -78q0 -31 -4 -63l-43 -370h-56l42 357q4 32 4 61q0 36 -11 51t-39 15q-32 0 -72.5 -25t-118.5 -91l-66 -588h-56l98 900q-80 26 -136 26q-59 0 -81 -19t-26 -62l-65 -625h-57l10 93q-99 -104 -193 -104z
M912 746l-23 30l144 153l44 -48z" />
    <glyph glyph-name="Ayb_exclam" unicode="&#x531;&#x55c;" horiz-adv-x="745" 
d="M338 -12q-50 0 -91 9.5t-77.5 31.5t-57 64t-20.5 101q0 11 2 39l50 474h61l-49 -467q-2 -26 -2 -36q0 -164 181 -164q92 0 151.5 50t72.5 175l46 442h56l-47 -445q-10 -94 -48 -158l136 -93l-34 -47l-136 97q-70 -73 -194 -73zM569 839q-2 -4 -38 -1t-44 3q-27 0 -44 -8
q-10 -2 -20 -8.5t-24 -20t-19 -17.5l-25 33q8 12 32 31t50 31q15 7 34 7q11 0 33.5 -3t32.5 -3q17 0 28 5q27 15 51 46l26 -31q-11 -38 -73 -64z" />
    <glyph glyph-name="Ech_exclam" unicode="&#x535;&#x55c;" horiz-adv-x="688" 
d="M338 -12q-50 0 -91 9.5t-77.5 31.5t-57 64t-20.5 101q0 11 2 39l50 474h61l-17 -161h439l-5 -52h-440l-26 -254q-2 -26 -2 -36q0 -164 181 -164q92 0 151.5 50t72.5 175l55 -4q-9 -79 -36 -135t-67.5 -85t-82.5 -41t-90 -12zM555 839q-2 -4 -38 -1t-44 3q-27 0 -44 -8
q-10 -2 -20 -8.5t-24 -20t-19 -17.5l-25 33q8 12 32 31t50 31q15 7 34 7q11 0 33.5 -3t32.5 -3q17 0 28 5q27 15 51 46l26 -31q-11 -38 -73 -64z" />
    <glyph glyph-name="Eh_exclam" unicode="&#x537;&#x55c;" horiz-adv-x="566" 
d="M532 494h-344l-46 -442h121q87 0 133.5 -28.5t55.5 -93.5l-53 -21q-6 49 -35 70t-80 21h-206l74 707h59l-17 -161h344zM465 839q-2 -4 -38 -1t-44 3q-27 0 -44 -8q-10 -2 -20 -8.5t-24 -20t-19 -17.5l-25 33q8 12 32 31t50 31q15 7 34 7q11 0 33.5 -3t32.5 -3q17 0 28 5
q27 15 51 46l26 -31q-11 -38 -73 -64z" />
    <glyph glyph-name="Et_exclam" unicode="&#x538;&#x55c;" horiz-adv-x="690" 
d="M392 719q50 0 91 -9.5t77.5 -31.5t57 -64t20.5 -101q0 -5 -2 -33q0 -21 -2 -35l-62 -4q2 14 2 32q2 24 2 30q0 164 -181 164q-92 0 -151.5 -50t-72.5 -175l-41 -390h462l-7 -52h-516l47 445q8 79 35.5 135.5t68 85.5t82.5 41t90 12zM572 839q-2 -4 -38 -1t-44 3
q-27 0 -44 -8q-10 -2 -20 -8.5t-24 -20t-19 -17.5l-25 33q8 12 32 31t50 31q15 7 34 7q11 0 33.5 -3t32.5 -3q17 0 28 5q27 15 51 46l26 -31q-11 -38 -73 -64z" />
    <glyph glyph-name="Ini_exclam" unicode="&#x53b;&#x55c;" horiz-adv-x="702" 
d="M211 707l-26 -243q44 46 105.5 71t120.5 25q44 0 83 -11t74.5 -35.5t56.5 -71.5t21 -112q0 -22 -3 -47l-12 -113h-59l12 109q3 26 3 47q0 181 -181 181q-73 0 -138.5 -35.5t-91.5 -94.5l-40 -377h-59l75 707h59zM597 839q-2 -4 -38 -1t-44 3q-27 0 -44 -8
q-10 -2 -20 -8.5t-24 -20t-19 -17.5l-25 33q8 12 32 31t50 31q15 7 34 7q11 0 33.5 -3t32.5 -3q17 0 28 5q27 15 51 46l26 -31q-11 -38 -73 -64z" />
    <glyph glyph-name="Vo_exclam" unicode="&#x548;&#x55c;" horiz-adv-x="722" 
d="M392 719q50 0 91 -9.5t77.5 -31.5t57 -64t20.5 -101q0 -11 -2 -39l-50 -474h-61l49 467q2 26 2 36q0 164 -181 164q-92 0 -151.5 -50t-72.5 -175l-46 -442h-56l47 445q8 79 35.5 135.5t68 85.5t82.5 41t90 12zM569 839q-2 -4 -38 -1t-44 3q-27 0 -44 -8q-10 -2 -20 -8.5
t-24 -20t-19 -17.5l-25 33q8 12 32 31t50 31q15 7 34 7q11 0 33.5 -3t32.5 -3q17 0 28 5q27 15 51 46l26 -31q-11 -38 -73 -64z" />
    <glyph glyph-name="Yiwn_exclam" unicode="&#x552;&#x55c;" horiz-adv-x="590" 
d="M152 707h61l-18 -169q52 19 118 19q50 0 81.5 -21t44 -56t17 -70t8 -72.5t11.5 -54.5q14 -32 36 -44.5t67 -12.5l-11 -53q-17 -3 -32 -3q-70 0 -108 72q-16 30 -23 81.5t-9.5 88t-25 64.5t-69.5 28q-62 0 -111 -17l-51 -487h-61zM564 839q-2 -4 -38 -1t-44 3
q-27 0 -44 -8q-10 -2 -20 -8.5t-24 -20t-19 -17.5l-25 33q8 12 32 31t50 31q15 7 34 7q11 0 33.5 -3t32.5 -3q17 0 28 5q27 15 51 46l26 -31q-11 -38 -73 -64z" />
    <glyph glyph-name="Oh_exclam" unicode="&#x555;&#x55c;" horiz-adv-x="808" 
d="M361 -11q-141 0 -216 87t-75 234q0 180 102.5 294t278.5 114q141 0 218 -87.5t77 -233.5q0 -181 -103.5 -294.5t-281.5 -113.5zM370 40q149 0 231 102t82 256q0 122 -62 194.5t-179 72.5q-146 0 -228.5 -100.5t-82.5 -252.5q0 -122 60.5 -197t178.5 -75zM691 839
q-2 -4 -38 -1t-44 3q-27 0 -44 -8q-10 -2 -20 -8.5t-24 -20t-19 -17.5l-25 33q8 12 32 31t50 31q15 7 34 7q11 0 33.5 -3t32.5 -3q17 0 28 5q27 15 51 46l26 -31q-11 -38 -73 -64z" />
    <glyph glyph-name="ayb_exclam" unicode="&#x561;&#x55c;" horiz-adv-x="815" 
d="M161 -11q-53 0 -75.5 26.5t-22.5 82.5q0 22 3 47l40 377h56l-39 -355q-4 -35 -4 -64q0 -38 11.5 -52.5t40.5 -14.5q46 0 90 31t100 88l39 367h56l-39 -355q-4 -35 -4 -64q0 -38 11.5 -52.5t40.5 -14.5q33 0 68.5 19t59 40t61.5 60l39 367h56l-55 -522h-56l10 98
q-54 -55 -96.5 -82t-96.5 -27q-53 0 -75.5 26.5t-22.5 82.5v2q-51 -54 -96.5 -82.5t-99.5 -28.5zM679 839q-2 -4 -38 -1t-44 3q-27 0 -44 -8q-10 -2 -20 -8.5t-24 -20t-19 -17.5l-25 33q8 12 32 31t50 31q15 7 34 7q11 0 33.5 -3t32.5 -3q17 0 28 5q27 15 51 46l26 -31
q-11 -38 -73 -64z" />
    <glyph glyph-name="ech_exclam" unicode="&#x565;&#x55c;" horiz-adv-x="507" 
d="M448 474h-293l-33 -307q-4 -35 -4 -64q0 -38 11.5 -52.5t40.5 -14.5q33 0 68.5 19t59 40t61.5 60l13 125h56l-29 -280h-56l10 98q-54 -55 -96.5 -82t-96.5 -27q-53 0 -75.5 26.5t-22.5 82.5q0 22 3 47l65 610h56l-26 -233h293zM419 839q-2 -4 -38 -1t-44 3q-27 0 -44 -8
q-10 -2 -20 -8.5t-24 -20t-19 -17.5l-25 33q8 12 32 31t50 31q15 7 34 7q11 0 33.5 -3t32.5 -3q17 0 28 5q27 15 51 46l26 -31q-11 -38 -73 -64z" />
    <glyph glyph-name="eh_exclam" unicode="&#x567;&#x55c;" horiz-adv-x="399" 
d="M382 474h-223l-45 -426h113q35 0 56.5 -7.5t30.5 -22.5t11 -29t1 -34l-55 -16q3 31 -10.5 46t-60.5 15h-146l79 755h55l-24 -233h223zM423 839q-2 -4 -38 -1t-44 3q-27 0 -44 -8q-10 -2 -20 -8.5t-24 -20t-19 -17.5l-25 33q8 12 32 31t50 31q15 7 34 7q11 0 33.5 -3
t32.5 -3q17 0 28 5q27 15 51 46l26 -31q-11 -38 -73 -64z" />
    <glyph glyph-name="et_exclam" unicode="&#x568;&#x55c;" 
d="M30 -220l80 742h57l-10 -98q4 3 19.5 16.5t20 17.5t18.5 15.5t19.5 15.5t18.5 12.5t20.5 12t19.5 9t21.5 7.5t21.5 4t24 2q49 0 69 -25t20 -78q0 -31 -4 -63l-43 -370h-56l42 357q4 32 4 61q0 36 -11 51t-39 15q-32 0 -72.5 -25t-118.5 -91l-60 -538h292l-5 -50h-348z
M425 839q-2 -4 -38 -1t-44 3q-27 0 -44 -8q-10 -2 -20 -8.5t-24 -20t-19 -17.5l-25 33q8 12 32 31t50 31q15 7 34 7q11 0 33.5 -3t32.5 -3q17 0 28 5q27 15 51 46l26 -31q-11 -38 -73 -64z" />
    <glyph glyph-name="ini_exclam" unicode="&#x56b;&#x55c;" 
d="M29 -220l106 975h57l-35 -331q4 3 19.5 16.5t20 17.5t18.5 15.5t19.5 15.5t18.5 12.5t20.5 12t19.5 9t21.5 7.5t21.5 4t24 2q49 0 69 -25t20 -78q0 -31 -4 -63l-43 -370h-56l42 357q4 32 4 61q0 36 -11 51t-39 15q-32 0 -72.5 -25t-118.5 -91l-66 -588h-56zM425 839
q-2 -4 -38 -1t-44 3q-27 0 -44 -8q-10 -2 -20 -8.5t-24 -20t-19 -17.5l-25 33q8 12 32 31t50 31q15 7 34 7q11 0 33.5 -3t32.5 -3q17 0 28 5q27 15 51 46l26 -31q-11 -38 -73 -64z" />
    <glyph glyph-name="vo_exclam" unicode="&#x578;&#x55c;" horiz-adv-x="522" 
d="M54 0l57 522h57l-10 -98q4 3 19.5 16.5t20 17.5t18.5 15.5t19.5 15.5t18.5 12.5t20.5 12t19.5 9t21.5 7.5t21.5 4t24 2q49 0 69 -25t20 -78q0 -31 -4 -63l-43 -370h-56l42 357q4 32 4 61q0 36 -11 51t-39 15q-32 0 -72.5 -25t-118.5 -91l-42 -368h-56zM427 839
q-2 -4 -38 -1t-44 3q-27 0 -44 -8q-10 -2 -20 -8.5t-24 -20t-19 -17.5l-25 33q8 12 32 31t50 31q15 7 34 7q11 0 33.5 -3t32.5 -3q17 0 28 5q27 15 51 46l26 -31q-11 -38 -73 -64z" />
    <glyph glyph-name="yiwn_exclam" unicode="&#x582;&#x55c;" horiz-adv-x="265" 
d="M54 0l57 522h57l-53 -472h132l-5 -50h-188zM309 839q-2 -4 -38 -1t-44 3q-27 0 -44 -8q-10 -2 -20 -8.5t-24 -20t-19 -17.5l-25 33q8 12 32 31t50 31q15 7 34 7q11 0 33.5 -3t32.5 -3q17 0 28 5q27 15 51 46l26 -31q-11 -38 -73 -64z" />
    <glyph glyph-name="oh_exclam" unicode="&#x585;&#x55c;" horiz-adv-x="502" 
d="M191 -12q-66 0 -104 52.5t-38 127.5q0 169 71 269t183 100q66 0 102.5 -52.5t36.5 -120.5q0 -69 -14 -133t-42.5 -120t-78.5 -89.5t-116 -33.5zM209 38q73 0 124.5 88.5t51.5 217.5q0 73 -23.5 107.5t-79.5 34.5q-71 0 -122.5 -89t-51.5 -212q0 -28 3 -50t12.5 -46
t31 -37.5t54.5 -13.5zM397 839q-2 -4 -38 -1t-44 3q-27 0 -44 -8q-10 -2 -20 -8.5t-24 -20t-19 -17.5l-25 33q8 12 32 31t50 31q15 7 34 7q11 0 33.5 -3t32.5 -3q17 0 28 5q27 15 51 46l26 -31q-11 -38 -73 -64z" />
    <glyph glyph-name="men_ech_exclam" unicode="&#xfb14;&#x55c;" horiz-adv-x="1095" 
d="M748 -11q-53 0 -75.5 26.5t-22.5 82.5q0 22 3 47l57 534q-83 27 -137 27q-59 0 -81 -19t-26 -62l-65 -625h-57l10 93q-99 -104 -193 -104q-53 0 -75.5 26.5t-22.5 82.5q0 22 3 47l40 377h56l-39 -355q-4 -35 -4 -64q0 -38 11.5 -52.5t40.5 -14.5q80 0 189 115l47 447
q3 34 9.5 56.5t22.5 48t49.5 38.5t84.5 13q42 0 105.5 -13.5t91.5 -26.5l-21 -192h292l-5 -48h-293l-33 -307q-4 -35 -4 -64q0 -38 11.5 -52.5t40.5 -14.5q33 0 68.5 19t59 40t61.5 60l13 125h56l-29 -280h-56l10 98q-54 -55 -96.5 -82t-96.5 -27zM1009 839q-2 -4 -38 -1
t-44 3q-27 0 -44 -8q-10 -2 -20 -8.5t-24 -20t-19 -17.5l-25 33q8 12 32 31t50 31q15 7 34 7q11 0 33.5 -3t32.5 -3q17 0 28 5q27 15 51 46l26 -31q-11 -38 -73 -64z" />
    <glyph glyph-name="men_ini_exclam" unicode="&#xfb15;&#x55c;" horiz-adv-x="1103" 
d="M161 -11q-53 0 -75.5 26.5t-22.5 82.5q0 22 3 47l40 377h56l-39 -355q-4 -35 -4 -64q0 -38 11.5 -52.5t40.5 -14.5q80 0 189 115l47 447q3 34 9.5 56.5t22.5 48t49.5 38.5t84.5 13q42 0 105.5 -13.5t91.5 -26.5l-31 -290q4 3 19.5 16.5t20 17.5t18.5 15.5t19.5 15.5
t18.5 12.5t20.5 12t19.5 9t21.5 7.5t21.5 4t24 2q49 0 69 -25t20 -78q0 -31 -4 -63l-43 -370h-56l42 357q4 32 4 61q0 36 -11 51t-39 15q-32 0 -72.5 -25t-118.5 -91l-66 -588h-56l98 900q-80 26 -136 26q-59 0 -81 -19t-26 -62l-65 -625h-57l10 93q-99 -104 -193 -104z
M1008 839q-2 -4 -38 -1t-44 3q-27 0 -44 -8q-10 -2 -20 -8.5t-24 -20t-19 -17.5l-25 33q8 12 32 31t50 31q15 7 34 7q11 0 33.5 -3t32.5 -3q17 0 28 5q27 15 51 46l26 -31q-11 -38 -73 -64z" />
    <glyph glyph-name="Ayb_question" unicode="&#x531;&#x55e;" horiz-adv-x="745" 
d="M338 -12q-50 0 -91 9.5t-77.5 31.5t-57 64t-20.5 101q0 11 2 39l50 474h61l-49 -467q-2 -26 -2 -36q0 -164 181 -164q92 0 151.5 50t72.5 175l46 442h56l-47 -445q-10 -94 -48 -158l136 -93l-34 -47l-136 97q-70 -73 -194 -73zM560 927q-28 0 -49 -11t-38.5 -37.5
t-27 -46t-26.5 -61.5q-5 -11 -7 -17l-47 11q46 117 86.5 163.5t110.5 46.5q53 0 84 -31t31 -82q0 -54 -41.5 -79.5t-97.5 -25.5l-4 41q95 0 95 63q0 30 -19.5 48t-49.5 18z" />
    <glyph glyph-name="Ech_question" unicode="&#x535;&#x55e;" horiz-adv-x="688" 
d="M338 -12q-50 0 -91 9.5t-77.5 31.5t-57 64t-20.5 101q0 11 2 39l50 474h61l-17 -161h439l-5 -52h-440l-26 -254q-2 -26 -2 -36q0 -164 181 -164q92 0 151.5 50t72.5 175l55 -4q-9 -79 -36 -135t-67.5 -85t-82.5 -41t-90 -12zM542 927q-28 0 -49 -11t-38.5 -37.5t-27 -46
t-26.5 -61.5q-5 -11 -7 -17l-47 11q46 117 86.5 163.5t110.5 46.5q53 0 84 -31t31 -82q0 -54 -41.5 -79.5t-97.5 -25.5l-4 41q95 0 95 63q0 30 -19.5 48t-49.5 18z" />
    <glyph glyph-name="Eh_question" unicode="&#x537;&#x55e;" horiz-adv-x="566" 
d="M532 494h-344l-46 -442h121q87 0 133.5 -28.5t55.5 -93.5l-53 -21q-6 49 -35 70t-80 21h-206l74 707h59l-17 -161h344zM452 927q-28 0 -49 -11t-38.5 -37.5t-27 -46t-26.5 -61.5q-5 -11 -7 -17l-47 11q46 117 86.5 163.5t110.5 46.5q53 0 84 -31t31 -82
q0 -54 -41.5 -79.5t-97.5 -25.5l-4 41q95 0 95 63q0 30 -19.5 48t-49.5 18z" />
    <glyph glyph-name="Et_question" unicode="&#x538;&#x55e;" horiz-adv-x="690" 
d="M392 719q50 0 91 -9.5t77.5 -31.5t57 -64t20.5 -101q0 -5 -2 -33q0 -21 -2 -35l-62 -4q2 14 2 32q2 24 2 30q0 164 -181 164q-92 0 -151.5 -50t-72.5 -175l-41 -390h462l-7 -52h-516l47 445q8 79 35.5 135.5t68 85.5t82.5 41t90 12zM560 927q-28 0 -49 -11t-38.5 -37.5
t-27 -46t-26.5 -61.5q-5 -11 -7 -17l-47 11q46 117 86.5 163.5t110.5 46.5q53 0 84 -31t31 -82q0 -54 -41.5 -79.5t-97.5 -25.5l-4 41q95 0 95 63q0 30 -19.5 48t-49.5 18z" />
    <glyph glyph-name="Ini_question" unicode="&#x53b;&#x55e;" horiz-adv-x="702" 
d="M211 707l-26 -243q44 46 105.5 71t120.5 25q44 0 83 -11t74.5 -35.5t56.5 -71.5t21 -112q0 -22 -3 -47l-12 -113h-59l12 109q3 26 3 47q0 181 -181 181q-73 0 -138.5 -35.5t-91.5 -94.5l-40 -377h-59l75 707h59zM585 927q-28 0 -49 -11t-38.5 -37.5t-27 -46t-26.5 -61.5
q-5 -11 -7 -17l-47 11q46 117 86.5 163.5t110.5 46.5q53 0 84 -31t31 -82q0 -54 -41.5 -79.5t-97.5 -25.5l-4 41q95 0 95 63q0 30 -19.5 48t-49.5 18z" />
    <glyph glyph-name="Vo_question" unicode="&#x548;&#x55e;" horiz-adv-x="722" 
d="M392 719q50 0 91 -9.5t77.5 -31.5t57 -64t20.5 -101q0 -11 -2 -39l-50 -474h-61l49 467q2 26 2 36q0 164 -181 164q-92 0 -151.5 -50t-72.5 -175l-46 -442h-56l47 445q8 79 35.5 135.5t68 85.5t82.5 41t90 12zM558 927q-28 0 -49 -11t-38.5 -37.5t-27 -46t-26.5 -61.5
q-5 -11 -7 -17l-47 11q46 117 86.5 163.5t110.5 46.5q53 0 84 -31t31 -82q0 -54 -41.5 -79.5t-97.5 -25.5l-4 41q95 0 95 63q0 30 -19.5 48t-49.5 18z" />
    <glyph glyph-name="Yiwn_question" unicode="&#x552;&#x55e;" horiz-adv-x="590" 
d="M152 707h61l-18 -169q52 19 118 19q50 0 81.5 -21t44 -56t17 -70t8 -72.5t11.5 -54.5q14 -32 36 -44.5t67 -12.5l-11 -53q-17 -3 -32 -3q-70 0 -108 72q-16 30 -23 81.5t-9.5 88t-25 64.5t-69.5 28q-62 0 -111 -17l-51 -487h-61zM531 927q-28 0 -49 -11t-38.5 -37.5
t-27 -46t-26.5 -61.5q-5 -11 -7 -17l-47 11q46 117 86.5 163.5t110.5 46.5q53 0 84 -31t31 -82q0 -54 -41.5 -79.5t-97.5 -25.5l-4 41q95 0 95 63q0 30 -19.5 48t-49.5 18z" />
    <glyph glyph-name="Oh_question" unicode="&#x555;&#x55e;" horiz-adv-x="808" 
d="M361 -11q-141 0 -216 87t-75 234q0 180 102.5 294t278.5 114q141 0 218 -87.5t77 -233.5q0 -181 -103.5 -294.5t-281.5 -113.5zM370 40q149 0 231 102t82 256q0 122 -62 194.5t-179 72.5q-146 0 -228.5 -100.5t-82.5 -252.5q0 -122 60.5 -197t178.5 -75zM680 927
q-28 0 -49 -11t-38.5 -37.5t-27 -46t-26.5 -61.5q-5 -11 -7 -17l-47 11q46 117 86.5 163.5t110.5 46.5q53 0 84 -31t31 -82q0 -54 -41.5 -79.5t-97.5 -25.5l-4 41q95 0 95 63q0 30 -19.5 48t-49.5 18z" />
    <glyph glyph-name="ayb_question" unicode="&#x561;&#x55e;" horiz-adv-x="815" 
d="M161 -11q-53 0 -75.5 26.5t-22.5 82.5q0 22 3 47l40 377h56l-39 -355q-4 -35 -4 -64q0 -38 11.5 -52.5t40.5 -14.5q46 0 90 31t100 88l39 367h56l-39 -355q-4 -35 -4 -64q0 -38 11.5 -52.5t40.5 -14.5q33 0 68.5 19t59 40t61.5 60l39 367h56l-55 -522h-56l10 98
q-54 -55 -96.5 -82t-96.5 -27q-53 0 -75.5 26.5t-22.5 82.5v2q-51 -54 -96.5 -82.5t-99.5 -28.5zM667 927q-28 0 -49 -11t-38.5 -37.5t-27 -46t-26.5 -61.5q-5 -11 -7 -17l-47 11q46 117 86.5 163.5t110.5 46.5q53 0 84 -31t31 -82q0 -54 -41.5 -79.5t-97.5 -25.5l-4 41
q95 0 95 63q0 30 -19.5 48t-49.5 18z" />
    <glyph glyph-name="ech_question" unicode="&#x565;&#x55e;" horiz-adv-x="507" 
d="M448 474h-293l-33 -307q-4 -35 -4 -64q0 -38 11.5 -52.5t40.5 -14.5q33 0 68.5 19t59 40t61.5 60l13 125h56l-29 -280h-56l10 98q-54 -55 -96.5 -82t-96.5 -27q-53 0 -75.5 26.5t-22.5 82.5q0 22 3 47l65 610h56l-26 -233h293zM423 927q-28 0 -49 -11t-38.5 -37.5
t-27 -46t-26.5 -61.5q-5 -11 -7 -17l-47 11q46 117 86.5 163.5t110.5 46.5q53 0 84 -31t31 -82q0 -54 -41.5 -79.5t-97.5 -25.5l-4 41q95 0 95 63q0 30 -19.5 48t-49.5 18z" />
    <glyph glyph-name="eh_question" unicode="&#x567;&#x55e;" horiz-adv-x="399" 
d="M382 474h-223l-45 -426h113q35 0 56.5 -7.5t30.5 -22.5t11 -29t1 -34l-55 -16q3 31 -10.5 46t-60.5 15h-146l79 755h55l-24 -233h223zM429 927q-28 0 -49 -11t-38.5 -37.5t-27 -46t-26.5 -61.5q-5 -11 -7 -17l-47 11q46 117 86.5 163.5t110.5 46.5q53 0 84 -31t31 -82
q0 -54 -41.5 -79.5t-97.5 -25.5l-4 41q95 0 95 63q0 30 -19.5 48t-49.5 18z" />
    <glyph glyph-name="et_question" unicode="&#x568;&#x55e;" 
d="M30 -220l80 742h57l-10 -98q4 3 19.5 16.5t20 17.5t18.5 15.5t19.5 15.5t18.5 12.5t20.5 12t19.5 9t21.5 7.5t21.5 4t24 2q49 0 69 -25t20 -78q0 -31 -4 -63l-43 -370h-56l42 357q4 32 4 61q0 36 -11 51t-39 15q-32 0 -72.5 -25t-118.5 -91l-60 -538h292l-5 -50h-348z
M379 927q-28 0 -49 -11t-38.5 -37.5t-27 -46t-26.5 -61.5q-2 -5 -3.5 -9t-3.5 -8l-47 11q46 117 86.5 163.5t110.5 46.5q53 0 84 -31t31 -82q0 -54 -41.5 -79.5t-97.5 -25.5l-4 41q95 0 95 63q0 30 -19.5 48t-49.5 18z" />
    <glyph glyph-name="ini_question" unicode="&#x56b;&#x55e;" 
d="M29 -220l106 975h57l-35 -331q4 3 19.5 16.5t20 17.5t18.5 15.5t19.5 15.5t18.5 12.5t20.5 12t19.5 9t21.5 7.5t21.5 4t24 2q49 0 69 -25t20 -78q0 -31 -4 -63l-43 -370h-56l42 357q4 32 4 61q0 36 -11 51t-39 15q-32 0 -72.5 -25t-118.5 -91l-66 -588h-56zM470 927
q-28 0 -49 -11t-38.5 -37.5t-27 -46t-26.5 -61.5q-5 -11 -7 -17l-47 11q46 117 86.5 163.5t110.5 46.5q53 0 84 -31t31 -82q0 -54 -41.5 -79.5t-97.5 -25.5l-4 41q95 0 95 63q0 30 -19.5 48t-49.5 18z" />
    <glyph glyph-name="vo_question" unicode="&#x578;&#x55e;" horiz-adv-x="522" 
d="M54 0l57 522h57l-10 -98q4 3 19.5 16.5t20 17.5t18.5 15.5t19.5 15.5t18.5 12.5t20.5 12t19.5 9t21.5 7.5t21.5 4t24 2q49 0 69 -25t20 -78q0 -31 -4 -63l-43 -370h-56l42 357q4 32 4 61q0 36 -11 51t-39 15q-32 0 -72.5 -25t-118.5 -91l-42 -368h-56zM380 927
q-28 0 -49 -11t-38.5 -37.5t-27 -46t-26.5 -61.5q-2 -5 -3.5 -9t-3.5 -8l-47 11q46 117 86.5 163.5t110.5 46.5q53 0 84 -31t31 -82q0 -54 -41.5 -79.5t-97.5 -25.5l-4 41q95 0 95 63q0 30 -19.5 48t-49.5 18z" />
    <glyph glyph-name="yiwn_question" unicode="&#x582;&#x55e;" horiz-adv-x="265" 
d="M54 0l57 522h57l-53 -472h132l-5 -50h-188zM274 927q-28 0 -49 -11t-38.5 -37.5t-27 -46t-26.5 -61.5q-2 -5 -3.5 -9t-3.5 -8l-47 11q46 117 86.5 163.5t110.5 46.5q53 0 84 -31t31 -82q0 -54 -41.5 -79.5t-97.5 -25.5l-4 41q95 0 95 63q0 30 -19.5 48t-49.5 18z" />
    <glyph glyph-name="oh_question" unicode="&#x585;&#x55e;" horiz-adv-x="502" 
d="M191 -12q-66 0 -104 52.5t-38 127.5q0 169 71 269t183 100q66 0 102.5 -52.5t36.5 -120.5q0 -69 -14 -133t-42.5 -120t-78.5 -89.5t-116 -33.5zM209 38q73 0 124.5 88.5t51.5 217.5q0 73 -23.5 107.5t-79.5 34.5q-71 0 -122.5 -89t-51.5 -212q0 -28 3 -50t12.5 -46
t31 -37.5t54.5 -13.5zM381 927q-28 0 -49 -11t-38.5 -37.5t-27 -46t-26.5 -61.5q-2 -5 -3.5 -9t-3.5 -8l-47 11q46 117 86.5 163.5t110.5 46.5q53 0 84 -31t31 -82q0 -54 -41.5 -79.5t-97.5 -25.5l-4 41q95 0 95 63q0 30 -19.5 48t-49.5 18z" />
    <glyph glyph-name="men_ech_question" unicode="&#xfb14;&#x55e;" horiz-adv-x="1095" 
d="M748 -11q-53 0 -75.5 26.5t-22.5 82.5q0 22 3 47l57 534q-83 27 -137 27q-59 0 -81 -19t-26 -62l-65 -625h-57l10 93q-99 -104 -193 -104q-53 0 -75.5 26.5t-22.5 82.5q0 22 3 47l40 377h56l-39 -355q-4 -35 -4 -64q0 -38 11.5 -52.5t40.5 -14.5q80 0 189 115l47 447
q3 34 9.5 56.5t22.5 48t49.5 38.5t84.5 13q42 0 105.5 -13.5t91.5 -26.5l-21 -192h292l-5 -48h-293l-33 -307q-4 -35 -4 -64q0 -38 11.5 -52.5t40.5 -14.5q33 0 68.5 19t59 40t61.5 60l13 125h56l-29 -280h-56l10 98q-54 -55 -96.5 -82t-96.5 -27zM959 927q-28 0 -49 -11
t-38.5 -37.5t-27 -46t-26.5 -61.5q-5 -11 -7 -17l-47 11q46 117 86.5 163.5t110.5 46.5q53 0 84 -31t31 -82q0 -54 -41.5 -79.5t-97.5 -25.5l-4 41q95 0 95 63q0 30 -19.5 48t-49.5 18z" />
    <glyph glyph-name="men_ini_question" unicode="&#xfb15;&#x55e;" horiz-adv-x="1103" 
d="M161 -11q-53 0 -75.5 26.5t-22.5 82.5q0 22 3 47l40 377h56l-39 -355q-4 -35 -4 -64q0 -38 11.5 -52.5t40.5 -14.5q80 0 189 115l47 447q3 34 9.5 56.5t22.5 48t49.5 38.5t84.5 13q42 0 105.5 -13.5t91.5 -26.5l-31 -290q4 3 19.5 16.5t20 17.5t18.5 15.5t19.5 15.5
t18.5 12.5t20.5 12t19.5 9t21.5 7.5t21.5 4t24 2q49 0 69 -25t20 -78q0 -31 -4 -63l-43 -370h-56l42 357q4 32 4 61q0 36 -11 51t-39 15q-32 0 -72.5 -25t-118.5 -91l-66 -588h-56l98 900q-80 26 -136 26q-59 0 -81 -19t-26 -62l-65 -625h-57l10 93q-99 -104 -193 -104z
M1033 927q-28 0 -49 -11t-38.5 -37.5t-27 -46t-26.5 -61.5q-5 -11 -7 -17l-47 11q46 117 86.5 163.5t110.5 46.5q53 0 84 -31t31 -82q0 -54 -41.5 -79.5t-97.5 -25.5l-4 41q95 0 95 63q0 30 -19.5 48t-49.5 18z" />
    <glyph glyph-name=".null" horiz-adv-x="0" 
 />
    <glyph glyph-name="nonmarkingreturn" horiz-adv-x="333" 
 />
    <glyph glyph-name="space" unicode=" " horiz-adv-x="275" 
 />
    <glyph glyph-name="exclam" unicode="!" horiz-adv-x="251" 
d="M84 159l11 126l45 422h54l-45 -422l-15 -126h-50zM58 0l7 71h69l-7 -71h-69z" />
    <glyph glyph-name="quotedbl" unicode="&#x22;" horiz-adv-x="315" 
d="M92 572l22 194h51l-30 -194h-43zM230 572l22 194h51l-30 -194h-43z" />
    <glyph glyph-name="numbersign" unicode="#" horiz-adv-x="583" 
d="M101 0l26 164h-90l6 50h92l23 141h-100l5 50h103l25 162h53l-25 -162h183l25 162h53l-25 -162h85l-5 -50h-88l-23 -141h96l-6 -50h-98l-26 -164h-53l26 164h-183l-26 -164h-53zM188 214h183l23 141h-183z" />
    <glyph glyph-name="dollar" unicode="$" horiz-adv-x="484" 
d="M164 -99l11 95q-95 4 -163 39l27 50q87 -37 163 -37q40 0 72 7.5t58 32t26 64.5q0 30 -28.5 52.5t-69.5 38.5t-82.5 34.5t-70 51t-28.5 76.5q0 64 43.5 99.5t110.5 44.5l9 91h59l-12 -89q85 -2 146 -29l-22 -46q-83 26 -139 26q-24 0 -46 -3.5t-44 -12.5t-35 -27.5
t-13 -44.5q0 -31 29 -55.5t70 -42t82 -36t70 -48.5t29 -70q0 -76 -53 -117.5t-132 -47.5l-7 -96h-60z" />
    <glyph glyph-name="percent" unicode="%" horiz-adv-x="755" 
d="M201 396q-61 0 -94.5 33t-33.5 94q0 77 44.5 134t119.5 57q129 0 129 -127q0 -79 -44 -135t-121 -56zM205 440q55 0 83.5 41t28.5 98q0 43 -20.5 68.5t-63.5 25.5q-54 0 -81.5 -45t-27.5 -102q0 -86 81 -86zM531 -8q-61 0 -94 33t-33 94q0 78 44 134.5t120 56.5
q129 0 129 -127q0 -79 -44.5 -135t-121.5 -56zM536 36q54 0 82.5 41.5t28.5 97.5q0 43 -20.5 68.5t-63.5 25.5q-53 0 -80.5 -45t-27.5 -102q0 -86 81 -86zM101 66l-30 32l575 531l30 -32z" />
    <glyph glyph-name="ampersand" unicode="&#x26;" horiz-adv-x="658" 
d="M694 -98q-151 0 -301 145q-78 -56 -182 -56q-75 0 -121.5 39t-46.5 114q0 67 39 121.5t106 107.5q-23 73 -23 148q0 86 43 139t132 53q59 0 92 -33t33 -92q0 -18 -6 -35.5t-12.5 -31t-23 -31t-26.5 -27.5t-34.5 -28t-35 -25.5t-39.5 -27t-38 -25.5q61 -163 192.5 -284.5
t275.5 -121.5q19 0 30 1l7 -45q-35 -5 -61 -5zM218 42q82 0 142 37q-98 107 -155 245q-104 -84 -104 -178q0 -104 117 -104zM235 404q43 29 67.5 47.5t52 43t40 46t12.5 42.5q0 34 -20.5 57.5t-54.5 23.5q-112 0 -112 -142q0 -61 15 -118zM450 100l6 48q29 23 83 23h70
l-6 -50h-70q-51 0 -83 -21z" />
    <glyph glyph-name="quotesingle" unicode="'" horiz-adv-x="177" 
d="M92 572l22 194h51l-30 -194h-43z" />
    <glyph glyph-name="parenleft" unicode="(" horiz-adv-x="292" 
d="M204 -221q-78 65 -120.5 184.5t-42.5 232.5q0 102 29 210.5t91.5 209.5t146.5 153l29 -39q-110 -73 -172.5 -224.5t-62.5 -299.5q0 -104 36 -215t103 -173z" />
    <glyph glyph-name="parenright" unicode=")" horiz-adv-x="295" 
d="M-23 -221l-29 39q109 83 173.5 240t64.5 306q0 101 -36 207t-105 159l37 39q80 -57 123 -172.5t43 -236.5q0 -160 -73.5 -326.5t-197.5 -254.5z" />
    <glyph glyph-name="asterisk" unicode="*" horiz-adv-x="440" 
d="M98 471l-24 51l106 46l14 -32zM183 601l-96 46l35 51l84 -64zM199 409l24 111h37l-2 -111h-59zM237 650v112h59l-22 -112h-37zM373 472l-84 63l24 33l95 -44zM315 603l-15 31l97 65l25 -50z" />
    <glyph glyph-name="plus" unicode="+" horiz-adv-x="595" 
d="M236 56l23 221h-219l6 50h219l24 228h53l-24 -228h233l-6 -50h-233l-23 -221h-53z" />
    <glyph glyph-name="comma" unicode="," horiz-adv-x="224" 
d="M0 -146q3 8 10.5 27.5t9.5 25t7 20.5t6.5 22.5t5.5 22.5t5.5 29.5t4 34.5t5.5 45h70q-8 -73 -21.5 -116t-53.5 -111h-49z" />
    <glyph glyph-name="hyphen" unicode="-" horiz-adv-x="424" 
d="M57 261l6 54h298l-6 -54h-298z" />
    <glyph glyph-name="period" unicode="." horiz-adv-x="220" 
d="M44 0l7 71h69l-7 -71h-69z" />
    <glyph glyph-name="slash" unicode="/" horiz-adv-x="352" 
d="M-6 -62l319 831h53l-319 -831h-53z" />
    <glyph glyph-name="zero" unicode="0" horiz-adv-x="616" 
d="M276 -10q-106 0 -168 67.5t-62 185.5q0 135 78 226t208 91q106 0 168 -66t62 -188q0 -134 -80 -225t-206 -91zM280 38q101 0 164 75.5t63 183.5q0 97 -46 156t-133 59q-105 0 -164.5 -73.5t-59.5 -185.5q0 -98 44 -156.5t132 -58.5z" />
    <glyph glyph-name="one" unicode="1" horiz-adv-x="326" 
d="M141 0l53 502h-142l4 43l199 6l-58 -551h-56z" />
    <glyph glyph-name="two" unicode="2" horiz-adv-x="446" 
d="M12 0l5 45q19 16 63.5 52t70.5 58t62.5 58.5t57 65.5t36 67.5t15.5 75.5q0 45 -28.5 65t-72.5 20q-60 0 -120 -39l-25 38q27 23 69.5 39t85.5 16q74 0 112.5 -40.5t38.5 -93.5q0 -183 -290 -375h285l-6 -52h-359z" />
    <glyph glyph-name="three" unicode="3" horiz-adv-x="419" 
d="M101 -169q-77 0 -149 38l19 46q69 -33 132 -33q86 0 136 56.5t50 126.5q0 57 -41 92.5t-122 42.5l-4 42q68 19 117 75.5t49 109.5q0 83 -108 83q-66 0 -118 -24l-14 44q57 31 142 31q73 0 113.5 -34t40.5 -95q0 -55 -39 -109.5t-103 -86.5q145 -43 145 -166
q0 -90 -69.5 -164.5t-176.5 -74.5z" />
    <glyph glyph-name="four" unicode="4" horiz-adv-x="533" 
d="M265 -160l21 199h-280l6 60l291 447h92l-48 -457h132l-5 -50h-132l-21 -199h-56zM63 89h229l44 422z" />
    <glyph glyph-name="five" unicode="5" horiz-adv-x="463" 
d="M150 -171q-83 0 -161 31l17 47q76 -26 148 -26q86 0 136 47.5t50 126.5q0 153 -289 184l31 307h321l-5 -49h-270l-21 -213q81 -12 142.5 -36.5t104 -72t42.5 -112.5q0 -97 -68.5 -165.5t-177.5 -68.5z" />
    <glyph glyph-name="six" unicode="6" horiz-adv-x="530" 
d="M217 374l-5 46q36 10 72 10q83 0 137 -49t54 -140q0 -107 -57 -179.5t-160 -72.5q-100 0 -151 59.5t-51 170.5q0 57 7 112.5t21.5 112.5t40.5 105t61 86t86 59.5t113 21.5q50 0 85 -16l-16 -50q-34 14 -86 14q-59 0 -104.5 -27.5t-73.5 -76t-44.5 -104.5t-24.5 -123
q-7 -56 -7 -118q0 -83 39.5 -130t111.5 -47q75 0 113 58.5t38 140.5q0 142 -143 142q-24 0 -56 -5z" />
    <glyph glyph-name="seven" unicode="7" horiz-adv-x="447" 
d="M86 -172l-43 24l343 646h-335l5 48h386l-6 -57z" />
    <glyph glyph-name="eight" unicode="8" horiz-adv-x="511" 
d="M219 -10q-79 0 -131 41t-52 105q0 143 183 237q-31 24 -44.5 35.5t-34 34t-28.5 46.5t-8 54q0 79 57 125t145 46q64 0 109.5 -36.5t45.5 -95.5q0 -124 -159 -211q64 -42 102.5 -87.5t38.5 -104.5q0 -87 -68.5 -138t-155.5 -51zM232 37q66 0 109.5 38.5t43.5 103.5
q0 26 -12 51t-36 47.5t-41 35.5t-45 32q-46 -28 -75 -49.5t-56 -62t-27 -86.5q0 -51 38.5 -80.5t100.5 -29.5zM267 397q138 77 138 181q0 43 -33 66.5t-82 23.5q-56 0 -94 -33t-38 -86q0 -23 9 -45t29.5 -43.5t32.5 -32t38 -31.5z" />
    <glyph glyph-name="nine" unicode="9" horiz-adv-x="517" 
d="M297 175l5 -46q-36 -10 -72 -10q-83 0 -137 49t-54 140q0 107 57 179.5t160 72.5q101 0 151.5 -59.5t50.5 -170.5q0 -57 -7 -112.5t-21.5 -112.5t-40.5 -105t-61 -86t-86 -59.5t-113 -21.5q-50 0 -85 16l16 50q34 -14 86 -14q138 0 203 151q51 118 51 299q0 82 -39.5 129
t-111.5 47q-76 0 -114 -58.5t-38 -140.5q0 -142 144 -142q24 0 56 5z" />
    <glyph glyph-name="colon" unicode=":" horiz-adv-x="291" 
d="M78 0l8 71h69l-7 -71h-70zM128 475l8 71h69l-8 -71h-69z" />
    <glyph glyph-name="semicolon" unicode=";" horiz-adv-x="290" 
d="M33 -146q3 8 10.5 27.5t9.5 25t7 20.5t6.5 22.5t5.5 22.5t5.5 29.5t4 34.5t5.5 45h70q-8 -73 -21.5 -116t-53.5 -111h-49zM127 475l8 71h69l-8 -71h-69z" />
    <glyph glyph-name="less" unicode="&#x3c;" horiz-adv-x="511" 
d="M417 69l-378 189l9 91l418 189l-6 -57l-389 -178l352 -177z" />
    <glyph glyph-name="equal" unicode="=" horiz-adv-x="655" 
d="M60 180l6 50h505l-6 -50h-505zM81 379l6 50h505l-6 -50h-505z" />
    <glyph glyph-name="greater" unicode="&#x3e;" horiz-adv-x="511" 
d="M43 69l6 57l388 177l-351 178l6 57l378 -189l-9 -91z" />
    <glyph glyph-name="question" unicode="?" horiz-adv-x="340" 
d="M74 158q-4 20 -4 47q0 44 19.5 81.5t47 65t55 52.5t47 54.5t19.5 61.5q0 61 -51.5 96.5t-118.5 42.5l18 50q85 -7 148 -54t63 -127q0 -43 -18 -78.5t-44 -61t-53 -49t-48 -52.5t-26 -61q-2 -15 0 -62zM51 0l7 71h69l-7 -71h-69z" />
    <glyph glyph-name="at" unicode="@" horiz-adv-x="758" 
d="M313 -72q-129 0 -197 72.5t-68 202.5q0 104 29.5 196t85 163t142 112t192.5 41q113 0 172 -58.5t59 -171.5q0 -57 -14.5 -114t-43 -107.5t-77.5 -82t-110 -31.5q-35 0 -51.5 17.5t-9.5 51.5q-22 -22 -61 -42t-66 -20q-78 0 -78 91q0 104 57.5 179t158.5 75q52 0 94 -21
l-53 -238q-4 -16 -4 -25q0 -23 16 -23q52 0 90 27t58 71.5t29.5 91t9.5 94.5q0 186 -184 186q-96 0 -170.5 -37t-120 -101t-68.5 -145t-23 -174q0 -115 54.5 -170.5t167.5 -55.5q76 0 148 18l7 -47q-62 -25 -171 -25zM307 206q27 0 63 21t59 45l39 178q-28 6 -42 6
q-78 0 -118 -60t-40 -142q0 -25 8 -36.5t31 -11.5z" />
    <glyph glyph-name="A" unicode="A" horiz-adv-x="636" 
d="M-26 0l352 707h97l144 -707h-62l-55 279h-276l-138 -279h-62zM199 330h241l-60 306l-9 44l-22 -45z" />
    <glyph glyph-name="B" unicode="B" horiz-adv-x="613" 
d="M77 0l75 707h180q192 0 192 -155q0 -61 -33 -111.5t-91 -64.5l1 -3q60 -5 98 -47.5t38 -103.5q0 -111 -66.5 -166.5t-182.5 -55.5h-211zM143 51h132q97 0 148.5 35.5t51.5 129.5q0 30 -9 52t-27.5 35t-36 20.5t-47 11t-46.5 4t-48 0.5h-88zM179 390h108q86 0 129 36
t43 122q0 68 -39.5 90t-113.5 22h-99z" />
    <glyph glyph-name="C" unicode="C" horiz-adv-x="631" 
d="M379 -10q-143 0 -226.5 88t-83.5 234q0 179 103 290t280 111q97 0 158 -27l-22 -49q-63 23 -139 23q-152 0 -235 -95t-83 -252q0 -129 72.5 -198.5t200.5 -69.5q84 0 150 22l12 -52q-80 -25 -187 -25z" />
    <glyph glyph-name="D" unicode="D" horiz-adv-x="729" 
d="M77 0l75 707h172q156 0 249.5 -78.5t93.5 -234.5q0 -193 -106 -293.5t-301 -100.5h-183zM142 51h131q161 0 247 86.5t86 254.5q0 134 -77 199t-213 65h-110z" />
    <glyph glyph-name="E" unicode="E" horiz-adv-x="572" 
d="M77 0l75 707h377l-5 -50h-318l-29 -276h296l-5 -52h-296l-30 -279h342l-5 -50h-402z" />
    <glyph glyph-name="F" unicode="F" horiz-adv-x="487" 
d="M77 0l75 707h321l-5 -50h-262l-31 -296h240l-5 -53h-241l-32 -308h-60z" />
    <glyph glyph-name="G" unicode="G" horiz-adv-x="670" 
d="M380 -10q-143 0 -227 88t-84 235q0 178 102.5 289t278.5 111q99 0 157 -25l-23 -49q-62 21 -137 21q-151 0 -233.5 -95t-82.5 -252q0 -129 72.5 -198.5t201.5 -69.5q58 0 104 14l29 291h60l-34 -328q-48 -18 -85.5 -25t-98.5 -7z" />
    <glyph glyph-name="H" unicode="H" horiz-adv-x="738" 
d="M77 0l75 707h59l-34 -327h398l34 328h60l-74 -708h-60l35 329h-398l-35 -329h-60z" />
    <glyph glyph-name="I" unicode="I" horiz-adv-x="280" 
d="M77 0l75 707h59l-74 -707h-60z" />
    <glyph glyph-name="J" unicode="J" horiz-adv-x="280" 
d="M-58 -184l-23 44q91 48 127 112t48 179l59 556h59l-58 -554q-13 -128 -61.5 -209t-150.5 -128z" />
    <glyph glyph-name="K" unicode="K" horiz-adv-x="587" 
d="M211 707l-74 -707h-60l75 707h59zM211 365l2 20l308 322h77l-320 -326l258 -367l-51 -35z" />
    <glyph glyph-name="L" unicode="L" horiz-adv-x="493" 
d="M77 0l75 707h59l-68 -653h307l-6 -54h-367z" />
    <glyph glyph-name="M" unicode="M" horiz-adv-x="879" 
d="M18 0l225 707h88l57 -683l310 683h88l-35 -707h-60l36 643l-291 -643h-105l-54 644l-200 -644h-59z" />
    <glyph glyph-name="N" unicode="N" horiz-adv-x="721" 
d="M77 0l76 707h99l272 -685l70 685h59l-77 -707h-105l-264 668l-70 -668h-60z" />
    <glyph glyph-name="O" unicode="O" horiz-adv-x="808" 
d="M361 -11q-141 0 -216 87t-75 234q0 180 102.5 294t278.5 114q141 0 218 -87.5t77 -233.5q0 -181 -103.5 -294.5t-281.5 -113.5zM370 40q149 0 231 102t82 256q0 122 -62 194.5t-179 72.5q-146 0 -228.5 -100.5t-82.5 -252.5q0 -122 60.5 -197t178.5 -75z" />
    <glyph glyph-name="P" unicode="P" horiz-adv-x="595" 
d="M207 658l-69 -658h-61l75 707h219q92 0 145 -46.5t53 -137.5q0 -126 -80.5 -188.5t-209.5 -60.5h-14l6 51q29 0 42 1q191 15 191 194q0 138 -160 138h-137z" />
    <glyph glyph-name="Q" unicode="Q" horiz-adv-x="808" 
d="M361 -11q-141 0 -216 87t-75 234q0 180 102.5 294t278.5 114q141 0 218 -87.5t77 -233.5q0 -181 -103.5 -294.5t-281.5 -113.5zM370 40q149 0 231 102t82 256q0 122 -62 194.5t-179 72.5q-146 0 -228.5 -100.5t-82.5 -252.5q0 -122 60.5 -197t178.5 -75zM730 -150
l-382 70l5 49l383 -64z" />
    <glyph glyph-name="R" unicode="R" horiz-adv-x="635" 
d="M532 -17l-202 331q-34 -4 -94 -4h-64l-34 -310h-61l75 707h206q91 0 145.5 -44.5t54.5 -122.5q0 -76 -43 -134t-123 -78l195 -314zM177 362h101q102 0 158.5 44t56.5 133q0 119 -161 119h-125z" />
    <glyph glyph-name="S" unicode="S" horiz-adv-x="523" 
d="M212 -11q-45 0 -102 14.5t-86 33.5l25 53q94 -46 167 -46q174 0 174 146q0 38 -29.5 70.5t-72 58t-85 54t-72 72t-29.5 97.5q0 82 61.5 126t153.5 44q49 0 96.5 -11t71.5 -26l-19 -50q-72 34 -153 34q-153 0 -153 -119q0 -33 21.5 -62.5t53 -51t69 -47.5t69 -50.5t53 -61
t21.5 -79.5q0 -94 -65.5 -146.5t-169.5 -52.5z" />
    <glyph glyph-name="T" unicode="T" horiz-adv-x="589" 
d="M230 0l68 654h-246l6 53h552l-6 -53h-246l-69 -654h-59z" />
    <glyph glyph-name="U" unicode="U" horiz-adv-x="721" 
d="M338 -12q-50 0 -91 9.5t-77.5 31.5t-57 64t-20.5 101q0 11 2 39l50 474h61l-49 -467q-2 -26 -2 -36q0 -164 181 -164q92 0 151.5 50t72.5 175l46 442h56l-47 -445q-8 -79 -35.5 -135.5t-68 -85.5t-82.5 -41t-90 -12z" />
    <glyph glyph-name="V" unicode="V" horiz-adv-x="662" 
d="M243 0l-173 707h62l158 -669l343 669h65l-368 -707h-87z" />
    <glyph glyph-name="W" unicode="W" horiz-adv-x="952" 
d="M189 0l-101 707h61l89 -661l245 515l-28 146h62l125 -665l260 665h59l-278 -707h-88l-97 475l-226 -475h-83z" />
    <glyph glyph-name="X" unicode="X" horiz-adv-x="586" 
d="M-17 0l289 376l-157 331h65l132 -285l211 285h65l-253 -331l181 -376h-65l-155 325l-244 -325h-69z" />
    <glyph glyph-name="Y" unicode="Y" horiz-adv-x="536" 
d="M203 0l29 284l-177 423h65l149 -371l243 371h63l-283 -423l-30 -284h-59z" />
    <glyph glyph-name="Z" unicode="Z" horiz-adv-x="566" 
d="M15 0l6 60l443 590h-355l6 57h422l-5 -53l-446 -598h404l-6 -56h-469z" />
    <glyph glyph-name="bracketleft" unicode="[" horiz-adv-x="273" 
d="M32 -220l103 974h156l-5 -48h-100l-92 -878h100l-5 -48h-157z" />
    <glyph glyph-name="backslash" unicode="\" horiz-adv-x="353" 
d="M227 -62l-145 831h53l146 -831h-54z" />
    <glyph glyph-name="bracketright" unicode="]" horiz-adv-x="273" 
d="M-28 -220l5 48h100l92 878h-100l5 48h157l-103 -974h-156z" />
    <glyph glyph-name="asciicircum" unicode="^" horiz-adv-x="557" 
d="M60 294l203 413h83l101 -413h-61l-85 375l-179 -375h-62z" />
    <glyph glyph-name="underscore" unicode="_" horiz-adv-x="541" 
d="M-28 -158l4 54h500l-5 -54h-499z" />
    <glyph glyph-name="a" unicode="a" horiz-adv-x="509" 
d="M142 -13q-50 0 -76 44t-26 115q0 64 21.5 133.5t60 130.5t100.5 100.5t134 39.5q57 0 90 -7l-56 -543h-57l12 107q-67 -61 -115 -90.5t-88 -29.5zM154 42q34 0 97 47t100 84l35 325q-9 2 -41 2q-58 0 -107 -35t-78.5 -88.5t-46 -112.5t-16.5 -112q0 -49 14.5 -79.5
t42.5 -30.5z" />
    <glyph glyph-name="b" unicode="b" horiz-adv-x="533" 
d="M187 -7q-62 0 -132 21l78 741h55l-30 -294q2 2 16 11t18.5 11.5t18 11t20 11.5t19.5 10t21.5 10t21.5 8t23 7t22.5 3.5t24.5 1.5q115 0 115 -155q0 -54 -10.5 -108.5t-34 -107t-56.5 -93t-82.5 -65t-107.5 -24.5zM194 43q50 0 90 24t65 61t41.5 85t23 92.5t6.5 86.5
q0 60 -17.5 81.5t-53.5 21.5q-70 0 -198 -88l-37 -352q48 -12 80 -12z" />
    <glyph glyph-name="c" unicode="c" horiz-adv-x="450" 
d="M169 -12q-34 0 -58.5 20t-37 51.5t-18 62.5t-5.5 61q0 161 70.5 269t189.5 108q74 0 122 -50l-35 -34q-42 35 -93 35q-54 0 -94 -32t-60.5 -82.5t-30 -101t-9.5 -100.5q0 -72 18.5 -113t42.5 -41q77 0 190 60l21 -42q-37 -22 -60.5 -34t-66.5 -24.5t-86 -12.5z" />
    <glyph glyph-name="d" unicode="d" horiz-adv-x="513" 
d="M144 -13q-52 0 -75 50t-23 127q0 170 91 279t228 107q5 0 15 -0.5t15 -0.5l22 206h56l-81 -755h-56l11 107q-118 -120 -203 -120zM156 42q40 0 96.5 41t100.5 89l35 328q-22 2 -51 2q-96 0 -166 -100t-70 -217q0 -84 14 -113.5t41 -29.5z" />
    <glyph glyph-name="e" unicode="e" horiz-adv-x="465" 
d="M170 -12q-63 0 -91 56.5t-28 145.5q0 159 67.5 265t185.5 106q63 0 94.5 -33.5t31.5 -85.5q0 -88 -132 -138l-188 -72q-1 -10 -1 -31q0 -160 68 -160q65 0 173 54l20 -45q-84 -44 -130 -54q-35 -8 -70 -8zM115 286l168 67q91 36 91 87q0 37 -21 53.5t-52 16.5
q-149 0 -186 -224z" />
    <glyph glyph-name="f" unicode="f" horiz-adv-x="312" 
d="M57 -220l74 716h-80l5 50h81l4 48q14 180 210 180q41 0 85 -14l-15 -46q-44 12 -82 12q-70 0 -104 -29.5t-40 -96.5l-5 -54h118l-4 -50h-119l-75 -716h-53z" />
    <glyph glyph-name="g" unicode="g" horiz-adv-x="508" 
d="M146 -231q-75 0 -164 19l13 55q88 -22 139 -22q87 0 136.5 31.5t59.5 123.5l14 131q-67 -63 -113.5 -91.5t-89.5 -28.5q-99 0 -99 160q0 158 91.5 280.5t221.5 122.5q57 0 90 -7l-61 -582q-7 -69 -45 -113.5t-86.5 -61.5t-106.5 -17zM153 42q34 0 97 47t100 84l35 325
q-10 2 -41 2q-69 0 -127 -53t-88.5 -131.5t-30.5 -159.5q0 -66 14.5 -90t40.5 -24z" />
    <glyph glyph-name="h" unicode="h" horiz-adv-x="520" 
d="M54 0l80 755h57l-33 -307q4 3 19.5 16.5t20 17.5t18.5 15.5t19.5 15.5t18.5 12.5t20.5 12t19.5 9t21.5 7.5t21.5 4t24 2q49 0 69 -25t20 -78q0 -31 -4 -63l-43 -394h-56l42 381q4 32 4 61q0 36 -11 51t-39 15q-32 0 -72.5 -25t-118.5 -91l-42 -392h-56z" />
    <glyph glyph-name="i" unicode="i" horiz-adv-x="230" 
d="M148 662l-49 53l61 52l51 -52zM54 0l57 546h56l-57 -546h-56z" />
    <glyph glyph-name="j" unicode="j" horiz-adv-x="231" 
d="M-79 -220q-35 0 -62 10l13 51q32 -10 60 -10q63 0 87.5 37t32.5 111l60 567h56l-60 -568q-11 -108 -59.5 -153t-127.5 -45zM149 662l-49 53l61 52l51 -52z" />
    <glyph glyph-name="k" unicode="k" horiz-adv-x="475" 
d="M173 291l203 255h70l-205 -255l186 -278l-53 -30zM190 754l-80 -754h-56l79 754h57z" />
    <glyph glyph-name="l" unicode="l" horiz-adv-x="231" 
d="M54 0l79 754h57l-80 -754h-56z" />
    <glyph glyph-name="m" unicode="m" horiz-adv-x="791" 
d="M54 0l57 546h57l-10 -97q37 34 57 51t61.5 38.5t77.5 21.5q50 0 70.5 -25t17.5 -76q56 50 100 75.5t93 25.5q48 0 67 -24.5t19 -76.5q0 -33 -4 -65l-43 -394h-55l41 381q5 43 5 64q0 36 -12 50t-42 14q-24 0 -52 -14.5t-49.5 -32t-73.5 -62.5l-43 -400h-56l42 381
q5 43 5 64q0 36 -11.5 49t-41.5 13q-31 0 -68.5 -25t-110.5 -90l-42 -392h-56z" />
    <glyph glyph-name="n" unicode="n" horiz-adv-x="520" 
d="M54 0l57 546h57l-10 -98q4 3 19.5 16.5t20 17.5t18.5 15.5t19.5 15.5t18.5 12.5t20.5 12t19.5 9t21.5 7.5t21.5 4t24 2q49 0 69 -25t20 -78q0 -31 -4 -63l-43 -394h-56l42 381q4 32 4 61q0 36 -11 51t-39 15q-32 0 -72.5 -25t-118.5 -91l-42 -392h-56z" />
    <glyph glyph-name="o" unicode="o" horiz-adv-x="515" 
d="M197 -12q-68 0 -108 54.5t-40 132.5q0 176 73.5 280.5t190.5 104.5q69 0 107 -54.5t38 -126.5t-14.5 -138.5t-44 -124.5t-82 -93t-120.5 -35zM214 38q77 0 131.5 93t54.5 230q0 77 -25 113.5t-84 36.5q-75 0 -129 -94t-54 -224q0 -155 106 -155z" />
    <glyph glyph-name="p" unicode="p" horiz-adv-x="534" 
d="M30 -220l83 766h55l-8 -85q119 85 204 85q115 0 115 -155q0 -54 -10.5 -108.5t-34 -107t-56.5 -93t-82.5 -65t-107.5 -24.5q-32 0 -78 8l-24 -221h-56zM195 43q50 0 90 24t65 61t41.5 85t23 92.5t6.5 86.5q0 60 -17.5 81.5t-53.5 21.5q-69 0 -197 -88l-37 -352
q9 -2 21 -4.5t18.5 -4t17 -2.5t22.5 -1z" />
    <glyph glyph-name="q" unicode="q" horiz-adv-x="508" 
d="M309 -220l35 327q-71 -62 -117 -91t-86 -29q-99 0 -99 164q0 102 40.5 193.5t113.5 148.5t159 57q57 0 90 -7l-79 -763h-57zM153 42q34 0 97 47t100 84l35 325q-10 2 -41 2q-103 0 -174.5 -107t-71.5 -233q0 -70 14 -94t41 -24z" />
    <glyph glyph-name="r" unicode="r" horiz-adv-x="353" 
d="M54 0l57 546h56l-10 -101q29 29 46 45t60 41t77 25q9 0 23 -2l-11 -51q-4 1 -16 1q-10 0 -22 -4t-22.5 -9t-25.5 -14.5t-25 -16.5t-26 -20t-23 -18.5t-22.5 -19t-18.5 -15.5l-41 -387h-56z" />
    <glyph glyph-name="s" unicode="s" horiz-adv-x="419" 
d="M153 -9q-87 0 -139 23l17 52q67 -24 126 -24q19 0 38.5 3.5t43 12t38 28t14.5 46.5q0 33 -22 61t-53 49.5t-62 44t-53 54.5t-22 71q0 74 49 108.5t123 34.5q72 0 132 -29l-19 -45q-72 26 -128 26q-43 0 -73.5 -20t-30.5 -64q0 -33 22 -60.5t53 -48.5t62.5 -44t53.5 -57
t22 -77q0 -73 -57 -109t-135 -36z" />
    <glyph glyph-name="t" unicode="t" horiz-adv-x="385" 
d="M180 -12q-39 0 -65 25t-28 76q-2 19 1 38l41 368h-80l5 51h80l11 112h56l-11 -112h177l-5 -51h-177l-40 -363q-10 -91 52 -91q53 0 112 35l15 -44q-63 -44 -144 -44z" />
    <glyph glyph-name="u" unicode="u" horiz-adv-x="520" 
d="M160 -11q-53 0 -75.5 26.5t-22.5 82.5q0 22 3 47l43 401h56l-42 -379q-4 -35 -4 -64q0 -38 11.5 -52.5t40.5 -14.5q33 0 68.5 19t59 40t61.5 60l42 391h56l-58 -546h-56l10 98q-54 -55 -96.5 -82t-96.5 -27z" />
    <glyph glyph-name="v" unicode="v" horiz-adv-x="469" 
d="M144 0l-94 546h62l79 -516l158 333q47 101 47 171q0 2 -0.5 6t-0.5 6h56v-12q0 -74 -48 -175l-171 -359h-88z" />
    <glyph glyph-name="w" unicode="w" horiz-adv-x="768" 
d="M146 0l-97 546h62l82 -516l190 322l-34 194h62l79 -516l158 333q46 97 46 169q0 10 -1 14h57v-12q0 -75 -48 -175l-171 -359h-89l-47 281l-164 -281h-85z" />
    <glyph glyph-name="x" unicode="x" horiz-adv-x="457" 
d="M-13 0l215 294l-109 252h60l86 -205l145 205h62l-186 -255l123 -291h-61l-98 242l-174 -242h-63z" />
    <glyph glyph-name="y" unicode="y" horiz-adv-x="471" 
d="M73 -220l106 220h-41l-87 546h62l77 -517l160 334q20 42 33.5 91t13.5 80q0 2 -0.5 6t-0.5 6h57v-12q0 -76 -47 -175l-275 -579h-58z" />
    <glyph glyph-name="z" unicode="z" horiz-adv-x="467" 
d="M9 0l6 56l353 439h-280l5 51h343l-5 -53l-361 -443h319l-5 -50h-375z" />
    <glyph glyph-name="braceleft" unicode="{" horiz-adv-x="293" 
d="M221 -219q-36 0 -62 4t-52 14.5t-39.5 34t-13.5 58.5q0 21 6 48l43 201q8 36 -14.5 70t-58.5 34l6 57q36 0 65.5 32.5t29.5 71.5v210q0 158 194 158h12l-5 -48h-18q-67 0 -98.5 -25.5t-31.5 -87.5l1 -184q0 -65 -28.5 -104t-77.5 -49v-2q79 -27 79 -108q0 -17 -5 -44
l-40 -186q-4 -22 -4 -31q0 -77 111 -77h18l-5 -47h-12z" />
    <glyph glyph-name="bar" unicode="|" horiz-adv-x="232" 
d="M32 -220l102 974h56l-102 -974h-56z" />
    <glyph glyph-name="braceright" unicode="}" horiz-adv-x="296" 
d="M-50 -219l5 47h18q129 0 129 108v186q0 117 106 152v2q-79 18 -79 106q0 26 5 47l40 184q4 19 4 37q0 41 -27.5 58t-83.5 17h-18l6 49h12q166 0 166 -115q0 -16 -5 -43l-44 -210q-8 -38 14.5 -71t58.5 -33l-6 -57q-36 0 -65.5 -34t-29.5 -70l1 -201q0 -51 -16 -84.5
t-46.5 -48.5t-60.5 -20.5t-72 -5.5h-12z" />
    <glyph glyph-name="asciitilde" unicode="~" horiz-adv-x="603" 
d="M419 295q-55 0 -121.5 30t-104.5 30q-41 0 -93 -29l-27 43q59 43 126 43q53 0 114 -31t106 -31q41 0 87 33l32 -38q-55 -50 -119 -50z" />
    <glyph glyph-name="exclamdown" unicode="&#xa1;" horiz-adv-x="239" 
d="M42 -161l45 422l15 126h50l-11 -126l-45 -422h-54zM102 475l7 71h69l-7 -71h-69z" />
    <glyph glyph-name="cent" unicode="&#xa2;" horiz-adv-x="473" 
d="M211 -41l11 74q-92 9 -137 56t-45 138q0 117 59.5 195.5t172.5 86.5l5 81h64l-10 -80q71 -5 101 -28l-23 -42q-49 24 -119 24q-100 0 -147 -65t-47 -169q0 -87 44 -118.5t135 -31.5q44 0 113 15l3 -46q-49 -15 -110 -17l-5 -73h-65z" />
    <glyph glyph-name="sterling" unicode="&#xa3;" horiz-adv-x="476" 
d="M29 0l6 54q40 16 67.5 60t33.5 91h-100l5 49h101q2 14 3.5 30.5t3 36t2.5 30.5q7 58 27.5 96.5t56 58.5t75.5 28.5t99 10.5l-1 -49q-39 -3 -62 -6.5t-51.5 -13t-44.5 -24.5t-28 -41.5t-15 -63.5q-2 -31 -8 -93h184l-5 -49h-186q-5 -45 -29.5 -87t-61.5 -68h296l-6 -50
h-362z" />
    <glyph glyph-name="yen" unicode="&#xa5;" horiz-adv-x="604" 
d="M37 101l5 50h208v1l-44 109h-152l5 50h125l-98 235h64l137 -339l219 339h61l-154 -235h131l-5 -50h-159l-72 -109v-1h219l-5 -50h-219l-11 -101h-58l11 101h-208z" />
    <glyph glyph-name="section" unicode="&#xa7;" horiz-adv-x="554" 
d="M106 -42q-58 0 -108 39l28 52q49 -38 87 -38q25 0 40.5 21t20 44t4.5 48q0 33 -8 99l-2 21q-4 46 -4 70q0 124 58 198t178 74q77 0 136 -40l-23 -51q-65 39 -122 39q-56 0 -56 -108q0 -13 2 -39l5 -48q8 -72 8 -103q0 -119 -64 -198.5t-180 -79.5zM202 24q92 53 92 193
q0 11 -5 74l-5 54q-4 50 -4 68q0 76 23 107l-2 3q-78 -45 -78 -184q0 -31 3 -62l5 -51q4 -36 4 -82q0 -39 -6.5 -64t-27.5 -54z" />
    <glyph glyph-name="copyright" unicode="&#xa9;" horiz-adv-x="806" 
d="M402 53q-93 0 -142.5 47t-49.5 125q0 111 61 179t174 68q71 0 114 -27l-22 -39q-47 22 -96 22q-79 0 -129.5 -52t-50.5 -144q0 -66 45 -100t113 -34q37 0 95 17l11 -38q-61 -24 -123 -24zM349 -114q-142 0 -224.5 86t-82.5 228q0 185 112 302.5t291 117.5
q144 0 225 -87.5t81 -226.5q0 -182 -110.5 -301t-291.5 -119zM357 -64q160 0 249.5 104t89.5 258q0 122 -67 197t-193 75q-156 0 -247 -103.5t-91 -256.5q0 -119 66 -196.5t193 -77.5z" />
    <glyph glyph-name="ordfeminine" unicode="&#xaa;" horiz-adv-x="408" 
d="M168 386q-65 0 -65 112q0 90 52.5 155t132.5 65q27 0 60 -7l-34 -320h-49l7 52q-64 -57 -104 -57zM173 433q18 0 51 22t52 40l18 174l-4 1h-10h-4q-49 3 -87 -50t-38 -116q0 -71 22 -71zM70 299l6 50h271l-7 -50h-270z" />
    <glyph glyph-name="guillemotleft" unicode="&#xab;" horiz-adv-x="424" 
d="M126 54l-78 218l124 218l45 -17l-107 -201l64 -199zM292 54l-78 218l125 218l44 -17l-107 -201l64 -199z" />
    <glyph glyph-name="registered" unicode="&#xae;" horiz-adv-x="560" 
d="M303 314q-41 0 -79.5 11.5t-73 35.5t-55.5 68t-21 103q0 103 64.5 162.5t163.5 59.5q93 0 159.5 -55t66.5 -167q0 -102 -63.5 -160t-161.5 -58zM308 354q77 0 127 47t50 131q0 89 -53.5 135.5t-128.5 46.5q-80 0 -132 -44.5t-52 -133.5q0 -45 14 -79t34.5 -53t48 -31
t49.5 -15.5t43 -3.5zM416 421q-46 0 -70 27q-25 25 -53 70l-35 -1v-91h-41v238h86q79 0 79 -72q0 -49 -46 -68q2 -3 9.5 -13.5t14.5 -19.5t14 -16t14 -11.5t18.5 -8.5t14.5 -5zM258 549h31q54 0 54 41q0 23 -11 32.5t-38 9.5h-36v-83z" />
    <glyph glyph-name="degree" unicode="&#xb0;" horiz-adv-x="418" 
d="M214 404q-150 0 -135 158q7 68 55 111.5t117 43.5q73 0 110 -40.5t30 -114.5q-8 -73 -56 -115.5t-121 -42.5zM221 446q50 0 80.5 30.5t36.5 85.5q5 52 -19 83t-73 31q-48 0 -79 -30.5t-36 -83.5q-7 -56 18.5 -86t71.5 -30z" />
    <glyph glyph-name="plusminus" unicode="&#xb1;" horiz-adv-x="552" 
d="M32 52h435l-6 -52h-435zM285 123h-57l20 189h-189l6 52h189l20 190h57l-20 -190h189l-6 -52h-189z" />
    <glyph glyph-name="paragraph" unicode="&#xb6;" horiz-adv-x="575" 
d="M261 -220q-38 0 -57 8l16 46q8 -4 47 -4q65 0 94 39t37 109l76 729h56l-77 -730q-10 -97 -55 -147t-137 -50zM263 280q-208 0 -208 182q0 109 56.5 177t163.5 68h93l-44 -427h-61z" />
    <glyph glyph-name="periodcentered" unicode="&#xb7;" horiz-adv-x="246" 
d="M119 298l-49 53l61 52l51 -52z" />
    <glyph glyph-name="ordmasculine" unicode="&#xba;" horiz-adv-x="413" 
d="M209 385q-44 0 -72.5 38t-28.5 90q0 93 39 150.5t108 57.5q50 0 75 -39t25 -90q0 -49 -12 -93t-46.5 -79t-87.5 -35zM217 428q42 0 65.5 54.5t23.5 107.5q0 35 -16 62t-45 27q-30 0 -50.5 -28.5t-28 -63t-7.5 -67.5q0 -37 14 -64.5t44 -27.5zM69 301l6 48h271l-7 -48
h-270z" />
    <glyph glyph-name="guillemotright" unicode="&#xbb;" horiz-adv-x="424" 
d="M78 54l-44 19l106 199l-65 201l49 17l78 -218zM244 54l-44 19l106 199l-65 201l49 17l78 -218z" />
    <glyph glyph-name="questiondown" unicode="&#xbf;" horiz-adv-x="324" 
d="M222 -163q-85 7 -148 54t-63 127q0 43 18 78.5t44 61t53 49t48 52.5t26 61q2 15 0 62l54 6q4 -20 4 -47q0 -44 -19.5 -81.5t-47 -65t-55 -52.5t-47 -54.5t-19.5 -61.5q0 -61 51.5 -96.5t118.5 -42.5zM201 475l7 71h69l-7 -71h-69z" />
    <glyph glyph-name="Agrave" unicode="&#xc0;" horiz-adv-x="636" 
d="M428 736l-207 66l25 58l198 -80zM-26 0l352 707h97l144 -707h-62l-55 279h-276l-138 -279h-62zM199 330h241l-60 306l-9 44l-22 -45z" />
    <glyph glyph-name="Atilde" unicode="&#xc3;" horiz-adv-x="636" 
d="M442 748q-20 0 -62.5 18t-60.5 18q-37 0 -71 -24l-20 35q46 38 96 38q24 0 63.5 -18t59.5 -18q38 0 70 28l20 -36q-47 -41 -95 -41zM-26 0l352 707h97l144 -707h-62l-55 279h-276l-138 -279h-62zM199 330h241l-60 306l-9 44l-22 -45z" />
    <glyph glyph-name="Adieresis" unicode="&#xc4;" horiz-adv-x="636" 
d="M278 750l-42 50l52 48l43 -48zM475 750l-42 50l52 48l44 -48zM-26 0l352 707h97l144 -707h-62l-55 279h-276l-138 -279h-62zM199 330h241l-60 306l-9 44l-22 -45z" />
    <glyph glyph-name="Aring" unicode="&#xc5;" horiz-adv-x="636" 
d="M386 731q-43 0 -73 23.5t-30 62.5q0 51 35.5 83.5t86.5 32.5q41 0 71 -25t30 -63q0 -51 -34 -82.5t-86 -31.5zM388 766q32 0 53 20t21 52q0 26 -17.5 42.5t-43.5 16.5q-32 0 -53 -20t-21 -52q0 -27 17 -43t44 -16zM-26 0l352 707h97l144 -707h-62l-55 279h-276l-138 -279
h-62zM199 330h241l-60 306l-9 44l-22 -45z" />
    <glyph glyph-name="AE" unicode="&#xc6;" horiz-adv-x="922" 
d="M-24 0l474 707h428l-5 -50h-318l-29 -276h297l-6 -52h-296l-30 -279h342l-5 -50h-401l35 329h-204l-214 -329h-68zM292 381h175l29 276h-24z" />
    <glyph glyph-name="Ccedilla" unicode="&#xc7;" horiz-adv-x="631" 
d="M302 -229l-15 31q56 33 62 79q2 25 -18 68h62q16 -30 13 -63q-6 -75 -104 -115zM379 -10q-143 0 -226.5 88t-83.5 234q0 179 103 290t280 111q97 0 158 -27l-22 -49q-63 23 -139 23q-152 0 -235 -95t-83 -252q0 -129 72.5 -198.5t200.5 -69.5q84 0 150 22l12 -52
q-80 -25 -187 -25z" />
    <glyph glyph-name="Eacute" unicode="&#xc9;" horiz-adv-x="572" 
d="M280 737l-13 43l221 78l14 -57zM77 0l75 707h377l-5 -50h-318l-29 -276h296l-5 -52h-296l-30 -279h342l-5 -50h-402z" />
    <glyph glyph-name="Ntilde" unicode="&#xd1;" horiz-adv-x="721" 
d="M479 748q-20 0 -62.5 18t-60.5 18q-36 0 -71 -24l-20 35q46 38 96 38q24 0 63.5 -18t59.5 -18q38 0 70 28l20 -36q-47 -41 -95 -41zM77 0l76 707h99l272 -685l70 685h59l-77 -707h-105l-264 668l-70 -668h-60z" />
    <glyph glyph-name="Otilde" unicode="&#xd5;" horiz-adv-x="808" 
d="M510 748q-20 0 -62.5 18t-60.5 18q-37 0 -71 -24l-20 35q46 38 96 38q24 0 63.5 -18t59.5 -18q38 0 70 28l20 -36q-47 -41 -95 -41zM361 -11q-141 0 -216 87t-75 234q0 180 102.5 294t278.5 114q141 0 218 -87.5t77 -233.5q0 -181 -103.5 -294.5t-281.5 -113.5zM370 40
q149 0 231 102t82 256q0 122 -62 194.5t-179 72.5q-146 0 -228.5 -100.5t-82.5 -252.5q0 -122 60.5 -197t178.5 -75z" />
    <glyph glyph-name="Odieresis" unicode="&#xd6;" horiz-adv-x="808" 
d="M350 750l-42 50l52 48l43 -48zM547 750l-42 50l52 48l44 -48zM361 -11q-141 0 -216 87t-75 234q0 180 102.5 294t278.5 114q141 0 218 -87.5t77 -233.5q0 -181 -103.5 -294.5t-281.5 -113.5zM370 40q149 0 231 102t82 256q0 122 -62 194.5t-179 72.5
q-146 0 -228.5 -100.5t-82.5 -252.5q0 -122 60.5 -197t178.5 -75z" />
    <glyph glyph-name="multiply" unicode="&#xd7;" horiz-adv-x="545" 
d="M432 86l-166 186l-197 -177l-33 37l196 178l-158 176l40 35l157 -176l202 182l34 -37l-202 -183l166 -186z" />
    <glyph glyph-name="Oslash" unicode="&#xd8;" horiz-adv-x="808" 
d="M80 -25l-36 31l85 90q-59 83 -59 214q0 180 102.5 294t278.5 114q122 0 198 -68l76 80l37 -33l-79 -84q63 -85 63 -216q0 -181 -103.5 -294.5t-281.5 -113.5q-127 0 -201 71zM172 142l436 464q-64 59 -166 59q-146 0 -228.5 -100.5t-82.5 -252.5q0 -103 41 -170zM370 40
q149 0 231 102t82 256q0 100 -43 169l-438 -463q62 -64 168 -64z" />
    <glyph glyph-name="Udieresis" unicode="&#xdc;" horiz-adv-x="721" 
d="M303 750l-42 50l52 48l43 -48zM500 750l-42 50l52 48l44 -48zM338 -12q-50 0 -91 9.5t-77.5 31.5t-57 64t-20.5 101q0 11 2 39l50 474h61l-49 -467q-2 -26 -2 -36q0 -164 181 -164q92 0 151.5 50t72.5 175l46 442h56l-47 -445q-8 -79 -35.5 -135.5t-68 -85.5t-82.5 -41
t-90 -12z" />
    <glyph glyph-name="germandbls" unicode="&#xdf;" horiz-adv-x="573" 
d="M32 -220l83 798q6 57 25.5 97t50 60.5t64.5 29.5t77 9q35 0 66.5 -12t55.5 -44t24 -80q0 -35 -22 -70t-48 -58.5t-48 -48.5t-22 -41q0 -25 18.5 -50.5t45 -48.5t53 -48.5t45 -62t18.5 -77.5q0 -49 -31.5 -83t-69.5 -46.5t-77 -12.5q-67 0 -139 24l16 50q55 -21 120 -21
q51 0 88 23.5t37 55.5q0 31 -13.5 58.5t-33.5 47.5t-43.5 42t-43.5 42t-33.5 47.5t-13.5 57.5q0 24 14 47t34 42t40.5 38.5t34.5 44.5t14 53q0 36 -28 57.5t-65 21.5q-75 0 -111 -37t-43 -108l-84 -797h-55z" />
    <glyph glyph-name="agrave" unicode="&#xe0;" horiz-adv-x="509" 
d="M409 619l-168 122l34 45l162 -129zM142 -13q-50 0 -76 44t-26 115q0 64 21.5 133.5t60 130.5t100.5 100.5t134 39.5q57 0 90 -7l-56 -543h-57l12 107q-67 -61 -115 -90.5t-88 -29.5zM154 42q34 0 97 47t100 84l35 325q-9 2 -41 2q-58 0 -107 -35t-78.5 -88.5t-46 -112.5
t-16.5 -112q0 -49 14.5 -79.5t42.5 -30.5z" />
    <glyph glyph-name="aacute" unicode="&#xe1;" horiz-adv-x="509" 
d="M304 622l-27 37l174 137l34 -46zM142 -13q-50 0 -76 44t-26 115q0 64 21.5 133.5t60 130.5t100.5 100.5t134 39.5q57 0 90 -7l-56 -543h-57l12 107q-67 -61 -115 -90.5t-88 -29.5zM154 42q34 0 97 47t100 84l35 325q-9 2 -41 2q-58 0 -107 -35t-78.5 -88.5t-46 -112.5
t-16.5 -112q0 -49 14.5 -79.5t42.5 -30.5z" />
    <glyph glyph-name="acircumflex" unicode="&#xe2;" horiz-adv-x="509" 
d="M206 626l-23 39l185 111l154 -111l-25 -39l-136 90zM142 -13q-50 0 -76 44t-26 115q0 64 21.5 133.5t60 130.5t100.5 100.5t134 39.5q57 0 90 -7l-56 -543h-57l12 107q-67 -61 -115 -90.5t-88 -29.5zM154 42q34 0 97 47t100 84l35 325q-9 2 -41 2q-58 0 -107 -35
t-78.5 -88.5t-46 -112.5t-16.5 -112q0 -49 14.5 -79.5t42.5 -30.5z" />
    <glyph glyph-name="atilde" unicode="&#xe3;" horiz-adv-x="509" 
d="M416 649q-19 0 -62 18t-61 18q-37 0 -71 -24l-20 35q1 1 6 5t9.5 7.5t13 8.5t17.5 8.5t22.5 6t27.5 2.5q24 0 63.5 -18t59.5 -18q38 0 70 28l20 -36q-41 -41 -95 -41zM142 -13q-50 0 -76 44t-26 115q0 64 21.5 133.5t60 130.5t100.5 100.5t134 39.5q57 0 90 -7l-56 -543
h-57l12 107q-67 -61 -115 -90.5t-88 -29.5zM154 42q34 0 97 47t100 84l35 325q-9 2 -41 2q-58 0 -107 -35t-78.5 -88.5t-46 -112.5t-16.5 -112q0 -49 14.5 -79.5t42.5 -30.5z" />
    <glyph glyph-name="adieresis" unicode="&#xe4;" horiz-adv-x="509" 
d="M266 668l-43 47l53 48l43 -48zM453 668l-42 47l52 48l43 -48zM142 -13q-50 0 -76 44t-26 115q0 64 21.5 133.5t60 130.5t100.5 100.5t134 39.5q57 0 90 -7l-56 -543h-57l12 107q-67 -61 -115 -90.5t-88 -29.5zM154 42q34 0 97 47t100 84l35 325q-9 2 -41 2
q-58 0 -107 -35t-78.5 -88.5t-46 -112.5t-16.5 -112q0 -49 14.5 -79.5t42.5 -30.5z" />
    <glyph glyph-name="aring" unicode="&#xe5;" horiz-adv-x="509" 
d="M358 613q-43 0 -73 23.5t-30 62.5q0 51 35.5 83.5t86.5 32.5q41 0 71 -25t30 -63q0 -51 -34 -82.5t-86 -31.5zM360 648q32 0 53 20t21 52q0 26 -17.5 42.5t-43.5 16.5q-32 0 -53 -20t-21 -52q0 -27 17 -43t44 -16zM142 -13q-50 0 -76 44t-26 115q0 64 21.5 133.5
t60 130.5t100.5 100.5t134 39.5q57 0 90 -7l-56 -543h-57l12 107q-67 -61 -115 -90.5t-88 -29.5zM154 42q34 0 97 47t100 84l35 325q-9 2 -41 2q-58 0 -107 -35t-78.5 -88.5t-46 -112.5t-16.5 -112q0 -49 14.5 -79.5t42.5 -30.5z" />
    <glyph glyph-name="ae" unicode="&#xe6;" horiz-adv-x="767" 
d="M144 -13q-49 0 -74 49t-25 128q0 165 89.5 275.5t222.5 110.5q42 0 90 -8l-9 -70q66 89 168 89q126 0 126 -119q0 -88 -132 -138l-188 -72q0 -6 -0.5 -16.5t-0.5 -15.5q0 -159 69 -159q54 0 171 54l21 -45q-2 -1 -15.5 -8t-17 -9t-16.5 -8.5t-18.5 -8.5t-18.5 -7t-21 -7
t-20.5 -5.5t-23 -5t-23.5 -2.5t-26 -1q-95 0 -112 129q-135 -130 -216 -130zM156 42q34 0 95.5 46.5t99.5 84.5l35 324l-49 2q-63 2 -118.5 -45.5t-86.5 -120.5t-31 -148q0 -84 14 -113.5t41 -29.5zM418 286l167 67q91 36 91 87q0 37 -21 53.5t-52 16.5q-44 0 -78.5 -19.5
t-55 -54t-32.5 -71t-19 -79.5z" />
    <glyph glyph-name="ccedilla" unicode="&#xe7;" horiz-adv-x="450" 
d="M158 -229l-15 31q56 33 62 79q2 25 -18 68h62q16 -30 13 -63q-6 -75 -104 -115zM169 -12q-34 0 -58.5 20t-37 51.5t-18 62.5t-5.5 61q0 161 70.5 269t189.5 108q74 0 122 -50l-35 -34q-42 35 -93 35q-54 0 -94 -32t-60.5 -82.5t-30 -101t-9.5 -100.5q0 -72 18.5 -113
t42.5 -41q77 0 190 60l21 -42q-37 -22 -60.5 -34t-66.5 -24.5t-86 -12.5z" />
    <glyph glyph-name="egrave" unicode="&#xe8;" horiz-adv-x="465" 
d="M329 619l-168 122l34 45l162 -129zM170 -12q-63 0 -91 56.5t-28 145.5q0 159 67.5 265t185.5 106q63 0 94.5 -33.5t31.5 -85.5q0 -88 -132 -138l-188 -72q-1 -10 -1 -31q0 -160 68 -160q65 0 173 54l20 -45q-84 -44 -130 -54q-35 -8 -70 -8zM115 286l168 67q91 36 91 87
q0 37 -21 53.5t-52 16.5q-149 0 -186 -224z" />
    <glyph glyph-name="eacute" unicode="&#xe9;" horiz-adv-x="465" 
d="M233 622l-27 37l174 137l34 -46zM170 -12q-63 0 -91 56.5t-28 145.5q0 159 67.5 265t185.5 106q63 0 94.5 -33.5t31.5 -85.5q0 -88 -132 -138l-188 -72q-1 -10 -1 -31q0 -160 68 -160q65 0 173 54l20 -45q-84 -44 -130 -54q-35 -8 -70 -8zM115 286l168 67q91 36 91 87
q0 37 -21 53.5t-52 16.5q-149 0 -186 -224z" />
    <glyph glyph-name="ecircumflex" unicode="&#xea;" horiz-adv-x="465" 
d="M151 626l-23 39l185 111l154 -111l-25 -39l-136 90zM170 -12q-63 0 -91 56.5t-28 145.5q0 159 67.5 265t185.5 106q63 0 94.5 -33.5t31.5 -85.5q0 -88 -132 -138l-188 -72q-1 -10 -1 -31q0 -160 68 -160q65 0 173 54l20 -45q-84 -44 -130 -54q-35 -8 -70 -8zM115 286
l168 67q91 36 91 87q0 37 -21 53.5t-52 16.5q-149 0 -186 -224z" />
    <glyph glyph-name="edieresis" unicode="&#xeb;" horiz-adv-x="465" 
d="M212 668l-43 47l53 48l43 -48zM399 668l-42 47l52 48l43 -48zM170 -12q-63 0 -91 56.5t-28 145.5q0 159 67.5 265t185.5 106q63 0 94.5 -33.5t31.5 -85.5q0 -88 -132 -138l-188 -72q-1 -10 -1 -31q0 -160 68 -160q65 0 173 54l20 -45q-84 -44 -130 -54q-35 -8 -70 -8z
M115 286l168 67q91 36 91 87q0 37 -21 53.5t-52 16.5q-149 0 -186 -224z" />
    <glyph glyph-name="igrave" unicode="&#xec;" horiz-adv-x="230" 
d="M180 619l-168 122l34 45l162 -129zM54 0l57 546h56l-57 -546h-56z" />
    <glyph glyph-name="iacute" unicode="&#xed;" horiz-adv-x="230" 
d="M104 622l-27 37l174 137l34 -46zM54 0l57 546h56l-57 -546h-56z" />
    <glyph glyph-name="icircumflex" unicode="&#xee;" horiz-adv-x="230" 
d="M9 626l-23 39l185 111l154 -111l-25 -39l-136 90zM54 0l57 546h56l-57 -546h-56z" />
    <glyph glyph-name="idieresis" unicode="&#xef;" horiz-adv-x="230" 
d="M59 668l-43 47l53 48l43 -48zM246 668l-42 47l52 48l43 -48zM54 0l57 546h56l-57 -546h-56z" />
    <glyph glyph-name="ntilde" unicode="&#xf1;" horiz-adv-x="520" 
d="M379 649q-19 0 -62 18t-61 18q-36 0 -71 -24l-20 35q1 1 6 5t9.5 7.5t13 8.5t17.5 8.5t22.5 6t27.5 2.5q24 0 63.5 -18t59.5 -18q38 0 70 28l20 -36q-41 -41 -95 -41zM54 0l57 546h57l-10 -98q4 3 19.5 16.5t20 17.5t18.5 15.5t19.5 15.5t18.5 12.5t20.5 12t19.5 9
t21.5 7.5t21.5 4t24 2q49 0 69 -25t20 -78q0 -31 -4 -63l-43 -394h-56l42 381q4 32 4 61q0 36 -11 51t-39 15q-32 0 -72.5 -25t-118.5 -91l-42 -392h-56z" />
    <glyph glyph-name="ograve" unicode="&#xf2;" horiz-adv-x="515" 
d="M344 619l-168 122l34 45l162 -129zM197 -12q-68 0 -108 54.5t-40 132.5q0 176 73.5 280.5t190.5 104.5q69 0 107 -54.5t38 -126.5t-14.5 -138.5t-44 -124.5t-82 -93t-120.5 -35zM214 38q77 0 131.5 93t54.5 230q0 77 -25 113.5t-84 36.5q-75 0 -129 -94t-54 -224
q0 -155 106 -155z" />
    <glyph glyph-name="oacute" unicode="&#xf3;" horiz-adv-x="515" 
d="M260 622l-27 37l174 137l34 -46zM197 -12q-68 0 -108 54.5t-40 132.5q0 176 73.5 280.5t190.5 104.5q69 0 107 -54.5t38 -126.5t-14.5 -138.5t-44 -124.5t-82 -93t-120.5 -35zM214 38q77 0 131.5 93t54.5 230q0 77 -25 113.5t-84 36.5q-75 0 -129 -94t-54 -224
q0 -155 106 -155z" />
    <glyph glyph-name="ocircumflex" unicode="&#xf4;" horiz-adv-x="515" 
d="M173 626l-23 39l185 111l154 -111l-25 -39l-136 90zM197 -12q-68 0 -108 54.5t-40 132.5q0 176 73.5 280.5t190.5 104.5q69 0 107 -54.5t38 -126.5t-14.5 -138.5t-44 -124.5t-82 -93t-120.5 -35zM214 38q77 0 131.5 93t54.5 230q0 77 -25 113.5t-84 36.5q-75 0 -129 -94
t-54 -224q0 -155 106 -155z" />
    <glyph glyph-name="otilde" unicode="&#xf5;" horiz-adv-x="515" 
d="M374 649q-19 0 -62 18t-61 18q-37 0 -71 -24l-20 35q1 1 6 5t9.5 7.5t13 8.5t17.5 8.5t22.5 6t27.5 2.5q24 0 63.5 -18t59.5 -18q38 0 70 28l20 -36q-41 -41 -95 -41zM197 -12q-68 0 -108 54.5t-40 132.5q0 176 73.5 280.5t190.5 104.5q69 0 107 -54.5t38 -126.5
t-14.5 -138.5t-44 -124.5t-82 -93t-120.5 -35zM214 38q77 0 131.5 93t54.5 230q0 77 -25 113.5t-84 36.5q-75 0 -129 -94t-54 -224q0 -155 106 -155z" />
    <glyph glyph-name="odieresis" unicode="&#xf6;" horiz-adv-x="515" 
d="M214 668l-43 47l53 48l43 -48zM401 668l-42 47l52 48l43 -48zM197 -12q-68 0 -108 54.5t-40 132.5q0 176 73.5 280.5t190.5 104.5q69 0 107 -54.5t38 -126.5t-14.5 -138.5t-44 -124.5t-82 -93t-120.5 -35zM214 38q77 0 131.5 93t54.5 230q0 77 -25 113.5t-84 36.5
q-75 0 -129 -94t-54 -224q0 -155 106 -155z" />
    <glyph glyph-name="oslash" unicode="&#xf8;" horiz-adv-x="515" 
d="M13 -28l-34 29l82 96q-12 41 -12 78q0 174 74 279.5t190 105.5q63 0 104 -51l55 63l34 -28l-65 -77q17 -42 17 -88q0 -72 -14.5 -138.5t-44 -124.5t-82 -93t-120.5 -35q-73 0 -115 64zM111 154l269 312q-26 45 -89 45q-73 0 -128 -91.5t-55 -226.5zM214 38q77 0 131.5 93
t54.5 230q0 24 -4 54l-274 -317q23 -60 92 -60z" />
    <glyph glyph-name="ugrave" unicode="&#xf9;" horiz-adv-x="520" 
d="M334 619l-168 122l34 45l162 -129zM160 -11q-53 0 -75.5 26.5t-22.5 82.5q0 22 3 47l43 401h56l-42 -379q-4 -35 -4 -64q0 -38 11.5 -52.5t40.5 -14.5q33 0 68.5 19t59 40t61.5 60l42 391h56l-58 -546h-56l10 98q-54 -55 -96.5 -82t-96.5 -27z" />
    <glyph glyph-name="uacute" unicode="&#xfa;" horiz-adv-x="520" 
d="M260 622l-27 37l174 137l34 -46zM160 -11q-53 0 -75.5 26.5t-22.5 82.5q0 22 3 47l43 401h56l-42 -379q-4 -35 -4 -64q0 -38 11.5 -52.5t40.5 -14.5q33 0 68.5 19t59 40t61.5 60l42 391h56l-58 -546h-56l10 98q-54 -55 -96.5 -82t-96.5 -27z" />
    <glyph glyph-name="ucircumflex" unicode="&#xfb;" horiz-adv-x="520" 
d="M155 626l-23 39l185 111l154 -111l-25 -39l-136 90zM160 -11q-53 0 -75.5 26.5t-22.5 82.5q0 22 3 47l43 401h56l-42 -379q-4 -35 -4 -64q0 -38 11.5 -52.5t40.5 -14.5q33 0 68.5 19t59 40t61.5 60l42 391h56l-58 -546h-56l10 98q-54 -55 -96.5 -82t-96.5 -27z" />
    <glyph glyph-name="udieresis" unicode="&#xfc;" horiz-adv-x="520" 
d="M203 668l-43 47l53 48l43 -48zM390 668l-42 47l52 48l43 -48zM160 -11q-53 0 -75.5 26.5t-22.5 82.5q0 22 3 47l43 401h56l-42 -379q-4 -35 -4 -64q0 -38 11.5 -52.5t40.5 -14.5q33 0 68.5 19t59 40t61.5 60l42 391h56l-58 -546h-56l10 98q-54 -55 -96.5 -82t-96.5 -27z
" />
    <glyph glyph-name="ydieresis" unicode="&#xff;" horiz-adv-x="471" 
d="M174 668l-43 47l53 48l43 -48zM361 668l-42 47l52 48l43 -48zM73 -220l106 220h-41l-87 546h62l77 -517l160 334q20 42 33.5 91t13.5 80q0 2 -0.5 6t-0.5 6h57v-12q0 -76 -47 -175l-275 -579h-58z" />
    <glyph glyph-name="OE" unicode="&#x152;" horiz-adv-x="1094" 
d="M361 -11q-141 0 -216 87t-75 234q0 180 102.5 294t278.5 114q137 0 215 -84l8 73h377l-5 -50h-318l-29 -276h296l-5 -52h-296l-30 -279h342l-5 -50h-402l8 69q-99 -80 -246 -80zM370 42q161 0 247 122l39 373q-58 126 -214 126q-146 0 -228.5 -99.5t-82.5 -251.5
q0 -122 60.5 -196t178.5 -74z" />
    <glyph glyph-name="oe" unicode="&#x153;" horiz-adv-x="802" 
d="M197 -12q-68 0 -108 54.5t-40 132.5q0 176 73.5 280.5t190.5 104.5q52 0 86.5 -32t49.5 -83q70 116 192 116q63 0 94.5 -33.5t31.5 -85.5q0 -88 -132 -138l-188 -72q-1 -10 -1 -31q0 -160 68 -160q65 0 173 54l20 -45q-84 -44 -130 -54q-35 -8 -70 -8q-89 0 -112 120
q-71 -120 -198 -120zM214 38q77 0 131.5 93t54.5 230q0 77 -25 113.5t-84 36.5q-72 0 -127.5 -93t-55.5 -225q0 -155 106 -155zM452 286l168 67q91 36 91 87q0 37 -21 53.5t-52 16.5q-149 0 -186 -224z" />
    <glyph glyph-name="Ydieresis" unicode="&#x178;" horiz-adv-x="536" 
d="M213 750l-42 50l52 48l43 -48zM410 750l-42 50l52 48l44 -48zM203 0l29 284l-177 423h65l149 -371l243 371h63l-283 -423l-30 -284h-59z" />
    <glyph glyph-name="florin" unicode="&#x192;" horiz-adv-x="478" 
d="M-7 -9l2 47q6 0 18 1q30 2 44.5 3.5t38 6t36.5 13.5t28 24t23.5 39t12.5 57l10 79h-104l5 50h106l6 45q8 61 32 102t61.5 60.5t74.5 26.5t86 7l-2 -48q-86 -8 -112 -18q-67 -25 -82 -121q-1 -5 -2 -11l-6 -43h111l-5 -50h-113l-11 -82q-6 -42 -20 -74.5t-36 -52.5
t-44.5 -33t-53 -18.5t-53 -7.5t-51.5 -2z" />
    <glyph glyph-name="Ayb.arm" unicode="&#x531;" horiz-adv-x="745" 
d="M338 -12q-50 0 -91 9.5t-77.5 31.5t-57 64t-20.5 101q0 11 2 39l50 474h61l-49 -467q-2 -26 -2 -36q0 -164 181 -164q92 0 151.5 50t72.5 175l46 442h56l-47 -445q-10 -94 -48 -158l136 -93l-34 -47l-136 97q-70 -73 -194 -73z" />
    <glyph glyph-name="Ben.arm" unicode="&#x532;" horiz-adv-x="691" 
d="M392 719q50 0 91 -9.5t77.5 -31.5t57 -64t20.5 -101q0 -5 -2 -33q0 -21 -2 -35l-62 -7q2 14 2 33q2 28 2 32q0 164 -181 164q-92 0 -151.5 -50t-72.5 -175l-15 -142h466l-7 -52h-464l-26 -248h-56l47 445q8 79 35.5 135.5t68 85.5t82.5 41t90 12z" />
    <glyph glyph-name="Gim.arm" unicode="&#x533;" horiz-adv-x="702" 
d="M348 717q36 0 68 -6t63.5 -21.5t54 -39.5t36.5 -64t14 -92q0 -24 -3 -51l-15 -143h122l-5 -52h-123l-26 -248h-59l26 248h-209q-231 0 -231 186q0 20 3 44q13 120 95 179.5t189 59.5zM120 471q-16 -171 173 -171h214l15 139q2 16 2 44q0 183 -181 183q-201 0 -223 -195z
" />
    <glyph glyph-name="Da.arm" unicode="&#x534;" horiz-adv-x="706" 
d="M696 300h-130l-31 -300h-61l49 467q2 26 2 36q0 164 -181 164q-92 0 -151.5 -50t-72.5 -175l-8 -74h-55l8 77q8 79 35.5 135.5t68 85.5t82.5 41t90 12q50 0 91 -9.5t77.5 -31.5t57 -64t20.5 -101q0 -11 -2 -39l-13 -122h129z" />
    <glyph glyph-name="Ech.arm" unicode="&#x535;" horiz-adv-x="688" 
d="M338 -12q-50 0 -91 9.5t-77.5 31.5t-57 64t-20.5 101q0 11 2 39l50 474h61l-17 -161h439l-5 -52h-440l-26 -254q-2 -26 -2 -36q0 -164 181 -164q92 0 151.5 50t72.5 175l55 -4q-9 -79 -36 -135t-67.5 -85t-82.5 -41t-90 -12z" />
    <glyph glyph-name="Za.arm" unicode="&#x536;" horiz-adv-x="660" 
d="M76 -52h-55l19 190h56l-7 -66q8 2 12 2q97 22 191 76t154 131q-62 -24 -135 -24q-84 0 -138.5 48t-54.5 144q0 106 67.5 187t177.5 81q108 0 163.5 -61t55.5 -163q0 -141 -111.5 -264t-262.5 -161v-2l235 6q75 2 114 -19t50 -81l-52 -24q-13 46 -37.5 59t-72.5 13h-362z
M330 304q78 0 154 33q41 74 41 157q0 74 -38.5 124t-127.5 50q-87 0 -134.5 -63t-47.5 -155q0 -146 153 -146z" />
    <glyph glyph-name="Eh.arm" unicode="&#x537;" horiz-adv-x="566" 
d="M532 494h-344l-46 -442h121q87 0 133.5 -28.5t55.5 -93.5l-53 -21q-6 49 -35 70t-80 21h-206l74 707h59l-17 -161h344z" />
    <glyph glyph-name="Et.arm" unicode="&#x538;" horiz-adv-x="690" 
d="M392 719q50 0 91 -9.5t77.5 -31.5t57 -64t20.5 -101q0 -5 -2 -33q0 -21 -2 -35l-62 -4q2 14 2 32q2 24 2 30q0 164 -181 164q-92 0 -151.5 -50t-72.5 -175l-41 -390h462l-7 -52h-516l47 445q8 79 35.5 135.5t68 85.5t82.5 41t90 12z" />
    <glyph glyph-name="To.arm" unicode="&#x539;" horiz-adv-x="864" 
d="M472 717q142 0 219 -66t77 -203q0 -14 -2 -48h91l-5 -52h-92l-13 -127q-13 -121 -82.5 -177t-169.5 -56q-84 0 -130 45.5t-46 132.5q0 104 76 169t186 65h125q2 24 2 37q0 108 -60 168t-182 60q-139 0 -213 -73t-88 -203l-41 -389h-59l42 392q18 166 112 245.5t253 79.5z
M503 38q165 0 185 183l13 127h-125q-88 0 -142 -50t-54 -126q0 -134 123 -134z" />
    <glyph glyph-name="Zhe.arm" unicode="&#x53a;" horiz-adv-x="716" 
d="M277 -12q-98 0 -166.5 56t-68.5 167q0 10 2 36q14 133 99 204.5t220 71.5h180l19 184h59l-19 -184h120l-6 -52h-120l-21 -209q-9 -79 -39.5 -135.5t-75 -85t-89.5 -41t-94 -12.5zM106 254q-2 -24 -2 -33q0 -90 51.5 -135t126.5 -45q210 0 234 225l21 205h-182
q-104 0 -171 -56.5t-78 -160.5z" />
    <glyph glyph-name="Ini.arm" unicode="&#x53b;" horiz-adv-x="702" 
d="M211 707l-26 -243q44 46 105.5 71t120.5 25q44 0 83 -11t74.5 -35.5t56.5 -71.5t21 -112q0 -22 -3 -47l-12 -113h-59l12 109q3 26 3 47q0 181 -181 181q-73 0 -138.5 -35.5t-91.5 -94.5l-40 -377h-59l75 707h59z" />
    <glyph glyph-name="Liwn.arm" unicode="&#x53c;" horiz-adv-x="493" 
d="M77 0l75 707h59l-68 -653h307l-6 -54h-367z" />
    <glyph glyph-name="Xeh.arm" unicode="&#x53d;" horiz-adv-x="920" 
d="M152 707h59l-17 -161h253l-32 -304q-2 -15 -2 -43q0 -90 43 -124t120 -34q90 0 140.5 49t63.5 176l29 280h59l-29 -284q-30 -274 -268 -274q-101 0 -159.5 44t-58.5 155q0 23 3 48l26 259h-194l-51 -494h-59z" />
    <glyph glyph-name="Ca.arm" unicode="&#x53e;" horiz-adv-x="818" 
d="M578 621l-1 -3q69 -36 96 -97.5t27 -147.5q0 -73 -21.5 -141t-62 -123.5t-106.5 -88.5t-149 -33q-136 0 -201 79t-65 201q0 127 50 218.5t149 136.5l-1 3q-34 -7 -66 -7q-63 0 -105 25t-60 64l43 36q22 -46 64.5 -62.5t125.5 -16.5h243q150 0 214.5 -34.5t84.5 -110.5
l-50 -30q-24 130 -209 132zM641 379q0 46 -9.5 84.5t-29.5 73t-58 55t-89 22.5h-26q-90 -2 -153.5 -52t-92 -125.5t-28.5 -167.5q0 -102 50.5 -167t163.5 -65q91 0 154 49.5t90.5 124.5t27.5 168z" />
    <glyph glyph-name="Ken.arm" unicode="&#x53f;" horiz-adv-x="690" 
d="M314 159q-47 0 -86.5 10.5t-75.5 34.5t-56 70t-20 111q0 23 3 48l29 274h59l-29 -270q-3 -24 -3 -45q0 -180 185 -180q77 0 140 27t87 83l24 224h59l-58 -546h-59l25 238q-78 -79 -224 -79z" />
    <glyph glyph-name="Ho.arm" unicode="&#x540;" horiz-adv-x="519" 
d="M460 0h-434l-8 50l324 445l-92 52q-62 37 -56 91q5 40 38 81l43 -24q-25 -30 -26 -49q-3 -29 28 -50l137 -84l-330 -458h381z" />
    <glyph glyph-name="Ja.arm" unicode="&#x541;" horiz-adv-x="710" 
d="M391 717q113 0 178 -66t65 -190q0 -212 -145 -352q82 -62 158 -62l-13 -49q-86 0 -188 74q-112 -84 -241 -84q-85 0 -125.5 32t-40.5 82q0 63 50.5 98.5t133.5 35.5q47 0 90.5 -15.5t69.5 -32t64 -46.5q60 60 94 142.5t34 168.5q0 111 -53.5 162t-136.5 51
q-88 0 -155 -51t-79 -166l-61 7q9 90 58 151t111 85.5t132 24.5zM208 38q106 0 196 66q-52 40 -94 61t-92 21q-118 0 -118 -74q0 -35 28 -54.5t80 -19.5z" />
    <glyph glyph-name="Ghad.arm" unicode="&#x542;" horiz-adv-x="705" 
d="M677 0h-203l49 467q2 26 2 36q0 164 -181 164q-92 0 -151.5 -50t-72.5 -175l-8 -74h-55l8 77q8 79 35.5 135.5t68 85.5t82.5 41t90 12q50 0 91 -9.5t77.5 -31.5t57 -64t20.5 -101q0 -11 -2 -39l-45 -422h142z" />
    <glyph glyph-name="Cheh.arm" unicode="&#x543;" horiz-adv-x="706" 
d="M654 0h-65l-49 125q-133 -137 -292 -137q-191 0 -191 189q0 229 229 382q-58 35 -137 51l30 46q92 -19 160 -64q149 84 336 122l12 -47q-168 -36 -304 -110q77 -71 128 -197zM266 40q126 0 256 132l-57 149q-52 137 -133 206q-215 -139 -215 -343q0 -45 12 -75.5
t35.5 -44.5t46.5 -19t55 -5z" />
    <glyph glyph-name="Men.arm" unicode="&#x544;" horiz-adv-x="757" 
d="M796 655h-141l-41 -393q-8 -79 -35.5 -135.5t-68 -85.5t-82.5 -41t-90 -12q-50 0 -91 9.5t-77.5 31.5t-57 64t-20.5 101q0 11 2 39l50 474h61l-49 -467q-2 -26 -2 -36q0 -164 181 -164q92 0 151.5 50t72.5 175l46 442h196z" />
    <glyph glyph-name="Yi.arm" unicode="&#x545;" horiz-adv-x="684" 
d="M293 -12q-217 0 -249 159l57 18q10 -65 66 -96t131 -31q124 0 187.5 52.5t63.5 141.5q0 54 -36 85t-103 31h-316l5 52h297q69 0 117.5 39.5t48.5 96.5q0 129 -189 129q-72 0 -129.5 -30t-79.5 -88l-55 11q33 80 104 119.5t166 39.5q114 0 176.5 -43.5t62.5 -127.5
q0 -59 -32.5 -102.5t-89.5 -64.5q110 -32 110 -138q0 -126 -88.5 -189.5t-224.5 -63.5z" />
    <glyph glyph-name="Now.arm" unicode="&#x546;" horiz-adv-x="706" 
d="M377 -12q-50 0 -91 9.5t-77.5 31.5t-57 64t-20.5 101q0 11 2 39l44 422h-151l5 52h213l-49 -467q-2 -26 -2 -36q0 -164 181 -164q92 0 151.5 50t72.5 175l5 52h56l-6 -55q-8 -79 -35.5 -135.5t-68 -85.5t-82.5 -41t-90 -12z" />
    <glyph glyph-name="Sha.arm" unicode="&#x547;" horiz-adv-x="685" 
d="M631 559l-184 35q-133 -21 -230 -121t-97 -235q0 -104 53.5 -151t140.5 -47q208 0 236 197l55 -5q-20 -124 -97 -184t-200 -60q-111 0 -179 58t-68 185q0 129 79.5 232t206.5 150l-215 42l17 57l495 -103z" />
    <glyph glyph-name="Vo.arm" unicode="&#x548;" horiz-adv-x="722" 
d="M392 719q50 0 91 -9.5t77.5 -31.5t57 -64t20.5 -101q0 -11 -2 -39l-50 -474h-61l49 467q2 26 2 36q0 164 -181 164q-92 0 -151.5 -50t-72.5 -175l-46 -442h-56l47 445q8 79 35.5 135.5t68 85.5t82.5 41t90 12z" />
    <glyph glyph-name="Cha.arm" unicode="&#x549;" horiz-adv-x="676" 
d="M469 -32l-431 157l25 51l174 -65q56 18 100.5 38t91 51t77.5 67.5t51 89t20 114.5q0 97 -54 145.5t-136 48.5q-43 0 -77.5 -8t-70.5 -30.5t-59 -70t-30 -117.5l-57 1q15 144 94 210.5t206 66.5q111 0 176.5 -64.5t65.5 -175.5q0 -269 -325 -393l182 -67z" />
    <glyph glyph-name="Peh.arm" unicode="&#x54a;" horiz-adv-x="829" 
d="M347 153l53 509q-122 -8 -193.5 -78.5t-84.5 -193.5l-10 -90h-59l10 92q9 87 43.5 152t86.5 101.5t113 54t130 17.5q65 0 117.5 -14t96.5 -44.5t68 -85t24 -128.5q0 -25 -3 -53l-41 -392h-59l41 389q2 15 2 44q0 105 -57 163.5t-166 65.5l-53 -509h-59z" />
    <glyph glyph-name="Jheh.arm" unicode="&#x54b;" horiz-adv-x="659" 
d="M75 -52h-55l19 190h56l-7 -66l8 2q119 24 224 93q4 17 4 35q0 41 -21 70.5t-50.5 48.5t-59 39t-50.5 55.5t-21 85.5q0 90 71 153t169 63q110 0 164.5 -56.5t54.5 -153.5q0 -142 -103 -267t-249 -167l2 -5l211 4q74 2 113.5 -19t50.5 -81l-52 -24q-13 46 -37.5 59
t-72.5 13h-362zM362 199l1 -1q161 126 161 294q0 34 -8.5 63.5t-26.5 55.5t-52 41t-81 15q-82 0 -129 -50.5t-47 -106.5q0 -40 19.5 -70.5t47 -49.5t54.5 -38t46.5 -47.5t19.5 -66.5q0 -16 -5 -39z" />
    <glyph glyph-name="Ra.arm" unicode="&#x54c;" horiz-adv-x="780" 
d="M415 717q243 0 243 -224q0 -23 -3 -50l-4 -35l-6 -58h133l-6 -52h-132l-31 -298h-59l43 415l3 24q2 28 2 41q0 99 -52 141.5t-136 42.5q-40 0 -76.5 -10.5t-71 -33t-58 -66t-29.5 -103.5l-47 -451h-59l48 458q7 69 36 120.5t72 81t90.5 43.5t99.5 14z" />
    <glyph glyph-name="Seh.arm" unicode="&#x54d;" horiz-adv-x="721" 
d="M338 -12q-50 0 -91 9.5t-77.5 31.5t-57 64t-20.5 101q0 11 2 39l50 474h61l-49 -467q-2 -26 -2 -36q0 -164 181 -164q92 0 151.5 50t72.5 175l46 442h56l-47 -445q-8 -79 -35.5 -135.5t-68 -85.5t-82.5 -41t-90 -12z" />
    <glyph glyph-name="Vew.arm" unicode="&#x54e;" horiz-adv-x="740" 
d="M705 0h-203l24 228q-76 -69 -223 -69q-48 0 -87.5 10.5t-75 34t-55.5 69.5t-20 111q0 24 3 49l12 113h59l-12 -109q-3 -24 -3 -45q0 -180 185 -180q179 0 225 95l43 400h59l-70 -655h145z" />
    <glyph glyph-name="Tiwn.arm" unicode="&#x54f;" horiz-adv-x="630" 
d="M353 717q145 0 209 -103l-45 -34q-22 41 -67.5 63t-101.5 22q-78 0 -130 -38.5t-52 -94.5q0 -36 22 -60.5t57 -38t77.5 -24.5t85.5 -24.5t78 -33t57 -55.5t22 -87q0 -98 -78.5 -159.5t-200.5 -61.5q-170 0 -259 134l45 37q84 -115 215 -115q94 0 156.5 42t62.5 116
q0 43 -22 72t-57 44t-77 25.5t-84 22.5t-77 30t-57 52.5t-22 84.5q0 71 66.5 127.5t176.5 56.5z" />
    <glyph glyph-name="Reh.arm" unicode="&#x550;" horiz-adv-x="673" 
d="M392 719q39 0 74 -5.5t69 -20t57.5 -37t36.5 -59.5t9 -84l-12 -150h-58l10 140q3 48 -12 82t-43 51t-59 24t-69 7q-92 0 -151.5 -50t-72.5 -175l-46 -442h-56l47 445q8 79 35.5 135.5t68 85.5t82.5 41t90 12z" />
    <glyph glyph-name="Co.arm" unicode="&#x551;" horiz-adv-x="690" 
d="M124 530q0 61 44 105.5t100.5 63t113.5 18.5q219 0 219 -169q0 -108 -124 -152q140 -37 140 -171q0 -81 -48.5 -136.5t-116.5 -78t-147 -22.5q-106 0 -172 30.5t-101 109.5l48 32q31 -70 86 -96t144 -26q122 0 186 52t64 131q0 73 -47 108t-168 35q-149 0 -220 -58
l-40 34q42 40 122 57q-83 35 -83 133zM179 533q0 -119 162 -122h9q86 0 141.5 36t55.5 97q0 69 -41 97.5t-129 28.5q-87 0 -142.5 -37t-55.5 -100z" />
    <glyph glyph-name="Yiwn.arm" unicode="&#x552;" horiz-adv-x="590" 
d="M152 707h61l-18 -169q52 19 118 19q50 0 81.5 -21t44 -56t17 -70t8 -72.5t11.5 -54.5q14 -32 36 -44.5t67 -12.5l-11 -53q-17 -3 -32 -3q-70 0 -108 72q-16 30 -23 81.5t-9.5 88t-25 64.5t-69.5 28q-62 0 -111 -17l-51 -487h-61z" />
    <glyph glyph-name="Piwr.arm" unicode="&#x553;" horiz-adv-x="792" 
d="M334 0l9 85q-133 0 -210.5 62.5t-77.5 183.5q0 152 93 238t255 92l8 76h59l-8 -76q133 0 210.5 -62.5t77.5 -184.5q0 -151 -93.5 -237.5t-254.5 -91.5l-9 -85h-59zM407 136q127 2 205.5 73t78.5 198q0 98 -61 150.5t-173 52.5zM348 136l50 474q-127 -2 -206 -72.5
t-79 -198.5q0 -98 61.5 -150.5t173.5 -52.5z" />
    <glyph glyph-name="Keh.arm" unicode="&#x554;" horiz-adv-x="674" 
d="M586 118h-414l-13 -118h-57l12 118h-111l5 50h112l34 319q12 103 76.5 166.5t179.5 63.5q104 0 154 -51.5t50 -141.5q0 -114 -67 -190t-188 -76q-89 0 -167 40l-15 -130h414zM213 483l-16 -136q72 -40 168 -41q94 1 142 59t48 156q0 145 -152 145q-172 0 -190 -183z" />
    <glyph glyph-name="Oh.arm" unicode="&#x555;" horiz-adv-x="808" 
d="M361 -11q-141 0 -216 87t-75 234q0 180 102.5 294t278.5 114q141 0 218 -87.5t77 -233.5q0 -181 -103.5 -294.5t-281.5 -113.5zM370 40q149 0 231 102t82 256q0 122 -62 194.5t-179 72.5q-146 0 -228.5 -100.5t-82.5 -252.5q0 -122 60.5 -197t178.5 -75z" />
    <glyph glyph-name="Feh.arm" unicode="&#x556;" horiz-adv-x="736" 
d="M461 703l-30 -279q120 -3 188 -45.5t68 -140.5q0 -105 -97.5 -177.5t-246.5 -72.5q-122 0 -206 46t-118 103l40 39q32 -51 103.5 -92.5t169.5 -46.5l35 339q-75 3 -125.5 17.5t-74 39.5t-32 49.5t-8.5 56.5q0 71 61 124.5t176 53.5q47 0 97 -14zM630 231q0 67 -47 103.5
t-157 40.5l-35 -337q100 10 169.5 67.5t69.5 125.5zM184 545q0 -27 6 -44.5t23.5 -35.5t57 -28t101.5 -12l26 242q-10 1 -39 1q-85 0 -130 -37.5t-45 -85.5z" />
    <glyph glyph-name="ringhalfleft.arm" unicode="&#x559;" horiz-adv-x="113" 
d="M94 572h-48q0 1 -7 21t-9.5 29t-6 27.5t-3.5 34.5q0 23 6 47l6 24h65l-7 -38q-4 -23 -4 -56q0 -57 8 -89z" />
    <glyph glyph-name="apostrophe.arm" unicode="&#x55a;" horiz-adv-x="196" 
d="M83 572q29 71 41 153l3 30h65q0 -19 -3 -35q-3 -26 -11 -50.5t-13 -35t-19.5 -35.5t-15.5 -27h-47z" />
    <glyph glyph-name="emphasismark.arm" unicode="&#x55b;" horiz-adv-x="83" 
d="M-264 746l-23 30l144 153l44 -48z" />
    <glyph glyph-name="exclam.arm" unicode="&#x55c;" horiz-adv-x="0" 
d="M-50 839q-2 -4 -38 -1t-44 3q-27 0 -44 -8q-10 -2 -20 -8.5t-24 -20t-19 -17.5l-25 33q8 12 32 31t50 31q15 7 34 7q11 0 33.5 -3t32.5 -3q17 0 28 5q27 15 51 46l26 -31q-11 -38 -73 -64z" />
    <glyph glyph-name="comma.arm" unicode="&#x55d;" horiz-adv-x="221" 
d="M203 593l-42 -26l-115 168l69 32z" />
    <glyph glyph-name="question.arm" unicode="&#x55e;" horiz-adv-x="0" 
d="M-117 927q-28 0 -49 -11t-38.5 -37.5t-27 -46t-26.5 -61.5q-5 -11 -7 -17l-47 11q46 117 86.5 163.5t110.5 46.5q53 0 84 -31t31 -82q0 -54 -41.5 -79.5t-97.5 -25.5l-4 41q95 0 95 63q0 30 -19.5 48t-49.5 18z" />
    <glyph glyph-name="abbreviationmark.arm" unicode="&#x55f;" horiz-adv-x="472" 
d="M418 535h-180q-46 0 -78.5 11.5t-48 31t-21.5 38.5t-6 41q0 21 10.5 45t33 48.5t65 40t98.5 15.5l-5 -40l-26 -2q-45 -3 -85.5 -32.5t-40.5 -73.5q0 -80 106 -80h183z" />
    <glyph glyph-name="ayb.arm" unicode="&#x561;" horiz-adv-x="815" 
d="M161 -11q-53 0 -75.5 26.5t-22.5 82.5q0 22 3 47l40 377h56l-39 -355q-4 -35 -4 -64q0 -38 11.5 -52.5t40.5 -14.5q46 0 90 31t100 88l39 367h56l-39 -355q-4 -35 -4 -64q0 -38 11.5 -52.5t40.5 -14.5q33 0 68.5 19t59 40t61.5 60l39 367h56l-55 -522h-56l10 98
q-54 -55 -96.5 -82t-96.5 -27q-53 0 -75.5 26.5t-22.5 82.5v2q-51 -54 -96.5 -82.5t-99.5 -28.5z" />
    <glyph glyph-name="ben.arm" unicode="&#x562;" horiz-adv-x="506" 
d="M401 0h-291l-24 -220h-56l80 742h57l-10 -98q4 3 19.5 16.5t20 17.5t18.5 15.5t19.5 15.5t18.5 12.5t20.5 12t19.5 9t21.5 7.5t21.5 4t24 2q49 0 69 -25t20 -78q0 -31 -4 -63l-15 -129h-56l14 116q4 32 4 61q0 36 -11 51t-39 15q-32 0 -72.5 -25t-118.5 -91l-35 -320h290
z" />
    <glyph glyph-name="gim.arm" unicode="&#x563;" horiz-adv-x="529" 
d="M308 -220l35 327q-71 -62 -117 -91t-86 -29q-99 0 -99 164q0 154 92.5 269.5t218.5 115.5q57 0 90 -7l-50 -480h126l-5 -50h-126l-22 -219h-57zM152 42q34 0 97 47t100 84l33 311q-10 2 -41 2q-98 0 -171 -101.5t-73 -224.5q0 -70 14 -94t41 -24z" />
    <glyph glyph-name="da.arm" unicode="&#x564;" horiz-adv-x="535" 
d="M54 0l57 522h57l-10 -98q4 3 19.5 16.5t20 17.5t18.5 15.5t19.5 15.5t18.5 12.5t20.5 12t19.5 9t21.5 7.5t21.5 4t24 2q49 0 69 -25t20 -78q0 -31 -4 -63l-39 -320h109l-5 -50h-110l-27 -220h-56l71 577q4 32 4 61q0 36 -11 51t-39 15q-32 0 -72.5 -25t-118.5 -91
l-42 -368h-56z" />
    <glyph glyph-name="ech.arm" unicode="&#x565;" horiz-adv-x="507" 
d="M448 474h-293l-33 -307q-4 -35 -4 -64q0 -38 11.5 -52.5t40.5 -14.5q33 0 68.5 19t59 40t61.5 60l13 125h56l-29 -280h-56l10 98q-54 -55 -96.5 -82t-96.5 -27q-53 0 -75.5 26.5t-22.5 82.5q0 22 3 47l65 610h56l-26 -233h293z" />
    <glyph glyph-name="za.arm" unicode="&#x566;" horiz-adv-x="507" 
d="M308 -220l35 327q-71 -62 -117 -91t-86 -29q-99 0 -99 164q0 154 92.5 269.5t218.5 115.5q57 0 90 -7l-72 -699h117l-5 -50h-174zM152 42q34 0 97 47t100 84l33 311q-10 2 -41 2q-98 0 -171 -101.5t-73 -224.5q0 -70 14 -94t41 -24z" />
    <glyph glyph-name="eh.arm" unicode="&#x567;" horiz-adv-x="399" 
d="M382 474h-223l-45 -426h113q35 0 56.5 -7.5t30.5 -22.5t11 -29t1 -34l-55 -16q3 31 -10.5 46t-60.5 15h-146l79 755h55l-24 -233h223z" />
    <glyph glyph-name="et.arm" unicode="&#x568;" 
d="M30 -220l80 742h57l-10 -98q4 3 19.5 16.5t20 17.5t18.5 15.5t19.5 15.5t18.5 12.5t20.5 12t19.5 9t21.5 7.5t21.5 4t24 2q49 0 69 -25t20 -78q0 -31 -4 -63l-43 -370h-56l42 357q4 32 4 61q0 36 -11 51t-39 15q-32 0 -72.5 -25t-118.5 -91l-60 -538h292l-5 -50h-348z
" />
    <glyph glyph-name="to.arm" unicode="&#x569;" horiz-adv-x="584" 
d="M361 536q42 0 71.5 -21t43.5 -55.5t20 -69t6 -72.5v-7h83l-5 -49h-81q-12 -129 -71.5 -201t-144.5 -72q-37 0 -66.5 27t-29.5 78q0 74 38 125t91.5 71.5t118.5 20.5h9v8q0 167 -92 167q-59 0 -199 -106l-66 -600h-55l78 742h56l-7 -86q13 11 37 28t48.5 33t56.5 27.5
t60 11.5zM297 39q55 0 94.5 61.5t49.5 161.5h-21q-73 0 -126.5 -41.5t-53.5 -116.5q0 -31 15.5 -48t41.5 -17z" />
    <glyph glyph-name="zhe.arm" unicode="&#x56a;" horiz-adv-x="503" 
d="M422 522h106l-4 -48h-107l-11 -110q-5 -45 -9 -76.5t-12.5 -74t-19 -71.5t-28 -60.5t-39 -50t-53 -31t-69.5 -12.5q-66 0 -104 52.5t-38 127.5q0 70 15.5 130t49 112t94.5 82t144 30h29l25 233h56zM93 185q0 -28 3 -50t12.5 -46t31 -37.5t54.5 -13.5q59 0 97.5 69.5
t52.5 200.5l17 166h-36q-63 0 -109.5 -25.5t-72.5 -68.5t-38 -91.5t-12 -103.5z" />
    <glyph glyph-name="ini.arm" unicode="&#x56b;" horiz-adv-x="525" 
d="M33 -220l106 975h57l-35 -331q4 3 19.5 16.5t20 17.5t18.5 15.5t19.5 15.5t18.5 12.5t20.5 12t19.5 9t21.5 7.5t21.5 4t24 2q49 0 69 -25t20 -78q0 -31 -4 -63l-43 -370h-56l42 357q4 32 4 61q0 36 -11 51t-39 15q-32 0 -72.5 -25t-118.5 -91l-66 -588h-56z" />
    <glyph glyph-name="liwn.arm" unicode="&#x56c;" horiz-adv-x="256" 
d="M30 -220l80 742h57l-76 -692h132l-5 -50h-188z" />
    <glyph glyph-name="xeh.arm" unicode="&#x56d;" horiz-adv-x="746" 
d="M33 -220l103 975h55l-25 -233h221l-39 -355q-4 -35 -4 -64q0 -38 11.5 -52.5t40.5 -14.5q33 0 68.5 19t59 40t61.5 60l39 367h56l-55 -522h-56l10 98q-54 -55 -96.5 -82t-96.5 -27q-53 0 -75.5 26.5t-22.5 82.5q0 22 3 47l35 329h-165l-73 -694h-55z" />
    <glyph glyph-name="ca.arm" unicode="&#x56e;" horiz-adv-x="525" 
d="M151 628l72 118l44 -22l-46 -75q98 -54 152 -127h136l-4 -48h-103q25 -55 25 -110q0 -67 -12 -129t-37.5 -120t-74 -92.5t-113.5 -34.5q-67 0 -106.5 50.5t-39.5 129.5q0 330 258 352q-18 20 -42 39t-38 28t-42 25t-29 16zM103 186q0 -28 2.5 -48.5t11.5 -46t30.5 -39.5
t53.5 -14q73 0 121 86t48 220q0 72 -34 130q-10 0 -28 -2q-59 -6 -101 -33.5t-63.5 -70.5t-31 -87t-9.5 -95z" />
    <glyph glyph-name="ken.arm" unicode="&#x56f;" horiz-adv-x="520" 
d="M160 -11q-53 0 -75.5 26.5t-22.5 82.5q0 22 3 47l67 610h56l-66 -588q-4 -35 -4 -64q0 -38 11.5 -52.5t40.5 -14.5q33 0 68.5 19t59 40t61.5 60l39 367h56l-78 -742h-56l33 318q-54 -55 -96.5 -82t-96.5 -27z" />
    <glyph glyph-name="ho.arm" unicode="&#x570;" 
d="M53 0l82 755h57l-35 -331q4 3 19.5 16.5t20 17.5t18.5 15.5t19.5 15.5t18.5 12.5t20.5 12t19.5 9t21.5 7.5t21.5 4t24 2q49 0 69 -25t20 -78q0 -31 -4 -63l-43 -370h-56l42 357q4 32 4 61q0 36 -11 51t-39 15q-32 0 -72.5 -25t-118.5 -91l-42 -368h-56z" />
    <glyph glyph-name="ja.arm" unicode="&#x571;" horiz-adv-x="506" 
d="M459 0h-63l-27 89q-48 -45 -103.5 -73t-105.5 -28q-67 0 -101 31.5t-34 102.5q0 77 64 182.5t191 218.5l-27 30q-49 50 -42 99q1 35 47 81l20 18l33 -30l-16 -18q-31 -31 -31 -50q-2 -19 8 -35.5t34 -43.5l47 -56q-34 -30 -48 -44zM160 35q81 0 195 99l-92 300
q-183 -185 -183 -305q0 -50 19.5 -72t60.5 -22z" />
    <glyph glyph-name="ghad.arm" unicode="&#x572;" horiz-adv-x="540" 
d="M318 -220l71 577q4 32 4 61q0 36 -11 51t-39 15q-32 0 -72.5 -25t-118.5 -91l-42 -368h-56l57 522h57l-10 -98q4 3 19.5 16.5t20 17.5t18.5 15.5t19.5 15.5t18.5 12.5t20.5 12t19.5 9t21.5 7.5t21.5 4t24 2q49 0 69 -25t20 -78q0 -31 -4 -63l-66 -540h116l-5 -50h-173z
" />
    <glyph glyph-name="cheh.arm" unicode="&#x573;" horiz-adv-x="558" 
d="M512 0h-58l-31 99l-6 18q-127 -129 -238 -129q-129 0 -129 135q0 192 129 381q-31 7 -100 12l18 49q64 -1 115 -17l13 17q67 80 122.5 116t132.5 36q25 0 57 -5l-15 -51q-27 6 -52 6q-51 0 -88 -23.5t-92 -80.5l-30 -33q100 -49 141 -183l28 -88zM186 35q45 0 106 37
t112 88l-36 117q-29 94 -58.5 141.5t-80.5 69.5q-56 -82 -90 -179.5t-34 -185.5q0 -33 10 -53t28.5 -26.5t24.5 -7.5t18 -1z" />
    <glyph glyph-name="men.arm" unicode="&#x574;" horiz-adv-x="524" 
d="M161 -12q-53 0 -75.5 27t-22.5 83q0 22 3 47l40 377h56l-39 -355q-4 -35 -4 -64q0 -38 11.5 -53t40.5 -15q44 0 88.5 31t100.5 87l50 475q6 61 31 93.5t82 32.5q48 0 101 -25l-20 -41q-52 19 -77 19q-48 0 -58 -51l-68 -656h-57l9 92q-100 -104 -192 -104z" />
    <glyph glyph-name="yi.arm" unicode="&#x575;" horiz-adv-x="240" 
d="M179 522l-77 -628q-7 -57 -42.5 -91t-95.5 -34q-43 0 -76 18l15 44q29 -14 62 -14q73 0 82 76l76 629h56z" />
    <glyph glyph-name="now.arm" unicode="&#x576;" horiz-adv-x="525" 
d="M165 -11q-53 0 -75.5 26.5t-22.5 82.5q0 22 3 47l52 496h-17q-60 0 -88 13.5t-28 53.5q0 18 4 35l52 11q-9 -39 7.5 -52t50.5 -13h80l-56 -522q-4 -35 -4 -64q0 -38 11.5 -52.5t40.5 -14.5q33 0 68.5 19t59 40t61.5 60l39 367h56l-55 -522h-56l10 98q-54 -55 -96.5 -82
t-96.5 -27z" />
    <glyph glyph-name="sha.arm" unicode="&#x577;" horiz-adv-x="452" 
d="M107 -170h252l-4 -50h-255q-115 0 -113 94q0 26 14 53.5t25 40t38 40.5l175 183q59 61 83 99t30 82q5 49 -22.5 81.5t-81.5 32.5q-97 0 -167 -113l-39 30q31 55 85 94.5t131 39.5q85 0 122.5 -48.5t29.5 -116.5q-5 -39 -24 -77t-37.5 -60.5t-50.5 -56.5l-190 -200
q-63 -67 -63 -102q0 -24 13.5 -35t48.5 -11z" />
    <glyph glyph-name="vo.arm" unicode="&#x578;" horiz-adv-x="522" 
d="M54 0l57 522h57l-10 -98q4 3 19.5 16.5t20 17.5t18.5 15.5t19.5 15.5t18.5 12.5t20.5 12t19.5 9t21.5 7.5t21.5 4t24 2q49 0 69 -25t20 -78q0 -31 -4 -63l-43 -370h-56l42 357q4 32 4 61q0 36 -11 51t-39 15q-32 0 -72.5 -25t-118.5 -91l-42 -368h-56z" />
    <glyph glyph-name="cha.arm" unicode="&#x579;" horiz-adv-x="377" 
d="M118 -170h187l-5 -50h-181q-131 0 -131 90q0 29 11 54.5t37 65.5l188 256l-50 43q-54 47 -54 113q0 58 43 107l40 45l35 -32l-26 -29q-40 -46 -40 -87q0 -40 44 -80l82 -72l-209 -282q-45 -66 -45 -94q0 -48 74 -48z" />
    <glyph glyph-name="peh.arm" unicode="&#x57a;" horiz-adv-x="815" 
d="M161 -11q-53 0 -75.5 26.5t-22.5 82.5q0 22 3 47l40 377h56l-39 -355q-4 -35 -4 -64q0 -38 11.5 -52.5t40.5 -14.5q46 0 90 31t100 88l39 367h56l-39 -355q-4 -35 -4 -64q0 -38 11.5 -52.5t40.5 -14.5q33 0 68.5 19t59 40t61.5 60l39 367h56l-78 -742h-56l33 318
q-54 -55 -96.5 -82t-96.5 -27q-53 0 -75.5 26.5t-22.5 82.5v2q-51 -54 -96.5 -82.5t-99.5 -28.5z" />
    <glyph glyph-name="jheh.arm" unicode="&#x57b;" horiz-adv-x="501" 
d="M143 58l2 4q8 24 8 39q0 23 -13 47.5t-29 43.5t-29 52t-13 71q0 90 57.5 155.5t164.5 65.5q84 0 127 -51t43 -121q0 -111 -174 -255l-163 -134q-71 -58 -71 -100q0 -27 20 -36t64 -9h255l-4 -50h-277q-61 0 -89 25.5t-28 64.5q0 24 6.5 43t25.5 40t29.5 30.5t40.5 34.5z
M194 100l55 46q155 128 155 216q0 52 -33 89t-89 37q-66 0 -109.5 -48t-43.5 -125q0 -48 32 -104t35 -79q1 -14 -2 -32z" />
    <glyph glyph-name="ra.arm" unicode="&#x57c;" horiz-adv-x="516" 
d="M264 0l5 50q124 224 124 358q0 76 -66 76q-31 0 -60.5 -20.5t-114.5 -95.5l-42 -368h-56l57 522h57l-10 -98q9 8 30.5 28.5t30 28t26.5 21.5t30.5 19t31 10t38.5 5q51 0 80 -32t29 -82q0 -75 -32.5 -162t-98.5 -210h108l-5 -50h-162z" />
    <glyph glyph-name="seh.arm" unicode="&#x57d;" 
d="M161 -11q-53 0 -75.5 26.5t-22.5 82.5q0 22 3 47l40 377h56l-39 -355q-4 -35 -4 -64q0 -38 11.5 -52.5t40.5 -14.5q33 0 68.5 19t59 40t61.5 60l39 367h56l-55 -522h-56l10 98q-54 -55 -96.5 -82t-96.5 -27z" />
    <glyph glyph-name="vew.arm" unicode="&#x57e;" horiz-adv-x="528" 
d="M161 -11q-53 0 -75.5 26.5t-22.5 82.5q0 22 3 47l40 377h56l-39 -355q-4 -35 -4 -64q0 -38 11.5 -52.5t40.5 -14.5q33 0 68.5 19t59 40t61.5 60l63 600h56l-96 -925h112l-5 -50h-168l32 318q-54 -55 -96.5 -82t-96.5 -27z" />
    <glyph glyph-name="tiwn.arm" unicode="&#x57f;" horiz-adv-x="811" 
d="M161 -11q-53 0 -75.5 26.5t-22.5 82.5q0 22 3 47l40 377h56l-39 -355q-4 -35 -4 -64q0 -38 11.5 -52.5t40.5 -14.5q33 0 68.5 19t59 40t61.5 60l39 367h56l-11 -100q78 67 108 85q49 29 98 29t69 -25t20 -78q0 -31 -4 -63l-43 -370h-56l42 357q4 32 4 61q0 36 -11 51
t-39 15q-33 0 -75 -25.5t-119 -91.5l-38 -367h-56l10 98q-54 -55 -96.5 -82t-96.5 -27z" />
    <glyph glyph-name="reh.arm" unicode="&#x580;" 
d="M30 -220l80 742h57l-10 -98q4 3 19.5 16.5t20 17.5t18.5 15.5t19.5 15.5t18.5 12.5t20.5 12t19.5 9t21.5 7.5t21.5 4t24 2q49 0 69 -25t20 -78q0 -31 -4 -63l-43 -370h-56l42 357q4 32 4 61q0 36 -11 51t-39 15q-32 0 -72.5 -25t-118.5 -91l-65 -588h-56z" />
    <glyph glyph-name="co.arm" unicode="&#x581;" horiz-adv-x="508" 
d="M145 -231q-78 0 -164 19l13 55q62 -22 139 -22q87 0 136.5 31.5t59.5 123.5l14 131q-67 -63 -113.5 -91.5t-89.5 -28.5q-99 0 -99 160q0 154 94 271.5t219 117.5q57 0 90 -7l-61 -568q-7 -69 -45 -113.5t-86.5 -61.5t-106.5 -17zM152 42q34 0 97 47t100 84l35 311
q-10 2 -41 2q-65 0 -122.5 -49.5t-90.5 -125.5t-33 -155q0 -66 14.5 -90t40.5 -24z" />
    <glyph glyph-name="yiwn.arm" unicode="&#x582;" horiz-adv-x="280" 
d="M54 0l57 522h57l-53 -472h132l-5 -50h-188z" />
    <glyph glyph-name="piwr.arm" unicode="&#x583;" horiz-adv-x="811" 
d="M161 -11q-53 0 -75.5 26.5t-22.5 82.5q0 22 3 47l40 377h56l-39 -355q-4 -35 -4 -64q0 -38 11.5 -52.5t40.5 -14.5q33 0 68.5 19t59 40t61.5 60l64 600h56l-36 -333q78 67 108 85q49 29 98 29t69 -25t20 -78q0 -31 -4 -63l-43 -370h-56l42 357q4 32 4 61q0 36 -11 51
t-39 15q-33 0 -75 -25.5t-119 -91.5l-61 -587h-56l33 318q-54 -55 -96.5 -82t-96.5 -27z" />
    <glyph glyph-name="keh.arm" unicode="&#x584;" horiz-adv-x="536" 
d="M414 -130h-317l-10 -90h-56l9 90h-67l5 46h67l66 606h55l-8 -85q4 3 22.5 16.5t27 19t26.5 17.5t30.5 17.5t30 12.5t34 10t33.5 3q59 0 89 -40.5t30 -114.5q0 -48 -10.5 -99.5t-34 -102.5t-57 -91.5t-83 -66t-107.5 -25.5q-32 0 -78 8l-9 -85h317zM196 43q61 0 108 36
t71.5 91.5t36 109t11.5 99.5q0 59 -19.5 81t-55.5 22q-26 0 -69.5 -21t-63.5 -34.5t-64 -43.5l-34 -328q9 -2 21 -4.5t18.5 -4t17 -2.5t22.5 -1z" />
    <glyph glyph-name="oh.arm" unicode="&#x585;" horiz-adv-x="497" 
d="M191 -12q-66 0 -104 52.5t-38 127.5q0 169 71 269t183 100q66 0 102.5 -52.5t36.5 -120.5q0 -69 -14 -133t-42.5 -120t-78.5 -89.5t-116 -33.5zM209 38q73 0 124.5 88.5t51.5 217.5q0 73 -23.5 107.5t-79.5 34.5q-71 0 -122.5 -89t-51.5 -212q0 -28 3 -50t12.5 -46
t31 -37.5t54.5 -13.5z" />
    <glyph glyph-name="feh.arm" unicode="&#x586;" horiz-adv-x="645" 
d="M388 745l-33 -309q42 -9 70.5 -16.5t63 -22.5t55 -33.5t35 -48.5t14.5 -68q0 -117 -78 -182.5t-206 -74.5l-22 -210h-54l22 208q-185 4 -250 117l42 37q66 -102 213 -104l37 352q-39 8 -64.5 14.5t-56.5 19.5t-49 29t-30.5 41.5t-12.5 57.5q0 45 14.5 80.5t38 57.5t55 37
t62.5 20.5t64 5.5q32 0 70 -8zM535 243q0 26 -10.5 47t-26 34.5t-42 24.5t-50 17.5t-57.5 13.5l-35 -340q112 10 166.5 67.5t54.5 135.5zM140 553q0 -46 40.5 -67.5t122.5 -39.5l27 259q-9 1 -25 1q-29 0 -55.5 -7.5t-52.5 -23.5t-41.5 -47.5t-15.5 -74.5z" />
    <glyph glyph-name="echyiwn.arm" unicode="&#x587;" horiz-adv-x="575" 
d="M516 0h-172l10 98q-54 -55 -96.5 -82t-96.5 -27q-53 0 -75.5 26.5t-22.5 82.5q0 22 3 47l65 611h56l-64 -589q-4 -35 -4 -64q0 -38 11.5 -52.5t40.5 -14.5q33 0 68.5 19t59 40t61.5 60l37 367h56l-48 -474h116z" />
    <glyph glyph-name="period.arm" unicode="&#x589;" horiz-adv-x="293" 
d="M79 0l7 71h70l-7 -71h-70zM119 373l7 71h70l-7 -71h-70z" />
    <glyph glyph-name="hyphen.arm" unicode="&#x58a;" horiz-adv-x="513" 
d="M102 261l5 51h298l-5 -51h-298z" />
    <glyph glyph-name="Dram.arm" unicode="&#x58c;" horiz-adv-x="755" 
d="M694 184h-123l-19 -184h-56l19 184h-125l6 52h124l13 122h-125l6 52h125l3 31l2 23q10 202 -191 202q-213 0 -233 -201l-11 -101l-61 4l11 104q6 58 27 102t49.5 71t67 44t76 23.5t79.5 6.5q37 0 70 -6.5t66.5 -23.5t57 -44t37.5 -71t11 -101q0 -8 -2 -28l-4 -35h124
l-6 -52h-123l-13 -122h124z" />
    <glyph glyph-name="index.arm" unicode="&#x58e;" horiz-adv-x="781" 
d="M430 0h-434l-8 50l324 445l-92 52q-62 37 -56 91q5 40 38 81l43 -24q-25 -30 -26 -49q-3 -29 28 -50l137 -84l-330 -458h381zM636 346l4 37q-2 -1 -14 -8.5t-17 -10l-17 -8.5t-20.5 -8.5t-21 -5t-24.5 -2.5q-79 0 -79 84q0 11 2 31l19 181h31l-18 -172q-3 -20 -3 -38
q0 -57 56 -57q41 0 109 44l30 282q3 34 16 52t44 18q29 0 57 -14l-13 -27q-23 9 -42 9q-27 0 -32 -29l-38 -358h-29zM425 274l2 26h312l-2 -26h-312z" />
    <glyph glyph-name="Pomergranate.arm" unicode="&#x58f;" horiz-adv-x="611" 
d="M300 -12l-20 3q-1 0 -28.5 6.5t-51.5 6.5q-51 0 -100.5 45.5t-49.5 114.5v130q0 68 46.5 111t114.5 61q-1 1 -1 3q-21 56 -101 60q35 35 100 35q22 0 43 -13q6 21 13 38q5 15 13.5 31.5t13.5 25.5l6 9q25 -33 37 -66l13 -38q20 13 43 13q65 0 100 -35q-80 -4 -101 -60
l-1 -2q69 -19 115 -61.5t46 -111.5v-130q0 -69 -49.5 -114.5t-100.5 -45.5q-24 0 -51.5 -6.5t-28.5 -6.5z" />
    <glyph glyph-name="endash" unicode="&#x2013;" horiz-adv-x="567" 
d="M58 261l5 54h440l-5 -54h-440z" />
    <glyph glyph-name="emdash" unicode="&#x2014;" horiz-adv-x="877" 
d="M59 261l4 54h750l-5 -54h-749z" />
    <glyph glyph-name="quoteleft" unicode="&#x2018;" horiz-adv-x="197" 
d="M90 572q1 20 3 38t7 35.5t8 29t11 27.5t10.5 22t12 22.5t10.5 18.5h47q-37 -91 -44 -193h-65z" />
    <glyph glyph-name="quoteright" unicode="&#x2019;" horiz-adv-x="195" 
d="M84 572q37 91 44 193h65q-1 -20 -3 -38t-7 -35.5t-8 -29t-11 -27.5t-10.5 -22t-12 -22.5t-10.5 -18.5h-47z" />
    <glyph glyph-name="quotedblleft" unicode="&#x201c;" horiz-adv-x="340" 
d="M91 572q1 20 3 38t7 35.5t8 29t11 27.5t10.5 22t12 22.5t10.5 18.5h47q-37 -91 -44 -193h-65zM232 572q1 20 3.5 38.5t7 35.5t8 28.5t11 27.5t10.5 22t12.5 22t10.5 19h47q-40 -97 -44 -193h-66z" />
    <glyph glyph-name="quotedblright" unicode="&#x201d;" horiz-adv-x="337" 
d="M84 572q40 97 44 193h66q-1 -20 -3.5 -38.5t-7 -35.5t-8 -28.5t-11 -27.5t-10.5 -22t-12.5 -22t-10.5 -19h-47zM226 572q37 91 44 193h65q-1 -20 -3 -38t-7 -35.5t-8 -29t-11 -27.5t-10.5 -22t-12 -22.5t-10.5 -18.5h-47z" />
    <glyph glyph-name="dagger" unicode="&#x2020;" horiz-adv-x="454" 
d="M164 0l62 529l-168 -6l6 54l166 -6l13 183h58l-24 -183l168 6l-6 -54l-165 6l-51 -529h-59z" />
    <glyph glyph-name="daggerdbl" unicode="&#x2021;" horiz-adv-x="487" 
d="M180 0l24 181l-166 -5l6 55l165 -6l32 303l-167 -5l6 54l165 -5l15 182h58l-25 -182l168 5l-6 -54l-166 5l-32 -303l168 6l-6 -55l-167 5l-14 -181h-58z" />
    <glyph glyph-name="bullet" unicode="&#x2022;" horiz-adv-x="407" 
d="M211 208q-62 0 -105.5 43.5t-43.5 104.5q0 59 41.5 100t100.5 41q61 0 104.5 -44t43.5 -105q0 -58 -41 -99t-100 -41z" />
    <glyph glyph-name="ellipsis" unicode="&#x2026;" horiz-adv-x="618" 
d="M44 0l8 76h71l-8 -76h-71zM236 0l8 76h71l-8 -76h-71zM440 0l8 76h71l-8 -76h-71z" />
    <glyph glyph-name="guilsinglleft" unicode="&#x2039;" horiz-adv-x="257" 
d="M126 54l-79 218l125 218l44 -17l-107 -201l64 -198z" />
    <glyph glyph-name="guilsinglright" unicode="&#x203a;" horiz-adv-x="258" 
d="M78 54l-44 20l106 198l-64 201l48 18l78 -219z" />
    <glyph glyph-name="Euro" unicode="&#x20ac;" horiz-adv-x="598" 
d="M351 -11q-96 0 -164 48t-86 139h-65l5 51h55v11q-1 40 12 87h-56l5 51h68q37 87 111.5 133.5t171.5 46.5q82 0 159 -30l-23 -50q-78 27 -140 27q-72 0 -130 -32t-89 -95h267l-5 -51h-280q-11 -46 -11 -90v-8h280l-5 -51h-267q18 -69 74.5 -102.5t132.5 -33.5q60 0 134 24
l11 -48q-63 -27 -165 -27z" />
    <glyph glyph-name="trademark" unicode="&#x2122;" horiz-adv-x="804" 
d="M328 353l68 354h54l81 -317l163 317h51l-8 -354h-49l9 272l-138 -272h-63l-72 275l-50 -275h-46zM161 353l33 311h-120l5 43h286l-5 -43h-119l-33 -311h-47z" />
    <glyph glyph-name="minus" unicode="&#x2212;" horiz-adv-x="525" 
d="M76 326l5 54h375l-6 -54h-374z" />
    <glyph glyph-name="infinity" unicode="&#x221e;" horiz-adv-x="940" 
d="M202 197q-65 0 -104.5 34.5t-39.5 98.5q0 76 51.5 125.5t128.5 49.5q27 0 52.5 -6t55 -23t42.5 -25.5t48.5 -36t41.5 -32.5q8 5 46.5 31t55.5 35.5t49.5 26.5t60 23.5t55.5 6.5q64 0 105 -34.5t41 -97.5q0 -75 -54 -124.5t-130 -49.5q-20 0 -39 3.5t-39 12t-33.5 15
t-35.5 22t-30.5 21.5t-33 26t-29.5 24q-8 -5 -38 -25.5t-44 -29.5t-42.5 -25.5t-48 -24.5t-45 -14.5t-47.5 -6.5zM213 245q17 0 38 6t36 12t41 21.5t35.5 21.5t37.5 25t30 20q-4 3 -23 18t-28 21.5l-27 19.5t-30.5 19.5t-29.5 14.5t-32 11.5t-30 3.5q-52 0 -86 -34.5
t-34 -86.5q0 -45 28 -69t74 -24zM717 245q52 0 86 34.5t34 86.5q0 45 -28.5 69t-73.5 24q-15 0 -31 -3.5t-35 -11.5t-32 -14t-34.5 -19.5t-30 -19t-31.5 -21t-26 -17.5q1 -1 23.5 -19t28.5 -22t26.5 -19t31.5 -20t28.5 -13.5t33 -11.5t30.5 -3z" />
    <glyph glyph-name="notequal" unicode="&#x2260;" horiz-adv-x="629" 
d="M29 11l153 169h-133l6 50h173l135 149h-293l5 50h333l139 152h57l-138 -152h114l-5 -50h-154l-134 -149h273l-6 -50h-313l-152 -169h-60z" />
    <glyph glyph-name="lessequal" unicode="&#x2264;" horiz-adv-x="556" 
d="M464 52l-6 -52h-433l6 52h433zM468 151l-404 159l9 87l438 159l-6 -57l-414 -146l383 -145z" />
    <glyph glyph-name="greaterequal" unicode="&#x2265;" horiz-adv-x="556" 
d="M55 151l6 57l414 145l-383 146l6 57l404 -159l-9 -87zM39 52h433l-6 -52h-433z" />
    <glyph glyph-name="apple" unicode="&#xf8ff;" horiz-adv-x="1241" 
d="M1141 357h-10v-10h-11v10h-10v11h10v10h11v-10h10v-11zM1081 377h-11v11h11v-11zM1081 338h-11v10h11v-10zM1041 377h-11v11h11v-11zM1071 357h-10v-10h-11v10h-10v11h10v10h11v-10h10v-11zM1041 338h-11v10h11v-10zM1001 387h-10v-10h-11v11h10v10h11v-11zM1001 328h-11
v10h-10v10h11v-10h10v-10zM951 377h-11v10h-10v11h11v-10h10v-11zM981 357h-10v-10h-11v10h-10v11h10v10h11v-10h10v-11zM951 338h-10v-10h-11v10h10v10h11v-10zM911 338h-31v9h-10v31h10v10h21v-10h10v-21h-30v-9h30v-10zM900 368v9h-19v-9h19zM851 338h-31v9h-10v41h11
v-40h19v40h11v-50zM791 318h-11v20h-20v9h-10v31h10v10h31v-70zM780 348v29h-19v-29h19zM731 338h-31v9h-10v31h10v10h21v-10h10v-21h-30v-9h30v-10zM720 368v9h-19v-9h19zM671 338h-11v39h-19v-39h-11v70h11v-20h20v-10h10v-40zM611 338h-21v9h-10v30h-10v11h10v10h11v-10
h20v-11h-20v-29h20v-10zM551 347h-10v-9h-21v9h-10v31h10v10h21v-10h10v-31zM540 348v29h-19v-29h19zM491 347h-10v-9h-20v-20h-11v70h31v-10h10v-31zM480 348v29h-19v-29h19zM431 347h-10v-9h-10v-10h-10v-10h-11v11h10v18h-10v41h11v-40h19v40h11v-41zM371 338h-21v9h-10
v30h-10v11h10v10h11v-10h20v-11h-20v-29h20v-10zM311 387h-10v-10h-11v11h10v10h11v-11zM311 328h-11v10h-10v10h11v-10h10v-10zM261 377h-11v10h-10v11h11v-10h10v-11zM291 357h-10v-10h-11v10h-10v11h10v10h11v-10h10v-11zM261 338h-10v-10h-11v10h10v10h11v-10zM211 377
h-11v11h11v-11zM211 338h-11v10h11v-10zM171 377h-11v11h11v-11zM201 357h-10v-10h-11v10h-10v11h10v10h11v-10h10v-11zM171 338h-11v10h11v-10zM131 357h-10v-10h-11v10h-10v11h10v10h11v-10h10v-11z" />
    <glyph glyph-name="eternity.arm" horiz-adv-x="681" 
d="M559 476q-24 6 -45 6q-53 0 -98 -34.5t-64 -119.5q77 97 159 97q67 0 107 -54q22 -31 22 -68q0 -42 -29 -80q-14 39 -49.5 71.5t-93.5 32.5q-45 0 -95 -21q59 0 101.5 -14t63 -37.5t29 -47t8.5 -48.5q0 -15 -4 -33q-11 -40 -43 -63t-76 -24q24 38 24 85q0 92 -110 152
q64 -79 64 -146q0 -45 -25 -76.5t-55 -44.5q-23 -10 -47 -10q-56 0 -95 48q49 6 92.5 44t43.5 115q0 24 -6 54q-20 -92 -62 -130t-92 -38q-35 0 -63 15q-63 33 -63 104q0 15 3 30q47 -45 107 -45q74 0 139 77q-68 -34 -121 -34q-59 0 -92 34.5t-41 72.5q-9 40 9 75.5
t57 55.5q-2 -25 4.5 -50.5t23.5 -54t56 -47t96 -20.5q-133 61 -133 158q0 51 30 87q35 43 89 43q27 0 54 -12q-68 -47 -68 -125q0 -61 49 -125q-11 44 -11 83q0 44 14.5 76t37.5 47.5t44 22.5t40 7q41 0 72 -25t42 -66z" />
    <glyph glyph-name="men_ken.arm" horiz-adv-x="1108" 
d="M161 -11q-53 0 -75.5 26.5t-22.5 82.5q0 22 3 47l40 377h56l-39 -355q-4 -35 -4 -64q0 -38 11.5 -52.5t40.5 -14.5q80 0 189 115l47 447q3 34 9.5 56.5t22.5 48t49.5 38.5t84.5 13q42 0 105.5 -13.5t91.5 -26.5l-62 -547q-2 -17 -2 -64q0 -38 11.5 -52.5t40.5 -14.5
q33 0 68.5 19t59 40t61.5 60l39 367h56l-78 -742h-56l33 318q-54 -55 -96.5 -82t-96.5 -27q-53 0 -75.5 26.5t-22.5 82.5q0 22 3 47l59 534q-83 27 -139 27q-59 0 -81 -19t-26 -62l-65 -625h-57l10 93q-99 -104 -193 -104z" />
    </font>
</defs>
</svg>
