<?xml version="1.0" standalone="no"?>
<!DOCTYPE svg PUBLIC "-//W3C//DTD SVG 1.1//EN" "http://www.w3.org/Graphics/SVG/1.1/DTD/svg11.dtd" >
<svg xmlns="http://www.w3.org/2000/svg" xmlns:xlink="http://www.w3.org/1999/xlink" version="1.1">
<metadata>
Created by FontForge 20170731 at Sun Nov  8 02:30:16 2009
 By Aleksey,,,
Copyright (c) 2001-2009 Typotheque.com All rights reserved. Cyrillic designed by Alexei Kassian and Gayaneh Bagdasaryan.
</metadata>
<defs>
<font id="FedraSansAltPro-Medium" horiz-adv-x="600" >
  <font-face 
    font-family="Fedra Sans Alt Pro Medium"
    font-weight="500"
    font-stretch="normal"
    units-per-em="1000"
    panose-1="2 0 6 3 0 0 0 2 0 4"
    ascent="780"
    descent="-220"
    x-height="546"
    cap-height="707"
    bbox="-588 -284 1453 1113"
    underline-thickness="50"
    underline-position="-200"
    unicode-range="U+0020-FB04"
  />
<missing-glyph horiz-adv-x="712" 
d="M305 375v27h27v-27h-27zM380 525v27h27v-27h-27zM305 525v27h27v-27h-27zM230 525v27h27v-27h-27zM80 0v27h27v-27h-27zM155 0v27h27v-27h-27zM230 0v27h27v-27h-27zM305 0v27h27v-27h-27zM380 0v27h27v-27h-27zM80 75v27h27v-27h-27zM80 150v27h27v-27h-27zM80 225v27
h27v-27h-27zM80 300v27h27v-27h-27zM80 375v27h27v-27h-27zM80 450v27h27v-27h-27zM80 525v27h27v-27h-27zM80 600v27h27v-27h-27zM80 675v27h27v-27h-27zM155 675v27h27v-27h-27zM230 675v27h27v-27h-27zM305 675v27h27v-27h-27zM380 675v27h27v-27h-27zM455 675v27h27v-27
h-27zM530 675v27h27v-27h-27zM530 0v27h27v-27h-27zM455 0v27h27v-27h-27zM605 0v27h27v-27h-27zM605 675v27h27v-27h-27zM305 300v27h27v-27h-27zM305 150v27h27v-27h-27zM380 375v27h27v-27h-27zM455 375v27h27v-27h-27zM455 450v27h27v-27h-27zM455 525v27h27v-27h-27z
M605 600v27h27v-27h-27zM605 525v27h27v-27h-27zM605 375v27h27v-27h-27zM605 300v27h27v-27h-27zM605 150v27h27v-27h-27zM605 75v27h27v-27h-27zM605 225v27h27v-27h-27zM605 450v27h27v-27h-27z" />
    <glyph glyph-name="f_f" unicode="ff" horiz-adv-x="721" 
d="M107 0v451h-80v95h80v36q0 198 221 198q103 0 195 -33q46 33 143 33q68 0 128 -20l-26 -104q-51 10 -97 10q-83 0 -83 -84v-36h118v-95h-118v-451h-133v451h-215v-451h-133zM240 546h215v43q0 36 8 60q-63 17 -138 17q-85 0 -85 -84v-36z" />
    <glyph glyph-name="fi" unicode="fi" horiz-adv-x="662" 
d="M107 0v450h-80v96h80v30q0 204 211 204q22 0 66 -3t65 -3q69 0 120 6l20 -101q-63 -21 -147 -21q-20 0 -60 2.5t-65 2.5q-42 0 -59.5 -19.5t-17.5 -68.5v-29h348v-546h-134v450h-215v-450h-132z" />
    <glyph glyph-name="fl" unicode="fl" horiz-adv-x="662" 
d="M107 0v450h-80v96h80v29q0 108 58.5 156t152.5 48q20 0 64 -3t67 -3q52 -1 139 9v-782h-134v658q-23 -1 -66.5 2t-70.5 3q-42 0 -59.5 -20.5t-17.5 -65.5v-31h117v-96h-118v-450h-132z" />
    <glyph glyph-name="f_f_i" unicode="ffi" horiz-adv-x="1010" 
d="M107 0v450h-80v96h80v36q0 198 216 198q115 0 205 -35q54 37 138 37q22 0 66 -3t65 -3q69 0 119 6l21 -101q-64 -21 -146 -21q-21 0 -61.5 3t-65.5 3q-41 0 -58 -21.5t-17 -70.5v-28h348v-546h-134v450h-214v-450h-134v450h-214v-450h-134zM241 546h215v29q0 47 9 74
q-72 17 -140 17q-84 0 -84 -84v-36z" />
    <glyph glyph-name="f_f_l" unicode="ffl" horiz-adv-x="1006" 
d="M107 0v451h-80v95h80v36q0 198 221 198q107 0 200 -35q53 37 137 37q22 0 66 -3.5t66 -3.5q50 -1 135 9v-784h-133v660q-21 0 -63.5 3t-71.5 3q-41 0 -58.5 -21.5t-17.5 -69.5v-29h116v-95h-116v-451h-133v451h-214v-451h-134zM241 546h214v29q0 43 9 73q-64 18 -139 18
q-84 0 -84 -84v-36z" />
    <glyph glyph-name="aogonek_j" unicode="&#x105;j" horiz-adv-x="885" 
d="M497 -252q-79 0 -121 33.5t-42 86.5q0 78 87 134q-14 8 -27 24t-16 31q-88 -65 -170 -65q-84 0 -129.5 40t-45.5 119q0 48 20 82.5t55 52t71.5 25t78.5 7.5l108 1v48q0 45 -26.5 61.5t-88.5 16.5q-56 0 -152 -24l-27 99q106 39 203 39q38 0 67 -3t59.5 -13.5t50 -27.5
t32 -47t12.5 -71v-266q0 -31 50 -34l-7 -101q-42 -27 -63.5 -49t-21.5 -49q0 -21 18 -32t44 -11q70 0 116 42t46 112v537h133v-537q0 -121 -87 -191t-227 -70zM232 96q16 0 37.5 4.5t35.5 9t35.5 12t25.5 8.5v108l-101 -4q-102 -3 -102 -75q0 -63 69 -63zM677 653v128h133
v-128h-133z" />
    <glyph glyph-name="f_h" unicode="fh" horiz-adv-x="1018" 
d="M107 0v452h-80v94h80v29q0 110 58.5 158.5t152.5 48.5q22 0 65.5 -3.5t65.5 -3.5q52 -1 139 9v-294q102 71 183 71q60 0 98 -16.5t54.5 -50t21.5 -65.5t5 -82v-347h-133v332q0 62 -18 87.5t-70 25.5q-56 0 -141 -46v-399h-134v660q-23 -1 -66.5 2.5t-71.5 3.5
q-41 0 -58.5 -21.5t-17.5 -70.5v-28h116v-94h-117v-452h-132z" />
    <glyph glyph-name="f_b" unicode="fb" horiz-adv-x="1003" 
d="M672 -10q-117 0 -217 32v636q-23 -1 -67 2t-71 3q-42 0 -59.5 -20.5t-17.5 -65.5v-31h117v-96h-118v-450h-132v450h-80v96h80v29q0 108 58.5 156t152.5 48q20 0 64 -3t67 -3q52 -1 139 9v-252q43 28 126 28q247 0 247 -258q0 -84 -23.5 -146t-65 -97t-91.5 -51t-109 -16z
M690 457q-47 0 -102 -22v-328q50 -12 87 -12q71 0 110.5 56t39.5 142q0 84 -29.5 124t-105.5 40z" />
    <glyph glyph-name="f_j" unicode="fj" horiz-adv-x="662" 
d="M376 -227q-39 0 -93 18l25 107q24 -8 71 -8q42 0 58.5 22.5t16.5 77.5v462h-215v-452h-132v452h-80v94h80v27q0 111 58 159.5t153 48.5q20 0 63.5 -3t67.5 -3q69 0 119 6l21 -101q-61 -21 -147 -21q-21 0 -61 2.5t-65 2.5q-41 0 -58.5 -21.5t-17.5 -69.5v-27h348v-555
q0 -124 -56.5 -171t-155.5 -47z" />
    <glyph glyph-name="f_k" unicode="fk" horiz-adv-x="956" 
d="M948 0h-164l-196 257v-257h-134v660q-23 -1 -66.5 2.5t-71.5 3.5q-41 0 -58.5 -21.5t-17.5 -70.5v-28h116v-94h-117v-452h-132v452h-80v94h80v29q0 110 58.5 158.5t152.5 48.5q22 0 65.5 -3.5t65.5 -3.5q53 -1 139 9v-475l190 237h146l-212 -253z" />
    <glyph glyph-name="f_f_j" unicode="ffj" horiz-adv-x="1010" 
d="M729 -220q-51 0 -93 16l25 104q21 -7 65 -7q42 0 59 23.5t18 77.5v456h-214v-450h-134v450h-214v-450h-134v450h-80v96h80v36q0 198 216 198q115 0 205 -35q54 37 138 37q22 0 66 -3t65 -3q69 0 119 6l21 -101q-64 -21 -146 -21q-21 0 -61.5 3t-65.5 3q-41 0 -58 -21.5
t-17 -70.5v-28h348l-1 -552q0 -64 -16.5 -108t-47 -66t-64.5 -31t-79 -9zM241 546h215v29q0 47 9 74q-72 17 -140 17q-84 0 -84 -84v-36z" />
    <glyph glyph-name="f_idieresis" unicode="f&#xef;" horiz-adv-x="669" 
d="M107 0v450h-80v96h80v41q0 181 179 181q44 0 84 -14l-21 -100q-22 9 -53 9q-56 0 -56 -70v-47h113v-96h-113v-450h-133zM462 0v546h134v-546h-134zM398 648v108h110v-108h-110zM589 648v108h110v-108h-110z" />
    <glyph glyph-name="f_igrave" unicode="f&#xec;" horiz-adv-x="669" 
d="M107 0v450h-80v96h80v41q0 181 175 181q57 0 97 -13l-21 -104q-29 12 -65 12q-53 0 -53 -70v-47h113v-96h-113v-450h-133zM555 597l-151 164l80 69l141 -175zM462 0v546h134v-546h-134z" />
    <glyph glyph-name=".notdef" horiz-adv-x="712" 
d="M305 375v27h27v-27h-27zM380 525v27h27v-27h-27zM305 525v27h27v-27h-27zM230 525v27h27v-27h-27zM80 0v27h27v-27h-27zM155 0v27h27v-27h-27zM230 0v27h27v-27h-27zM305 0v27h27v-27h-27zM380 0v27h27v-27h-27zM80 75v27h27v-27h-27zM80 150v27h27v-27h-27zM80 225v27
h27v-27h-27zM80 300v27h27v-27h-27zM80 375v27h27v-27h-27zM80 450v27h27v-27h-27zM80 525v27h27v-27h-27zM80 600v27h27v-27h-27zM80 675v27h27v-27h-27zM155 675v27h27v-27h-27zM230 675v27h27v-27h-27zM305 675v27h27v-27h-27zM380 675v27h27v-27h-27zM455 675v27h27v-27
h-27zM530 675v27h27v-27h-27zM530 0v27h27v-27h-27zM455 0v27h27v-27h-27zM605 0v27h27v-27h-27zM605 675v27h27v-27h-27zM305 300v27h27v-27h-27zM305 150v27h27v-27h-27zM380 375v27h27v-27h-27zM455 375v27h27v-27h-27zM455 450v27h27v-27h-27zM455 525v27h27v-27h-27z
M605 600v27h27v-27h-27zM605 525v27h27v-27h-27zM605 375v27h27v-27h-27zM605 300v27h27v-27h-27zM605 150v27h27v-27h-27zM605 75v27h27v-27h-27zM605 225v27h27v-27h-27zM605 450v27h27v-27h-27z" />
    <glyph glyph-name=".null" horiz-adv-x="0" 
 />
    <glyph glyph-name="nonmarkingreturn" horiz-adv-x="333" 
 />
    <glyph glyph-name="space" unicode=" " horiz-adv-x="236" 
 />
    <glyph glyph-name="exclam" unicode="!" horiz-adv-x="317" 
d="M100 202l-8 173v332h133v-332l-7 -173h-118zM89 0v124h138v-124h-138z" />
    <glyph glyph-name="quotedbl" unicode="&#x22;" horiz-adv-x="396" 
d="M56 515l-8 239h113l-9 -239h-96zM244 515l-8 239h113l-9 -239h-96z" />
    <glyph glyph-name="numbersign" unicode="#" horiz-adv-x="664" 
d="M125 0l6 121h-86v105h93l6 104h-99v105h108l6 127h125l-7 -127h135l7 127h124l-7 -127h83v-105h-91l-6 -104h97v-105h-103l-7 -121h-125l7 121h-135l-7 -121h-124zM262 226h136l6 104h-135z" />
    <glyph glyph-name="dollar" unicode="$" horiz-adv-x="531" 
d="M215 -99v92q-106 3 -178 36l36 97q80 -25 143 -29v138q-34 12 -58 24.5t-49.5 32t-39 48t-13.5 64.5q0 60 44 95.5t115 46.5v108h95v-104q73 -2 152 -31l-30 -93q-75 19 -123 21v-122q33 -13 51.5 -20.5t48 -23.5t45 -31.5t28 -39.5t12.5 -52q0 -71 -51 -110.5
t-133 -50.5v-96h-95zM353 153q0 28 -44 48v-97q44 14 44 49zM193 404q0 -21 23 -37v71q-23 -11 -23 -34z" />
    <glyph glyph-name="percent" unicode="%" horiz-adv-x="837" 
d="M211 365q-75 0 -124 41.5t-49 127.5q0 83 51.5 131.5t124.5 48.5q78 0 127.5 -41t49.5 -131q0 -82 -52 -129.5t-128 -47.5zM211 458q31 0 49.5 21.5t18.5 62.5q0 80 -65 80q-27 0 -45 -20.5t-18 -67.5q0 -76 60 -76zM617 -10q-76 0 -124.5 41t-48.5 127q0 83 51.5 131.5
t124.5 48.5q78 0 127.5 -41t49.5 -131q0 -82 -52 -129t-128 -47zM617 83q31 0 49.5 21t18.5 62q0 80 -65 80q-27 0 -45.5 -21t-18.5 -67q0 -40 15 -57.5t46 -17.5zM164 45l-70 73l564 532l70 -73z" />
    <glyph glyph-name="ampersand" unicode="&#x26;" horiz-adv-x="706" 
d="M248 -11q-91 0 -151 44t-60 137q0 115 141 201q-48 87 -48 161q0 67 52 124.5t148 57.5q89 0 133 -46.5t44 -112.5q0 -68 -50.5 -115.5t-142.5 -90.5q59 -99 166 -166t223 -84l-15 -105q-130 8 -248 72q-86 -77 -192 -77zM260 89q56 0 101 34q-86 65 -139 159
q-60 -43 -60 -105q0 -43 28 -65.5t70 -22.5zM273 425q51 25 85.5 56.5t34.5 63.5t-19.5 51.5t-51.5 19.5q-33 0 -55 -21t-22 -57q0 -55 28 -113z" />
    <glyph glyph-name="quotesingle" unicode="'" horiz-adv-x="215" 
d="M56 515l-8 239h120l-9 -239h-103z" />
    <glyph glyph-name="parenleft" unicode="(" horiz-adv-x="363" 
d="M337 -150l-64 -70q-108 80 -173 206t-65 291q0 160 65.5 285.5t171.5 196.5l68 -67q-183 -158 -183 -414q0 -126 47.5 -237.5t132.5 -190.5z" />
    <glyph glyph-name="parenright" unicode=")" horiz-adv-x="363" 
d="M90 -220l-64 70q85 79 132.5 190.5t47.5 237.5q0 256 -183 414l68 67q106 -71 171.5 -196.5t65.5 -285.5q0 -165 -65 -291t-173 -206z" />
    <glyph glyph-name="asterisk" unicode="*" horiz-adv-x="428" 
d="M81 453l-47 84l122 37l20 -36zM157 591l-123 41l48 84l95 -88zM164 405l30 123h40l27 -123h-97zM193 638l-26 123h96l-27 -123h-43zM348 450l-96 87l21 37l122 -40zM272 592l-20 36l95 86l47 -84z" />
    <glyph glyph-name="plus" unicode="+" horiz-adv-x="576" 
d="M233 48l1 206l-205 -1v103l205 -3l-1 209h104l-4 -211l214 5v-103l-212 1l2 -206h-104z" />
    <glyph glyph-name="comma" unicode="," horiz-adv-x="259" 
d="M33 -130q28 60 28 163v100h139v-63q0 -119 -52 -200h-115z" />
    <glyph glyph-name="hyphen" unicode="-" horiz-adv-x="454" 
d="M78 232v109h298v-109h-298z" />
    <glyph glyph-name="period" unicode="." horiz-adv-x="272" 
d="M61 0v136h151v-136h-151z" />
    <glyph glyph-name="slash" unicode="/" horiz-adv-x="444" 
d="M46 -62l233 830h118l-232 -830h-119z" />
    <glyph glyph-name="zero" unicode="0" horiz-adv-x="677" 
d="M334 -12q-142 0 -216 70t-74 210q0 139 78.5 215.5t223.5 76.5q142 0 214.5 -74.5t72.5 -203.5q0 -146 -80 -220t-219 -74zM338 99q71 0 115 46.5t44 133.5q0 80 -41 125t-114 45q-76 0 -119 -46t-43 -133q0 -84 44 -127.5t114 -43.5z" />
    <glyph glyph-name="one" unicode="1" horiz-adv-x="370" 
d="M157 0v446h-142v105l276 8v-559h-134z" />
    <glyph glyph-name="two" unicode="2" horiz-adv-x="518" 
d="M35 0v110q13 10 73 51.5t100 72t77 70.5t37 67q0 79 -105 79q-63 0 -134 -30l-34 97q26 15 76 29t98 14q127 0 179 -52.5t52 -132.5q0 -130 -250 -267h277v-108h-446z" />
    <glyph glyph-name="three" unicode="3" horiz-adv-x="495" 
d="M197 -169q-103 0 -187 28l26 108q82 -23 151 -23q66 0 100 20.5t34 74.5q0 55 -34.5 83t-108.5 36q-12 2 -41 2v93l35 3q118 17 118 108q0 44 -33 64t-82 20q-63 0 -106 -20l-32 94q73 36 164 36q95 0 157 -45.5t62 -131.5q0 -117 -107 -161q60 -22 101 -67t41 -113
q0 -108 -73 -158.5t-185 -50.5z" />
    <glyph glyph-name="four" unicode="4" 
d="M336 -162v192h-314v92l244 424h204v-408h104v-108h-104v-192h-134zM147 138h189v335z" />
    <glyph glyph-name="five" unicode="5" horiz-adv-x="540" 
d="M241 -171q-118 0 -192 24l33 110q80 -20 158 -20q60 0 95 29t35 78q0 117 -130 117q-72 0 -166 -9v388h397v-108h-268v-168q34 3 63 3q110 0 174 -56t64 -156q0 -109 -73.5 -170.5t-189.5 -61.5z" />
    <glyph glyph-name="six" unicode="6" horiz-adv-x="608" 
d="M325 -12q-131 0 -197.5 75t-66.5 243q0 200 88 304t241 104q81 0 134 -20l-29 -104q-50 12 -106 12q-143 0 -182 -167q65 19 128 19q116 0 178 -55t62 -165q0 -115 -71 -180.5t-179 -65.5zM322 350q-72 0 -128 -19v-31q0 -111 30 -157t108 -46q50 0 79.5 35.5t29.5 91.5
q0 126 -119 126z" />
    <glyph glyph-name="seven" unicode="7" horiz-adv-x="509" 
d="M177 -183l-117 40l295 570h-324v119h459v-93z" />
    <glyph glyph-name="eight" unicode="8" horiz-adv-x="594" 
d="M294 -12q-113 0 -182 47t-69 139q0 69 39.5 114t107.5 82q-57 37 -89 75t-32 91q0 88 65 135t170 47q101 0 163 -51t62 -122q0 -57 -36 -95.5t-102 -77.5q76 -41 118 -82t42 -104q0 -97 -70 -147.5t-187 -50.5zM300 89q54 0 85.5 25.5t31.5 75.5q0 62 -130 133
q-114 -64 -114 -137q0 -46 34.5 -71.5t92.5 -25.5zM294 415q102 52 102 115q0 40 -23.5 64t-69.5 24q-53 0 -78.5 -24.5t-25.5 -64.5q0 -61 95 -114z" />
    <glyph glyph-name="nine" unicode="9" horiz-adv-x="607" 
d="M213 -166q-76 0 -131 20l29 105q54 -13 104 -13q153 0 187 170q-74 -18 -131 -18q-238 0 -238 221q0 114 71.5 177.5t179.5 63.5q126 0 194.5 -79t68.5 -239q0 -208 -86.5 -308t-247.5 -100zM286 201q50 0 126 19v13q2 117 -29 167t-106 50q-51 0 -80.5 -33t-29.5 -89
q0 -70 31 -98.5t88 -28.5z" />
    <glyph glyph-name="colon" unicode=":" horiz-adv-x="309" 
d="M79 0v136h151v-136h-151zM79 410v136h151v-136h-151z" />
    <glyph glyph-name="semicolon" unicode=";" horiz-adv-x="308" 
d="M50 -130q31 60 31 141v122h147v-84q0 -101 -59 -179h-119zM78 410v136h151v-136h-151z" />
    <glyph glyph-name="less" unicode="&#x3c;" horiz-adv-x="500" 
d="M448 54l-416 190v119l416 197v-114l-310 -143l310 -135v-114z" />
    <glyph glyph-name="equal" unicode="=" horiz-adv-x="636" 
d="M84 133l-1 103h469l1 -103h-469zM84 369l-1 103h469l1 -103h-469z" />
    <glyph glyph-name="greater" unicode="&#x3e;" horiz-adv-x="500" 
d="M52 54v114l310 135l-310 143v114l416 -197v-119z" />
    <glyph glyph-name="question" unicode="?" horiz-adv-x="407" 
d="M91 177q-22 47 -22 90q0 36 17 68t41 54.5t48 42.5t41 38.5t17 34.5q0 82 -188 97l24 111q303 -21 303 -202q0 -35 -19 -67t-46.5 -56t-55 -45.5t-46.5 -43t-19 -40.5q0 -32 14 -64zM85 0v124h137v-124h-137z" />
    <glyph glyph-name="at" unicode="@" horiz-adv-x="808" 
d="M382 -73q-158 0 -247.5 84t-89.5 256q0 113 35 201t96 141.5t138.5 80.5t168.5 27q135 0 210.5 -73t75.5 -222q0 -133 -68.5 -209t-171.5 -76q-41 0 -66 19t-27 45q-15 -21 -44 -38t-51 -17q-55 0 -84 30t-29 106q0 93 56 153.5t149 60.5q68 0 131 -25l-24 -201
q-4 -40 20 -40q35 0 71 51.5t36 141.5q0 104 -51 155t-139 51q-144 0 -236 -88t-92 -268q0 -128 65 -190t177 -62q75 0 165 18l13 -85q-88 -27 -187 -27zM371 242q8 0 15 1.5t11.5 3t11 5t8.5 5t9 6.5l6 5l19 146q-2 0 -7.5 0.5t-8.5 0.5q-42 0 -67 -33.5t-25 -88.5
q0 -51 28 -51z" />
    <glyph glyph-name="A" unicode="A" horiz-adv-x="700" 
d="M-9 0l279 707h177l245 -707h-143l-77 229h-255l-87 -229h-139zM255 330h183l-85 290z" />
    <glyph glyph-name="B" unicode="B" horiz-adv-x="664" 
d="M92 0v707h227q250 0 250 -188q0 -47 -24 -84t-60 -53v-2q51 -13 93 -56.5t42 -111.5q0 -212 -271 -212h-257zM229 108h107q74 0 110.5 22.5t36.5 77.5q0 56 -39 80t-121 24h-94v-204zM229 409h84q61 0 90.5 23t29.5 73q0 53 -34 75t-104 22h-66v-193z" />
    <glyph glyph-name="C" unicode="C" horiz-adv-x="678" 
d="M430 -12q-185 0 -284 95.5t-99 265.5t101 269.5t278 99.5q120 0 214 -43l-38 -101q-38 11 -56.5 16t-49 9t-68.5 4q-108 1 -174.5 -60.5t-66.5 -183.5q0 -125 71 -189.5t189 -64.5q87 0 165 23l30 -105q-95 -35 -212 -35z" />
    <glyph glyph-name="D" unicode="D" horiz-adv-x="774" 
d="M92 0v707h229q188 0 297 -87t109 -264q0 -180 -104.5 -268t-295.5 -88h-235zM228 108h110q252 0 252 238q0 253 -272 253h-90v-491z" />
    <glyph glyph-name="E" unicode="E" 
d="M92 0v707h438v-108h-302v-193h280v-102h-280v-196h325v-108h-461z" />
    <glyph glyph-name="F" unicode="F" horiz-adv-x="595" 
d="M92 0v707h464v-108h-328v-211h306v-102h-306v-286h-136z" />
    <glyph glyph-name="G" unicode="G" horiz-adv-x="710" 
d="M429 -11q-179 0 -280.5 93t-101.5 267q0 181 98.5 274.5t284.5 93.5q114 0 209 -41l-37 -102q-39 11 -56 15.5t-49 9t-68 4.5q-108 0 -175 -60t-67 -184q0 -126 72 -190t185 -64q34 0 72 6v238h136v-321q-104 -39 -223 -39z" />
    <glyph glyph-name="H" unicode="H" horiz-adv-x="790" 
d="M92 0v707h136v-299h334v299h136v-707h-136v302h-334v-302h-136z" />
    <glyph glyph-name="I" unicode="I" horiz-adv-x="320" 
d="M92 0v707h136v-707h-136z" />
    <glyph glyph-name="J" unicode="J" horiz-adv-x="322" 
d="M1 -194l-52 99q87 48 116 99.5t29 146.5v556h138v-554q0 -50 -4 -86t-17.5 -77t-38 -72t-67.5 -60.5t-104 -51.5z" />
    <glyph glyph-name="K" unicode="K" horiz-adv-x="687" 
d="M92 0v707h136v-323l267 323h174l-289 -329l306 -378h-175l-283 374v-374h-136z" />
    <glyph glyph-name="L" unicode="L" horiz-adv-x="544" 
d="M92 0v707h136v-597h307v-110h-443z" />
    <glyph glyph-name="M" unicode="M" horiz-adv-x="974" 
d="M92 0v707h170l215 -594l243 594h162v-707h-137v343l6 145h-4l-193 -488h-163l-167 489h-4l8 -140v-349h-136z" />
    <glyph glyph-name="N" unicode="N" horiz-adv-x="792" 
d="M92 0v707h162l312 -534h2l-4 83v451h137v-707h-168l-305 523h-4l4 -86v-437h-136z" />
    <glyph glyph-name="O" unicode="O" horiz-adv-x="831" 
d="M407 -12q-175 0 -268 98t-93 269q0 167 102 265t276 98q178 0 269.5 -100.5t91.5 -264.5q0 -169 -99 -267t-279 -98zM410 97q120 0 178 70.5t58 186.5q0 115 -58.5 185t-170.5 70q-116 0 -174.5 -69.5t-58.5 -183.5q0 -113 57 -186t169 -73z" />
    <glyph glyph-name="P" unicode="P" horiz-adv-x="632" 
d="M92 0v707h258q116 0 186 -63.5t70 -176.5q0 -106 -80.5 -176t-227.5 -70h-69v-221h-137zM229 599v-271h75q79 0 119.5 35.5t40.5 99.5q0 136 -136 136h-99z" />
    <glyph glyph-name="Q" unicode="Q" horiz-adv-x="846" 
d="M407 -12q-175 0 -268 98t-93 269q0 167 102 265t276 98q178 0 269.5 -100.5t91.5 -264.5q0 -148 -77 -242l95 -95l-68 -59l-94 93q-93 -62 -234 -62zM410 97q86 0 144 40l-110 111l70 59l100 -101q32 60 32 148q0 115 -58.5 185t-170.5 70q-116 0 -174.5 -69.5
t-58.5 -183.5q0 -113 57 -186t169 -73z" />
    <glyph glyph-name="R" unicode="R" horiz-adv-x="727" 
d="M92 0v707h258q117 0 186.5 -56t69.5 -166q0 -62 -30.5 -112.5t-90.5 -79.5l223 -293h-173l-186 261q-21 -3 -51 -3h-69v-258h-137zM229 358h75q161 0 161 122q0 64 -32 91.5t-105 27.5h-99v-241z" />
    <glyph glyph-name="S" unicode="S" horiz-adv-x="569" 
d="M256 -12q-125 0 -221 54l40 104q102 -44 181 -44q63 0 101.5 24t38.5 69q0 38 -35 64t-85.5 45t-100.5 42t-85 68t-35 111q0 90 70.5 141.5t167.5 51.5q119 0 203 -49l-40 -101q-80 36 -159 36q-48 0 -78 -21.5t-30 -58.5q0 -27 25.5 -50t64 -38t83 -36t83 -44t64 -63
t25.5 -92q0 -104 -80.5 -158.5t-197.5 -54.5z" />
    <glyph glyph-name="T" unicode="T" horiz-adv-x="615" 
d="M239 0v598h-229v109h595v-109h-229v-598h-137z" />
    <glyph glyph-name="U" unicode="U" horiz-adv-x="780" 
d="M392 -13q-61 0 -113.5 14t-98.5 45.5t-72.5 89t-26.5 136.5v435h138v-429q0 -177 173 -177q174 0 174 199v407h135v-410q0 -69 -18.5 -123.5t-48 -89t-70.5 -57t-83.5 -31.5t-88.5 -9z" />
    <glyph glyph-name="V" unicode="V" horiz-adv-x="700" 
d="M253 0l-246 707h145l194 -604l224 604h139l-277 -707h-179z" />
    <glyph glyph-name="W" unicode="W" horiz-adv-x="1056" 
d="M1046 707l-208 -707h-184l-126 520l-143 -520h-186l-169 707h141l129 -622l173 622h127l150 -618l159 617z" />
    <glyph glyph-name="X" unicode="X" horiz-adv-x="658" 
d="M2 0l252 367l-218 340h156l141 -236l151 236h152l-231 -338l237 -369h-158l-159 265l-169 -265h-154z" />
    <glyph glyph-name="Y" unicode="Y" horiz-adv-x="662" 
d="M261 0v243l-250 464h157l166 -348l177 348h152l-266 -461v-246h-136z" />
    <glyph glyph-name="Z" unicode="Z" horiz-adv-x="604" 
d="M36 0v98l344 495h-318v114h483v-91l-348 -502h369v-114h-530z" />
    <glyph glyph-name="bracketleft" unicode="[" horiz-adv-x="336" 
d="M73 -220v974h234v-104h-107v-766h107v-104h-234z" />
    <glyph glyph-name="backslash" unicode="\" horiz-adv-x="444" 
d="M279 -62l-233 830h119l233 -830h-119z" />
    <glyph glyph-name="bracketright" unicode="]" horiz-adv-x="336" 
d="M29 -220v104h107v766h-107v104h234v-974h-234z" />
    <glyph glyph-name="asciicircum" unicode="^" horiz-adv-x="544" 
d="M34 294l168 413h153l157 -413h-130l-105 313l-116 -313h-127z" />
    <glyph glyph-name="underscore" unicode="_" horiz-adv-x="596" 
d="M43 -186v109h511v-109h-511z" />
    <glyph glyph-name="grave" unicode="`" horiz-adv-x="578" 
d="M385 607l-224 111l46 95l220 -125z" />
    <glyph glyph-name="a" unicode="a" horiz-adv-x="578" 
d="M205 -9q-78 0 -125 41.5t-47 117.5q0 166 225 168l108 1v47q0 46 -25.5 63t-83.5 17q-76 0 -158 -25l-27 98q100 40 209 40q110 0 162.5 -38.5t52.5 -124.5v-265q0 -32 53 -34l-5 -101q-10 -1 -26 -1q-124 0 -140 62q-85 -66 -173 -66zM243 95q55 0 123 35v108l-101 -4
q-48 -1 -75 -20t-27 -54q0 -32 22 -48.5t58 -16.5z" />
    <glyph glyph-name="b" unicode="b" horiz-adv-x="617" 
d="M269 -11q-101 0 -200 33v732h133v-227q60 31 132 31q241 0 241 -263q0 -83 -23.5 -144t-66 -95.5t-96 -50.5t-120.5 -16zM307 457q-51 0 -105 -22v-327q52 -13 85 -13q74 0 113 56.5t39 150.5q0 76 -30 115.5t-102 39.5z" />
    <glyph glyph-name="c" unicode="c" horiz-adv-x="518" 
d="M335 -12q-156 0 -225 67t-69 205q0 147 75 223.5t211 76.5q94 0 160 -36l-35 -99q-65 25 -118 25q-77 0 -117 -43t-40 -143q0 -86 37.5 -126.5t136.5 -40.5q36 0 113 15l19 -103q-88 -21 -148 -21z" />
    <glyph glyph-name="d" unicode="d" horiz-adv-x="617" 
d="M276 -9q-32 0 -63 7.5t-63 26.5t-55.5 49t-38.5 79t-15 112q0 149 78.5 222t207.5 73q35 0 83 -9v203h133v-754h-133v44q-22 -17 -34 -25.5t-40 -18t-60 -9.5zM301 102q48 0 109 35v306q-61 11 -81 11q-154 0 -154 -181q0 -89 35 -130t91 -41z" />
    <glyph glyph-name="e" unicode="e" horiz-adv-x="571" 
d="M321 -12q-136 0 -207.5 62t-71.5 215q0 154 70.5 224t187.5 70q122 0 177 -70t55 -205v-48h-356q-1 -80 43 -110t120 -30q67 0 157 23l21 -101q-87 -30 -196 -30zM179 325h216q1 64 -24.5 101t-75.5 37q-49 0 -80.5 -36t-35.5 -102z" />
    <glyph glyph-name="f" unicode="f" horiz-adv-x="373" 
d="M107 0v450h-80v96h80v27q0 195 201 195q53 0 93 -13l-21 -101q-36 8 -67 8q-73 0 -73 -90v-26h117v-96h-117v-450h-133z" />
    <glyph glyph-name="g" unicode="g" horiz-adv-x="598" 
d="M263 193q-47 0 -86 11q-16 -23 -16 -42q0 -15 11 -25t30 -10h112q219 0 219 -152q0 -88 -72 -146.5t-207 -58.5q-106 0 -164 37.5t-58 103.5q0 82 69 128q-40 28 -40 77q0 64 59 112q-72 45 -72 135q0 85 59.5 140.5t162.5 55.5q81 0 134 -32l168 9v-97h-89
q11 -48 11 -72q0 -80 -65.5 -127t-165.5 -47zM321 18h-137q-18 0 -26 1q-28 -31 -28 -68q0 -80 134 -80q71 0 114.5 25t43.5 63q0 28 -26 43.5t-75 15.5zM268 275q49 0 77 27t28 70t-27 71t-75 28q-47 0 -75 -27.5t-28 -73.5q0 -44 27 -69.5t73 -25.5z" />
    <glyph glyph-name="h" unicode="h" horiz-adv-x="636" 
d="M74 0v754h133v-268q92 73 184 73q48 0 82 -12.5t52 -30t28 -49t12 -57t2 -65.5v-345h-131v330q0 63 -18 88t-68 25q-64 0 -143 -45v-398h-133z" />
    <glyph glyph-name="i" unicode="i" horiz-adv-x="281" 
d="M74 0v546h134v-546h-134zM74 653v128h133v-128h-133z" />
    <glyph glyph-name="j" unicode="j" horiz-adv-x="281" 
d="M0 -225q-56 0 -106 22l24 105q37 -13 78 -13q43 0 60.5 25t17.5 81v551h133v-552q0 -65 -16 -109.5t-46.5 -67.5t-65 -32.5t-79.5 -9.5zM73 653v128h133v-128h-133z" />
    <glyph glyph-name="k" unicode="k" horiz-adv-x="575" 
d="M75 0v754h133v-444l189 236h146l-211 -253l232 -293h-165l-191 263v-263h-133z" />
    <glyph glyph-name="l" unicode="l" horiz-adv-x="281" 
d="M74 0v754h133v-754h-133z" />
    <glyph glyph-name="m" unicode="m" horiz-adv-x="969" 
d="M74 0v546h133v-59q94 73 179 73q56 0 95 -22t55 -60q95 82 192 82q49 0 83 -14.5t51 -33t26 -52.5t10.5 -55.5t1.5 -58.5v-346h-133v331q0 59 -18 86t-67 27q-63 0 -132 -45q3 -25 3 -52v-347h-132v331q0 61 -17.5 86.5t-64.5 25.5q-67 0 -132 -44v-399h-133z" />
    <glyph glyph-name="n" unicode="n" horiz-adv-x="636" 
d="M74 0v546h133v-58q51 36 93 54t100 18q55 0 90.5 -17t51.5 -50.5t21 -66t5 -80.5v-346h-132v331q0 64 -17.5 88.5t-67.5 24.5q-68 0 -144 -43v-401h-133z" />
    <glyph glyph-name="o" unicode="o" horiz-adv-x="619" 
d="M304 -12q-126 0 -195 74.5t-69 205.5q0 137 74.5 214.5t199.5 77.5q132 0 198.5 -74.5t66.5 -211.5q0 -138 -75.5 -212t-199.5 -74zM311 95q74 0 103 47t29 130q0 182 -133 182q-135 0 -135 -182q0 -177 136 -177z" />
    <glyph glyph-name="p" unicode="p" horiz-adv-x="621" 
d="M74 -220v766h132v-41q76 54 154 54q100 0 160 -66t60 -200q0 -82 -23.5 -142.5t-65 -94.5t-92 -50t-109.5 -16q-29 0 -84 5v-215h-132zM288 93q78 0 117.5 53t39.5 142q0 159 -129 159q-42 0 -110 -29v-317q80 -8 82 -8z" />
    <glyph glyph-name="q" unicode="q" horiz-adv-x="614" 
d="M410 -220v241q-52 -30 -119 -30q-45 0 -84.5 11.5t-79 39.5t-63 85.5t-23.5 138.5q0 294 306 294q99 0 196 -30v-750h-133zM305 103q54 0 105 20v319q-37 11 -81 11q-155 0 -155 -181q0 -169 131 -169z" />
    <glyph glyph-name="r" unicode="r" horiz-adv-x="427" 
d="M74 0v546h133v-73q23 33 62 58.5t85 25.5q44 0 71 -9l-19 -110q-31 6 -70 6t-74 -18.5t-55 -43.5v-382h-133z" />
    <glyph glyph-name="s" unicode="s" horiz-adv-x="482" 
d="M209 -12q-97 0 -171 23l16 104q103 -18 158 -18q108 0 108 53q0 20 -20.5 35.5t-51 24.5t-66 23.5t-66 32t-51 50.5t-20.5 77q0 81 61.5 124t154.5 43q87 0 163 -29l-24 -99q-70 21 -135 21q-88 0 -88 -49q0 -21 20 -36.5t50.5 -25.5t66 -25t66 -32.5t50.5 -51t20 -77.5
q0 -47 -22 -81.5t-59 -52.5t-77 -26t-83 -8z" />
    <glyph glyph-name="t" unicode="t" horiz-adv-x="452" 
d="M285 -13q-90 0 -137.5 40.5t-47.5 135.5v281h-80v102h80v112h133v-112h169v-102h-169v-274q0 -39 17 -54t58 -15q49 0 108 16l15 -106q-67 -24 -146 -24z" />
    <glyph glyph-name="u" unicode="u" horiz-adv-x="635" 
d="M235 -12q-44 0 -75.5 12.5t-48.5 31.5t-27 49.5t-12.5 57t-2.5 64.5v343h133v-328q0 -63 16.5 -88t67.5 -25q72 0 143 43v398h133v-546h-133v59q-31 -22 -51.5 -34.5t-60 -24.5t-82.5 -12z" />
    <glyph glyph-name="v" unicode="v" horiz-adv-x="567" 
d="M197 0l-190 546h143l101 -326l31 -112l34 113l112 325h139l-206 -546h-164z" />
    <glyph glyph-name="w" unicode="w" horiz-adv-x="899" 
d="M170 0l-151 546h140l97 -440l118 440h161l102 -440l117 440h136l-172 -546h-168l-81 336l-18 85l-20 -84l-92 -337h-169z" />
    <glyph glyph-name="x" unicode="x" horiz-adv-x="568" 
d="M11 0l197 279l-184 267h154l106 -183l107 183h151l-183 -266l199 -280h-160l-114 195l-116 -195h-157z" />
    <glyph glyph-name="y" unicode="y" horiz-adv-x="564" 
d="M166 -220l75 220h-52l-183 546h144l103 -349l26 -92l29 91l118 350h135l-267 -766h-128z" />
    <glyph glyph-name="z" unicode="z" horiz-adv-x="518" 
d="M35 0v93l281 344h-261v109h418v-90l-279 -348h283v-108h-442z" />
    <glyph glyph-name="braceleft" unicode="{" horiz-adv-x="347" 
d="M291 -222q-99 0 -152 34.5t-53 118.5q0 9 2 29l21 192q3 25 -17.5 46.5t-61.5 21.5v106q41 0 61.5 21t17.5 46l-21 196q-2 22 -2 31q1 81 54 115.5t151 34.5h44v-112h-40q-43 0 -63 -21.5t-16 -58.5l21 -176q12 -96 -68 -127v-2q80 -36 68 -128l-21 -176
q-4 -36 15.5 -57.5t63.5 -21.5h40v-112h-44z" />
    <glyph glyph-name="bar" unicode="|" horiz-adv-x="266" 
d="M73 -220v974h120v-974h-120z" />
    <glyph glyph-name="braceright" unicode="}" horiz-adv-x="347" 
d="M56 -222h-45v112h41q44 0 63.5 21.5t15.5 57.5l-21 176q-12 92 68 128v2q-80 31 -68 127l21 176q4 37 -16 58.5t-63 21.5h-41v112h45q97 0 150 -34.5t55 -115.5q0 -9 -2 -31l-21 -196q-3 -25 17.5 -46t61.5 -21v-106q-42 0 -62 -21.5t-17 -46.5l21 -192q2 -20 2 -29
q0 -84 -53 -118.5t-152 -34.5z" />
    <glyph glyph-name="asciitilde" unicode="~" horiz-adv-x="564" 
d="M376 257q-50 0 -109.5 30t-86.5 30q-42 0 -80 -32l-62 84q72 81 148 81q50 0 105 -30.5t86 -30.5q17 0 25 0.5t26 8.5t37 24l62 -78q-24 -35 -67.5 -61t-83.5 -26z" />
    <glyph glyph-name="uni00A0" unicode="&#xa0;" horiz-adv-x="236" 
 />
    <glyph glyph-name="exclamdown" unicode="&#xa1;" horiz-adv-x="288" 
d="M78 -161v332l7 173h118l8 -173v-332h-133zM75 422v124h139v-124h-139z" />
    <glyph glyph-name="cent" unicode="&#xa2;" horiz-adv-x="500" 
d="M235 -56v86q-114 16 -160 72t-46 175q0 203 206 240v83h119v-79q56 -5 104 -30l-36 -95q-46 13 -68 16v-281q20 1 86 11l20 -101q-63 -15 -106 -17v-80h-119zM166 275q0 -56 15 -87t54 -45v258q-69 -30 -69 -126z" />
    <glyph glyph-name="sterling" unicode="&#xa3;" horiz-adv-x="506" 
d="M55 0v97q33 17 52 49t19 65h-84v102h87q0 21 -1.5 37t-1.5 30q0 53 16.5 90t41.5 57.5t66.5 32t78 15t90.5 3.5l6 -109q-103 -10 -129 -22q-36 -18 -35 -72q1 -16 1 -27v-7.5v-12.5v-15h159v-102h-171q-5 -66 -50 -104h266v-107h-411z" />
    <glyph glyph-name="currency" unicode="&#xa4;" horiz-adv-x="542" 
d="M100 129l-52 51l62 62q-41 46 -41 110q0 65 40 110l-61 62l52 51l68 -68q51 24 103 24q57 0 104 -24l67 69l53 -53l-61 -61q39 -46 39 -110q0 -66 -41 -110l63 -62l-52 -52l-69 69q-46 -23 -103 -23q-56 0 -102 23zM271 271q42 0 61.5 22.5t19.5 58.5q0 35 -20 58.5
t-61 23.5t-61.5 -23.5t-20.5 -58.5q0 -34 21 -57.5t61 -23.5z" />
    <glyph glyph-name="yen" unicode="&#xa5;" horiz-adv-x="659" 
d="M607 546l-121 -206h122v-108h-187l-28 -48l-7 -46h222v-108h-222v-30h-126l-1 30h-208v109h209l-6 42l-28 51h-175v108h114l-113 206h144l131 -266l139 266h141z" />
    <glyph glyph-name="brokenbar" unicode="&#xa6;" horiz-adv-x="306" 
d="M93 -220v361h120v-361h-120zM93 392v362h120v-362h-120z" />
    <glyph glyph-name="section" unicode="&#xa7;" horiz-adv-x="701" 
d="M177 -88q-73 0 -121 40l36 98q47 -34 84 -34q40 0 40 77q0 33 -13 113l-11 56q-10 53 -10 98q0 121 92.5 196.5t224.5 75.5q100 0 162 -55q-48 -78 -56 -86q-45 39 -104 39q-46 0 -46 -58q0 -41 10 -78l12 -47q20 -89 20 -168q0 -113 -94 -190t-226 -77zM314 26
q69 62 69 143q0 39 -11 99l-17 80q-7 47 -7 88q0 43 9 78q-59 -41 -59 -139q-2 -45 8 -89l16 -82q9 -36 9 -84q0 -29 -17 -94z" />
    <glyph glyph-name="dieresis" unicode="&#xa8;" horiz-adv-x="423" 
d="M149 653h-127v128h127v-128zM398 653h-126v128h126v-128z" />
    <glyph glyph-name="copyright" unicode="&#xa9;" horiz-adv-x="795" 
d="M417 74q-95 0 -149.5 56.5t-54.5 143.5q0 93 53 148t149 55q80 0 125 -28l-25 -68q-44 17 -99 17q-52 0 -84.5 -29.5t-32.5 -90.5q0 -60 35.5 -91t91.5 -31q50 0 93 14l23 -72q-58 -24 -125 -24zM389 -86q-162 0 -253.5 98.5t-91.5 262.5q0 166 100 261.5t264 95.5
q165 0 254 -99t89 -260q0 -165 -97 -262t-265 -97zM393 -22q136 0 208.5 82t72.5 214q0 130 -73.5 212t-201.5 82q-132 0 -205 -81t-73 -211q0 -128 71.5 -213t200.5 -85z" />
    <glyph glyph-name="ordfeminine" unicode="&#xaa;" horiz-adv-x="420" 
d="M163 388q-105 0 -105 94t133 94l57 1v27q0 22 -12.5 29t-47.5 7q-33 0 -91 -15l-18 65q66 24 123 24q29 0 48.5 -3t40.5 -11.5t31.5 -28.5t10.5 -50v-149q0 -6 4 -9.5t9 -4t16 -1.5l-4 -66q-87 -5 -101 31q-49 -34 -94 -34zM175 457q9 0 23 3.5t30 8.5t20 6v46l-53 -2
q-52 -2 -52 -31q0 -31 32 -31zM59 289v68h306v-68h-306z" />
    <glyph glyph-name="guillemotleft" unicode="&#xab;" horiz-adv-x="488" 
d="M155 46l-120 226l119 224l86 -34l-89 -190l88 -185zM359 46l-120 226l119 224l86 -34l-89 -190l88 -185z" />
    <glyph glyph-name="logicalnot" unicode="&#xac;" horiz-adv-x="616" 
d="M436 96v157h-381v104h493v-261h-112z" />
    <glyph glyph-name="registered" unicode="&#xae;" horiz-adv-x="552" 
d="M517 531q0 -105 -67.5 -165t-171.5 -60q-43 0 -83.5 12t-77.5 36.5t-59.5 70.5t-22.5 106q0 107 68.5 168.5t173.5 61.5q45 0 86 -13t76.5 -39t56.5 -72t21 -106zM465 531q0 90 -55 137t-132 47q-83 0 -137 -44.5t-54 -135.5q0 -55 21 -94t54 -57t62.5 -25t58.5 -7
q79 0 130.5 47.5t51.5 131.5zM404 449l-7 -40q-50 2 -77 26q-19 17 -46 71h-31v-91h-62v252l99 1q44 0 70 -21t26 -61q0 -47 -43 -69q29 -41 33 -45q8 -8 38 -23zM317 586q0 21 -8.5 31t-31.5 10h-35v-85h31q44 0 44 44z" />
    <glyph glyph-name="macron" unicode="&#xaf;" horiz-adv-x="550" 
d="M119 654v105h305v-105h-305z" />
    <glyph glyph-name="degree" unicode="&#xb0;" horiz-adv-x="393" 
d="M195 403q-76 0 -117 41t-41 117q0 70 46 113t115 43q71 0 115.5 -42t44.5 -114t-46 -115t-117 -43zM197 487q60 0 60 74q0 72 -60 72q-61 0 -61 -72q0 -74 61 -74z" />
    <glyph glyph-name="plusminus" unicode="&#xb1;" horiz-adv-x="537" 
d="M216 123l1 169l-170 -1v104l170 -3l-1 170h105l-4 -172l173 5v-104l-171 1l2 -169h-105zM47 0v104h443v-104h-443z" />
    <glyph glyph-name="twosuperior" unicode="&#xb2;" horiz-adv-x="305" 
d="M12 415v66q80 57 125.5 100.5t45.5 77.5q0 20 -14 31.5t-36 11.5q-44 0 -78 -27q-5 10 -17 33t-17 33q53 45 130 45q60 0 96 -32.5t36 -83.5q0 -91 -151 -175h155v-80h-275z" />
    <glyph glyph-name="threesuperior" unicode="&#xb3;" horiz-adv-x="304" 
d="M133 410q-56 0 -115 16l17 74q49 -11 89 -11q63 0 63 44q0 27 -21.5 37.5t-71.5 12.5v47q43 4 59.5 16t16.5 35q-1 15 -13 23.5t-29 8.5q-40 0 -75 -16q-3 11 -11.5 35.5t-10.5 30.5q48 25 108 25t95 -24.5t35 -72.5q0 -24 -13.5 -45.5t-36.5 -31.5q68 -21 68 -89
q0 -60 -42.5 -87.5t-111.5 -27.5z" />
    <glyph glyph-name="acute" unicode="&#xb4;" horiz-adv-x="578" 
d="M205 608l-40 80l219 124l47 -94z" />
    <glyph glyph-name="mu" unicode="&#xb5;" horiz-adv-x="656" 
d="M70 -220v766h132v-340q0 -55 18 -78.5t68 -23.5q55 0 137 44v398h134v-414q0 -21 14 -28.5t44 -6.5l-4 -102q-30 -2 -48 -2q-116 0 -133 72q-97 -79 -187 -79q-31 0 -43 10v-216h-132z" />
    <glyph glyph-name="paragraph" unicode="&#xb6;" horiz-adv-x="610" 
d="M329 -224q-55 0 -103 17l24 112q48 -12 81 -12q42 0 59 23t17 78v713h133v-714q0 -217 -211 -217zM229 243q-100 0 -151.5 60.5t-51.5 174.5q0 69 19.5 115.5t57 70.5t80 33.5t101.5 9.5h59v-464h-114z" />
    <glyph glyph-name="periodcentered" unicode="&#xb7;" horiz-adv-x="251" 
d="M54 300v136h151v-136h-151z" />
    <glyph glyph-name="cedilla" unicode="&#xb8;" horiz-adv-x="463" 
d="M192 -267l-46 79q50 31 62 48q8 12 8 25q0 20 -16 64h109q21 -44 21 -76q0 -81 -138 -140z" />
    <glyph glyph-name="onesuperior" unicode="&#xb9;" horiz-adv-x="245" 
d="M95 415v287h-79v77q50 2 180 5v-369h-101z" />
    <glyph glyph-name="ordmasculine" unicode="&#xba;" horiz-adv-x="430" 
d="M212 383q-76 0 -117 43.5t-41 119.5q0 79 44.5 124.5t118.5 45.5q160 0 160 -167q0 -79 -45.5 -122.5t-119.5 -43.5zM216 455q39 0 54.5 24.5t15.5 69.5q0 95 -71 95t-71 -96q0 -93 72 -93zM62 289v68h305v-68h-305z" />
    <glyph glyph-name="guillemotright" unicode="&#xbb;" horiz-adv-x="487" 
d="M129 46l-84 41l88 185l-90 190l86 34l120 -224zM333 46l-84 41l88 185l-90 190l86 34l119 -224z" />
    <glyph glyph-name="onequarter" unicode="&#xbc;" horiz-adv-x="798" 
d="M613 0v83h-161v75l112 210h140v-213h55v-72h-55v-83h-91zM520 155h93v160zM117 415v287h-79v77q50 2 180 5v-369h-101zM113 67l-50 54l537 540l50 -52z" />
    <glyph glyph-name="onehalf" unicode="&#xbd;" horiz-adv-x="797" 
d="M465 0v66q80 57 125.5 100.5t45.5 77.5q0 20 -14 31.5t-36 11.5q-44 0 -78 -27q-4 10 -16.5 33t-17.5 33q53 45 130 45q60 0 96 -32.5t36 -83.5q0 -91 -151 -175h155v-80h-275zM116 415v287h-79v77q50 2 180 5v-369h-101zM108 67l-50 54l537 540l50 -52z" />
    <glyph glyph-name="threequarters" unicode="&#xbe;" horiz-adv-x="804" 
d="M618 0v83h-161v75l112 210h140v-213h55v-72h-55v-83h-91zM154 410q-56 0 -115 16l17 74q49 -11 89 -11q63 0 63 44q0 27 -21.5 37.5t-71.5 12.5v47q43 4 59.5 16t16.5 35q-1 15 -13 23.5t-29 8.5q-40 0 -75 -16q-3 11 -11.5 35.5t-10.5 30.5q48 25 108 25t95 -24.5
t35 -72.5q0 -24 -13.5 -45.5t-36.5 -31.5q68 -21 68 -89q0 -60 -42.5 -87.5t-111.5 -27.5zM132 67l-50 54l537 540l50 -52zM525 155h93v160z" />
    <glyph glyph-name="questiondown" unicode="&#xbf;" horiz-adv-x="391" 
d="M336 -164q-302 21 -302 203q0 42 29 81t63.5 63.5t63.5 52.5t29 51q0 33 -14 64l109 18q23 -47 23 -89q0 -44 -26 -83t-56.5 -61.5t-56.5 -48t-26 -44.5q0 -81 189 -96zM184 422v124h138v-124h-138z" />
    <glyph glyph-name="Agrave" unicode="&#xc0;" horiz-adv-x="700" 
d="M444 745l-256 55l25 107l252 -72zM-9 0l279 707h177l245 -707h-143l-77 229h-255l-87 -229h-139zM255 330h183l-85 290z" />
    <glyph glyph-name="Aacute" unicode="&#xc1;" horiz-adv-x="700" 
d="M-9 0l279 707h177l245 -707h-143l-77 229h-255l-87 -229h-139zM255 330h183l-85 290zM264 745l-21 90l251 73l25 -106z" />
    <glyph glyph-name="Acircumflex" unicode="&#xc2;" horiz-adv-x="700" 
d="M-9 0l279 707h177l245 -707h-143l-77 229h-255l-87 -229h-139zM255 330h183l-85 290zM222 745l-47 86l179 89l176 -88l-47 -87l-130 59z" />
    <glyph glyph-name="Atilde" unicode="&#xc3;" horiz-adv-x="700" 
d="M-9 0l279 707h177l245 -707h-143l-77 229h-255l-87 -229h-139zM255 330h183l-85 290zM418 755q-25 0 -66 18.5t-59 18.5q-38 0 -70 -26l-51 63q62 68 127 68q33 0 70.5 -19t51.5 -19q35 0 78 26l46 -62q-59 -68 -127 -68z" />
    <glyph glyph-name="Adieresis" unicode="&#xc4;" horiz-adv-x="700" 
d="M-9 0l279 707h177l245 -707h-143l-77 229h-255l-87 -229h-139zM255 330h183l-85 290zM295 764h-127v127h127v-127zM537 764h-126v127h126v-127z" />
    <glyph glyph-name="Aring" unicode="&#xc5;" horiz-adv-x="700" 
d="M-9 0l279 707h177l245 -707h-143l-77 229h-255l-87 -229h-139zM255 330h183l-85 290zM360 744q-50 0 -85.5 25t-35.5 79q0 53 35 81t83 28q46 0 83.5 -25.5t37.5 -81.5q0 -51 -34 -78.5t-84 -27.5zM358 798q52 0 55 51q0 23 -16 37t-39 14q-55 0 -55 -49q0 -24 15 -38.5
t40 -14.5z" />
    <glyph glyph-name="AE" unicode="&#xc6;" horiz-adv-x="953" 
d="M-20 0l348 707h555v-108h-302v-193h280v-102h-280v-196h325v-108h-461v270h-186l-125 -270h-154zM303 372h142v227h-37z" />
    <glyph glyph-name="Ccedilla" unicode="&#xc7;" horiz-adv-x="678" 
d="M430 -12q-185 0 -284 95.5t-99 265.5t101 269.5t278 99.5q120 0 214 -43l-38 -101q-38 11 -56.5 16t-49 9t-68.5 4q-108 1 -174.5 -60.5t-66.5 -183.5q0 -125 71 -189.5t189 -64.5q87 0 165 23l30 -105q-95 -35 -212 -35zM347 -267l-46 79q50 31 62 48q8 12 8 25
q0 20 -16 64h109q21 -44 21 -76q0 -81 -138 -140z" />
    <glyph glyph-name="Egrave" unicode="&#xc8;" 
d="M412 745l-256 55l25 107l252 -72zM92 0v707h438v-108h-302v-193h280v-102h-280v-196h325v-108h-461z" />
    <glyph glyph-name="Eacute" unicode="&#xc9;" 
d="M234 745l-21 90l251 73l25 -106zM92 0v707h438v-108h-302v-193h280v-102h-280v-196h325v-108h-461z" />
    <glyph glyph-name="Ecircumflex" unicode="&#xca;" 
d="M92 0v707h438v-108h-302v-193h280v-102h-280v-196h325v-108h-461zM186 745l-47 86l179 89l176 -88l-47 -87l-130 59z" />
    <glyph glyph-name="Edieresis" unicode="&#xcb;" 
d="M257 764h-127v127h127v-127zM499 764h-126v127h126v-127zM92 0v707h438v-108h-302v-193h280v-102h-280v-196h325v-108h-461z" />
    <glyph glyph-name="Igrave" unicode="&#xcc;" horiz-adv-x="320" 
d="M233 745l-256 55l25 107l252 -72zM92 0v707h136v-707h-136z" />
    <glyph glyph-name="Iacute" unicode="&#xcd;" horiz-adv-x="320" 
d="M92 0v707h136v-707h-136zM91 745l-21 90l251 73l25 -106z" />
    <glyph glyph-name="Icircumflex" unicode="&#xce;" horiz-adv-x="320" 
d="M92 0v707h136v-707h-136zM29 745l-47 86l179 89l176 -88l-47 -87l-130 59z" />
    <glyph glyph-name="Idieresis" unicode="&#xcf;" horiz-adv-x="320" 
d="M92 0v707h136v-707h-136zM101 764h-127v127h127v-127zM343 764h-126v127h126v-127z" />
    <glyph glyph-name="Eth" unicode="&#xd0;" horiz-adv-x="803" 
d="M44 307v86h76v314h229q188 0 297 -87t109 -264q0 -180 -104.5 -268t-295.5 -88h-235v307h-76zM256 108h110q252 0 252 238q0 253 -272 253h-90v-206h145v-86h-145v-199z" />
    <glyph glyph-name="Ntilde" unicode="&#xd1;" horiz-adv-x="792" 
d="M463 755q-25 0 -66 18.5t-59 18.5q-38 0 -70 -26l-51 63q62 68 127 68q33 0 70.5 -19t51.5 -19q35 0 78 26l46 -62q-59 -68 -127 -68zM92 0v707h162l312 -534h2l-4 83v451h137v-707h-168l-305 523h-4l4 -86v-437h-136z" />
    <glyph glyph-name="Ograve" unicode="&#xd2;" horiz-adv-x="831" 
d="M510 745l-256 55l25 107l252 -72zM407 -12q-175 0 -268 98t-93 269q0 167 102 265t276 98q178 0 269.5 -100.5t91.5 -264.5q0 -169 -99 -267t-279 -98zM410 97q120 0 178 70.5t58 186.5q0 115 -58.5 185t-170.5 70q-116 0 -174.5 -69.5t-58.5 -183.5q0 -113 57 -186
t169 -73z" />
    <glyph glyph-name="Oacute" unicode="&#xd3;" horiz-adv-x="831" 
d="M324 745l-21 90l251 73l25 -106zM407 -12q-175 0 -268 98t-93 269q0 167 102 265t276 98q178 0 269.5 -100.5t91.5 -264.5q0 -169 -99 -267t-279 -98zM410 97q120 0 178 70.5t58 186.5q0 115 -58.5 185t-170.5 70q-116 0 -174.5 -69.5t-58.5 -183.5q0 -113 57 -186
t169 -73z" />
    <glyph glyph-name="Ocircumflex" unicode="&#xd4;" horiz-adv-x="831" 
d="M286 745l-47 86l179 89l176 -88l-47 -87l-130 59zM407 -12q-175 0 -268 98t-93 269q0 167 102 265t276 98q178 0 269.5 -100.5t91.5 -264.5q0 -169 -99 -267t-279 -98zM410 97q120 0 178 70.5t58 186.5q0 115 -58.5 185t-170.5 70q-116 0 -174.5 -69.5t-58.5 -183.5
q0 -113 57 -186t169 -73z" />
    <glyph glyph-name="Otilde" unicode="&#xd5;" horiz-adv-x="831" 
d="M481 755q-25 0 -66 18.5t-59 18.5q-38 0 -70 -26l-51 63q62 68 127 68q33 0 70.5 -19t51.5 -19q35 0 78 26l46 -62q-59 -68 -127 -68zM407 -12q-175 0 -268 98t-93 269q0 167 102 265t276 98q178 0 269.5 -100.5t91.5 -264.5q0 -169 -99 -267t-279 -98zM410 97
q120 0 178 70.5t58 186.5q0 115 -58.5 185t-170.5 70q-116 0 -174.5 -69.5t-58.5 -183.5q0 -113 57 -186t169 -73z" />
    <glyph glyph-name="Odieresis" unicode="&#xd6;" horiz-adv-x="831" 
d="M352 764h-127v127h127v-127zM594 764h-126v127h126v-127zM407 -12q-175 0 -268 98t-93 269q0 167 102 265t276 98q178 0 269.5 -100.5t91.5 -264.5q0 -169 -99 -267t-279 -98zM410 97q120 0 178 70.5t58 186.5q0 115 -58.5 185t-170.5 70q-116 0 -174.5 -69.5
t-58.5 -183.5q0 -113 57 -186t169 -73z" />
    <glyph glyph-name="multiply" unicode="&#xd7;" horiz-adv-x="556" 
d="M442 68l-166 167l-160 -163l-74 74l163 161l-162 160l71 74l161 -164l163 165l74 -74l-169 -163l170 -163z" />
    <glyph glyph-name="Oslash" unicode="&#xd8;" horiz-adv-x="860" 
d="M99 -39l-58 58l89 92q-71 94 -71 244q0 167 102 265t276 98q134 0 222 -60l87 90l61 -56l-87 -90q78 -96 78 -249q0 -169 -99 -267t-279 -98q-142 0 -231 66zM423 97q120 0 178 70.5t58 186.5q0 88 -34 150l-347 -359q56 -48 145 -48zM197 356q0 -82 30 -145l344 355
q-57 43 -141 43q-116 0 -174.5 -69.5t-58.5 -183.5z" />
    <glyph glyph-name="Ugrave" unicode="&#xd9;" horiz-adv-x="780" 
d="M482 745l-256 55l25 107l252 -72zM392 -13q-61 0 -113.5 14t-98.5 45.5t-72.5 89t-26.5 136.5v435h138v-429q0 -177 173 -177q174 0 174 199v407h135v-410q0 -69 -18.5 -123.5t-48 -89t-70.5 -57t-83.5 -31.5t-88.5 -9z" />
    <glyph glyph-name="Uacute" unicode="&#xda;" horiz-adv-x="780" 
d="M315 745l-21 90l251 73l25 -106zM392 -13q-61 0 -113.5 14t-98.5 45.5t-72.5 89t-26.5 136.5v435h138v-429q0 -177 173 -177q174 0 174 199v407h135v-410q0 -69 -18.5 -123.5t-48 -89t-70.5 -57t-83.5 -31.5t-88.5 -9z" />
    <glyph glyph-name="Ucircumflex" unicode="&#xdb;" horiz-adv-x="780" 
d="M392 -13q-61 0 -113.5 14t-98.5 45.5t-72.5 89t-26.5 136.5v435h138v-429q0 -177 173 -177q174 0 174 199v407h135v-410q0 -69 -18.5 -123.5t-48 -89t-70.5 -57t-83.5 -31.5t-88.5 -9zM264 745l-47 86l179 89l176 -88l-47 -87l-130 59z" />
    <glyph glyph-name="Udieresis" unicode="&#xdc;" horiz-adv-x="780" 
d="M334 764h-127v127h127v-127zM576 764h-126v127h126v-127zM392 -13q-61 0 -113.5 14t-98.5 45.5t-72.5 89t-26.5 136.5v435h138v-429q0 -177 173 -177q174 0 174 199v407h135v-410q0 -69 -18.5 -123.5t-48 -89t-70.5 -57t-83.5 -31.5t-88.5 -9z" />
    <glyph glyph-name="Yacute" unicode="&#xdd;" horiz-adv-x="662" 
d="M261 0v243l-250 464h157l166 -348l177 348h152l-266 -461v-246h-136zM261 745l-21 90l251 73l25 -106z" />
    <glyph glyph-name="Thorn" unicode="&#xde;" horiz-adv-x="634" 
d="M92 0v707h137v-110h121q117 0 186.5 -62t69.5 -176q0 -106 -80 -174.5t-228 -68.5h-69v-116h-137zM229 489v-266h75q79 0 120 34.5t41 97.5q0 66 -32.5 100t-104.5 34h-99z" />
    <glyph glyph-name="germandbls" unicode="&#xdf;" horiz-adv-x="638" 
d="M74 0v546q0 222 237 222q31 0 63 -7t68 -24t59 -53t23 -87q0 -34 -17 -67t-38 -53.5t-38 -44.5t-17 -43q0 -24 21 -44t50.5 -35.5t59 -34t50.5 -49.5t21 -72q0 -45 -19 -79t-49.5 -52t-63.5 -26.5t-67 -8.5q-102 0 -159 21l17 104q71 -17 116 -17q95 0 95 49q0 22 -21 39
t-50.5 32t-59.5 33.5t-51 53t-21 80.5q0 37 25 74t50 70.5t25 62.5q0 31 -24.5 50t-57.5 19q-53 0 -74 -29t-21 -85v-545h-132z" />
    <glyph glyph-name="agrave" unicode="&#xe0;" horiz-adv-x="578" 
d="M205 -9q-78 0 -125 41.5t-47 117.5q0 166 225 168l108 1v47q0 46 -25.5 63t-83.5 17q-76 0 -158 -25l-27 98q100 40 209 40q110 0 162.5 -38.5t52.5 -124.5v-265q0 -32 53 -34l-5 -101q-10 -1 -26 -1q-124 0 -140 62q-85 -66 -173 -66zM243 95q55 0 123 35v108l-101 -4
q-48 -1 -75 -20t-27 -54q0 -32 22 -48.5t58 -16.5zM351 608l-224 111l46 95l220 -125z" />
    <glyph glyph-name="aacute" unicode="&#xe1;" horiz-adv-x="578" 
d="M205 -9q-78 0 -125 41.5t-47 117.5q0 166 225 168l108 1v47q0 46 -25.5 63t-83.5 17q-76 0 -158 -25l-27 98q100 40 209 40q110 0 162.5 -38.5t52.5 -124.5v-265q0 -32 53 -34l-5 -101q-10 -1 -26 -1q-124 0 -140 62q-85 -66 -173 -66zM243 95q55 0 123 35v108l-101 -4
q-48 -1 -75 -20t-27 -54q0 -32 22 -48.5t58 -16.5zM213 608l-40 80l219 124l47 -94z" />
    <glyph glyph-name="acircumflex" unicode="&#xe2;" horiz-adv-x="578" 
d="M403 614l-125 88l-129 -88l-58 75l188 123l180 -123zM205 -9q-78 0 -125 41.5t-47 117.5q0 166 225 168l108 1v47q0 46 -25.5 63t-83.5 17q-76 0 -158 -25l-27 98q100 40 209 40q110 0 162.5 -38.5t52.5 -124.5v-265q0 -32 53 -34l-5 -101q-10 -1 -26 -1q-124 0 -140 62
q-85 -66 -173 -66zM243 95q55 0 123 35v108l-101 -4q-48 -1 -75 -20t-27 -54q0 -32 22 -48.5t58 -16.5z" />
    <glyph glyph-name="atilde" unicode="&#xe3;" horiz-adv-x="578" 
d="M205 -9q-78 0 -125 41.5t-47 117.5q0 166 225 168l108 1v47q0 46 -25.5 63t-83.5 17q-76 0 -158 -25l-27 98q100 40 209 40q110 0 162.5 -38.5t52.5 -124.5v-265q0 -32 53 -34l-5 -101q-10 -1 -26 -1q-124 0 -140 62q-85 -66 -173 -66zM243 95q55 0 123 35v108l-101 -4
q-48 -1 -75 -20t-27 -54q0 -32 22 -48.5t58 -16.5zM335 638q-26 0 -66.5 18.5t-59.5 18.5q-37 0 -70 -27l-51 64q62 68 130 68q32 0 69.5 -19t53.5 -19q34 0 80 27l46 -63q-64 -68 -132 -68z" />
    <glyph glyph-name="adieresis" unicode="&#xe4;" horiz-adv-x="578" 
d="M217 653h-127v128h127v-128zM466 653h-126v128h126v-128zM205 -9q-78 0 -125 41.5t-47 117.5q0 166 225 168l108 1v47q0 46 -25.5 63t-83.5 17q-76 0 -158 -25l-27 98q100 40 209 40q110 0 162.5 -38.5t52.5 -124.5v-265q0 -32 53 -34l-5 -101q-10 -1 -26 -1
q-124 0 -140 62q-85 -66 -173 -66zM243 95q55 0 123 35v108l-101 -4q-48 -1 -75 -20t-27 -54q0 -32 22 -48.5t58 -16.5z" />
    <glyph glyph-name="aring" unicode="&#xe5;" horiz-adv-x="578" 
d="M205 -9q-78 0 -125 41.5t-47 117.5q0 166 225 168l108 1v47q0 46 -25.5 63t-83.5 17q-76 0 -158 -25l-27 98q100 40 209 40q110 0 162.5 -38.5t52.5 -124.5v-265q0 -32 53 -34l-5 -101q-10 -1 -26 -1q-124 0 -140 62q-85 -66 -173 -66zM243 95q55 0 123 35v108l-101 -4
q-48 -1 -75 -20t-27 -54q0 -32 22 -48.5t58 -16.5zM290 597q-57 0 -96 27t-39 88q0 58 39.5 90t92.5 32q22 0 44 -6t43.5 -19t34.5 -37.5t13 -57.5q0 -57 -38 -87t-94 -30zM288 656q28 0 43.5 15t17.5 42q0 26 -17.5 41.5t-43.5 15.5q-61 0 -61 -55q0 -27 16.5 -43t44.5 -16
z" />
    <glyph glyph-name="ae" unicode="&#xe6;" horiz-adv-x="893" 
d="M646 -9q-169 0 -235 88q-99 -87 -203 -87q-84 0 -129.5 40t-45.5 119q0 49 20 83t56 49.5t70 22t79 7.5q87 3 108 3v56q0 45 -25.5 59.5t-89.5 14.5q-45 0 -152 -24l-27 98q106 39 203 39q137 0 184 -54q62 54 173 54q222 0 222 -271v-44l-357 -10q1 -82 45 -109.5
t128 -27.5q50 0 148 20l19 -99q-83 -27 -191 -27zM232 95q58 0 150 43q-11 34 -16 92l-100 -2q-103 -3 -103 -69q0 -64 69 -64zM502 324l214 9q1 59 -25.5 94t-70.5 35q-49 0 -83 -34.5t-35 -103.5z" />
    <glyph glyph-name="ccedilla" unicode="&#xe7;" horiz-adv-x="518" 
d="M335 -12q-156 0 -225 67t-69 205q0 147 75 223.5t211 76.5q94 0 160 -36l-35 -99q-65 25 -118 25q-77 0 -117 -43t-40 -143q0 -86 37.5 -126.5t136.5 -40.5q36 0 113 15l19 -103q-88 -21 -148 -21zM246 -267l-46 79q50 31 62 48q8 12 8 25q0 20 -16 64h109q21 -44 21 -76
q0 -81 -138 -140z" />
    <glyph glyph-name="egrave" unicode="&#xe8;" horiz-adv-x="571" 
d="M321 -12q-136 0 -207.5 62t-71.5 215q0 154 70.5 224t187.5 70q122 0 177 -70t55 -205v-48h-356q-1 -80 43 -110t120 -30q67 0 157 23l21 -101q-87 -30 -196 -30zM179 325h216q1 64 -24.5 101t-75.5 37q-49 0 -80.5 -36t-35.5 -102zM362 608l-224 111l46 95l220 -125z
" />
    <glyph glyph-name="eacute" unicode="&#xe9;" horiz-adv-x="571" 
d="M225 608l-40 80l219 124l47 -94zM321 -12q-136 0 -207.5 62t-71.5 215q0 154 70.5 224t187.5 70q122 0 177 -70t55 -205v-48h-356q-1 -80 43 -110t120 -30q67 0 157 23l21 -101q-87 -30 -196 -30zM179 325h216q1 64 -24.5 101t-75.5 37q-49 0 -80.5 -36t-35.5 -102z" />
    <glyph glyph-name="ecircumflex" unicode="&#xea;" horiz-adv-x="571" 
d="M414 614l-125 88l-129 -88l-58 75l188 123l180 -123zM321 -12q-136 0 -207.5 62t-71.5 215q0 154 70.5 224t187.5 70q122 0 177 -70t55 -205v-48h-356q-1 -80 43 -110t120 -30q67 0 157 23l21 -101q-87 -30 -196 -30zM179 325h216q1 64 -24.5 101t-75.5 37
q-49 0 -80.5 -36t-35.5 -102z" />
    <glyph glyph-name="edieresis" unicode="&#xeb;" horiz-adv-x="571" 
d="M226 653h-127v128h127v-128zM475 653h-126v128h126v-128zM321 -12q-136 0 -207.5 62t-71.5 215q0 154 70.5 224t187.5 70q122 0 177 -70t55 -205v-48h-356q-1 -80 43 -110t120 -30q67 0 157 23l21 -101q-87 -30 -196 -30zM179 325h216q1 64 -24.5 101t-75.5 37
q-49 0 -80.5 -36t-35.5 -102z" />
    <glyph glyph-name="igrave" unicode="&#xec;" horiz-adv-x="281" 
d="M74 0v546h134v-546h-134zM197 608l-224 111l46 95l220 -125z" />
    <glyph glyph-name="iacute" unicode="&#xed;" horiz-adv-x="281" 
d="M74 608l-40 80l219 124l47 -94zM74 0v546h134v-546h-134z" />
    <glyph glyph-name="icircumflex" unicode="&#xee;" horiz-adv-x="281" 
d="M267 614l-125 88l-129 -88l-58 75l188 123l180 -123zM74 0v546h134v-546h-134z" />
    <glyph glyph-name="idieresis" unicode="&#xef;" horiz-adv-x="281" 
d="M78 653h-127v128h127v-128zM327 653h-126v128h126v-128zM74 0v546h134v-546h-134z" />
    <glyph glyph-name="eth" unicode="&#xf0;" horiz-adv-x="632" 
d="M305 -11q-127 0 -195.5 70.5t-68.5 201.5q0 125 76 202.5t189 77.5q52 0 95 -22q-30 50 -86 97l-74 -59l-44 48l63 49q-29 18 -72 38l69 85q49 -18 94 -46l73 58l43 -48l-61 -48q81 -68 127 -165.5t46 -251.5q0 -134 -73.5 -210.5t-200.5 -76.5zM312 96q74 0 103 43.5
t29 125.5q0 170 -141 170q-127 0 -127 -170q0 -81 31 -125t105 -44z" />
    <glyph glyph-name="ntilde" unicode="&#xf1;" horiz-adv-x="636" 
d="M378 638q-26 0 -66.5 18.5t-59.5 18.5q-37 0 -70 -27l-51 64q62 68 130 68q32 0 69.5 -19t53.5 -19q34 0 80 27l46 -63q-64 -68 -132 -68zM74 0v546h133v-58q51 36 93 54t100 18q55 0 90.5 -17t51.5 -50.5t21 -66t5 -80.5v-346h-132v331q0 64 -17.5 88.5t-67.5 24.5
q-68 0 -144 -43v-401h-133z" />
    <glyph glyph-name="ograve" unicode="&#xf2;" horiz-adv-x="619" 
d="M385 608l-224 111l46 95l220 -125zM304 -12q-126 0 -195 74.5t-69 205.5q0 137 74.5 214.5t199.5 77.5q132 0 198.5 -74.5t66.5 -211.5q0 -138 -75.5 -212t-199.5 -74zM311 95q74 0 103 47t29 130q0 182 -133 182q-135 0 -135 -182q0 -177 136 -177z" />
    <glyph glyph-name="oacute" unicode="&#xf3;" horiz-adv-x="619" 
d="M228 608l-40 80l219 124l47 -94zM304 -12q-126 0 -195 74.5t-69 205.5q0 137 74.5 214.5t199.5 77.5q132 0 198.5 -74.5t66.5 -211.5q0 -138 -75.5 -212t-199.5 -74zM311 95q74 0 103 47t29 130q0 182 -133 182q-135 0 -135 -182q0 -177 136 -177z" />
    <glyph glyph-name="ocircumflex" unicode="&#xf4;" horiz-adv-x="619" 
d="M434 614l-125 88l-129 -88l-58 75l188 123l180 -123zM304 -12q-126 0 -195 74.5t-69 205.5q0 137 74.5 214.5t199.5 77.5q132 0 198.5 -74.5t66.5 -211.5q0 -138 -75.5 -212t-199.5 -74zM311 95q74 0 103 47t29 130q0 182 -133 182q-135 0 -135 -182q0 -177 136 -177z
" />
    <glyph glyph-name="otilde" unicode="&#xf5;" horiz-adv-x="619" 
d="M304 -12q-126 0 -195 74.5t-69 205.5q0 137 74.5 214.5t199.5 77.5q132 0 198.5 -74.5t66.5 -211.5q0 -138 -75.5 -212t-199.5 -74zM311 95q74 0 103 47t29 130q0 182 -133 182q-135 0 -135 -182q0 -177 136 -177zM364 638q-26 0 -66.5 18.5t-59.5 18.5q-37 0 -70 -27
l-51 64q62 68 130 68q32 0 69.5 -19t53.5 -19q34 0 80 27l46 -63q-64 -68 -132 -68z" />
    <glyph glyph-name="odieresis" unicode="&#xf6;" horiz-adv-x="619" 
d="M246 653h-127v128h127v-128zM495 653h-126v128h126v-128zM304 -12q-126 0 -195 74.5t-69 205.5q0 137 74.5 214.5t199.5 77.5q132 0 198.5 -74.5t66.5 -211.5q0 -138 -75.5 -212t-199.5 -74zM311 95q74 0 103 47t29 130q0 182 -133 182q-135 0 -135 -182q0 -177 136 -177
z" />
    <glyph glyph-name="divide" unicode="&#xf7;" horiz-adv-x="622" 
d="M250 54v110h115v-110h-115zM52 253v103h518v-103h-518zM250 444v109h115v-109h-115z" />
    <glyph glyph-name="oslash" unicode="&#xf8;" horiz-adv-x="640" 
d="M313 -12q-107 0 -172 53l-62 -66l-45 43l64 68q-49 72 -49 182q0 137 74.5 214.5t199.5 77.5q108 0 174 -52l59 63l44 -43l-61 -65q49 -70 49 -189q0 -138 -75.5 -212t-199.5 -74zM320 95q74 0 103 47t29 130q0 51 -11 88l-216 -230q32 -35 95 -35zM184 272q0 -49 10 -85
l217 231q-33 36 -92 36q-135 0 -135 -182z" />
    <glyph glyph-name="ugrave" unicode="&#xf9;" horiz-adv-x="635" 
d="M235 -12q-44 0 -75.5 12.5t-48.5 31.5t-27 49.5t-12.5 57t-2.5 64.5v343h133v-328q0 -63 16.5 -88t67.5 -25q72 0 143 43v398h133v-546h-133v59q-31 -22 -51.5 -34.5t-60 -24.5t-82.5 -12zM373 608l-224 111l46 95l220 -125z" />
    <glyph glyph-name="uacute" unicode="&#xfa;" horiz-adv-x="635" 
d="M262 612l-40 80l219 124l47 -94zM235 -12q-44 0 -75.5 12.5t-48.5 31.5t-27 49.5t-12.5 57t-2.5 64.5v343h133v-328q0 -63 16.5 -88t67.5 -25q72 0 143 43v398h133v-546h-133v59q-31 -22 -51.5 -34.5t-60 -24.5t-82.5 -12z" />
    <glyph glyph-name="ucircumflex" unicode="&#xfb;" horiz-adv-x="635" 
d="M442 614l-125 88l-129 -88l-58 75l188 123l180 -123zM235 -12q-44 0 -75.5 12.5t-48.5 31.5t-27 49.5t-12.5 57t-2.5 64.5v343h133v-328q0 -63 16.5 -88t67.5 -25q72 0 143 43v398h133v-546h-133v59q-31 -22 -51.5 -34.5t-60 -24.5t-82.5 -12z" />
    <glyph glyph-name="udieresis" unicode="&#xfc;" horiz-adv-x="635" 
d="M253 653h-127v128h127v-128zM502 653h-126v128h126v-128zM235 -12q-44 0 -75.5 12.5t-48.5 31.5t-27 49.5t-12.5 57t-2.5 64.5v343h133v-328q0 -63 16.5 -88t67.5 -25q72 0 143 43v398h133v-546h-133v59q-31 -22 -51.5 -34.5t-60 -24.5t-82.5 -12z" />
    <glyph glyph-name="yacute" unicode="&#xfd;" horiz-adv-x="564" 
d="M166 -220l75 220h-52l-183 546h144l103 -349l26 -92l29 91l118 350h135l-267 -766h-128zM229 608l-40 80l219 124l47 -94z" />
    <glyph glyph-name="thorn" unicode="&#xfe;" horiz-adv-x="621" 
d="M74 -220v974h132v-249q25 19 64.5 36t75.5 17q234 0 234 -263q0 -159 -82 -232t-208 -73q-29 0 -84 5v-215h-132zM294 94q71 0 110.5 52.5t39.5 137.5q0 82 -31 122t-105 40q-36 0 -102 -28v-317q66 -7 88 -7z" />
    <glyph glyph-name="ydieresis" unicode="&#xff;" horiz-adv-x="564" 
d="M219 653h-127v128h127v-128zM468 653h-126v128h126v-128zM166 -220l75 220h-52l-183 546h144l103 -349l26 -92l29 91l118 350h135l-267 -766h-128z" />
    <glyph glyph-name="Amacron" unicode="&#x100;" horiz-adv-x="700" 
d="M-9 0l279 707h177l245 -707h-143l-77 229h-255l-87 -229h-139zM255 330h183l-85 290zM204 772v105h305v-105h-305z" />
    <glyph glyph-name="amacron" unicode="&#x101;" horiz-adv-x="578" 
d="M205 -9q-78 0 -125 41.5t-47 117.5q0 166 225 168l108 1v47q0 46 -25.5 63t-83.5 17q-76 0 -158 -25l-27 98q100 40 209 40q110 0 162.5 -38.5t52.5 -124.5v-265q0 -32 53 -34l-5 -101q-10 -1 -26 -1q-124 0 -140 62q-85 -66 -173 -66zM243 95q55 0 123 35v108l-101 -4
q-48 -1 -75 -20t-27 -54q0 -32 22 -48.5t58 -16.5zM140 655v105h305v-105h-305z" />
    <glyph glyph-name="Abreve" unicode="&#x102;" horiz-adv-x="700" 
d="M-9 0l279 707h177l245 -707h-143l-77 229h-255l-87 -229h-139zM255 330h183l-85 290zM356 753q-120 0 -181 101l70 61q58 -62 115 -62q60 0 112 61l66 -59q-68 -102 -182 -102z" />
    <glyph glyph-name="abreve" unicode="&#x103;" horiz-adv-x="578" 
d="M205 -9q-78 0 -125 41.5t-47 117.5q0 166 225 168l108 1v47q0 46 -25.5 63t-83.5 17q-76 0 -158 -25l-27 98q100 40 209 40q110 0 162.5 -38.5t52.5 -124.5v-265q0 -32 53 -34l-5 -101q-10 -1 -26 -1q-124 0 -140 62q-85 -66 -173 -66zM243 95q55 0 123 35v108l-101 -4
q-48 -1 -75 -20t-27 -54q0 -32 22 -48.5t58 -16.5zM295 626q-120 0 -181 101l70 60q59 -61 115 -61q60 0 112 61l66 -59q-66 -102 -182 -102z" />
    <glyph glyph-name="Aogonek" unicode="&#x104;" horiz-adv-x="699" 
d="M716 -225q-50 -22 -108 -22q-79 0 -114 27t-35 81q0 57 89 141l-76 227h-255l-87 -229h-139l279 707h177l244 -707q-105 -66 -105 -114q0 -32 44 -32q31 0 62 9zM438 331l-47 154l-38 135l-44 -136l-54 -153h183z" />
    <glyph glyph-name="aogonek" unicode="&#x105;" horiz-adv-x="576" 
d="M558 -225q-52 -23 -108 -23q-139 0 -139 109q0 67 110 141q-14 8 -27 24t-16 31q-89 -66 -169 -66q-84 0 -130 41t-46 119q0 39 14 69.5t36 48.5t52.5 29.5t60 16t62.5 4.5h108v49q0 45 -26.5 61.5t-88.5 16.5q-52 0 -152 -25l-27 99q106 39 203 39q38 0 67 -3
t59.5 -13.5t50 -27.5t32 -47t12.5 -71v-266q0 -31 50 -34l-7 -101q-78 -52 -98 -79q-13 -18 -13 -33q0 -31 42 -31q35 0 64 10zM366 130v108l-101 -4q-102 -3 -102 -73q0 -65 76 -65q53 0 127 34z" />
    <glyph glyph-name="Cacute" unicode="&#x106;" horiz-adv-x="678" 
d="M430 -12q-185 0 -284 95.5t-99 265.5t101 269.5t278 99.5q120 0 214 -43l-38 -101q-38 11 -56.5 16t-49 9t-68.5 4q-108 1 -174.5 -60.5t-66.5 -183.5q0 -125 71 -189.5t189 -64.5q87 0 165 23l30 -105q-95 -35 -212 -35zM306 745l-21 90l251 73l25 -106z" />
    <glyph glyph-name="cacute" unicode="&#x107;" horiz-adv-x="518" 
d="M217 608l-40 80l219 124l47 -94zM335 -12q-156 0 -225 67t-69 205q0 147 75 223.5t211 76.5q94 0 160 -36l-35 -99q-65 25 -118 25q-77 0 -117 -43t-40 -143q0 -86 37.5 -126.5t136.5 -40.5q36 0 113 15l19 -103q-88 -21 -148 -21z" />
    <glyph glyph-name="Ccircumflex" unicode="&#x108;" horiz-adv-x="678" 
d="M430 -12q-185 0 -284 95.5t-99 265.5t101 269.5t278 99.5q120 0 214 -43l-38 -101q-38 11 -56.5 16t-49 9t-68.5 4q-108 1 -174.5 -60.5t-66.5 -183.5q0 -125 71 -189.5t189 -64.5q87 0 165 23l30 -105q-95 -35 -212 -35zM297 745l-47 86l179 89l176 -88l-47 -87l-130 59
z" />
    <glyph glyph-name="ccircumflex" unicode="&#x109;" horiz-adv-x="518" 
d="M437 614l-125 88l-129 -88l-58 75l188 123l180 -123zM335 -12q-156 0 -225 67t-69 205q0 147 75 223.5t211 76.5q94 0 160 -36l-35 -99q-65 25 -118 25q-77 0 -117 -43t-40 -143q0 -86 37.5 -126.5t136.5 -40.5q36 0 113 15l19 -103q-88 -21 -148 -21z" />
    <glyph glyph-name="Cdotaccent" unicode="&#x10a;" horiz-adv-x="678" 
d="M352 775v128h134v-128h-134zM430 -12q-185 0 -284 95.5t-99 265.5t101 269.5t278 99.5q120 0 214 -43l-38 -101q-38 11 -56.5 16t-49 9t-68.5 4q-108 1 -174.5 -60.5t-66.5 -183.5q0 -125 71 -189.5t189 -64.5q87 0 165 23l30 -105q-95 -35 -212 -35z" />
    <glyph glyph-name="cdotaccent" unicode="&#x10b;" horiz-adv-x="518" 
d="M335 -12q-156 0 -225 67t-69 205q0 147 75 223.5t211 76.5q94 0 160 -36l-35 -99q-65 25 -118 25q-77 0 -117 -43t-40 -143q0 -86 37.5 -126.5t136.5 -40.5q36 0 113 15l19 -103q-88 -21 -148 -21zM252 653v128h133v-128h-133z" />
    <glyph glyph-name="Ccaron" unicode="&#x10c;" horiz-adv-x="678" 
d="M596 830l-180 -88l-177 89l46 87l131 -60l132 59zM430 -12q-185 0 -284 95.5t-99 265.5t101 269.5t278 99.5q120 0 214 -43l-38 -101q-38 11 -56.5 16t-49 9t-68.5 4q-108 1 -174.5 -60.5t-66.5 -183.5q0 -125 71 -189.5t189 -64.5q87 0 165 23l30 -105q-95 -35 -212 -35
z" />
    <glyph glyph-name="ccaron" unicode="&#x10d;" horiz-adv-x="518" 
d="M295 609l-183 124l54 74l130 -88l129 88l58 -75zM335 -12q-156 0 -225 67t-69 205q0 147 75 223.5t211 76.5q94 0 160 -36l-35 -99q-65 25 -118 25q-77 0 -117 -43t-40 -143q0 -86 37.5 -126.5t136.5 -40.5q36 0 113 15l19 -103q-88 -21 -148 -21z" />
    <glyph glyph-name="Dcaron" unicode="&#x10e;" horiz-adv-x="774" 
d="M524 830l-180 -88l-177 89l46 87l131 -60l132 59zM92 0v707h229q188 0 297 -87t109 -264q0 -180 -104.5 -268t-295.5 -88h-235zM228 108h110q252 0 252 238q0 253 -272 253h-90v-491z" />
    <glyph glyph-name="dcaron" unicode="&#x10f;" horiz-adv-x="689" 
d="M723 754l-43 -213h-94l21 213h116zM276 -9q-32 0 -63 7.5t-63 26.5t-55.5 49t-38.5 79t-15 112q0 149 78.5 222t207.5 73q35 0 83 -9v203h133v-754h-133v44q-22 -17 -34 -25.5t-40 -18t-60 -9.5zM301 102q48 0 109 35v306q-61 11 -81 11q-154 0 -154 -181q0 -89 35 -130
t91 -41z" />
    <glyph glyph-name="Dcroat" unicode="&#x110;" horiz-adv-x="803" 
d="M44 307v86h76v314h229q188 0 297 -87t109 -264q0 -180 -104.5 -268t-295.5 -88h-235v307h-76zM256 108h110q252 0 252 238q0 253 -272 253h-90v-206h145v-86h-145v-199z" />
    <glyph glyph-name="dcroat" unicode="&#x111;" horiz-adv-x="617" 
d="M291 615v68h119v71h133v-71h65v-68h-65v-615h-133v44q-61 -52 -130 -52q-35 0 -66 6.5t-63.5 25.5t-56 49.5t-38.5 83t-15 121.5q0 136 79.5 209t203.5 73q41 0 86 -9v64h-119zM303 103q44 0 107 34v306q-46 11 -84 11q-78 0 -114.5 -48.5t-36.5 -130.5q0 -172 128 -172z
" />
    <glyph glyph-name="Emacron" unicode="&#x112;" 
d="M160 772v105h305v-105h-305zM92 0v707h438v-108h-302v-193h280v-102h-280v-196h325v-108h-461z" />
    <glyph glyph-name="emacron" unicode="&#x113;" horiz-adv-x="571" 
d="M146 655v105h305v-105h-305zM321 -12q-136 0 -207.5 62t-71.5 215q0 154 70.5 224t187.5 70q122 0 177 -70t55 -205v-48h-356q-1 -80 43 -110t120 -30q67 0 157 23l21 -101q-87 -30 -196 -30zM179 325h216q1 64 -24.5 101t-75.5 37q-49 0 -80.5 -36t-35.5 -102z" />
    <glyph glyph-name="Ebreve" unicode="&#x114;" 
d="M311 753q-120 0 -181 101l70 61q58 -62 115 -62q60 0 112 61l66 -59q-68 -102 -182 -102zM92 0v707h438v-108h-302v-193h280v-102h-280v-196h325v-108h-461z" />
    <glyph glyph-name="ebreve" unicode="&#x115;" horiz-adv-x="571" 
d="M321 -12q-136 0 -207.5 62t-71.5 215q0 154 70.5 224t187.5 70q122 0 177 -70t55 -205v-48h-356q-1 -80 43 -110t120 -30q67 0 157 23l21 -101q-87 -30 -196 -30zM179 325h216q1 64 -24.5 101t-75.5 37q-49 0 -80.5 -36t-35.5 -102zM302 626q-120 0 -181 101l70 60
q59 -61 115 -61q60 0 112 61l66 -59q-66 -102 -182 -102z" />
    <glyph glyph-name="Edotaccent" unicode="&#x116;" 
d="M254 775v128h134v-128h-134zM92 0v707h438v-108h-302v-193h280v-102h-280v-196h325v-108h-461z" />
    <glyph glyph-name="edotaccent" unicode="&#x117;" horiz-adv-x="571" 
d="M321 -12q-136 0 -207.5 62t-71.5 215q0 154 70.5 224t187.5 70q122 0 177 -70t55 -205v-48h-356q-1 -80 43 -110t120 -30q67 0 157 23l21 -101q-87 -30 -196 -30zM179 325h216q1 64 -24.5 101t-75.5 37q-49 0 -80.5 -36t-35.5 -102zM235 653v128h133v-128h-133z" />
    <glyph glyph-name="Eogonek" unicode="&#x118;" 
d="M564 -225q-50 -24 -102 -24q-67 0 -99.5 29.5t-32.5 75.5t29.5 84.5t69.5 59.5h-337v707h438v-108h-302v-193h280v-102h-280v-196h325v-108q-113 -59 -113 -110q0 -36 44 -36q28 0 56 9z" />
    <glyph glyph-name="eogonek" unicode="&#x119;" horiz-adv-x="572" 
d="M412 -247q-139 0 -139 111q0 63 77 128q-30 -2 -45 -2q-263 0 -263 274q0 295 267 295q223 0 223 -275v-48h-357q1 -83 44.5 -111t127.5 -28q50 0 148 20l20 -104q-119 -68 -119 -124q0 -38 46 -38q32 0 60 12l24 -88q-48 -22 -114 -22zM179 325h215q2 64 -23.5 101.5
t-73.5 37.5q-50 0 -82 -36.5t-36 -102.5z" />
    <glyph glyph-name="Ecaron" unicode="&#x11a;" 
d="M488 830l-180 -88l-177 89l46 87l131 -60l132 59zM92 0v707h438v-108h-302v-193h280v-102h-280v-196h325v-108h-461z" />
    <glyph glyph-name="ecaron" unicode="&#x11b;" horiz-adv-x="571" 
d="M296 609l-183 124l54 74l130 -88l129 88l58 -75zM321 -12q-136 0 -207.5 62t-71.5 215q0 154 70.5 224t187.5 70q122 0 177 -70t55 -205v-48h-356q-1 -80 43 -110t120 -30q67 0 157 23l21 -101q-87 -30 -196 -30zM179 325h216q1 64 -24.5 101t-75.5 37q-49 0 -80.5 -36
t-35.5 -102z" />
    <glyph glyph-name="Gcircumflex" unicode="&#x11c;" horiz-adv-x="710" 
d="M293 745l-47 86l179 89l176 -88l-47 -87l-130 59zM429 -11q-179 0 -280.5 93t-101.5 267q0 181 98.5 274.5t284.5 93.5q114 0 209 -41l-37 -102q-39 11 -56 15.5t-49 9t-68 4.5q-108 0 -175 -60t-67 -184q0 -126 72 -190t185 -64q34 0 72 6v238h136v-321
q-104 -39 -223 -39z" />
    <glyph glyph-name="gcircumflex" unicode="&#x11d;" horiz-adv-x="598" 
d="M263 193q-47 0 -86 11q-16 -23 -16 -42q0 -15 11 -25t30 -10h112q219 0 219 -152q0 -88 -72 -146.5t-207 -58.5q-106 0 -164 37.5t-58 103.5q0 82 69 128q-40 28 -40 77q0 64 59 112q-72 45 -72 135q0 85 59.5 140.5t162.5 55.5q81 0 134 -32l168 9v-97h-89
q11 -48 11 -72q0 -80 -65.5 -127t-165.5 -47zM321 18h-137q-18 0 -26 1q-28 -31 -28 -68q0 -80 134 -80q71 0 114.5 25t43.5 63q0 28 -26 43.5t-75 15.5zM395 614l-125 88l-129 -88l-58 75l188 123l180 -123zM268 275q49 0 77 27t28 70t-27 71t-75 28q-47 0 -75 -27.5
t-28 -73.5q0 -44 27 -69.5t73 -25.5z" />
    <glyph glyph-name="Gbreve" unicode="&#x11e;" horiz-adv-x="710" 
d="M413 753q-120 0 -181 101l70 61q58 -62 115 -62q60 0 112 61l66 -59q-68 -102 -182 -102zM429 -11q-179 0 -280.5 93t-101.5 267q0 181 98.5 274.5t284.5 93.5q114 0 209 -41l-37 -102q-39 11 -56 15.5t-49 9t-68 4.5q-108 0 -175 -60t-67 -184q0 -126 72 -190t185 -64
q34 0 72 6v238h136v-321q-104 -39 -223 -39z" />
    <glyph glyph-name="gbreve" unicode="&#x11f;" horiz-adv-x="598" 
d="M263 193q-47 0 -86 11q-16 -23 -16 -42q0 -15 11 -25t30 -10h112q219 0 219 -152q0 -88 -72 -146.5t-207 -58.5q-106 0 -164 37.5t-58 103.5q0 82 69 128q-40 28 -40 77q0 64 59 112q-72 45 -72 135q0 85 59.5 140.5t162.5 55.5q81 0 134 -32l168 9v-97h-89
q11 -48 11 -72q0 -80 -65.5 -127t-165.5 -47zM321 18h-137q-18 0 -26 1q-28 -31 -28 -68q0 -80 134 -80q71 0 114.5 25t43.5 63q0 28 -26 43.5t-75 15.5zM277 626q-120 0 -181 101l70 60q59 -61 115 -61q60 0 112 61l66 -59q-66 -102 -182 -102zM268 275q49 0 77 27t28 70
t-27 71t-75 28q-47 0 -75 -27.5t-28 -73.5q0 -44 27 -69.5t73 -25.5z" />
    <glyph glyph-name="Gdotaccent" unicode="&#x120;" horiz-adv-x="710" 
d="M366 775v128h134v-128h-134zM429 -11q-179 0 -280.5 93t-101.5 267q0 181 98.5 274.5t284.5 93.5q114 0 209 -41l-37 -102q-39 11 -56 15.5t-49 9t-68 4.5q-108 0 -175 -60t-67 -184q0 -126 72 -190t185 -64q34 0 72 6v238h136v-321q-104 -39 -223 -39z" />
    <glyph glyph-name="gdotaccent" unicode="&#x121;" horiz-adv-x="598" 
d="M263 193q-47 0 -86 11q-16 -23 -16 -42q0 -15 11 -25t30 -10h112q219 0 219 -152q0 -88 -72 -146.5t-207 -58.5q-106 0 -164 37.5t-58 103.5q0 82 69 128q-40 28 -40 77q0 64 59 112q-72 45 -72 135q0 85 59.5 140.5t162.5 55.5q81 0 134 -32l168 9v-97h-89
q11 -48 11 -72q0 -80 -65.5 -127t-165.5 -47zM321 18h-137q-18 0 -26 1q-28 -31 -28 -68q0 -80 134 -80q71 0 114.5 25t43.5 63q0 28 -26 43.5t-75 15.5zM268 275q49 0 77 27t28 70t-27 71t-75 28q-47 0 -75 -27.5t-28 -73.5q0 -44 27 -69.5t73 -25.5zM205 653v128h133v-128
h-133z" />
    <glyph glyph-name="Gcommaaccent" unicode="&#x122;" horiz-adv-x="710" 
d="M493 -59l-43 -213h-94l21 213h116zM429 -11q-179 0 -280.5 93t-101.5 267q0 181 98.5 274.5t284.5 93.5q114 0 209 -41l-37 -102q-39 11 -56 15.5t-49 9t-68 4.5q-108 0 -175 -60t-67 -184q0 -126 72 -190t185 -64q34 0 72 6v238h136v-321q-104 -39 -223 -39z" />
    <glyph glyph-name="gcommaaccent" unicode="&#x123;" horiz-adv-x="598" 
d="M263 193q-47 0 -86 11q-16 -23 -16 -42q0 -15 11 -25t30 -10h112q219 0 219 -152q0 -88 -72 -146.5t-207 -58.5q-106 0 -164 37.5t-58 103.5q0 82 69 128q-40 28 -40 77q0 64 59 112q-72 45 -72 135q0 85 59.5 140.5t162.5 55.5q81 0 134 -32l168 9v-97h-89
q11 -48 11 -72q0 -80 -65.5 -127t-165.5 -47zM321 18h-137q-18 0 -26 1q-28 -31 -28 -68q0 -80 134 -80q71 0 114.5 25t43.5 63q0 28 -26 43.5t-75 15.5zM268 275q49 0 77 27t28 70t-27 71t-75 28q-47 0 -75 -27.5t-28 -73.5q0 -44 27 -69.5t73 -25.5zM211 605l48 199h107
l-28 -199h-127z" />
    <glyph glyph-name="Hcircumflex" unicode="&#x124;" horiz-adv-x="790" 
d="M92 0v707h136v-299h334v299h136v-707h-136v302h-334v-302h-136zM262 745l-47 86l179 89l176 -88l-47 -87l-130 59z" />
    <glyph glyph-name="hcircumflex" unicode="&#x125;" horiz-adv-x="636" 
d="M74 0v754h133v-268q92 73 184 73q48 0 82 -12.5t52 -30t28 -49t12 -57t2 -65.5v-345h-131v330q0 63 -18 88t-68 25q-64 0 -143 -45v-398h-133zM11 761l-47 86l179 89l176 -88l-47 -87l-130 59z" />
    <glyph glyph-name="Hbar" unicode="&#x126;" horiz-adv-x="827" 
d="M36 515v70h74v122h136v-122h334v122h136v-122h74v-70h-74v-515h-136v302h-334v-302h-136v515h-74zM246 408h334v107h-334v-107z" />
    <glyph glyph-name="hbar" unicode="&#x127;" horiz-adv-x="636" 
d="M74 0v615h-64v68h64v71h133v-71h120v-68h-120v-127q98 73 183 73q48 0 82 -12.5t52.5 -30t28.5 -48.5t12 -57t2 -66v-347h-131v332q0 64 -18 88.5t-71 24.5q-52 0 -140 -44v-401h-133z" />
    <glyph glyph-name="Itilde" unicode="&#x128;" horiz-adv-x="320" 
d="M92 0v707h136v-707h-136zM219 755q-25 0 -66 18.5t-59 18.5q-38 0 -70 -26l-51 63q62 68 127 68q33 0 70.5 -19t51.5 -19q35 0 78 26l46 -62q-59 -68 -127 -68z" />
    <glyph glyph-name="itilde" unicode="&#x129;" horiz-adv-x="281" 
d="M74 0v546h134v-546h-134zM197 638q-26 0 -66.5 18.5t-59.5 18.5q-37 0 -70 -27l-51 64q62 68 130 68q32 0 69.5 -19t53.5 -19q34 0 80 27l46 -63q-64 -68 -132 -68z" />
    <glyph glyph-name="Imacron" unicode="&#x12a;" horiz-adv-x="320" 
d="M92 0v707h136v-707h-136zM5 772v105h305v-105h-305z" />
    <glyph glyph-name="imacron" unicode="&#x12b;" horiz-adv-x="281" 
d="M74 0v546h134v-546h-134zM-11 655v105h305v-105h-305z" />
    <glyph glyph-name="Ibreve" unicode="&#x12c;" horiz-adv-x="320" 
d="M92 0v707h136v-707h-136zM158 753q-120 0 -181 101l70 61q58 -62 115 -62q60 0 112 61l66 -59q-68 -102 -182 -102z" />
    <glyph glyph-name="ibreve" unicode="&#x12d;" horiz-adv-x="281" 
d="M74 0v546h134v-546h-134zM144 626q-120 0 -181 101l70 60q59 -61 115 -61q60 0 112 61l66 -59q-66 -102 -182 -102z" />
    <glyph glyph-name="Iogonek" unicode="&#x12e;" horiz-adv-x="320" 
d="M260 -225q-50 -23 -108 -23q-77 0 -108.5 30.5t-31.5 87.5q0 58 80 122v714h136v-706q-98 -64 -98 -108q0 -18 13.5 -29t29.5 -11q28 0 63 11z" />
    <glyph glyph-name="iogonek" unicode="&#x12f;" horiz-adv-x="281" 
d="M130 -248q-142 0 -142 118q0 62 86 128v548h133v-546q-108 -68 -108 -116q0 -34 48 -34q32 0 67 13l25 -88q-52 -23 -109 -23zM74 653v128h133v-128h-133z" />
    <glyph glyph-name="Idotaccent" unicode="&#x130;" horiz-adv-x="320" 
d="M91 775v128h134v-128h-134zM92 0v707h136v-707h-136z" />
    <glyph glyph-name="dotlessi" unicode="&#x131;" horiz-adv-x="281" 
d="M74 0v546h134v-546h-134z" />
    <glyph glyph-name="IJ" unicode="&#x132;" horiz-adv-x="625" 
d="M92 0v707h136v-707h-136zM304 -194l-52 99q87 48 116 99.5t29 146.5v556h138v-554q0 -50 -4 -86t-17.5 -77t-38 -72t-67.5 -60.5t-104 -51.5z" />
    <glyph glyph-name="ij" unicode="&#x133;" horiz-adv-x="567" 
d="M286 -225q-56 0 -106 22l24 105q37 -13 78 -13q43 0 60.5 25t17.5 81v551h133v-552q0 -65 -16 -109.5t-46.5 -67.5t-65 -32.5t-79.5 -9.5zM74 0v546h134v-546h-134zM74 653v128h133v-128h-133zM362 653v128h133v-128h-133z" />
    <glyph glyph-name="Jcircumflex" unicode="&#x134;" horiz-adv-x="322" 
d="M1 -194l-52 99q87 48 116 99.5t29 146.5v556h138v-554q0 -50 -4 -86t-17.5 -77t-38 -72t-67.5 -60.5t-104 -51.5zM31 745l-47 86l179 89l176 -88l-47 -87l-130 59z" />
    <glyph glyph-name="jcircumflex" unicode="&#x135;" horiz-adv-x="281" 
d="M264 614l-125 88l-129 -88l-58 75l188 123l180 -123zM0 -225q-56 0 -106 22l24 105q37 -13 78 -13q43 0 60.5 25t17.5 81v551h133v-552q0 -65 -16 -109.5t-46.5 -67.5t-65 -32.5t-79.5 -9.5z" />
    <glyph glyph-name="Kcommaaccent" unicode="&#x136;" horiz-adv-x="687" 
d="M92 0v707h136v-323l267 323h174l-289 -329l306 -378h-175l-283 374v-374h-136zM417 -59l-43 -213h-94l21 213h116z" />
    <glyph glyph-name="kcommaaccent" unicode="&#x137;" horiz-adv-x="575" 
d="M370 -59l-43 -213h-94l21 213h116zM75 0v754h133v-444l189 236h146l-211 -253l232 -293h-165l-191 263v-263h-133z" />
    <glyph glyph-name="uni0138" unicode="&#x138;" horiz-adv-x="576" 
d="M74 0v546h133v-260l191 260h144l-207 -252l231 -294h-157l-202 278v-278h-133z" />
    <glyph glyph-name="Lacute" unicode="&#x139;" horiz-adv-x="544" 
d="M103 745l-21 90l251 73l25 -106zM92 0v707h136v-597h307v-110h-443z" />
    <glyph glyph-name="lacute" unicode="&#x13a;" horiz-adv-x="281" 
d="M85 791l-21 90l251 73l25 -106zM74 0v754h133v-754h-133z" />
    <glyph glyph-name="Lcommaaccent" unicode="&#x13b;" horiz-adv-x="544" 
d="M366 -59l-43 -213h-94l21 213h116zM92 0v707h136v-597h307v-110h-443z" />
    <glyph glyph-name="lcommaaccent" unicode="&#x13c;" horiz-adv-x="281" 
d="M200 -59l-43 -213h-94l21 213h116zM74 0v754h133v-754h-133z" />
    <glyph glyph-name="Lcaron" unicode="&#x13d;" horiz-adv-x="544" 
d="M441 780l-43 -213h-94l21 213h116zM92 0v707h136v-597h307v-110h-443z" />
    <glyph glyph-name="lcaron" unicode="&#x13e;" horiz-adv-x="355" 
d="M391 754l-43 -213h-94l21 213h116zM74 0v754h133v-754h-133z" />
    <glyph glyph-name="Ldot" unicode="&#x13f;" horiz-adv-x="544" 
d="M356 306v136h151v-136h-151zM92 0v707h136v-597h307v-110h-443z" />
    <glyph glyph-name="ldot" unicode="&#x140;" horiz-adv-x="437" 
d="M274 300v136h151v-136h-151zM74 0v754h133v-754h-133z" />
    <glyph glyph-name="Lslash" unicode="&#x141;" horiz-adv-x="567" 
d="M43 235v95l72 41v336h136v-258l117 68v-94l-117 -68v-245h307v-110h-443v276z" />
    <glyph glyph-name="lslash" unicode="&#x142;" horiz-adv-x="350" 
d="M107 0v311l-86 -50l-1 95l87 50v348h133v-272l90 52v-94l-90 -52v-388h-133z" />
    <glyph glyph-name="Nacute" unicode="&#x143;" horiz-adv-x="792" 
d="M303 745l-21 90l251 73l25 -106zM92 0v707h162l312 -534h2l-4 83v451h137v-707h-168l-305 523h-4l4 -86v-437h-136z" />
    <glyph glyph-name="nacute" unicode="&#x144;" horiz-adv-x="636" 
d="M254 608l-40 80l219 124l47 -94zM74 0v546h133v-58q51 36 93 54t100 18q55 0 90.5 -17t51.5 -50.5t21 -66t5 -80.5v-346h-132v331q0 64 -17.5 88.5t-67.5 24.5q-68 0 -144 -43v-401h-133z" />
    <glyph glyph-name="Ncommaaccent" unicode="&#x145;" horiz-adv-x="792" 
d="M458 -59l-43 -213h-94l21 213h116zM92 0v707h162l312 -534h2l-4 83v451h137v-707h-168l-305 523h-4l4 -86v-437h-136z" />
    <glyph glyph-name="ncommaaccent" unicode="&#x146;" horiz-adv-x="636" 
d="M385 -59l-43 -213h-94l21 213h116zM74 0v546h133v-58q51 36 93 54t100 18q55 0 90.5 -17t51.5 -50.5t21 -66t5 -80.5v-346h-132v331q0 64 -17.5 88.5t-67.5 24.5q-68 0 -144 -43v-401h-133z" />
    <glyph glyph-name="Ncaron" unicode="&#x147;" horiz-adv-x="792" 
d="M572 830l-180 -88l-177 89l46 87l131 -60l132 59zM92 0v707h162l312 -534h2l-4 83v451h137v-707h-168l-305 523h-4l4 -86v-437h-136z" />
    <glyph glyph-name="ncaron" unicode="&#x148;" horiz-adv-x="636" 
d="M316 609l-183 124l54 74l130 -88l129 88l58 -75zM74 0v546h133v-58q51 36 93 54t100 18q55 0 90.5 -17t51.5 -50.5t21 -66t5 -80.5v-346h-132v331q0 64 -17.5 88.5t-67.5 24.5q-68 0 -144 -43v-401h-133z" />
    <glyph glyph-name="napostrophe" unicode="&#x149;" horiz-adv-x="706" 
d="M-28 511q30 59 30 130v113h123v-75q0 -94 -55 -168h-98zM143 0v546h133v-58q51 36 93 54t100 18q55 0 90.5 -17t51.5 -50.5t21 -66t5 -80.5v-346h-132v331q0 64 -17.5 88.5t-67.5 24.5q-68 0 -144 -43v-401h-133z" />
    <glyph glyph-name="Eng" unicode="&#x14a;" horiz-adv-x="792" 
d="M494 -220q-54 0 -106 18l24 105q2 -1 15.5 -3t32.5 -4.5t31 -2.5q77 0 77 87v20h-42l-302 532l4 -86v-446h-136v707h167l309 -543l-4 83v460h137l-1 -713q0 -64 -16 -108t-46.5 -66t-64.5 -31t-79 -9z" />
    <glyph glyph-name="eng" unicode="&#x14b;" horiz-adv-x="636" 
d="M568 -5q0 -65 -16 -109t-46.5 -66t-64.5 -31t-80 -9q-54 0 -106 18l24 105q40 -10 79 -10q43 0 60.5 24t17.5 79v336q0 64 -18 88t-71 24q-62 0 -140 -43v-401h-133v546h133v-58q98 73 183 73q48 0 82.5 -12t52.5 -30t28 -49t12.5 -57t2.5 -66v-352z" />
    <glyph glyph-name="Omacron" unicode="&#x14c;" horiz-adv-x="831" 
d="M267 772v105h305v-105h-305zM407 -12q-175 0 -268 98t-93 269q0 167 102 265t276 98q178 0 269.5 -100.5t91.5 -264.5q0 -169 -99 -267t-279 -98zM410 97q120 0 178 70.5t58 186.5q0 115 -58.5 185t-170.5 70q-116 0 -174.5 -69.5t-58.5 -183.5q0 -113 57 -186t169 -73z
" />
    <glyph glyph-name="omacron" unicode="&#x14d;" horiz-adv-x="619" 
d="M154 655v105h305v-105h-305zM304 -12q-126 0 -195 74.5t-69 205.5q0 137 74.5 214.5t199.5 77.5q132 0 198.5 -74.5t66.5 -211.5q0 -138 -75.5 -212t-199.5 -74zM311 95q74 0 103 47t29 130q0 182 -133 182q-135 0 -135 -182q0 -177 136 -177z" />
    <glyph glyph-name="Obreve" unicode="&#x14e;" horiz-adv-x="831" 
d="M417 753q-120 0 -181 101l70 61q58 -62 115 -62q60 0 112 61l66 -59q-68 -102 -182 -102zM407 -12q-175 0 -268 98t-93 269q0 167 102 265t276 98q178 0 269.5 -100.5t91.5 -264.5q0 -169 -99 -267t-279 -98zM410 97q120 0 178 70.5t58 186.5q0 115 -58.5 185t-170.5 70
q-116 0 -174.5 -69.5t-58.5 -183.5q0 -113 57 -186t169 -73z" />
    <glyph glyph-name="obreve" unicode="&#x14f;" horiz-adv-x="619" 
d="M304 -12q-126 0 -195 74.5t-69 205.5q0 137 74.5 214.5t199.5 77.5q132 0 198.5 -74.5t66.5 -211.5q0 -138 -75.5 -212t-199.5 -74zM311 95q74 0 103 47t29 130q0 182 -133 182q-135 0 -135 -182q0 -177 136 -177zM309 626q-120 0 -181 101l70 60q59 -61 115 -61
q60 0 112 61l66 -59q-66 -102 -182 -102z" />
    <glyph glyph-name="Ohungarumlaut" unicode="&#x150;" horiz-adv-x="831" 
d="M407 -12q-175 0 -268 98t-93 269q0 167 102 265t276 98q178 0 269.5 -100.5t91.5 -264.5q0 -169 -99 -267t-279 -98zM410 97q120 0 178 70.5t58 186.5q0 115 -58.5 185t-170.5 70q-116 0 -174.5 -69.5t-58.5 -183.5q0 -113 57 -186t169 -73zM468 878l-216 -141l-55 78
l206 154zM743 793l-253 -53l-21 92l248 69z" />
    <glyph glyph-name="ohungarumlaut" unicode="&#x151;" horiz-adv-x="619" 
d="M161 602l-57 68l187 166l68 -81zM385 603l-40 78l219 123l48 -93zM304 -12q-126 0 -195 74.5t-69 205.5q0 137 74.5 214.5t199.5 77.5q132 0 198.5 -74.5t66.5 -211.5q0 -138 -75.5 -212t-199.5 -74zM311 95q74 0 103 47t29 130q0 182 -133 182q-135 0 -135 -182
q0 -177 136 -177z" />
    <glyph glyph-name="OE" unicode="&#x152;" horiz-adv-x="1104" 
d="M408 -12q-175 0 -268 98t-93 269q0 173 102 268t278 95q101 0 169 -38v27h438v-108h-301v-193h279v-102h-279v-196h324v-108h-461v33q-76 -45 -188 -45zM411 98q124 0 185 80v350q-61 80 -178 80q-116 0 -174 -69t-58 -183q0 -112 57 -185t168 -73z" />
    <glyph glyph-name="oe" unicode="&#x153;" horiz-adv-x="972" 
d="M304 -12q-126 0 -195 74.5t-69 205.5q0 136 74.5 214t197.5 78q134 0 198 -81q66 80 200 80q222 0 222 -275v-48h-356q1 -79 42 -109.5t125 -30.5q66 0 152 22l22 -105q-74 -23 -193 -23q-157 0 -221 80q-70 -82 -199 -82zM311 95q74 0 103 47.5t29 130.5q0 181 -134 181
t-134 -182q0 -177 136 -177zM579 325h216q-1 64 -27 102t-73 38q-48 0 -80 -36.5t-36 -103.5z" />
    <glyph glyph-name="Racute" unicode="&#x154;" horiz-adv-x="727" 
d="M235 745l-21 90l251 73l25 -106zM92 0v707h258q117 0 186.5 -56t69.5 -166q0 -62 -30.5 -112.5t-90.5 -79.5l223 -293h-173l-186 261q-21 -3 -51 -3h-69v-258h-137zM229 358h75q161 0 161 122q0 64 -32 91.5t-105 27.5h-99v-241z" />
    <glyph glyph-name="racute" unicode="&#x155;" horiz-adv-x="427" 
d="M176 608l-40 80l219 124l47 -94zM74 0v546h133v-73q23 33 62 58.5t85 25.5q44 0 71 -9l-19 -110q-31 6 -70 6t-74 -18.5t-55 -43.5v-382h-133z" />
    <glyph glyph-name="Rcommaaccent" unicode="&#x156;" horiz-adv-x="727" 
d="M451 -59l-43 -213h-94l21 213h116zM92 0v707h258q117 0 186.5 -56t69.5 -166q0 -62 -30.5 -112.5t-90.5 -79.5l223 -293h-173l-186 261q-21 -3 -51 -3h-69v-258h-137zM229 358h75q161 0 161 122q0 64 -32 91.5t-105 27.5h-99v-241z" />
    <glyph glyph-name="rcommaaccent" unicode="&#x157;" horiz-adv-x="427" 
d="M202 -59l-43 -213h-94l21 213h116zM74 0v546h133v-73q23 33 62 58.5t85 25.5q44 0 71 -9l-19 -110q-31 6 -70 6t-74 -18.5t-55 -43.5v-382h-133z" />
    <glyph glyph-name="Rcaron" unicode="&#x158;" horiz-adv-x="727" 
d="M493 830l-180 -88l-177 89l46 87l131 -60l132 59zM92 0v707h258q117 0 186.5 -56t69.5 -166q0 -62 -30.5 -112.5t-90.5 -79.5l223 -293h-173l-186 261q-21 -3 -51 -3h-69v-258h-137zM229 358h75q161 0 161 122q0 64 -32 91.5t-105 27.5h-99v-241z" />
    <glyph glyph-name="rcaron" unicode="&#x159;" horiz-adv-x="427" 
d="M223 609l-183 124l54 74l130 -88l129 88l58 -75zM74 0v546h133v-73q23 33 62 58.5t85 25.5q44 0 71 -9l-19 -110q-31 6 -70 6t-74 -18.5t-55 -43.5v-382h-133z" />
    <glyph glyph-name="Sacute" unicode="&#x15a;" horiz-adv-x="569" 
d="M256 -12q-125 0 -221 54l40 104q102 -44 181 -44q63 0 101.5 24t38.5 69q0 38 -35 64t-85.5 45t-100.5 42t-85 68t-35 111q0 90 70.5 141.5t167.5 51.5q119 0 203 -49l-40 -101q-80 36 -159 36q-48 0 -78 -21.5t-30 -58.5q0 -27 25.5 -50t64 -38t83 -36t83 -44t64 -63
t25.5 -92q0 -104 -80.5 -158.5t-197.5 -54.5zM197 745l-21 90l251 73l25 -106z" />
    <glyph glyph-name="sacute" unicode="&#x15b;" horiz-adv-x="482" 
d="M166 608l-40 80l219 124l47 -94zM209 -12q-97 0 -171 23l16 104q103 -18 158 -18q108 0 108 53q0 20 -20.5 35.5t-51 24.5t-66 23.5t-66 32t-51 50.5t-20.5 77q0 81 61.5 124t154.5 43q87 0 163 -29l-24 -99q-70 21 -135 21q-88 0 -88 -49q0 -21 20 -36.5t50.5 -25.5
t66 -25t66 -32.5t50.5 -51t20 -77.5q0 -47 -22 -81.5t-59 -52.5t-77 -26t-83 -8z" />
    <glyph glyph-name="Scircumflex" unicode="&#x15c;" horiz-adv-x="569" 
d="M256 -12q-125 0 -221 54l40 104q102 -44 181 -44q63 0 101.5 24t38.5 69q0 38 -35 64t-85.5 45t-100.5 42t-85 68t-35 111q0 90 70.5 141.5t167.5 51.5q119 0 203 -49l-40 -101q-80 36 -159 36q-48 0 -78 -21.5t-30 -58.5q0 -27 25.5 -50t64 -38t83 -36t83 -44t64 -63
t25.5 -92q0 -104 -80.5 -158.5t-197.5 -54.5zM170 745l-47 86l179 89l176 -88l-47 -87l-130 59z" />
    <glyph glyph-name="scircumflex" unicode="&#x15d;" horiz-adv-x="482" 
d="M369 614l-125 88l-129 -88l-58 75l188 123l180 -123zM209 -12q-97 0 -171 23l16 104q103 -18 158 -18q108 0 108 53q0 20 -20.5 35.5t-51 24.5t-66 23.5t-66 32t-51 50.5t-20.5 77q0 81 61.5 124t154.5 43q87 0 163 -29l-24 -99q-70 21 -135 21q-88 0 -88 -49
q0 -21 20 -36.5t50.5 -25.5t66 -25t66 -32.5t50.5 -51t20 -77.5q0 -47 -22 -81.5t-59 -52.5t-77 -26t-83 -8z" />
    <glyph glyph-name="Scedilla" unicode="&#x15e;" horiz-adv-x="569" 
d="M256 -12q-125 0 -221 54l40 104q102 -44 181 -44q63 0 101.5 24t38.5 69q0 38 -35 64t-85.5 45t-100.5 42t-85 68t-35 111q0 90 70.5 141.5t167.5 51.5q119 0 203 -49l-40 -101q-80 36 -159 36q-48 0 -78 -21.5t-30 -58.5q0 -27 25.5 -50t64 -38t83 -36t83 -44t64 -63
t25.5 -92q0 -104 -80.5 -158.5t-197.5 -54.5zM217 -267l-46 79q50 31 62 48q8 12 8 25q0 20 -16 64h109q21 -44 21 -76q0 -81 -138 -140z" />
    <glyph glyph-name="scedilla" unicode="&#x15f;" horiz-adv-x="482" 
d="M209 -12q-97 0 -171 23l16 104q103 -18 158 -18q108 0 108 53q0 20 -20.5 35.5t-51 24.5t-66 23.5t-66 32t-51 50.5t-20.5 77q0 81 61.5 124t154.5 43q87 0 163 -29l-24 -99q-70 21 -135 21q-88 0 -88 -49q0 -21 20 -36.5t50.5 -25.5t66 -25t66 -32.5t50.5 -51t20 -77.5
q0 -47 -22 -81.5t-59 -52.5t-77 -26t-83 -8zM199 -267l-46 79q50 31 62 48q8 12 8 25q0 20 -16 64h109q21 -44 21 -76q0 -81 -138 -140z" />
    <glyph glyph-name="Scaron" unicode="&#x160;" horiz-adv-x="569" 
d="M461 830l-180 -88l-177 89l46 87l131 -60l132 59zM256 -12q-125 0 -221 54l40 104q102 -44 181 -44q63 0 101.5 24t38.5 69q0 38 -35 64t-85.5 45t-100.5 42t-85 68t-35 111q0 90 70.5 141.5t167.5 51.5q119 0 203 -49l-40 -101q-80 36 -159 36q-48 0 -78 -21.5
t-30 -58.5q0 -27 25.5 -50t64 -38t83 -36t83 -44t64 -63t25.5 -92q0 -104 -80.5 -158.5t-197.5 -54.5z" />
    <glyph glyph-name="scaron" unicode="&#x161;" horiz-adv-x="482" 
d="M241 609l-183 124l54 74l130 -88l129 88l58 -75zM209 -12q-97 0 -171 23l16 104q103 -18 158 -18q108 0 108 53q0 20 -20.5 35.5t-51 24.5t-66 23.5t-66 32t-51 50.5t-20.5 77q0 81 61.5 124t154.5 43q87 0 163 -29l-24 -99q-70 21 -135 21q-88 0 -88 -49q0 -21 20 -36.5
t50.5 -25.5t66 -25t66 -32.5t50.5 -51t20 -77.5q0 -47 -22 -81.5t-59 -52.5t-77 -26t-83 -8z" />
    <glyph glyph-name="Tcommaaccent" unicode="&#x162;" horiz-adv-x="615" 
d="M367 -59l-43 -213h-94l21 213h116zM239 0v598h-229v109h595v-109h-229v-598h-137z" />
    <glyph glyph-name="tcommaaccent" unicode="&#x163;" horiz-adv-x="452" 
d="M332 -59l-43 -213h-94l21 213h116zM285 -13q-90 0 -137.5 40.5t-47.5 135.5v281h-80v102h80v112h133v-112h169v-102h-169v-274q0 -39 17 -54t58 -15q49 0 108 16l15 -106q-67 -24 -146 -24z" />
    <glyph glyph-name="Tcaron" unicode="&#x164;" horiz-adv-x="615" 
d="M485 830l-180 -88l-177 89l46 87l131 -60l132 59zM239 0v598h-229v109h595v-109h-229v-598h-137z" />
    <glyph glyph-name="tcaron" unicode="&#x165;" horiz-adv-x="452" 
d="M442 807l-43 -213h-94l21 213h116zM285 -13q-90 0 -137.5 40.5t-47.5 135.5v281h-80v102h80v112h133v-112h169v-102h-169v-274q0 -39 17 -54t58 -15q49 0 108 16l15 -106q-67 -24 -146 -24z" />
    <glyph glyph-name="Tbar" unicode="&#x166;" horiz-adv-x="615" 
d="M96 316v75h143v207h-229v109h595v-109h-229v-207h143v-75h-143v-316h-137v316h-143z" />
    <glyph glyph-name="tbar" unicode="&#x167;" horiz-adv-x="452" 
d="M33 273v68h67v103h-80v102h80v112h133v-112h169v-102h-169v-103h124v-68h-124v-103q0 -39 17 -54t58 -15q49 0 108 16l15 -106q-67 -24 -146 -24q-90 0 -137.5 40.5t-47.5 135.5v110h-67z" />
    <glyph glyph-name="Utilde" unicode="&#x168;" horiz-adv-x="780" 
d="M443 755q-25 0 -66 18.5t-59 18.5q-38 0 -70 -26l-51 63q62 68 127 68q33 0 70.5 -19t51.5 -19q35 0 78 26l46 -62q-59 -68 -127 -68zM392 -13q-61 0 -113.5 14t-98.5 45.5t-72.5 89t-26.5 136.5v435h138v-429q0 -177 173 -177q174 0 174 199v407h135v-410
q0 -69 -18.5 -123.5t-48 -89t-70.5 -57t-83.5 -31.5t-88.5 -9z" />
    <glyph glyph-name="utilde" unicode="&#x169;" horiz-adv-x="635" 
d="M235 -12q-44 0 -75.5 12.5t-48.5 31.5t-27 49.5t-12.5 57t-2.5 64.5v343h133v-328q0 -63 16.5 -88t67.5 -25q72 0 143 43v398h133v-546h-133v59q-31 -22 -51.5 -34.5t-60 -24.5t-82.5 -12zM371 638q-26 0 -66.5 18.5t-59.5 18.5q-37 0 -70 -27l-51 64q62 68 130 68
q32 0 69.5 -19t53.5 -19q34 0 80 27l46 -63q-64 -68 -132 -68z" />
    <glyph glyph-name="Umacron" unicode="&#x16a;" horiz-adv-x="780" 
d="M237 772v105h305v-105h-305zM392 -13q-61 0 -113.5 14t-98.5 45.5t-72.5 89t-26.5 136.5v435h138v-429q0 -177 173 -177q174 0 174 199v407h135v-410q0 -69 -18.5 -123.5t-48 -89t-70.5 -57t-83.5 -31.5t-88.5 -9z" />
    <glyph glyph-name="umacron" unicode="&#x16b;" horiz-adv-x="635" 
d="M170 655v105h305v-105h-305zM235 -12q-44 0 -75.5 12.5t-48.5 31.5t-27 49.5t-12.5 57t-2.5 64.5v343h133v-328q0 -63 16.5 -88t67.5 -25q72 0 143 43v398h133v-546h-133v59q-31 -22 -51.5 -34.5t-60 -24.5t-82.5 -12z" />
    <glyph glyph-name="Ubreve" unicode="&#x16c;" horiz-adv-x="780" 
d="M389 753q-120 0 -181 101l70 61q58 -62 115 -62q60 0 112 61l66 -59q-68 -102 -182 -102zM392 -13q-61 0 -113.5 14t-98.5 45.5t-72.5 89t-26.5 136.5v435h138v-429q0 -177 173 -177q174 0 174 199v407h135v-410q0 -69 -18.5 -123.5t-48 -89t-70.5 -57t-83.5 -31.5
t-88.5 -9z" />
    <glyph glyph-name="ubreve" unicode="&#x16d;" horiz-adv-x="635" 
d="M235 -12q-44 0 -75.5 12.5t-48.5 31.5t-27 49.5t-12.5 57t-2.5 64.5v343h133v-328q0 -63 16.5 -88t67.5 -25q72 0 143 43v398h133v-546h-133v59q-31 -22 -51.5 -34.5t-60 -24.5t-82.5 -12zM313 626q-120 0 -181 101l70 60q59 -61 115 -61q60 0 112 61l66 -59
q-66 -102 -182 -102z" />
    <glyph glyph-name="Uring" unicode="&#x16e;" horiz-adv-x="780" 
d="M393 711q-50 0 -85.5 25t-35.5 79q0 53 35 81t83 28q46 0 83.5 -25.5t37.5 -81.5q0 -51 -34 -78.5t-84 -27.5zM391 765q52 0 55 51q0 23 -16 37t-39 14q-55 0 -55 -49q0 -24 15 -38.5t40 -14.5zM392 -13q-61 0 -113.5 14t-98.5 45.5t-72.5 89t-26.5 136.5v435h138v-429
q0 -177 173 -177q174 0 174 199v407h135v-410q0 -69 -18.5 -123.5t-48 -89t-70.5 -57t-83.5 -31.5t-88.5 -9z" />
    <glyph glyph-name="uring" unicode="&#x16f;" horiz-adv-x="635" 
d="M317 597q-57 0 -96 27t-39 88q0 58 39.5 90t92.5 32q22 0 44 -6t43.5 -19t34.5 -37.5t13 -57.5q0 -57 -38 -87t-94 -30zM315 656q28 0 43.5 15t17.5 42q0 26 -17.5 41.5t-43.5 15.5q-61 0 -61 -55q0 -27 16.5 -43t44.5 -16zM235 -12q-44 0 -75.5 12.5t-48.5 31.5
t-27 49.5t-12.5 57t-2.5 64.5v343h133v-328q0 -63 16.5 -88t67.5 -25q72 0 143 43v398h133v-546h-133v59q-31 -22 -51.5 -34.5t-60 -24.5t-82.5 -12z" />
    <glyph glyph-name="Uhungarumlaut" unicode="&#x170;" horiz-adv-x="780" 
d="M392 -13q-61 0 -113.5 14t-98.5 45.5t-72.5 89t-26.5 136.5v435h138v-429q0 -177 173 -177q174 0 174 199v407h135v-410q0 -69 -18.5 -123.5t-48 -89t-70.5 -57t-83.5 -31.5t-88.5 -9zM425 878l-216 -141l-55 78l206 154zM700 793l-253 -53l-21 92l248 69z" />
    <glyph glyph-name="uhungarumlaut" unicode="&#x171;" horiz-adv-x="635" 
d="M235 -12q-44 0 -75.5 12.5t-48.5 31.5t-27 49.5t-12.5 57t-2.5 64.5v343h133v-328q0 -63 16.5 -88t67.5 -25q72 0 143 43v398h133v-546h-133v59q-31 -22 -51.5 -34.5t-60 -24.5t-82.5 -12zM156 602l-57 68l187 166l68 -81zM380 603l-40 78l219 123l48 -93z" />
    <glyph glyph-name="Uogonek" unicode="&#x172;" horiz-adv-x="780" 
d="M526 -223q-46 -26 -103 -26q-63 0 -103 33t-40 90q0 59 60 116q-53 5 -97.5 22.5t-82 49.5t-58.5 86t-21 124v435h138v-429q0 -177 173 -177q174 0 174 199v407h135v-410q0 -131 -59.5 -203.5t-154.5 -95.5q-91 -54 -91 -106q0 -22 14 -34.5t34 -12.5q30 0 58 15z" />
    <glyph glyph-name="uogonek" unicode="&#x173;" horiz-adv-x="635" 
d="M569 -138l23 -85q-56 -25 -113 -25q-140 0 -140 109q0 61 90 134v64q-104 -73 -184 -73q-48 0 -81.5 12.5t-52 30.5t-28 49t-12 57t-2.5 66v345h133v-330q0 -63 16.5 -87.5t68.5 -24.5q60 0 142 44v398h133v-546q-109 -68 -109 -115q0 -35 46 -35q30 0 70 12z" />
    <glyph glyph-name="Wcircumflex" unicode="&#x174;" horiz-adv-x="1056" 
d="M398 745l-47 86l179 89l176 -88l-47 -87l-130 59zM1046 707l-208 -707h-184l-126 520l-143 -520h-186l-169 707h141l129 -622l173 622h127l150 -618l159 617z" />
    <glyph glyph-name="wcircumflex" unicode="&#x175;" horiz-adv-x="899" 
d="M580 614l-125 88l-129 -88l-58 75l188 123l180 -123zM170 0l-151 546h140l97 -440l118 440h161l102 -440l117 440h136l-172 -546h-168l-81 336l-18 85l-20 -84l-92 -337h-169z" />
    <glyph glyph-name="Ycircumflex" unicode="&#x176;" horiz-adv-x="662" 
d="M261 0v243l-250 464h157l166 -348l177 348h152l-266 -461v-246h-136zM205 745l-47 86l179 89l176 -88l-47 -87l-130 59z" />
    <glyph glyph-name="ycircumflex" unicode="&#x177;" horiz-adv-x="564" 
d="M408 614l-125 88l-129 -88l-58 75l188 123l180 -123zM166 -220l75 220h-52l-183 546h144l103 -349l26 -92l29 91l118 350h135l-267 -766h-128z" />
    <glyph glyph-name="Ydieresis" unicode="&#x178;" horiz-adv-x="662" 
d="M261 0v243l-250 464h157l166 -348l177 348h152l-266 -461v-246h-136zM273 764h-127v127h127v-127zM515 764h-126v127h126v-127z" />
    <glyph glyph-name="Zacute" unicode="&#x179;" horiz-adv-x="604" 
d="M219 745l-21 90l251 73l25 -106zM36 0v98l344 495h-318v114h483v-91l-348 -502h369v-114h-530z" />
    <glyph glyph-name="zacute" unicode="&#x17a;" horiz-adv-x="518" 
d="M182 608l-40 80l219 124l47 -94zM35 0v93l281 344h-261v109h418v-90l-279 -348h283v-108h-442z" />
    <glyph glyph-name="Zdotaccent" unicode="&#x17b;" horiz-adv-x="604" 
d="M240 775v128h134v-128h-134zM36 0v98l344 495h-318v114h483v-91l-348 -502h369v-114h-530z" />
    <glyph glyph-name="zdotaccent" unicode="&#x17c;" horiz-adv-x="518" 
d="M35 0v93l281 344h-261v109h418v-90l-279 -348h283v-108h-442zM208 653v128h133v-128h-133z" />
    <glyph glyph-name="Zcaron" unicode="&#x17d;" horiz-adv-x="604" 
d="M477 830l-180 -88l-177 89l46 87l131 -60l132 59zM36 0v98l344 495h-318v114h483v-91l-348 -502h369v-114h-530z" />
    <glyph glyph-name="zcaron" unicode="&#x17e;" horiz-adv-x="518" 
d="M253 609l-183 124l54 74l130 -88l129 88l58 -75zM35 0v93l281 344h-261v109h418v-90l-279 -348h283v-108h-442z" />
    <glyph glyph-name="uni018E" unicode="&#x18e;" horiz-adv-x="587" 
d="M496 707v-707h-439v108h302v196h-265v102h265v193h-301v108h438z" />
    <glyph glyph-name="uni018F" unicode="&#x18f;" horiz-adv-x="780" 
d="M378 -12q-168 0 -250.5 91.5t-87.5 256.5v67h551q-11 94 -68.5 150t-156.5 56q-122 0 -237 -61l-51 91q129 79 307 79q168 -1 258 -101.5t90 -263.5q0 -170 -91 -267.5t-264 -97.5zM381 97q105 0 152 54.5t58 155.5h-410q23 -210 200 -210z" />
    <glyph glyph-name="florin" unicode="&#x192;" horiz-adv-x="520" 
d="M46 -48l-4 111q5 0 24.5 1t26 2t23 3t23 5t18.5 7.5t17 11.5t12 16t9.5 22t2.5 29l1 72h-103v109h104v56q0 112 70.5 158t197.5 46l9 -114q-82 -7 -105 -17q-40 -21 -41 -76l-1 -53h116v-109h-116l-1 -75q-1 -104 -68 -154.5t-215 -50.5z" />
    <glyph glyph-name="Ohorn" unicode="&#x1a0;" horiz-adv-x="851" 
d="M407 -12q-175 0 -268 98t-93 269q0 167 102 265t276 98q116 0 198 -46q44 25 44 81q0 24 -9 55h115q12 -28 12 -70q0 -90 -75 -139q76 -95 76 -246q0 -169 -99 -267t-279 -98zM410 97q120 0 178 70.5t58 186.5q0 115 -58.5 185t-170.5 70q-116 0 -174.5 -69.5
t-58.5 -183.5q0 -113 57 -186t169 -73z" />
    <glyph glyph-name="ohorn" unicode="&#x1a1;" horiz-adv-x="640" 
d="M304 -12q-126 0 -195 74.5t-69 205.5q0 137 74.5 214.5t199.5 77.5q82 0 138 -29q44 14 44 71q0 22 -8 48h118q11 -25 11 -62q0 -89 -79 -137q41 -70 41 -177q0 -138 -75.5 -212t-199.5 -74zM311 95q74 0 103 47t29 130q0 182 -133 182q-135 0 -135 -182q0 -177 136 -177
z" />
    <glyph glyph-name="Uhorn" unicode="&#x1af;" horiz-adv-x="816" 
d="M392 -13q-61 0 -113.5 14t-98.5 45.5t-72.5 89t-26.5 136.5v435h138v-429q0 -177 173 -177q174 0 174 199v407h82q30 8 41 26.5t11 49.5q0 20 -9 51h114q12 -28 12 -67q0 -59 -32 -99.5t-84 -54.5v-316q0 -69 -18.5 -123.5t-48 -89t-70.5 -57t-83.5 -31.5t-88.5 -9z" />
    <glyph glyph-name="uhorn" unicode="&#x1b0;" horiz-adv-x="670" 
d="M235 -12q-44 0 -75.5 12.5t-48.5 31.5t-27 49.5t-12.5 57t-2.5 64.5v343h133v-328q0 -63 16.5 -88t67.5 -25q72 0 143 43v398h85q29 7 39 24t10 46q0 19 -9 48h118q11 -25 11 -62q0 -56 -34.5 -97t-86.5 -56v-449h-133v59q-31 -22 -51.5 -34.5t-60 -24.5t-82.5 -12z" />
    <glyph glyph-name="uni01C4" unicode="&#x1c4;" horiz-adv-x="1370" 
d="M1250 830l-180 -88l-177 89l46 87l131 -60l132 59zM802 0v98l344 495h-318v114h483v-91l-348 -502h369v-114h-530zM92 0v707h229q188 0 297 -87t109 -264q0 -180 -104.5 -268t-295.5 -88h-235zM228 108h110q252 0 252 238q0 253 -272 253h-90v-491z" />
    <glyph glyph-name="uni01C5" unicode="&#x1c5;" horiz-adv-x="1296" 
d="M1044 608l-183 124l54 74l130 -88l129 88l58 -75zM812 0v93l281 344h-261v109h418v-90l-279 -348h283v-108h-442zM92 0v707h229q188 0 297 -87t109 -264q0 -180 -104.5 -268t-295.5 -88h-235zM228 108h110q252 0 252 238q0 253 -272 253h-90v-491z" />
    <glyph glyph-name="uni01C6" unicode="&#x1c6;" horiz-adv-x="1142" 
d="M892 609l-183 124l54 74l130 -88l129 88l58 -75zM659 0v93l281 344h-261v109h418v-90l-279 -348h283v-108h-442zM276 -9q-32 0 -63 7.5t-63 26.5t-55.5 49t-38.5 79t-15 112q0 149 78.5 222t207.5 73q35 0 83 -9v203h133v-754h-133v44q-22 -17 -34 -25.5t-40 -18
t-60 -9.5zM301 102q48 0 109 35v306q-61 11 -81 11q-154 0 -154 -181q0 -89 35 -130t91 -41z" />
    <glyph glyph-name="uni01C7" unicode="&#x1c7;" horiz-adv-x="866" 
d="M545 -194l-52 99q87 48 116 99.5t29 146.5v556h138v-554q0 -50 -4 -86t-17.5 -77t-38 -72t-67.5 -60.5t-104 -51.5zM92 0v707h136v-597h307v-110h-443z" />
    <glyph glyph-name="uni01C8" unicode="&#x1c8;" horiz-adv-x="834" 
d="M553 -225q-57 0 -106 22l24 105q37 -13 78 -13q43 0 60.5 25t17.5 81v551h133v-552q0 -65 -16 -109.5t-46.5 -67.5t-65 -32.5t-79.5 -9.5zM92 0v707h136v-597h307v-110h-443zM625 653v128h133v-128h-133z" />
    <glyph glyph-name="uni01C9" unicode="&#x1c9;" horiz-adv-x="573" 
d="M292 -225q-56 0 -106 22l24 105q37 -13 78 -13q43 0 60.5 25t17.5 81v551h133v-552q0 -65 -16 -109.5t-46.5 -67.5t-65 -32.5t-79.5 -9.5zM74 0v754h133v-754h-133zM365 653v128h133v-128h-133z" />
    <glyph glyph-name="uni01CA" unicode="&#x1ca;" horiz-adv-x="1110" 
d="M788 -194l-52 99q87 48 116 99.5t29 146.5v556h138v-554q0 -50 -4 -86t-17.5 -77t-38 -72t-67.5 -60.5t-104 -51.5zM92 0v707h162l312 -534h2l-4 83v451h137v-707h-168l-305 523h-4l4 -86v-437h-136z" />
    <glyph glyph-name="uni01CB" unicode="&#x1cb;" horiz-adv-x="1077" 
d="M796 -225q-56 0 -106 22l24 105q37 -13 78 -13q43 0 60.5 25t17.5 81v551h133v-552q0 -65 -16 -109.5t-46.5 -67.5t-65 -32.5t-79.5 -9.5zM869 653v128h133v-128h-133zM92 0v707h162l312 -534h2l-4 83v451h137v-707h-168l-305 523h-4l4 -86v-437h-136z" />
    <glyph glyph-name="uni01CC" unicode="&#x1cc;" horiz-adv-x="931" 
d="M650 -225q-56 0 -106 22l24 105q37 -13 78 -13q43 0 60.5 25t17.5 81v551h133v-552q0 -65 -16 -109.5t-46.5 -67.5t-65 -32.5t-79.5 -9.5zM723 653v128h133v-128h-133zM74 0v546h133v-58q51 36 93 54t100 18q55 0 90.5 -17t51.5 -50.5t21 -66t5 -80.5v-346h-132v331
q0 64 -17.5 88.5t-67.5 24.5q-68 0 -144 -43v-401h-133z" />
    <glyph glyph-name="uni01CD" unicode="&#x1cd;" horiz-adv-x="700" 
d="M-9 0l279 707h177l245 -707h-143l-77 229h-255l-87 -229h-139zM255 330h183l-85 290zM533 830l-180 -88l-177 89l46 87l131 -60l132 59z" />
    <glyph glyph-name="uni01CE" unicode="&#x1ce;" horiz-adv-x="578" 
d="M205 -9q-78 0 -125 41.5t-47 117.5q0 166 225 168l108 1v47q0 46 -25.5 63t-83.5 17q-76 0 -158 -25l-27 98q100 40 209 40q110 0 162.5 -38.5t52.5 -124.5v-265q0 -32 53 -34l-5 -101q-10 -1 -26 -1q-124 0 -140 62q-85 -66 -173 -66zM243 95q55 0 123 35v108l-101 -4
q-48 -1 -75 -20t-27 -54q0 -32 22 -48.5t58 -16.5zM287 608l-183 124l54 74l130 -88l129 88l58 -75z" />
    <glyph glyph-name="uni01CF" unicode="&#x1cf;" horiz-adv-x="320" 
d="M92 0v707h136v-707h-136zM338 830l-180 -88l-177 89l46 87l131 -60l132 59z" />
    <glyph glyph-name="uni01D0" unicode="&#x1d0;" horiz-adv-x="281" 
d="M139 608l-183 124l54 74l130 -88l129 88l58 -75zM74 0v546h134v-546h-134z" />
    <glyph glyph-name="uni01D1" unicode="&#x1d1;" horiz-adv-x="831" 
d="M599 830l-180 -88l-177 89l46 87l131 -60l132 59zM407 -12q-175 0 -268 98t-93 269q0 167 102 265t276 98q178 0 269.5 -100.5t91.5 -264.5q0 -169 -99 -267t-279 -98zM410 97q120 0 178 70.5t58 186.5q0 115 -58.5 185t-170.5 70q-116 0 -174.5 -69.5t-58.5 -183.5
q0 -113 57 -186t169 -73z" />
    <glyph glyph-name="uni01D2" unicode="&#x1d2;" horiz-adv-x="619" 
d="M307 608l-183 124l54 74l130 -88l129 88l58 -75zM304 -12q-126 0 -195 74.5t-69 205.5q0 137 74.5 214.5t199.5 77.5q132 0 198.5 -74.5t66.5 -211.5q0 -138 -75.5 -212t-199.5 -74zM311 95q74 0 103 47t29 130q0 182 -133 182q-135 0 -135 -182q0 -177 136 -177z" />
    <glyph glyph-name="uni01D3" unicode="&#x1d3;" horiz-adv-x="780" 
d="M571 830l-180 -88l-177 89l46 87l131 -60l132 59zM392 -13q-61 0 -113.5 14t-98.5 45.5t-72.5 89t-26.5 136.5v435h138v-429q0 -177 173 -177q174 0 174 199v407h135v-410q0 -69 -18.5 -123.5t-48 -89t-70.5 -57t-83.5 -31.5t-88.5 -9z" />
    <glyph glyph-name="uni01D4" unicode="&#x1d4;" horiz-adv-x="635" 
d="M316 609l-183 124l54 74l130 -88l129 88l58 -75zM235 -12q-44 0 -75.5 12.5t-48.5 31.5t-27 49.5t-12.5 57t-2.5 64.5v343h133v-328q0 -63 16.5 -88t67.5 -25q72 0 143 43v398h133v-546h-133v59q-31 -22 -51.5 -34.5t-60 -24.5t-82.5 -12z" />
    <glyph glyph-name="uni01D5" unicode="&#x1d5;" horiz-adv-x="780" 
d="M334 751h-127v127h127v-127zM576 751h-126v127h126v-127zM392 -13q-61 0 -113.5 14t-98.5 45.5t-72.5 89t-26.5 136.5v435h138v-429q0 -177 173 -177q174 0 174 199v407h135v-410q0 -69 -18.5 -123.5t-48 -89t-70.5 -57t-83.5 -31.5t-88.5 -9zM231 917v105h316v-105h-316
z" />
    <glyph glyph-name="uni01D6" unicode="&#x1d6;" horiz-adv-x="635" 
d="M253 623h-127v128h127v-128zM502 623h-126v128h126v-128zM157 798v105h316v-105h-316zM235 -12q-44 0 -75.5 12.5t-48.5 31.5t-27 49.5t-12.5 57t-2.5 64.5v343h133v-328q0 -63 16.5 -88t67.5 -25q72 0 143 43v398h133v-546h-133v59q-31 -22 -51.5 -34.5t-60 -24.5
t-82.5 -12z" />
    <glyph glyph-name="uni01D7" unicode="&#x1d7;" horiz-adv-x="780" 
d="M334 751h-127v127h127v-127zM576 751h-126v127h126v-127zM341 887l-21 90l251 73l25 -106zM392 -13q-61 0 -113.5 14t-98.5 45.5t-72.5 89t-26.5 136.5v435h138v-429q0 -177 173 -177q174 0 174 199v407h135v-410q0 -69 -18.5 -123.5t-48 -89t-70.5 -57t-83.5 -31.5
t-88.5 -9z" />
    <glyph glyph-name="uni01D8" unicode="&#x1d8;" horiz-adv-x="635" 
d="M253 623h-127v128h127v-128zM502 623h-126v128h126v-128zM291 758l-40 80l219 124l47 -94zM235 -12q-44 0 -75.5 12.5t-48.5 31.5t-27 49.5t-12.5 57t-2.5 64.5v343h133v-328q0 -63 16.5 -88t67.5 -25q72 0 143 43v398h133v-546h-133v59q-31 -22 -51.5 -34.5t-60 -24.5
t-82.5 -12z" />
    <glyph glyph-name="uni01D9" unicode="&#x1d9;" horiz-adv-x="780" 
d="M334 751h-127v127h127v-127zM576 751h-126v127h126v-127zM392 -13q-61 0 -113.5 14t-98.5 45.5t-72.5 89t-26.5 136.5v435h138v-429q0 -177 173 -177q174 0 174 199v407h135v-410q0 -69 -18.5 -123.5t-48 -89t-70.5 -57t-83.5 -31.5t-88.5 -9zM571 971l-180 -88l-177 89
l46 87l131 -60l132 59z" />
    <glyph glyph-name="uni01DA" unicode="&#x1da;" horiz-adv-x="635" 
d="M253 623h-127v128h127v-128zM502 623h-126v128h126v-128zM235 -12q-44 0 -75.5 12.5t-48.5 31.5t-27 49.5t-12.5 57t-2.5 64.5v343h133v-328q0 -63 16.5 -88t67.5 -25q72 0 143 43v398h133v-546h-133v59q-31 -22 -51.5 -34.5t-60 -24.5t-82.5 -12zM312 753l-181 118
l54 75l128 -83l128 83l58 -74z" />
    <glyph glyph-name="uni01DB" unicode="&#x1db;" horiz-adv-x="780" 
d="M428 891l-256 55l25 107l252 -72zM334 751h-127v127h127v-127zM576 751h-126v127h126v-127zM392 -13q-61 0 -113.5 14t-98.5 45.5t-72.5 89t-26.5 136.5v435h138v-429q0 -177 173 -177q174 0 174 199v407h135v-410q0 -69 -18.5 -123.5t-48 -89t-70.5 -57t-83.5 -31.5
t-88.5 -9z" />
    <glyph glyph-name="uni01DC" unicode="&#x1dc;" horiz-adv-x="635" 
d="M253 623h-127v128h127v-128zM502 623h-126v128h126v-128zM235 -12q-44 0 -75.5 12.5t-48.5 31.5t-27 49.5t-12.5 57t-2.5 64.5v343h133v-328q0 -63 16.5 -88t67.5 -25q72 0 143 43v398h133v-546h-133v59q-31 -22 -51.5 -34.5t-60 -24.5t-82.5 -12zM352 749l-224 111
l46 95l220 -125z" />
    <glyph glyph-name="uni01DD" unicode="&#x1dd;" horiz-adv-x="571" 
d="M248 559q139 0 210 -61.5t71 -214.5q0 -295 -266 -295q-223 0 -223 276v48h356q-1 82 -45 111t-127 29q-56 0 -148 -23l-21 101q87 29 193 29zM392 223h-215q-1 -64 24.5 -101.5t73.5 -37.5q51 0 82 36t35 103z" />
    <glyph glyph-name="uni01E2" unicode="&#x1e2;" horiz-adv-x="953" 
d="M429 772v105h305v-105h-305zM-20 0l348 707h555v-108h-302v-193h280v-102h-280v-196h325v-108h-461v270h-186l-125 -270h-154zM303 372h142v227h-37z" />
    <glyph glyph-name="uni01E3" unicode="&#x1e3;" horiz-adv-x="893" 
d="M297 655v105h305v-105h-305zM646 -9q-169 0 -235 88q-99 -87 -203 -87q-84 0 -129.5 40t-45.5 119q0 49 20 83t56 49.5t70 22t79 7.5q87 3 108 3v56q0 45 -25.5 59.5t-89.5 14.5q-45 0 -152 -24l-27 98q106 39 203 39q137 0 184 -54q62 54 173 54q222 0 222 -271v-44
l-357 -10q1 -82 45 -109.5t128 -27.5q50 0 148 20l19 -99q-83 -27 -191 -27zM232 95q58 0 150 43q-11 34 -16 92l-100 -2q-103 -3 -103 -69q0 -64 69 -64zM502 324l214 9q1 59 -25.5 94t-70.5 35q-49 0 -83 -34.5t-35 -103.5z" />
    <glyph glyph-name="uni01E6" unicode="&#x1e6;" horiz-adv-x="710" 
d="M584 830l-180 -88l-177 89l46 87l131 -60l132 59zM429 -11q-179 0 -280.5 93t-101.5 267q0 181 98.5 274.5t284.5 93.5q114 0 209 -41l-37 -102q-39 11 -56 15.5t-49 9t-68 4.5q-108 0 -175 -60t-67 -184q0 -126 72 -190t185 -64q34 0 72 6v238h136v-321
q-104 -39 -223 -39z" />
    <glyph glyph-name="uni01E7" unicode="&#x1e7;" horiz-adv-x="598" 
d="M263 193q-47 0 -86 11q-16 -23 -16 -42q0 -15 11 -25t30 -10h112q219 0 219 -152q0 -88 -72 -146.5t-207 -58.5q-106 0 -164 37.5t-58 103.5q0 82 69 128q-40 28 -40 77q0 64 59 112q-72 45 -72 135q0 85 59.5 140.5t162.5 55.5q81 0 134 -32l168 9v-97h-89
q11 -48 11 -72q0 -80 -65.5 -127t-165.5 -47zM321 18h-137q-18 0 -26 1q-28 -31 -28 -68q0 -80 134 -80q71 0 114.5 25t43.5 63q0 28 -26 43.5t-75 15.5zM279 608l-183 124l54 74l130 -88l129 88l58 -75zM268 275q49 0 77 27t28 70t-27 71t-75 28q-47 0 -75 -27.5t-28 -73.5
q0 -44 27 -69.5t73 -25.5z" />
    <glyph glyph-name="uni01E8" unicode="&#x1e8;" horiz-adv-x="687" 
d="M92 0v707h136v-323l267 323h174l-289 -329l306 -378h-175l-283 374v-374h-136zM534 830l-180 -88l-177 89l46 87l131 -60l132 59z" />
    <glyph glyph-name="uni01E9" unicode="&#x1e9;" horiz-adv-x="575" 
d="M75 0v754h133v-444l189 236h146l-211 -253l232 -293h-165l-191 263v-263h-133zM493 830l-180 -88l-177 89l46 87l131 -60l132 59z" />
    <glyph glyph-name="uni01EA" unicode="&#x1ea;" horiz-adv-x="831" 
d="M554 -223q-46 -26 -103 -26q-63 0 -103 33t-40 90q0 59 60 116q-156 10 -239 107t-83 258q0 167 102 265t276 98q178 0 269.5 -100.5t91.5 -264.5q0 -141 -69.5 -233.5t-199.5 -120.5q-92 -55 -92 -107q0 -22 14 -34.5t34 -12.5q30 0 58 15zM410 97q120 0 178 70.5
t58 186.5q0 115 -58.5 185t-170.5 70q-116 0 -174.5 -69.5t-58.5 -183.5q0 -113 57 -186t169 -73z" />
    <glyph glyph-name="uni01EB" unicode="&#x1eb;" horiz-adv-x="619" 
d="M436 -223q-46 -26 -103 -26q-63 0 -103 33t-40 90q0 61 62 118q-102 14 -157 86t-55 190q0 137 74.5 214.5t199.5 77.5q132 0 198.5 -74.5t66.5 -211.5q0 -107 -47 -176.5t-128 -95.5q-98 -56 -98 -110q0 -22 14 -34.5t34 -12.5q30 0 58 15zM311 95q74 0 103 47t29 130
q0 182 -133 182q-135 0 -135 -182q0 -177 136 -177z" />
    <glyph glyph-name="uni01EC" unicode="&#x1ec;" horiz-adv-x="831" 
d="M554 -223q-46 -26 -103 -26q-63 0 -103 33t-40 90q0 59 60 116q-156 10 -239 107t-83 258q0 167 102 265t276 98q178 0 269.5 -100.5t91.5 -264.5q0 -141 -69.5 -233.5t-199.5 -120.5q-92 -55 -92 -107q0 -22 14 -34.5t34 -12.5q30 0 58 15zM410 97q120 0 178 70.5
t58 186.5q0 115 -58.5 185t-170.5 70q-116 0 -174.5 -69.5t-58.5 -183.5q0 -113 57 -186t169 -73zM258 772v105h305v-105h-305z" />
    <glyph glyph-name="uni01ED" unicode="&#x1ed;" horiz-adv-x="619" 
d="M436 -223q-46 -26 -103 -26q-63 0 -103 33t-40 90q0 61 62 118q-102 14 -157 86t-55 190q0 137 74.5 214.5t199.5 77.5q132 0 198.5 -74.5t66.5 -211.5q0 -107 -47 -176.5t-128 -95.5q-98 -56 -98 -110q0 -22 14 -34.5t34 -12.5q30 0 58 15zM311 95q74 0 103 47t29 130
q0 182 -133 182q-135 0 -135 -182q0 -177 136 -177zM153 654v105h305v-105h-305z" />
    <glyph glyph-name="uni01EE" unicode="&#x1ee;" horiz-adv-x="554" 
d="M446 830l-180 -88l-177 89l46 87l131 -60l132 59zM161 400l170 193h-282v114h436v-91l-193 -215q93 -14 153.5 -63.5t60.5 -132.5q0 -108 -78 -162.5t-190 -54.5q-75 0 -129.5 12t-70.5 23l28 108q82 -30 167 -30q137 0 137 103q0 101 -153 109q-13 1 -39 1z" />
    <glyph glyph-name="uni01EF" unicode="&#x1ef;" horiz-adv-x="497" 
d="M119 153v94l181 190h-270v109h417v-90l-201 -215q93 -16 154 -67.5t61 -133.5q0 -77 -59.5 -138.5t-144 -92.5t-176.5 -36l-21 103q120 15 192.5 55t72.5 104q0 57 -62 86t-144 32zM237 608l-183 124l54 74l130 -88l129 88l58 -75z" />
    <glyph glyph-name="uni01F1" unicode="&#x1f1;" horiz-adv-x="1370" 
d="M802 0v98l344 495h-318v114h483v-91l-348 -502h369v-114h-530zM92 0v707h229q188 0 297 -87t109 -264q0 -180 -104.5 -268t-295.5 -88h-235zM228 108h110q252 0 252 238q0 253 -272 253h-90v-491z" />
    <glyph glyph-name="uni01F2" unicode="&#x1f2;" horiz-adv-x="1296" 
d="M812 0v93l281 344h-261v109h418v-90l-279 -348h283v-108h-442zM92 0v707h229q188 0 297 -87t109 -264q0 -180 -104.5 -268t-295.5 -88h-235zM228 108h110q252 0 252 238q0 253 -272 253h-90v-491z" />
    <glyph glyph-name="uni01F3" unicode="&#x1f3;" horiz-adv-x="1142" 
d="M659 0v93l281 344h-261v109h418v-90l-279 -348h283v-108h-442zM276 -9q-32 0 -63 7.5t-63 26.5t-55.5 49t-38.5 79t-15 112q0 149 78.5 222t207.5 73q35 0 83 -9v203h133v-754h-133v44q-22 -17 -34 -25.5t-40 -18t-60 -9.5zM301 102q48 0 109 35v306q-61 11 -81 11
q-154 0 -154 -181q0 -89 35 -130t91 -41z" />
    <glyph glyph-name="uni01F4" unicode="&#x1f4;" horiz-adv-x="710" 
d="M321 745l-21 90l251 73l25 -106zM429 -11q-179 0 -280.5 93t-101.5 267q0 181 98.5 274.5t284.5 93.5q114 0 209 -41l-37 -102q-39 11 -56 15.5t-49 9t-68 4.5q-108 0 -175 -60t-67 -184q0 -126 72 -190t185 -64q34 0 72 6v238h136v-321q-104 -39 -223 -39z" />
    <glyph glyph-name="uni01F5" unicode="&#x1f5;" horiz-adv-x="598" 
d="M263 193q-47 0 -86 11q-16 -23 -16 -42q0 -15 11 -25t30 -10h112q219 0 219 -152q0 -88 -72 -146.5t-207 -58.5q-106 0 -164 37.5t-58 103.5q0 82 69 128q-40 28 -40 77q0 64 59 112q-72 45 -72 135q0 85 59.5 140.5t162.5 55.5q81 0 134 -32l168 9v-97h-89
q11 -48 11 -72q0 -80 -65.5 -127t-165.5 -47zM321 18h-137q-18 0 -26 1q-28 -31 -28 -68q0 -80 134 -80q71 0 114.5 25t43.5 63q0 28 -26 43.5t-75 15.5zM268 275q49 0 77 27t28 70t-27 71t-75 28q-47 0 -75 -27.5t-28 -73.5q0 -44 27 -69.5t73 -25.5zM234 608l-40 80
l219 124l47 -94z" />
    <glyph glyph-name="uni01F8" unicode="&#x1f8;" horiz-adv-x="792" 
d="M499 745l-256 55l25 107l252 -72zM92 0v707h162l312 -534h2l-4 83v451h137v-707h-168l-305 523h-4l4 -86v-437h-136z" />
    <glyph glyph-name="uni01F9" unicode="&#x1f9;" horiz-adv-x="636" 
d="M388 607l-224 111l46 95l220 -125zM74 0v546h133v-58q51 36 93 54t100 18q55 0 90.5 -17t51.5 -50.5t21 -66t5 -80.5v-346h-132v331q0 64 -17.5 88.5t-67.5 24.5q-68 0 -144 -43v-401h-133z" />
    <glyph glyph-name="uni01FA" unicode="&#x1fa;" horiz-adv-x="700" 
d="M-9 0l279 707h177l245 -707h-143l-77 229h-255l-87 -229h-139zM255 330h183l-85 290zM248 932l-21 90l251 73l25 -106zM361 722q-50 0 -85.5 25t-35.5 79q0 53 35 81t83 28q46 0 83.5 -25.5t37.5 -81.5q0 -51 -34 -78.5t-84 -27.5zM359 776q52 0 55 51q0 23 -16 37
t-39 14q-55 0 -55 -49q0 -24 15 -38.5t40 -14.5z" />
    <glyph glyph-name="uni01FB" unicode="&#x1fb;" horiz-adv-x="578" 
d="M205 -9q-78 0 -125 41.5t-47 117.5q0 166 225 168l108 1v47q0 46 -25.5 63t-83.5 17q-76 0 -158 -25l-27 98q100 40 209 40q110 0 162.5 -38.5t52.5 -124.5v-265q0 -32 53 -34l-5 -101q-10 -1 -26 -1q-124 0 -140 62q-85 -66 -173 -66zM243 95q55 0 123 35v108l-101 -4
q-48 -1 -75 -20t-27 -54q0 -32 22 -48.5t58 -16.5zM183 830l-21 90l251 73l25 -106zM291 590q-55 0 -93.5 26.5t-38.5 85.5q0 57 38 88t91 31q50 0 90.5 -28t40.5 -89q0 -56 -36.5 -85t-91.5 -29zM289 648q56 0 59 55q0 24 -17 39.5t-42 15.5q-59 0 -59 -53q0 -26 16 -41.5
t43 -15.5z" />
    <glyph glyph-name="AEacute" unicode="&#x1fc;" horiz-adv-x="953" 
d="M482 745l-21 90l251 73l25 -106zM-20 0l348 707h555v-108h-302v-193h280v-102h-280v-196h325v-108h-461v270h-186l-125 -270h-154zM303 372h142v227h-37z" />
    <glyph glyph-name="aeacute" unicode="&#x1fd;" horiz-adv-x="893" 
d="M376 608l-40 80l219 124l47 -94zM646 -9q-169 0 -235 88q-99 -87 -203 -87q-84 0 -129.5 40t-45.5 119q0 49 20 83t56 49.5t70 22t79 7.5q87 3 108 3v56q0 45 -25.5 59.5t-89.5 14.5q-45 0 -152 -24l-27 98q106 39 203 39q137 0 184 -54q62 54 173 54q222 0 222 -271v-44
l-357 -10q1 -82 45 -109.5t128 -27.5q50 0 148 20l19 -99q-83 -27 -191 -27zM232 95q58 0 150 43q-11 34 -16 92l-100 -2q-103 -3 -103 -69q0 -64 69 -64zM502 324l214 9q1 59 -25.5 94t-70.5 35q-49 0 -83 -34.5t-35 -103.5z" />
    <glyph glyph-name="Oslashacute" unicode="&#x1fe;" horiz-adv-x="860" 
d="M99 -39l-58 58l89 92q-71 94 -71 244q0 167 102 265t276 98q134 0 222 -60l87 90l61 -56l-87 -90q78 -96 78 -249q0 -169 -99 -267t-279 -98q-142 0 -231 66zM423 97q120 0 178 70.5t58 186.5q0 88 -34 150l-347 -359q56 -48 145 -48zM197 356q0 -82 30 -145l344 355
q-57 43 -141 43q-116 0 -174.5 -69.5t-58.5 -183.5zM347 745l-21 90l251 73l25 -106z" />
    <glyph glyph-name="oslashacute" unicode="&#x1ff;" horiz-adv-x="640" 
d="M313 -12q-107 0 -172 53l-62 -66l-45 43l64 68q-49 72 -49 182q0 137 74.5 214.5t199.5 77.5q108 0 174 -52l59 63l44 -43l-61 -65q49 -70 49 -189q0 -138 -75.5 -212t-199.5 -74zM320 95q74 0 103 47t29 130q0 51 -11 88l-216 -230q32 -35 95 -35zM184 272q0 -49 10 -85
l217 231q-33 36 -92 36q-135 0 -135 -182zM249 608l-40 80l219 124l47 -94z" />
    <glyph glyph-name="Scommaaccent" unicode="&#x218;" horiz-adv-x="569" 
d="M336 -59l-43 -213h-94l21 213h116zM256 -12q-125 0 -221 54l40 104q102 -44 181 -44q63 0 101.5 24t38.5 69q0 38 -35 64t-85.5 45t-100.5 42t-85 68t-35 111q0 90 70.5 141.5t167.5 51.5q119 0 203 -49l-40 -101q-80 36 -159 36q-48 0 -78 -21.5t-30 -58.5
q0 -27 25.5 -50t64 -38t83 -36t83 -44t64 -63t25.5 -92q0 -104 -80.5 -158.5t-197.5 -54.5z" />
    <glyph glyph-name="scommaaccent" unicode="&#x219;" horiz-adv-x="482" 
d="M314 -59l-43 -213h-94l21 213h116zM209 -12q-97 0 -171 23l16 104q103 -18 158 -18q108 0 108 53q0 20 -20.5 35.5t-51 24.5t-66 23.5t-66 32t-51 50.5t-20.5 77q0 81 61.5 124t154.5 43q87 0 163 -29l-24 -99q-70 21 -135 21q-88 0 -88 -49q0 -21 20 -36.5t50.5 -25.5
t66 -25t66 -32.5t50.5 -51t20 -77.5q0 -47 -22 -81.5t-59 -52.5t-77 -26t-83 -8z" />
    <glyph glyph-name="uni021A" unicode="&#x21a;" horiz-adv-x="615" 
d="M367 -59l-43 -213h-94l21 213h116zM239 0v598h-229v109h595v-109h-229v-598h-137z" />
    <glyph glyph-name="uni021B" unicode="&#x21b;" horiz-adv-x="452" 
d="M339 -59l-43 -213h-94l21 213h116zM285 -13q-90 0 -137.5 40.5t-47.5 135.5v281h-80v102h80v112h133v-112h169v-102h-169v-274q0 -39 17 -54t58 -15q49 0 108 16l15 -106q-67 -24 -146 -24z" />
    <glyph glyph-name="uni021C" unicode="&#x21c;" horiz-adv-x="554" 
d="M161 400l170 193h-282v114h436v-91l-193 -215q93 -14 153.5 -63.5t60.5 -132.5q0 -108 -78 -162.5t-190 -54.5q-75 0 -129.5 12t-70.5 23l28 108q82 -30 167 -30q137 0 137 103q0 101 -153 109q-13 1 -39 1z" />
    <glyph glyph-name="uni021D" unicode="&#x21d;" horiz-adv-x="497" 
d="M119 153v94l181 190h-270v109h417v-90l-201 -215q93 -16 154 -67.5t61 -133.5q0 -77 -59.5 -138.5t-144 -92.5t-176.5 -36l-21 103q120 15 192.5 55t72.5 104q0 57 -62 86t-144 32z" />
    <glyph glyph-name="uni021E" unicode="&#x21e;" horiz-adv-x="790" 
d="M92 0v707h136v-299h334v299h136v-707h-136v302h-334v-302h-136zM573 830l-180 -88l-177 89l46 87l131 -60l132 59z" />
    <glyph glyph-name="uni021F" unicode="&#x21f;" horiz-adv-x="636" 
d="M74 0v754h133v-268q92 73 184 73q48 0 82 -12.5t52 -30t28 -49t12 -57t2 -65.5v-345h-131v330q0 63 -18 88t-68 25q-64 0 -143 -45v-398h-133zM521 830l-180 -88l-177 89l46 87l131 -60l132 59z" />
    <glyph glyph-name="uni0226" unicode="&#x226;" horiz-adv-x="700" 
d="M-9 0l279 707h177l245 -707h-143l-77 229h-255l-87 -229h-139zM255 330h183l-85 290zM287 775v128h134v-128h-134z" />
    <glyph glyph-name="uni0227" unicode="&#x227;" horiz-adv-x="578" 
d="M205 -9q-78 0 -125 41.5t-47 117.5q0 166 225 168l108 1v47q0 46 -25.5 63t-83.5 17q-76 0 -158 -25l-27 98q100 40 209 40q110 0 162.5 -38.5t52.5 -124.5v-265q0 -32 53 -34l-5 -101q-10 -1 -26 -1q-124 0 -140 62q-85 -66 -173 -66zM243 95q55 0 123 35v108l-101 -4
q-48 -1 -75 -20t-27 -54q0 -32 22 -48.5t58 -16.5zM227 653v128h133v-128h-133z" />
    <glyph glyph-name="uni0228" unicode="&#x228;" 
d="M92 0v707h438v-108h-302v-193h280v-102h-280v-196h325v-108h-461zM267 -267l-46 79q50 31 62 48q8 12 8 25q0 20 -16 64h109q21 -44 21 -76q0 -81 -138 -140z" />
    <glyph glyph-name="uni0229" unicode="&#x229;" horiz-adv-x="571" 
d="M321 -12q-136 0 -207.5 62t-71.5 215q0 154 70.5 224t187.5 70q122 0 177 -70t55 -205v-48h-356q-1 -80 43 -110t120 -30q67 0 157 23l21 -101q-87 -30 -196 -30zM179 325h216q1 64 -24.5 101t-75.5 37q-49 0 -80.5 -36t-35.5 -102zM246 -267l-46 79q50 31 62 48
q8 12 8 25q0 20 -16 64h109q21 -44 21 -76q0 -81 -138 -140z" />
    <glyph glyph-name="uni022E" unicode="&#x22e;" horiz-adv-x="831" 
d="M347 775v128h134v-128h-134zM407 -12q-175 0 -268 98t-93 269q0 167 102 265t276 98q178 0 269.5 -100.5t91.5 -264.5q0 -169 -99 -267t-279 -98zM410 97q120 0 178 70.5t58 186.5q0 115 -58.5 185t-170.5 70q-116 0 -174.5 -69.5t-58.5 -183.5q0 -113 57 -186t169 -73z
" />
    <glyph glyph-name="uni022F" unicode="&#x22f;" horiz-adv-x="619" 
d="M304 -12q-126 0 -195 74.5t-69 205.5q0 137 74.5 214.5t199.5 77.5q132 0 198.5 -74.5t66.5 -211.5q0 -138 -75.5 -212t-199.5 -74zM311 95q74 0 103 47t29 130q0 182 -133 182q-135 0 -135 -182q0 -177 136 -177zM242 653v128h133v-128h-133z" />
    <glyph glyph-name="uni0232" unicode="&#x232;" horiz-adv-x="662" 
d="M261 0v243l-250 464h157l166 -348l177 348h152l-266 -461v-246h-136zM180 772v105h305v-105h-305z" />
    <glyph glyph-name="uni0233" unicode="&#x233;" horiz-adv-x="564" 
d="M166 -220l75 220h-52l-183 546h144l103 -349l26 -92l29 91l118 350h135l-267 -766h-128zM128 655v105h305v-105h-305z" />
    <glyph glyph-name="uni0237" unicode="&#x237;" horiz-adv-x="281" 
d="M0 -225q-56 0 -106 22l24 105q37 -13 78 -13q43 0 60.5 25t17.5 81v551h133v-552q0 -65 -16 -109.5t-46.5 -67.5t-65 -32.5t-79.5 -9.5z" />
    <glyph glyph-name="uni0259" unicode="&#x259;" horiz-adv-x="571" 
d="M248 559q139 0 210 -61.5t71 -214.5q0 -295 -266 -295q-223 0 -223 276v48h356q-1 82 -45 111t-127 29q-56 0 -148 -23l-21 101q87 29 193 29zM392 223h-215q-1 -64 24.5 -101.5t73.5 -37.5q51 0 82 36t35 103z" />
    <glyph glyph-name="uni02BC" unicode="&#x2bc;" horiz-adv-x="659" 
d="M-81 511q30 59 30 130v113h123v-75q0 -94 -55 -168h-98z" />
    <glyph glyph-name="circumflex" unicode="&#x2c6;" horiz-adv-x="550" 
d="M387 614l-125 88l-129 -88l-58 75l188 123l180 -123z" />
    <glyph glyph-name="caron" unicode="&#x2c7;" horiz-adv-x="550" 
d="M271 608l-183 124l54 74l130 -88l129 88l58 -75z" />
    <glyph glyph-name="breve" unicode="&#x2d8;" horiz-adv-x="510" 
d="M272 625q-120 0 -181 101l70 60q59 -61 115 -61q60 0 112 61l66 -59q-66 -102 -182 -102z" />
    <glyph glyph-name="dotaccent" unicode="&#x2d9;" horiz-adv-x="287" 
d="M77 653v128h133v-128h-133z" />
    <glyph glyph-name="ring" unicode="&#x2da;" horiz-adv-x="546" 
d="M275 597q-57 0 -96 27t-39 88q0 58 39.5 90t92.5 32q22 0 44 -6t43.5 -19t34.5 -37.5t13 -57.5q0 -57 -38 -87t-94 -30zM273 656q28 0 43.5 15t17.5 42q0 26 -17.5 41.5t-43.5 15.5q-61 0 -61 -55q0 -27 16.5 -43t44.5 -16z" />
    <glyph glyph-name="ogonek" unicode="&#x2db;" horiz-adv-x="575" 
d="M513 -223q-46 -26 -103 -26q-63 0 -103 33t-40 90q0 60 56.5 112.5t136.5 86.5l44 -58q-121 -64 -121 -123q0 -22 14 -34.5t34 -12.5q30 0 58 15z" />
    <glyph glyph-name="tilde" unicode="&#x2dc;" horiz-adv-x="550" 
d="M330 638q-26 0 -66.5 18.5t-59.5 18.5q-37 0 -70 -27l-51 64q62 68 130 68q32 0 69.5 -19t53.5 -19q34 0 80 27l46 -63q-64 -68 -132 -68z" />
    <glyph glyph-name="hungarumlaut" unicode="&#x2dd;" horiz-adv-x="621" 
d="M114 602l-57 68l187 166l68 -81zM338 603l-40 78l219 123l48 -93z" />
    <glyph glyph-name="gravecmb" unicode="&#x300;" horiz-adv-x="0" 
d="M-234 607l-225 111l47 95l219 -124z" />
    <glyph glyph-name="acutecmb" unicode="&#x301;" horiz-adv-x="0" 
d="M-394 608l-41 81l219 124l47 -95z" />
    <glyph glyph-name="uni0302" unicode="&#x302;" horiz-adv-x="0" 
d="M-181 617l-128 84l-130 -84l-58 76l188 119l182 -119z" />
    <glyph glyph-name="tildecmb" unicode="&#x303;" horiz-adv-x="0" 
d="M-253 638q-26 0 -67 18.5t-60 18.5q-37 0 -69 -27l-51 64q62 68 129 68q32 0 70 -19t53 -19q35 0 81 27l46 -63q-64 -68 -132 -68z" />
    <glyph glyph-name="uni0304" unicode="&#x304;" horiz-adv-x="0" 
d="M-471 654v105h316v-105h-316z" />
    <glyph glyph-name="uni0306" unicode="&#x306;" horiz-adv-x="0" 
d="M-314 623q-121 0 -187 102l70 62q59 -62 120 -62q60 0 116 62l66 -61q-72 -103 -185 -103z" />
    <glyph glyph-name="uni0307" unicode="&#x307;" horiz-adv-x="0" 
d="M-384 650v128h133v-128h-133z" />
    <glyph glyph-name="uni0308" unicode="&#x308;" horiz-adv-x="0" 
d="M-429 636l-79 80l79 80l79 -80zM-203 636l-80 80l80 80l79 -80z" />
    <glyph glyph-name="hookcmb" unicode="&#x309;" horiz-adv-x="0" 
d="M-220 753q0 -51 -30 -87t-71 -53l-56 67q56 24 56 65q0 17 -11.5 25.5t-27.5 8.5q-14 0 -39 -7l-9 83q30 13 70 13q51 0 85 -31q33 -31 33 -84z" />
    <glyph glyph-name="uni030A" unicode="&#x30a;" horiz-adv-x="0" 
d="M-311 600q-55 0 -93.5 26.5t-38.5 85.5q0 57 38 88t91 31q50 0 90.5 -28t40.5 -89q0 -56 -36.5 -85t-91.5 -29zM-313 658q56 0 59 55q0 24 -17 39.5t-42 15.5q-59 0 -59 -53q0 -26 16 -41.5t43 -15.5z" />
    <glyph glyph-name="uni030B" unicode="&#x30b;" horiz-adv-x="0" 
d="M-476 602l-57 68l187 166l68 -81zM-252 603l-40 78l218 123l49 -93z" />
    <glyph glyph-name="uni030C" unicode="&#x30c;" horiz-adv-x="0" 
d="M-317 595l-181 118l54 75l128 -83l128 83l58 -74z" />
    <glyph glyph-name="uni0310" unicode="&#x310;" horiz-adv-x="0" 
d="M-309 624q-66 0 -113 31t-72 73l71 61q58 -63 117 -63q58 0 116 63l67 -59q-70 -106 -186 -106zM-373 797v128h133v-128h-133z" />
    <glyph glyph-name="dotbelowcmb" unicode="&#x323;" horiz-adv-x="0" 
d="M-374 -211v128h133v-128h-133z" />
    <glyph glyph-name="uni0324" unicode="&#x324;" horiz-adv-x="0" 
d="M-489 -211v128h133v-128h-133zM-259 -211v128h133v-128h-133z" />
    <glyph glyph-name="uni0325" unicode="&#x325;" horiz-adv-x="0" 
d="M-306 -276q-55 0 -93.5 27t-38.5 86q0 57 38 88t91 31q49 0 90 -28t41 -89q0 -56 -36.5 -85.5t-91.5 -29.5zM-308 -217q56 0 59 55q0 24 -17 39.5t-42 15.5q-59 0 -59 -53q0 -26 16 -41.5t43 -15.5z" />
    <glyph glyph-name="uni0327" unicode="&#x327;" horiz-adv-x="0" 
d="M-357 -267l-45 79q2 2 10 7t11 7t10.5 6.5t10.5 7.5t8.5 8t8 8.5t5.5 8.5t4 10t1 10q0 20 -16 64h109q21 -44 21 -76q0 -82 -138 -140z" />
    <glyph glyph-name="uni0328" unicode="&#x328;" horiz-adv-x="0" 
d="M-293 -250q-138 0 -138 131q0 97 189 198l50 -66q-42 -23 -82 -60t-40 -70q0 -31 44 -31q37 0 62 8l24 -88q-50 -22 -109 -22z" />
    <glyph glyph-name="uni032E" unicode="&#x32e;" horiz-adv-x="0" 
d="M-311 -226q-119 0 -186 103l69 61q62 -62 120 -62t117 62l66 -61q-72 -103 -186 -103z" />
    <glyph glyph-name="uni0331" unicode="&#x331;" horiz-adv-x="0" 
d="M-464 -218v105h305v-105h-305z" />
    <glyph glyph-name="uni0374" unicode="&#x374;" horiz-adv-x="238" 
d="M35 511q30 59 30 124v120h134v-76q0 -95 -54 -168h-110z" />
    <glyph glyph-name="uni0375" unicode="&#x375;" horiz-adv-x="267" 
d="M66 -122q30 59 30 124v120h134v-76q0 -93 -54 -168h-110z" />
    <glyph glyph-name="uni037E" unicode="&#x37e;" horiz-adv-x="692" 
d="M421 411h-151v135h151v-135zM420 49q0 -101 -59 -179h-119q31 60 31 133v130h147v-84z" />
    <glyph glyph-name="tonos" unicode="&#x384;" horiz-adv-x="490" 
d="M347 626l72 158h128l-94 -158h-106z" />
    <glyph glyph-name="dieresistonos" unicode="&#x385;" horiz-adv-x="540" 
d="M196 623l42 157h126l-75 -157h-93zM46 625v111h115v-111h-115zM373 625v111h115v-111h-115z" />
    <glyph glyph-name="Alphatonos" unicode="&#x386;" horiz-adv-x="687" 
d="M-15 0l279 707h177l245 -707h-143l-77 229h-255l-87 -229h-139zM249 330h183l-85 290zM-25 547l66 160h128l-89 -160h-105z" />
    <glyph glyph-name="anoteleia" unicode="&#x387;" horiz-adv-x="251" 
d="M54 300v136h151v-136h-151z" />
    <glyph glyph-name="Epsilontonos" unicode="&#x388;" horiz-adv-x="598" 
d="M-150 547l66 160h128l-89 -160h-105zM92 0v707h438v-108h-302v-193h280v-102h-280v-196h325v-108h-461z" />
    <glyph glyph-name="Etatonos" unicode="&#x389;" horiz-adv-x="790" 
d="M92 0v707h136v-299h334v299h136v-707h-136v302h-334v-302h-136zM-150 547l66 160h128l-89 -160h-105z" />
    <glyph glyph-name="Iotatonos" unicode="&#x38a;" horiz-adv-x="320" 
d="M92 0v707h136v-707h-136zM-149 547l66 160h128l-89 -160h-105z" />
    <glyph glyph-name="Omicrontonos" unicode="&#x38c;" horiz-adv-x="830" 
d="M-115 547l66 160h128l-89 -160h-105zM407 -12q-175 0 -268 98t-93 269q0 167 102 265t276 98q178 0 269.5 -100.5t91.5 -264.5q0 -169 -99 -267t-279 -98zM410 97q120 0 178 70.5t58 186.5q0 115 -58.5 185t-170.5 70q-116 0 -174.5 -69.5t-58.5 -183.5q0 -113 57 -186
t169 -73z" />
    <glyph glyph-name="Upsilontonos" unicode="&#x38e;" horiz-adv-x="669" 
d="M264 0v243l-250 464h157l166 -348l177 348h152l-266 -461v-246h-136zM-205 547l66 160h128l-89 -160h-105z" />
    <glyph glyph-name="Omegatonos" unicode="&#x38f;" horiz-adv-x="857" 
d="M-104 547l66 160h128l-89 -160h-105zM54 0v115h148q-140 80 -140 261q0 155 100.5 248.5t272.5 93.5q175 0 267 -95.5t92 -241.5q0 -182 -142 -266h149v-115h-297v109q74 57 112 118t38 144q0 103 -58.5 169.5t-169.5 66.5q-108 0 -166.5 -65.5t-58.5 -171.5
q0 -62 23 -113t50 -79.5t76 -68.5v-109h-296z" />
    <glyph glyph-name="iotadieresistonos" unicode="&#x390;" horiz-adv-x="297" 
d="M71 623l42 157h126l-75 -157h-93zM-79 625v111h115v-111h-115zM248 625v111h115v-111h-115zM189 -11q-120 0 -120 137v420h134v-397q0 -48 49 -50q13 0 21 1l7 -100q-35 -11 -91 -11z" />
    <glyph glyph-name="Alpha" unicode="&#x391;" horiz-adv-x="687" 
d="M-15 0l279 707h177l245 -707h-143l-77 229h-255l-87 -229h-139zM249 330h183l-85 290z" />
    <glyph glyph-name="Beta" unicode="&#x392;" horiz-adv-x="662" 
d="M92 0v707h227q250 0 250 -188q0 -47 -24 -84t-60 -53v-2q51 -13 93 -56.5t42 -111.5q0 -212 -271 -212h-257zM229 108h107q74 0 110.5 22.5t36.5 77.5q0 56 -39 80t-121 24h-94v-204zM229 409h84q61 0 90.5 23t29.5 73q0 53 -34 75t-104 22h-66v-193z" />
    <glyph glyph-name="Gamma" unicode="&#x393;" horiz-adv-x="540" 
d="M92 0v707h450v-108h-314v-599h-136z" />
    <glyph glyph-name="uni0394" unicode="&#x394;" horiz-adv-x="712" 
d="M170 114h360l-127 362l-43 143l-50 -145zM-16 0l292 707h178l260 -707h-730z" />
    <glyph glyph-name="Epsilon" unicode="&#x395;" horiz-adv-x="598" 
d="M92 0v707h438v-108h-302v-193h280v-102h-280v-196h325v-108h-461z" />
    <glyph glyph-name="Zeta" unicode="&#x396;" horiz-adv-x="597" 
d="M34 0v98l344 495h-318v114h483v-91l-348 -502h369v-114h-530z" />
    <glyph glyph-name="Eta" unicode="&#x397;" horiz-adv-x="790" 
d="M92 0v707h136v-299h334v299h136v-707h-136v302h-334v-302h-136z" />
    <glyph glyph-name="Theta" unicode="&#x398;" horiz-adv-x="830" 
d="M271 296l-22 77q49 36 107 36q30 0 67.5 -7.5t51.5 -7.5q49 0 83 14l21 -77q-44 -33 -109 -33q-28 0 -66.5 8t-52.5 8q-45 0 -80 -18zM407 -12q-175 0 -268 98t-93 269q0 167 102 265t276 98q178 0 269.5 -100.5t91.5 -264.5q0 -169 -99 -267t-279 -98zM410 97
q120 0 178 70.5t58 186.5q0 115 -58.5 185t-170.5 70q-116 0 -174.5 -69.5t-58.5 -183.5q0 -113 57 -186t169 -73z" />
    <glyph glyph-name="Iota" unicode="&#x399;" horiz-adv-x="320" 
d="M92 0v707h136v-707h-136z" />
    <glyph glyph-name="Kappa" unicode="&#x39a;" horiz-adv-x="682" 
d="M92 0v707h136v-323l267 323h174l-289 -329l306 -378h-175l-283 374v-374h-136z" />
    <glyph glyph-name="Lambda" unicode="&#x39b;" horiz-adv-x="667" 
d="M-10 0l262 707h178l231 -707h-142l-146 474l-37 135l-43 -135l-168 -474h-135z" />
    <glyph glyph-name="Mu" unicode="&#x39c;" horiz-adv-x="974" 
d="M92 0v707h170l215 -594l243 594h162v-707h-137v343l6 145h-4l-193 -488h-163l-167 489h-4l8 -140v-349h-136z" />
    <glyph glyph-name="Nu" unicode="&#x39d;" horiz-adv-x="792" 
d="M92 0v707h162l312 -534h2l-4 83v451h137v-707h-168l-305 523h-4l4 -86v-437h-136z" />
    <glyph glyph-name="Xi" unicode="&#x39e;" horiz-adv-x="617" 
d="M51 0v115h515v-115h-515zM84 300v111h449v-111h-449zM62 592v115h493v-115h-493z" />
    <glyph glyph-name="Omicron" unicode="&#x39f;" horiz-adv-x="830" 
d="M407 -12q-175 0 -268 98t-93 269q0 167 102 265t276 98q178 0 269.5 -100.5t91.5 -264.5q0 -169 -99 -267t-279 -98zM410 97q120 0 178 70.5t58 186.5q0 115 -58.5 185t-170.5 70q-116 0 -174.5 -69.5t-58.5 -183.5q0 -113 57 -186t169 -73z" />
    <glyph glyph-name="Pi" unicode="&#x3a0;" horiz-adv-x="776" 
d="M92 0v707h592v-707h-136v597h-320v-597h-136z" />
    <glyph glyph-name="Rho" unicode="&#x3a1;" horiz-adv-x="629" 
d="M92 0v707h258q116 0 186 -63.5t70 -176.5q0 -106 -80.5 -176t-227.5 -70h-69v-221h-137zM229 599v-271h75q79 0 119.5 35.5t40.5 99.5q0 136 -136 136h-99z" />
    <glyph glyph-name="Sigma" unicode="&#x3a3;" horiz-adv-x="609" 
d="M46 0v98l198 259l-192 237v113h508v-108h-358l188 -234l-191 -251h367v-114h-520z" />
    <glyph glyph-name="Tau" unicode="&#x3a4;" horiz-adv-x="598" 
d="M231 0v598h-229v109h595v-109h-229v-598h-137z" />
    <glyph glyph-name="Upsilon" unicode="&#x3a5;" horiz-adv-x="669" 
d="M264 0v243l-250 464h157l166 -348l177 348h152l-266 -461v-246h-136z" />
    <glyph glyph-name="Phi" unicode="&#x3a6;" horiz-adv-x="825" 
d="M345 0v85q-141 0 -228.5 73.5t-87.5 214.5t87.5 214.5t228.5 73.5v76h134v-76q141 0 228.5 -73.5t87.5 -214.5t-87.5 -214.5t-228.5 -73.5v-85h-134zM479 186q84 0 132 49t48 138q0 91 -48 139t-132 48v-374zM345 186v374q-84 0 -132 -48t-48 -139q0 -89 48 -138t132 -49
z" />
    <glyph glyph-name="Chi" unicode="&#x3a7;" horiz-adv-x="647" 
d="M-2 0l252 367l-218 340h156l141 -236l151 236h152l-231 -338l237 -369h-158l-159 265l-169 -265h-154z" />
    <glyph glyph-name="Psi" unicode="&#x3a8;" horiz-adv-x="781" 
d="M325 0v149q-45 4 -82 12.5t-75 28t-63.5 48t-42 74.5t-16.5 106v289h139v-291q0 -73 37.5 -106.5t102.5 -45.5v443h137v-442q65 14 102.5 52.5t37.5 120.5v269h134v-265q0 -264 -274 -293v-149h-137z" />
    <glyph glyph-name="uni03A9" unicode="&#x3a9;" horiz-adv-x="857" 
d="M54 0v115h148q-140 80 -140 261q0 155 100.5 248.5t272.5 93.5q175 0 267 -95.5t92 -241.5q0 -182 -142 -266h149v-115h-297v109q74 57 112 118t38 144q0 103 -58.5 169.5t-169.5 66.5q-108 0 -166.5 -65.5t-58.5 -171.5q0 -62 23 -113t50 -79.5t76 -68.5v-109h-296z" />
    <glyph glyph-name="Iotadieresis" unicode="&#x3aa;" horiz-adv-x="320" 
d="M92 0v707h136v-707h-136zM104 764h-127v127h127v-127zM346 764h-126v127h126v-127z" />
    <glyph glyph-name="Upsilondieresis" unicode="&#x3ab;" horiz-adv-x="669" 
d="M264 0v243l-250 464h157l166 -348l177 348h152l-266 -461v-246h-136zM278 764h-127v127h127v-127zM520 764h-126v127h126v-127z" />
    <glyph glyph-name="alphatonos" unicode="&#x3ac;" horiz-adv-x="635" 
d="M263 626l72 158h128l-94 -158h-106zM253 -8q-26 0 -50 4.5t-54.5 20.5t-53 42.5t-38 76t-15.5 115.5q0 143 65 225t172 82q41 0 78.5 -16.5t52.5 -43.5v48h134v-413q0 -19 12 -27t38 -9l-6 -102q-35 0 -48 2q-59 5 -90 29.5t-33 81.5q-20 -48 -64.5 -82t-99.5 -34z
M274 104q50 0 91 45.5t45 113.5v90q-13 40 -47 69t-71 29q-117 0 -117 -193q0 -75 26 -114.5t73 -39.5z" />
    <glyph glyph-name="epsilontonos" unicode="&#x3ad;" horiz-adv-x="530" 
d="M215 626l72 158h128l-94 -158h-106zM284 -12q-122 0 -184.5 41.5t-62.5 118.5q0 50 29.5 89.5t87.5 56.5q-92 27 -92 119q0 61 62 104t175 43q118 0 198 -40l-35 -98q-80 32 -170 32q-48 0 -73.5 -16.5t-25.5 -44.5q0 -30 21 -45t50 -15h125v-98h-136q-31 0 -55 -14.5
t-24 -52.5q0 -32 33.5 -51t92.5 -19q88 0 166 35l40 -96q-106 -49 -222 -49z" />
    <glyph glyph-name="etatonos" unicode="&#x3ae;" horiz-adv-x="653" 
d="M298 626l72 158h128l-94 -158h-106zM453 -220v551q0 64 -17.5 88.5t-70.5 24.5q-62 0 -141 -44v-400h-133v422q0 19 -12 25.5t-37 8.5l6 102h52q107 -5 121 -72q94 74 186 74q48 0 82.5 -12t52.5 -30t28 -48.5t12.5 -57t2.5 -66.5v-566h-132z" />
    <glyph glyph-name="iotatonos" unicode="&#x3af;" horiz-adv-x="297" 
d="M70 626l72 158h128l-94 -158h-106zM189 -11q-120 0 -120 137v420h134v-397q0 -48 49 -50q13 0 21 1l7 -100q-35 -11 -91 -11z" />
    <glyph glyph-name="upsilondieresistonos" unicode="&#x3b0;" horiz-adv-x="622" 
d="M235 623l42 157h126l-75 -157h-93zM85 625v111h115v-111h-115zM412 625v111h115v-111h-115zM313 -11q-107 0 -169.5 55.5t-62.5 161.5v187q-1 24 -14.5 37.5t-36.5 15.5l13 109q96 -1 133 -41t37 -122l-1 -176q0 -60 29 -90t78 -30q58 0 91 52t33 150q0 119 -59 248h140
q50 -114 50 -249q0 -129 -72 -218.5t-189 -89.5z" />
    <glyph glyph-name="alpha" unicode="&#x3b1;" horiz-adv-x="635" 
d="M253 -8q-26 0 -50 4.5t-54.5 20.5t-53 42.5t-38 76t-15.5 115.5q0 143 65 225t172 82q41 0 78.5 -16.5t52.5 -43.5v48h134v-413q0 -19 12 -27t38 -9l-6 -102q-35 0 -48 2q-59 5 -90 29.5t-33 81.5q-20 -48 -64.5 -82t-99.5 -34zM274 104q50 0 91 45.5t45 113.5v90
q-13 40 -47 69t-71 29q-117 0 -117 -193q0 -75 26 -114.5t73 -39.5z" />
    <glyph glyph-name="beta" unicode="&#x3b2;" horiz-adv-x="630" 
d="M73 -220v738q0 112 68.5 181t181.5 69q104 0 167 -56.5t63 -139.5q0 -51 -31.5 -100t-82.5 -70q77 -19 115.5 -60t38.5 -117q0 -118 -72.5 -178t-189.5 -60q-64 0 -126 20v-227h-132zM329 97q63 0 95.5 28.5t32.5 94.5q0 116 -160 122v92q52 4 90 40.5t38 81.5t-31 74.5
t-76 29.5q-54 0 -83.5 -36.5t-29.5 -99.5v-406q67 -21 124 -21z" />
    <glyph glyph-name="gamma" unicode="&#x3b3;" horiz-adv-x="554" 
d="M191 -220q-10 78 -10 146q0 32 4 94q-19 96 -60.5 212t-66 170.5t-66.5 143.5h149q28 -56 66.5 -167t66.5 -227q43 89 61.5 130.5t43.5 122t26 141.5h140q-2 -64 -30 -145t-60 -141.5t-78 -143t-63 -118.5q11 -70 11 -149q0 -25 -2 -69h-132z" />
    <glyph glyph-name="delta" unicode="&#x3b4;" 
d="M299 -12q-121 0 -192 65t-71 192q0 81 45.5 142.5t117.5 92.5q-94 49 -94 141q0 69 64 108t150 39q102 0 208 -32l-24 -100q-81 23 -177 23q-90 0 -90 -50q0 -13 7.5 -24t26 -22t34.5 -19t48 -22.5t51 -23.5q71 -36 119 -99.5t48 -149.5q0 -68 -22 -120t-61 -82
t-86 -44.5t-102 -14.5zM306 96q66 0 98 43t32 113q0 37 -12 65t-37 48t-44 31t-52 26q-7 3 -11 5q-110 -53 -110 -174q0 -157 136 -157z" />
    <glyph glyph-name="epsilon" unicode="&#x3b5;" horiz-adv-x="530" 
d="M284 -12q-122 0 -184.5 41.5t-62.5 118.5q0 50 29.5 89.5t87.5 56.5q-92 27 -92 119q0 61 62 104t175 43q118 0 198 -40l-35 -98q-80 32 -170 32q-48 0 -73.5 -16.5t-25.5 -44.5q0 -30 21 -45t50 -15h125v-98h-136q-31 0 -55 -14.5t-24 -52.5q0 -32 33.5 -51t92.5 -19
q88 0 166 35l40 -96q-106 -49 -222 -49z" />
    <glyph glyph-name="zeta" unicode="&#x3b6;" horiz-adv-x="473" 
d="M399 -206l-74 46q50 62 50 84q0 14 -8 24.5t-28 17.5t-35.5 11t-49 10.5t-50.5 10.5q-166 37 -166 191q0 129 81 251t205 206h-242v108h415v-100q-130 -83 -226.5 -204.5t-96.5 -242.5q0 -56 27.5 -79t76.5 -32q11 -2 46 -9t50 -10.5t42 -14.5t39 -23t22.5 -34t10.5 -50
q0 -72 -89 -161z" />
    <glyph glyph-name="eta" unicode="&#x3b7;" horiz-adv-x="653" 
d="M453 -220v551q0 64 -17.5 88.5t-70.5 24.5q-62 0 -141 -44v-400h-133v422q0 19 -12 25.5t-37 8.5l6 102h52q107 -5 121 -72q94 74 186 74q48 0 82.5 -12t52.5 -30t28 -48.5t12.5 -57t2.5 -66.5v-566h-132z" />
    <glyph glyph-name="theta" unicode="&#x3b8;" horiz-adv-x="611" 
d="M305 -12q-74 0 -124.5 28t-77.5 82t-38.5 120t-11.5 155q0 191 60 293.5t199 102.5q62 0 107 -20.5t72 -54t42.5 -86.5t21 -107t5.5 -125q0 -89 -12.5 -157t-41 -121.5t-79 -81.5t-122.5 -28zM185 435h245q-1 45 -3.5 76t-10.5 62t-21 49.5t-35 29.5t-52 11
q-71 0 -95.5 -56.5t-27.5 -171.5zM310 97q71 0 95 59t25 185h-245q0 -129 25 -186.5t100 -57.5z" />
    <glyph glyph-name="iota" unicode="&#x3b9;" horiz-adv-x="297" 
d="M189 -11q-120 0 -120 137v420h134v-397q0 -48 49 -50q13 0 21 1l7 -100q-35 -11 -91 -11z" />
    <glyph glyph-name="kappa" unicode="&#x3ba;" horiz-adv-x="561" 
d="M73 0v546h133v-260l191 260h144l-207 -252l231 -294h-157l-202 278v-278h-133z" />
    <glyph glyph-name="lambda" unicode="&#x3bb;" horiz-adv-x="558" 
d="M538 -14q-83 4 -118 30t-54 95l-64 223l-26 91l-27 -92l-103 -333h-146l196 543h48l-9 31q-11 41 -32 63.5t-67 22.5q-52 0 -100 -19l-27 101q67 26 140 26q92 0 136.5 -39.5t71.5 -130.5l128 -442q10 -35 27 -49t39 -19z" />
    <glyph glyph-name="uni03BC" unicode="&#x3bc;" horiz-adv-x="650" 
d="M73 -220v766h132v-340q0 -55 18 -78.5t68 -23.5q55 0 137 44v398h134v-414q0 -21 14 -28.5t44 -6.5l-4 -102q-30 -2 -48 -2q-116 0 -133 72q-97 -79 -187 -79q-31 0 -43 10v-216h-132z" />
    <glyph glyph-name="nu" unicode="&#x3bd;" horiz-adv-x="547" 
d="M179 0l-175 546h143l114 -421q122 208 122 345q0 30 -8 76h140q7 -39 7 -70q0 -84 -49.5 -197.5t-155.5 -278.5h-138z" />
    <glyph glyph-name="xi" unicode="&#x3be;" horiz-adv-x="495" 
d="M394 -205l-74 45q15 17 32.5 45t17.5 42q0 39 -95 58q-53 12 -89 24.5t-74.5 35.5t-58.5 61t-20 89q0 76 58.5 134t146.5 77q-63 15 -110 57.5t-47 102.5q0 93 73 148t202 55q60 0 131 -16l-17 -106q-67 13 -120 13q-139 0 -139 -102q0 -33 17 -55t50.5 -33t67.5 -15.5
t83 -6.5v-99q-53 -4 -93.5 -11.5t-81.5 -22.5t-63.5 -42.5t-22.5 -66.5q0 -49 34 -72t100 -40q7 -2 36.5 -9t38.5 -10t31.5 -11.5t31 -16.5t21 -21t17 -30.5t4.5 -39.5q0 -76 -88 -161z" />
    <glyph glyph-name="omicron" unicode="&#x3bf;" horiz-adv-x="598" 
d="M294 -12q-120 0 -187.5 74.5t-67.5 205.5q0 136 73 214t190 78q127 0 191.5 -75t64.5 -212q0 -136 -74 -210.5t-190 -74.5zM301 95q121 0 121 178q0 181 -123 181q-125 0 -125 -182q0 -177 127 -177z" />
    <glyph glyph-name="pi" unicode="&#x3c0;" horiz-adv-x="669" 
d="M540 -11q-120 0 -120 137v314h-189v-440h-133v440h-64v106h585v-106h-66v-291q0 -48 49 -50q14 0 22 1l7 -100q-35 -11 -91 -11z" />
    <glyph glyph-name="rho" unicode="&#x3c1;" horiz-adv-x="606" 
d="M58 -220v491q0 142 66.5 215t190.5 73q132 0 191 -75t59 -216q0 -138 -73.5 -208.5t-198.5 -70.5q-57 0 -102 15v-224h-133zM191 275v-164q56 -15 109 -15q74 0 101.5 43.5t27.5 128.5q0 39 -4.5 68.5t-16 58t-36.5 43.5t-62 15q-36 0 -60.5 -14t-36.5 -40.5t-17 -55.5
t-5 -68z" />
    <glyph glyph-name="uni03C2" unicode="&#x3c2;" horiz-adv-x="516" 
d="M384 -205l-75 45q49 60 49 87q0 40 -96 62q-38 8 -64 17t-58.5 29.5t-52 49.5t-33.5 78t-14 114q0 126 75.5 204.5t207.5 78.5q97 0 164 -35l-36 -99q-57 24 -125 24t-108.5 -44t-40.5 -130q0 -41 7 -72t17 -48.5t28.5 -30.5t31.5 -18t37 -12q12 -4 40.5 -11.5t42 -12
t34.5 -15t31 -22.5t18 -32.5t8 -46.5q0 -72 -88 -160z" />
    <glyph glyph-name="sigma" unicode="&#x3c3;" horiz-adv-x="643" 
d="M301 -11q-126 0 -194 72.5t-68 201.5q0 130 75.5 211.5t206.5 81.5q118 0 310 -8v-111l-108 3q43 -59 43 -167q0 -128 -75.5 -206t-189.5 -78zM308 96q122 0 122 177q0 122 -58 171l-41 1q-77 1 -117 -43t-40 -131q0 -83 30.5 -129t103.5 -46z" />
    <glyph glyph-name="tau" unicode="&#x3c4;" horiz-adv-x="477" 
d="M302 -12q-148 0 -148 164v288h-145v106h448v-106h-169v-271q0 -68 61 -68q32 0 66 10l18 -95q-49 -28 -131 -28z" />
    <glyph glyph-name="upsilon" unicode="&#x3c5;" horiz-adv-x="622" 
d="M313 -11q-107 0 -169.5 55.5t-62.5 161.5v187q-1 24 -14.5 37.5t-36.5 15.5l13 109q96 -1 133 -41t37 -122l-1 -176q0 -60 29 -90t78 -30q58 0 91 52t33 150q0 119 -59 248h140q50 -114 50 -249q0 -129 -72 -218.5t-189 -89.5z" />
    <glyph glyph-name="phi" unicode="&#x3c6;" horiz-adv-x="773" 
d="M319 -220v209q-279 19 -279 278q0 131 72 205t207 88v119h133v-117q281 -19 281 -289q0 -262 -281 -284v-209h-133zM319 94v360q-81 -13 -112.5 -59.5t-31.5 -121.5q0 -76 32 -121t112 -58zM452 93q83 11 114 56t31 125q0 75 -31 121.5t-114 58.5v-361z" />
    <glyph glyph-name="chi" unicode="&#x3c7;" horiz-adv-x="526" 
d="M519 -224q-51 0 -83 15t-50 38.5t-43 73.5l-80 168l-116 -291h-157l211 405l-105 208q-28 55 -88 63l25 104q57 -1 90.5 -17t49.5 -38.5t41 -74.5l63 -128l87 244h161l-184 -368l117 -233q17 -35 34.5 -49t42.5 -16z" />
    <glyph glyph-name="psi" unicode="&#x3c8;" horiz-adv-x="796" 
d="M339 -220v212q-130 11 -195 77t-65 182v143q0 25 -13.5 39.5t-37.5 16.5l13 109q94 -5 132 -44.5t38 -119.5v-135q-1 -129 128 -152v571h133v-570q148 25 148 196q0 128 -52 241h140q43 -93 43 -235q0 -122 -74 -209t-205 -107v-215h-133z" />
    <glyph glyph-name="omega" unicode="&#x3c9;" horiz-adv-x="853" 
d="M256 -11q-99 0 -156.5 70t-57.5 178q0 91 27 164t109 145h148q-70 -59 -110 -134.5t-40 -158.5q0 -23 4 -46t14 -48t30.5 -40.5t49.5 -15.5q37 0 61.5 32.5t24.5 88.5v136h132v-134q0 -58 24.5 -90.5t61.5 -32.5q29 0 49.5 15.5t30.5 40.5t14 48t4 46q0 82 -41 159
t-111 134h155q132 -117 132 -304q0 -103 -62 -178t-165 -75q-51 0 -100 30t-60 80q-20 -54 -68 -82t-100 -28z" />
    <glyph glyph-name="iotadieresis" unicode="&#x3ca;" horiz-adv-x="297" 
d="M68 653h-127v128h127v-128zM317 653h-126v128h126v-128zM189 -11q-120 0 -120 137v420h134v-397q0 -48 49 -50q13 0 21 1l7 -100q-35 -11 -91 -11z" />
    <glyph glyph-name="upsilondieresis" unicode="&#x3cb;" horiz-adv-x="622" 
d="M231 653h-127v128h127v-128zM480 653h-126v128h126v-128zM313 -11q-107 0 -169.5 55.5t-62.5 161.5v187q-1 24 -14.5 37.5t-36.5 15.5l13 109q96 -1 133 -41t37 -122l-1 -176q0 -60 29 -90t78 -30q58 0 91 52t33 150q0 119 -59 248h140q50 -114 50 -249
q0 -129 -72 -218.5t-189 -89.5z" />
    <glyph glyph-name="omicrontonos" unicode="&#x3cc;" horiz-adv-x="598" 
d="M242 626l72 158h128l-94 -158h-106zM294 -12q-120 0 -187.5 74.5t-67.5 205.5q0 136 73 214t190 78q127 0 191.5 -75t64.5 -212q0 -136 -74 -210.5t-190 -74.5zM301 95q121 0 121 178q0 181 -123 181q-125 0 -125 -182q0 -177 127 -177z" />
    <glyph glyph-name="upsilontonos" unicode="&#x3cd;" horiz-adv-x="622" 
d="M231 626l72 158h128l-94 -158h-106zM313 -11q-107 0 -169.5 55.5t-62.5 161.5v187q-1 24 -14.5 37.5t-36.5 15.5l13 109q96 -1 133 -41t37 -122l-1 -176q0 -60 29 -90t78 -30q58 0 91 52t33 150q0 119 -59 248h140q50 -114 50 -249q0 -129 -72 -218.5t-189 -89.5z" />
    <glyph glyph-name="omegatonos" unicode="&#x3ce;" horiz-adv-x="853" 
d="M363 626l72 158h128l-94 -158h-106zM256 -11q-99 0 -156.5 70t-57.5 178q0 91 27 164t109 145h148q-70 -59 -110 -134.5t-40 -158.5q0 -23 4 -46t14 -48t30.5 -40.5t49.5 -15.5q37 0 61.5 32.5t24.5 88.5v136h132v-134q0 -58 24.5 -90.5t61.5 -32.5q29 0 49.5 15.5
t30.5 40.5t14 48t4 46q0 82 -41 159t-111 134h155q132 -117 132 -304q0 -103 -62 -178t-165 -75q-51 0 -100 30t-60 80q-20 -54 -68 -82t-100 -28z" />
    <glyph glyph-name="uni03D0" unicode="&#x3d0;" horiz-adv-x="625" 
d="M320 -12q-61 0 -106.5 16t-82.5 53t-56 103.5t-19 162.5v105q0 147 76 243.5t199 96.5q105 0 158.5 -47t53.5 -117q0 -56 -25.5 -92.5t-79.5 -69.5q72 -16 111 -71.5t39 -142.5q0 -106 -77 -173t-191 -67zM320 96q60 0 95.5 34.5t35.5 103.5q0 68 -33 106t-92 38
t-136 -36v-24q0 -120 31.5 -171t98.5 -51zM190 423q18 7 51.5 20t48.5 20q119 53 119 110q0 40 -26 64t-67 24q-58 0 -92 -52t-34 -153v-33z" />
    <glyph glyph-name="uni03D8" unicode="&#x3d8;" horiz-adv-x="738" 
d="M308 -166v159q-264 54 -264 361q0 97 26 169.5t72 115.5t103 64t125 21q146 0 235.5 -91.5t89.5 -273.5q0 -297 -263 -362v-163h-124zM371 102q89 0 142 64.5t53 188.5q0 121 -48 192t-149 71q-100 0 -148.5 -70.5t-48.5 -189.5q0 -126 52 -191t147 -65z" />
    <glyph glyph-name="uni03D9" unicode="&#x3d9;" horiz-adv-x="595" 
d="M237 -209v240q-95 15 -148 82.5t-53 174.5q0 127 72.5 199t190.5 72q126 0 192.5 -70t66.5 -196q0 -106 -53 -172.5t-142 -85.5v-244h-126zM298 127q133 0 133 165q0 167 -135 167q-71 0 -102.5 -46.5t-31.5 -120.5q0 -165 136 -165z" />
    <glyph glyph-name="uni03DA" unicode="&#x3da;" horiz-adv-x="569" 
d="M543 658l-44 -102q-80 45 -168 45q-164 0 -164 -183q0 -63 18 -106t47 -64t64 -33.5t70 -21.5t64 -21t47 -39t18 -70q0 -53 -27 -95.5t-73 -69t-96.5 -41.5t-106.5 -21l-25 89q99 21 151 48t52 68q0 21 -18.5 33.5t-47.5 20t-64.5 16.5t-71 29t-64.5 50t-47.5 86
t-18.5 132q0 146 77 226t205 80t223 -56z" />
    <glyph glyph-name="uni03DB" unicode="&#x3db;" horiz-adv-x="515" 
d="M494 513l-43 -101q-69 35 -144 35q-140 0 -140 -174q0 -72 27.5 -108t87.5 -44q78 -10 119 -40.5t41 -95.5q0 -76 -73 -123t-194 -48v102q76 1 110 17t34 39q0 16 -15 23.5t-52 12.5q-98 8 -155 66.5t-57 192.5q0 140 68.5 215.5t187.5 75.5q111 0 198 -45z" />
    <glyph glyph-name="uni03DC" unicode="&#x3dc;" horiz-adv-x="591" 
d="M556 599h-328v-211h306v-102h-306v-286h-136v707h464v-108z" />
    <glyph glyph-name="uni03DD" unicode="&#x3dd;" horiz-adv-x="445" 
d="M451 750l-25 -104q-45 9 -95 9q-43 0 -64 -19.5t-21 -63.5v-198h117v-101h-117v-493h-134v493h-80v101h80v204q0 58 17.5 98t50 59.5t67.5 27t80 7.5q64 0 124 -20z" />
    <glyph glyph-name="uni03DE" unicode="&#x3de;" horiz-adv-x="546" 
d="M358 -108l-144 -33l151 385h-362l205 476l146 17l-158 -377h355z" />
    <glyph glyph-name="uni03DF" unicode="&#x3df;" horiz-adv-x="543" 
d="M342 -84l-145 -32l154 370h-358l211 457l147 16l-164 -357h350z" />
    <glyph glyph-name="uni03E0" unicode="&#x3e0;" horiz-adv-x="753" 
d="M517 -73l-65 81q129 98 140 227q0 13 -1 17l-380 -247l-49 80l413 270q-20 48 -47 79q-222 -150 -440 -290l-51 81l401 260q-48 26 -114 26q-90 0 -190 -57l-46 84q112 79 257 79q155 0 256 -103.5t101 -247.5q0 -108 -56 -197t-129 -142z" />
    <glyph glyph-name="uni03E1" unicode="&#x3e1;" horiz-adv-x="719" 
d="M487 -77l-64 79q129 98 140 225v17l-377 -246l-50 81l409 268q-18 45 -45 78l-437 -288l-52 81l397 258q-51 24 -110 24q-88 0 -189 -56l-46 81q115 81 256 81q153 0 253 -102t100 -246q0 -109 -56.5 -196t-128.5 -139z" />
    <glyph glyph-name="uni0400" unicode="&#x400;" 
d="M405 745l-256 55l25 107l252 -72zM92 0v707h438v-108h-302v-193h280v-102h-280v-196h325v-108h-461z" />
    <glyph glyph-name="uni0401" unicode="&#x401;" 
d="M253 764h-127v127h127v-127zM495 764h-126v127h126v-127zM92 0v707h438v-108h-302v-193h280v-102h-280v-196h325v-108h-461z" />
    <glyph glyph-name="uni0402" unicode="&#x402;" horiz-adv-x="789" 
d="M509 -220l-69 90q63 52 98 99q80 109 80 237q0 65 -32.5 100.5t-92.5 35.5q-76 0 -146 -36v-306h-137v598h-199v109h590v-109h-254v-186q96 36 176 36q118 0 176 -63t58 -171q0 -246 -248 -434z" />
    <glyph glyph-name="uni0403" unicode="&#x403;" horiz-adv-x="564" 
d="M234 745l-21 90l251 73l25 -106zM92 0v707h464v-108h-328v-599h-136z" />
    <glyph glyph-name="uni0404" unicode="&#x404;" horiz-adv-x="678" 
d="M429 -10q-185 0 -283.5 94.5t-98.5 264.5q0 178 96.5 272.5t281.5 94.5q125 0 214 -39l-36 -102q-38 11 -52.5 14.5t-49 8t-74.5 4.5q-95 1 -159.5 -48t-77.5 -147h344v-102h-342q15 -99 83 -149.5t172 -50.5q90 0 165 22l30 -105q-89 -32 -213 -32z" />
    <glyph glyph-name="uni0405" unicode="&#x405;" horiz-adv-x="569" 
d="M256 -12q-125 0 -221 54l40 104q102 -44 181 -44q63 0 101.5 24t38.5 69q0 38 -35 64t-85.5 45t-100.5 42t-85 68t-35 111q0 90 70.5 141.5t167.5 51.5q119 0 203 -49l-40 -101q-80 36 -159 36q-48 0 -78 -21.5t-30 -58.5q0 -27 25.5 -50t64 -38t83 -36t83 -44t64 -63
t25.5 -92q0 -104 -80.5 -158.5t-197.5 -54.5z" />
    <glyph glyph-name="uni0406" unicode="&#x406;" horiz-adv-x="320" 
d="M92 0v707h136v-707h-136z" />
    <glyph glyph-name="uni0407" unicode="&#x407;" horiz-adv-x="320" 
d="M92 0v707h136v-707h-136zM103 764h-127v127h127v-127zM345 764h-126v127h126v-127z" />
    <glyph glyph-name="uni0408" unicode="&#x408;" horiz-adv-x="322" 
d="M1 -194l-52 99q87 48 116 99.5t29 146.5v556h138v-554q0 -50 -4 -86t-17.5 -77t-38 -72t-67.5 -60.5t-104 -51.5z" />
    <glyph glyph-name="uni0409" unicode="&#x409;" horiz-adv-x="1032" 
d="M56 -22l-57 119q111 48 139 105q45 89 62 505h430v-241h70q148 0 227 -61t79 -173q0 -107 -75.5 -169.5t-214.5 -62.5h-224v606h-177q-14 -214 -29.5 -320t-48.5 -166q-46 -85 -181 -142zM704 359h-74v-251h84q151 0 151 125q0 126 -161 126z" />
    <glyph glyph-name="uni040A" unicode="&#x40a;" horiz-adv-x="1065" 
d="M92 0v707h136v-279h304v279h137v-279h70q147 0 225.5 -55.5t78.5 -159.5q0 -98 -78.5 -155.5t-216.5 -57.5h-216v322h-304v-322h-136zM743 322h-74v-214h80q76 0 114 28.5t38 78.5q0 107 -158 107z" />
    <glyph glyph-name="uni040B" unicode="&#x40b;" horiz-adv-x="799" 
d="M210 0v598h-199v109h590v-109h-254v-186q94 37 174 37q236 0 236 -197v-252h-137v230q0 66 -35.5 89t-96.5 23q-66 0 -141 -40v-302h-137z" />
    <glyph glyph-name="uni040C" unicode="&#x40c;" horiz-adv-x="687" 
d="M92 0v707h136v-323l267 323h174l-289 -329l306 -378h-175l-283 374v-374h-136zM268 749l-21 90l251 73l25 -106z" />
    <glyph glyph-name="uni040D" unicode="&#x40d;" horiz-adv-x="796" 
d="M487 745l-256 55l25 107l252 -72zM92 0v707h136v-420l-3 -99l64 103l279 416h136v-707h-136v420l3 99l-56 -89l-287 -430h-136z" />
    <glyph glyph-name="uni040E" unicode="&#x40e;" horiz-adv-x="621" 
d="M179 -9l-39 110q60 20 88.5 38t47.5 60l13 26h-44l-250 482h153l186 -381l141 381h153l-225 -504q-22 -49 -44.5 -84t-39 -54.5t-44 -34.5t-43 -21t-53.5 -18zM319 753q-58 0 -109 26.5t-81 73.5l60 63q56 -61 130 -61t130 61l60 -63q-30 -47 -81 -73.5t-109 -26.5z" />
    <glyph glyph-name="uni040F" unicode="&#x40f;" horiz-adv-x="777" 
d="M322 -153v153h-230v707h136v-601h320v601h137v-707h-227v-153h-136z" />
    <glyph glyph-name="uni0410" unicode="&#x410;" horiz-adv-x="700" 
d="M-9 0l279 707h177l245 -707h-143l-77 229h-255l-87 -229h-139zM255 330h183l-85 290z" />
    <glyph glyph-name="uni0411" unicode="&#x411;" horiz-adv-x="653" 
d="M92 0v707h467v-108h-330v-154h77q310 0 310 -224q0 -106 -76 -163.5t-219 -57.5h-229zM309 338h-80v-230h89q156 0 156 115t-165 115z" />
    <glyph glyph-name="uni0412" unicode="&#x412;" horiz-adv-x="664" 
d="M92 0v707h227q250 0 250 -188q0 -47 -24 -84t-60 -53v-2q51 -13 93 -56.5t42 -111.5q0 -212 -271 -212h-257zM229 108h107q74 0 110.5 22.5t36.5 77.5q0 56 -39 80t-121 24h-94v-204zM229 409h84q61 0 90.5 23t29.5 73q0 53 -34 75t-104 22h-66v-193z" />
    <glyph glyph-name="uni0413" unicode="&#x413;" horiz-adv-x="564" 
d="M92 0v707h464v-108h-328v-599h-136z" />
    <glyph glyph-name="uni0414" unicode="&#x414;" horiz-adv-x="770" 
d="M11 -153v260h67q50 88 75 170q38 127 55 430h430v-600h99v-260h-129v153h-467v-153h-130zM227 106h275v500h-174q-19 -234 -46 -347q-20 -71 -55 -153z" />
    <glyph glyph-name="uni0415" unicode="&#x415;" 
d="M92 0v707h438v-108h-302v-193h280v-102h-280v-196h325v-108h-461z" />
    <glyph glyph-name="uni0416" unicode="&#x416;" horiz-adv-x="987" 
d="M425 0v361l-248 -361h-172l271 373l-249 334h167l231 -330v330h137v-331l231 331h167l-248 -334l270 -373h-172l-248 358v-358h-137z" />
    <glyph glyph-name="uni0417" unicode="&#x417;" horiz-adv-x="578" 
d="M262 -8q-138 0 -237 55l45 103q96 -47 181 -47q64 0 102 25.5t38 78.5q0 100 -149 100h-88v101h88q57 0 89.5 26.5t32.5 72.5q0 94 -115 94q-59 0 -150 -34l-44 93q98 51 207 51q115 0 177.5 -50t62.5 -127q0 -116 -101 -169v-2q19 -5 39 -16t42 -29.5t35.5 -50
t13.5 -70.5q0 -38 -13.5 -72.5t-43 -65.5t-84 -49t-128.5 -18z" />
    <glyph glyph-name="uni0418" unicode="&#x418;" horiz-adv-x="796" 
d="M92 0v707h136v-420l-3 -99l64 103l279 416h136v-707h-136v420l3 99l-56 -89l-287 -430h-136z" />
    <glyph glyph-name="uni0419" unicode="&#x419;" horiz-adv-x="796" 
d="M401 753q-58 0 -109 26.5t-81 73.5l60 63q56 -61 130 -61t130 61l60 -63q-30 -47 -81 -73.5t-109 -26.5zM92 0v707h136v-420l-3 -99l64 103l279 416h136v-707h-136v420l3 99l-56 -89l-287 -430h-136z" />
    <glyph glyph-name="uni041A" unicode="&#x41a;" horiz-adv-x="687" 
d="M92 0v707h136v-323l267 323h174l-289 -329l306 -378h-175l-283 374v-374h-136z" />
    <glyph glyph-name="uni041B" unicode="&#x41b;" horiz-adv-x="721" 
d="M56 -22l-57 119q111 48 139 105q45 89 62 505h429v-707h-137v606h-177q-26 -294 -40 -367q-14 -75 -38 -119q-46 -85 -181 -142z" />
    <glyph glyph-name="uni041C" unicode="&#x41c;" horiz-adv-x="974" 
d="M92 0v707h170l215 -594l243 594h162v-707h-137v343l6 145h-4l-193 -488h-163l-167 489h-4l8 -140v-349h-136z" />
    <glyph glyph-name="uni041D" unicode="&#x41d;" horiz-adv-x="790" 
d="M92 0v707h136v-299h334v299h136v-707h-136v302h-334v-302h-136z" />
    <glyph glyph-name="uni041E" unicode="&#x41e;" horiz-adv-x="831" 
d="M407 -12q-175 0 -268 98t-93 269q0 167 102 265t276 98q178 0 269.5 -100.5t91.5 -264.5q0 -169 -99 -267t-279 -98zM410 97q120 0 178 70.5t58 186.5q0 115 -58.5 185t-170.5 70q-116 0 -174.5 -69.5t-58.5 -183.5q0 -113 57 -186t169 -73z" />
    <glyph glyph-name="uni041F" unicode="&#x41f;" horiz-adv-x="780" 
d="M92 0v707h596v-707h-136v601h-324v-601h-136z" />
    <glyph glyph-name="uni0420" unicode="&#x420;" horiz-adv-x="632" 
d="M92 0v707h258q116 0 186 -63.5t70 -176.5q0 -106 -80.5 -176t-227.5 -70h-69v-221h-137zM229 599v-271h75q79 0 119.5 35.5t40.5 99.5q0 136 -136 136h-99z" />
    <glyph glyph-name="uni0421" unicode="&#x421;" horiz-adv-x="678" 
d="M430 -12q-185 0 -284 95.5t-99 265.5t101 269.5t278 99.5q120 0 214 -43l-38 -101q-38 11 -56.5 16t-49 9t-68.5 4q-108 1 -174.5 -60.5t-66.5 -183.5q0 -125 71 -189.5t189 -64.5q87 0 165 23l30 -105q-95 -35 -212 -35z" />
    <glyph glyph-name="uni0422" unicode="&#x422;" horiz-adv-x="615" 
d="M239 0v598h-229v109h595v-109h-229v-598h-137z" />
    <glyph glyph-name="uni0423" unicode="&#x423;" horiz-adv-x="621" 
d="M179 -9l-39 110q60 20 88.5 38t47.5 60l13 26h-44l-250 482h153l186 -381l141 381h153l-225 -504q-22 -49 -44.5 -84t-39 -54.5t-44 -34.5t-43 -21t-53.5 -18z" />
    <glyph glyph-name="uni0424" unicode="&#x424;" horiz-adv-x="829" 
d="M347 0v85q-141 0 -228.5 73.5t-87.5 214.5t87.5 214.5t228.5 73.5v76h134v-76q141 0 228.5 -73.5t87.5 -214.5t-87.5 -214.5t-228.5 -73.5v-85h-134zM481 186q84 0 132 49t48 138q0 91 -48 139t-132 48v-374zM347 186v374q-84 0 -132 -48t-48 -139q0 -89 48 -138t132 -49
z" />
    <glyph glyph-name="uni0425" unicode="&#x425;" horiz-adv-x="656" 
d="M2 0l252 367l-218 340h156l141 -236l151 236h152l-231 -338l237 -369h-158l-159 265l-169 -265h-154z" />
    <glyph glyph-name="uni0426" unicode="&#x426;" horiz-adv-x="813" 
d="M651 -153v153h-559v707h136v-601h317v601h137v-600h99v-260h-130z" />
    <glyph glyph-name="uni0427" unicode="&#x427;" horiz-adv-x="682" 
d="M453 0v298q-92 -36 -178 -36q-235 0 -235 196v249h137v-227q0 -65 36 -88.5t97 -23.5q69 0 143 41v298h137v-707h-137z" />
    <glyph glyph-name="uni0428" unicode="&#x428;" horiz-adv-x="1035" 
d="M92 0v707h136v-601h221v601h137v-601h220v601h137v-707h-851z" />
    <glyph glyph-name="uni0429" unicode="&#x429;" horiz-adv-x="1074" 
d="M912 -153v153h-820v707h136v-601h221v601h137v-601h220v601h137v-600h99v-260h-130z" />
    <glyph glyph-name="uni042A" unicode="&#x42a;" horiz-adv-x="751" 
d="M211 0v601h-200v106h338v-241h71q148 0 227 -61t79 -173q0 -107 -76 -169.5t-215 -62.5h-224zM424 359h-75v-251h84q151 0 151 125q0 126 -160 126z" />
    <glyph glyph-name="uni042B" unicode="&#x42b;" horiz-adv-x="918" 
d="M92 0v707h138v-241h70q149 0 228 -59.5t79 -171.5q0 -108 -76 -171.5t-215 -63.5h-224zM689 0v707h136v-707h-136zM304 359h-74v-251h84q77 0 114 35t37 94q0 122 -161 122z" />
    <glyph glyph-name="uni042C" unicode="&#x42c;" horiz-adv-x="632" 
d="M92 0v707h138v-241h70q149 0 228 -59.5t79 -171.5q0 -108 -76 -171.5t-215 -63.5h-224zM304 359h-74v-251h84q77 0 114 35t37 94q0 122 -161 122z" />
    <glyph glyph-name="uni042D" unicode="&#x42d;" horiz-adv-x="678" 
d="M249 -10q-124 0 -212 32l30 105q75 -22 164 -22q104 0 172.5 50.5t82.5 149.5h-341v102h343q-13 98 -77 146.5t-160 47.5q-88 -1 -175 -26l-37 102q87 38 214 38q186 0 282 -92.5t96 -270.5q0 -170 -98.5 -266t-283.5 -96z" />
    <glyph glyph-name="uni042E" unicode="&#x42e;" horiz-adv-x="1126" 
d="M701 -12q-160 0 -252 83.5t-106 230.5h-115v-302h-136v707h136v-299h116q15 148 115 229t261 81q179 0 269 -98.5t90 -266.5q0 -173 -98.5 -269t-279.5 -96zM704 97q121 0 178.5 70.5t57.5 186.5q0 115 -58.5 185t-170.5 70q-116 0 -174.5 -69.5t-58.5 -183.5
q0 -113 57 -186t169 -73z" />
    <glyph glyph-name="uni042F" unicode="&#x42f;" horiz-adv-x="692" 
d="M184 0h-155l182 292q-60 22 -92.5 70.5t-32.5 112.5q0 110 70.5 171t185.5 61h258v-707h-138v258h-68q-42 0 -56 2zM388 357h74v242h-91q-144 0 -144 -121t161 -121z" />
    <glyph glyph-name="uni0430" unicode="&#x430;" horiz-adv-x="578" 
d="M205 -9q-78 0 -125 41.5t-47 117.5q0 166 225 168l108 1v47q0 46 -25.5 63t-83.5 17q-76 0 -158 -25l-27 98q100 40 209 40q110 0 162.5 -38.5t52.5 -124.5v-265q0 -32 53 -34l-5 -101q-10 -1 -26 -1q-124 0 -140 62q-85 -66 -173 -66zM243 95q55 0 123 35v108l-101 -4
q-48 -1 -75 -20t-27 -54q0 -32 22 -48.5t58 -16.5z" />
    <glyph glyph-name="uni0431" unicode="&#x431;" horiz-adv-x="627" 
d="M308 -10q-119 0 -185.5 76.5t-66.5 232.5q0 107 22 209.5t70 143.5q75 66 383 120l21 -119q-97 -15 -147 -24t-102.5 -22.5t-68.5 -27.5q-37 -31 -47 -123q83 45 183 45q215 0 215 -228q0 -141 -75.5 -212t-201.5 -71zM318 96q71 0 102.5 49.5t31.5 121.5
q0 61 -29.5 96.5t-93.5 35.5q-67 0 -145 -39q-1 -16 -1 -59q0 -205 135 -205z" />
    <glyph glyph-name="uni0432" unicode="&#x432;" horiz-adv-x="571" 
d="M74 0v546h243q89 0 138 -37.5t49 -107.5q0 -41 -21 -70.5t-51 -41.5q39 -7 69.5 -40t30.5 -87q0 -75 -57.5 -118.5t-153.5 -43.5h-247zM207 95h85q103 0 103 70q0 39 -28.5 54.5t-84.5 16.5h-75v-141zM207 320h68q101 0 101 67q0 64 -98 64h-71v-131z" />
    <glyph glyph-name="uni0433" unicode="&#x433;" horiz-adv-x="468" 
d="M74 0v546h382v-102h-249v-444h-133z" />
    <glyph glyph-name="uni0434" unicode="&#x434;" horiz-adv-x="663" 
d="M16 -147v248h60q48 81 66 170q16 82 27 275h381v-445h88v-248h-123v147h-376v-147h-123zM213 101h204v344h-134q-13 -153 -25 -212q-12 -66 -45 -132z" />
    <glyph glyph-name="uni0435" unicode="&#x435;" horiz-adv-x="571" 
d="M321 -12q-136 0 -207.5 62t-71.5 215q0 154 70.5 224t187.5 70q122 0 177 -70t55 -205v-48h-356q-1 -80 43 -110t120 -30q67 0 157 23l21 -101q-87 -30 -196 -30zM179 325h216q1 64 -24.5 101t-75.5 37q-49 0 -80.5 -36t-35.5 -102z" />
    <glyph glyph-name="uni0436" unicode="&#x436;" horiz-adv-x="813" 
d="M150 0h-144l214 286l-190 260h146l164 -255v255h134v-254l165 254h145l-190 -260l213 -286h-150l-183 262v-262h-134v262z" />
    <glyph glyph-name="uni0437" unicode="&#x437;" horiz-adv-x="484" 
d="M224 -10q-110 0 -200 45l37 101q77 -41 153 -41q38 0 63.5 17.5t25.5 51.5q0 65 -97 65h-76v99h72q43 0 64 19.5t21 46.5q0 26 -21 42.5t-59 16.5q-55 0 -133 -30l-31 95q85 41 187 41q91 0 140.5 -41.5t49.5 -100.5q0 -91 -81 -129q43 -11 74.5 -44.5t31.5 -91.5
q0 -65 -55.5 -113.5t-165.5 -48.5z" />
    <glyph glyph-name="uni0438" unicode="&#x438;" horiz-adv-x="663" 
d="M74 0v546h133v-289l-3 -80l52 80l200 289h133v-546h-133v287l2 80l-51 -80l-200 -287h-133z" />
    <glyph glyph-name="uni0439" unicode="&#x439;" horiz-adv-x="663" 
d="M331 626q-51 0 -96.5 26t-71.5 72l52 61q51 -59 116 -59q66 0 117 59l52 -61q-26 -46 -71.5 -72t-97.5 -26zM74 0v546h133v-289l-3 -80l52 80l200 289h133v-546h-133v287l2 80l-51 -80l-200 -287h-133z" />
    <glyph glyph-name="uni043A" unicode="&#x43a;" horiz-adv-x="575" 
d="M75 0v546h133v-260l191 260h144l-207 -252l231 -294h-157l-202 278v-278h-133z" />
    <glyph glyph-name="uni043B" unicode="&#x43b;" horiz-adv-x="616" 
d="M42 -16l-36 108q79 28 107 77q41 73 51 377h379v-546h-134v445h-132q-22 -272 -71 -357q-49 -77 -164 -104z" />
    <glyph glyph-name="uni043C" unicode="&#x43c;" horiz-adv-x="781" 
d="M74 0v546h168l143 -435l159 435h163v-546h-125v240l4 127l-129 -367h-148l-117 369l7 -129v-240h-125z" />
    <glyph glyph-name="uni043D" unicode="&#x43d;" horiz-adv-x="643" 
d="M74 0v546h133v-221h229v221h133v-546h-133v223h-229v-223h-133z" />
    <glyph glyph-name="uni043E" unicode="&#x43e;" horiz-adv-x="619" 
d="M304 -12q-126 0 -195 74.5t-69 205.5q0 137 74.5 214.5t199.5 77.5q132 0 198.5 -74.5t66.5 -211.5q0 -138 -75.5 -212t-199.5 -74zM311 95q74 0 103 47t29 130q0 182 -133 182q-135 0 -135 -182q0 -177 136 -177z" />
    <glyph glyph-name="uni043F" unicode="&#x43f;" horiz-adv-x="633" 
d="M74 0v546h485v-546h-133v445h-219v-445h-133z" />
    <glyph glyph-name="uni0440" unicode="&#x440;" horiz-adv-x="621" 
d="M74 -220v766h132v-41q76 54 154 54q100 0 160 -66t60 -200q0 -82 -23.5 -142.5t-65 -94.5t-92 -50t-109.5 -16q-29 0 -84 5v-215h-132zM288 93q78 0 117.5 53t39.5 142q0 159 -129 159q-42 0 -110 -29v-317q80 -8 82 -8z" />
    <glyph glyph-name="uni0441" unicode="&#x441;" horiz-adv-x="518" 
d="M335 -12q-156 0 -225 67t-69 205q0 147 75 223.5t211 76.5q94 0 160 -36l-35 -99q-65 25 -118 25q-77 0 -117 -43t-40 -143q0 -86 37.5 -126.5t136.5 -40.5q36 0 113 15l19 -103q-88 -21 -148 -21z" />
    <glyph glyph-name="uni0442" unicode="&#x442;" horiz-adv-x="513" 
d="M190 0v444h-176v102h486v-102h-177v-444h-133z" />
    <glyph glyph-name="uni0443" unicode="&#x443;" horiz-adv-x="564" 
d="M166 -220l75 220h-52l-183 546h144l103 -349l26 -92l29 91l118 350h135l-267 -766h-128z" />
    <glyph glyph-name="uni0444" unicode="&#x444;" horiz-adv-x="785" 
d="M327 -220v209q-136 0 -211.5 72.5t-75.5 208.5q0 138 78.5 213t208.5 76v195h130v-195q139 0 213 -73t74 -212q0 -137 -79.5 -210t-207.5 -75v-209h-130zM457 96q151 0 151 178q0 176 -151 179v-357zM327 94v359q-152 0 -152 -180q0 -179 152 -179z" />
    <glyph glyph-name="uni0445" unicode="&#x445;" horiz-adv-x="555" 
d="M5 0l197 279l-184 267h154l106 -183l107 183h151l-183 -266l199 -280h-160l-114 195l-116 -195h-157z" />
    <glyph glyph-name="uni0446" unicode="&#x446;" horiz-adv-x="666" 
d="M518 -147v147h-444v546h133v-445h214v445h133v-445h87v-248h-123z" />
    <glyph glyph-name="uni0447" unicode="&#x447;" horiz-adv-x="579" 
d="M372 0v220q-75 -28 -150 -28q-102 0 -144.5 44t-42.5 143v167h132v-157q0 -51 20.5 -72t71.5 -21q56 0 113 24v226h133v-546h-133z" />
    <glyph glyph-name="uni0448" unicode="&#x448;" horiz-adv-x="877" 
d="M74 0v546h133v-445h165v445h133v-445h165v445h133v-546h-729z" />
    <glyph glyph-name="uni0449" unicode="&#x449;" horiz-adv-x="915" 
d="M767 -147v147h-693v546h133v-445h165v445h133v-445h165v445h133v-445h87v-248h-123z" />
    <glyph glyph-name="uni044A" unicode="&#x44a;" horiz-adv-x="658" 
d="M180 0v445h-166v101h300v-171h75q114 0 179.5 -49.5t65.5 -140.5q0 -79 -56.5 -132t-142.5 -53h-255zM380 274h-66v-172h84q47 0 73.5 22t26.5 63q0 87 -118 87z" />
    <glyph glyph-name="uni044B" unicode="&#x44b;" horiz-adv-x="791" 
d="M74 0v546h133v-171h75q113 0 176 -49t63 -141q0 -79 -53.5 -132t-139.5 -53h-254zM583 0v546h134v-546h-134zM274 274h-67v-172h85q93 0 93 85q0 87 -111 87z" />
    <glyph glyph-name="uni044C" unicode="&#x44c;" horiz-adv-x="552" 
d="M74 0v546h133v-171h75q114 0 180 -49.5t66 -140.5q0 -79 -56.5 -132t-143.5 -53h-254zM274 274h-67v-172h85q47 0 73.5 22t26.5 63q0 87 -118 87z" />
    <glyph glyph-name="uni044D" unicode="&#x44d;" horiz-adv-x="517" 
d="M204 -10q-94 0 -176 39l36 100q79 -33 139 -33q125 0 137 131h-207v101h206q-8 59 -42 92t-91 33t-131 -28l-39 96q74 39 170 39q269 0 269 -282q0 -137 -72.5 -212.5t-198.5 -75.5z" />
    <glyph glyph-name="uni044E" unicode="&#x44e;" horiz-adv-x="888" 
d="M574 -11q-115 0 -183 61t-79 173h-105v-223h-133v546h133v-221h106q16 111 87.5 172.5t181.5 61.5q134 0 200 -74t66 -212q0 -137 -75.5 -210.5t-198.5 -73.5zM581 96q73 0 102 47t29 130q0 180 -133 180q-135 0 -135 -181q0 -176 137 -176z" />
    <glyph glyph-name="uni044F" unicode="&#x44f;" horiz-adv-x="581" 
d="M171 0h-155q4 4 75.5 101t74.5 102q-43 19 -69.5 59t-26.5 94q0 89 62 139.5t157 50.5h218v-546h-133v172h-47q-36 0 -39 1zM313 271h61v174h-73q-44 0 -69 -23.5t-25 -65.5q0 -41 30.5 -63t75.5 -22z" />
    <glyph glyph-name="uni0450" unicode="&#x450;" horiz-adv-x="571" 
d="M321 -12q-136 0 -207.5 62t-71.5 215q0 154 70.5 224t187.5 70q122 0 177 -70t55 -205v-48h-356q-1 -80 43 -110t120 -30q67 0 157 23l21 -101q-87 -30 -196 -30zM179 325h216q1 64 -24.5 101t-75.5 37q-49 0 -80.5 -36t-35.5 -102zM343 608l-224 111l46 95l220 -125z
" />
    <glyph glyph-name="uni0451" unicode="&#x451;" horiz-adv-x="571" 
d="M223 653h-127v128h127v-128zM472 653h-126v128h126v-128zM321 -12q-136 0 -207.5 62t-71.5 215q0 154 70.5 224t187.5 70q122 0 177 -70t55 -205v-48h-356q-1 -80 43 -110t120 -30q67 0 157 23l21 -101q-87 -30 -196 -30zM179 325h216q1 64 -24.5 101t-75.5 37
q-49 0 -80.5 -36t-35.5 -102z" />
    <glyph glyph-name="uni0452" unicode="&#x452;" horiz-adv-x="640" 
d="M386 -220l-89 82q153 155 153 366q0 146 -112 146q-17 0 -33 -2.5t-32.5 -9t-24.5 -9.5t-24 -12l-17 -9v-332h-133v560h-102v96h102v98h133v-98h183v-96h-183v-141q98 73 183 73q53 0 92.5 -21.5t61.5 -58.5t32 -79.5t10 -92.5q0 -139 -54.5 -257t-145.5 -203z" />
    <glyph glyph-name="uni0453" unicode="&#x453;" horiz-adv-x="468" 
d="M167 608l-40 80l219 124l47 -94zM74 0v546h382v-102h-249v-444h-133z" />
    <glyph glyph-name="uni0454" unicode="&#x454;" horiz-adv-x="518" 
d="M344 -10q-162 0 -232.5 67t-70.5 219q0 130 76 207t206 77q99 0 164 -35l-35 -99q-62 24 -125 24q-55 0 -93.5 -30t-50.5 -90h204v-101h-207q8 -69 46.5 -99.5t126.5 -30.5q20 0 38.5 2t39.5 5.5t33 4.5l19 -103q-79 -18 -139 -18z" />
    <glyph glyph-name="uni0455" unicode="&#x455;" horiz-adv-x="482" 
d="M209 -12q-97 0 -171 23l16 104q103 -18 158 -18q108 0 108 53q0 20 -20.5 35.5t-51 24.5t-66 23.5t-66 32t-51 50.5t-20.5 77q0 81 61.5 124t154.5 43q87 0 163 -29l-24 -99q-70 21 -135 21q-88 0 -88 -49q0 -21 20 -36.5t50.5 -25.5t66 -25t66 -32.5t50.5 -51t20 -77.5
q0 -47 -22 -81.5t-59 -52.5t-77 -26t-83 -8z" />
    <glyph glyph-name="uni0456" unicode="&#x456;" horiz-adv-x="281" 
d="M74 0v546h134v-546h-134zM74 653v128h133v-128h-133z" />
    <glyph glyph-name="uni0457" unicode="&#x457;" horiz-adv-x="281" 
d="M75 653h-127v128h127v-128zM324 653h-126v128h126v-128zM74 0v546h134v-546h-134z" />
    <glyph glyph-name="uni0458" unicode="&#x458;" horiz-adv-x="281" 
d="M0 -225q-56 0 -106 22l24 105q37 -13 78 -13q43 0 60.5 25t17.5 81v551h133v-552q0 -65 -16 -109.5t-46.5 -67.5t-65 -32.5t-79.5 -9.5zM73 653v128h133v-128h-133z" />
    <glyph glyph-name="uni0459" unicode="&#x459;" horiz-adv-x="887" 
d="M40 -17l-36 108q83 31 109 78q41 73 51 377h378v-171h75q114 0 180 -49.5t66 -140.5q0 -79 -56.5 -132t-143.5 -53h-255v445h-132q-26 -276 -71 -355q-46 -78 -165 -107zM609 274h-67v-172h85q47 0 73.5 22t26.5 63q0 87 -118 87z" />
    <glyph glyph-name="uni045A" unicode="&#x45a;" horiz-adv-x="891" 
d="M74 0v546h134v-203h218v203h134v-203h73q110 0 173.5 -44.5t63.5 -128.5q0 -73 -54.5 -121.5t-138.5 -48.5h-251v242h-218v-242h-134zM621 242h-61v-140h77q43 0 67 18t24 51q0 71 -107 71z" />
    <glyph glyph-name="uni045B" unicode="&#x45b;" horiz-adv-x="632" 
d="M74 0v560h-102v96h102v98h133v-98h183v-96h-183v-141q98 73 183 73q48 0 82 -12.5t52.5 -30t28.5 -48.5t12 -57t2 -66v-278h-131v267q0 63 -17.5 85.5t-71.5 22.5t-140 -43v-332h-133z" />
    <glyph glyph-name="uni045C" unicode="&#x45c;" horiz-adv-x="575" 
d="M215 608l-40 80l219 124l47 -94zM75 0v546h133v-260l191 260h144l-207 -252l231 -294h-157l-202 278v-278h-133z" />
    <glyph glyph-name="uni045D" unicode="&#x45d;" horiz-adv-x="663" 
d="M74 0v546h133v-289l-3 -80l52 80l200 289h133v-546h-133v287l2 80l-51 -80l-200 -287h-133zM397 608l-224 111l46 95l220 -125z" />
    <glyph glyph-name="uni045E" unicode="&#x45e;" horiz-adv-x="564" 
d="M166 -220l75 220h-52l-183 546h144l103 -349l26 -92l29 91l118 350h135l-267 -766h-128zM281 629q-51 0 -96.5 26t-71.5 72l52 61q51 -59 116 -59q66 0 117 59l52 -61q-26 -46 -71.5 -72t-97.5 -26z" />
    <glyph glyph-name="uni045F" unicode="&#x45f;" horiz-adv-x="634" 
d="M255 -147v147h-181v546h133v-445h220v445h133v-546h-181v-147h-124z" />
    <glyph glyph-name="uni0462" unicode="&#x462;" horiz-adv-x="715" 
d="M176 0v511h-174v106h174v90h138v-90h206v-105h-206v-93h77q151 0 225 -51t74 -160q0 -103 -74 -155.5t-216 -52.5h-224zM388 312h-74v-204h83q81 0 116.5 23.5t35.5 78.5q0 58 -38 80t-123 22z" />
    <glyph glyph-name="uni0463" unicode="&#x463;" horiz-adv-x="632" 
d="M155 0v445h-156v101h156v160h133v-160h180v-101h-180v-91h75q116 0 181 -44.5t65 -134.5q0 -78 -56 -126.5t-144 -48.5h-254zM354 253h-66v-151h85q100 0 100 75q0 76 -119 76z" />
    <glyph glyph-name="uni0472" unicode="&#x472;" horiz-adv-x="831" 
d="M407 -12q-175 0 -268 98t-93 269q0 167 102 265t276 98q178 0 269.5 -100.5t91.5 -264.5q0 -169 -99 -267t-279 -98zM410 97q109 0 166.5 58.5t67.5 157.5h-458q10 -97 66.5 -156.5t157.5 -59.5zM417 609q-105 0 -163.5 -57.5t-67.5 -154.5h458q-11 97 -68.5 154.5
t-158.5 57.5z" />
    <glyph glyph-name="uni0473" unicode="&#x473;" horiz-adv-x="619" 
d="M304 -12q-126 0 -195 74.5t-69 205.5q0 137 74.5 214.5t199.5 77.5q132 0 198.5 -74.5t66.5 -211.5q0 -138 -75.5 -212t-199.5 -74zM311 95q118 0 130 138h-264q14 -138 134 -138zM310 454q-116 0 -133 -138h264q-15 138 -131 138z" />
    <glyph glyph-name="uni0474" unicode="&#x474;" horiz-adv-x="729" 
d="M247 0l-247 707h146l193 -604l160 431q53 147 143 202l97 -77q-76 -51 -121 -168l-192 -491h-179z" />
    <glyph glyph-name="uni0475" unicode="&#x475;" 
d="M194 0l-190 546h144l100 -326l31 -112l34 113l52 151q50 144 140 200l96 -78q-76 -51 -121 -172l-121 -322h-165z" />
    <glyph glyph-name="uni048A" unicode="&#x48a;" horiz-adv-x="834" 
d="M92 0v707h136v-420l-3 -99l64 103l279 416h136v-601h126l-56 -270h-127l33 164h-112v420l3 99l-56 -89l-287 -430h-136zM411 753q-58 0 -109 26.5t-81 73.5l60 63q56 -61 130 -61t130 61l60 -63q-30 -47 -81 -73.5t-109 -26.5z" />
    <glyph glyph-name="uni048B" unicode="&#x48b;" horiz-adv-x="699" 
d="M74 0v546h133v-289l-3 -80l52 80l200 289h133v-440h104l-56 -270h-127l34 164h-88v287l2 80l-51 -80l-200 -287h-133zM331 627q-51 0 -96.5 26t-71.5 72l52 61q51 -59 116 -59q66 0 117 59l52 -61q-26 -46 -71.5 -72t-97.5 -26z" />
    <glyph glyph-name="uni048C" unicode="&#x48c;" horiz-adv-x="661" 
d="M36 546v87h83v74h138v-74h114v-87h-114v-80h70q149 0 228 -59.5t79 -171.5q0 -108 -76 -171.5t-215 -63.5h-224v546h-83zM331 359h-74v-251h84q77 0 114 35t37 94q0 122 -161 122z" />
    <glyph glyph-name="uni048D" unicode="&#x48d;" horiz-adv-x="575" 
d="M96 0v422h-63v69h63v55h133v-55h126v-69h-126v-47h75q114 0 180 -49.5t66 -140.5q0 -79 -56.5 -132t-143.5 -53h-254zM296 274h-67v-172h85q47 0 73.5 22t26.5 63q0 87 -118 87z" />
    <glyph glyph-name="uni048E" unicode="&#x48e;" horiz-adv-x="639" 
d="M92 0v707h258q116 0 186 -63.5t70 -176.5t-86 -181l46 -52l-59 -54l-59 66q-66 -25 -150 -25h-69v-221h-137zM330 378l63 54l45 -53q26 34 26 84q0 136 -136 136h-99v-271h75q37 0 64 7z" />
    <glyph glyph-name="uni048F" unicode="&#x48f;" horiz-adv-x="622" 
d="M74 -220v766h132v-41q76 54 154 54q100 0 160 -66t60 -200q0 -157 -90 -237l42 -47l-59 -55l-53 59q-58 -23 -130 -23q-29 0 -84 5v-215h-132zM305 142l63 55l40 -47q37 52 37 138q0 159 -129 159q-42 0 -110 -29v-317q80 -8 82 -8q27 0 53 8z" />
    <glyph glyph-name="uni0490" unicode="&#x490;" horiz-adv-x="561" 
d="M92 0v707h331v161h130l-1 -269h-324v-599h-136z" />
    <glyph glyph-name="uni0491" unicode="&#x491;" horiz-adv-x="468" 
d="M74 0v546h258v114h123l1 -216h-250v-444h-132z" />
    <glyph glyph-name="uni0492" unicode="&#x492;" horiz-adv-x="598" 
d="M43 297v97h79v313h464v-108h-328v-205h172v-97h-172v-297h-136v297h-79z" />
    <glyph glyph-name="uni0493" unicode="&#x493;" horiz-adv-x="496" 
d="M34 214v94h64v238h382v-102h-249v-136h137v-94h-137v-214h-133v214h-64z" />
    <glyph glyph-name="uni0494" unicode="&#x494;" horiz-adv-x="671" 
d="M391 -220l-69 90q18 13 36 27.5t45.5 44.5t47.5 62.5t34.5 80t14.5 97.5q0 65 -32.5 100.5t-93.5 35.5q-74 0 -146 -36v-282h-136v707h427v-109h-291v-210q98 36 177 36q117 0 175 -63t58 -171q0 -126 -62 -221t-185 -189z" />
    <glyph glyph-name="uni0495" unicode="&#x495;" horiz-adv-x="587" 
d="M74 0v546h408v-102h-275v-139q76 47 150 47q71 0 116.5 -37t62.5 -90t17 -120q0 -107 -52 -192t-146 -144l-68 83q71 53 100.5 110t29.5 131q0 141 -112 141q-50 0 -98 -25v-209h-133z" />
    <glyph glyph-name="uni0496" unicode="&#x496;" horiz-adv-x="1027" 
d="M5 0l271 373l-249 334h167l231 -330v330h137v-331l231 331h167l-248 -334l193 -267h118v-259h-130v153h-83l-248 358v-358h-137v361l-248 -361h-172z" />
    <glyph glyph-name="uni0497" unicode="&#x497;" horiz-adv-x="862" 
d="M858 -153h-130v149q-41 7 -72 26.5t-69 71.5l-114 153v-247h-133v250l-190 -250h-144l214 286l-190 260h146l164 -244v244h133v-238l165 238h146l-190 -260l94 -119q32 -41 59.5 -51.5t87.5 -10.5h23v-258z" />
    <glyph glyph-name="uni0498" unicode="&#x498;" horiz-adv-x="578" 
d="M262 -8q-138 0 -237 55l45 103q96 -47 181 -47q64 0 102 25.5t38 78.5q0 100 -149 100h-88v101h88q57 0 89.5 26.5t32.5 72.5q0 94 -115 94q-59 0 -150 -34l-44 93q98 51 207 51q115 0 177.5 -50t62.5 -127q0 -116 -101 -169v-2q19 -5 39 -16t42 -29.5t35.5 -50
t13.5 -70.5q0 -38 -13.5 -72.5t-43 -65.5t-84 -49t-128.5 -18zM222 -267l-46 79q50 31 62 48q8 12 8 25q0 20 -16 64h109q21 -44 21 -76q0 -81 -138 -140z" />
    <glyph glyph-name="uni0499" unicode="&#x499;" horiz-adv-x="484" 
d="M224 -10q-110 0 -200 45l37 101q77 -41 153 -41q38 0 63.5 17.5t25.5 51.5q0 65 -97 65h-76v99h72q43 0 64 19.5t21 46.5q0 26 -21 42.5t-59 16.5q-55 0 -133 -30l-31 95q85 41 187 41q91 0 140.5 -41.5t49.5 -100.5q0 -91 -81 -129q43 -11 74.5 -44.5t31.5 -91.5
q0 -65 -55.5 -113.5t-165.5 -48.5zM176 -267l-46 79q50 31 62 48q8 12 8 25q0 20 -16 64h109q21 -44 21 -76q0 -81 -138 -140z" />
    <glyph glyph-name="uni049A" unicode="&#x49a;" horiz-adv-x="725" 
d="M92 0v707h136v-323l267 323h174l-289 -329l220 -272h122v-259h-130v153h-81l-283 374v-374h-136z" />
    <glyph glyph-name="uni049B" unicode="&#x49b;" horiz-adv-x="602" 
d="M594 -153h-130v156q-72 21 -128 91l-129 161v-255h-133v546h133v-247l186 247h149l-211 -256l92 -105q40 -45 71.5 -63t81.5 -18h18v-257z" />
    <glyph glyph-name="uni049C" unicode="&#x49c;" horiz-adv-x="758" 
d="M256 270v197h67v-197h-67zM573 0l-242 376v7l233 324h174l-254 -329l264 -378h-175zM92 0v707h136v-707h-136z" />
    <glyph glyph-name="uni049D" unicode="&#x49d;" horiz-adv-x="622" 
d="M452 0l-145 277l160 269h133l-164 -260l167 -286h-151zM74 0v546h133v-546h-133zM234 182v195h67v-195h-67z" />
    <glyph glyph-name="uni049E" unicode="&#x49e;" horiz-adv-x="704" 
d="M109 0v552h-76v73h76v82h136v-82h96v-73h-96v-168l267 323h174l-289 -329l306 -378h-175l-283 374v-374h-136z" />
    <glyph glyph-name="uni049F" unicode="&#x49f;" horiz-adv-x="590" 
d="M90 0v418h-54v69h54v59h133v-59h61v-69h-61v-132l191 260h144l-207 -252l231 -294h-157l-202 278v-278h-133z" />
    <glyph glyph-name="uni04A0" unicode="&#x4a0;" horiz-adv-x="770" 
d="M175 0v599h-181v108h317v-323l267 323h174l-289 -329l306 -378h-175l-283 374v-374h-136z" />
    <glyph glyph-name="uni04A1" unicode="&#x4a1;" horiz-adv-x="671" 
d="M170 445h-176v101h309v-251l191 251h144l-207 -252l231 -294h-157l-202 268v-268h-133v445z" />
    <glyph glyph-name="uni04A2" unicode="&#x4a2;" horiz-adv-x="823" 
d="M92 0v707h136v-299h334v299h136v-601h101v-259h-130v153h-107v302h-334v-302h-136z" />
    <glyph glyph-name="uni04A3" unicode="&#x4a3;" horiz-adv-x="695" 
d="M74 0v546h133v-221h229v221h133v-440h115v-259h-130v153h-118v223h-229v-223h-133z" />
    <glyph glyph-name="uni04A4" unicode="&#x4a4;" horiz-adv-x="870" 
d="M92 0v707h136v-299h334v299h312v-109h-176v-598h-136v302h-334v-302h-136z" />
    <glyph glyph-name="uni04A5" unicode="&#x4a5;" horiz-adv-x="796" 
d="M435 0v223h-228v-223h-133v546h133v-221h228v221h382v-102h-248v-444h-134z" />
    <glyph glyph-name="uni04A6" unicode="&#x4a6;" horiz-adv-x="1127" 
d="M850 -220l-69 90q178 123 178 315q0 65 -32.5 100.5t-93.5 35.5q-75 0 -145 -36v-285h-137v601h-323v-601h-136v707h596v-316q96 36 176 36q117 0 175 -63t58 -171q0 -126 -62.5 -223t-184.5 -190z" />
    <glyph glyph-name="uni04A7" unicode="&#x4a7;" horiz-adv-x="934" 
d="M74 0v546h485v-225q78 52 144 52q56 0 96.5 -21.5t63 -59.5t32.5 -80.5t10 -92.5q0 -108 -53 -200t-145 -150l-68 83q130 96 130 255q0 70 -27.5 109t-78.5 39q-58 0 -104 -26v-229h-133v445h-219v-445h-133z" />
    <glyph glyph-name="uni04A8" unicode="&#x4a8;" horiz-adv-x="805" 
d="M671 -166q-90 0 -159 41t-112 113q-172 2 -263 100t-91 267q0 166 103 264.5t278 98.5q120 0 214 -43l-37 -101q-91 30 -179 30q-120 0 -180.5 -67.5t-60.5 -180.5q0 -98 44 -170.5t128 -92.5q-18 69 -18 146q0 111 59.5 177.5t168.5 66.5q99 0 154.5 -57.5t55.5 -143.5
q0 -105 -59 -178t-172 -101q56 -61 135 -61q32 0 111 15l19 -103q-59 -20 -139 -20zM463 239q0 -80 26 -145q82 15 123.5 60.5t41.5 105.5t-25.5 90t-66.5 30q-49 0 -74 -39t-25 -102z" />
    <glyph glyph-name="uni04A9" unicode="&#x4a9;" horiz-adv-x="606" 
d="M261 175q0 99 44 146.5t114 47.5q71 0 108.5 -43t37.5 -115q0 -71 -39 -124.5t-107 -78.5q38 -29 90 -29q39 0 90 15l18 -87q-59 -19 -118 -19q-132 0 -193 100h-2q-126 0 -195 74.5t-69 205.5q0 136 74.5 214t197.5 78q97 0 165 -36l-37 -95q-65 28 -116 28
q-72 0 -110.5 -48t-38.5 -137q0 -153 93 -181q-7 44 -7 84zM357 181q0 -56 11 -90q94 22 94 123q0 74 -49 74q-23 0 -39.5 -25t-16.5 -82z" />
    <glyph glyph-name="uni04AA" unicode="&#x4aa;" horiz-adv-x="678" 
d="M430 -12q-185 0 -284 95.5t-99 265.5t101 269.5t278 99.5q120 0 214 -43l-38 -101q-38 11 -56.5 16t-49 9t-68.5 4q-108 1 -174.5 -60.5t-66.5 -183.5q0 -125 71 -189.5t189 -64.5q87 0 165 23l30 -105q-95 -35 -212 -35zM361 -267l-46 79q50 31 62 48q8 12 8 25
q0 20 -16 64h109q21 -44 21 -76q0 -81 -138 -140z" />
    <glyph glyph-name="uni04AB" unicode="&#x4ab;" horiz-adv-x="518" 
d="M335 -12q-156 0 -225 67t-69 205q0 147 75 223.5t211 76.5q94 0 160 -36l-35 -99q-65 25 -118 25q-77 0 -117 -43t-40 -143q0 -86 37.5 -126.5t136.5 -40.5q36 0 113 15l19 -103q-88 -21 -148 -21zM242 -267l-46 79q50 31 62 48q8 12 8 25q0 20 -16 64h109q21 -44 21 -76
q0 -81 -138 -140z" />
    <glyph glyph-name="uni04AC" unicode="&#x4ac;" horiz-adv-x="626" 
d="M239 0v598h-229v109h595v-109h-229v-492h144v-259h-130v153h-151z" />
    <glyph glyph-name="uni04AD" unicode="&#x4ad;" horiz-adv-x="524" 
d="M190 0v444h-176v102h486v-102h-177v-338h119v-258h-126v152h-126z" />
    <glyph glyph-name="uni04AE" unicode="&#x4ae;" horiz-adv-x="628" 
d="M239 0v243l-250 464h157l166 -348l177 348h152l-266 -461v-246h-136z" />
    <glyph glyph-name="uni04AF" unicode="&#x4af;" horiz-adv-x="563" 
d="M207 -220v220l-205 546h144l100 -302l31 -112l34 113l112 301h140l-223 -548v-218h-133z" />
    <glyph glyph-name="uni04B0" unicode="&#x4b0;" horiz-adv-x="650" 
d="M99 204v103h118l-215 400h157l166 -348l177 348h152l-231 -400h116v-103h-151v-204h-136v204h-153z" />
    <glyph glyph-name="uni04B1" unicode="&#x4b1;" horiz-adv-x="587" 
d="M78 0v101h106l-167 445h144l100 -302l31 -112l34 113l112 301h140l-181 -445h101v-101h-142l-1 -2v-218h-133v220h-144z" />
    <glyph glyph-name="uni04B2" unicode="&#x4b2;" horiz-adv-x="704" 
d="M2 0l252 367l-218 340h156l141 -236l151 236h152l-231 -338l169 -263h124v-259h-129v153h-85l-159 265l-169 -265h-154z" />
    <glyph glyph-name="uni04B3" unicode="&#x4b3;" horiz-adv-x="596" 
d="M5 0l197 279l-184 267h154l106 -183l107 183h151l-183 -266l123 -174h120v-259h-129v153h-75l-114 195l-116 -195h-157z" />
    <glyph glyph-name="uni04B4" unicode="&#x4b4;" horiz-adv-x="941" 
d="M779 -153v153h-560v598h-209v109h554v-109h-208v-492h316v601h137v-600h99v-260h-129z" />
    <glyph glyph-name="uni04B5" unicode="&#x4b5;" horiz-adv-x="783" 
d="M635 -147v147h-445v444h-176v102h310v-445h213v445h134v-445h87v-248h-123z" />
    <glyph glyph-name="uni04B6" unicode="&#x4b6;" horiz-adv-x="715" 
d="M453 0v298q-92 -36 -178 -36q-235 0 -235 196v249h137v-227q0 -65 36 -88.5t97 -23.5q69 0 143 41v298h137v-601h108v-259h-129v153h-116z" />
    <glyph glyph-name="uni04B7" unicode="&#x4b7;" horiz-adv-x="626" 
d="M372 0v220q-75 -28 -150 -28q-102 0 -144.5 44t-42.5 143v167h132v-157q0 -51 20.5 -72t71.5 -21q56 0 113 24v226h133v-440h109v-259h-129v153h-113z" />
    <glyph glyph-name="uni04B8" unicode="&#x4b8;" horiz-adv-x="682" 
d="M453 0v298q-57 -22 -113 -31v-71h-67v66q-233 0 -233 196v249h137v-227q0 -99 96 -110v68h67v-68q57 8 113 39v298h137v-707h-137z" />
    <glyph glyph-name="uni04B9" unicode="&#x4b9;" horiz-adv-x="579" 
d="M372 0v220q-41 -15 -75 -21v-76h-67v69h-8q-102 0 -144.5 44t-42.5 143v167h132v-157q0 -43 14.5 -64.5t48.5 -26.5v67h67v-67q33 5 75 22v226h133v-546h-133z" />
    <glyph glyph-name="uni04BA" unicode="&#x4ba;" horiz-adv-x="680" 
d="M92 0v707h136v-295q91 43 173 43q122 0 179.5 -53.5t57.5 -149.5v-252h-136v230q0 66 -35.5 89t-96.5 23q-67 0 -142 -40v-302h-136z" />
    <glyph glyph-name="uni04BB" unicode="&#x4bb;" horiz-adv-x="636" 
d="M74 0v754h133v-268q92 73 184 73q48 0 82 -12.5t52 -30t28 -49t12 -57t2 -65.5v-345h-131v330q0 63 -18 88t-68 25q-64 0 -143 -45v-398h-133z" />
    <glyph glyph-name="uni04BC" unicode="&#x4bc;" horiz-adv-x="932" 
d="M892 314h-548q10 -101 69.5 -159t153.5 -58q128 0 249 64l39 -94q-136 -80 -298 -80q-150 0 -247 86t-109 241q-180 4 -180 151q0 63 34 143h96q-27 -83 -27 -117q0 -41 17 -59.5t62 -20.5q18 138 111 222.5t237 84.5q163 0 251 -98.5t90 -238.5v-67zM552 609
q-99 0 -148.5 -49t-59.5 -149h408q-2 92 -51.5 145t-148.5 53z" />
    <glyph glyph-name="uni04BD" unicode="&#x4bd;" horiz-adv-x="703" 
d="M452 -12q-130 0 -201.5 56.5t-77.5 193.5q-149 16 -149 149q0 62 34 142h96q-27 -83 -27 -117t11 -52t39 -25q16 117 84 170.5t170 53.5q122 0 177 -70t55 -205v-48h-356q-1 -80 43 -110t120 -30q67 0 157 23l21 -101q-87 -30 -196 -30zM310 325h216q1 64 -24.5 101
t-75.5 37q-49 0 -80.5 -36t-35.5 -102z" />
    <glyph glyph-name="uni04BE" unicode="&#x4be;" horiz-adv-x="932" 
d="M892 314h-548q10 -101 69.5 -159t153.5 -58q128 0 249 64l39 -94q-84 -49 -190 -69q-90 -57 -90 -106q0 -22 14 -34.5t34 -12.5q30 0 58 15l24 -83q-45 -26 -103 -26q-63 0 -103 33t-40 90q0 58 59 115q-135 11 -220.5 95.5t-96.5 229.5q-180 4 -180 151q0 63 34 143h96
q-27 -83 -27 -117q0 -41 17 -59.5t62 -20.5q18 138 111 222.5t237 84.5q163 0 251 -98.5t90 -238.5v-67zM552 609q-99 0 -148.5 -49t-59.5 -149h408q-2 92 -51.5 145t-148.5 53z" />
    <glyph glyph-name="uni04BF" unicode="&#x4bf;" horiz-adv-x="703" 
d="M576 -223q-46 -26 -103 -26q-63 0 -103 33t-40 90q0 59 61 117q-101 11 -156.5 69t-61.5 178q-149 16 -149 149q0 62 34 142h96q-27 -83 -27 -117t11 -52t39 -25q16 117 84 170.5t170 53.5q122 0 177 -70t55 -205v-48h-356q-1 -80 43 -110t120 -30q67 0 157 23l21 -101
q-56 -19 -121 -26q-81 -51 -81 -100q0 -22 14 -34.5t34 -12.5q30 0 58 15zM310 325h216q1 64 -24.5 101t-75.5 37q-49 0 -80.5 -36t-35.5 -102z" />
    <glyph glyph-name="uni04C0" unicode="&#x4c0;" horiz-adv-x="320" 
d="M92 0v707h136v-707h-136z" />
    <glyph glyph-name="uni04C1" unicode="&#x4c1;" horiz-adv-x="987" 
d="M425 0v361l-248 -361h-172l271 373l-249 334h167l231 -330v330h137v-331l231 331h167l-248 -334l270 -373h-172l-248 358v-358h-137zM490 753q-58 0 -109 26.5t-81 73.5l60 63q56 -61 130 -61t130 61l60 -63q-30 -47 -81 -73.5t-109 -26.5z" />
    <glyph glyph-name="uni04C2" unicode="&#x4c2;" horiz-adv-x="813" 
d="M150 0h-144l214 286l-190 260h146l164 -255v255h134v-254l165 254h145l-190 -260l213 -286h-150l-183 262v-262h-134v262zM400 629q-51 0 -96.5 26t-71.5 72l52 61q51 -59 116 -59q66 0 117 59l52 -61q-26 -46 -71.5 -72t-97.5 -26z" />
    <glyph glyph-name="uni04C3" unicode="&#x4c3;" horiz-adv-x="695" 
d="M669 707l-273 -301q104 -13 173 -77t69 -165q0 -213 -246 -387l-68 87q33 26 58 50t55 61.5t46.5 84t16.5 97.5q0 73 -59.5 117t-180.5 47l-1 103l236 283h174zM92 0v707h136v-707h-136z" />
    <glyph glyph-name="uni04C4" unicode="&#x4c4;" horiz-adv-x="611" 
d="M563 546l-203 -236q6 1 17 1q53 0 93.5 -19t62.5 -51t32.5 -68.5t10.5 -77.5q0 -105 -56.5 -190.5t-145.5 -135.5l-66 82q65 57 99 111.5t34 116.5q0 144 -163 144q-20 0 -44 -3v80l180 246h149zM74 0v546h133v-546h-133z" />
    <glyph glyph-name="uni04C5" unicode="&#x4c5;" horiz-adv-x="770" 
d="M56 -22l-57 119q111 48 139 105q45 89 62 505h429v-601h138l-56 -270h-127l33 164h-125v606h-177q-26 -294 -40 -367q-14 -75 -38 -119q-46 -85 -181 -142z" />
    <glyph glyph-name="uni04C6" unicode="&#x4c6;" horiz-adv-x="656" 
d="M42 -16l-36 108q79 28 107 77q41 73 51 377h379v-440h108l-56 -270h-127l33 164h-92v445h-132q-22 -272 -71 -357q-49 -77 -164 -104z" />
    <glyph glyph-name="uni04C7" unicode="&#x4c7;" horiz-adv-x="790" 
d="M468 -216l-51 99q86 42 115.5 89.5t29.5 128.5v202h-334v-303h-136v707h136v-298h334v298h136l1 -604q0 -58 -7.5 -98t-30 -83t-70.5 -77t-123 -61z" />
    <glyph glyph-name="uni04C8" unicode="&#x4c8;" horiz-adv-x="643" 
d="M74 0v546h133v-221h229v221h133v-453q0 -44 -3 -74.5t-14 -66.5t-31 -62.5t-55.5 -51.5t-86.5 -42l-53 96q64 34 87 73t23 114v144h-229v-223h-133z" />
    <glyph glyph-name="uni04C9" unicode="&#x4c9;" horiz-adv-x="824" 
d="M92 0v707h136v-299h334v299h136v-601h119l-56 -270h-128l34 164h-105v302h-334v-302h-136z" />
    <glyph glyph-name="uni04CA" unicode="&#x4ca;" horiz-adv-x="684" 
d="M74 0v546h133v-221h229v221h133v-440h111l-56 -270h-127l34 164h-95v223h-229v-223h-133z" />
    <glyph glyph-name="uni04CB" unicode="&#x4cb;" horiz-adv-x="682" 
d="M334 -153v259h119v192q-92 -36 -178 -36q-235 0 -235 196v249h137v-227q0 -65 36 -88.5t97 -23.5q69 0 143 41v298h137v-707h-126v-153h-130z" />
    <glyph glyph-name="uni04CC" unicode="&#x4cc;" horiz-adv-x="579" 
d="M267 -152v258h105v114q-75 -28 -150 -28q-102 0 -144.5 44t-42.5 143v167h132v-157q0 -51 20.5 -72t71.5 -21q56 0 113 24v226h133v-546h-112v-152h-126z" />
    <glyph glyph-name="uni04CD" unicode="&#x4cd;" horiz-adv-x="1014" 
d="M92 0v707h170l215 -594l243 594h162v-601h127l-55 -270h-128l34 164h-115v343l6 145h-4l-193 -488h-163l-167 489h-4l8 -140v-349h-136z" />
    <glyph glyph-name="uni04CE" unicode="&#x4ce;" horiz-adv-x="823" 
d="M74 0v546h168l143 -435l159 435h163v-440h112l-56 -270h-128l34 164h-87v240l4 127l-129 -367h-148l-117 369l7 -129v-240h-125z" />
    <glyph glyph-name="uni04CF" unicode="&#x4cf;" horiz-adv-x="281" 
d="M74 0v754h133v-754h-133z" />
    <glyph glyph-name="uni04D0" unicode="&#x4d0;" horiz-adv-x="700" 
d="M-9 0l279 707h177l245 -707h-143l-77 229h-255l-87 -229h-139zM255 330h183l-85 290zM354 753q-58 0 -109 26.5t-81 73.5l60 63q56 -61 130 -61t130 61l60 -63q-30 -47 -81 -73.5t-109 -26.5z" />
    <glyph glyph-name="uni04D1" unicode="&#x4d1;" horiz-adv-x="578" 
d="M205 -9q-78 0 -125 41.5t-47 117.5q0 166 225 168l108 1v47q0 46 -25.5 63t-83.5 17q-76 0 -158 -25l-27 98q100 40 209 40q110 0 162.5 -38.5t52.5 -124.5v-265q0 -32 53 -34l-5 -101q-10 -1 -26 -1q-124 0 -140 62q-85 -66 -173 -66zM243 95q55 0 123 35v108l-101 -4
q-48 -1 -75 -20t-27 -54q0 -32 22 -48.5t58 -16.5zM285 629q-51 0 -96.5 26t-71.5 72l52 61q51 -59 116 -59q66 0 117 59l52 -61q-26 -46 -71.5 -72t-97.5 -26z" />
    <glyph glyph-name="uni04D2" unicode="&#x4d2;" horiz-adv-x="700" 
d="M-9 0l279 707h177l245 -707h-143l-77 229h-255l-87 -229h-139zM255 330h183l-85 290zM297 764h-127v127h127v-127zM539 764h-126v127h126v-127z" />
    <glyph glyph-name="uni04D3" unicode="&#x4d3;" horiz-adv-x="578" 
d="M205 -9q-78 0 -125 41.5t-47 117.5q0 166 225 168l108 1v47q0 46 -25.5 63t-83.5 17q-76 0 -158 -25l-27 98q100 40 209 40q110 0 162.5 -38.5t52.5 -124.5v-265q0 -32 53 -34l-5 -101q-10 -1 -26 -1q-124 0 -140 62q-85 -66 -173 -66zM243 95q55 0 123 35v108l-101 -4
q-48 -1 -75 -20t-27 -54q0 -32 22 -48.5t58 -16.5zM217 653h-127v128h127v-128zM466 653h-126v128h126v-128z" />
    <glyph glyph-name="uni04D4" unicode="&#x4d4;" horiz-adv-x="964" 
d="M-9 0l348 707h555v-108h-302v-193h280v-102h-280v-196h325v-108h-461v270h-186l-125 -270h-154zM314 372h142v227h-37z" />
    <glyph glyph-name="uni04D5" unicode="&#x4d5;" horiz-adv-x="893" 
d="M646 -9q-169 0 -235 88q-99 -87 -203 -87q-84 0 -129.5 40t-45.5 119q0 49 20 83t56 49.5t70 22t79 7.5q87 3 108 3v56q0 45 -25.5 59.5t-89.5 14.5q-45 0 -152 -24l-27 98q106 39 203 39q137 0 184 -54q62 54 173 54q222 0 222 -271v-44l-357 -10q1 -82 45 -109.5
t128 -27.5q50 0 148 20l19 -99q-83 -27 -191 -27zM232 95q58 0 150 43q-11 34 -16 92l-100 -2q-103 -3 -103 -69q0 -64 69 -64zM502 324l214 9q1 59 -25.5 94t-70.5 35q-49 0 -83 -34.5t-35 -103.5z" />
    <glyph glyph-name="uni04D6" unicode="&#x4d6;" 
d="M92 0v707h438v-108h-302v-193h280v-102h-280v-196h325v-108h-461zM323 753q-58 0 -109 26.5t-81 73.5l60 63q56 -61 130 -61t130 61l60 -63q-30 -47 -81 -73.5t-109 -26.5z" />
    <glyph glyph-name="uni04D7" unicode="&#x4d7;" horiz-adv-x="571" 
d="M321 -12q-136 0 -207.5 62t-71.5 215q0 154 70.5 224t187.5 70q122 0 177 -70t55 -205v-48h-356q-1 -80 43 -110t120 -30q67 0 157 23l21 -101q-87 -30 -196 -30zM179 325h216q1 64 -24.5 101t-75.5 37q-49 0 -80.5 -36t-35.5 -102zM298 629q-51 0 -96.5 26t-71.5 72
l52 61q51 -59 116 -59q66 0 117 59l52 -61q-26 -46 -71.5 -72t-97.5 -26z" />
    <glyph glyph-name="uni04D8" unicode="&#x4d8;" horiz-adv-x="780" 
d="M378 -12q-168 0 -250.5 91.5t-87.5 256.5v67h551q-11 94 -68.5 150t-156.5 56q-122 0 -237 -61l-51 91q129 79 307 79q168 -1 258 -101.5t90 -263.5q0 -170 -91 -267.5t-264 -97.5zM381 97q105 0 152 54.5t58 155.5h-410q23 -210 200 -210z" />
    <glyph glyph-name="uni04D9" unicode="&#x4d9;" horiz-adv-x="571" 
d="M248 559q139 0 210 -61.5t71 -214.5q0 -295 -266 -295q-223 0 -223 276v48h356q-1 82 -45 111t-127 29q-56 0 -148 -23l-21 101q87 29 193 29zM392 223h-215q-1 -64 24.5 -101.5t73.5 -37.5q51 0 82 36t35 103z" />
    <glyph glyph-name="uni04DA" unicode="&#x4da;" horiz-adv-x="780" 
d="M307 764h-127v127h127v-127zM549 764h-126v127h126v-127zM378 -12q-168 0 -250.5 91.5t-87.5 256.5v67h551q-11 94 -68.5 150t-156.5 56q-122 0 -237 -61l-51 91q129 79 307 79q168 -1 258 -101.5t90 -263.5q0 -170 -91 -267.5t-264 -97.5zM381 97q105 0 152 54.5
t58 155.5h-410q23 -210 200 -210z" />
    <glyph glyph-name="uni04DB" unicode="&#x4db;" horiz-adv-x="571" 
d="M210 653h-127v128h127v-128zM459 653h-126v128h126v-128zM248 559q139 0 210 -61.5t71 -214.5q0 -295 -266 -295q-223 0 -223 276v48h356q-1 82 -45 111t-127 29q-56 0 -148 -23l-21 101q87 29 193 29zM392 223h-215q-1 -64 24.5 -101.5t73.5 -37.5q51 0 82 36t35 103z
" />
    <glyph glyph-name="uni04DC" unicode="&#x4dc;" horiz-adv-x="987" 
d="M425 0v361l-248 -361h-172l271 373l-249 334h167l231 -330v330h137v-331l231 331h167l-248 -334l270 -373h-172l-248 358v-358h-137zM433 764h-127v127h127v-127zM675 764h-126v127h126v-127z" />
    <glyph glyph-name="uni04DD" unicode="&#x4dd;" horiz-adv-x="813" 
d="M337 653h-127v128h127v-128zM586 653h-126v128h126v-128zM150 0h-144l214 286l-190 260h146l164 -255v255h134v-254l165 254h145l-190 -260l213 -286h-150l-183 262v-262h-134v262z" />
    <glyph glyph-name="uni04DE" unicode="&#x4de;" horiz-adv-x="578" 
d="M262 -8q-138 0 -237 55l45 103q96 -47 181 -47q64 0 102 25.5t38 78.5q0 100 -149 100h-88v101h88q57 0 89.5 26.5t32.5 72.5q0 94 -115 94q-59 0 -150 -34l-44 93q98 51 207 51q115 0 177.5 -50t62.5 -127q0 -116 -101 -169v-2q19 -5 39 -16t42 -29.5t35.5 -50
t13.5 -70.5q0 -38 -13.5 -72.5t-43 -65.5t-84 -49t-128.5 -18zM204 764h-127v127h127v-127zM446 764h-126v127h126v-127z" />
    <glyph glyph-name="uni04DF" unicode="&#x4df;" horiz-adv-x="484" 
d="M160 653h-127v128h127v-128zM409 653h-126v128h126v-128zM224 -10q-110 0 -200 45l37 101q77 -41 153 -41q38 0 63.5 17.5t25.5 51.5q0 65 -97 65h-76v99h72q43 0 64 19.5t21 46.5q0 26 -21 42.5t-59 16.5q-55 0 -133 -30l-31 95q85 41 187 41q91 0 140.5 -41.5
t49.5 -100.5q0 -91 -81 -129q43 -11 74.5 -44.5t31.5 -91.5q0 -65 -55.5 -113.5t-165.5 -48.5z" />
    <glyph glyph-name="uni04E0" unicode="&#x4e0;" horiz-adv-x="554" 
d="M161 400l170 193h-282v114h436v-91l-193 -215q93 -14 153.5 -63.5t60.5 -132.5q0 -108 -78 -162.5t-190 -54.5q-75 0 -129.5 12t-70.5 23l28 108q82 -30 167 -30q137 0 137 103q0 101 -153 109q-13 1 -39 1z" />
    <glyph glyph-name="uni04E1" unicode="&#x4e1;" horiz-adv-x="486" 
d="M109 153v94l181 190h-270v109h417v-90l-201 -215q93 -16 154 -67.5t61 -133.5q0 -77 -59.5 -138.5t-144 -92.5t-176.5 -36l-21 103q120 15 192.5 55t72.5 104q0 57 -62 86t-144 32z" />
    <glyph glyph-name="uni04E2" unicode="&#x4e2;" horiz-adv-x="796" 
d="M264 772v105h305v-105h-305zM92 0v707h136v-420l-3 -99l64 103l279 416h136v-707h-136v420l3 99l-56 -89l-287 -430h-136z" />
    <glyph glyph-name="uni04E3" unicode="&#x4e3;" horiz-adv-x="663" 
d="M74 0v546h133v-289l-3 -80l52 80l200 289h133v-546h-133v287l2 80l-51 -80l-200 -287h-133zM189 654v105h305v-105h-305z" />
    <glyph glyph-name="uni04E4" unicode="&#x4e4;" horiz-adv-x="796" 
d="M342 764h-127v127h127v-127zM584 764h-126v127h126v-127zM92 0v707h136v-420l-3 -99l64 103l279 416h136v-707h-136v420l3 99l-56 -89l-287 -430h-136z" />
    <glyph glyph-name="uni04E5" unicode="&#x4e5;" horiz-adv-x="663" 
d="M256 653h-127v128h127v-128zM505 653h-126v128h126v-128zM74 0v546h133v-289l-3 -80l52 80l200 289h133v-546h-133v287l2 80l-51 -80l-200 -287h-133z" />
    <glyph glyph-name="uni04E6" unicode="&#x4e6;" horiz-adv-x="831" 
d="M346 764h-127v127h127v-127zM588 764h-126v127h126v-127zM407 -12q-175 0 -268 98t-93 269q0 167 102 265t276 98q178 0 269.5 -100.5t91.5 -264.5q0 -169 -99 -267t-279 -98zM410 97q120 0 178 70.5t58 186.5q0 115 -58.5 185t-170.5 70q-116 0 -174.5 -69.5
t-58.5 -183.5q0 -113 57 -186t169 -73z" />
    <glyph glyph-name="uni04E7" unicode="&#x4e7;" horiz-adv-x="619" 
d="M238 653h-127v128h127v-128zM487 653h-126v128h126v-128zM304 -12q-126 0 -195 74.5t-69 205.5q0 137 74.5 214.5t199.5 77.5q132 0 198.5 -74.5t66.5 -211.5q0 -138 -75.5 -212t-199.5 -74zM311 95q74 0 103 47t29 130q0 182 -133 182q-135 0 -135 -182q0 -177 136 -177
z" />
    <glyph glyph-name="uni04E8" unicode="&#x4e8;" horiz-adv-x="831" 
d="M407 -12q-175 0 -268 98t-93 269q0 167 102 265t276 98q178 0 269.5 -100.5t91.5 -264.5q0 -169 -99 -267t-279 -98zM410 97q109 0 166.5 58.5t67.5 157.5h-458q10 -97 66.5 -156.5t157.5 -59.5zM417 609q-105 0 -163.5 -57.5t-67.5 -154.5h458q-11 97 -68.5 154.5
t-158.5 57.5z" />
    <glyph glyph-name="uni04E9" unicode="&#x4e9;" horiz-adv-x="619" 
d="M304 -12q-126 0 -195 74.5t-69 205.5q0 137 74.5 214.5t199.5 77.5q132 0 198.5 -74.5t66.5 -211.5q0 -138 -75.5 -212t-199.5 -74zM311 95q118 0 130 138h-264q14 -138 134 -138zM310 454q-116 0 -133 -138h264q-15 138 -131 138z" />
    <glyph glyph-name="uni04EA" unicode="&#x4ea;" horiz-adv-x="831" 
d="M407 -12q-175 0 -268 98t-93 269q0 167 102 265t276 98q178 0 269.5 -100.5t91.5 -264.5q0 -169 -99 -267t-279 -98zM410 97q109 0 166.5 58.5t67.5 157.5h-458q10 -97 66.5 -156.5t157.5 -59.5zM417 609q-105 0 -163.5 -57.5t-67.5 -154.5h458q-11 97 -68.5 154.5
t-158.5 57.5zM347 764h-127v127h127v-127zM589 764h-126v127h126v-127z" />
    <glyph glyph-name="uni04EB" unicode="&#x4eb;" horiz-adv-x="619" 
d="M304 -12q-126 0 -195 74.5t-69 205.5q0 137 74.5 214.5t199.5 77.5q132 0 198.5 -74.5t66.5 -211.5q0 -138 -75.5 -212t-199.5 -74zM311 95q118 0 130 138h-264q14 -138 134 -138zM310 454q-116 0 -133 -138h264q-15 138 -131 138zM239 653h-127v128h127v-128zM488 653
h-126v128h126v-128z" />
    <glyph glyph-name="uni04EC" unicode="&#x4ec;" horiz-adv-x="678" 
d="M234 764h-127v127h127v-127zM476 764h-126v127h126v-127zM249 -10q-124 0 -212 32l30 105q75 -22 164 -22q104 0 172.5 50.5t82.5 149.5h-341v102h343q-13 98 -77 146.5t-160 47.5q-88 -1 -175 -26l-37 102q87 38 214 38q186 0 282 -92.5t96 -270.5q0 -170 -98.5 -266
t-283.5 -96z" />
    <glyph glyph-name="uni04ED" unicode="&#x4ed;" horiz-adv-x="517" 
d="M161 653h-127v128h127v-128zM410 653h-126v128h126v-128zM204 -10q-94 0 -176 39l36 100q79 -33 139 -33q125 0 137 131h-207v101h206q-8 59 -42 92t-91 33t-131 -28l-39 96q74 39 170 39q269 0 269 -282q0 -137 -72.5 -212.5t-198.5 -75.5z" />
    <glyph glyph-name="uni04EE" unicode="&#x4ee;" horiz-adv-x="621" 
d="M171 772v105h305v-105h-305zM179 -9l-39 110q60 20 88.5 38t47.5 60l13 26h-44l-250 482h153l186 -381l141 381h153l-225 -504q-22 -49 -44.5 -84t-39 -54.5t-44 -34.5t-43 -21t-53.5 -18z" />
    <glyph glyph-name="uni04EF" unicode="&#x4ef;" horiz-adv-x="564" 
d="M166 -220l75 220h-52l-183 546h144l103 -349l26 -92l29 91l118 350h135l-267 -766h-128zM138 654v105h305v-105h-305z" />
    <glyph glyph-name="uni04F0" unicode="&#x4f0;" horiz-adv-x="621" 
d="M257 764h-127v127h127v-127zM499 764h-126v127h126v-127zM179 -9l-39 110q60 20 88.5 38t47.5 60l13 26h-44l-250 482h153l186 -381l141 381h153l-225 -504q-22 -49 -44.5 -84t-39 -54.5t-44 -34.5t-43 -21t-53.5 -18z" />
    <glyph glyph-name="uni04F1" unicode="&#x4f1;" horiz-adv-x="564" 
d="M166 -220l75 220h-52l-183 546h144l103 -349l26 -92l29 91l118 350h135l-267 -766h-128zM221 653h-127v128h127v-128zM470 653h-126v128h126v-128z" />
    <glyph glyph-name="uni04F2" unicode="&#x4f2;" horiz-adv-x="621" 
d="M179 -9l-39 110q60 20 88.5 38t47.5 60l13 26h-44l-250 482h153l186 -381l141 381h153l-225 -504q-22 -49 -44.5 -84t-39 -54.5t-44 -34.5t-43 -21t-53.5 -18zM342 878l-216 -141l-55 78l206 154zM617 793l-253 -53l-21 92l248 69z" />
    <glyph glyph-name="uni04F3" unicode="&#x4f3;" horiz-adv-x="564" 
d="M166 -220l75 220h-52l-183 546h144l103 -349l26 -92l29 91l118 350h135l-267 -766h-128zM121 602l-57 68l187 166l68 -81zM345 603l-40 78l219 123l48 -93z" />
    <glyph glyph-name="uni04F4" unicode="&#x4f4;" horiz-adv-x="682" 
d="M453 0v298q-92 -36 -178 -36q-235 0 -235 196v249h137v-227q0 -65 36 -88.5t97 -23.5q69 0 143 41v298h137v-707h-137zM261 764h-127v127h127v-127zM503 764h-126v127h126v-127z" />
    <glyph glyph-name="uni04F5" unicode="&#x4f5;" horiz-adv-x="579" 
d="M205 653h-127v128h127v-128zM454 653h-126v128h126v-128zM372 0v220q-75 -28 -150 -28q-102 0 -144.5 44t-42.5 143v167h132v-157q0 -51 20.5 -72t71.5 -21q56 0 113 24v226h133v-546h-133z" />
    <glyph glyph-name="uni04F6" unicode="&#x4f6;" horiz-adv-x="569" 
d="M92 0v707h464v-108h-328v-493h152v-259h-129v153h-159z" />
    <glyph glyph-name="uni04F7" unicode="&#x4f7;" horiz-adv-x="472" 
d="M74 0v546h382v-102h-249v-338h118v-258h-125v152h-126z" />
    <glyph glyph-name="uni04F8" unicode="&#x4f8;" horiz-adv-x="879" 
d="M92 0v707h138v-241h70q149 0 228 -59.5t79 -171.5q0 -108 -76 -171.5t-215 -63.5h-224zM650 0v707h136v-707h-136zM304 359h-74v-251h84q77 0 114 35t37 94q0 122 -161 122zM391 764h-127v127h127v-127zM633 764h-126v127h126v-127z" />
    <glyph glyph-name="uni04F9" unicode="&#x4f9;" horiz-adv-x="778" 
d="M75 0v546h125v-174h93q117 0 171 -54.5t54 -130.5q0 -83 -54 -135t-160 -52h-229zM704 0h-125v546h125v-546zM276 275h-76v-174h88q102 0 102 87q0 39 -28.5 63t-85.5 24zM330 653h-127v128h127v-128zM579 653h-126v128h126v-128z" />
    <glyph glyph-name="uni1E02" unicode="&#x1e02;" horiz-adv-x="664" 
d="M241 775v128h134v-128h-134zM92 0v707h227q250 0 250 -188q0 -47 -24 -84t-60 -53v-2q51 -13 93 -56.5t42 -111.5q0 -212 -271 -212h-257zM229 108h107q74 0 110.5 22.5t36.5 77.5q0 56 -39 80t-121 24h-94v-204zM229 409h84q61 0 90.5 23t29.5 73q0 53 -34 75t-104 22
h-66v-193z" />
    <glyph glyph-name="uni1E03" unicode="&#x1e03;" horiz-adv-x="617" 
d="M269 -11q-101 0 -200 33v732h133v-227q60 31 132 31q241 0 241 -263q0 -83 -23.5 -144t-66 -95.5t-96 -50.5t-120.5 -16zM307 457q-51 0 -105 -22v-327q52 -13 85 -13q74 0 113 56.5t39 150.5q0 76 -30 115.5t-102 39.5zM285 653v128h133v-128h-133z" />
    <glyph glyph-name="uni1E04" unicode="&#x1e04;" horiz-adv-x="664" 
d="M258 -211v128h133v-128h-133zM92 0v707h227q250 0 250 -188q0 -47 -24 -84t-60 -53v-2q51 -13 93 -56.5t42 -111.5q0 -212 -271 -212h-257zM229 108h107q74 0 110.5 22.5t36.5 77.5q0 56 -39 80t-121 24h-94v-204zM229 409h84q61 0 90.5 23t29.5 73q0 53 -34 75t-104 22
h-66v-193z" />
    <glyph glyph-name="uni1E05" unicode="&#x1e05;" horiz-adv-x="617" 
d="M269 -11q-101 0 -200 33v732h133v-227q60 31 132 31q241 0 241 -263q0 -83 -23.5 -144t-66 -95.5t-96 -50.5t-120.5 -16zM307 457q-51 0 -105 -22v-327q52 -13 85 -13q74 0 113 56.5t39 150.5q0 76 -30 115.5t-102 39.5zM228 -211v128h133v-128h-133z" />
    <glyph glyph-name="uni1E06" unicode="&#x1e06;" horiz-adv-x="664" 
d="M92 0v707h227q250 0 250 -188q0 -47 -24 -84t-60 -53v-2q51 -13 93 -56.5t42 -111.5q0 -212 -271 -212h-257zM229 108h107q74 0 110.5 22.5t36.5 77.5q0 56 -39 80t-121 24h-94v-204zM229 409h84q61 0 90.5 23t29.5 73q0 53 -34 75t-104 22h-66v-193zM171 -218v105h305
v-105h-305z" />
    <glyph glyph-name="uni1E07" unicode="&#x1e07;" horiz-adv-x="617" 
d="M269 -11q-101 0 -200 33v732h133v-227q60 31 132 31q241 0 241 -263q0 -83 -23.5 -144t-66 -95.5t-96 -50.5t-120.5 -16zM307 457q-51 0 -105 -22v-327q52 -13 85 -13q74 0 113 56.5t39 150.5q0 76 -30 115.5t-102 39.5zM136 -218v105h305v-105h-305z" />
    <glyph glyph-name="uni1E0A" unicode="&#x1e0a;" horiz-adv-x="774" 
d="M291 775v128h134v-128h-134zM92 0v707h229q188 0 297 -87t109 -264q0 -180 -104.5 -268t-295.5 -88h-235zM228 108h110q252 0 252 238q0 253 -272 253h-90v-491z" />
    <glyph glyph-name="uni1E0B" unicode="&#x1e0b;" horiz-adv-x="617" 
d="M276 -9q-32 0 -63 7.5t-63 26.5t-55.5 49t-38.5 79t-15 112q0 149 78.5 222t207.5 73q35 0 83 -9v203h133v-754h-133v44q-22 -17 -34 -25.5t-40 -18t-60 -9.5zM301 102q48 0 109 35v306q-61 11 -81 11q-154 0 -154 -181q0 -89 35 -130t91 -41zM194 653v128h133v-128h-133
z" />
    <glyph glyph-name="uni1E0C" unicode="&#x1e0c;" horiz-adv-x="774" 
d="M304 -211v128h133v-128h-133zM92 0v707h229q188 0 297 -87t109 -264q0 -180 -104.5 -268t-295.5 -88h-235zM228 108h110q252 0 252 238q0 253 -272 253h-90v-491z" />
    <glyph glyph-name="uni1E0D" unicode="&#x1e0d;" horiz-adv-x="617" 
d="M263 -211v128h133v-128h-133zM276 -9q-32 0 -63 7.5t-63 26.5t-55.5 49t-38.5 79t-15 112q0 149 78.5 222t207.5 73q35 0 83 -9v203h133v-754h-133v44q-22 -17 -34 -25.5t-40 -18t-60 -9.5zM301 102q48 0 109 35v306q-61 11 -81 11q-154 0 -154 -181q0 -89 35 -130
t91 -41z" />
    <glyph glyph-name="uni1E0E" unicode="&#x1e0e;" horiz-adv-x="774" 
d="M92 0v707h229q188 0 297 -87t109 -264q0 -180 -104.5 -268t-295.5 -88h-235zM228 108h110q252 0 252 238q0 253 -272 253h-90v-491zM207 -218v105h305v-105h-305z" />
    <glyph glyph-name="uni1E0F" unicode="&#x1e0f;" horiz-adv-x="617" 
d="M276 -9q-32 0 -63 7.5t-63 26.5t-55.5 49t-38.5 79t-15 112q0 149 78.5 222t207.5 73q35 0 83 -9v203h133v-754h-133v44q-22 -17 -34 -25.5t-40 -18t-60 -9.5zM301 102q48 0 109 35v306q-61 11 -81 11q-154 0 -154 -181q0 -89 35 -130t91 -41zM176 -218v105h305v-105
h-305z" />
    <glyph glyph-name="uni1E1E" unicode="&#x1e1e;" horiz-adv-x="595" 
d="M259 775v128h134v-128h-134zM92 0v707h464v-108h-328v-211h306v-102h-306v-286h-136z" />
    <glyph glyph-name="uni1E1F" unicode="&#x1e1f;" horiz-adv-x="373" 
d="M45 775v128h134v-128h-134zM107 0v450h-80v96h80v27q0 195 201 195q53 0 93 -13l-21 -101q-36 8 -67 8q-73 0 -73 -90v-26h117v-96h-117v-450h-133z" />
    <glyph glyph-name="uni1E20" unicode="&#x1e20;" horiz-adv-x="710" 
d="M257 772v105h305v-105h-305zM429 -11q-179 0 -280.5 93t-101.5 267q0 181 98.5 274.5t284.5 93.5q114 0 209 -41l-37 -102q-39 11 -56 15.5t-49 9t-68 4.5q-108 0 -175 -60t-67 -184q0 -126 72 -190t185 -64q34 0 72 6v238h136v-321q-104 -39 -223 -39z" />
    <glyph glyph-name="uni1E21" unicode="&#x1e21;" horiz-adv-x="598" 
d="M263 193q-47 0 -86 11q-16 -23 -16 -42q0 -15 11 -25t30 -10h112q219 0 219 -152q0 -88 -72 -146.5t-207 -58.5q-106 0 -164 37.5t-58 103.5q0 82 69 128q-40 28 -40 77q0 64 59 112q-72 45 -72 135q0 85 59.5 140.5t162.5 55.5q81 0 134 -32l168 9v-97h-89
q11 -48 11 -72q0 -80 -65.5 -127t-165.5 -47zM321 18h-137q-18 0 -26 1q-28 -31 -28 -68q0 -80 134 -80q71 0 114.5 25t43.5 63q0 28 -26 43.5t-75 15.5zM268 275q49 0 77 27t28 70t-27 71t-75 28q-47 0 -75 -27.5t-28 -73.5q0 -44 27 -69.5t73 -25.5zM122 654v105h305v-105
h-305z" />
    <glyph glyph-name="uni1E22" unicode="&#x1e22;" horiz-adv-x="790" 
d="M327 775v128h134v-128h-134zM92 0v707h136v-299h334v299h136v-707h-136v302h-334v-302h-136z" />
    <glyph glyph-name="uni1E23" unicode="&#x1e23;" horiz-adv-x="636" 
d="M74 0v754h133v-268q92 73 184 73q48 0 82 -12.5t52 -30t28 -49t12 -57t2 -65.5v-345h-131v330q0 63 -18 88t-68 25q-64 0 -143 -45v-398h-133zM305 653v128h133v-128h-133z" />
    <glyph glyph-name="uni1E24" unicode="&#x1e24;" horiz-adv-x="790" 
d="M92 0v707h136v-299h334v299h136v-707h-136v302h-334v-302h-136zM328 -211v128h133v-128h-133z" />
    <glyph glyph-name="uni1E25" unicode="&#x1e25;" horiz-adv-x="636" 
d="M74 0v754h133v-268q92 73 184 73q48 0 82 -12.5t52 -30t28 -49t12 -57t2 -65.5v-345h-131v330q0 63 -18 88t-68 25q-64 0 -143 -45v-398h-133zM253 -211v128h133v-128h-133z" />
    <glyph glyph-name="uni1E2A" unicode="&#x1e2a;" horiz-adv-x="790" 
d="M92 0v707h136v-299h334v299h136v-707h-136v302h-334v-302h-136zM395 -226q-119 0 -186 103l69 61q62 -62 120 -62t117 62l66 -61q-72 -103 -186 -103z" />
    <glyph glyph-name="uni1E2B" unicode="&#x1e2b;" horiz-adv-x="636" 
d="M74 0v754h133v-268q92 73 184 73q48 0 82 -12.5t52 -30t28 -49t12 -57t2 -65.5v-345h-131v330q0 63 -18 88t-68 25q-64 0 -143 -45v-398h-133zM320 -226q-119 0 -186 103l69 61q62 -62 120 -62t117 62l66 -61q-72 -103 -186 -103z" />
    <glyph glyph-name="uni1E32" unicode="&#x1e32;" horiz-adv-x="687" 
d="M92 0v707h136v-323l267 323h174l-289 -329l306 -378h-175l-283 374v-374h-136zM289 -211v128h133v-128h-133z" />
    <glyph glyph-name="uni1E33" unicode="&#x1e33;" horiz-adv-x="575" 
d="M226 -211v128h133v-128h-133zM75 0v754h133v-444l189 236h146l-211 -253l232 -293h-165l-191 263v-263h-133z" />
    <glyph glyph-name="uni1E34" unicode="&#x1e34;" horiz-adv-x="687" 
d="M92 0v707h136v-323l267 323h174l-289 -329l306 -378h-175l-283 374v-374h-136zM208 -218v105h305v-105h-305z" />
    <glyph glyph-name="uni1E35" unicode="&#x1e35;" horiz-adv-x="575" 
d="M75 0v754h133v-444l189 236h146l-211 -253l232 -293h-165l-191 263v-263h-133zM145 -218v105h305v-105h-305z" />
    <glyph glyph-name="uni1E36" unicode="&#x1e36;" horiz-adv-x="544" 
d="M241 -211v128h133v-128h-133zM92 0v707h136v-597h307v-110h-443z" />
    <glyph glyph-name="uni1E37" unicode="&#x1e37;" horiz-adv-x="281" 
d="M74 -211v128h133v-128h-133zM74 0v754h133v-754h-133z" />
    <glyph glyph-name="uni1E38" unicode="&#x1e38;" horiz-adv-x="544" 
d="M225 -211v128h133v-128h-133zM9 772v105h305v-105h-305zM92 0v707h136v-597h307v-110h-443z" />
    <glyph glyph-name="uni1E39" unicode="&#x1e39;" horiz-adv-x="281" 
d="M72 -211v128h133v-128h-133zM-10 810v105h305v-105h-305zM74 0v754h133v-754h-133z" />
    <glyph glyph-name="uni1E3A" unicode="&#x1e3a;" horiz-adv-x="544" 
d="M92 0v707h136v-597h307v-110h-443zM159 -218v105h305v-105h-305z" />
    <glyph glyph-name="uni1E3B" unicode="&#x1e3b;" horiz-adv-x="281" 
d="M74 0v754h133v-754h-133zM-13 -218v105h305v-105h-305z" />
    <glyph glyph-name="uni1E3E" unicode="&#x1e3e;" horiz-adv-x="974" 
d="M410 745l-21 90l251 73l25 -106zM92 0v707h170l215 -594l243 594h162v-707h-137v343l6 145h-4l-193 -488h-163l-167 489h-4l8 -140v-349h-136z" />
    <glyph glyph-name="uni1E3F" unicode="&#x1e3f;" horiz-adv-x="969" 
d="M459 608l-40 80l219 124l47 -94zM74 0v546h133v-59q94 73 179 73q56 0 95 -22t55 -60q95 82 192 82q49 0 83 -14.5t51 -33t26 -52.5t10.5 -55.5t1.5 -58.5v-346h-133v331q0 59 -18 86t-67 27q-63 0 -132 -45q3 -25 3 -52v-347h-132v331q0 61 -17.5 86.5t-64.5 25.5
q-67 0 -132 -44v-399h-133z" />
    <glyph glyph-name="uni1E40" unicode="&#x1e40;" horiz-adv-x="974" 
d="M416 775v128h134v-128h-134zM92 0v707h170l215 -594l243 594h162v-707h-137v343l6 145h-4l-193 -488h-163l-167 489h-4l8 -140v-349h-136z" />
    <glyph glyph-name="uni1E41" unicode="&#x1e41;" horiz-adv-x="969" 
d="M74 0v546h133v-59q94 73 179 73q56 0 95 -22t55 -60q95 82 192 82q49 0 83 -14.5t51 -33t26 -52.5t10.5 -55.5t1.5 -58.5v-346h-133v331q0 59 -18 86t-67 27q-63 0 -132 -45q3 -25 3 -52v-347h-132v331q0 61 -17.5 86.5t-64.5 25.5q-67 0 -132 -44v-399h-133zM421 653
v128h133v-128h-133z" />
    <glyph glyph-name="uni1E42" unicode="&#x1e42;" horiz-adv-x="974" 
d="M408 -211v128h133v-128h-133zM92 0v707h170l215 -594l243 594h162v-707h-137v343l6 145h-4l-193 -488h-163l-167 489h-4l8 -140v-349h-136z" />
    <glyph glyph-name="uni1E43" unicode="&#x1e43;" horiz-adv-x="969" 
d="M418 -211v128h133v-128h-133zM74 0v546h133v-59q94 73 179 73q56 0 95 -22t55 -60q95 82 192 82q49 0 83 -14.5t51 -33t26 -52.5t10.5 -55.5t1.5 -58.5v-346h-133v331q0 59 -18 86t-67 27q-63 0 -132 -45q3 -25 3 -52v-347h-132v331q0 61 -17.5 86.5t-64.5 25.5
q-67 0 -132 -44v-399h-133z" />
    <glyph glyph-name="uni1E44" unicode="&#x1e44;" horiz-adv-x="792" 
d="M335 788v128h134v-128h-134zM92 0v707h162l312 -534h2l-4 83v451h137v-707h-168l-305 523h-4l4 -86v-437h-136z" />
    <glyph glyph-name="uni1E45" unicode="&#x1e45;" horiz-adv-x="636" 
d="M255 653v128h133v-128h-133zM74 0v546h133v-58q51 36 93 54t100 18q55 0 90.5 -17t51.5 -50.5t21 -66t5 -80.5v-346h-132v331q0 64 -17.5 88.5t-67.5 24.5q-68 0 -144 -43v-401h-133z" />
    <glyph glyph-name="uni1E46" unicode="&#x1e46;" horiz-adv-x="792" 
d="M330 -211v128h133v-128h-133zM92 0v707h162l312 -534h2l-4 83v451h137v-707h-168l-305 523h-4l4 -86v-437h-136z" />
    <glyph glyph-name="uni1E47" unicode="&#x1e47;" horiz-adv-x="636" 
d="M257 -211v128h133v-128h-133zM74 0v546h133v-58q51 36 93 54t100 18q55 0 90.5 -17t51.5 -50.5t21 -66t5 -80.5v-346h-132v331q0 64 -17.5 88.5t-67.5 24.5q-68 0 -144 -43v-401h-133z" />
    <glyph glyph-name="uni1E48" unicode="&#x1e48;" horiz-adv-x="792" 
d="M243 -218v105h305v-105h-305zM92 0v707h162l312 -534h2l-4 83v451h137v-707h-168l-305 523h-4l4 -86v-437h-136z" />
    <glyph glyph-name="uni1E49" unicode="&#x1e49;" horiz-adv-x="636" 
d="M166 -218v105h305v-105h-305zM74 0v546h133v-58q51 36 93 54t100 18q55 0 90.5 -17t51.5 -50.5t21 -66t5 -80.5v-346h-132v331q0 64 -17.5 88.5t-67.5 24.5q-68 0 -144 -43v-401h-133z" />
    <glyph glyph-name="uni1E56" unicode="&#x1e56;" horiz-adv-x="632" 
d="M92 0v707h258q116 0 186 -63.5t70 -176.5q0 -106 -80.5 -176t-227.5 -70h-69v-221h-137zM229 599v-271h75q79 0 119.5 35.5t40.5 99.5q0 136 -136 136h-99zM246 775v128h134v-128h-134z" />
    </font>
</defs>
</svg>
