<?xml version="1.0" standalone="no"?>
<!DOCTYPE svg PUBLIC "-//W3C//DTD SVG 1.1//EN" "http://www.w3.org/Graphics/SVG/1.1/DTD/svg11.dtd" >
<svg xmlns="http://www.w3.org/2000/svg" xmlns:xlink="http://www.w3.org/1999/xlink" version="1.1">
<metadata>
Created by FontForge 20170731 at Sat Oct 31 22:43:16 2009
 By Aleksey,,,
Copyright (c) 2001-2009 Typotheque.com All rights reserved. Cyrillic designed by Alexei Kassian and Gayaneh Bagdasaryan.
</metadata>
<defs>
<font id="FedraSansAltPro-LightItalic" horiz-adv-x="673" >
  <font-face 
    font-family="Fedra Sans Alt Pro Light"
    font-weight="300"
    font-style="italic"
    font-stretch="normal"
    units-per-em="1000"
    panose-1="2 0 5 3 4 0 0 9 0 4"
    ascent="780"
    descent="-220"
    x-height="546"
    cap-height="708"
    bbox="-477 -289 1276 1020"
    underline-thickness="50"
    underline-position="-200"
    slope="-6"
    unicode-range="U+0020-FB04"
  />
<missing-glyph horiz-adv-x="712" 
d="M305 375v27h27v-27h-27zM380 525v27h27v-27h-27zM305 525v27h27v-27h-27zM230 525v27h27v-27h-27zM80 0v27h27v-27h-27zM155 0v27h27v-27h-27zM230 0v27h27v-27h-27zM305 0v27h27v-27h-27zM380 0v27h27v-27h-27zM80 75v27h27v-27h-27zM80 150v27h27v-27h-27zM80 225v27
h27v-27h-27zM80 300v27h27v-27h-27zM80 375v27h27v-27h-27zM80 450v27h27v-27h-27zM80 525v27h27v-27h-27zM80 600v27h27v-27h-27zM80 675v27h27v-27h-27zM155 675v27h27v-27h-27zM230 675v27h27v-27h-27zM305 675v27h27v-27h-27zM380 675v27h27v-27h-27zM455 675v27h27v-27
h-27zM530 675v27h27v-27h-27zM530 0v27h27v-27h-27zM455 0v27h27v-27h-27zM605 0v27h27v-27h-27zM605 675v27h27v-27h-27zM305 300v27h27v-27h-27zM305 150v27h27v-27h-27zM380 375v27h27v-27h-27zM455 375v27h27v-27h-27zM455 450v27h27v-27h-27zM455 525v27h27v-27h-27z
M605 600v27h27v-27h-27zM605 525v27h27v-27h-27zM605 375v27h27v-27h-27zM605 300v27h27v-27h-27zM605 150v27h27v-27h-27zM605 75v27h27v-27h-27zM605 225v27h27v-27h-27zM605 450v27h27v-27h-27z" />
    <glyph glyph-name="f_f" unicode="ff" horiz-adv-x="578" 
d="M49 -220l75 716h-80l5 50h80l6 55q6 53 27.5 89.5t55.5 53.5t67.5 23.5t74.5 6.5q81 0 151 -25q51 25 135 25q20 0 53.5 -6t38.5 -9l-15 -45q2 -1 -2 0q-1 0 -5 1q-53 10 -82 10q-148 0 -160 -125l-6 -54h119l-5 -50h-119l-75 -716h-54l76 716h-233l-75 -716h-53z
M182 546h233l6 55q6 65 36 110q-60 14 -108 14q-149 0 -161 -125z" />
    <glyph glyph-name="fi" unicode="fi" horiz-adv-x="532" 
d="M48 -219l75 715h-80l6 50h80l3 28q12 111 62 155.5t131 44.5q15 0 71 -3.5t87 -3.5q11 0 26 2t18 2l8 -41q-32 -12 -92 -12q-27 0 -71 3t-54 3q-65 0 -94 -39t-37 -113l-3 -26h291l-58 -546h-56l52 496h-234l-75 -715h-56z" />
    <glyph glyph-name="fl" unicode="fl" horiz-adv-x="531" 
d="M48 -220l75 716h-80l6 50h80l3 28q12 111 62 155.5t131 44.5q18 0 70 -4t80 -4h11.5t11.5 1l-81 -767h-56l76 720q-22 -1 -66 1.5t-53 2.5q-65 0 -94 -39t-37 -113l-3 -26h117l-6 -50h-116l-75 -716h-56z" />
    <glyph glyph-name="f_f_i" unicode="ffi" horiz-adv-x="818" 
d="M49 -220l75 716h-80l5 50h80l6 55q6 53 27.5 89.5t55.5 53.5t67.5 23.5t74.5 6.5q20 0 79 -10.5t69 -13.5q47 24 103 24q15 0 71 -2.5t87 -2.5q16 0 44 2l3 -42q-29 -11 -87 -11q-25 1 -69 3.5t-56 2.5q-65 0 -94.5 -39t-36.5 -113l-3 -26h291l-58 -546h-56l52 496h-234
l-75 -716h-56l75 716h-232l-75 -716h-53zM182 546h233l3 28q9 84 41 136q-75 15 -111 15q-148 0 -160 -125z" />
    <glyph glyph-name="f_f_l" unicode="ffl" horiz-adv-x="818" 
d="M49 -220l75 716h-80l5 50h80l6 55q6 53 27.5 89.5t55.5 53.5t67.5 23.5t74.5 6.5q55 0 147 -25q43 25 104 25q18 0 70 -4t80 -4h11.5t11.5 1l-80 -767h-56l76 720q-22 -1 -66 1.5t-53 2.5q-65 0 -94.5 -39t-36.5 -113l-3 -26h116l-5 -50h-116l-75 -716h-56l75 716h-233
l-75 -716h-53zM182 546h233l3 28q9 82 42 135q-75 16 -111 16q-149 0 -161 -125z" />
    <glyph glyph-name="f_h" unicode="fh" horiz-adv-x="822" 
d="M48 -220l75 716h-80l6 50h80l3 28q11 111 61 155.5t132 44.5q18 0 70 -4t80 -4h11.5t11.5 1l-33 -321q3 2 24.5 19t33 25.5t34.5 24t39.5 23.5t37 15t36.5 7q51 0 70 -19.5t19 -63.5q0 -25 -7 -83l-42 -394h-56l42 381q6 68 6 78q0 28 -11.5 39t-43.5 11q-18 0 -56.5 -24
t-84 -58t-47.5 -35l-42 -392h-55l74 718q-21 -1 -62.5 2.5t-55.5 3.5q-65 0 -94.5 -39t-36.5 -113l-3 -26h117l-6 -50h-116l-75 -716h-56z" />
    <glyph glyph-name="f_b" unicode="fb" horiz-adv-x="836" 
d="M496 -7q-62 0 -132 21l74 706q-22 -1 -66.5 1.5t-53.5 2.5q-65 0 -94 -39t-37 -113l-3 -26h117l-6 -50h-116l-75 -716h-56l75 716h-80l6 50h80l3 28q12 111 62 155.5t131 44.5q18 0 70 -4t80 -4h12t12 1l-32 -306q2 2 16 11t18.5 11.5t18 11t20 11.5t19.5 10t21.5 10
t21.5 8t23 7t22.5 3.5t24.5 1.5q115 0 115 -155q0 -54 -10.5 -108.5t-34 -107t-56.5 -93t-82.5 -65t-107.5 -24.5zM503 43q50 0 90 24t65 61t41.5 85t23 92.5t6.5 86.5q0 60 -17.5 81.5t-53.5 21.5q-70 0 -198 -88l-37 -352q48 -12 80 -12z" />
    <glyph glyph-name="f_j" unicode="fj" horiz-adv-x="533" 
d="M220 -220q-37 0 -57 9l15 46q12 -4 53 -4q64 0 92.5 38.5t36.5 110.5l54 516h-234l-75 -715h-56l75 715h-80l5 50h80l3 28q12 111 62 155.5t131 44.5q15 0 70.5 -2.5t87.5 -2.5q16 0 44 2l3 -42q-28 -11 -86 -11q-26 1 -69.5 3.5t-55.5 2.5q-66 0 -95 -39t-36 -113
l-3 -26h291l-60 -568q-21 -198 -196 -198z" />
    <glyph glyph-name="f_k" unicode="fk" horiz-adv-x="779" 
d="M49 -219l75 715h-80l5 50h80l3 28q12 111 62 155.5t131 44.5q18 0 70 -4t80 -4q16 0 23 1l-80 -767h-56l76 720q-22 -1 -66 1.5t-53 2.5q-65 0 -94.5 -39t-36.5 -113l-3 -26h116l-5 -50h-116l-75 -715h-56zM683 -17l-201 308l203 255h69l-203 -255l185 -278z" />
    <glyph glyph-name="f_f_j" unicode="ffj" horiz-adv-x="818" 
d="M49 -220l75 716h-80l5 50h80l6 55q6 53 27.5 89.5t55.5 53.5t67.5 23.5t74.5 6.5q20 0 79 -10.5t69 -13.5q47 24 103 24q15 0 71 -2.5t87 -2.5q16 0 44 2l3 -42q-29 -11 -87 -11q-25 1 -69 3.5t-56 2.5q-65 0 -94.5 -39t-36.5 -113l-3 -26h291l-60 -568
q-11 -108 -59.5 -153t-127.5 -45q-35 0 -62 10l13 51q33 -10 60 -10q63 0 87.5 37t32.5 111l54 517h-234l-75 -716h-56l75 716h-232l-75 -716h-53zM182 546h233l3 28q9 84 41 136q-75 15 -111 15q-148 0 -160 -125z" />
    <glyph glyph-name="aogonek_j" unicode="&#x105;j" horiz-adv-x="761" 
d="M377 -224q-133 0 -133 105q0 36 27 70t67 57l11 99q-67 -61 -115 -90.5t-88 -29.5q-50 0 -76 44t-26 115q0 64 21.5 133.5t60 130.5t100.5 100.5t134 39.5q57 0 90 -7l-57 -543q-34 -19 -63.5 -50.5t-29.5 -60.5q0 -64 81 -64q83 0 129 37t55 126l59 558h56l-60 -568
q-6 -58 -31 -99.5t-61.5 -62.5t-73.5 -30.5t-77 -9.5zM158 42q34 0 97 47t100 84l35 325q-9 2 -41 2q-58 0 -107 -35t-78.5 -88.5t-46 -112.5t-16.5 -112q0 -49 14.5 -79.5t42.5 -30.5zM633 676l8 78h57l-8 -78h-57z" />
    <glyph glyph-name="f_idieresis" unicode="f&#xef;" horiz-adv-x="541" 
d="M49 -220l74 716h-80l5 50h81l6 70q7 78 47 118t102 40q40 0 82 -20l-15 -46q-36 18 -79 18q-73 0 -83 -104l-7 -76h118l-4 -50h-119l-75 -716h-53zM371 0l57 546h56l-57 -546h-56zM489 676l8 78h57l-8 -78h-57zM378 676l8 78h57l-8 -78h-57z" />
    <glyph glyph-name="f_igrave" unicode="f&#xec;" horiz-adv-x="541" 
d="M49 -220l74 716h-80l5 50h81l6 70q7 78 47 118t102 40q40 0 82 -20l-15 -46q-36 18 -79 18q-73 0 -83 -104l-7 -76h118l-4 -50h-119l-75 -716h-53zM484 607l-92 152l49 28l84 -156zM371 0l57 546h56l-57 -546h-56z" />
    <glyph glyph-name=".notdef" horiz-adv-x="712" 
d="M305 375v27h27v-27h-27zM380 525v27h27v-27h-27zM305 525v27h27v-27h-27zM230 525v27h27v-27h-27zM80 0v27h27v-27h-27zM155 0v27h27v-27h-27zM230 0v27h27v-27h-27zM305 0v27h27v-27h-27zM380 0v27h27v-27h-27zM80 75v27h27v-27h-27zM80 150v27h27v-27h-27zM80 225v27
h27v-27h-27zM80 300v27h27v-27h-27zM80 375v27h27v-27h-27zM80 450v27h27v-27h-27zM80 525v27h27v-27h-27zM80 600v27h27v-27h-27zM80 675v27h27v-27h-27zM155 675v27h27v-27h-27zM230 675v27h27v-27h-27zM305 675v27h27v-27h-27zM380 675v27h27v-27h-27zM455 675v27h27v-27
h-27zM530 675v27h27v-27h-27zM530 0v27h27v-27h-27zM455 0v27h27v-27h-27zM605 0v27h27v-27h-27zM605 675v27h27v-27h-27zM305 300v27h27v-27h-27zM305 150v27h27v-27h-27zM380 375v27h27v-27h-27zM455 375v27h27v-27h-27zM455 450v27h27v-27h-27zM455 525v27h27v-27h-27z
M605 600v27h27v-27h-27zM605 525v27h27v-27h-27zM605 375v27h27v-27h-27zM605 300v27h27v-27h-27zM605 150v27h27v-27h-27zM605 75v27h27v-27h-27zM605 225v27h27v-27h-27zM605 450v27h27v-27h-27z" />
    <glyph glyph-name=".null" horiz-adv-x="0" 
 />
    <glyph glyph-name="nonmarkingreturn" horiz-adv-x="333" 
 />
    <glyph glyph-name="space" unicode=" " horiz-adv-x="263" 
 />
    <glyph glyph-name="exclam" unicode="!" horiz-adv-x="264" 
d="M92 159l11 126l45 422h54l-45 -422l-15 -126h-50zM66 0l7 71h69l-7 -71h-69z" />
    <glyph glyph-name="quotedbl" unicode="&#x22;" horiz-adv-x="298" 
d="M84 572l22 194h51l-30 -194h-43zM222 572l22 194h51l-30 -194h-43z" />
    <glyph glyph-name="numbersign" unicode="#" horiz-adv-x="574" 
d="M97 0l26 164h-90l6 50h92l23 141h-100l5 50h103l25 162h53l-25 -162h183l25 162h53l-25 -162h85l-5 -50h-88l-23 -141h96l-6 -50h-98l-26 -164h-53l26 164h-183l-26 -164h-53zM184 214h183l23 141h-183z" />
    <glyph glyph-name="dollar" unicode="$" horiz-adv-x="479" 
d="M165 -100l11 95q-97 4 -165 40l27 50q76 -33 144 -37l24 216q-61 27 -94.5 58t-33.5 83q0 63 46 99.5t114 45.5l10 90h51l-10 -89q84 -2 145 -29l-22 -46q-76 24 -128 26l-22 -198q37 -16 56.5 -26t46 -27.5t38.5 -39.5t12 -49q0 -76 -54.5 -118t-133.5 -48l-10 -96h-52z
M357 152q0 30 -25.5 50t-76.5 42l-22 -195q124 12 124 103zM135 414q0 -49 78 -88l19 173q-97 -12 -97 -85z" />
    <glyph glyph-name="percent" unicode="%" horiz-adv-x="761" 
d="M202 396q-61 0 -94.5 33t-33.5 94q0 77 44.5 134t119.5 57q129 0 129 -127q0 -79 -44 -135t-121 -56zM206 440q55 0 83.5 41t28.5 98q0 43 -20.5 68.5t-63.5 25.5q-54 0 -81.5 -45t-27.5 -102q0 -86 81 -86zM532 -8q-61 0 -94 33t-33 94q0 78 44 134.5t120 56.5
q129 0 129 -127q0 -79 -44.5 -135t-121.5 -56zM537 36q54 0 82.5 41.5t28.5 97.5q0 43 -20.5 68.5t-63.5 25.5q-53 0 -80.5 -45t-27.5 -102q0 -86 81 -86zM102 66l-30 32l575 531l30 -32z" />
    <glyph glyph-name="ampersand" unicode="&#x26;" horiz-adv-x="655" 
d="M648 372q-59 -36 -143 -49q15 -33 15 -87q0 -98 -75.5 -172t-194.5 -74q-86 0 -144.5 41t-58.5 105q0 81 41 138t123 99q-50 39 -73 75t-23 95q0 79 57 125t145 46q58 0 101.5 -30t51.5 -81l-55 -10q-6 36 -38 55.5t-76 19.5q-56 0 -94 -33t-38 -86q0 -91 76 -138
t185 -47q115 0 195 44zM263 37q53 0 93 18.5t62 48.5t33 63.5t11 68.5q0 52 -15 83q-102 -2 -189 34q-75 -38 -114.5 -85.5t-39.5 -120.5q0 -52 42 -81t117 -29z" />
    <glyph glyph-name="quotesingle" unicode="'" horiz-adv-x="160" 
d="M84 572l22 194h51l-30 -194h-43z" />
    <glyph glyph-name="parenleft" unicode="(" horiz-adv-x="326" 
d="M204 -221q-78 65 -120.5 184.5t-42.5 232.5q0 102 29 210.5t91.5 209.5t146.5 153l29 -39q-110 -73 -172.5 -224.5t-62.5 -299.5q0 -104 36 -215t103 -173z" />
    <glyph glyph-name="parenright" unicode=")" horiz-adv-x="327" 
d="M11 -221l-29 39q109 83 173.5 240t64.5 306q0 101 -36 207t-105 159l37 39q80 -57 123 -172.5t43 -236.5q0 -160 -73.5 -326.5t-197.5 -254.5z" />
    <glyph glyph-name="asterisk" unicode="*" horiz-adv-x="429" 
d="M94 471l-24 51l106 46l14 -32zM179 601l-96 46l35 51l84 -64zM195 409l24 111h37l-2 -111h-59zM233 650v112h59l-22 -112h-37zM369 472l-84 63l24 33l95 -44zM311 603l-15 31l97 65l25 -50z" />
    <glyph glyph-name="plus" unicode="+" horiz-adv-x="576" 
d="M228 56l23 221h-219l6 50h219l24 228h53l-24 -228h233l-6 -50h-233l-23 -221h-53z" />
    <glyph glyph-name="comma" unicode="," horiz-adv-x="207" 
d="M-7 -146q3 8 10.5 27.5t9.5 25t7 20.5t6.5 22.5t5.5 22.5t5.5 29.5t4 34.5t5.5 45h70q-8 -73 -21.5 -116t-53.5 -111h-49z" />
    <glyph glyph-name="hyphen" unicode="-" horiz-adv-x="500" 
d="M96 261l6 54h298l-6 -54h-298z" />
    <glyph glyph-name="period" unicode="." horiz-adv-x="203" 
d="M37 0l7 71h69l-7 -71h-69z" />
    <glyph glyph-name="slash" unicode="/" horiz-adv-x="354" 
d="M-4 -62l319 831h53l-319 -831h-53z" />
    <glyph glyph-name="zero" unicode="0" horiz-adv-x="604" 
d="M271 -10q-106 0 -168 67.5t-62 185.5q0 135 78 226t208 91q106 0 168 -66t62 -188q0 -134 -80 -225t-206 -91zM275 38q101 0 164 75.5t63 183.5q0 97 -46 156t-133 59q-105 0 -164.5 -73.5t-59.5 -185.5q0 -98 44 -156.5t132 -58.5z" />
    <glyph glyph-name="one" unicode="1" horiz-adv-x="326" 
d="M133 0l53 502h-142l4 43l199 6l-58 -551h-56z" />
    <glyph glyph-name="two" unicode="2" horiz-adv-x="466" 
d="M24 0l5 45q19 16 63.5 52t70.5 58t62.5 58.5t57 65.5t36 67.5t15.5 75.5q0 45 -28.5 65t-72.5 20q-60 0 -120 -39l-25 38q27 23 69.5 39t85.5 16q74 0 112.5 -40.5t38.5 -93.5q0 -183 -290 -375h285l-6 -52h-359z" />
    <glyph glyph-name="three" unicode="3" horiz-adv-x="457" 
d="M134 -169q-77 0 -149 38l19 46q69 -33 132 -33q86 0 136 56.5t50 126.5q0 57 -41 92.5t-122 42.5l-4 42q68 19 117 75.5t49 109.5q0 83 -108 83q-66 0 -118 -24l-14 44q57 31 142 31q73 0 113.5 -34t40.5 -95q0 -55 -39 -109.5t-103 -86.5q145 -43 145 -166
q0 -90 -69.5 -164.5t-176.5 -74.5z" />
    <glyph glyph-name="four" unicode="4" horiz-adv-x="536" 
d="M267 -160l21 199h-280l6 60l291 447h92l-48 -457h132l-5 -50h-132l-21 -199h-56zM65 89h229l44 422z" />
    <glyph glyph-name="five" unicode="5" horiz-adv-x="489" 
d="M168 -171q-83 0 -161 31l17 47q76 -26 148 -26q86 0 136 47.5t50 126.5q0 153 -289 184l31 307h321l-5 -49h-270l-21 -213q81 -12 142.5 -36.5t104 -72t42.5 -112.5q0 -97 -68.5 -165.5t-177.5 -68.5z" />
    <glyph glyph-name="six" unicode="6" horiz-adv-x="533" 
d="M258 -11q-100 0 -151 59.5t-51 170.5q0 57 7 112.5t21.5 112.5t40.5 105t61 86t86 59.5t113 21.5q50 0 85 -16l-16 -50q-34 14 -86 14q-100 0 -157.5 -75t-81.5 -196q78 37 155 37q83 0 137 -49t54 -140q0 -107 -57 -179.5t-160 -72.5zM265 38q75 0 113 58.5t38 140.5
q0 142 -143 142q-56 0 -152 -40q-7 -59 -7 -124q0 -83 39.5 -130t111.5 -47z" />
    <glyph glyph-name="seven" unicode="7" horiz-adv-x="448" 
d="M84 -172l-43 24l343 646h-335l5 48h386l-6 -57z" />
    <glyph glyph-name="eight" unicode="8" horiz-adv-x="515" 
d="M222 -10q-79 0 -131 41t-52 105q0 143 183 237q-31 24 -44.5 35.5t-34 34t-28.5 46.5t-8 54q0 79 57 125t145 46q64 0 109.5 -36.5t45.5 -95.5q0 -124 -159 -211q64 -42 102.5 -87.5t38.5 -104.5q0 -87 -68.5 -138t-155.5 -51zM235 37q66 0 109.5 38.5t43.5 103.5
q0 26 -12 51t-36 47.5t-41 35.5t-45 32q-46 -28 -75 -49.5t-56 -62t-27 -86.5q0 -51 38.5 -80.5t100.5 -29.5zM270 397q138 77 138 181q0 43 -33 66.5t-82 23.5q-56 0 -94 -33t-38 -86q0 -23 9 -45t29.5 -43.5t32.5 -32t38 -31.5z" />
    <glyph glyph-name="nine" unicode="9" horiz-adv-x="534" 
d="M142 -167q-50 0 -85 16l16 50q34 -14 86 -14q98 0 155.5 72.5t81.5 189.5q-64 -28 -153 -28q-83 0 -137 49t-54 140q0 107 57 179.5t160 72.5q101 0 151.5 -59.5t50.5 -170.5q0 -57 -7 -112.5t-21.5 -112.5t-40.5 -105t-61 -86t-86 -59.5t-113 -21.5zM254 170
q73 0 150 31q9 68 9 134q0 82 -39.5 129t-111.5 47q-76 0 -114 -58.5t-38 -140.5q0 -142 144 -142z" />
    <glyph glyph-name="colon" unicode=":" horiz-adv-x="278" 
d="M72 0l8 71h69l-7 -71h-70zM122 475l8 71h69l-8 -71h-69z" />
    <glyph glyph-name="semicolon" unicode=";" horiz-adv-x="276" 
d="M26 -146q3 8 10.5 27.5t9.5 25t7 20.5t6.5 22.5t5.5 22.5t5.5 29.5t4 34.5t5.5 45h70q-8 -73 -21.5 -116t-53.5 -111h-49zM120 475l8 71h69l-8 -71h-69z" />
    <glyph glyph-name="less" unicode="&#x3c;" horiz-adv-x="505" 
d="M422 69l-378 189l9 91l418 189l-6 -57l-389 -178l352 -177z" />
    <glyph glyph-name="equal" unicode="=" horiz-adv-x="725" 
d="M96 180l6 50h505l-6 -50h-505zM117 379l6 50h505l-6 -50h-505z" />
    <glyph glyph-name="greater" unicode="&#x3e;" horiz-adv-x="504" 
d="M33 69l6 57l388 177l-351 178l6 57l378 -189l-9 -91z" />
    <glyph glyph-name="question" unicode="?" horiz-adv-x="345" 
d="M76 158q-4 20 -4 47q0 44 19.5 81.5t47 65t55 52.5t47 54.5t19.5 61.5q0 61 -51.5 96.5t-118.5 42.5l18 50q85 -7 148 -54t63 -127q0 -43 -18 -78.5t-44 -61t-53 -49t-48 -52.5t-26 -61q-2 -15 0 -62zM53 0l7 71h69l-7 -71h-69z" />
    <glyph glyph-name="at" unicode="@" horiz-adv-x="766" 
d="M317 -72q-129 0 -197 72.5t-68 202.5q0 104 29.5 196t85 163t142 112t192.5 41q113 0 172 -58.5t59 -171.5q0 -57 -14.5 -114t-43 -107.5t-77.5 -82t-110 -31.5q-35 0 -51.5 17.5t-9.5 51.5q-22 -22 -61 -42t-66 -20q-78 0 -78 91q0 104 57.5 179t158.5 75q52 0 94 -21
l-53 -238q-4 -16 -4 -25q0 -23 16 -23q52 0 90 27t58 71.5t29.5 91t9.5 94.5q0 186 -184 186q-96 0 -170.5 -37t-120 -101t-68.5 -145t-23 -174q0 -115 54.5 -170.5t167.5 -55.5q76 0 148 18l7 -47q-62 -25 -171 -25zM311 206q27 0 63 21t59 45l39 178q-28 6 -42 6
q-78 0 -118 -60t-40 -142q0 -25 8 -36.5t31 -11.5z" />
    <glyph glyph-name="A" unicode="A" horiz-adv-x="621" 
d="M-30 0l352 707h97l144 -707h-62l-55 279h-276l-138 -279h-62zM195 330h241l-60 306l-9 44l-22 -45z" />
    <glyph glyph-name="B" unicode="B" horiz-adv-x="603" 
d="M73 0l75 707h180q192 0 192 -155q0 -61 -33 -111.5t-91 -64.5l1 -3q60 -5 98 -47.5t38 -103.5q0 -111 -66.5 -166.5t-182.5 -55.5h-211zM139 51h132q97 0 148.5 35.5t51.5 129.5q0 30 -9 52t-27.5 35t-36 20.5t-47 11t-46.5 4t-48 0.5h-88zM175 390h108q86 0 129 36
t43 122q0 68 -39.5 90t-113.5 22h-99z" />
    <glyph glyph-name="C" unicode="C" horiz-adv-x="635" 
d="M375 -10q-143 0 -226.5 88t-83.5 234q0 179 103 290t280 111q97 0 158 -27l-22 -49q-63 23 -139 23q-152 0 -235 -95t-83 -252q0 -129 72.5 -198.5t200.5 -69.5q84 0 150 22l12 -52q-80 -25 -187 -25z" />
    <glyph glyph-name="D" unicode="D" horiz-adv-x="719" 
d="M73 0l75 707h172q156 0 249.5 -78.5t93.5 -234.5q0 -193 -106 -293.5t-301 -100.5h-183zM138 51h131q161 0 247 86.5t86 254.5q0 134 -77 199t-213 65h-110z" />
    <glyph glyph-name="E" unicode="E" horiz-adv-x="562" 
d="M73 0l75 707h377l-5 -50h-318l-29 -276h296l-5 -52h-296l-30 -279h342l-5 -50h-402z" />
    <glyph glyph-name="F" unicode="F" horiz-adv-x="472" 
d="M73 0l75 707h321l-5 -50h-262l-31 -296h240l-5 -53h-241l-32 -308h-60z" />
    <glyph glyph-name="G" unicode="G" horiz-adv-x="659" 
d="M376 -10q-143 0 -227 88t-84 235q0 178 102.5 289t278.5 111q99 0 157 -25l-23 -49q-62 21 -137 21q-151 0 -233.5 -95t-82.5 -252q0 -129 72.5 -198.5t201.5 -69.5q59 0 104 14l29 291h60l-34 -328q-48 -18 -85.5 -25t-98.5 -7z" />
    <glyph glyph-name="H" unicode="H" horiz-adv-x="728" 
d="M73 0l75 707h59l-34 -327h398l34 327h60l-74 -707h-60l35 329h-398l-35 -329h-60z" />
    <glyph glyph-name="I" unicode="I" horiz-adv-x="270" 
d="M73 0l75 707h59l-74 -707h-60z" />
    <glyph glyph-name="J" unicode="J" horiz-adv-x="270" 
d="M-62 -184l-23 44q91 48 127 112t48 179l59 556h59l-58 -554q-13 -128 -61.5 -209t-150.5 -128z" />
    <glyph glyph-name="K" unicode="K" horiz-adv-x="581" 
d="M476 -13l-269 378l2 20l308 322h77l-320 -326l255 -362zM73 0l75 707h59l-74 -707h-60z" />
    <glyph glyph-name="L" unicode="L" horiz-adv-x="472" 
d="M73 0l75 707h59l-68 -653h307l-6 -54h-367z" />
    <glyph glyph-name="M" unicode="M" horiz-adv-x="867" 
d="M13 0l225 707h88l57 -683l310 683h88l-35 -707h-60l36 643l-291 -643h-105l-54 644l-200 -644h-59z" />
    <glyph glyph-name="N" unicode="N" horiz-adv-x="710" 
d="M72 0l76 707h99l272 -685l70 685h59l-77 -707h-105l-264 668l-70 -668h-60z" />
    <glyph glyph-name="O" unicode="O" horiz-adv-x="798" 
d="M357 -11q-141 0 -216 87t-75 234q0 180 102.5 294t278.5 114q141 0 218 -87.5t77 -233.5q0 -181 -103.5 -294.5t-281.5 -113.5zM366 40q149 0 231 102t82 256q0 122 -62 194.5t-179 72.5q-146 0 -228.5 -100.5t-82.5 -252.5q0 -122 60.5 -197t178.5 -75z" />
    <glyph glyph-name="P" unicode="P" horiz-adv-x="583" 
d="M73 0l75 707h219q92 0 145 -46.5t53 -137.5q0 -126 -80 -187.5t-210 -61.5h-113l-28 -274h-61zM203 658l-35 -332h141q89 0 140 48.5t51 145.5q0 138 -160 138h-137z" />
    <glyph glyph-name="Q" unicode="Q" horiz-adv-x="812" 
d="M357 -11q-141 0 -216 87t-75 234q0 180 102.5 294t278.5 114q141 0 218 -87.5t77 -233.5q0 -189 -112 -303l97 -111l-45 -36l-97 109q-93 -67 -228 -67zM366 40q107 0 183 57l-99 112l47 37l95 -109q87 99 87 261q0 122 -62 194.5t-179 72.5q-146 0 -228.5 -100.5
t-82.5 -252.5q0 -122 60.5 -197t178.5 -75z" />
    <glyph glyph-name="R" unicode="R" horiz-adv-x="628" 
d="M525 -12l-199 326q-34 -4 -94 -4h-64l-34 -310h-61l75 707h206q91 0 145.5 -44.5t54.5 -122.5q0 -76 -43 -134t-123 -78l195 -314zM173 362h101q102 0 158.5 44t56.5 133q0 119 -161 119h-125z" />
    <glyph glyph-name="S" unicode="S" horiz-adv-x="511" 
d="M207 -11q-45 0 -102 14.5t-86 33.5l25 53q96 -47 167 -47q174 0 174 147q0 38 -29.5 70.5t-72 58t-85 54t-72 72t-29.5 97.5q0 82 61.5 127t153.5 45q48 0 95.5 -12t72.5 -27l-19 -50q-76 36 -153 36q-68 0 -110.5 -28.5t-42.5 -92.5q0 -39 29.5 -72.5t71.5 -60.5
t84.5 -56t72 -71t29.5 -92q0 -94 -65.5 -146.5t-169.5 -52.5z" />
    <glyph glyph-name="T" unicode="T" horiz-adv-x="560" 
d="M217 0l68 654h-246l6 53h552l-6 -53h-246l-69 -654h-59z" />
    <glyph glyph-name="U" unicode="U" horiz-adv-x="712" 
d="M334 -12q-50 0 -91 9.5t-77.5 31.5t-57 64t-20.5 101q0 11 2 39l50 474h61l-49 -467q-2 -26 -2 -36q0 -164 181 -164q92 0 151.5 50t72.5 175l46 442h56l-47 -445q-8 -79 -35.5 -135.5t-68 -85.5t-82.5 -41t-90 -12z" />
    <glyph glyph-name="V" unicode="V" horiz-adv-x="643" 
d="M231 0l-173 707h62l158 -669l343 669h65l-368 -707h-87z" />
    <glyph glyph-name="W" unicode="W" horiz-adv-x="942" 
d="M185 0l-101 708h61l89 -662l232 662h54l118 -666l260 666h59l-278 -708h-88l-106 622l-214 -622h-86z" />
    <glyph glyph-name="X" unicode="X" horiz-adv-x="570" 
d="M-26 0l289 376l-157 331h65l132 -285l211 285h65l-253 -331l181 -376h-65l-155 325l-244 -325h-69z" />
    <glyph glyph-name="Y" unicode="Y" horiz-adv-x="572" 
d="M220 0l29 284l-177 423h65l149 -371l243 371h63l-283 -423l-30 -284h-59z" />
    <glyph glyph-name="Z" unicode="Z" horiz-adv-x="548" 
d="M8 0l6 60l443 590h-355l6 57h422l-5 -53l-446 -598h404l-6 -56h-469z" />
    <glyph glyph-name="bracketleft" unicode="[" horiz-adv-x="275" 
d="M28 -220l103 974h156l-5 -48h-100l-92 -878h100l-5 -48h-157z" />
    <glyph glyph-name="backslash" unicode="\" horiz-adv-x="356" 
d="M229 -62l-145 831h53l146 -831h-54z" />
    <glyph glyph-name="bracketright" unicode="]" horiz-adv-x="274" 
d="M-20 -220l5 48h100l92 878h-100l5 48h157l-103 -974h-156z" />
    <glyph glyph-name="asciicircum" unicode="^" horiz-adv-x="557" 
d="M28 294l203 413h83l101 -413h-61l-85 375l-179 -375h-62z" />
    <glyph glyph-name="underscore" unicode="_" horiz-adv-x="571" 
d="M-12 -158l4 54h500l-5 -54h-499z" />
    <glyph glyph-name="grave" unicode="`" horiz-adv-x="585" 
d="M383 618l-168 122l34 45l162 -129z" />
    <glyph glyph-name="a" unicode="a" horiz-adv-x="499" 
d="M138 -13q-50 0 -76 44t-26 115q0 64 21.5 133.5t60 130.5t100.5 100.5t134 39.5q57 0 90 -7l-56 -543h-57l12 107q-67 -61 -115 -90.5t-88 -29.5zM150 42q34 0 97 47t100 84l35 325q-9 2 -41 2q-58 0 -107 -35t-78.5 -88.5t-46 -112.5t-16.5 -112q0 -49 14.5 -79.5
t42.5 -30.5z" />
    <glyph glyph-name="b" unicode="b" horiz-adv-x="523" 
d="M183 -7q-62 0 -132 21l78 741h55l-30 -294q2 2 16 11t18.5 11.5t18 11t20 11.5t19.5 10t21.5 10t21.5 8t23 7t22.5 3.5t24.5 1.5q115 0 115 -155q0 -54 -10.5 -108.5t-34 -107t-56.5 -93t-82.5 -65t-107.5 -24.5zM190 43q50 0 90 24t65 61t41.5 85t23 92.5t6.5 86.5
q0 60 -17.5 81.5t-53.5 21.5q-70 0 -198 -88l-37 -352q48 -12 80 -12z" />
    <glyph glyph-name="c" unicode="c" horiz-adv-x="445" 
d="M165 -12q-34 0 -58.5 20t-37 51.5t-18 62.5t-5.5 61q0 161 70.5 269t189.5 108q74 0 122 -50l-35 -34q-42 35 -93 35q-54 0 -94 -32t-60.5 -82.5t-30 -101t-9.5 -100.5q0 -72 18.5 -113t42.5 -41q77 0 190 60l21 -42q-37 -22 -60.5 -34t-66.5 -24.5t-86 -12.5z" />
    <glyph glyph-name="d" unicode="d" horiz-adv-x="503" 
d="M140 -13q-52 0 -75 50t-23 127q0 170 91 279t228 107q5 0 15.5 -0.5t14.5 -0.5l22 205h56l-81 -754h-56l11 107q-118 -120 -203 -120zM152 42q40 0 96.5 41t100.5 89l35 328q-22 2 -51 2q-96 0 -166 -100t-70 -217q0 -84 14 -113.5t41 -29.5z" />
    <glyph glyph-name="e" unicode="e" horiz-adv-x="456" 
d="M168 -12q-63 0 -91 56.5t-28 145.5q0 159 67.5 265t185.5 106q63 0 94.5 -33.5t31.5 -85.5q0 -88 -132 -138l-188 -72q-1 -10 -1 -31q0 -160 68 -160q65 0 173 54l20 -45q-84 -44 -130 -54q-35 -8 -70 -8zM113 286l168 67q91 36 91 87q0 37 -21 53.5t-52 16.5
q-149 0 -186 -224z" />
    <glyph glyph-name="f" unicode="f" horiz-adv-x="292" 
d="M49 -220l74 716h-80l5 50h81l4 48q14 180 210 180q41 0 85 -14l-15 -46q-44 12 -82 12q-70 0 -104 -29.5t-40 -96.5l-5 -54h118l-4 -50h-119l-75 -716h-53z" />
    <glyph glyph-name="g" unicode="g" horiz-adv-x="498" 
d="M142 -231q-75 0 -164 19l13 55q88 -22 139 -22q87 0 136.5 31.5t59.5 123.5l14 131q-67 -63 -113.5 -91.5t-89.5 -28.5q-99 0 -99 160q0 158 91.5 280.5t221.5 122.5q57 0 90 -7l-61 -582q-7 -69 -45 -113.5t-86.5 -61.5t-106.5 -17zM149 42q34 0 97 47t100 84l35 325
q-10 2 -41 2q-69 0 -127 -53t-88.5 -131.5t-30.5 -159.5q0 -66 14.5 -90t40.5 -24z" />
    <glyph glyph-name="h" unicode="h" horiz-adv-x="511" 
d="M50 0l80 754h57l-33 -306q4 3 19.5 16.5t20 17.5t18.5 15.5t19.5 15.5t18.5 12.5t20.5 12t19.5 9t21.5 7.5t21.5 4t24 2q49 0 69 -25t20 -78q0 -31 -4 -63l-43 -394h-56l42 381q4 32 4 61q0 36 -11 51t-39 15q-32 0 -72.5 -25t-118.5 -91l-42 -392h-56z" />
    <glyph glyph-name="i" unicode="i" horiz-adv-x="221" 
d="M51 0l57 546h56l-57 -546h-56zM119 676l8 78h57l-8 -78h-57z" />
    <glyph glyph-name="j" unicode="j" horiz-adv-x="221" 
d="M-83 -220q-35 0 -62 10l13 51q33 -10 60 -10q63 0 87.5 37t32.5 111l60 567h56l-60 -568q-11 -108 -59.5 -153t-127.5 -45zM119 676l8 78h57l-8 -78h-57z" />
    <glyph glyph-name="k" unicode="k" horiz-adv-x="466" 
d="M370 -17l-201 308l203 255h70l-205 -255l186 -278zM50 0l79 754h57l-80 -754h-56z" />
    <glyph glyph-name="l" unicode="l" horiz-adv-x="221" 
d="M50 0l79 754h57l-80 -754h-56z" />
    <glyph glyph-name="m" unicode="m" horiz-adv-x="783" 
d="M51 0l57 546h57l-10 -97q37 34 57 51t61.5 38.5t77.5 21.5q50 0 70.5 -25t17.5 -76q56 50 100 75.5t93 25.5q48 0 67 -24.5t19 -76.5q0 -33 -4 -65l-43 -394h-55l41 381q5 43 5 64q0 36 -12 50t-42 14q-24 0 -52 -14.5t-49.5 -32t-73.5 -62.5l-43 -400h-56l42 381
q5 43 5 64q0 36 -11.5 49t-41.5 13q-31 0 -68.5 -25t-110.5 -90l-42 -392h-56z" />
    <glyph glyph-name="n" unicode="n" horiz-adv-x="512" 
d="M51 0l57 546h57l-10 -98q4 3 19.5 16.5t20 17.5t18.5 15.5t19.5 15.5t18.5 12.5t20.5 12t19.5 9t21.5 7.5t21.5 4t24 2q49 0 69 -25t20 -78q0 -31 -4 -63l-43 -394h-56l42 381q4 32 4 61q0 36 -11 51t-39 15q-32 0 -72.5 -25t-118.5 -91l-42 -392h-56z" />
    <glyph glyph-name="o" unicode="o" horiz-adv-x="505" 
d="M193 -12q-68 0 -108 54.5t-40 132.5q0 176 73.5 280.5t190.5 104.5q69 0 107 -54.5t38 -126.5t-14.5 -138.5t-44 -124.5t-82 -93t-120.5 -35zM210 38q77 0 131.5 93t54.5 230q0 77 -25 113.5t-84 36.5q-75 0 -129 -94t-54 -224q0 -155 106 -155z" />
    <glyph glyph-name="p" unicode="p" horiz-adv-x="524" 
d="M26 -220l83 766h55l-8 -85q119 85 204 85q115 0 115 -155q0 -54 -10.5 -108.5t-34 -107t-56.5 -93t-82.5 -65t-107.5 -24.5q-32 0 -78 8l-24 -221h-56zM191 43q50 0 90 24t65 61t41.5 85t23 92.5t6.5 86.5q0 60 -17.5 81.5t-53.5 21.5q-69 0 -197 -88l-37 -352
q9 -2 21 -4.5t18.5 -4t17 -2.5t22.5 -1z" />
    <glyph glyph-name="q" unicode="q" horiz-adv-x="499" 
d="M306 -220l35 327q-71 -62 -117 -91t-86 -29q-99 0 -99 164q0 102 40.5 193.5t113.5 148.5t159 57q57 0 90 -7l-79 -763h-57zM150 42q34 0 97 47t100 84l35 325q-10 2 -41 2q-103 0 -174.5 -107t-71.5 -233q0 -70 14 -94t41 -24z" />
    <glyph glyph-name="r" unicode="r" horiz-adv-x="338" 
d="M51 0l57 546h56l-10 -101q29 29 46 45t60 41t77 25q9 0 23 -2l-11 -51q-4 1 -16 1q-10 0 -22 -4t-22.5 -9t-25.5 -14.5t-25 -16.5t-26 -20t-23 -18.5t-22.5 -19t-18.5 -15.5l-41 -387h-56z" />
    <glyph glyph-name="s" unicode="s" horiz-adv-x="407" 
d="M148 -9q-87 0 -139 23l17 52q67 -24 126 -24q19 0 38.5 3.5t43 12t38 28t14.5 46.5q0 33 -22 61t-53 49.5t-62 44t-53 54.5t-22 71q0 74 49 108.5t123 34.5q72 0 132 -29l-19 -45q-72 26 -128 26q-43 0 -73.5 -20t-30.5 -64q0 -33 22 -60.5t53.5 -48.5t62.5 -44t53 -57
t22 -77q0 -73 -57 -109t-135 -36z" />
    <glyph glyph-name="t" unicode="t" horiz-adv-x="356" 
d="M172 -12q-39 0 -65 25t-28 76q-2 19 1 38l41 368h-80l5 51h80l11 112h56l-11 -112h177l-5 -51h-177l-40 -363q-10 -91 52 -91q53 0 112 35l15 -44q-63 -44 -144 -44z" />
    <glyph glyph-name="u" unicode="u" horiz-adv-x="511" 
d="M157 -11q-53 0 -75.5 26.5t-22.5 82.5q0 22 3 47l43 401h56l-42 -379q-4 -35 -4 -64q0 -38 11.5 -52.5t40.5 -14.5q33 0 68.5 19t59 40t61.5 60l42 391h56l-58 -546h-56l10 98q-54 -55 -96.5 -82t-96.5 -27z" />
    <glyph glyph-name="v" unicode="v" horiz-adv-x="454" 
d="M138 0l-94 546h62l79 -516l158 333q47 101 47 171q0 2 -0.5 6t-0.5 6h56v-12q0 -74 -48 -175l-171 -359h-88z" />
    <glyph glyph-name="w" unicode="w" horiz-adv-x="754" 
d="M141 0l-97 546h62l82 -516l190 322l-34 194h62l79 -516l158 333q46 97 46 169q0 10 -1 14h57v-12q0 -75 -48 -175l-171 -359h-89l-47 281l-164 -281h-85z" />
    <glyph glyph-name="x" unicode="x" horiz-adv-x="440" 
d="M-20 0l215 294l-109 252h60l86 -205l145 205h62l-186 -255l123 -291h-61l-98 242l-174 -242h-63z" />
    <glyph glyph-name="y" unicode="y" horiz-adv-x="460" 
d="M70 -220l106 220h-41l-87 546h62l77 -517l160 334q20 42 33.5 91t13.5 80q0 2 -0.5 6t-0.5 6h57v-12q0 -76 -47 -175l-275 -579h-58z" />
    <glyph glyph-name="z" unicode="z" horiz-adv-x="452" 
d="M3 0l6 56l353 439h-280l5 51h343l-5 -53l-361 -443h319l-5 -50h-375z" />
    <glyph glyph-name="braceleft" unicode="{" horiz-adv-x="322" 
d="M220 -219q-36 0 -62 4t-52 14.5t-39.5 34t-13.5 58.5q0 21 6 48l43 201q8 36 -14.5 70t-58.5 34l6 57q36 0 65.5 32.5t29.5 71.5v210q0 158 194 158h12l-5 -48h-18q-67 0 -98.5 -25.5t-31.5 -87.5l1 -184q0 -65 -28.5 -104t-77.5 -49v-2q79 -27 79 -108q0 -17 -5 -44
l-40 -186q-4 -22 -4 -31q0 -77 111 -77h18l-5 -47h-12z" />
    <glyph glyph-name="bar" unicode="|" horiz-adv-x="222" 
d="M28 -220l102 974h56l-102 -974h-56z" />
    <glyph glyph-name="braceright" unicode="}" horiz-adv-x="322" 
d="M-20 -219l5 47h18q129 0 129 108v186q0 117 106 152v2q-79 18 -79 106q0 26 5 47l40 184q4 19 4 37q0 41 -27.5 58t-83.5 17h-18l6 49h12q166 0 166 -115q0 -16 -5 -43l-44 -210q-8 -38 14.5 -71t58.5 -33l-6 -57q-36 0 -65.5 -34t-29.5 -70l1 -201q0 -51 -16 -84.5
t-46.5 -48.5t-60.5 -20.5t-72 -5.5h-12z" />
    <glyph glyph-name="asciitilde" unicode="~" horiz-adv-x="589" 
d="M413 295q-55 0 -121.5 30t-104.5 30q-41 0 -93 -29l-27 43q59 43 126 43q54 0 114.5 -31t105.5 -31q41 0 87 33l32 -38q-55 -50 -119 -50z" />
    <glyph glyph-name="uni00A0" unicode="&#xa0;" horiz-adv-x="263" 
 />
    <glyph glyph-name="exclamdown" unicode="&#xa1;" horiz-adv-x="228" 
d="M38 -161l45 422l15 126h50l-11 -126l-45 -422h-54zM98 475l7 71h69l-7 -71h-69z" />
    <glyph glyph-name="cent" unicode="&#xa2;" horiz-adv-x="458" 
d="M208 -41l8 74q-92 9 -136.5 56t-44.5 138q0 117 59 195.5t172 86.5l9 81h57l-9 -79q71 -5 104 -29l-23 -42q-37 17 -86 22l-40 -382q47 1 105 15l3 -46q-47 -15 -113 -17l-8 -73h-57zM91 230q0 -74 32.5 -107.5t97.5 -40.5l40 380q-87 -8 -128.5 -71.5t-41.5 -160.5z" />
    <glyph glyph-name="sterling" unicode="&#xa3;" horiz-adv-x="456" 
d="M21 0l6 54q40 16 67.5 60t33.5 91h-100l5 49h101q2 14 3.5 30.5t3 36t2.5 30.5q7 58 27.5 96.5t56 58.5t75.5 28.5t99 10.5l-1 -49q-39 -3 -62 -6.5t-51.5 -13t-44.5 -24.5t-28 -41.5t-15 -63.5q-2 -31 -8 -93h184l-5 -49h-186q-5 -45 -29.5 -87t-61.5 -68h296l-6 -50
h-362z" />
    <glyph glyph-name="currency" unicode="&#xa4;" horiz-adv-x="543" 
d="M101 142l-33 34l73 72q-33 42 -33 104q0 66 32 104l-71 71l33 32l70 -70q53 34 105 34q63 0 105 -32l69 70l34 -35l-70 -70q32 -35 32 -104t-34 -106l70 -70l-31 -34l-70 70q-51 -30 -105 -30q-60 0 -103 32zM277 229q60 0 91.5 34t31.5 89q1 54 -31.5 89t-91.5 35
t-91.5 -35t-32.5 -89q0 -53 33 -88t91 -35z" />
    <glyph glyph-name="yen" unicode="&#xa5;" horiz-adv-x="601" 
d="M36 101l5 50h208v1l-44 109h-152l5 50h125l-98 235h64l137 -339l219 339h61l-154 -235h131l-5 -50h-159l-72 -109v-1h219l-5 -50h-219l-11 -101h-58l11 101h-208z" />
    <glyph glyph-name="brokenbar" unicode="&#xa6;" horiz-adv-x="267" 
d="M50 -220l38 362h56l-38 -362h-56zM115 392l38 361h56l-38 -361h-56z" />
    <glyph glyph-name="section" unicode="&#xa7;" horiz-adv-x="548" 
d="M109 -42q-59 0 -108 39l28 52q49 -38 87 -38q25 0 40.5 21t20 44t4.5 48q0 33 -8 99l-2 21q-4 46 -4 70q0 124 58 198t178 74q77 0 136 -40l-23 -51q-65 39 -122 39q-56 0 -56 -108q0 -13 2 -39l5 -48q8 -72 8 -103q0 -119 -64 -198.5t-180 -79.5zM205 24q92 53 92 193
q0 11 -5 74l-5 54q-4 50 -4 68q0 76 23 107l-2 3q-78 -45 -78 -184q0 -31 3 -62l5 -51q4 -36 4 -82q0 -39 -6.5 -64t-27.5 -54z" />
    <glyph glyph-name="dieresis" unicode="&#xa8;" horiz-adv-x="388" 
d="M176 676l8 78h57l-8 -78h-57zM363 676l8 78h57l-8 -78h-57z" />
    <glyph glyph-name="copyright" unicode="&#xa9;" horiz-adv-x="794" 
d="M397 53q-93 0 -142.5 47t-49.5 125q0 111 61 179t174 68q70 0 114 -27l-22 -39q-47 22 -96 22q-79 0 -129.5 -52t-50.5 -144q0 -66 45 -100t113 -34q37 0 95 17l11 -38q-61 -24 -123 -24zM344 -114q-142 0 -224.5 86t-82.5 228q0 185 112 302.5t291 117.5
q144 0 225 -87.5t81 -226.5q0 -182 -110.5 -301t-291.5 -119zM352 -64q160 0 249.5 104t89.5 258q0 122 -67 197t-193 75q-156 0 -247 -103.5t-91 -256.5q0 -119 66 -196.5t193 -77.5z" />
    <glyph glyph-name="ordfeminine" unicode="&#xaa;" horiz-adv-x="396" 
d="M163 386q-65 0 -65 112q0 90 52.5 155t132.5 65q27 0 60 -7l-34 -320h-49l7 52q-64 -57 -104 -57zM168 433q18 0 51 22t52 40l18 174l-5 1h-8h-5q-49 3 -87 -50t-38 -116q0 -71 22 -71zM65 299l6 50h271l-7 -50h-270z" />
    <glyph glyph-name="guillemotleft" unicode="&#xab;" horiz-adv-x="417" 
d="M122 54l-78 218l124 218l45 -17l-107 -201l64 -199zM288 54l-78 218l125 218l44 -17l-107 -201l64 -199z" />
    <glyph glyph-name="logicalnot" unicode="&#xac;" horiz-adv-x="618" 
d="M464 119l17 158h-412l5 51h466l-22 -209h-54z" />
    <glyph glyph-name="registered" unicode="&#xae;" horiz-adv-x="548" 
d="M298 314q-41 0 -79.5 11.5t-73 35.5t-55.5 68t-21 103q0 103 64.5 162.5t163.5 59.5q93 0 159.5 -55t66.5 -167q0 -102 -63.5 -160t-161.5 -58zM303 354q77 0 127 47t50 131q0 89 -53.5 135.5t-128.5 46.5q-80 0 -132 -44.5t-52 -133.5q0 -45 14 -79t34.5 -53t48 -31
t49.5 -15.5t43 -3.5zM411 421q-46 0 -70 27q-25 25 -53 70q-6 -1 -21 -1h-14v-91h-41v238h86q79 0 79 -72q0 -49 -46 -68q2 -3 9.5 -13.5t14.5 -19.5t14 -16t14 -11.5t18.5 -8.5t14.5 -5zM253 549h31q54 0 54 41q0 23 -11 32.5t-38 9.5h-36v-83z" />
    <glyph glyph-name="macron" unicode="&#xaf;" horiz-adv-x="536" 
d="M179 675l5 48h251l-5 -48h-251z" />
    <glyph glyph-name="degree" unicode="&#xb0;" horiz-adv-x="406" 
d="M209 404q-150 0 -135 158q7 68 55 111.5t117 43.5q73 0 110 -40.5t30 -114.5q-8 -73 -56 -115.5t-121 -42.5zM216 446q50 0 80.5 30.5t36.5 85.5q5 52 -19 83t-73 31t-79.5 -30.5t-35.5 -83.5q-7 -56 18.5 -86t71.5 -30z" />
    <glyph glyph-name="plusminus" unicode="&#xb1;" horiz-adv-x="549" 
d="M228 123l20 189h-189l6 52h189l20 190h57l-20 -190h189l-6 -52h-189l-20 -189h-57zM26 0l6 52h435l-6 -52h-435z" />
    <glyph glyph-name="twosuperior" unicode="&#xb2;" horiz-adv-x="307" 
d="M-1 415l4 45q18 12 55.5 37.5t53.5 37t42 32.5t38 35.5t22.5 34t12.5 38.5q4 32 -14 49t-48 17q-57 0 -97 -37l-22 31q23 23 58 37t68 14q49 0 80.5 -27.5t26.5 -79.5q-2 -17 -7 -33t-15 -31.5t-18 -27t-25 -26t-26 -23t-30 -22.5l-28.5 -19t-31 -19.5t-28.5 -17.5h192
l-5 -45h-258z" />
    <glyph glyph-name="threesuperior" unicode="&#xb3;" horiz-adv-x="300" 
d="M115 410q-58 0 -103 16l17 41q49 -14 85 -14q93 0 100 60q4 40 -22.5 55t-86.5 20l4 36q100 9 107 70q2 24 -16 37t-48 13q-33 0 -71 -17l-11 33q47 26 96 26q46 0 75 -24t25 -61q-7 -64 -75 -90q40 -7 59.5 -33.5t16.5 -60.5q-6 -55 -50 -81t-102 -26z" />
    <glyph glyph-name="acute" unicode="&#xb4;" horiz-adv-x="585" 
d="M267 622l-27 37l174 137l34 -46z" />
    <glyph glyph-name="mu" unicode="&#xb5;" horiz-adv-x="519" 
d="M25 -220l81 766h56l-42 -380q-5 -45 -5 -67q0 -37 12 -51t42 -14q32 0 67.5 21.5t76 58.5t44.5 40l42 392h56l-58 -546h-56l10 98q-9 -7 -37.5 -33t-46.5 -40t-49 -27.5t-62 -12.5q-35 2 -54 8l-22 -213h-55z" />
    <glyph glyph-name="paragraph" unicode="&#xb6;" horiz-adv-x="567" 
d="M260 -220q-38 0 -57 8l16 46q8 -4 47 -4q65 0 94 39t37 109l76 729h56l-77 -730q-10 -97 -55 -147t-137 -50zM262 280q-208 0 -208 182q0 109 56.5 177t163.5 68h93l-44 -427h-61z" />
    <glyph glyph-name="periodcentered" unicode="&#xb7;" horiz-adv-x="233" 
d="M83 317l7 71h69l-7 -71h-69z" />
    <glyph glyph-name="cedilla" unicode="&#xb8;" horiz-adv-x="449" 
d="M174 -229l-15 31q56 33 62 79q2 25 -18 68h62q16 -30 13 -63q-6 -75 -104 -115z" />
    <glyph glyph-name="onesuperior" unicode="&#xb9;" horiz-adv-x="256" 
d="M103 415l34 323h-93l4 42l147 4l-39 -369h-53z" />
    <glyph glyph-name="ordmasculine" unicode="&#xba;" horiz-adv-x="402" 
d="M205 385q-44 0 -72.5 38t-28.5 90q0 93 39 150.5t108 57.5q50 0 75 -39t25 -90q0 -49 -12 -93t-46.5 -79t-87.5 -35zM213 428q42 0 65.5 54.5t23.5 107.5q0 35 -16 62t-45 27q-30 0 -50.5 -28.5t-28 -63t-7.5 -67.5q0 -37 14 -64.5t44 -27.5zM65 301l6 48h271l-7 -48
h-270z" />
    <glyph glyph-name="guillemotright" unicode="&#xbb;" horiz-adv-x="417" 
d="M76 54l-44 19l106 199l-65 201l49 17l78 -218zM242 54l-44 19l106 199l-65 201l49 17l78 -218z" />
    <glyph glyph-name="onequarter" unicode="&#xbc;" horiz-adv-x="774" 
d="M133 415l34 323h-93l4 42l147 4l-39 -369h-53zM84 80l-31 34l577 533l29 -33zM553 0l10 91h-171l5 49l164 225h84l-25 -231h65l-4 -43h-65l-10 -91h-53zM441 134h126l21 201z" />
    <glyph glyph-name="onehalf" unicode="&#xbd;" horiz-adv-x="770" 
d="M133 415l34 323h-93l4 42l147 4l-39 -369h-53zM74 80l-31 34l577 533l29 -33zM386 0l4 45q18 12 55.5 37.5t53.5 37t42 32.5t38 35.5t22.5 34t12.5 38.5q4 32 -14 49t-48 17q-57 0 -97 -37l-22 31q23 23 58 37t68 14q49 0 80.5 -27.5t26.5 -79.5q-2 -17 -7 -33t-15 -31.5
t-18 -27t-25 -26t-26 -23t-30 -22.5l-28.5 -19t-31 -19.5t-28.5 -17.5h192l-5 -45h-258z" />
    <glyph glyph-name="threequarters" unicode="&#xbe;" horiz-adv-x="775" 
d="M132 410q-58 0 -103 16l17 41q49 -14 85 -14q93 0 100 60q4 40 -22.5 55t-86.5 20l4 36q100 9 107 70q2 24 -16 37t-48 13q-33 0 -71 -17l-11 33q47 26 96 26q45 0 74.5 -24t25.5 -61q-7 -64 -75 -90q40 -7 59.5 -33.5t16.5 -60.5q-6 -55 -50 -81t-102 -26zM95 80l-31 34
l577 533l29 -33zM554 0l10 91h-171l5 49l164 225h84l-25 -231h65l-4 -43h-65l-10 -91h-53zM442 134h126l21 201z" />
    <glyph glyph-name="questiondown" unicode="&#xbf;" horiz-adv-x="313" 
d="M217 -163q-85 7 -148 54t-63 127q0 43 18 78.5t44 61t53 49t48 52.5t26 61q2 15 0 62l54 6q4 -20 4 -47q0 -44 -19.5 -81.5t-47 -65t-55 -52.5t-47 -54.5t-19.5 -61.5q0 -61 51.5 -96.5t118.5 -42.5zM196 475l7 71h69l-7 -71h-69z" />
    <glyph glyph-name="Agrave" unicode="&#xc0;" horiz-adv-x="621" 
d="M424 736l-207 66l25 58l198 -80zM-30 0l352 707h97l144 -707h-62l-55 279h-276l-138 -279h-62zM195 330h241l-60 306l-9 44l-22 -45z" />
    <glyph glyph-name="Aacute" unicode="&#xc1;" horiz-adv-x="621" 
d="M315 737l-13 43l221 78l14 -57zM-30 0l352 707h97l144 -707h-62l-55 279h-276l-138 -279h-62zM195 330h241l-60 306l-9 44l-22 -45z" />
    <glyph glyph-name="Acircumflex" unicode="&#xc2;" horiz-adv-x="621" 
d="M521 737l-135 73l-156 -72l-16 42l177 85l155 -86zM-30 0l352 707h97l144 -707h-62l-55 279h-276l-138 -279h-62zM195 330h241l-60 306l-9 44l-22 -45z" />
    <glyph glyph-name="Atilde" unicode="&#xc3;" horiz-adv-x="621" 
d="M438 748q-20 0 -62.5 18t-60.5 18q-37 0 -71 -24l-20 35q46 38 96 38q24 0 63.5 -18t59.5 -18q38 0 70 28l20 -36q-47 -41 -95 -41zM-30 0l352 707h97l144 -707h-62l-55 279h-276l-138 -279h-62zM195 330h241l-60 306l-9 44l-22 -45z" />
    <glyph glyph-name="Adieresis" unicode="&#xc4;" horiz-adv-x="621" 
d="M247 764l8 78h57l-8 -78h-57zM445 764l8 78h57l-8 -78h-57zM-30 0l352 707h97l144 -707h-62l-55 279h-276l-138 -279h-62zM195 330h241l-60 306l-9 44l-22 -45z" />
    <glyph glyph-name="Aring" unicode="&#xc5;" horiz-adv-x="621" 
d="M-30 0l352 707h97l144 -707h-62l-55 279h-276l-138 -279h-62zM195 330h241l-60 306l-9 44l-22 -45zM377 736q-35 0 -59.5 19t-24.5 50q0 42 29 68.5t70 26.5q34 0 58 -20.5t24 -50.5q0 -41 -27.5 -67t-69.5 -26zM379 765q25 0 42 16t17 41q0 21 -14.5 34.5t-35.5 13.5
q-26 0 -42.5 -16t-16.5 -41q0 -22 14 -35t36 -13z" />
    <glyph glyph-name="AE" unicode="&#xc6;" horiz-adv-x="892" 
d="M-47 0l474 707h428l-5 -50h-318l-29 -276h297l-6 -52h-296l-30 -279h342l-5 -50h-401l35 329h-204l-214 -329h-68zM269 381h175l29 276h-24z" />
    <glyph glyph-name="Ccedilla" unicode="&#xc7;" horiz-adv-x="635" 
d="M298 -229l-15 31q56 33 62 79q2 25 -18 68h62q16 -30 13 -63q-6 -75 -104 -115zM375 -10q-143 0 -226.5 88t-83.5 234q0 179 103 290t280 111q97 0 158 -27l-22 -49q-63 23 -139 23q-152 0 -235 -95t-83 -252q0 -129 72.5 -198.5t200.5 -69.5q84 0 150 22l12 -52
q-80 -25 -187 -25z" />
    <glyph glyph-name="Egrave" unicode="&#xc8;" horiz-adv-x="562" 
d="M403 736l-207 66l25 58l198 -80zM73 0l75 707h377l-5 -50h-318l-29 -276h296l-5 -52h-296l-30 -279h342l-5 -50h-402z" />
    <glyph glyph-name="Eacute" unicode="&#xc9;" horiz-adv-x="562" 
d="M276 737l-13 43l221 78l14 -57zM73 0l75 707h377l-5 -50h-318l-29 -276h296l-5 -52h-296l-30 -279h342l-5 -50h-402z" />
    <glyph glyph-name="Ecircumflex" unicode="&#xca;" horiz-adv-x="562" 
d="M481 737l-135 73l-156 -72l-16 42l177 85l155 -86zM73 0l75 707h377l-5 -50h-318l-29 -276h296l-5 -52h-296l-30 -279h342l-5 -50h-402z" />
    <glyph glyph-name="Edieresis" unicode="&#xcb;" horiz-adv-x="562" 
d="M222 764l8 78h57l-8 -78h-57zM420 764l8 78h57l-8 -78h-57zM73 0l75 707h377l-5 -50h-318l-29 -276h296l-5 -52h-296l-30 -279h342l-5 -50h-402z" />
    <glyph glyph-name="Igrave" unicode="&#xcc;" horiz-adv-x="270" 
d="M217 736l-207 66l25 58l198 -80zM73 0l75 707h59l-74 -707h-60z" />
    <glyph glyph-name="Iacute" unicode="&#xcd;" horiz-adv-x="270" 
d="M139 737l-13 43l221 78l14 -57zM73 0l75 707h59l-74 -707h-60z" />
    <glyph glyph-name="Icircumflex" unicode="&#xce;" horiz-adv-x="270" 
d="M326 737l-135 73l-156 -72l-16 42l177 85l155 -86zM73 0l75 707h59l-74 -707h-60z" />
    <glyph glyph-name="Idieresis" unicode="&#xcf;" horiz-adv-x="270" 
d="M56 764l8 78h57l-8 -78h-57zM254 764l8 78h57l-8 -78h-57zM73 0l75 707h59l-74 -707h-60z" />
    <glyph glyph-name="Eth" unicode="&#xd0;" horiz-adv-x="742" 
d="M61 327l6 51h69l35 329h172q156 0 249.5 -78.5t93.5 -234.5q0 -193 -106 -293.5t-301 -100.5h-183l34 327h-69zM161 51h131q161 0 247 86.5t86 254.5q0 134 -77 199t-213 65h-110l-30 -278h147l-6 -51h-146z" />
    <glyph glyph-name="Ntilde" unicode="&#xd1;" horiz-adv-x="710" 
d="M474 748q-20 0 -62.5 18t-60.5 18q-37 0 -71 -24l-20 35q46 38 96 38q24 0 63.5 -18t59.5 -18q38 0 70 28l20 -36q-47 -41 -95 -41zM72 0l76 707h99l272 -685l70 685h59l-77 -707h-105l-264 668l-70 -668h-60z" />
    <glyph glyph-name="Ograve" unicode="&#xd2;" horiz-adv-x="798" 
d="M497 736l-207 66l25 58l198 -80zM357 -11q-141 0 -216 87t-75 234q0 180 102.5 294t278.5 114q141 0 218 -87.5t77 -233.5q0 -181 -103.5 -294.5t-281.5 -113.5zM366 40q149 0 231 102t82 256q0 122 -62 194.5t-179 72.5q-146 0 -228.5 -100.5t-82.5 -252.5
q0 -122 60.5 -197t178.5 -75z" />
    <glyph glyph-name="Oacute" unicode="&#xd3;" horiz-adv-x="798" 
d="M365 737l-13 43l221 78l14 -57zM357 -11q-141 0 -216 87t-75 234q0 180 102.5 294t278.5 114q141 0 218 -87.5t77 -233.5q0 -181 -103.5 -294.5t-281.5 -113.5zM366 40q149 0 231 102t82 256q0 122 -62 194.5t-179 72.5q-146 0 -228.5 -100.5t-82.5 -252.5
q0 -122 60.5 -197t178.5 -75z" />
    <glyph glyph-name="Ocircumflex" unicode="&#xd4;" horiz-adv-x="798" 
d="M585 737l-135 73l-156 -72l-16 42l177 85l155 -86zM357 -11q-141 0 -216 87t-75 234q0 180 102.5 294t278.5 114q141 0 218 -87.5t77 -233.5q0 -181 -103.5 -294.5t-281.5 -113.5zM366 40q149 0 231 102t82 256q0 122 -62 194.5t-179 72.5q-146 0 -228.5 -100.5
t-82.5 -252.5q0 -122 60.5 -197t178.5 -75z" />
    <glyph glyph-name="Otilde" unicode="&#xd5;" horiz-adv-x="798" 
d="M506 748q-20 0 -62.5 18t-60.5 18q-37 0 -71 -24l-20 35q46 38 96 38q24 0 63.5 -18t59.5 -18q38 0 70 28l20 -36q-47 -41 -95 -41zM357 -11q-141 0 -216 87t-75 234q0 180 102.5 294t278.5 114q141 0 218 -87.5t77 -233.5q0 -181 -103.5 -294.5t-281.5 -113.5zM366 40
q149 0 231 102t82 256q0 122 -62 194.5t-179 72.5q-146 0 -228.5 -100.5t-82.5 -252.5q0 -122 60.5 -197t178.5 -75z" />
    <glyph glyph-name="Odieresis" unicode="&#xd6;" horiz-adv-x="798" 
d="M319 764l8 78h57l-8 -78h-57zM517 764l8 78h57l-8 -78h-57zM357 -11q-141 0 -216 87t-75 234q0 180 102.5 294t278.5 114q141 0 218 -87.5t77 -233.5q0 -181 -103.5 -294.5t-281.5 -113.5zM366 40q149 0 231 102t82 256q0 122 -62 194.5t-179 72.5q-146 0 -228.5 -100.5
t-82.5 -252.5q0 -122 60.5 -197t178.5 -75z" />
    <glyph glyph-name="multiply" unicode="&#xd7;" horiz-adv-x="544" 
d="M432 86l-166 186l-197 -177l-33 37l196 178l-158 176l40 35l157 -176l202 182l34 -37l-202 -183l166 -186z" />
    <glyph glyph-name="Oslash" unicode="&#xd8;" horiz-adv-x="822" 
d="M89 -25l-36 31l85 90q-59 83 -59 214q0 180 102.5 294t278.5 114q122 0 198 -68l76 80l37 -33l-79 -84q63 -85 63 -216q0 -181 -103.5 -294.5t-281.5 -113.5q-127 0 -201 71zM181 142l436 464q-64 59 -166 59q-146 0 -228.5 -100.5t-82.5 -252.5q0 -103 41 -170zM379 40
q149 0 231 102t82 256q0 100 -43 169l-438 -463q62 -64 168 -64z" />
    <glyph glyph-name="Ugrave" unicode="&#xd9;" horiz-adv-x="712" 
d="M476 736l-207 66l25 58l198 -80zM334 -12q-50 0 -91 9.5t-77.5 31.5t-57 64t-20.5 101q0 11 2 39l50 474h61l-49 -467q-2 -26 -2 -36q0 -164 181 -164q92 0 151.5 50t72.5 175l46 442h56l-47 -445q-8 -79 -35.5 -135.5t-68 -85.5t-82.5 -41t-90 -12z" />
    <glyph glyph-name="Uacute" unicode="&#xda;" horiz-adv-x="712" 
d="M344 737l-13 43l221 78l14 -57zM334 -12q-50 0 -91 9.5t-77.5 31.5t-57 64t-20.5 101q0 11 2 39l50 474h61l-49 -467q-2 -26 -2 -36q0 -164 181 -164q92 0 151.5 50t72.5 175l46 442h56l-47 -445q-8 -79 -35.5 -135.5t-68 -85.5t-82.5 -41t-90 -12z" />
    <glyph glyph-name="Ucircumflex" unicode="&#xdb;" horiz-adv-x="712" 
d="M554 737l-135 73l-156 -72l-16 42l177 85l155 -86zM334 -12q-50 0 -91 9.5t-77.5 31.5t-57 64t-20.5 101q0 11 2 39l50 474h61l-49 -467q-2 -26 -2 -36q0 -164 181 -164q92 0 151.5 50t72.5 175l46 442h56l-47 -445q-8 -79 -35.5 -135.5t-68 -85.5t-82.5 -41t-90 -12z
" />
    <glyph glyph-name="Udieresis" unicode="&#xdc;" horiz-adv-x="712" 
d="M272 764l8 78h57l-8 -78h-57zM470 764l8 78h57l-8 -78h-57zM334 -12q-50 0 -91 9.5t-77.5 31.5t-57 64t-20.5 101q0 11 2 39l50 474h61l-49 -467q-2 -26 -2 -36q0 -164 181 -164q92 0 151.5 50t72.5 175l46 442h56l-47 -445q-8 -79 -35.5 -135.5t-68 -85.5t-82.5 -41
t-90 -12z" />
    <glyph glyph-name="Yacute" unicode="&#xdd;" horiz-adv-x="572" 
d="M273 737l-13 43l221 78l14 -57zM220 0l29 284l-177 423h65l149 -371l243 371h63l-283 -423l-30 -284h-59z" />
    <glyph glyph-name="Thorn" unicode="&#xde;" horiz-adv-x="582" 
d="M73 0l75 707h59l-14 -137h124q53 0 90.5 -6.5t71.5 -24t51.5 -54.5t17.5 -93q0 -119 -73.5 -181.5t-194.5 -62.5h-131l-15 -148h-61zM188 521l-33 -321h110q218 0 218 189q0 73 -41.5 102.5t-118.5 29.5h-135z" />
    <glyph glyph-name="germandbls" unicode="&#xdf;" horiz-adv-x="562" 
d="M28 -220l83 798q11 102 69 149t141 47q56 0 105.5 -38t49.5 -108q0 -35 -22 -70t-48 -58.5t-48 -48.5t-22 -41q0 -30 28 -61.5t61 -56t61 -67t28 -92.5q0 -49 -31.5 -83t-69.5 -46.5t-77 -12.5q-67 0 -139 24l16 50q55 -21 120 -21q51 0 88 23.5t37 55.5q0 36 -18.5 66.5
t-45 53.5t-52.5 45.5t-44.5 53t-18.5 66.5q0 24 14 47t34 42t40.5 38.5t34.5 44.5t14 53q0 37 -29.5 63t-72.5 26q-72 0 -106 -36.5t-41 -108.5l-84 -797h-55z" />
    <glyph glyph-name="agrave" unicode="&#xe0;" horiz-adv-x="499" 
d="M405 619l-168 122l34 45l162 -129zM138 -13q-50 0 -76 44t-26 115q0 64 21.5 133.5t60 130.5t100.5 100.5t134 39.5q57 0 90 -7l-56 -543h-57l12 107q-67 -61 -115 -90.5t-88 -29.5zM150 42q34 0 97 47t100 84l35 325q-9 2 -41 2q-58 0 -107 -35t-78.5 -88.5t-46 -112.5
t-16.5 -112q0 -49 14.5 -79.5t42.5 -30.5z" />
    <glyph glyph-name="aacute" unicode="&#xe1;" horiz-adv-x="499" 
d="M300 622l-27 37l174 137l34 -46zM138 -13q-50 0 -76 44t-26 115q0 64 21.5 133.5t60 130.5t100.5 100.5t134 39.5q57 0 90 -7l-56 -543h-57l12 107q-67 -61 -115 -90.5t-88 -29.5zM150 42q34 0 97 47t100 84l35 325q-9 2 -41 2q-58 0 -107 -35t-78.5 -88.5t-46 -112.5
t-16.5 -112q0 -49 14.5 -79.5t42.5 -30.5z" />
    <glyph glyph-name="acircumflex" unicode="&#xe2;" horiz-adv-x="499" 
d="M493 626l-136 90l-155 -90l-23 39l185 111l154 -111zM138 -13q-50 0 -76 44t-26 115q0 64 21.5 133.5t60 130.5t100.5 100.5t134 39.5q57 0 90 -7l-56 -543h-57l12 107q-67 -61 -115 -90.5t-88 -29.5zM150 42q34 0 97 47t100 84l35 325q-9 2 -41 2q-58 0 -107 -35
t-78.5 -88.5t-46 -112.5t-16.5 -112q0 -49 14.5 -79.5t42.5 -30.5z" />
    <glyph glyph-name="atilde" unicode="&#xe3;" horiz-adv-x="499" 
d="M412 649q-19 0 -62 18t-61 18q-37 0 -71 -24l-20 35q1 1 6 5t9.5 7.5t13 8.5t17.5 8.5t22.5 6t27.5 2.5q24 0 63.5 -18t59.5 -18q38 0 70 28l20 -36q-41 -41 -95 -41zM138 -13q-50 0 -76 44t-26 115q0 64 21.5 133.5t60 130.5t100.5 100.5t134 39.5q57 0 90 -7l-56 -543
h-57l12 107q-67 -61 -115 -90.5t-88 -29.5zM150 42q34 0 97 47t100 84l35 325q-9 2 -41 2q-58 0 -107 -35t-78.5 -88.5t-46 -112.5t-16.5 -112q0 -49 14.5 -79.5t42.5 -30.5z" />
    <glyph glyph-name="adieresis" unicode="&#xe4;" horiz-adv-x="499" 
d="M234 676l8 78h57l-8 -78h-57zM421 676l8 78h57l-8 -78h-57zM138 -13q-50 0 -76 44t-26 115q0 64 21.5 133.5t60 130.5t100.5 100.5t134 39.5q57 0 90 -7l-56 -543h-57l12 107q-67 -61 -115 -90.5t-88 -29.5zM150 42q34 0 97 47t100 84l35 325q-9 2 -41 2q-58 0 -107 -35
t-78.5 -88.5t-46 -112.5t-16.5 -112q0 -49 14.5 -79.5t42.5 -30.5z" />
    <glyph glyph-name="aring" unicode="&#xe5;" horiz-adv-x="499" 
d="M355 623q-39 0 -66 21.5t-27 55.5q0 46 32 75.5t78 29.5q37 0 64 -22.5t27 -56.5q0 -46 -31 -74.5t-77 -28.5zM357 655q28 0 47 18t19 46q0 24 -15.5 38.5t-39.5 14.5q-29 0 -47.5 -18t-18.5 -46q0 -24 15.5 -38.5t39.5 -14.5zM138 -13q-50 0 -76 44t-26 115
q0 64 21.5 133.5t60 130.5t100.5 100.5t134 39.5q57 0 90 -7l-56 -543h-57l12 107q-67 -61 -115 -90.5t-88 -29.5zM150 42q34 0 97 47t100 84l35 325q-9 2 -41 2q-58 0 -107 -35t-78.5 -88.5t-46 -112.5t-16.5 -112q0 -49 14.5 -79.5t42.5 -30.5z" />
    <glyph glyph-name="ae" unicode="&#xe6;" horiz-adv-x="756" 
d="M140 -13q-49 0 -74 49t-25 128q0 165 89.5 275.5t222.5 110.5q42 0 90 -8l-9 -70q66 89 168 89q126 0 126 -119q0 -88 -132 -138l-188 -72q0 -6 -0.5 -16.5t-0.5 -15.5q0 -159 69 -159q54 0 171 54l21 -45q-2 -1 -15.5 -8t-17 -9t-16.5 -8.5t-18.5 -8.5t-18.5 -7t-21 -7
t-20.5 -5.5t-23 -5t-23.5 -2.5t-26 -1q-95 0 -112 129q-135 -130 -216 -130zM152 42q34 0 95.5 46.5t99.5 84.5l35 324l-49 2q-63 2 -118.5 -45.5t-86.5 -120.5t-31 -148q0 -84 14 -113.5t41 -29.5zM414 286l167 67q91 36 91 87q0 37 -21 53.5t-52 16.5q-44 0 -78.5 -19.5
t-55 -54t-32.5 -71t-19 -79.5z" />
    <glyph glyph-name="ccedilla" unicode="&#xe7;" horiz-adv-x="444" 
d="M154 -229l-15 31q56 33 62 79q2 25 -18 68h62q16 -30 13 -63q-6 -75 -104 -115zM165 -12q-34 0 -58.5 20t-37 51.5t-18 62.5t-5.5 61q0 161 70.5 269t189.5 108q74 0 122 -50l-35 -34q-42 35 -93 35q-54 0 -94 -32t-60.5 -82.5t-30 -101t-9.5 -100.5q0 -72 18.5 -113
t42.5 -41q77 0 190 60l21 -42q-37 -22 -60.5 -34t-66.5 -24.5t-86 -12.5z" />
    <glyph glyph-name="egrave" unicode="&#xe8;" horiz-adv-x="456" 
d="M327 619l-168 122l34 45l162 -129zM168 -12q-63 0 -91 56.5t-28 145.5q0 159 67.5 265t185.5 106q63 0 94.5 -33.5t31.5 -85.5q0 -88 -132 -138l-188 -72q-1 -10 -1 -31q0 -160 68 -160q65 0 173 54l20 -45q-84 -44 -130 -54q-35 -8 -70 -8zM113 286l168 67q91 36 91 87
q0 37 -21 53.5t-52 16.5q-149 0 -186 -224z" />
    <glyph glyph-name="eacute" unicode="&#xe9;" horiz-adv-x="456" 
d="M231 622l-27 37l174 137l34 -46zM168 -12q-63 0 -91 56.5t-28 145.5q0 159 67.5 265t185.5 106q63 0 94.5 -33.5t31.5 -85.5q0 -88 -132 -138l-188 -72q-1 -10 -1 -31q0 -160 68 -160q65 0 173 54l20 -45q-84 -44 -130 -54q-35 -8 -70 -8zM113 286l168 67q91 36 91 87
q0 37 -21 53.5t-52 16.5q-149 0 -186 -224z" />
    <glyph glyph-name="ecircumflex" unicode="&#xea;" horiz-adv-x="456" 
d="M440 626l-136 90l-155 -90l-23 39l185 111l154 -111zM168 -12q-63 0 -91 56.5t-28 145.5q0 159 67.5 265t185.5 106q63 0 94.5 -33.5t31.5 -85.5q0 -88 -132 -138l-188 -72q-1 -10 -1 -31q0 -160 68 -160q65 0 173 54l20 -45q-84 -44 -130 -54q-35 -8 -70 -8zM113 286
l168 67q91 36 91 87q0 37 -21 53.5t-52 16.5q-149 0 -186 -224z" />
    <glyph glyph-name="edieresis" unicode="&#xeb;" horiz-adv-x="456" 
d="M182 676l8 78h57l-8 -78h-57zM369 676l8 78h57l-8 -78h-57zM168 -12q-63 0 -91 56.5t-28 145.5q0 159 67.5 265t185.5 106q63 0 94.5 -33.5t31.5 -85.5q0 -88 -132 -138l-188 -72q-1 -10 -1 -31q0 -160 68 -160q65 0 173 54l20 -45q-84 -44 -130 -54q-35 -8 -70 -8z
M113 286l168 67q91 36 91 87q0 37 -21 53.5t-52 16.5q-149 0 -186 -224z" />
    <glyph glyph-name="igrave" unicode="&#xec;" horiz-adv-x="221" 
d="M177 619l-168 122l34 45l162 -129zM51 0l57 546h56l-57 -546h-56z" />
    <glyph glyph-name="iacute" unicode="&#xed;" horiz-adv-x="221" 
d="M101 622l-27 37l174 137l34 -46zM51 0l57 546h56l-57 -546h-56z" />
    <glyph glyph-name="icircumflex" unicode="&#xee;" horiz-adv-x="221" 
d="M297 626l-136 90l-155 -90l-23 39l185 111l154 -111zM51 0l57 546h56l-57 -546h-56z" />
    <glyph glyph-name="idieresis" unicode="&#xef;" horiz-adv-x="221" 
d="M28 676l8 78h57l-8 -78h-57zM215 676l8 78h57l-8 -78h-57zM51 0l57 546h56l-57 -546h-56z" />
    <glyph glyph-name="eth" unicode="&#xf0;" horiz-adv-x="511" 
d="M192 -12q-68 0 -107.5 56t-39.5 131q0 176 73.5 279.5t190.5 103.5q34 0 62 -14q-12 43 -35 88l-108 -33l-14 47l96 29q-25 34 -52 55l35 39q40 -29 73 -77l110 34l14 -47l-99 -30q63 -126 63 -287q0 -62 -14.5 -124.5t-44 -120t-82.5 -93.5t-121 -36zM216 39
q77 0 129 92t52 230q0 76 -27.5 113t-87.5 37q-71 0 -124.5 -95.5t-53.5 -222.5q0 -154 112 -154z" />
    <glyph glyph-name="ntilde" unicode="&#xf1;" horiz-adv-x="512" 
d="M376 649q-19 0 -62 18t-61 18q-37 0 -71 -24l-20 35q1 1 6 5t9.5 7.5t13 8.5t17.5 8.5t22.5 6t27.5 2.5q24 0 63.5 -18t59.5 -18q38 0 70 28l20 -36q-41 -41 -95 -41zM51 0l57 546h57l-10 -98q4 3 19.5 16.5t20 17.5t18.5 15.5t19.5 15.5t18.5 12.5t20.5 12t19.5 9
t21.5 7.5t21.5 4t24 2q49 0 69 -25t20 -78q0 -31 -4 -63l-43 -394h-56l42 381q4 32 4 61q0 36 -11 51t-39 15q-32 0 -72.5 -25t-118.5 -91l-42 -392h-56z" />
    <glyph glyph-name="ograve" unicode="&#xf2;" horiz-adv-x="505" 
d="M340 619l-168 122l34 45l162 -129zM193 -12q-68 0 -108 54.5t-40 132.5q0 176 73.5 280.5t190.5 104.5q69 0 107 -54.5t38 -126.5t-14.5 -138.5t-44 -124.5t-82 -93t-120.5 -35zM210 38q77 0 131.5 93t54.5 230q0 77 -25 113.5t-84 36.5q-75 0 -129 -94t-54 -224
q0 -155 106 -155z" />
    <glyph glyph-name="oacute" unicode="&#xf3;" horiz-adv-x="505" 
d="M256 622l-27 37l174 137l34 -46zM193 -12q-68 0 -108 54.5t-40 132.5q0 176 73.5 280.5t190.5 104.5q69 0 107 -54.5t38 -126.5t-14.5 -138.5t-44 -124.5t-82 -93t-120.5 -35zM210 38q77 0 131.5 93t54.5 230q0 77 -25 113.5t-84 36.5q-75 0 -129 -94t-54 -224
q0 -155 106 -155z" />
    <glyph glyph-name="ocircumflex" unicode="&#xf4;" horiz-adv-x="505" 
d="M460 626l-136 90l-155 -90l-23 39l185 111l154 -111zM193 -12q-68 0 -108 54.5t-40 132.5q0 176 73.5 280.5t190.5 104.5q69 0 107 -54.5t38 -126.5t-14.5 -138.5t-44 -124.5t-82 -93t-120.5 -35zM210 38q77 0 131.5 93t54.5 230q0 77 -25 113.5t-84 36.5q-75 0 -129 -94
t-54 -224q0 -155 106 -155z" />
    <glyph glyph-name="otilde" unicode="&#xf5;" horiz-adv-x="505" 
d="M370 649q-19 0 -62 18t-61 18q-37 0 -71 -24l-20 35q1 1 6 5t9.5 7.5t13 8.5t17.5 8.5t22.5 6t27.5 2.5q24 0 63.5 -18t59.5 -18q38 0 70 28l20 -36q-41 -41 -95 -41zM193 -12q-68 0 -108 54.5t-40 132.5q0 176 73.5 280.5t190.5 104.5q69 0 107 -54.5t38 -126.5
t-14.5 -138.5t-44 -124.5t-82 -93t-120.5 -35zM210 38q77 0 131.5 93t54.5 230q0 77 -25 113.5t-84 36.5q-75 0 -129 -94t-54 -224q0 -155 106 -155z" />
    <glyph glyph-name="odieresis" unicode="&#xf6;" horiz-adv-x="505" 
d="M182 676l8 78h57l-8 -78h-57zM369 676l8 78h57l-8 -78h-57zM193 -12q-68 0 -108 54.5t-40 132.5q0 176 73.5 280.5t190.5 104.5q69 0 107 -54.5t38 -126.5t-14.5 -138.5t-44 -124.5t-82 -93t-120.5 -35zM210 38q77 0 131.5 93t54.5 230q0 77 -25 113.5t-84 36.5
q-75 0 -129 -94t-54 -224q0 -155 106 -155z" />
    <glyph glyph-name="divide" unicode="&#xf7;" horiz-adv-x="653" 
d="M263 74l7 65h64l-7 -65h-64zM71 277l5 50h505l-5 -50h-505zM305 469l7 66h64l-7 -66h-64z" />
    <glyph glyph-name="oslash" unicode="&#xf8;" horiz-adv-x="538" 
d="M29 -28l-34 29l82 96q-12 41 -12 78q0 174 74 279.5t190 105.5q63 0 104 -51l55 63l34 -28l-65 -77q17 -42 17 -88q0 -72 -14.5 -138.5t-44 -124.5t-82 -93t-120.5 -35q-73 0 -115 64zM127 154l269 312q-26 45 -89 45q-73 0 -128 -91.5t-55 -226.5zM230 38q77 0 131.5 93
t54.5 230q0 24 -4 54l-274 -317q23 -60 92 -60z" />
    <glyph glyph-name="ugrave" unicode="&#xf9;" horiz-adv-x="512" 
d="M332 619l-168 122l34 45l162 -129zM158 -11q-53 0 -75.5 26.5t-22.5 82.5q0 22 3 47l43 401h56l-42 -379q-4 -35 -4 -64q0 -38 11.5 -52.5t40.5 -14.5q33 0 68.5 19t59 40t61.5 60l42 391h56l-58 -546h-56l10 98q-54 -55 -96.5 -82t-96.5 -27z" />
    <glyph glyph-name="uacute" unicode="&#xfa;" horiz-adv-x="512" 
d="M258 622l-27 37l174 137l34 -46zM158 -11q-53 0 -75.5 26.5t-22.5 82.5q0 22 3 47l43 401h56l-42 -379q-4 -35 -4 -64q0 -38 11.5 -52.5t40.5 -14.5q33 0 68.5 19t59 40t61.5 60l42 391h56l-58 -546h-56l10 98q-54 -55 -96.5 -82t-96.5 -27z" />
    <glyph glyph-name="ucircumflex" unicode="&#xfb;" horiz-adv-x="512" 
d="M444 626l-136 90l-155 -90l-23 39l185 111l154 -111zM158 -11q-53 0 -75.5 26.5t-22.5 82.5q0 22 3 47l43 401h56l-42 -379q-4 -35 -4 -64q0 -38 11.5 -52.5t40.5 -14.5q33 0 68.5 19t59 40t61.5 60l42 391h56l-58 -546h-56l10 98q-54 -55 -96.5 -82t-96.5 -27z" />
    <glyph glyph-name="udieresis" unicode="&#xfc;" horiz-adv-x="512" 
d="M173 676l8 78h57l-8 -78h-57zM360 676l8 78h57l-8 -78h-57zM158 -11q-53 0 -75.5 26.5t-22.5 82.5q0 22 3 47l43 401h56l-42 -379q-4 -35 -4 -64q0 -38 11.5 -52.5t40.5 -14.5q33 0 68.5 19t59 40t61.5 60l42 391h56l-58 -546h-56l10 98q-54 -55 -96.5 -82t-96.5 -27z
" />
    <glyph glyph-name="yacute" unicode="&#xfd;" horiz-adv-x="460" 
d="M226 622l-27 37l174 137l34 -46zM70 -220l106 220h-41l-87 546h62l77 -517l160 334q20 42 33.5 91t13.5 80q0 2 -0.5 6t-0.5 6h57v-12q0 -76 -47 -175l-275 -579h-58z" />
    <glyph glyph-name="thorn" unicode="&#xfe;" horiz-adv-x="519" 
d="M25 -220l107 973h55l-30 -281q113 80 185 80q62 0 95 -36.5t33 -120.5q0 -101 -29.5 -189.5t-96.5 -150t-161 -61.5q-38 0 -78 7l-24 -221h-56zM190 44q47 0 86.5 25t64 63t41 86t23.5 92.5t7 84.5q0 60 -17.5 84t-52.5 24q-64 0 -192 -94l-39 -353q9 -2 21 -4.5t18.5 -4
t17 -2.5t22.5 -1z" />
    <glyph glyph-name="ydieresis" unicode="&#xff;" horiz-adv-x="460" 
d="M143 676l8 78h57l-8 -78h-57zM330 676l8 78h57l-8 -78h-57zM70 -220l106 220h-41l-87 546h62l77 -517l160 334q20 42 33.5 91t13.5 80q0 2 -0.5 6t-0.5 6h57v-12q0 -76 -47 -175l-275 -579h-58z" />
    <glyph glyph-name="Amacron" unicode="&#x100;" horiz-adv-x="621" 
d="M241 765l5 48h271l-5 -48h-271zM-30 0l352 707h97l144 -707h-62l-55 279h-276l-138 -279h-62zM195 330h241l-60 306l-9 44l-22 -45z" />
    <glyph glyph-name="amacron" unicode="&#x101;" horiz-adv-x="499" 
d="M224 675l5 48h251l-5 -48h-251zM138 -13q-50 0 -76 44t-26 115q0 64 21.5 133.5t60 130.5t100.5 100.5t134 39.5q57 0 90 -7l-56 -543h-57l12 107q-67 -61 -115 -90.5t-88 -29.5zM150 42q34 0 97 47t100 84l35 325q-9 2 -41 2q-58 0 -107 -35t-78.5 -88.5t-46 -112.5
t-16.5 -112q0 -49 14.5 -79.5t42.5 -30.5z" />
    <glyph glyph-name="Abreve" unicode="&#x102;" horiz-adv-x="621" 
d="M371 753q-42 0 -78 25t-50 53l35 29q38 -59 101 -59q70 0 112 58l27 -26q-61 -80 -147 -80zM-30 0l352 707h97l144 -707h-62l-55 279h-276l-138 -279h-62zM195 330h241l-60 306l-9 44l-22 -45z" />
    <glyph glyph-name="abreve" unicode="&#x103;" horiz-adv-x="499" 
d="M343 652q-42 0 -78 25t-50 53l35 29q38 -59 101 -59q70 0 112 58l27 -26q-61 -80 -147 -80zM138 -13q-50 0 -76 44t-26 115q0 64 21.5 133.5t60 130.5t100.5 100.5t134 39.5q57 0 90 -7l-56 -543h-57l12 107q-67 -61 -115 -90.5t-88 -29.5zM150 42q34 0 97 47t100 84
l35 325q-9 2 -41 2q-58 0 -107 -35t-78.5 -88.5t-46 -112.5t-16.5 -112q0 -49 14.5 -79.5t42.5 -30.5z" />
    <glyph glyph-name="Aogonek" unicode="&#x104;" horiz-adv-x="621" 
d="M489 -217q-107 0 -97 100q6 63 107 125l-53 271h-276l-138 -279h-62l352 707h97l144 -707q-39 -22 -75.5 -54t-39.5 -60q-4 -31 12.5 -42.5t51.5 -11.5q27 0 39 8l11 -44q-22 -13 -73 -13zM195 330h241l-69 350z" />
    <glyph glyph-name="aogonek" unicode="&#x105;" horiz-adv-x="499" 
d="M311 -217q-50 0 -73.5 25t-23.5 66q0 38 35.5 75.5t80.5 63.5l11 94q-67 -61 -115 -90.5t-88 -29.5q-50 0 -76 44t-26 115q0 64 21.5 133.5t60 130.5t100.5 100.5t134 39.5q57 0 90 -7l-57 -543q-40 -23 -77.5 -55.5t-37.5 -60.5q0 -31 15 -41.5t49 -10.5q27 0 39 8
l11 -44q-22 -13 -73 -13zM150 42q34 0 97 47t100 84l35 325q-9 2 -41 2q-58 0 -107 -35t-78.5 -88.5t-46 -112.5t-16.5 -112q0 -49 14.5 -79.5t42.5 -30.5z" />
    <glyph glyph-name="Cacute" unicode="&#x106;" horiz-adv-x="635" 
d="M352 737l-13 43l221 78l14 -57zM375 -10q-143 0 -226.5 88t-83.5 234q0 179 103 290t280 111q97 0 158 -27l-22 -49q-63 23 -139 23q-152 0 -235 -95t-83 -252q0 -129 72.5 -198.5t200.5 -69.5q84 0 150 22l12 -52q-80 -25 -187 -25z" />
    <glyph glyph-name="cacute" unicode="&#x107;" horiz-adv-x="445" 
d="M247 622l-27 37l174 137l34 -46zM165 -12q-34 0 -58.5 20t-37 51.5t-18 62.5t-5.5 61q0 161 70.5 269t189.5 108q74 0 122 -50l-35 -34q-42 35 -93 35q-54 0 -94 -32t-60.5 -82.5t-30 -101t-9.5 -100.5q0 -72 18.5 -113t42.5 -41q77 0 190 60l21 -42q-37 -22 -60.5 -34
t-66.5 -24.5t-86 -12.5z" />
    <glyph glyph-name="Ccircumflex" unicode="&#x108;" horiz-adv-x="635" 
d="M592 737l-135 73l-156 -72l-16 42l177 85l155 -86zM375 -10q-143 0 -226.5 88t-83.5 234q0 179 103 290t280 111q97 0 158 -27l-22 -49q-63 23 -139 23q-152 0 -235 -95t-83 -252q0 -129 72.5 -198.5t200.5 -69.5q84 0 150 22l12 -52q-80 -25 -187 -25z" />
    <glyph glyph-name="ccircumflex" unicode="&#x109;" horiz-adv-x="445" 
d="M451 626l-136 90l-155 -90l-23 39l185 111l154 -111zM165 -12q-34 0 -58.5 20t-37 51.5t-18 62.5t-5.5 61q0 161 70.5 269t189.5 108q74 0 122 -50l-35 -34q-42 35 -93 35q-54 0 -94 -32t-60.5 -82.5t-30 -101t-9.5 -100.5q0 -72 18.5 -113t42.5 -41q77 0 190 60l21 -42
q-37 -22 -60.5 -34t-66.5 -24.5t-86 -12.5z" />
    <glyph glyph-name="Cdotaccent" unicode="&#x10a;" horiz-adv-x="635" 
d="M419 765l8 78h57l-8 -78h-57zM375 -10q-143 0 -226.5 88t-83.5 234q0 179 103 290t280 111q97 0 158 -27l-22 -49q-63 23 -139 23q-152 0 -235 -95t-83 -252q0 -129 72.5 -198.5t200.5 -69.5q84 0 150 22l12 -52q-80 -25 -187 -25z" />
    <glyph glyph-name="cdotaccent" unicode="&#x10b;" horiz-adv-x="445" 
d="M286 676l8 78h57l-8 -78h-57zM165 -12q-34 0 -58.5 20t-37 51.5t-18 62.5t-5.5 61q0 161 70.5 269t189.5 108q74 0 122 -50l-35 -34q-42 35 -93 35q-54 0 -94 -32t-60.5 -82.5t-30 -101t-9.5 -100.5q0 -72 18.5 -113t42.5 -41q77 0 190 60l21 -42q-37 -22 -60.5 -34
t-66.5 -24.5t-86 -12.5z" />
    <glyph glyph-name="Ccaron" unicode="&#x10c;" horiz-adv-x="635" 
d="M413 737l-155 86l25 42l135 -73l155 72l17 -42zM375 -10q-143 0 -226.5 88t-83.5 234q0 179 103 290t280 111q97 0 158 -27l-22 -49q-63 23 -139 23q-152 0 -235 -95t-83 -252q0 -129 72.5 -198.5t200.5 -69.5q84 0 150 22l12 -52q-80 -25 -187 -25z" />
    <glyph glyph-name="ccaron" unicode="&#x10d;" horiz-adv-x="445" 
d="M293 626l-155 111l26 39l135 -93l156 93l22 -39zM165 -12q-34 0 -58.5 20t-37 51.5t-18 62.5t-5.5 61q0 161 70.5 269t189.5 108q74 0 122 -50l-35 -34q-42 35 -93 35q-54 0 -94 -32t-60.5 -82.5t-30 -101t-9.5 -100.5q0 -72 18.5 -113t42.5 -41q77 0 190 60l21 -42
q-37 -22 -60.5 -34t-66.5 -24.5t-86 -12.5z" />
    <glyph glyph-name="Dcaron" unicode="&#x10e;" horiz-adv-x="719" 
d="M339 737l-155 86l25 42l135 -73l155 72l17 -42zM73 0l75 707h172q156 0 249.5 -78.5t93.5 -234.5q0 -193 -106 -293.5t-301 -100.5h-183zM138 51h131q161 0 247 86.5t86 254.5q0 134 -77 199t-213 65h-110z" />
    <glyph glyph-name="dcaron" unicode="&#x10f;" horiz-adv-x="503" 
d="M500 554l46 201h54l-54 -201h-46zM140 -13q-52 0 -75 50t-23 127q0 170 91 279t228 107q5 0 15.5 -0.5t14.5 -0.5l22 205h56l-81 -754h-56l11 107q-118 -120 -203 -120zM152 42q40 0 96.5 41t100.5 89l35 328q-22 2 -51 2q-96 0 -166 -100t-70 -217q0 -84 14 -113.5
t41 -29.5z" />
    <glyph glyph-name="Dcroat" unicode="&#x110;" horiz-adv-x="742" 
d="M61 328l6 50h69l35 329h172q156 0 249.5 -78.5t93.5 -234.5q0 -193 -106 -293.5t-301 -100.5h-183l35 328h-70zM161 51h131q161 0 247 86.5t86 254.5q0 134 -77 199t-213 65h-110l-29 -278h146l-6 -50h-146z" />
    <glyph glyph-name="dcroat" unicode="&#x111;" horiz-adv-x="503" 
d="M248 623l5 45h151l9 86h56l-9 -86h91l-5 -45h-91l-67 -623h-56l11 107q-118 -120 -203 -120q-52 0 -75 50t-23 127q0 170 91 279t228 107q5 0 15.5 -0.5t14.5 -0.5l8 74h-151zM152 42q40 0 96.5 41t100.5 89l35 328q-22 2 -51 2q-96 0 -166 -100t-70 -217
q0 -84 14 -113.5t41 -29.5z" />
    <glyph glyph-name="Emacron" unicode="&#x112;" horiz-adv-x="562" 
d="M205 765l5 48h271l-5 -48h-271zM73 0l75 707h377l-5 -50h-318l-29 -276h296l-5 -52h-296l-30 -279h342l-5 -50h-402z" />
    <glyph glyph-name="emacron" unicode="&#x113;" horiz-adv-x="456" 
d="M180 675l5 48h251l-5 -48h-251zM168 -12q-63 0 -91 56.5t-28 145.5q0 159 67.5 265t185.5 106q63 0 94.5 -33.5t31.5 -85.5q0 -88 -132 -138l-188 -72q-1 -10 -1 -31q0 -160 68 -160q65 0 173 54l20 -45q-84 -44 -130 -54q-35 -8 -70 -8zM113 286l168 67q91 36 91 87
q0 37 -21 53.5t-52 16.5q-149 0 -186 -224z" />
    <glyph glyph-name="Ebreve" unicode="&#x114;" horiz-adv-x="562" 
d="M342 753q-42 0 -78 25t-50 53l35 29q38 -59 101 -59q70 0 112 58l27 -26q-61 -80 -147 -80zM73 0l75 707h377l-5 -50h-318l-29 -276h296l-5 -52h-296l-30 -279h342l-5 -50h-402z" />
    <glyph glyph-name="ebreve" unicode="&#x115;" horiz-adv-x="456" 
d="M309 652q-42 0 -78 25t-50 53l35 29q38 -59 101 -59q70 0 112 58l27 -26q-61 -80 -147 -80zM168 -12q-63 0 -91 56.5t-28 145.5q0 159 67.5 265t185.5 106q63 0 94.5 -33.5t31.5 -85.5q0 -88 -132 -138l-188 -72q-1 -10 -1 -31q0 -160 68 -160q65 0 173 54l20 -45
q-84 -44 -130 -54q-35 -8 -70 -8zM113 286l168 67q91 36 91 87q0 37 -21 53.5t-52 16.5q-149 0 -186 -224z" />
    <glyph glyph-name="Edotaccent" unicode="&#x116;" horiz-adv-x="562" 
d="M314 765l8 78h57l-8 -78h-57zM73 0l75 707h377l-5 -50h-318l-29 -276h296l-5 -52h-296l-30 -279h342l-5 -50h-402z" />
    <glyph glyph-name="edotaccent" unicode="&#x117;" horiz-adv-x="456" 
d="M255 677l8 78h57l-8 -78h-57zM168 -12q-63 0 -91 56.5t-28 145.5q0 159 67.5 265t185.5 106q63 0 94.5 -33.5t31.5 -85.5q0 -88 -132 -138l-188 -72q-1 -10 -1 -31q0 -160 68 -160q65 0 173 54l20 -45q-84 -44 -130 -54q-35 -8 -70 -8zM113 286l168 67q91 36 91 87
q0 37 -21 53.5t-52 16.5q-149 0 -186 -224z" />
    <glyph glyph-name="Eogonek" unicode="&#x118;" horiz-adv-x="562" 
d="M400 -217q-107 0 -97 100q6 58 95 117h-325l75 707h377l-5 -50h-318l-29 -276h296l-5 -52h-296l-30 -279h342l-6 -50q-40 -22 -76 -54t-39 -60q-4 -31 12.5 -42.5t51.5 -11.5q27 0 39 8l11 -44q-22 -13 -73 -13z" />
    <glyph glyph-name="eogonek" unicode="&#x119;" horiz-adv-x="457" 
d="M255 -217q-46 0 -69.5 24t-23.5 65q0 55 74 124q-34 -8 -68 -8q-63 0 -91 56.5t-28 145.5q0 159 67.5 265t185.5 106q63 0 94.5 -33.5t31.5 -85.5q0 -88 -132 -138l-188 -72q-1 -10 -1 -31q0 -160 68 -160q65 0 173 54l20 -45q-51 -30 -100.5 -82t-49.5 -87q0 -50 53 -50
q22 0 51 9l11 -44q-32 -13 -78 -13zM113 286l168 67q91 36 91 87q0 37 -21 53.5t-52 16.5q-149 0 -186 -224z" />
    <glyph glyph-name="Ecaron" unicode="&#x11a;" horiz-adv-x="562" 
d="M332 737l-155 86l25 42l135 -73l155 72l17 -42zM73 0l75 707h377l-5 -50h-318l-29 -276h296l-5 -52h-296l-30 -279h342l-5 -50h-402z" />
    <glyph glyph-name="ecaron" unicode="&#x11b;" horiz-adv-x="456" 
d="M279 626l-155 111l26 39l135 -93l156 93l22 -39zM168 -12q-63 0 -91 56.5t-28 145.5q0 159 67.5 265t185.5 106q63 0 94.5 -33.5t31.5 -85.5q0 -88 -132 -138l-188 -72q-1 -10 -1 -31q0 -160 68 -160q65 0 173 54l20 -45q-84 -44 -130 -54q-35 -8 -70 -8zM113 286l168 67
q91 36 91 87q0 37 -21 53.5t-52 16.5q-149 0 -186 -224z" />
    <glyph glyph-name="Gcircumflex" unicode="&#x11c;" horiz-adv-x="659" 
d="M588 737l-135 73l-156 -72l-16 42l177 85l155 -86zM376 -10q-143 0 -227 88t-84 235q0 178 102.5 289t278.5 111q99 0 157 -25l-23 -49q-62 21 -137 21q-151 0 -233.5 -95t-82.5 -252q0 -129 72.5 -198.5t201.5 -69.5q59 0 104 14l29 291h60l-34 -328q-48 -18 -85.5 -25
t-98.5 -7z" />
    <glyph glyph-name="gcircumflex" unicode="&#x11d;" horiz-adv-x="498" 
d="M484 626l-136 90l-155 -90l-23 39l185 111l154 -111zM142 -231q-75 0 -164 19l13 55q88 -22 139 -22q87 0 136.5 31.5t59.5 123.5l14 131q-67 -63 -113.5 -91.5t-89.5 -28.5q-99 0 -99 160q0 158 91.5 280.5t221.5 122.5q57 0 90 -7l-61 -582q-7 -69 -45 -113.5
t-86.5 -61.5t-106.5 -17zM149 42q34 0 97 47t100 84l35 325q-10 2 -41 2q-69 0 -127 -53t-88.5 -131.5t-30.5 -159.5q0 -66 14.5 -90t40.5 -24z" />
    <glyph glyph-name="Gbreve" unicode="&#x11e;" horiz-adv-x="659" 
d="M425 753q-42 0 -78 25t-50 53l35 29q38 -59 101 -59q70 0 112 58l27 -26q-61 -80 -147 -80zM376 -10q-143 0 -227 88t-84 235q0 178 102.5 289t278.5 111q99 0 157 -25l-23 -49q-62 21 -137 21q-151 0 -233.5 -95t-82.5 -252q0 -129 72.5 -198.5t201.5 -69.5q59 0 104 14
l29 291h60l-34 -328q-48 -18 -85.5 -25t-98.5 -7z" />
    <glyph glyph-name="gbreve" unicode="&#x11f;" horiz-adv-x="498" 
d="M327 652q-42 0 -78 25t-50 53l35 29q38 -59 101 -59q70 0 112 58l27 -26q-61 -80 -147 -80zM142 -231q-75 0 -164 19l13 55q88 -22 139 -22q87 0 136.5 31.5t59.5 123.5l14 131q-67 -63 -113.5 -91.5t-89.5 -28.5q-99 0 -99 160q0 158 91.5 280.5t221.5 122.5q57 0 90 -7
l-61 -582q-7 -69 -45 -113.5t-86.5 -61.5t-106.5 -17zM149 42q34 0 97 47t100 84l35 325q-10 2 -41 2q-69 0 -127 -53t-88.5 -131.5t-30.5 -159.5q0 -66 14.5 -90t40.5 -24z" />
    <glyph glyph-name="Gdotaccent" unicode="&#x120;" horiz-adv-x="659" 
d="M432 765l8 78h57l-8 -78h-57zM376 -10q-143 0 -227 88t-84 235q0 178 102.5 289t278.5 111q99 0 157 -25l-23 -49q-62 21 -137 21q-151 0 -233.5 -95t-82.5 -252q0 -129 72.5 -198.5t201.5 -69.5q59 0 104 14l29 291h60l-34 -328q-48 -18 -85.5 -25t-98.5 -7z" />
    <glyph glyph-name="gdotaccent" unicode="&#x121;" horiz-adv-x="498" 
d="M307 677l8 78h57l-8 -78h-57zM142 -231q-75 0 -164 19l13 55q88 -22 139 -22q87 0 136.5 31.5t59.5 123.5l14 131q-67 -63 -113.5 -91.5t-89.5 -28.5q-99 0 -99 160q0 158 91.5 280.5t221.5 122.5q57 0 90 -7l-61 -582q-7 -69 -45 -113.5t-86.5 -61.5t-106.5 -17zM149 42
q34 0 97 47t100 84l35 325q-10 2 -41 2q-69 0 -127 -53t-88.5 -131.5t-30.5 -159.5q0 -66 14.5 -90t40.5 -24z" />
    <glyph glyph-name="Gcommaaccent" unicode="&#x122;" horiz-adv-x="660" 
d="M311 -260l46 201h54l-54 -201h-46zM376 -10q-143 0 -227 88t-84 235q0 178 102.5 289t278.5 111q99 0 157 -25l-23 -49q-62 21 -137 21q-151 0 -233.5 -95t-82.5 -252q0 -129 72.5 -198.5t201.5 -69.5q59 0 104 14l29 291h60l-34 -328q-48 -18 -85.5 -25t-98.5 -7z" />
    <glyph glyph-name="gcommaaccent" unicode="&#x123;" horiz-adv-x="498" 
d="M142 -231q-75 0 -164 19l13 55q88 -22 139 -22q87 0 136.5 31.5t59.5 123.5l14 131q-67 -63 -113.5 -91.5t-89.5 -28.5q-99 0 -99 160q0 158 91.5 280.5t221.5 122.5q57 0 90 -7l-61 -582q-7 -69 -45 -113.5t-86.5 -61.5t-106.5 -17zM149 42q34 0 97 47t100 84l35 325
q-10 2 -41 2q-69 0 -127 -53t-88.5 -131.5t-30.5 -159.5q0 -66 14.5 -90t40.5 -24zM422 807l-46 -201h-54l54 201h46z" />
    <glyph glyph-name="Hcircumflex" unicode="&#x124;" horiz-adv-x="728" 
d="M552 737l-135 73l-156 -72l-16 42l177 85l155 -86zM73 0l75 707h59l-34 -327h398l34 327h60l-74 -707h-60l35 329h-398l-35 -329h-60z" />
    <glyph glyph-name="hcircumflex" unicode="&#x125;" horiz-adv-x="511" 
d="M301 737l-135 73l-156 -72l-16 42l177 85l155 -86zM50 0l80 754h57l-33 -306q4 3 19.5 16.5t20 17.5t18.5 15.5t19.5 15.5t18.5 12.5t20.5 12t19.5 9t21.5 7.5t21.5 4t24 2q49 0 69 -25t20 -78q0 -31 -4 -63l-43 -394h-56l42 381q4 32 4 61q0 36 -11 51t-39 15
q-32 0 -72.5 -25t-118.5 -91l-42 -392h-56z" />
    <glyph glyph-name="Hbar" unicode="&#x126;" horiz-adv-x="757" 
d="M76 502l5 48h64l17 157h59l-17 -157h398l17 157h60l-17 -157h73l-5 -48h-73l-52 -502h-60l35 329h-398l-35 -329h-60l53 502h-64zM187 380h398l12 122h-398z" />
    <glyph glyph-name="hbar" unicode="&#x127;" horiz-adv-x="511" 
d="M31 623l5 45h85l9 86h57l-9 -86h140l-5 -45h-140l-19 -175q4 3 19.5 16.5t20 17.5t18.5 15.5t19.5 15.5t18.5 12.5t20.5 12t19.5 9t21.5 7.5t21.5 4t24 2q49 0 69 -25t20 -78q0 -31 -4 -63l-43 -394h-56l42 381q4 32 4 61q0 36 -11 51t-39 15q-32 0 -72.5 -25t-118.5 -91
l-42 -392h-56l66 623h-85z" />
    <glyph glyph-name="Itilde" unicode="&#x128;" horiz-adv-x="270" 
d="M242 748q-20 0 -62.5 18t-60.5 18q-37 0 -71 -24l-20 35q46 38 96 38q24 0 63.5 -18t59.5 -18q38 0 70 28l20 -36q-47 -41 -95 -41zM73 0l75 707h59l-74 -707h-60z" />
    <glyph glyph-name="itilde" unicode="&#x129;" horiz-adv-x="221" 
d="M221 649q-19 0 -62 18t-61 18q-36 0 -71 -24l-20 35q1 1 6 5t9.5 7.5t13 8.5t17.5 8.5t22.5 6t27.5 2.5q24 0 63.5 -18t59.5 -18q38 0 70 28l20 -36q-41 -41 -95 -41zM51 0l57 546h56l-57 -546h-56z" />
    <glyph glyph-name="Imacron" unicode="&#x12a;" horiz-adv-x="270" 
d="M48 765l5 48h271l-5 -48h-271zM73 0l75 707h59l-74 -707h-60z" />
    <glyph glyph-name="imacron" unicode="&#x12b;" horiz-adv-x="221" 
d="M31 675l5 48h251l-5 -48h-251zM51 0l57 546h56l-57 -546h-56z" />
    <glyph glyph-name="Ibreve" unicode="&#x12c;" horiz-adv-x="270" 
d="M178 753q-42 0 -78 25t-50 53l35 29q38 -59 101 -59q70 0 112 58l27 -26q-61 -80 -147 -80zM73 0l75 707h59l-74 -707h-60z" />
    <glyph glyph-name="ibreve" unicode="&#x12d;" horiz-adv-x="221" 
d="M143 652q-42 0 -78 25t-50 53l35 29q38 -59 101 -59q70 0 112 58l27 -26q-61 -80 -147 -80zM51 0l57 546h56l-57 -546h-56z" />
    <glyph glyph-name="Iogonek" unicode="&#x12e;" horiz-adv-x="269" 
d="M59 -217q-107 0 -97 100q7 65 112 128l74 696h59l-76 -708q-108 -64 -113 -113q-4 -31 12.5 -42.5t51.5 -11.5q27 0 39 8l11 -44q-22 -13 -73 -13z" />
    <glyph glyph-name="iogonek" unicode="&#x12f;" horiz-adv-x="221" 
d="M115 -160l11 -44q-30 -12 -63 -12q-49 0 -78 23t-29 68q0 33 29.5 72.5t66.5 65.5l56 533h56l-57 -546q-32 -18 -63.5 -55t-31.5 -66q0 -46 59 -46q26 0 44 7zM124 676l8 78h57l-8 -78h-57z" />
    <glyph glyph-name="Idotaccent" unicode="&#x130;" horiz-adv-x="270" 
d="M154 765l8 78h57l-8 -78h-57zM73 0l75 707h59l-74 -707h-60z" />
    <glyph glyph-name="dotlessi" unicode="&#x131;" horiz-adv-x="221" 
d="M51 0l57 546h56l-57 -546h-56z" />
    <glyph glyph-name="IJ" unicode="&#x132;" horiz-adv-x="544" 
d="M73 0l75 707h59l-74 -707h-60zM212 -184l-23 44q91 48 127 112t48 179l59 556h59l-58 -554q-13 -128 -61.5 -209t-150.5 -128z" />
    <glyph glyph-name="ij" unicode="&#x133;" horiz-adv-x="461" 
d="M51 0l57 546h56l-57 -546h-56zM157 -220q-35 0 -62 10l13 51q32 -10 60 -10q63 0 87.5 37t32.5 111l60 567h56l-60 -568q-11 -108 -59.5 -153t-127.5 -45zM124 676l8 78h57l-8 -78h-57zM363 676l8 78h57l-8 -78h-57z" />
    <glyph glyph-name="Jcircumflex" unicode="&#x134;" horiz-adv-x="270" 
d="M328 737l-135 73l-156 -72l-16 42l177 85l155 -86zM-62 -184l-23 44q91 48 127 112t48 179l59 556h59l-58 -554q-13 -128 -61.5 -209t-150.5 -128z" />
    <glyph glyph-name="jcircumflex" unicode="&#x135;" horiz-adv-x="221" 
d="M293 626l-136 90l-155 -90l-23 39l185 111l154 -111zM-83 -220q-35 0 -62 10l13 51q33 -10 60 -10q63 0 87.5 37t32.5 111l60 567h56l-60 -568q-11 -108 -59.5 -153t-127.5 -45z" />
    <glyph glyph-name="Kcommaaccent" unicode="&#x136;" horiz-adv-x="581" 
d="M476 -13l-269 378l2 20l308 322h77l-320 -326l255 -362zM73 0l75 707h59l-74 -707h-60zM198 -260l46 201h54l-54 -201h-46z" />
    <glyph glyph-name="kcommaaccent" unicode="&#x137;" horiz-adv-x="465" 
d="M370 -17l-201 308l203 255h70l-205 -255l186 -278zM50 0l79 754h57l-80 -754h-56zM144 -259l46 201h54l-54 -201h-46z" />
    <glyph glyph-name="uni0138" unicode="&#x138;" horiz-adv-x="466" 
d="M370 -17l-201 308l203 255h70l-205 -255l186 -278zM51 0l57 546h56l-57 -546h-56z" />
    <glyph glyph-name="Lacute" unicode="&#x139;" horiz-adv-x="472" 
d="M167 737l-13 43l221 78l14 -57zM73 0l75 707h59l-68 -653h307l-6 -54h-367z" />
    <glyph glyph-name="lacute" unicode="&#x13a;" horiz-adv-x="221" 
d="M126 783l-13 43l221 78l14 -57zM50 0l79 754h57l-80 -754h-56z" />
    <glyph glyph-name="Lcommaaccent" unicode="&#x13b;" horiz-adv-x="473" 
d="M186 -260l46 201h54l-54 -201h-46zM73 0l75 707h59l-68 -653h307l-6 -54h-367z" />
    <glyph glyph-name="lcommaaccent" unicode="&#x13c;" horiz-adv-x="220" 
d="M10 -259l46 201h54l-54 -201h-46zM50 0l79 754h57l-80 -754h-56z" />
    <glyph glyph-name="Lcaron" unicode="&#x13d;" horiz-adv-x="472" 
d="M73 0l75 707h59l-68 -653h307l-6 -54h-367zM266 556l46 201h54l-54 -201h-46z" />
    <glyph glyph-name="lcaron" unicode="&#x13e;" horiz-adv-x="251" 
d="M213 554l46 201h54l-54 -201h-46zM50 0l79 754h57l-80 -754h-56z" />
    <glyph glyph-name="Ldot" unicode="&#x13f;" horiz-adv-x="472" 
d="M73 0l75 707h59l-68 -653h307l-6 -54h-367zM300 317l7 71h69l-7 -71h-69z" />
    <glyph glyph-name="ldot" unicode="&#x140;" horiz-adv-x="263" 
d="M50 0l79 754h57l-80 -754h-56zM218 317l7 71h69l-7 -71h-69z" />
    <glyph glyph-name="Lslash" unicode="&#x141;" horiz-adv-x="496" 
d="M45 280l5 51l87 48l35 328h59l-31 -293l138 76l-5 -54l-138 -75l-32 -307h307l-6 -54h-367l34 327z" />
    <glyph glyph-name="lslash" unicode="&#x142;" horiz-adv-x="293" 
d="M30 295l6 52l82 43l38 364h57l-35 -332l92 50l-5 -50l-93 -50l-39 -372h-56l35 339z" />
    <glyph glyph-name="Nacute" unicode="&#x143;" horiz-adv-x="710" 
d="M361 737l-13 43l221 78l14 -57zM72 0l76 707h99l272 -685l70 685h59l-77 -707h-105l-264 668l-70 -668h-60z" />
    <glyph glyph-name="nacute" unicode="&#x144;" horiz-adv-x="512" 
d="M262 622l-27 37l174 137l34 -46zM51 0l57 546h57l-10 -98q4 3 19.5 16.5t20 17.5t18.5 15.5t19.5 15.5t18.5 12.5t20.5 12t19.5 9t21.5 7.5t21.5 4t24 2q49 0 69 -25t20 -78q0 -31 -4 -63l-43 -394h-56l42 381q4 32 4 61q0 36 -11 51t-39 15q-32 0 -72.5 -25t-118.5 -91
l-42 -392h-56z" />
    <glyph glyph-name="Ncommaaccent" unicode="&#x145;" horiz-adv-x="709" 
d="M240 -260l46 201h54l-54 -201h-46zM72 0l76 707h99l272 -685l70 685h59l-77 -707h-105l-264 668l-70 -668h-60z" />
    <glyph glyph-name="ncommaaccent" unicode="&#x146;" horiz-adv-x="511" 
d="M164 -259l46 201h54l-54 -201h-46zM50 0l57 546h57l-10 -98q4 3 19.5 16.5t20 17.5t18.5 15.5t19.5 15.5t18.5 12.5t20.5 12t19.5 9t21.5 7.5t21.5 4t24 2q49 0 69 -25t20 -78q0 -31 -4 -63l-43 -394h-56l42 381q4 32 4 61q0 36 -11 51t-39 15q-32 0 -72.5 -25
t-118.5 -91l-42 -392h-56z" />
    <glyph glyph-name="Ncaron" unicode="&#x147;" horiz-adv-x="710" 
d="M405 737l-155 86l25 42l135 -73l155 72l17 -42zM72 0l76 707h99l272 -685l70 685h59l-77 -707h-105l-264 668l-70 -668h-60z" />
    <glyph glyph-name="ncaron" unicode="&#x148;" horiz-adv-x="512" 
d="M303 626l-155 111l26 39l135 -93l156 93l22 -39zM51 0l57 546h57l-10 -98q4 3 19.5 16.5t20 17.5t18.5 15.5t19.5 15.5t18.5 12.5t20.5 12t19.5 9t21.5 7.5t21.5 4t24 2q49 0 69 -25t20 -78q0 -31 -4 -63l-43 -394h-56l42 381q4 32 4 61q0 36 -11 51t-39 15
q-32 0 -72.5 -25t-118.5 -91l-42 -392h-56z" />
    <glyph glyph-name="napostrophe" unicode="&#x149;" horiz-adv-x="512" 
d="M-6 572q37 91 44 193h65q-1 -20 -3 -38t-7 -35.5t-8 -29t-11 -27.5t-10.5 -22t-12 -22.5t-10.5 -18.5h-47zM51 0l57 546h57l-10 -98q4 3 19.5 16.5t20 17.5t18.5 15.5t19.5 15.5t18.5 12.5t20.5 12t19.5 9t21.5 7.5t21.5 4t24 2q49 0 69 -25t20 -78q0 -31 -4 -63
l-43 -394h-56l42 381q4 32 4 61q0 36 -11 51t-39 15q-32 0 -72.5 -25t-118.5 -91l-42 -392h-56z" />
    <glyph glyph-name="Eng" unicode="&#x14a;" horiz-adv-x="709" 
d="M381 -220q-35 0 -62 10l13 51q32 -10 60 -10q63 0 87.5 37t32.5 111l2 21h-48l-264 668l-70 -668h-60l76 707h99l272 -685l70 685h59l-81 -739q-11 -102 -55 -145t-131 -43z" />
    <glyph glyph-name="eng" unicode="&#x14b;" horiz-adv-x="512" 
d="M210 -220q-35 0 -62 10l13 51q33 -10 60 -10q63 0 87.5 37t32.5 111l45 402q4 44 4 57q0 40 -12 55t-41 15q-30 0 -72.5 -27.5t-115.5 -88.5l-42 -392h-56l57 546h57l-10 -98q1 0 26 22.5t38 32t38 26t48.5 24t46.5 7.5q53 0 74 -24t21 -77q0 -33 -4 -65l-46 -416
q-11 -108 -59.5 -153t-127.5 -45z" />
    <glyph glyph-name="Omacron" unicode="&#x14c;" horiz-adv-x="798" 
d="M310 765l5 48h271l-5 -48h-271zM357 -11q-141 0 -216 87t-75 234q0 180 102.5 294t278.5 114q141 0 218 -87.5t77 -233.5q0 -181 -103.5 -294.5t-281.5 -113.5zM366 40q149 0 231 102t82 256q0 122 -62 194.5t-179 72.5q-146 0 -228.5 -100.5t-82.5 -252.5
q0 -122 60.5 -197t178.5 -75z" />
    <glyph glyph-name="omacron" unicode="&#x14d;" horiz-adv-x="505" 
d="M180 675l5 48h251l-5 -48h-251zM193 -12q-68 0 -108 54.5t-40 132.5q0 176 73.5 280.5t190.5 104.5q69 0 107 -54.5t38 -126.5t-14.5 -138.5t-44 -124.5t-82 -93t-120.5 -35zM210 38q77 0 131.5 93t54.5 230q0 77 -25 113.5t-84 36.5q-75 0 -129 -94t-54 -224
q0 -155 106 -155z" />
    <glyph glyph-name="Obreve" unicode="&#x14e;" horiz-adv-x="798" 
d="M444 753q-42 0 -78 25t-50 53l35 29q38 -59 101 -59q70 0 112 58l27 -26q-61 -80 -147 -80zM357 -11q-141 0 -216 87t-75 234q0 180 102.5 294t278.5 114q141 0 218 -87.5t77 -233.5q0 -181 -103.5 -294.5t-281.5 -113.5zM366 40q149 0 231 102t82 256q0 122 -62 194.5
t-179 72.5q-146 0 -228.5 -100.5t-82.5 -252.5q0 -122 60.5 -197t178.5 -75z" />
    <glyph glyph-name="obreve" unicode="&#x14f;" horiz-adv-x="505" 
d="M292 652q-42 0 -78 25t-50 53l35 29q38 -59 101 -59q70 0 112 58l27 -26q-61 -80 -147 -80zM193 -12q-68 0 -108 54.5t-40 132.5q0 176 73.5 280.5t190.5 104.5q69 0 107 -54.5t38 -126.5t-14.5 -138.5t-44 -124.5t-82 -93t-120.5 -35zM210 38q77 0 131.5 93t54.5 230
q0 77 -25 113.5t-84 36.5q-75 0 -129 -94t-54 -224q0 -155 106 -155z" />
    <glyph glyph-name="Ohungarumlaut" unicode="&#x150;" horiz-adv-x="798" 
d="M310 738l-26 37l188 141l30 -50zM485 737l-13 43l221 78l14 -57zM357 -11q-141 0 -216 87t-75 234q0 180 102.5 294t278.5 114q141 0 218 -87.5t77 -233.5q0 -181 -103.5 -294.5t-281.5 -113.5zM366 40q149 0 231 102t82 256q0 122 -62 194.5t-179 72.5
q-146 0 -228.5 -100.5t-82.5 -252.5q0 -122 60.5 -197t178.5 -75z" />
    <glyph glyph-name="ohungarumlaut" unicode="&#x151;" horiz-adv-x="505" 
d="M176 619l-20 39l195 131l28 -51zM403 624l-25 36l174 126l32 -47zM193 -12q-68 0 -108 54.5t-40 132.5q0 176 73.5 280.5t190.5 104.5q69 0 107 -54.5t38 -126.5t-14.5 -138.5t-44 -124.5t-82 -93t-120.5 -35zM210 38q77 0 131.5 93t54.5 230q0 77 -25 113.5t-84 36.5
q-75 0 -129 -94t-54 -224q0 -155 106 -155z" />
    <glyph glyph-name="OE" unicode="&#x152;" horiz-adv-x="1084" 
d="M357 -11q-141 0 -216 87t-75 234q0 180 102.5 294t278.5 114q137 0 215 -84l8 73h377l-5 -50h-318l-29 -276h296l-5 -52h-296l-30 -279h342l-5 -50h-402l8 69q-99 -80 -246 -80zM366 42q161 0 247 122l39 373q-58 126 -214 126q-146 0 -228.5 -99.5t-82.5 -251.5
q0 -122 60.5 -196t178.5 -74z" />
    <glyph glyph-name="oe" unicode="&#x153;" horiz-adv-x="791" 
d="M193 -12q-68 0 -108 54.5t-40 132.5q0 176 73.5 280.5t190.5 104.5q52 0 86.5 -32t49.5 -83q70 116 192 116q63 0 94.5 -33.5t31.5 -85.5q0 -88 -132 -138l-188 -72q-1 -10 -1 -31q0 -160 68 -160q65 0 173 54l20 -45q-84 -44 -130 -54q-35 -8 -70 -8q-89 0 -112 120
q-71 -120 -198 -120zM210 38q77 0 131.5 93t54.5 230q0 77 -25 113.5t-84 36.5q-72 0 -127.5 -93t-55.5 -225q0 -155 106 -155zM448 286l168 67q91 36 91 87q0 37 -21 53.5t-52 16.5q-149 0 -186 -224z" />
    <glyph glyph-name="Racute" unicode="&#x154;" horiz-adv-x="628" 
d="M525 -12l-199 326q-34 -4 -94 -4h-64l-34 -310h-61l75 707h206q91 0 145.5 -44.5t54.5 -122.5q0 -76 -43 -134t-123 -78l195 -314zM173 362h101q102 0 158.5 44t56.5 133q0 119 -161 119h-125zM268 737l-13 43l221 78l14 -57z" />
    <glyph glyph-name="racute" unicode="&#x155;" horiz-adv-x="338" 
d="M197 622l-27 37l174 137l34 -46zM51 0l57 546h56l-10 -101q29 29 46 45t60 41t77 25q9 0 23 -2l-11 -51q-4 1 -16 1q-10 0 -22 -4t-22.5 -9t-25.5 -14.5t-25 -16.5t-26 -20t-23 -18.5t-22.5 -19t-18.5 -15.5l-41 -387h-56z" />
    <glyph glyph-name="Rcommaaccent" unicode="&#x156;" horiz-adv-x="628" 
d="M525 -12l-199 326q-34 -4 -94 -4h-64l-34 -310h-61l75 707h206q91 0 145.5 -44.5t54.5 -122.5q0 -76 -43 -134t-123 -78l195 -314zM173 362h101q102 0 158.5 44t56.5 133q0 119 -161 119h-125zM220 -260l46 201h54l-54 -201h-46z" />
    <glyph glyph-name="rcommaaccent" unicode="&#x157;" horiz-adv-x="336" 
d="M12 -259l46 201h54l-54 -201h-46zM50 0l57 546h56l-10 -101q29 29 46 45t60 41t77 25q9 0 23 -2l-11 -51q-3 1 -16 1q-10 0 -22 -4t-22.5 -9t-25.5 -14.5t-25 -16.5t-26 -20t-23 -18.5t-22.5 -19t-18.5 -15.5l-41 -387h-56z" />
    <glyph glyph-name="Rcaron" unicode="&#x158;" horiz-adv-x="628" 
d="M525 -12l-199 326q-34 -4 -94 -4h-64l-34 -310h-61l75 707h206q91 0 145.5 -44.5t54.5 -122.5q0 -76 -43 -134t-123 -78l195 -314zM173 362h101q102 0 158.5 44t56.5 133q0 119 -161 119h-125zM326 737l-155 86l25 42l135 -73l155 72l17 -42z" />
    <glyph glyph-name="rcaron" unicode="&#x159;" horiz-adv-x="338" 
d="M235 626l-155 111l26 39l135 -93l156 93l22 -39zM51 0l57 546h56l-10 -101q29 29 46 45t60 41t77 25q9 0 23 -2l-11 -51q-4 1 -16 1q-10 0 -22 -4t-22.5 -9t-25.5 -14.5t-25 -16.5t-26 -20t-23 -18.5t-22.5 -19t-18.5 -15.5l-41 -387h-56z" />
    <glyph glyph-name="Sacute" unicode="&#x15a;" horiz-adv-x="511" 
d="M253 737l-13 43l221 78l14 -57zM207 -11q-45 0 -102 14.5t-86 33.5l25 53q96 -47 167 -47q174 0 174 147q0 38 -29.5 70.5t-72 58t-85 54t-72 72t-29.5 97.5q0 82 61.5 127t153.5 45q48 0 95.5 -12t72.5 -27l-19 -50q-76 36 -153 36q-68 0 -110.5 -28.5t-42.5 -92.5
q0 -39 29.5 -72.5t71.5 -60.5t84.5 -56t72 -71t29.5 -92q0 -94 -65.5 -146.5t-169.5 -52.5z" />
    <glyph glyph-name="sacute" unicode="&#x15b;" horiz-adv-x="407" 
d="M212 622l-27 37l174 137l34 -46zM148 -9q-87 0 -139 23l17 52q67 -24 126 -24q19 0 38.5 3.5t43 12t38 28t14.5 46.5q0 33 -22 61t-53 49.5t-62 44t-53 54.5t-22 71q0 74 49 108.5t123 34.5q72 0 132 -29l-19 -45q-72 26 -128 26q-43 0 -73.5 -20t-30.5 -64
q0 -33 22 -60.5t53.5 -48.5t62.5 -44t53 -57t22 -77q0 -73 -57 -109t-135 -36z" />
    <glyph glyph-name="Scircumflex" unicode="&#x15c;" horiz-adv-x="511" 
d="M459 737l-135 73l-156 -72l-16 42l177 85l155 -86zM207 -11q-45 0 -102 14.5t-86 33.5l25 53q96 -47 167 -47q174 0 174 147q0 38 -29.5 70.5t-72 58t-85 54t-72 72t-29.5 97.5q0 82 61.5 127t153.5 45q48 0 95.5 -12t72.5 -27l-19 -50q-76 36 -153 36
q-68 0 -110.5 -28.5t-42.5 -92.5q0 -39 29.5 -72.5t71.5 -60.5t84.5 -56t72 -71t29.5 -92q0 -94 -65.5 -146.5t-169.5 -52.5z" />
    <glyph glyph-name="scircumflex" unicode="&#x15d;" horiz-adv-x="407" 
d="M390 626l-136 90l-155 -90l-23 39l185 111l154 -111zM148 -9q-87 0 -139 23l17 52q67 -24 126 -24q19 0 38.5 3.5t43 12t38 28t14.5 46.5q0 33 -22 61t-53 49.5t-62 44t-53 54.5t-22 71q0 74 49 108.5t123 34.5q72 0 132 -29l-19 -45q-72 26 -128 26q-43 0 -73.5 -20
t-30.5 -64q0 -33 22 -60.5t53.5 -48.5t62.5 -44t53 -57t22 -77q0 -73 -57 -109t-135 -36z" />
    <glyph glyph-name="Scedilla" unicode="&#x15e;" horiz-adv-x="511" 
d="M151 -229l-15 31q56 33 62 79q2 25 -18 68h62q16 -30 13 -63q-6 -75 -104 -115zM206 -11q-45 0 -102 14.5t-86 33.5l25 53q96 -47 167 -47q174 0 174 147q0 38 -29.5 70.5t-72 58t-85 54t-72 72t-29.5 97.5q0 82 61.5 127t153.5 45q48 0 95.5 -12t72.5 -27l-19 -50
q-76 36 -153 36q-68 0 -110.5 -28.5t-42.5 -92.5q0 -33 21.5 -62.5t53 -51t69 -47.5t69 -50.5t53 -61t21.5 -79.5q0 -94 -65.5 -146.5t-169.5 -52.5z" />
    <glyph glyph-name="scedilla" unicode="&#x15f;" horiz-adv-x="407" 
d="M89 -229l-15 31q56 33 62 79q2 25 -18 68h62q16 -30 13 -63q-6 -75 -104 -115zM147 -9q-87 0 -139 23l17 52q67 -24 126 -24q19 0 38.5 3.5t43 12t38 28t14.5 46.5q0 33 -22 61t-53 49.5t-62 44t-53 54.5t-22 71q0 74 49 108.5t123 34.5q72 0 132 -29l-19 -45
q-72 26 -128 26q-43 0 -73.5 -20t-30.5 -64q0 -33 22 -60.5t53 -48.5t62.5 -44t53.5 -57t22 -77q0 -73 -57 -109t-135 -36z" />
    <glyph glyph-name="Scaron" unicode="&#x160;" horiz-adv-x="511" 
d="M299 737l-155 86l25 42l135 -73l155 72l17 -42zM207 -11q-45 0 -102 14.5t-86 33.5l25 53q96 -47 167 -47q174 0 174 147q0 38 -29.5 70.5t-72 58t-85 54t-72 72t-29.5 97.5q0 82 61.5 127t153.5 45q48 0 95.5 -12t72.5 -27l-19 -50q-76 36 -153 36q-68 0 -110.5 -28.5
t-42.5 -92.5q0 -39 29.5 -72.5t71.5 -60.5t84.5 -56t72 -71t29.5 -92q0 -94 -65.5 -146.5t-169.5 -52.5z" />
    <glyph glyph-name="scaron" unicode="&#x161;" horiz-adv-x="407" 
d="M253 626l-155 111l26 39l135 -93l156 93l22 -39zM148 -9q-87 0 -139 23l17 52q67 -24 126 -24q19 0 38.5 3.5t43 12t38 28t14.5 46.5q0 33 -22 61t-53 49.5t-62 44t-53 54.5t-22 71q0 74 49 108.5t123 34.5q72 0 132 -29l-19 -45q-72 26 -128 26q-43 0 -73.5 -20
t-30.5 -64q0 -33 22 -60.5t53.5 -48.5t62.5 -44t53 -57t22 -77q0 -73 -57 -109t-135 -36z" />
    <glyph glyph-name="Tcommaaccent" unicode="&#x162;" horiz-adv-x="557" 
d="M173 -260l46 201h54l-54 -201h-46zM215 0l68 654h-246l6 53h552l-6 -53h-246l-69 -654h-59z" />
    <glyph glyph-name="tcommaaccent" unicode="&#x163;" horiz-adv-x="358" 
d="M113 -259l46 201h54l-54 -201h-46zM173 -12q-39 0 -65 25t-28 76q-2 19 1 38l41 368h-80l5 51h80l11 112h56l-11 -112h177l-5 -51h-177l-40 -363q-10 -91 52 -91q52 0 112 35l15 -44q-63 -44 -144 -44z" />
    <glyph glyph-name="Tcaron" unicode="&#x164;" horiz-adv-x="560" 
d="M319 737l-155 86l25 42l135 -73l155 72l17 -42zM217 0l68 654h-246l6 53h552l-6 -53h-246l-69 -654h-59z" />
    <glyph glyph-name="tcaron" unicode="&#x165;" horiz-adv-x="356" 
d="M264 606l46 201h54l-54 -201h-46zM172 -12q-39 0 -65 25t-28 76q-2 19 1 38l41 368h-80l5 51h80l11 112h56l-11 -112h177l-5 -51h-177l-40 -363q-10 -91 52 -91q53 0 112 35l15 -44q-63 -44 -144 -44z" />
    <glyph glyph-name="Tbar" unicode="&#x166;" horiz-adv-x="560" 
d="M97 353l5 45h156l27 256h-246l6 53h552l-6 -53h-246l-27 -256h157l-5 -45h-157l-37 -353h-59l36 353h-156z" />
    <glyph glyph-name="tbar" unicode="&#x167;" horiz-adv-x="356" 
d="M38 304l5 45h61l17 146h-80l5 51h80l11 112h56l-11 -112h177l-5 -51h-177l-16 -146h163l-5 -45h-163l-19 -172q-10 -91 52 -91q53 0 112 35l15 -44q-63 -44 -144 -44q-39 0 -65 25t-28 76q-2 19 1 38l19 177h-61z" />
    <glyph glyph-name="Utilde" unicode="&#x168;" horiz-adv-x="712" 
d="M475 748q-20 0 -62.5 18t-60.5 18q-36 0 -71 -24l-20 35q46 38 96 38q24 0 63.5 -18t59.5 -18q38 0 70 28l20 -36q-47 -41 -95 -41zM334 -12q-50 0 -91 9.5t-77.5 31.5t-57 64t-20.5 101q0 11 2 39l50 474h61l-49 -467q-2 -26 -2 -36q0 -164 181 -164q92 0 151.5 50
t72.5 175l46 442h56l-47 -445q-8 -79 -35.5 -135.5t-68 -85.5t-82.5 -41t-90 -12z" />
    <glyph glyph-name="utilde" unicode="&#x169;" horiz-adv-x="512" 
d="M384 649q-19 0 -62 18t-61 18q-37 0 -71 -24l-20 35q1 1 6 5t9.5 7.5t13 8.5t17.5 8.5t22.5 6t27.5 2.5q24 0 63.5 -18t59.5 -18q38 0 70 28l20 -36q-41 -41 -95 -41zM158 -11q-53 0 -75.5 26.5t-22.5 82.5q0 22 3 47l43 401h56l-42 -379q-4 -35 -4 -64q0 -38 11.5 -52.5
t40.5 -14.5q33 0 68.5 19t59 40t61.5 60l42 391h56l-58 -546h-56l10 98q-54 -55 -96.5 -82t-96.5 -27z" />
    <glyph glyph-name="Umacron" unicode="&#x16a;" horiz-adv-x="712" 
d="M269 765l5 48h271l-5 -48h-271zM334 -12q-50 0 -91 9.5t-77.5 31.5t-57 64t-20.5 101q0 11 2 39l50 474h61l-49 -467q-2 -26 -2 -36q0 -164 181 -164q92 0 151.5 50t72.5 175l46 442h56l-47 -445q-8 -79 -35.5 -135.5t-68 -85.5t-82.5 -41t-90 -12z" />
    <glyph glyph-name="umacron" unicode="&#x16b;" horiz-adv-x="512" 
d="M170 675l5 48h251l-5 -48h-251zM158 -11q-53 0 -75.5 26.5t-22.5 82.5q0 22 3 47l43 401h56l-42 -379q-4 -35 -4 -64q0 -38 11.5 -52.5t40.5 -14.5q33 0 68.5 19t59 40t61.5 60l42 391h56l-58 -546h-56l10 98q-54 -55 -96.5 -82t-96.5 -27z" />
    <glyph glyph-name="Ubreve" unicode="&#x16c;" horiz-adv-x="712" 
d="M407 742q-42 0 -78 25t-50 53l35 29q38 -59 101 -59q70 0 112 58l27 -26q-61 -80 -147 -80zM334 -12q-50 0 -91 9.5t-77.5 31.5t-57 64t-20.5 101q0 11 2 39l50 474h61l-49 -467q-2 -26 -2 -36q0 -164 181 -164q92 0 151.5 50t72.5 175l46 442h56l-47 -445
q-8 -79 -35.5 -135.5t-68 -85.5t-82.5 -41t-90 -12z" />
    <glyph glyph-name="ubreve" unicode="&#x16d;" horiz-adv-x="512" 
d="M299 652q-42 0 -78 25t-50 53l35 29q38 -59 101 -59q70 0 112 58l27 -26q-61 -80 -147 -80zM158 -11q-53 0 -75.5 26.5t-22.5 82.5q0 22 3 47l43 401h56l-42 -379q-4 -35 -4 -64q0 -38 11.5 -52.5t40.5 -14.5q33 0 68.5 19t59 40t61.5 60l42 391h56l-58 -546h-56l10 98
q-54 -55 -96.5 -82t-96.5 -27z" />
    <glyph glyph-name="Uring" unicode="&#x16e;" horiz-adv-x="712" 
d="M402 706q-35 0 -59.5 19t-24.5 50q0 42 29 68.5t70 26.5q34 0 58 -20.5t24 -50.5q0 -41 -27.5 -67t-69.5 -26zM404 735q25 0 42 16t17 41q0 21 -14.5 34.5t-35.5 13.5q-26 0 -42.5 -16t-16.5 -41q0 -22 14 -35t36 -13zM334 -12q-50 0 -91 9.5t-77.5 31.5t-57 64
t-20.5 101q0 11 2 39l50 474h61l-49 -467q-2 -26 -2 -36q0 -164 181 -164q92 0 151.5 50t72.5 175l46 442h56l-47 -445q-8 -79 -35.5 -135.5t-68 -85.5t-82.5 -41t-90 -12z" />
    <glyph glyph-name="uring" unicode="&#x16f;" horiz-adv-x="512" 
d="M298 623q-39 0 -66 21.5t-27 55.5q0 46 32 75.5t78 29.5q37 0 64 -22.5t27 -56.5q0 -46 -31 -74.5t-77 -28.5zM300 655q28 0 47 18t19 46q0 24 -15.5 38.5t-39.5 14.5q-29 0 -47.5 -18t-18.5 -46q0 -24 15.5 -38.5t39.5 -14.5zM158 -11q-53 0 -75.5 26.5t-22.5 82.5
q0 22 3 47l43 401h56l-42 -379q-4 -35 -4 -64q0 -38 11.5 -52.5t40.5 -14.5q33 0 68.5 19t59 40t61.5 60l42 391h56l-58 -546h-56l10 98q-54 -55 -96.5 -82t-96.5 -27z" />
    <glyph glyph-name="Uhungarumlaut" unicode="&#x170;" horiz-adv-x="712" 
d="M270 738l-26 37l188 141l30 -50zM445 737l-13 43l221 78l14 -57zM334 -12q-50 0 -91 9.5t-77.5 31.5t-57 64t-20.5 101q0 11 2 39l50 474h61l-49 -467q-2 -26 -2 -36q0 -164 181 -164q92 0 151.5 50t72.5 175l46 442h56l-47 -445q-8 -79 -35.5 -135.5t-68 -85.5
t-82.5 -41t-90 -12z" />
    <glyph glyph-name="uhungarumlaut" unicode="&#x171;" horiz-adv-x="512" 
d="M174 619l-20 39l195 131l28 -51zM401 624l-25 36l174 126l32 -47zM158 -11q-53 0 -75.5 26.5t-22.5 82.5q0 22 3 47l43 401h56l-42 -379q-4 -35 -4 -64q0 -38 11.5 -52.5t40.5 -14.5q33 0 68.5 19t59 40t61.5 60l42 391h56l-58 -546h-56l10 98q-54 -55 -96.5 -82
t-96.5 -27z" />
    <glyph glyph-name="Uogonek" unicode="&#x172;" horiz-adv-x="717" 
d="M351 -217q-107 0 -97 100q5 52 77 105q-242 2 -242 205q0 26 2 40l50 474h61l-49 -467q-2 -26 -2 -36q0 -164 181 -164q92 0 151.5 50t72.5 175l46 442h56l-47 -445q-22 -217 -186 -262q-110 -66 -115 -114q-4 -31 12.5 -42.5t51.5 -11.5q27 0 39 8l11 -44
q-22 -13 -73 -13z" />
    <glyph glyph-name="uogonek" unicode="&#x173;" horiz-adv-x="510" 
d="M322 -217q-107 0 -97 100q6 66 116 130l9 85q-29 -30 -50 -48.5t-62.5 -39.5t-80.5 -21q-53 0 -75.5 26.5t-22.5 82.5q0 22 3 47l43 401h56l-42 -379q-5 -47 -5 -68q0 -35 11.5 -49t41.5 -14q11 0 23 2.5t25 8.5t23.5 11.5t24 16t21.5 16t22 18t18.5 16.5t17.5 17l14 13
l42 391h56l-59 -546q-40 -23 -75.5 -54.5t-38.5 -59.5q-4 -31 12.5 -42.5t51.5 -11.5q27 0 39 8l11 -44q-22 -13 -73 -13z" />
    <glyph glyph-name="Wcircumflex" unicode="&#x174;" horiz-adv-x="942" 
d="M628 737l-135 73l-156 -72l-16 42l177 85l155 -86zM185 0l-101 708h61l89 -662l232 662h54l118 -666l260 666h59l-278 -708h-88l-106 622l-214 -622h-86z" />
    <glyph glyph-name="wcircumflex" unicode="&#x175;" horiz-adv-x="754" 
d="M544 626l-136 90l-155 -90l-23 39l185 111l154 -111zM141 0l-97 546h62l82 -516l190 322l-34 194h62l79 -516l158 333q46 97 46 169q0 10 -1 14h57v-12q0 -75 -48 -175l-171 -359h-89l-47 281l-164 -281h-85z" />
    <glyph glyph-name="Ycircumflex" unicode="&#x176;" horiz-adv-x="572" 
d="M477 737l-135 73l-156 -72l-16 42l177 85l155 -86zM220 0l29 284l-177 423h65l149 -371l243 371h63l-283 -423l-30 -284h-59z" />
    <glyph glyph-name="ycircumflex" unicode="&#x177;" horiz-adv-x="460" 
d="M398 626l-136 90l-155 -90l-23 39l185 111l154 -111zM70 -220l106 220h-41l-87 546h62l77 -517l160 334q20 42 33.5 91t13.5 80q0 2 -0.5 6t-0.5 6h57v-12q0 -76 -47 -175l-275 -579h-58z" />
    <glyph glyph-name="Ydieresis" unicode="&#x178;" horiz-adv-x="572" 
d="M203 764l8 78h57l-8 -78h-57zM401 764l8 78h57l-8 -78h-57zM220 0l29 284l-177 423h65l149 -371l243 371h63l-283 -423l-30 -284h-59z" />
    <glyph glyph-name="Zacute" unicode="&#x179;" horiz-adv-x="548" 
d="M256 737l-13 43l221 78l14 -57zM8 0l6 60l443 590h-355l6 57h422l-5 -53l-446 -598h404l-6 -56h-469z" />
    <glyph glyph-name="zacute" unicode="&#x17a;" horiz-adv-x="452" 
d="M227 622l-27 37l174 137l34 -46zM3 0l6 56l353 439h-280l5 51h343l-5 -53l-361 -443h319l-5 -50h-375z" />
    <glyph glyph-name="Zdotaccent" unicode="&#x17b;" horiz-adv-x="548" 
d="M8 0l6 60l443 590h-355l6 57h422l-5 -53l-446 -598h404l-6 -56h-469zM297 765l8 78h57l-8 -78h-57z" />
    <glyph glyph-name="zdotaccent" unicode="&#x17c;" horiz-adv-x="452" 
d="M242 676l8 78h57l-8 -78h-57zM3 0l6 56l353 439h-280l5 51h343l-5 -53l-361 -443h319l-5 -50h-375z" />
    <glyph glyph-name="Zcaron" unicode="&#x17d;" horiz-adv-x="548" 
d="M318 737l-155 86l25 42l135 -73l155 72l17 -42zM8 0l6 60l443 590h-355l6 57h422l-5 -53l-446 -598h404l-6 -56h-469z" />
    <glyph glyph-name="zcaron" unicode="&#x17e;" horiz-adv-x="452" 
d="M266 626l-155 111l26 39l135 -93l156 93l22 -39zM3 0l6 56l353 439h-280l5 51h343l-5 -53l-361 -443h319l-5 -50h-375z" />
    <glyph glyph-name="uni018E" unicode="&#x18e;" horiz-adv-x="562" 
d="M499 707l-75 -707h-377l5 50h318l29 276h-296l5 52h296l30 279h-342l5 50h402z" />
    <glyph glyph-name="uni018F" unicode="&#x18f;" horiz-adv-x="752" 
d="M329 -12q-137 0 -206 81t-69 220q0 19 8 93h575q7 128 -53 206t-184 78q-116 0 -265 -69l-11 47q149 73 291 73t212 -82t70 -221q0 -185 -96.5 -305.5t-271.5 -120.5zM338 39q133 0 203.5 78.5t89.5 213.5h-517q-1 -11 -1 -32q0 -117 54 -188.5t171 -71.5z" />
    <glyph glyph-name="florin" unicode="&#x192;" horiz-adv-x="497" 
d="M5 -9l2 47q6 0 18 1q30 2 44.5 3.5t38 6t36.5 13.5t28 24t23.5 39t12.5 57l10 79h-104l5 50h106l6 45q8 61 32 102t61.5 60.5t74.5 26.5t86 7l-2 -48q-86 -8 -112 -18q-67 -25 -82 -121q-1 -5 -2 -11l-6 -43h111l-5 -50h-113l-11 -82q-6 -42 -20 -74.5t-36 -52.5
t-44.5 -33t-53 -18.5t-53 -7.5t-51.5 -2z" />
    <glyph glyph-name="Ohorn" unicode="&#x1a0;" horiz-adv-x="816" 
d="M732 835h57q6 -20 6 -50q0 -61 -28.5 -108t-81.5 -73q57 -83 57 -207q0 -181 -103.5 -294.5t-281.5 -113.5q-141 0 -216 87t-75 234q0 180 102.5 294t278.5 114q125 0 202 -71q87 38 87 137q0 34 -4 51zM366 40q149 0 231 102t82 256q0 122 -62 194.5t-179 72.5
q-146 0 -228.5 -100.5t-82.5 -252.5q0 -122 60.5 -197t178.5 -75z" />
    <glyph glyph-name="ohorn" unicode="&#x1a1;" horiz-adv-x="521" 
d="M469 645h52q6 -19 6 -39q0 -45 -26 -80.5t-68 -49.5q21 -45 21 -97q0 -72 -14.5 -138.5t-44 -124.5t-82 -93t-120.5 -35t-108 54.5t-40 132.5q0 176 73.5 280.5t190.5 104.5q57 0 96 -41q69 16 69 87q0 6 -5 39zM210 38q77 0 131.5 93t54.5 230q0 77 -25 113.5t-84 36.5
q-75 0 -129 -94t-54 -224q0 -155 106 -155z" />
    <glyph glyph-name="Uhorn" unicode="&#x1af;" horiz-adv-x="744" 
d="M703 835h52q5 -15 5 -39q0 -54 -28.5 -89.5t-79.5 -44.5l-42 -400q-8 -79 -35.5 -135.5t-68 -85.5t-82.5 -41t-90 -12q-50 0 -91 9.5t-77.5 31.5t-57 64t-20.5 101q0 11 2 39l50 474h61l-49 -467q-2 -26 -2 -36q0 -164 181 -164q92 0 151.5 50t72.5 175l46 442h18
q40 2 64.5 23t24.5 62q0 11 -5 43z" />
    <glyph glyph-name="uhorn" unicode="&#x1b0;" horiz-adv-x="527" 
d="M498 665h50q6 -19 6 -39q0 -50 -28 -82.5t-77 -40.5l-53 -503h-56l10 98q-54 -55 -96.5 -82t-96.5 -27q-53 0 -75.5 26.5t-22.5 82.5q0 22 3 47l43 401h56l-42 -379q-4 -35 -4 -64q0 -38 11.5 -52.5t40.5 -14.5q33 0 68.5 19t59 40t61.5 60l42 391h17q89 4 89 78
q0 13 -6 41z" />
    <glyph glyph-name="uni01C4" unicode="&#x1c4;" horiz-adv-x="1246" 
d="M73 0l75 707h172q156 0 249.5 -78.5t93.5 -234.5q0 -193 -106 -293.5t-301 -100.5h-183zM138 51h131q161 0 247 86.5t86 254.5q0 134 -77 199t-213 65h-110zM706 0l6 60l443 590h-355l6 57h422l-5 -53l-446 -598h404l-6 -56h-469zM1015 737l-155 86l25 42l135 -73l155 72
l17 -42z" />
    <glyph glyph-name="uni01C5" unicode="&#x1c5;" horiz-adv-x="1136" 
d="M50 0l75 707h172q156 0 249.5 -78.5t93.5 -234.5q0 -193 -106 -293.5t-301 -100.5h-183zM115 51h131q161 0 247 86.5t86 254.5q0 134 -77 199t-213 65h-110zM687 0l6 56l353 439h-280l5 51h343l-5 -53l-361 -443h319l-5 -50h-375zM956 625l-155 111l26 39l135 -93l156 93
l22 -39z" />
    <glyph glyph-name="uni01C6" unicode="&#x1c6;" horiz-adv-x="952" 
d="M140 -13q-52 0 -75 50t-23 127q0 170 91 279t228 107q5 0 15.5 -0.5t14.5 -0.5l22 205h56l-81 -754h-56l11 107q-118 -120 -203 -120zM152 42q40 0 96.5 41t100.5 89l35 328q-22 2 -51 2q-96 0 -166 -100t-70 -217q0 -84 14 -113.5t41 -29.5zM756 626l-155 111l26 39
l135 -93l156 93l22 -39zM503 0l6 56l353 439h-280l5 51h343l-5 -53l-361 -443h319l-5 -50h-375z" />
    <glyph glyph-name="uni01C7" unicode="&#x1c7;" horiz-adv-x="796" 
d="M73 0l75 707h59l-68 -653h307l-6 -54h-367zM464 -184l-23 44q91 48 127 112t48 179l59 556h59l-58 -554q-13 -128 -61.5 -209t-150.5 -128z" />
    <glyph glyph-name="uni01C8" unicode="&#x1c8;" horiz-adv-x="728" 
d="M50 0l75 707h59l-68 -653h307l-6 -54h-367zM424 -220q-35 0 -62 10l13 51q33 -10 60 -10q63 0 87.5 37t32.5 111l60 567h56l-60 -568q-11 -108 -59.5 -153t-127.5 -45zM626 676l8 78h57l-8 -78h-57z" />
    <glyph glyph-name="uni01C9" unicode="&#x1c9;" horiz-adv-x="477" 
d="M50 0l79 754h57l-80 -754h-56zM173 -220q-35 0 -62 10l13 51q32 -10 60 -10q63 0 87.5 37t32.5 111l60 567h56l-60 -568q-11 -108 -59.5 -153t-127.5 -45zM375 676l8 78h57l-8 -78h-57z" />
    <glyph glyph-name="uni01CA" unicode="&#x1ca;" horiz-adv-x="1074" 
d="M72 0l76 707h99l272 -685l70 685h59l-77 -707h-105l-264 668l-70 -668h-60zM742 -184l-23 44q91 48 127 112t48 179l59 556h59l-58 -554q-13 -128 -61.5 -209t-150.5 -128z" />
    <glyph glyph-name="uni01CB" unicode="&#x1cb;" horiz-adv-x="1007" 
d="M50 0l76 707h99l272 -685l70 685h59l-77 -707h-105l-264 668l-70 -668h-60zM703 -220q-35 0 -62 10l13 51q32 -10 60 -10q63 0 87.5 37t32.5 111l60 567h56l-60 -568q-11 -108 -59.5 -153t-127.5 -45zM905 676l8 78h57l-8 -78h-57z" />
    <glyph glyph-name="uni01CC" unicode="&#x1cc;" horiz-adv-x="768" 
d="M51 0l57 546h57l-10 -98q4 3 19.5 16.5t20 17.5t18.5 15.5t19.5 15.5t18.5 12.5t20.5 12t19.5 9t21.5 7.5t21.5 4t24 2q49 0 69 -25t20 -78q0 -31 -4 -63l-43 -394h-56l42 381q4 32 4 61q0 36 -11 51t-39 15q-32 0 -72.5 -25t-118.5 -91l-42 -392h-56zM464 -220
q-35 0 -62 10l13 51q32 -10 60 -10q63 0 87.5 37t32.5 111l60 567h56l-60 -568q-11 -108 -59.5 -153t-127.5 -45zM666 676l8 78h57l-8 -78h-57z" />
    <glyph glyph-name="uni01CD" unicode="&#x1cd;" horiz-adv-x="621" 
d="M-30 0l352 707h97l144 -707h-62l-55 279h-276l-138 -279h-62zM195 330h241l-60 306l-9 44l-22 -45zM368 737l-155 86l25 42l135 -73l155 72l17 -42z" />
    <glyph glyph-name="uni01CE" unicode="&#x1ce;" horiz-adv-x="499" 
d="M138 -13q-50 0 -76 44t-26 115q0 64 21.5 133.5t60 130.5t100.5 100.5t134 39.5q57 0 90 -7l-56 -543h-57l12 107q-67 -61 -115 -90.5t-88 -29.5zM150 42q34 0 97 47t100 84l35 325q-9 2 -41 2q-58 0 -107 -35t-78.5 -88.5t-46 -112.5t-16.5 -112q0 -49 14.5 -79.5
t42.5 -30.5zM318 625l-155 111l26 39l135 -93l156 93l22 -39z" />
    <glyph glyph-name="uni01CF" unicode="&#x1cf;" horiz-adv-x="270" 
d="M73 0l75 707h59l-74 -707h-60zM178 737l-155 86l25 42l135 -73l155 72l17 -42z" />
    <glyph glyph-name="uni01D0" unicode="&#x1d0;" horiz-adv-x="221" 
d="M51 0l57 546h56l-57 -546h-56zM139 625l-155 111l26 39l135 -93l156 93l22 -39z" />
    <glyph glyph-name="uni01D1" unicode="&#x1d1;" horiz-adv-x="798" 
d="M357 -11q-141 0 -216 87t-75 234q0 180 102.5 294t278.5 114q141 0 218 -87.5t77 -233.5q0 -181 -103.5 -294.5t-281.5 -113.5zM366 40q149 0 231 102t82 256q0 122 -62 194.5t-179 72.5q-146 0 -228.5 -100.5t-82.5 -252.5q0 -122 60.5 -197t178.5 -75zM452 737l-155 86
l25 42l135 -73l155 72l17 -42z" />
    <glyph glyph-name="uni01D2" unicode="&#x1d2;" horiz-adv-x="505" 
d="M193 -12q-68 0 -108 54.5t-40 132.5q0 176 73.5 280.5t190.5 104.5q69 0 107 -54.5t38 -126.5t-14.5 -138.5t-44 -124.5t-82 -93t-120.5 -35zM210 38q77 0 131.5 93t54.5 230q0 77 -25 113.5t-84 36.5q-75 0 -129 -94t-54 -224q0 -155 106 -155zM303 625l-155 111l26 39
l135 -93l156 93l22 -39z" />
    <glyph glyph-name="uni01D3" unicode="&#x1d3;" horiz-adv-x="712" 
d="M394 737l-155 86l25 42l135 -73l155 72l17 -42zM334 -12q-50 0 -91 9.5t-77.5 31.5t-57 64t-20.5 101q0 11 2 39l50 474h61l-49 -467q-2 -26 -2 -36q0 -164 181 -164q92 0 151.5 50t72.5 175l46 442h56l-47 -445q-8 -79 -35.5 -135.5t-68 -85.5t-82.5 -41t-90 -12z" />
    <glyph glyph-name="uni01D4" unicode="&#x1d4;" horiz-adv-x="512" 
d="M288 626l-155 111l26 39l135 -93l156 93l22 -39zM158 -11q-53 0 -75.5 26.5t-22.5 82.5q0 22 3 47l43 401h56l-42 -379q-4 -35 -4 -64q0 -38 11.5 -52.5t40.5 -14.5q33 0 68.5 19t59 40t61.5 60l42 391h56l-58 -546h-56l10 98q-54 -55 -96.5 -82t-96.5 -27z" />
    <glyph glyph-name="uni01D5" unicode="&#x1d5;" horiz-adv-x="712" 
d="M272 754l8 78h57l-8 -78h-57zM470 754l8 78h57l-8 -78h-57zM334 -12q-50 0 -91 9.5t-77.5 31.5t-57 64t-20.5 101q0 11 2 39l50 474h61l-49 -467q-2 -26 -2 -36q0 -164 181 -164q92 0 151.5 50t72.5 175l46 442h56l-47 -445q-8 -79 -35.5 -135.5t-68 -85.5t-82.5 -41
t-90 -12zM282 875l5 48h251l-5 -48h-251z" />
    <glyph glyph-name="uni01D6" unicode="&#x1d6;" horiz-adv-x="512" 
d="M173 656l8 78h57l-8 -78h-57zM360 656l8 78h57l-8 -78h-57zM158 -11q-53 0 -75.5 26.5t-22.5 82.5q0 22 3 47l43 401h56l-42 -379q-4 -35 -4 -64q0 -38 11.5 -52.5t40.5 -14.5q33 0 68.5 19t59 40t61.5 60l42 391h56l-58 -546h-56l10 98q-54 -55 -96.5 -82t-96.5 -27z
M182 785l5 48h251l-5 -48h-251z" />
    <glyph glyph-name="uni01D7" unicode="&#x1d7;" horiz-adv-x="712" 
d="M272 754l8 78h57l-8 -78h-57zM470 754l8 78h57l-8 -78h-57zM334 -12q-50 0 -91 9.5t-77.5 31.5t-57 64t-20.5 101q0 11 2 39l50 474h61l-49 -467q-2 -26 -2 -36q0 -164 181 -164q92 0 151.5 50t72.5 175l46 442h56l-47 -445q-8 -79 -35.5 -135.5t-68 -85.5t-82.5 -41
t-90 -12zM370 857l-13 43l221 78l14 -57z" />
    <glyph glyph-name="uni01D8" unicode="&#x1d8;" horiz-adv-x="512" 
d="M173 656l8 78h57l-8 -78h-57zM360 656l8 78h57l-8 -78h-57zM158 -11q-53 0 -75.5 26.5t-22.5 82.5q0 22 3 47l43 401h56l-42 -379q-4 -35 -4 -64q0 -38 11.5 -52.5t40.5 -14.5q33 0 68.5 19t59 40t61.5 60l42 391h56l-58 -546h-56l10 98q-54 -55 -96.5 -82t-96.5 -27z
M284 750l-27 37l174 137l34 -46z" />
    <glyph glyph-name="uni01D9" unicode="&#x1d9;" horiz-adv-x="712" 
d="M272 754l8 78h57l-8 -78h-57zM470 754l8 78h57l-8 -78h-57zM334 -12q-50 0 -91 9.5t-77.5 31.5t-57 64t-20.5 101q0 11 2 39l50 474h61l-49 -467q-2 -26 -2 -36q0 -164 181 -164q92 0 151.5 50t72.5 175l46 442h56l-47 -445q-8 -79 -35.5 -135.5t-68 -85.5t-82.5 -41
t-90 -12zM405 840l-155 86l25 42l135 -73l155 72l17 -42z" />
    <glyph glyph-name="uni01DA" unicode="&#x1da;" horiz-adv-x="512" 
d="M173 656l8 78h57l-8 -78h-57zM360 656l8 78h57l-8 -78h-57zM158 -11q-53 0 -75.5 26.5t-22.5 82.5q0 22 3 47l43 401h56l-42 -379q-4 -35 -4 -64q0 -38 11.5 -52.5t40.5 -14.5q33 0 68.5 19t59 40t61.5 60l42 391h56l-58 -546h-56l10 98q-54 -55 -96.5 -82t-96.5 -27z
M308 749l-155 111l26 39l135 -93l156 93l22 -39z" />
    <glyph glyph-name="uni01DB" unicode="&#x1db;" horiz-adv-x="712" 
d="M272 754l8 78h57l-8 -78h-57zM470 754l8 78h57l-8 -78h-57zM334 -12q-50 0 -91 9.5t-77.5 31.5t-57 64t-20.5 101q0 11 2 39l50 474h61l-49 -467q-2 -26 -2 -36q0 -164 181 -164q92 0 151.5 50t72.5 175l46 442h56l-47 -445q-8 -79 -35.5 -135.5t-68 -85.5t-82.5 -41
t-90 -12zM436 840l-207 66l25 58l198 -80z" />
    <glyph glyph-name="uni01DC" unicode="&#x1dc;" horiz-adv-x="512" 
d="M171 656l8 78h57l-8 -78h-57zM358 656l8 78h57l-8 -78h-57zM158 -11q-53 0 -75.5 26.5t-22.5 82.5q0 22 3 47l43 401h56l-42 -379q-4 -35 -4 -64q0 -38 11.5 -52.5t40.5 -14.5q33 0 68.5 19t59 40t61.5 60l42 391h56l-58 -546h-56l10 98q-54 -55 -96.5 -82t-96.5 -27z
M310 741l-168 122l34 45l162 -129z" />
    <glyph glyph-name="uni01DD" unicode="&#x1dd;" horiz-adv-x="455" 
d="M281 561q63 0 91 -56.5t28 -145.5q0 -159 -67.5 -265t-185.5 -106q-63 0 -94.5 33.5t-31.5 85.5q0 88 132 138l188 72q1 10 1 31q0 160 -68 160q-65 0 -173 -54l-20 45q84 44 130 54q35 8 70 8zM336 263l-168 -67q-91 -36 -91 -87q0 -37 21 -53.5t52 -16.5q149 0 186 224
z" />
    <glyph glyph-name="uni01E2" unicode="&#x1e2;" horiz-adv-x="892" 
d="M509 765l5 48h271l-5 -48h-271zM-47 0l474 707h428l-5 -50h-318l-29 -276h297l-6 -52h-296l-30 -279h342l-5 -50h-401l35 329h-204l-214 -329h-68zM269 381h175l29 276h-24z" />
    <glyph glyph-name="uni01E3" unicode="&#x1e3;" horiz-adv-x="756" 
d="M339 675l5 48h251l-5 -48h-251zM140 -13q-49 0 -74 49t-25 128q0 165 89.5 275.5t222.5 110.5q42 0 90 -8l-9 -70q66 89 168 89q126 0 126 -119q0 -88 -132 -138l-188 -72q0 -6 -0.5 -16.5t-0.5 -15.5q0 -159 69 -159q54 0 171 54l21 -45q-2 -1 -15.5 -8t-17 -9
t-16.5 -8.5t-18.5 -8.5t-18.5 -7t-21 -7t-20.5 -5.5t-23 -5t-23.5 -2.5t-26 -1q-95 0 -112 129q-135 -130 -216 -130zM152 42q34 0 95.5 46.5t99.5 84.5l35 324l-49 2q-63 2 -118.5 -45.5t-86.5 -120.5t-31 -148q0 -84 14 -113.5t41 -29.5zM414 286l167 67q91 36 91 87
q0 37 -21 53.5t-52 16.5q-44 0 -78.5 -19.5t-55 -54t-32.5 -71t-19 -79.5z" />
    <glyph glyph-name="uni01E6" unicode="&#x1e6;" horiz-adv-x="659" 
d="M376 -10q-143 0 -227 88t-84 235q0 178 102.5 289t278.5 111q99 0 157 -25l-23 -49q-62 21 -137 21q-151 0 -233.5 -95t-82.5 -252q0 -129 72.5 -198.5t201.5 -69.5q59 0 104 14l29 291h60l-34 -328q-48 -18 -85.5 -25t-98.5 -7zM437 737l-155 86l25 42l135 -73l155 72
l17 -42z" />
    <glyph glyph-name="uni01E7" unicode="&#x1e7;" horiz-adv-x="498" 
d="M142 -231q-75 0 -164 19l13 55q88 -22 139 -22q87 0 136.5 31.5t59.5 123.5l14 131q-67 -63 -113.5 -91.5t-89.5 -28.5q-99 0 -99 160q0 158 91.5 280.5t221.5 122.5q57 0 90 -7l-61 -582q-7 -69 -45 -113.5t-86.5 -61.5t-106.5 -17zM149 42q34 0 97 47t100 84l35 325
q-10 2 -41 2q-69 0 -127 -53t-88.5 -131.5t-30.5 -159.5q0 -66 14.5 -90t40.5 -24zM297 625l-155 111l26 39l135 -93l156 93l22 -39z" />
    <glyph glyph-name="uni01E8" unicode="&#x1e8;" horiz-adv-x="581" 
d="M476 -13l-269 378l2 20l308 322h77l-320 -326l255 -362zM73 0l75 707h59l-74 -707h-60zM358 737l-155 86l25 42l135 -73l155 72l17 -42z" />
    <glyph glyph-name="uni01E9" unicode="&#x1e9;" horiz-adv-x="466" 
d="M370 -17l-201 308l203 255h70l-205 -255l186 -278zM50 0l79 754h57l-80 -754h-56zM319 737l-155 86l25 42l135 -73l155 72l17 -42z" />
    <glyph glyph-name="uni01EA" unicode="&#x1ea;" horiz-adv-x="798" 
d="M458 -161l11 -44q-32 -13 -78 -13t-69.5 24t-23.5 65q0 61 80 119q-7 -1 -21 -1q-141 0 -216 87t-75 234q0 180 102.5 294t278.5 114q141 0 218 -87.5t77 -233.5q0 -144 -67.5 -248t-187.5 -141q-26 -15 -44 -26t-41 -28.5t-35.5 -36.5t-12.5 -37q0 -50 53 -50q22 0 51 9
zM366 40q149 0 231 102t82 256q0 122 -62 194.5t-179 72.5q-146 0 -228.5 -100.5t-82.5 -252.5q0 -122 60.5 -197t178.5 -75z" />
    <glyph glyph-name="uni01EB" unicode="&#x1eb;" horiz-adv-x="507" 
d="M256 -161l11 -44q-32 -13 -78 -13t-69.5 24t-23.5 65q0 62 80 118q-61 8 -95.5 60.5t-34.5 125.5q0 176 73.5 280.5t190.5 104.5q69 0 107 -54.5t38 -126.5q0 -81 -17 -154t-58.5 -134.5t-102.5 -86.5q-125 -70 -125 -124q0 -50 53 -50q22 0 51 9zM211 38q77 0 131.5 93
t54.5 230q0 77 -25 113.5t-84 36.5q-75 0 -129 -94t-54 -224q0 -155 106 -155z" />
    <glyph glyph-name="uni01EC" unicode="&#x1ec;" horiz-adv-x="798" 
d="M458 -161l11 -44q-32 -13 -78 -13t-69.5 24t-23.5 65q0 61 80 119q-7 -1 -21 -1q-141 0 -216 87t-75 234q0 180 102.5 294t278.5 114q141 0 218 -87.5t77 -233.5q0 -144 -67.5 -248t-187.5 -141q-26 -15 -44 -26t-41 -28.5t-35.5 -36.5t-12.5 -37q0 -50 53 -50q22 0 51 9
zM366 40q149 0 231 102t82 256q0 122 -62 194.5t-179 72.5q-146 0 -228.5 -100.5t-82.5 -252.5q0 -122 60.5 -197t178.5 -75zM320 765l5 48h271l-5 -48h-271z" />
    <glyph glyph-name="uni01ED" unicode="&#x1ed;" horiz-adv-x="507" 
d="M256 -161l11 -44q-32 -13 -78 -13t-69.5 24t-23.5 65q0 62 80 118q-61 8 -95.5 60.5t-34.5 125.5q0 176 73.5 280.5t190.5 104.5q69 0 107 -54.5t38 -126.5q0 -81 -17 -154t-58.5 -134.5t-102.5 -86.5q-125 -70 -125 -124q0 -50 53 -50q22 0 51 9zM211 38q77 0 131.5 93
t54.5 230q0 77 -25 113.5t-84 36.5q-75 0 -129 -94t-54 -224q0 -155 106 -155zM194 675l5 48h251l-5 -48h-251z" />
    <glyph glyph-name="uni01EE" unicode="&#x1ee;" horiz-adv-x="522" 
d="M170 397l252 259h-331l5 51h392l-5 -53l-247 -252q92 -9 155.5 -60.5t63.5 -124.5q0 -101 -76.5 -165t-175.5 -64q-120 0 -190 51l26 46q28 -19 74 -33.5t85 -14.5q25 0 50 5t51.5 17.5t47 31t33.5 49t13 67.5q0 65 -63.5 105.5t-140.5 40.5q-3 0 -8.5 -0.5t-7.5 -0.5z
M291 737l-155 86l25 42l135 -73l155 72l17 -42z" />
    <glyph glyph-name="uni01EF" unicode="&#x1ef;" horiz-adv-x="451" 
d="M248 625l-155 111l26 39l135 -93l156 93l22 -39zM108 193l5 49l245 252h-309l5 52h374l-5 -53l-253 -258q87 -9 146.5 -59.5t59.5 -123.5q0 -83 -56 -146t-136.5 -94.5t-176.5 -41.5l-5 47q58 7 111.5 23.5t100.5 43t75 67.5t28 91q0 67 -62.5 105t-146.5 46z" />
    <glyph glyph-name="uni01F1" unicode="&#x1f1;" horiz-adv-x="1246" 
d="M73 0l75 707h172q156 0 249.5 -78.5t93.5 -234.5q0 -193 -106 -293.5t-301 -100.5h-183zM138 51h131q161 0 247 86.5t86 254.5q0 134 -77 199t-213 65h-110zM706 0l6 60l443 590h-355l6 57h422l-5 -53l-446 -598h404l-6 -56h-469z" />
    <glyph glyph-name="uni01F2" unicode="&#x1f2;" horiz-adv-x="1136" 
d="M50 0l75 707h172q156 0 249.5 -78.5t93.5 -234.5q0 -193 -106 -293.5t-301 -100.5h-183zM115 51h131q161 0 247 86.5t86 254.5q0 134 -77 199t-213 65h-110zM687 0l6 56l353 439h-280l5 51h343l-5 -53l-361 -443h319l-5 -50h-375z" />
    <glyph glyph-name="uni01F3" unicode="&#x1f3;" horiz-adv-x="952" 
d="M140 -13q-52 0 -75 50t-23 127q0 170 91 279t228 107q5 0 15.5 -0.5t14.5 -0.5l22 205h56l-81 -754h-56l11 107q-118 -120 -203 -120zM152 42q40 0 96.5 41t100.5 89l35 328q-22 2 -51 2q-96 0 -166 -100t-70 -217q0 -84 14 -113.5t41 -29.5zM503 0l6 56l353 439h-280
l5 51h343l-5 -53l-361 -443h319l-5 -50h-375z" />
    <glyph glyph-name="uni01F4" unicode="&#x1f4;" horiz-adv-x="659" 
d="M376 -10q-143 0 -227 88t-84 235q0 178 102.5 289t278.5 111q99 0 157 -25l-23 -49q-62 21 -137 21q-151 0 -233.5 -95t-82.5 -252q0 -129 72.5 -198.5t201.5 -69.5q59 0 104 14l29 291h60l-34 -328q-48 -18 -85.5 -25t-98.5 -7zM364 737l-13 43l221 78l14 -57z" />
    <glyph glyph-name="uni01F5" unicode="&#x1f5;" horiz-adv-x="498" 
d="M142 -231q-75 0 -164 19l13 55q88 -22 139 -22q87 0 136.5 31.5t59.5 123.5l14 131q-67 -63 -113.5 -91.5t-89.5 -28.5q-99 0 -99 160q0 158 91.5 280.5t221.5 122.5q57 0 90 -7l-61 -582q-7 -69 -45 -113.5t-86.5 -61.5t-106.5 -17zM149 42q34 0 97 47t100 84l35 325
q-10 2 -41 2q-69 0 -127 -53t-88.5 -131.5t-30.5 -159.5q0 -66 14.5 -90t40.5 -24zM265 622l-27 37l174 137l34 -46z" />
    <glyph glyph-name="uni01F8" unicode="&#x1f8;" horiz-adv-x="710" 
d="M72 0l76 707h99l272 -685l70 685h59l-77 -707h-105l-264 668l-70 -668h-60zM494 736l-207 66l25 58l198 -80z" />
    <glyph glyph-name="uni01F9" unicode="&#x1f9;" horiz-adv-x="512" 
d="M51 0l57 546h57l-10 -98q4 3 19.5 16.5t20 17.5t18.5 15.5t19.5 15.5t18.5 12.5t20.5 12t19.5 9t21.5 7.5t21.5 4t24 2q49 0 69 -25t20 -78q0 -31 -4 -63l-43 -394h-56l42 381q4 32 4 61q0 36 -11 51t-39 15q-32 0 -72.5 -25t-118.5 -91l-42 -392h-56zM324 618l-168 122
l34 45l162 -129z" />
    <glyph glyph-name="uni01FA" unicode="&#x1fa;" horiz-adv-x="621" 
d="M-30 0l352 707h97l144 -707h-62l-55 279h-276l-138 -279h-62zM195 330h241l-60 306l-9 44l-22 -45zM376 726q-35 0 -59.5 19t-24.5 50q0 42 29 68.5t70 26.5q34 0 58 -20.5t24 -50.5q0 -41 -27.5 -67t-69.5 -26zM378 755q25 0 42 16t17 41q0 21 -14.5 34.5t-35.5 13.5
q-26 0 -42.5 -16t-16.5 -41q0 -22 14 -35t36 -13zM323 899l-13 43l221 78l14 -57z" />
    <glyph glyph-name="uni01FB" unicode="&#x1fb;" horiz-adv-x="499" 
d="M138 -13q-50 0 -76 44t-26 115q0 64 21.5 133.5t60 130.5t100.5 100.5t134 39.5q57 0 90 -7l-56 -543h-57l12 107q-67 -61 -115 -90.5t-88 -29.5zM150 42q34 0 97 47t100 84l35 325q-9 2 -41 2q-58 0 -107 -35t-78.5 -88.5t-46 -112.5t-16.5 -112q0 -49 14.5 -79.5
t42.5 -30.5zM314 612q-43 0 -73 23.5t-30 62.5q0 51 35.5 83.5t86.5 32.5q41 0 71 -25t30 -63q0 -51 -34 -82.5t-86 -31.5zM316 647q32 0 53 20t21 52q0 26 -17.5 42.5t-43.5 16.5q-32 0 -53 -20t-21 -52q0 -27 17 -43t44 -16zM248 837l-13 43l221 78l14 -57z" />
    <glyph glyph-name="AEacute" unicode="&#x1fc;" horiz-adv-x="892" 
d="M558 737l-13 43l221 78l14 -57zM-47 0l474 707h428l-5 -50h-318l-29 -276h297l-6 -52h-296l-30 -279h342l-5 -50h-401l35 329h-204l-214 -329h-68zM269 381h175l29 276h-24z" />
    <glyph glyph-name="aeacute" unicode="&#x1fd;" horiz-adv-x="756" 
d="M410 622l-27 37l174 137l34 -46zM140 -13q-49 0 -74 49t-25 128q0 165 89.5 275.5t222.5 110.5q42 0 90 -8l-9 -70q66 89 168 89q126 0 126 -119q0 -88 -132 -138l-188 -72q0 -6 -0.5 -16.5t-0.5 -15.5q0 -159 69 -159q54 0 171 54l21 -45q-2 -1 -15.5 -8t-17 -9
t-16.5 -8.5t-18.5 -8.5t-18.5 -7t-21 -7t-20.5 -5.5t-23 -5t-23.5 -2.5t-26 -1q-95 0 -112 129q-135 -130 -216 -130zM152 42q34 0 95.5 46.5t99.5 84.5l35 324l-49 2q-63 2 -118.5 -45.5t-86.5 -120.5t-31 -148q0 -84 14 -113.5t41 -29.5zM414 286l167 67q91 36 91 87
q0 37 -21 53.5t-52 16.5q-44 0 -78.5 -19.5t-55 -54t-32.5 -71t-19 -79.5z" />
    <glyph glyph-name="Oslashacute" unicode="&#x1fe;" horiz-adv-x="822" 
d="M349 737l-13 43l221 78l14 -57zM89 -25l-36 31l85 90q-59 83 -59 214q0 180 102.5 294t278.5 114q122 0 198 -68l76 80l37 -33l-79 -84q63 -85 63 -216q0 -181 -103.5 -294.5t-281.5 -113.5q-127 0 -201 71zM181 142l436 464q-64 59 -166 59q-146 0 -228.5 -100.5
t-82.5 -252.5q0 -103 41 -170zM379 40q149 0 231 102t82 256q0 100 -43 169l-438 -463q62 -64 168 -64z" />
    <glyph glyph-name="oslashacute" unicode="&#x1ff;" horiz-adv-x="538" 
d="M243 622l-27 37l174 137l34 -46zM29 -28l-34 29l82 96q-12 41 -12 78q0 174 74 279.5t190 105.5q63 0 104 -51l55 63l34 -28l-65 -77q17 -42 17 -88q0 -72 -14.5 -138.5t-44 -124.5t-82 -93t-120.5 -35q-73 0 -115 64zM127 154l269 312q-26 45 -89 45q-73 0 -128 -91.5
t-55 -226.5zM230 38q77 0 131.5 93t54.5 230q0 24 -4 54l-274 -317q23 -60 92 -60z" />
    <glyph glyph-name="Scommaaccent" unicode="&#x218;" horiz-adv-x="511" 
d="M143 -260l46 201h54l-54 -201h-46zM206 -11q-45 0 -102 14.5t-86 33.5l25 53q96 -47 167 -47q174 0 174 147q0 38 -29.5 70.5t-72 58t-85 54t-72 72t-29.5 97.5q0 82 61.5 127t153.5 45q48 0 95.5 -12t72.5 -27l-19 -50q-76 36 -153 36q-68 0 -110.5 -28.5t-42.5 -92.5
q0 -33 21.5 -62.5t53 -51t69 -47.5t69 -50.5t53 -61t21.5 -79.5q0 -94 -65.5 -146.5t-169.5 -52.5z" />
    <glyph glyph-name="scommaaccent" unicode="&#x219;" horiz-adv-x="407" 
d="M147 -9q-87 0 -139 23l17 52q67 -24 126 -24q19 0 38.5 3.5t43 12t38 28t14.5 46.5q0 33 -22 61t-53 49.5t-62 44t-53 54.5t-22 71q0 74 49 108.5t123 34.5q72 0 132 -29l-19 -45q-72 26 -128 26q-43 0 -73.5 -20t-30.5 -64q0 -33 22 -60.5t53 -48.5t62.5 -44t53.5 -57
t22 -77q0 -73 -57 -109t-135 -36zM83 -259l46 201h54l-54 -201h-46z" />
    <glyph glyph-name="uni021A" unicode="&#x21a;" horiz-adv-x="557" 
d="M173 -260l46 201h54l-54 -201h-46zM215 0l68 654h-246l6 53h552l-6 -53h-246l-69 -654h-59z" />
    <glyph glyph-name="uni021B" unicode="&#x21b;" horiz-adv-x="358" 
d="M113 -259l46 201h54l-54 -201h-46zM173 -12q-39 0 -65 25t-28 76q-2 19 1 38l41 368h-80l5 51h80l11 112h56l-11 -112h177l-5 -51h-177l-40 -363q-10 -91 52 -91q52 0 112 35l15 -44q-63 -44 -144 -44z" />
    <glyph glyph-name="uni021C" unicode="&#x21c;" horiz-adv-x="522" 
d="M170 397l252 259h-331l5 51h392l-5 -53l-247 -252q92 -9 155.5 -60.5t63.5 -124.5q0 -101 -76.5 -165t-175.5 -64q-120 0 -190 51l26 46q28 -19 74 -33.5t85 -14.5q25 0 50 5t51.5 17.5t47 31t33.5 49t13 67.5q0 65 -63.5 105.5t-140.5 40.5q-3 0 -8.5 -0.5t-7.5 -0.5z
" />
    <glyph glyph-name="uni021D" unicode="&#x21d;" horiz-adv-x="451" 
d="M108 193l5 49l245 252h-309l5 52h374l-5 -53l-253 -258q87 -9 146.5 -59.5t59.5 -123.5q0 -83 -56 -146t-136.5 -94.5t-176.5 -41.5l-5 47q58 7 111.5 23.5t100.5 43t75 67.5t28 91q0 67 -62.5 105t-146.5 46z" />
    <glyph glyph-name="uni021E" unicode="&#x21e;" horiz-adv-x="728" 
d="M73 0l75 707h59l-34 -327h398l34 327h60l-74 -707h-60l35 329h-398l-35 -329h-60zM411 737l-155 86l25 42l135 -73l155 72l17 -42z" />
    <glyph glyph-name="uni021F" unicode="&#x21f;" horiz-adv-x="511" 
d="M50 0l80 754h57l-33 -306q4 3 19.5 16.5t20 17.5t18.5 15.5t19.5 15.5t18.5 12.5t20.5 12t19.5 9t21.5 7.5t21.5 4t24 2q49 0 69 -25t20 -78q0 -31 -4 -63l-43 -394h-56l42 381q4 32 4 61q0 36 -11 51t-39 15q-32 0 -72.5 -25t-118.5 -91l-42 -392h-56zM322 737l-155 86
l25 42l135 -73l155 72l17 -42z" />
    <glyph glyph-name="uni0226" unicode="&#x226;" horiz-adv-x="621" 
d="M-30 0l352 707h97l144 -707h-62l-55 279h-276l-138 -279h-62zM195 330h241l-60 306l-9 44l-22 -45zM347 765l8 78h57l-8 -78h-57z" />
    <glyph glyph-name="uni0227" unicode="&#x227;" horiz-adv-x="499" 
d="M138 -13q-50 0 -76 44t-26 115q0 64 21.5 133.5t60 130.5t100.5 100.5t134 39.5q57 0 90 -7l-56 -543h-57l12 107q-67 -61 -115 -90.5t-88 -29.5zM150 42q34 0 97 47t100 84l35 325q-9 2 -41 2q-58 0 -107 -35t-78.5 -88.5t-46 -112.5t-16.5 -112q0 -49 14.5 -79.5
t42.5 -30.5zM309 676l8 78h57l-8 -78h-57z" />
    <glyph glyph-name="uni0228" unicode="&#x228;" horiz-adv-x="562" 
d="M73 0l75 707h377l-5 -50h-318l-29 -276h296l-5 -52h-296l-30 -279h342l-5 -50h-402zM213 -229l-15 31q56 33 62 79q2 25 -18 68h62q16 -30 13 -63q-6 -75 -104 -115z" />
    <glyph glyph-name="uni0229" unicode="&#x229;" horiz-adv-x="456" 
d="M168 -12q-63 0 -91 56.5t-28 145.5q0 159 67.5 265t185.5 106q63 0 94.5 -33.5t31.5 -85.5q0 -88 -132 -138l-188 -72q-1 -10 -1 -31q0 -160 68 -160q65 0 173 54l20 -45q-84 -44 -130 -54q-35 -8 -70 -8zM113 286l168 67q91 36 91 87q0 37 -21 53.5t-52 16.5
q-149 0 -186 -224zM154 -229l-15 31q56 33 62 79q2 25 -18 68h62q16 -30 13 -63q-6 -75 -104 -115z" />
    <glyph glyph-name="uni022E" unicode="&#x22e;" horiz-adv-x="798" 
d="M357 -11q-141 0 -216 87t-75 234q0 180 102.5 294t278.5 114q141 0 218 -87.5t77 -233.5q0 -181 -103.5 -294.5t-281.5 -113.5zM366 40q149 0 231 102t82 256q0 122 -62 194.5t-179 72.5q-146 0 -228.5 -100.5t-82.5 -252.5q0 -122 60.5 -197t178.5 -75zM430 765l8 78h57
l-8 -78h-57z" />
    <glyph glyph-name="uni022F" unicode="&#x22f;" horiz-adv-x="505" 
d="M193 -12q-68 0 -108 54.5t-40 132.5q0 176 73.5 280.5t190.5 104.5q69 0 107 -54.5t38 -126.5t-14.5 -138.5t-44 -124.5t-82 -93t-120.5 -35zM210 38q77 0 131.5 93t54.5 230q0 77 -25 113.5t-84 36.5q-75 0 -129 -94t-54 -224q0 -155 106 -155zM291 676l8 78h57l-8 -78
h-57z" />
    <glyph glyph-name="uni0232" unicode="&#x232;" horiz-adv-x="572" 
d="M195 765l5 48h271l-5 -48h-271zM220 0l29 284l-177 423h65l149 -371l243 371h63l-283 -423l-30 -284h-59z" />
    <glyph glyph-name="uni0233" unicode="&#x233;" horiz-adv-x="460" 
d="M134 675l5 48h251l-5 -48h-251zM70 -220l106 220h-41l-87 546h62l77 -517l160 334q20 42 33.5 91t13.5 80q0 2 -0.5 6t-0.5 6h57v-12q0 -76 -47 -175l-275 -579h-58z" />
    <glyph glyph-name="uni0237" unicode="&#x237;" horiz-adv-x="221" 
d="M-83 -220q-35 0 -62 10l13 51q33 -10 60 -10q63 0 87.5 37t32.5 111l60 567h56l-60 -568q-11 -108 -59.5 -153t-127.5 -45z" />
    <glyph glyph-name="uni0259" unicode="&#x259;" horiz-adv-x="455" 
d="M281 561q63 0 91 -56.5t28 -145.5q0 -159 -67.5 -265t-185.5 -106q-63 0 -94.5 33.5t-31.5 85.5q0 88 132 138l188 72q1 10 1 31q0 160 -68 160q-65 0 -173 -54l-20 45q84 44 130 54q35 8 70 8zM336 263l-168 -67q-91 -36 -91 -87q0 -37 21 -53.5t52 -16.5q149 0 186 224
z" />
    <glyph glyph-name="uni02BC" unicode="&#x2bc;" horiz-adv-x="544" 
d="M-20 572q37 91 44 193h65q-1 -20 -3 -38t-7 -35.5t-8 -29t-11 -27.5t-10.5 -22t-12 -22.5t-10.5 -18.5h-47z" />
    <glyph glyph-name="circumflex" unicode="&#x2c6;" horiz-adv-x="536" 
d="M437 625l-136 90l-155 -90l-23 39l185 111l154 -111z" />
    <glyph glyph-name="caron" unicode="&#x2c7;" horiz-adv-x="536" 
d="M329 625l-155 111l26 39l135 -93l156 93l22 -39z" />
    <glyph glyph-name="breve" unicode="&#x2d8;" horiz-adv-x="496" 
d="M335 652q-42 0 -78 25t-50 53l35 29q38 -59 101 -59q70 0 112 58l27 -26q-61 -80 -147 -80z" />
    <glyph glyph-name="dotaccent" unicode="&#x2d9;" horiz-adv-x="273" 
d="M143 676l8 78h57l-8 -78h-57z" />
    <glyph glyph-name="ring" unicode="&#x2da;" horiz-adv-x="532" 
d="M333 622q-39 0 -66 21.5t-27 55.5q0 46 32 75.5t78 29.5q37 0 64 -22.5t27 -56.5q0 -46 -31 -74.5t-77 -28.5zM335 654q28 0 47 18t19 46q0 24 -15.5 38.5t-39.5 14.5q-29 0 -47.5 -18t-18.5 -46q0 -24 15.5 -38.5t39.5 -14.5z" />
    <glyph glyph-name="ogonek" unicode="&#x2db;" horiz-adv-x="561" 
d="M437 -161l11 -44q-32 -13 -78 -13t-69.5 24t-23.5 65q0 90 169 169l22 -31q-135 -75 -135 -129q0 -50 53 -50q22 0 51 9z" />
    <glyph glyph-name="tilde" unicode="&#x2dc;" horiz-adv-x="536" 
d="M400 649q-19 0 -62 18t-61 18q-37 0 -71 -24l-20 35q1 1 6 5t9.5 7.5t13 8.5t17.5 8.5t22.5 6t27.5 2.5q24 0 63.5 -18t59.5 -18q38 0 70 28l20 -36q-41 -41 -95 -41z" />
    <glyph glyph-name="hungarumlaut" unicode="&#x2dd;" horiz-adv-x="549" 
d="M144 619l-20 39l195 131l28 -51zM371 624l-25 36l174 126l32 -47z" />
    <glyph glyph-name="gravecmb" unicode="&#x300;" horiz-adv-x="0" 
d="M-130 618l-168 122l34 45l162 -129z" />
    <glyph glyph-name="acutecmb" unicode="&#x301;" horiz-adv-x="0" 
d="M-277 622l-27 37l174 137l34 -46z" />
    <glyph glyph-name="uni0302" unicode="&#x302;" horiz-adv-x="0" 
d="M-55 625l-136 90l-155 -90l-23 39l185 111l154 -111z" />
    <glyph glyph-name="tildecmb" unicode="&#x303;" horiz-adv-x="0" 
d="M-140 649q-19 0 -62 18t-61 18q-37 0 -71 -24l-20 35q1 1 6 5t9.5 7.5t13 8.5t17.5 8.5t22.5 6t27.5 2.5q24 0 63.5 -18t59.5 -18q38 0 70 28l20 -36q-41 -41 -95 -41z" />
    <glyph glyph-name="uni0304" unicode="&#x304;" horiz-adv-x="0" 
d="M-325 675l5 48h251l-5 -48h-251z" />
    <glyph glyph-name="uni0306" unicode="&#x306;" horiz-adv-x="0" 
d="M-209 652q-42 0 -78 25t-50 53l35 29q38 -59 101 -59q70 0 112 58l27 -26q-61 -80 -147 -80z" />
    <glyph glyph-name="uni0307" unicode="&#x307;" horiz-adv-x="0" 
d="M-212 675l8 78h57l-8 -78h-57z" />
    <glyph glyph-name="uni0308" unicode="&#x308;" horiz-adv-x="0" 
d="M-314 680l8 78h57l-8 -78h-57zM-128 680l8 78h57l-8 -78h-57z" />
    <glyph glyph-name="hookcmb" unicode="&#x309;" horiz-adv-x="0" 
d="M-130 766q0 -46 -28 -77t-56 -44l-31 27q26 11 46.5 34.5t20.5 50.5q0 20 -13.5 29.5t-28.5 9.5q-28 0 -50 -10l4 41q28 12 63 12q31 0 50 -16q23 -20 23 -57z" />
    <glyph glyph-name="uni030A" unicode="&#x30a;" horiz-adv-x="0" 
d="M-196 612q-43 0 -73 23.5t-30 62.5q0 51 35.5 83.5t86.5 32.5q41 0 71 -25t30 -63q0 -51 -34 -82.5t-86 -31.5zM-194 647q32 0 53 20t21 52q0 26 -17.5 42.5t-43.5 16.5q-32 0 -53 -20t-21 -52q0 -27 17 -43t44 -16z" />
    <glyph glyph-name="uni030B" unicode="&#x30b;" horiz-adv-x="0" 
d="M-324 619l-20 39l195 131l28 -51zM-97 624l-25 36l174 126l32 -47z" />
    <glyph glyph-name="uni030C" unicode="&#x30c;" horiz-adv-x="0" 
d="M-184 625l-155 111l26 39l135 -93l156 93l22 -39z" />
    <glyph glyph-name="uni0310" unicode="&#x310;" horiz-adv-x="0" 
d="M-187 652q-42 0 -78 25t-50 53l35 29q38 -59 101 -59q70 0 112 58l27 -26q-61 -80 -147 -80zM-206 766l8 78h57l-8 -78h-57z" />
    <glyph glyph-name="dotbelowcmb" unicode="&#x323;" horiz-adv-x="0" 
d="M-335 -210l8 78h57l-8 -78h-57z" />
    <glyph glyph-name="uni0324" unicode="&#x324;" horiz-adv-x="0" 
d="M-442 -210l8 78h57l-8 -78h-57zM-256 -210l8 78h57l-8 -78h-57z" />
    <glyph glyph-name="uni0325" unicode="&#x325;" horiz-adv-x="0" 
d="M-350 -289q-43 0 -73 23.5t-30 62.5q0 51 35.5 83.5t86.5 32.5q41 0 71 -25t30 -63q0 -51 -34 -82.5t-86 -31.5zM-348 -254q32 0 53 20t21 52q0 26 -17.5 42.5t-43.5 16.5q-32 0 -53 -20t-21 -52q0 -27 17 -43t44 -16z" />
    <glyph glyph-name="uni0327" unicode="&#x327;" horiz-adv-x="0" 
d="M-365 -229l-15 31q56 33 62 79q2 25 -18 68h62q16 -30 13 -63q-6 -75 -104 -115z" />
    <glyph glyph-name="uni0328" unicode="&#x328;" horiz-adv-x="0" 
d="M-243 -161l11 -44q-32 -13 -78 -13t-69.5 24t-23.5 65q0 90 169 169l22 -31q-135 -75 -135 -129q0 -50 53 -50q22 0 51 9z" />
    <glyph glyph-name="uni032E" unicode="&#x32e;" horiz-adv-x="0" 
d="M-309 -202q-42 0 -78 25t-50 53l35 29q38 -59 101 -59q70 0 112 58l27 -26q-61 -80 -147 -80z" />
    <glyph glyph-name="uni0331" unicode="&#x331;" horiz-adv-x="0" 
d="M-428 -189l5 48h251l-5 -48h-251z" />
    <glyph glyph-name="uni0374" unicode="&#x374;" horiz-adv-x="147" 
d="M42 572q37 91 44 193h65q-1 -20 -3 -38t-7 -35.5t-8 -29t-11 -27.5t-10.5 -22t-12 -22.5t-10.5 -18.5h-47z" />
    <glyph glyph-name="uni0375" unicode="&#x375;" horiz-adv-x="147" 
d="M31 -121q40 97 44 192h66q-1 -17 -3 -34.5t-4.5 -29.5t-7.5 -28t-7.5 -23.5t-10 -22.5l-9.5 -19t-10.5 -19t-9.5 -16h-48z" />
    <glyph glyph-name="uni037E" unicode="&#x37e;" horiz-adv-x="525" 
d="M166 -122q33 83 37 123l7 61h58l-3 -26q-9 -85 -52 -158h-47zM243 475l8 71h70l-8 -71h-70z" />
    <glyph glyph-name="tonos" unicode="&#x384;" horiz-adv-x="467" 
d="M299 623l67 158h66l-79 -158h-54z" />
    <glyph glyph-name="dieresistonos" unicode="&#x385;" horiz-adv-x="428" 
d="M70 624l97 158h66l-109 -158h-54zM-29 635l8 78h57l-8 -78h-57zM213 635l8 78h57l-8 -78h-57z" />
    <glyph glyph-name="Alphatonos" unicode="&#x386;" horiz-adv-x="621" 
d="M17 549l66 158h66l-78 -158h-54zM-30 0l352 707h97l144 -707h-62l-55 279h-276l-138 -279h-62zM195 330h241l-60 306l-9 44l-22 -45z" />
    <glyph glyph-name="anoteleia" unicode="&#x387;" horiz-adv-x="233" 
d="M83 317l7 71h69l-7 -71h-69z" />
    <glyph glyph-name="Epsilontonos" unicode="&#x388;" horiz-adv-x="562" 
d="M-35 549l66 158h66l-78 -158h-54zM73 0l75 707h377l-5 -50h-318l-29 -276h296l-5 -52h-296l-30 -279h342l-5 -50h-402z" />
    <glyph glyph-name="Etatonos" unicode="&#x389;" horiz-adv-x="728" 
d="M-36 549l66 158h66l-78 -158h-54zM73 0l75 707h59l-34 -327h398l34 327h60l-74 -707h-60l35 329h-398l-35 -329h-60z" />
    <glyph glyph-name="Iotatonos" unicode="&#x38a;" horiz-adv-x="270" 
d="M-22 549l66 158h66l-78 -158h-54zM73 0l75 707h59l-74 -707h-60z" />
    <glyph glyph-name="Omicrontonos" unicode="&#x38c;" horiz-adv-x="798" 
d="M-8 549l66 158h66l-78 -158h-54zM357 -11q-141 0 -216 87t-75 234q0 180 102.5 294t278.5 114q141 0 218 -87.5t77 -233.5q0 -181 -103.5 -294.5t-281.5 -113.5zM366 40q149 0 231 102t82 256q0 122 -62 194.5t-179 72.5q-146 0 -228.5 -100.5t-82.5 -252.5
q0 -122 60.5 -197t178.5 -75z" />
    <glyph glyph-name="Upsilontonos" unicode="&#x38e;" horiz-adv-x="572" 
d="M-97 549l66 158h66l-78 -158h-54zM220 0l29 284l-177 423h65l149 -371l243 371h63l-283 -423l-30 -284h-59z" />
    <glyph glyph-name="Omegatonos" unicode="&#x38f;" horiz-adv-x="807" 
d="M-22 550l66 158h66l-78 -158h-54zM49 0l5 55h182q-66 34 -115 108t-49 177q0 166 106 272t274 106q146 0 221 -87t75 -224q0 -114 -64 -211.5t-168 -140.5h190l-5 -55h-263l5 55q242 133 242 349q0 119 -61 190t-181 71q-146 0 -228.5 -95t-82.5 -235q0 -164 180 -280
l-5 -55h-258z" />
    <glyph glyph-name="iotadieresistonos" unicode="&#x390;" horiz-adv-x="220" 
d="M113 630l97 158h66l-109 -158h-54zM14 641l8 78h57l-8 -78h-57zM256 641l8 78h57l-8 -78h-57zM50 0l57 546h56l-57 -546h-56z" />
    <glyph glyph-name="Alpha" unicode="&#x391;" horiz-adv-x="621" 
d="M-30 0l352 707h97l144 -707h-62l-55 279h-276l-138 -279h-62zM195 330h241l-60 306l-9 44l-22 -45z" />
    <glyph glyph-name="Beta" unicode="&#x392;" horiz-adv-x="603" 
d="M73 0l75 707h180q192 0 192 -155q0 -61 -33 -111.5t-91 -64.5l1 -3q60 -5 98 -47.5t38 -103.5q0 -111 -66.5 -166.5t-182.5 -55.5h-211zM139 51h132q97 0 148.5 35.5t51.5 129.5q0 30 -9 52t-27.5 35t-36 20.5t-47 11t-46.5 4t-48 0.5h-88zM175 390h108q86 0 129 36
t43 122q0 68 -39.5 90t-113.5 22h-99z" />
    <glyph glyph-name="Gamma" unicode="&#x393;" horiz-adv-x="416" 
d="M73 0l75 707h307l-6 -50h-247l-69 -657h-60z" />
    <glyph glyph-name="uni0394" unicode="&#x394;" horiz-adv-x="644" 
d="M56 52h464l-132 585l-9 44l-21 -45zM-32 0l365 707h97l163 -707h-625z" />
    <glyph glyph-name="Epsilon" unicode="&#x395;" horiz-adv-x="562" 
d="M73 0l75 707h377l-5 -50h-318l-29 -276h296l-5 -52h-296l-30 -279h342l-5 -50h-402z" />
    <glyph glyph-name="Zeta" unicode="&#x396;" horiz-adv-x="548" 
d="M8 0l6 60l443 590h-355l6 57h422l-5 -53l-446 -598h404l-6 -56h-469z" />
    <glyph glyph-name="Eta" unicode="&#x397;" horiz-adv-x="728" 
d="M73 0l75 707h59l-34 -327h398l34 327h60l-74 -707h-60l35 329h-398l-35 -329h-60z" />
    <glyph glyph-name="Theta" unicode="&#x398;" horiz-adv-x="798" 
d="M257 329l5 52h287l-5 -52h-287zM357 -11q-141 0 -216 87t-75 234q0 180 102.5 294t278.5 114q141 0 218 -87.5t77 -233.5q0 -181 -103.5 -294.5t-281.5 -113.5zM366 40q149 0 231 102t82 256q0 122 -62 194.5t-179 72.5q-146 0 -228.5 -100.5t-82.5 -252.5
q0 -122 60.5 -197t178.5 -75z" />
    <glyph glyph-name="Iota" unicode="&#x399;" horiz-adv-x="270" 
d="M73 0l75 707h59l-74 -707h-60z" />
    <glyph glyph-name="Kappa" unicode="&#x39a;" horiz-adv-x="581" 
d="M476 -13l-269 378l2 20l308 322h77l-320 -326l255 -362zM73 0l75 707h59l-74 -707h-60z" />
    <glyph glyph-name="Lambda" unicode="&#x39b;" horiz-adv-x="605" 
d="M-25 0l337 707h97l134 -707h-61l-115 634l-9 44l-22 -45l-300 -633h-61z" />
    <glyph glyph-name="Mu" unicode="&#x39c;" horiz-adv-x="867" 
d="M13 0l225 707h88l57 -683l310 683h88l-35 -707h-60l36 643l-291 -643h-105l-54 644l-200 -644h-59z" />
    <glyph glyph-name="Nu" unicode="&#x39d;" horiz-adv-x="710" 
d="M72 0l76 707h99l272 -685l70 685h59l-77 -707h-105l-264 668l-70 -668h-60z" />
    <glyph glyph-name="Xi" unicode="&#x39e;" horiz-adv-x="558" 
d="M21 0l6 55h452l-6 -55h-452zM88 327l6 56h388l-6 -56h-388zM100 652l6 55h432l-6 -55h-432z" />
    <glyph glyph-name="Omicron" unicode="&#x39f;" horiz-adv-x="798" 
d="M357 -11q-141 0 -216 87t-75 234q0 180 102.5 294t278.5 114q141 0 218 -87.5t77 -233.5q0 -181 -103.5 -294.5t-281.5 -113.5zM366 40q149 0 231 102t82 256q0 122 -62 194.5t-179 72.5q-146 0 -228.5 -100.5t-82.5 -252.5q0 -122 60.5 -197t178.5 -75z" />
    <glyph glyph-name="Pi" unicode="&#x3a0;" horiz-adv-x="710" 
d="M73 0l75 707h499l-75 -707h-60l69 653h-379l-69 -653h-60z" />
    <glyph glyph-name="Rho" unicode="&#x3a1;" horiz-adv-x="583" 
d="M73 0l75 707h219q92 0 145 -46.5t53 -137.5q0 -126 -80 -187.5t-210 -61.5h-113l-28 -274h-61zM203 658l-35 -332h141q89 0 140 48.5t51 145.5q0 138 -160 138h-137z" />
    <glyph glyph-name="Sigma" unicode="&#x3a3;" horiz-adv-x="552" 
d="M17 0l6 63l241 288l-176 302l6 54h451l-5 -49h-386l178 -308l-247 -295h396l-6 -55h-458z" />
    <glyph glyph-name="Tau" unicode="&#x3a4;" horiz-adv-x="560" 
d="M217 0l68 654h-246l6 53h552l-6 -53h-246l-69 -654h-59z" />
    <glyph glyph-name="Upsilon" unicode="&#x3a5;" horiz-adv-x="572" 
d="M220 0l29 284l-177 423h65l149 -371l243 371h63l-283 -423l-30 -284h-59z" />
    <glyph glyph-name="Phi" unicode="&#x3a6;" horiz-adv-x="773" 
d="M325 0l9 85q-131 0 -206.5 63.5t-75.5 191.5q0 153 94 237t247 84l8 76h60l-8 -76q132 0 207 -63.5t75 -192.5q0 -153 -94 -236.5t-247 -83.5l-9 -85h-60zM339 136l49 474q-129 0 -203 -69t-74 -193q0 -104 59.5 -158t168.5 -54zM399 136q128 0 202 69.5t74 193.5
q0 104 -59 157.5t-168 53.5z" />
    <glyph glyph-name="Chi" unicode="&#x3a7;" horiz-adv-x="570" 
d="M-26 0l289 376l-157 331h65l132 -285l211 285h65l-253 -331l181 -376h-65l-155 325l-244 -325h-69z" />
    <glyph glyph-name="Psi" unicode="&#x3a8;" horiz-adv-x="714" 
d="M294 0l18 169q-241 25 -241 205q0 20 1 30l30 303h61l-29 -296q-5 -52 8.5 -89.5t43.5 -58t60.5 -30t70.5 -14.5l52 488h59l-51 -487q213 29 232 215l26 272h56l-25 -276q-24 -238 -295 -263l-17 -168h-60z" />
    <glyph glyph-name="uni03A9" unicode="&#x3a9;" horiz-adv-x="807" 
d="M49 0l5 55h182q-66 34 -115 108t-49 177q0 166 106 272t274 106q146 0 221 -87t75 -224q0 -114 -64 -211.5t-168 -140.5h190l-5 -55h-263l5 55q242 133 242 349q0 119 -61 190t-181 71q-146 0 -228.5 -95t-82.5 -235q0 -164 180 -280l-5 -55h-258z" />
    <glyph glyph-name="Iotadieresis" unicode="&#x3aa;" horiz-adv-x="270" 
d="M55 764l8 78h57l-8 -78h-57zM253 764l8 78h57l-8 -78h-57zM73 0l75 707h59l-74 -707h-60z" />
    <glyph glyph-name="Upsilondieresis" unicode="&#x3ab;" horiz-adv-x="572" 
d="M200 764l8 78h57l-8 -78h-57zM398 764l8 78h57l-8 -78h-57zM220 0l29 284l-177 423h65l149 -371l243 371h63l-283 -423l-30 -284h-59z" />
    <glyph glyph-name="alphatonos" unicode="&#x3ac;" horiz-adv-x="506" 
d="M144 -13q-50 0 -76 44t-26 115q0 65 16 133.5t45.5 130t78.5 101t108 39.5q70 0 96 -82l9 78h54l-57 -546h-57l13 123q-37 -59 -93.5 -97.5t-110.5 -38.5zM156 42q45 0 101 40.5t97 108.5l25 209q-38 99 -95 99q-55 0 -99.5 -59.5t-65 -137.5t-20.5 -150
q0 -49 14.5 -79.5t42.5 -30.5zM291 634l67 158h66l-79 -158h-54z" />
    <glyph glyph-name="epsilontonos" unicode="&#x3ad;" horiz-adv-x="447" 
d="M232 632l67 158h66l-79 -158h-54zM211 -12q-85 0 -129.5 38t-44.5 103q0 120 116 168q-33 12 -54 40.5t-21 64.5q0 66 52.5 111.5t143.5 45.5q79 0 133 -34l-23 -41q-54 28 -114 28q-133 0 -133 -107q0 -43 29.5 -64t68.5 -21h68l-5 -49h-73q-52 0 -90.5 -35.5
t-38.5 -96.5q0 -99 121 -99q63 0 161 39l19 -45q-99 -46 -186 -46z" />
    <glyph glyph-name="etatonos" unicode="&#x3ae;" horiz-adv-x="511" 
d="M257 634l67 158h66l-79 -158h-54zM319 -219l66 600q7 59 7 78q0 28 -12 39t-44 11q-15 0 -45 -16.5t-55 -34.5t-54.5 -40.5t-33.5 -25.5l-42 -392h-56l57 546h57l-10 -98q1 1 18.5 16t25 21t26 20t32 21.5t31.5 16.5t35.5 13t34.5 4q52 0 71.5 -20.5t19.5 -66.5
q0 -17 -6 -79l-67 -613h-56z" />
    <glyph glyph-name="iotatonos" unicode="&#x3af;" horiz-adv-x="220" 
d="M105 631l67 158h66l-79 -158h-54zM50 0l57 546h56l-57 -546h-56z" />
    <glyph glyph-name="upsilondieresistonos" unicode="&#x3b0;" horiz-adv-x="496" 
d="M244 624l97 158h66l-109 -158h-54zM145 635l8 78h57l-8 -78h-57zM387 635l8 78h57l-8 -78h-57zM218 -11q-67 0 -110.5 36t-43.5 123q0 11 2 37l38 361h54l-38 -355q-2 -26 -2 -35q0 -66 28.5 -91.5t77.5 -25.5q63 0 107.5 70.5t44.5 205.5q0 99 -44 231h56
q43 -112 43 -232q0 -153 -62.5 -239t-150.5 -86z" />
    <glyph glyph-name="alpha" unicode="&#x3b1;" horiz-adv-x="506" 
d="M144 -13q-50 0 -76 44t-26 115q0 65 16 133.5t45.5 130t78.5 101t108 39.5q70 0 96 -82l9 78h54l-57 -546h-57l13 123q-37 -59 -93.5 -97.5t-110.5 -38.5zM156 42q45 0 101 40.5t97 108.5l25 209q-38 99 -95 99q-55 0 -99.5 -59.5t-65 -137.5t-20.5 -150
q0 -49 14.5 -79.5t42.5 -30.5z" />
    <glyph glyph-name="beta" unicode="&#x3b2;" horiz-adv-x="511" 
d="M215 -12q-149 0 -149 225q0 38 5 91l24 237q11 108 72.5 170.5t146.5 62.5q139 0 139 -130q0 -111 -113 -185q57 -7 87.5 -51.5t30.5 -115.5q0 -123 -68 -213.5t-175 -90.5zM221 36q78 0 128.5 72.5t50.5 171.5q0 72 -22 105t-81 33q-18 0 -43 -7.5t-39 -13.5t-48.5 -23
t-37.5 -18l-5 -48q-5 -55 -5 -91q0 -181 102 -181zM134 403q64 28 84 36q177 79 177 201q0 46 -24 66t-73 20q-60 0 -99 -49t-50 -134z" />
    <glyph glyph-name="gamma" unicode="&#x3b3;" horiz-adv-x="433" 
d="M113 -220q3 87 20 221q-5 154 -36.5 304t-62.5 241h60q74 -239 88 -463q169 293 193 463h54q-9 -64 -41.5 -147.5t-57 -132.5t-80.5 -151t-64 -118v-28q1 -28 0 -28q-5 -97 -16 -161h-57z" />
    <glyph glyph-name="delta" unicode="&#x3b4;" horiz-adv-x="494" 
d="M198 -12q-72 0 -115.5 50t-43.5 137q0 128 56.5 215t149.5 123q-37 24 -59.5 51.5t-22.5 67.5q0 73 50.5 107.5t131.5 34.5q75 0 140 -28l-16 -46q-74 26 -136 26q-56 0 -86.5 -21.5t-30.5 -61.5q0 -20 5.5 -35.5t20.5 -30t24 -22t35 -24t34 -21.5q50 -34 79 -78t29 -117
q0 -156 -74.5 -241.5t-170.5 -85.5zM210 38q53 0 95 45t61.5 105t19.5 118q0 73 -25 110t-78 70q-90 -38 -138 -120t-48 -180q0 -70 25.5 -109t87.5 -39z" />
    <glyph glyph-name="epsilon" unicode="&#x3b5;" horiz-adv-x="447" 
d="M211 -12q-85 0 -129.5 38t-44.5 103q0 120 116 168q-33 12 -54 40.5t-21 64.5q0 66 52.5 111.5t143.5 45.5q79 0 133 -34l-23 -41q-54 28 -114 28q-133 0 -133 -107q0 -43 29.5 -64t68.5 -21h68l-5 -49h-73q-52 0 -90.5 -35.5t-38.5 -96.5q0 -99 121 -99q63 0 161 39
l19 -45q-99 -46 -186 -46z" />
    <glyph glyph-name="zeta" unicode="&#x3b6;" horiz-adv-x="415" 
d="M330 -159l-44 9q52 85 52 128q0 22 -18 22q-24 0 -66 -6t-65 -6q-70 0 -111.5 37t-41.5 114q0 69 26 143.5t66.5 137t91 121t97 99.5t87.5 68h-275l5 46h336l-6 -51q-63 -45 -123.5 -103t-118 -130.5t-93 -157.5t-35.5 -164q0 -56 25 -81.5t77 -25.5q30 0 73 6.5t71 6.5
q49 0 49 -59q0 -67 -59 -154z" />
    <glyph glyph-name="eta" unicode="&#x3b7;" horiz-adv-x="511" 
d="M319 -219l66 600q7 59 7 78q0 28 -12 39t-44 11q-15 0 -45 -16.5t-55 -34.5t-54.5 -40.5t-33.5 -25.5l-42 -392h-56l57 546h57l-10 -98q1 1 18.5 16t25 21t26 20t32 21.5t31.5 16.5t35.5 13t34.5 4q52 0 71.5 -20.5t19.5 -66.5q0 -17 -6 -79l-67 -613h-56z" />
    <glyph glyph-name="theta" unicode="&#x3b8;" horiz-adv-x="507" 
d="M212 -12q-75 0 -105.5 49t-30.5 156q0 5 0.5 15t0.5 16q0 26 -48 10l-6 39q47 15 71 15q23 0 31 -19.5t8 -64.5q0 -94 18.5 -131.5t70.5 -37.5q42 0 74.5 32t52 87.5t30.5 116t16 131.5q-60 -34 -128 -34q-81 0 -126 50.5t-45 126.5q0 88 54.5 157t137.5 69
q95 0 133.5 -64t38.5 -183q0 -93 -12.5 -181t-39 -171t-77.5 -133.5t-119 -50.5zM270 414q66 0 128 33q2 52 2 76q0 103 -28 152t-92 49q-60 0 -94 -52t-34 -122q0 -59 32.5 -97.5t85.5 -38.5z" />
    <glyph glyph-name="iota" unicode="&#x3b9;" horiz-adv-x="220" 
d="M50 0l57 546h56l-57 -546h-56z" />
    <glyph glyph-name="kappa" unicode="&#x3ba;" horiz-adv-x="466" 
d="M370 -17l-201 308l203 255h70l-205 -255l186 -278zM51 0l57 546h56l-57 -546h-56z" />
    <glyph glyph-name="lambda" unicode="&#x3bb;" horiz-adv-x="479" 
d="M425 -9q-43 3 -63 33t-29 83l-49 303l-14 98l-44 -102l-184 -406h-61l259 546h22l-14 86q-8 50 -22.5 72t-52.5 22q-30 0 -73 -18l-8 45q51 22 85 22q104 0 121 -109l88 -544q7 -47 20 -63t36 -23z" />
    <glyph glyph-name="uni03BC" unicode="&#x3bc;" horiz-adv-x="513" 
d="M27 -220l81 766h56l-42 -380q-5 -45 -5 -67q0 -37 12 -51t42 -14q32 0 67.5 21.5t76 58.5t44.5 40l42 392h56l-58 -546h-56l10 98q-9 -7 -37.5 -33t-46.5 -40t-49 -27.5t-62 -12.5q-35 2 -54 8l-22 -213h-55z" />
    <glyph glyph-name="nu" unicode="&#x3bd;" horiz-adv-x="462" 
d="M132 0l-84 546h62l68 -481q216 294 216 469q0 2 -0.5 6t-0.5 6h56v-12q0 -189 -256 -534h-61z" />
    <glyph glyph-name="xi" unicode="&#x3be;" horiz-adv-x="421" 
d="M323 -159l-44 9q52 85 52 128q0 22 -20 22q-65 0 -112.5 8t-86.5 28t-59 57.5t-20 92.5q0 86 56 146.5t151 80.5q-65 21 -100.5 66.5t-35.5 99.5q0 91 67 139t167 48q56 0 112 -24l-8 -45q-50 21 -103 21q-78 0 -128.5 -32t-50.5 -99q0 -61 45.5 -104t127.5 -44l-9 -47
q-118 -21 -175 -68.5t-57 -128.5q0 -40 13.5 -68t32 -42.5t54.5 -22t64 -9t77 -1.5t49 -57q0 -67 -59 -154z" />
    <glyph glyph-name="omicron" unicode="&#x3bf;" horiz-adv-x="505" 
d="M193 -12q-68 0 -108 54.5t-40 132.5q0 176 73.5 280.5t190.5 104.5q69 0 107 -54.5t38 -126.5t-14.5 -138.5t-44 -124.5t-82 -93t-120.5 -35zM210 38q77 0 131.5 93t54.5 230q0 77 -25 113.5t-84 36.5q-75 0 -129 -94t-54 -224q0 -155 106 -155z" />
    <glyph glyph-name="pi" unicode="&#x3c0;" horiz-adv-x="526" 
d="M69 0l52 490h-69l6 56h453l-5 -56h-61l-53 -490h-56l53 490h-212l-52 -490h-56z" />
    <glyph glyph-name="rho" unicode="&#x3c1;" horiz-adv-x="510" 
d="M9 -220l43 401q22 207 85.5 293t167.5 86q63 0 109 -44t46 -127q0 -105 -29.5 -194.5t-89 -146.5t-137.5 -57q-67 0 -114 32l-25 -243h-56zM200 41q68 0 116 55.5t67.5 131.5t19.5 161q0 56 -29.5 89t-77.5 33q-79 0 -123.5 -77t-64.5 -248l-13 -109q55 -36 105 -36z" />
    <glyph glyph-name="uni03C2" unicode="&#x3c2;" horiz-adv-x="475" 
d="M342 -159l-44 9q52 85 52 128q0 22 -18 22q-28 0 -78 -6t-80 -6q-128 0 -128 205q0 99 30.5 182t91 134t138.5 51q74 0 122 -50l-35 -34q-42 35 -93 35q-57 0 -97.5 -33.5t-60 -87.5t-28 -106t-8.5 -105q0 -139 83 -139q30 0 82.5 7t80.5 7q49 0 49 -59q0 -67 -59 -154z
" />
    <glyph glyph-name="sigma" unicode="&#x3c3;" horiz-adv-x="526" 
d="M193 -12q-67 0 -108 53t-41 135q0 74 17.5 141.5t51.5 122t90.5 86t126.5 28.5l191 -8l-8 -50l-92 4q37 -62 37 -149q0 -157 -72.5 -260t-192.5 -103zM210 38q47 0 85 30t60.5 77.5t34.5 99.5t12 101q0 105 -43 156l-36 2q-72 4 -123.5 -41.5t-74 -115.5t-22.5 -154
q0 -155 107 -155z" />
    <glyph glyph-name="tau" unicode="&#x3c4;" horiz-adv-x="389" 
d="M230 -12q-56 0 -84 22.5t-28 89.5q0 26 2 41l37 353h-127l6 52h354l-6 -52h-171l-37 -350q-2 -22 -2 -30q0 -77 61 -77q36 0 82 22l7 -44q-45 -27 -94 -27z" />
    <glyph glyph-name="upsilon" unicode="&#x3c5;" horiz-adv-x="494" 
d="M217 -11q-67 0 -110.5 36t-43.5 123q0 11 2 37l38 361h54l-38 -355q-2 -26 -2 -35q0 -66 28.5 -91.5t77.5 -25.5q63 0 107.5 70.5t44.5 205.5q0 99 -44 231h56q43 -112 43 -232q0 -153 -62.5 -239t-150.5 -86z" />
    <glyph glyph-name="phi" unicode="&#x3c6;" horiz-adv-x="613" 
d="M225 -220l22 213q-89 1 -144 53t-55 139q0 117 39 212t100 149h57q-55 -41 -96 -139t-41 -204q0 -70 34 -116t111 -49l37 349q8 72 40 122.5t93 50.5q139 0 139 -189q0 -67 -13 -126.5t-42 -113t-80.5 -89t-122.5 -45.5l-23 -217h-55zM308 42q88 16 141.5 101t53.5 208
q0 70 -19 115t-62 45q-34 0 -52 -34t-26 -104z" />
    <glyph glyph-name="chi" unicode="&#x3c7;" horiz-adv-x="426" 
d="M353 -225q-51 12 -72 44t-44 124l-44 175l-183 -338h-62l223 400l-75 256q-18 63 -58 75l19 50q41 -8 59.5 -32.5t32.5 -74.5l60 -210l166 302h63l-208 -364l63 -222q22 -79 35.5 -103.5t39.5 -32.5z" />
    <glyph glyph-name="psi" unicode="&#x3c8;" horiz-adv-x="625" 
d="M227 -220l22 210q-89 6 -136.5 63t-47.5 150q0 19 1 29l33 314h54l-33 -308q-1 -10 -1 -30q0 -155 135 -168l66 618h55l-65 -617q86 11 142 81t56 193q0 120 -37 231h56q36 -94 36 -232q0 -142 -74.5 -226.5t-184.5 -96.5l-22 -211h-55z" />
    <glyph glyph-name="omega" unicode="&#x3c9;" 
d="M173 -8q-59 0 -94 46t-35 121q0 244 164 387h65q-169 -137 -169 -371q0 -132 82 -132q40 0 70 42t38 117l17 158h55l-15 -154q-2 -30 -2 -48q0 -115 60 -115q40 0 70.5 30t45.5 76t22 88t7 77q0 138 -78 232h67q70 -107 70 -214q0 -84 -22 -159.5t-71.5 -128
t-115.5 -52.5q-37 0 -66 29.5t-30 80.5q-22 -54 -60 -82t-75 -28z" />
    <glyph glyph-name="iotadieresis" unicode="&#x3ca;" horiz-adv-x="220" 
d="M25 676l8 78h57l-8 -78h-57zM212 676l8 78h57l-8 -78h-57zM50 0l57 546h56l-57 -546h-56z" />
    <glyph glyph-name="upsilondieresis" unicode="&#x3cb;" horiz-adv-x="496" 
d="M155 676l8 78h57l-8 -78h-57zM342 676l8 78h57l-8 -78h-57zM218 -11q-67 0 -110.5 36t-43.5 123q0 11 2 37l38 361h54l-38 -355q-2 -26 -2 -35q0 -66 28.5 -91.5t77.5 -25.5q63 0 107.5 70.5t44.5 205.5q0 99 -44 231h56q43 -112 43 -232q0 -153 -62.5 -239t-150.5 -86z
" />
    <glyph glyph-name="omicrontonos" unicode="&#x3cc;" horiz-adv-x="505" 
d="M271 632l67 158h66l-79 -158h-54zM193 -12q-68 0 -108 54.5t-40 132.5q0 176 73.5 280.5t190.5 104.5q69 0 107 -54.5t38 -126.5t-14.5 -138.5t-44 -124.5t-82 -93t-120.5 -35zM210 38q77 0 131.5 93t54.5 230q0 77 -25 113.5t-84 36.5q-75 0 -129 -94t-54 -224
q0 -155 106 -155z" />
    <glyph glyph-name="upsilontonos" unicode="&#x3cd;" horiz-adv-x="496" 
d="M248 631l67 158h66l-79 -158h-54zM218 -11q-67 0 -110.5 36t-43.5 123q0 11 2 37l38 361h54l-38 -355q-2 -26 -2 -35q0 -66 28.5 -91.5t77.5 -25.5q63 0 107.5 70.5t44.5 205.5q0 99 -44 231h56q43 -112 43 -232q0 -153 -62.5 -239t-150.5 -86z" />
    <glyph glyph-name="omegatonos" unicode="&#x3ce;" 
d="M332 624l67 158h66l-79 -158h-54zM173 -8q-59 0 -94 46t-35 121q0 244 164 387h65q-169 -137 -169 -371q0 -132 82 -132q40 0 70 42t38 117l17 158h55l-15 -154q-2 -30 -2 -48q0 -115 60 -115q40 0 70.5 30t45.5 76t22 88t7 77q0 138 -78 232h67q70 -107 70 -214
q0 -84 -22 -159.5t-71.5 -128t-115.5 -52.5q-37 0 -66 29.5t-30 80.5q-22 -54 -60 -82t-75 -28z" />
    <glyph glyph-name="uni03D0" unicode="&#x3d0;" horiz-adv-x="522" 
d="M27 -220l80 761q12 108 73 170.5t146 62.5q139 0 139 -130q0 -71 -39.5 -136t-97.5 -82q62 6 102 -28t40 -106q0 -123 -67.5 -211.5t-175.5 -88.5q-77 0 -122 27l-25 -239h-53zM233 41q78 0 128.5 70t50.5 169q0 49 -21.5 76t-53.5 33.5t-83 4.5l-3 40q65 7 110.5 68.5
t45.5 137.5q0 46 -24 66t-73 20q-60 0 -99 -49t-50 -134l-51 -470q58 -32 123 -32z" />
    <glyph glyph-name="uni03D8" unicode="&#x3d8;" horiz-adv-x="748" 
d="M258 -166l27 156q-99 9 -164 71t-65 193q0 107 32.5 197t87 148.5t125 91t147.5 32.5q119 0 190.5 -68.5t71.5 -200.5q0 -107 -31 -194.5t-82.5 -143t-113.5 -87.5t-129 -39l-27 -156h-69zM329 38q58 0 114.5 26t103.5 75.5t76 130t29 180.5q0 106 -54 164t-160 58
q-148 0 -236 -119.5t-88 -291.5q0 -64 18.5 -109.5t51 -69t68 -34t77.5 -10.5z" />
    <glyph glyph-name="uni03D9" unicode="&#x3d9;" horiz-adv-x="553" 
d="M198 -182l18 175q-77 6 -122.5 57.5t-45.5 136.5q0 121 71.5 194.5t174.5 73.5q90 0 142.5 -51.5t52.5 -142.5q0 -110 -63 -185.5t-154 -81.5l-21 -176h-53zM249 39q85 0 134 64t49 152q0 66 -36 108.5t-110 42.5q-49 0 -86 -19.5t-57.5 -52t-30.5 -68.5t-10 -74
q0 -67 36 -110t111 -43z" />
    <glyph glyph-name="uni03DA" unicode="&#x3da;" horiz-adv-x="566" 
d="M564 668l-25 -48q-98 43 -199 43q-57 0 -100 -21.5t-67.5 -60.5t-36.5 -87.5t-12 -106.5q0 -55 18.5 -93t48 -57t64.5 -31t69.5 -21.5t62 -22.5t42.5 -39.5t11 -67.5q-13 -126 -288 -196l-9 46q10 3 43 13.5t47.5 15.5t42.5 15.5t42 20t31.5 23t25.5 29t10 33.5
q3 27 -13.5 44t-45 27t-64 19t-71 24.5t-65.5 38t-48.5 64.5t-18.5 100q0 153 75 249t212 96q140 0 218 -49z" />
    <glyph glyph-name="uni03DB" unicode="&#x3db;" horiz-adv-x="473" 
d="M456 509l-24 -46q-78 34 -160 34q-60 0 -101.5 -41.5t-58 -97.5t-16.5 -120q0 -144 126 -162q68 -8 100.5 -33t26.5 -78q-12 -114 -221 -117l4 43q160 1 168 74q3 30 -21.5 44.5t-84.5 22.5q-152 21 -152 198q0 83 24.5 152.5t79 116t131.5 46.5q104 0 179 -36z" />
    <glyph glyph-name="uni03DC" unicode="&#x3dc;" horiz-adv-x="472" 
d="M73 0l75 707h321l-5 -50h-262l-31 -296h240l-5 -53h-241l-32 -308h-60z" />
    <glyph glyph-name="uni03DD" unicode="&#x3dd;" horiz-adv-x="389" 
d="M69 -220l55 542h-80l5 50h81l23 222q14 180 210 180q41 0 85 -14l-15 -46q-44 12 -82 12q-70 0 -104 -29.5t-40 -96.5l-24 -228h118l-4 -50h-119l-56 -542h-53z" />
    <glyph glyph-name="uni03DE" unicode="&#x3de;" horiz-adv-x="455" 
d="M143 -124l213 396h-343l231 458l58 8l-206 -421h342l-234 -425z" />
    <glyph glyph-name="uni03DF" unicode="&#x3df;" horiz-adv-x="440" 
d="M159 -42l182 337h-325l200 363l59 6l-175 -315h326l-204 -379z" />
    <glyph glyph-name="uni03E0" unicode="&#x3e0;" horiz-adv-x="735" 
d="M452 -73l-26 36q169 118 180 295l-438 -255l-17 49l447 263q-7 53 -41 95q-90 -54 -254 -149t-232 -136l-22 50l466 269q-28 20 -74 34t-87 14q-82 0 -174 -47l-21 39q95 59 205 59q137 0 216 -74.5t79 -188.5q0 -108 -68.5 -212t-138.5 -141z" />
    <glyph glyph-name="uni03E1" unicode="&#x3e1;" horiz-adv-x="668" 
d="M410 -73l-26 36q169 118 180 295l-438 -255l-17 49l447 263q-7 53 -41 95q-90 -54 -254 -149t-232 -136l-22 50l466 269q-28 20 -74 34t-87 14q-82 0 -174 -47l-21 39q95 59 205 59q137 0 216 -74.5t79 -188.5q0 -108 -68.5 -212t-138.5 -141z" />
    <glyph glyph-name="uni0400" unicode="&#x400;" horiz-adv-x="562" 
d="M417 736l-207 66l25 58l198 -80zM73 0l75 707h377l-5 -50h-318l-29 -276h296l-5 -52h-296l-30 -279h342l-5 -50h-402z" />
    <glyph glyph-name="uni0401" unicode="&#x401;" horiz-adv-x="562" 
d="M220 764l8 78h57l-8 -78h-57zM418 764l8 78h57l-8 -78h-57zM73 0l75 707h377l-5 -50h-318l-29 -276h296l-5 -52h-296l-30 -279h342l-5 -50h-402z" />
    <glyph glyph-name="uni0402" unicode="&#x402;" horiz-adv-x="718" 
d="M376 -220l-34 46q258 188 258 408q0 142 -130 142q-99 0 -194 -50l-35 -326h-59l68 654h-209l6 53h520l-6 -53h-251l-28 -271q122 45 208 45q88 0 130.5 -50.5t42.5 -138.5q0 -74 -25.5 -145t-69.5 -129t-91 -102.5t-101 -82.5z" />
    <glyph glyph-name="uni0403" unicode="&#x403;" horiz-adv-x="497" 
d="M259 737l-13 43l221 78l14 -57zM73 0l75 707h387l-5 -53h-328l-69 -654h-60z" />
    <glyph glyph-name="uni0404" unicode="&#x404;" horiz-adv-x="634" 
d="M375 -10q-143 0 -226.5 88t-83.5 234q0 179 103 290t280 111q97 0 158 -27l-22 -49q-63 23 -139 23q-135 0 -215.5 -75t-98.5 -203h393l-5 -53h-392v-16q0 -129 72.5 -198.5t200.5 -69.5q84 0 150 22l12 -52q-80 -25 -187 -25z" />
    <glyph glyph-name="uni0405" unicode="&#x405;" horiz-adv-x="511" 
d="M207 -11q-45 0 -102 14.5t-86 33.5l25 53q96 -47 167 -47q174 0 174 147q0 38 -29.5 70.5t-72 58t-85 54t-72 72t-29.5 97.5q0 82 61.5 127t153.5 45q48 0 95.5 -12t72.5 -27l-19 -50q-76 36 -153 36q-68 0 -110.5 -28.5t-42.5 -92.5q0 -39 29.5 -72.5t71.5 -60.5
t84.5 -56t72 -71t29.5 -92q0 -94 -65.5 -146.5t-169.5 -52.5z" />
    <glyph glyph-name="uni0406" unicode="&#x406;" horiz-adv-x="270" 
d="M73 0l75 707h59l-74 -707h-60z" />
    <glyph glyph-name="uni0407" unicode="&#x407;" horiz-adv-x="270" 
d="M56 764l8 78h57l-8 -78h-57zM254 764l8 78h57l-8 -78h-57zM73 0l75 707h59l-74 -707h-60z" />
    <glyph glyph-name="uni0408" unicode="&#x408;" horiz-adv-x="270" 
d="M-62 -184l-23 44q91 48 127 112t48 179l59 556h59l-58 -554q-13 -128 -61.5 -209t-150.5 -128z" />
    <glyph glyph-name="uni0409" unicode="&#x409;" horiz-adv-x="945" 
d="M-3 -22l-26 55q39 18 72.5 48t52.5 61q65 106 137 565h348l-31 -290h112q238 0 238 -184q0 -10 -2 -30q-10 -90 -71 -146.5t-157 -56.5h-222l67 655h-231q-6 -33 -18.5 -100t-19 -98t-17 -83.5t-18.5 -82t-18.5 -66t-21.5 -63t-23 -47.5q-55 -94 -151 -137zM656 365h-111
l-33 -316h142q79 0 125.5 42t54.5 117q9 86 -39 121.5t-139 35.5z" />
    <glyph glyph-name="uni040A" unicode="&#x40a;" horiz-adv-x="975" 
d="M73 0l75 707h59l-32 -306h351l32 306h60l-32 -306h111q234 0 234 -177q0 -9 -2 -29q-10 -87 -69.5 -141t-153.5 -54h-222l37 350h-351l-37 -350h-60zM692 349h-112l-31 -300h141q77 0 122 39.5t53 111.5l1 23q0 70 -45.5 98t-128.5 28z" />
    <glyph glyph-name="uni040B" unicode="&#x40b;" horiz-adv-x="731" 
d="M182 0l68 654h-209l6 53h520l-6 -53h-251l-27 -271q108 45 211 45q178 0 178 -149q0 -11 -2 -33l-26 -246h-59l27 257q1 6 1 17q0 103 -152 103q-35 0 -87 -13.5t-97 -37.5l-36 -326h-59z" />
    <glyph glyph-name="uni040C" unicode="&#x40c;" horiz-adv-x="581" 
d="M273 737l-13 43l221 78l14 -57zM476 -13l-269 378l2 20l308 322h77l-320 -326l255 -362zM73 0l75 707h59l-74 -707h-60z" />
    <glyph glyph-name="uni040D" unicode="&#x40d;" horiz-adv-x="748" 
d="M495 736l-207 66l25 58l198 -80zM73 0l75 707h59l-54 -518l-14 -110l69 107l417 521h60l-74 -707h-60l54 518l14 110l-41 -62l-445 -566h-60z" />
    <glyph glyph-name="uni040E" unicode="&#x40e;" horiz-adv-x="539" 
d="M311 759q-102 0 -151 79l39 33q40 -58 117 -58q75 0 126 58l33 -33q-66 -79 -164 -79zM114 -9l-19 55q51 17 86.5 46t67.5 92l19 34h-35l-187 489h66l174 -451l226 451h63l-277 -537q-44 -84 -81.5 -118.5t-102.5 -60.5z" />
    <glyph glyph-name="uni040F" unicode="&#x40f;" horiz-adv-x="712" 
d="M278 -153l16 153h-221l74 707h60l-68 -655h382l68 655h59l-73 -707h-222l-15 -153h-60z" />
    <glyph glyph-name="uni0410" unicode="&#x410;" horiz-adv-x="621" 
d="M-30 0l352 707h97l144 -707h-62l-55 279h-276l-138 -279h-62zM195 330h241l-60 306l-9 44l-22 -45z" />
    <glyph glyph-name="uni0411" unicode="&#x411;" horiz-adv-x="597" 
d="M74 0l73 707h399l-5 -49h-339l-25 -241h121q237 0 237 -182q0 -10 -2 -32q-9 -90 -70 -146.5t-157 -56.5h-232zM292 365h-121l-32 -316h150q80 0 126.5 42t54.5 117q8 86 -39.5 121.5t-138.5 35.5z" />
    <glyph glyph-name="uni0412" unicode="&#x412;" horiz-adv-x="603" 
d="M73 0l75 707h180q192 0 192 -155q0 -61 -33 -111.5t-91 -64.5l1 -3q60 -5 98 -47.5t38 -103.5q0 -111 -66.5 -166.5t-182.5 -55.5h-211zM139 51h132q97 0 148.5 35.5t51.5 129.5q0 30 -9 52t-27.5 35t-36 20.5t-47 11t-46.5 4t-48 0.5h-88zM175 390h108q86 0 129 36
t43 122q0 68 -39.5 90t-113.5 22h-99z" />
    <glyph glyph-name="uni0413" unicode="&#x413;" horiz-adv-x="497" 
d="M73 0l75 707h387l-5 -53h-328l-69 -654h-60z" />
    <glyph glyph-name="uni0414" unicode="&#x414;" horiz-adv-x="683" 
d="M-40 -153l21 205h57q36 56 106 196q8 16 25.5 73.5t43 166.5t42.5 219h340l-68 -655h87l-21 -205h-60l16 153h-515l-15 -153h-59zM107 52h360l62 603h-225q-19 -107 -43.5 -205.5t-37.5 -140.5t-20 -61q-31 -81 -96 -196z" />
    <glyph glyph-name="uni0415" unicode="&#x415;" horiz-adv-x="562" 
d="M73 0l75 707h377l-5 -50h-318l-29 -276h296l-5 -52h-296l-30 -279h342l-5 -50h-402z" />
    <glyph glyph-name="uni0416" unicode="&#x416;" horiz-adv-x="852" 
d="M43 -20l-53 37l312 366l-223 324h68l218 -326l-2 -19zM748 -20l-253 382l2 19l286 326h76l-300 -327l242 -363zM362 0l74 707h59l-73 -707h-60z" />
    <glyph glyph-name="uni0417" unicode="&#x417;" horiz-adv-x="524" 
d="M194 -8q-102 0 -185 39l25 51q72 -36 163 -36q79 0 131.5 34.5t60.5 111.5q8 73 -40 105t-136 32h-65l6 52h65q74 0 120.5 38t53.5 106q7 66 -27.5 101t-102.5 35q-57 0 -148 -32l-13 44q86 38 172 38q93 0 141.5 -48t40.5 -125q-5 -42 -21.5 -76t-39 -54.5t-38.5 -31
t-31 -16.5v-2q138 -36 125 -161q-4 -38 -20 -72.5t-45.5 -65t-79 -49t-112.5 -18.5z" />
    <glyph glyph-name="uni0418" unicode="&#x418;" horiz-adv-x="748" 
d="M73 0l75 707h59l-54 -518l-14 -110l69 107l417 521h60l-74 -707h-60l54 518l14 110l-41 -62l-445 -566h-60z" />
    <glyph glyph-name="uni0419" unicode="&#x419;" horiz-adv-x="748" 
d="M426 759q-102 0 -151 79l39 33q40 -58 117 -58q75 0 126 58l33 -33q-66 -79 -164 -79zM73 0l75 707h59l-54 -518l-14 -110l69 107l417 521h60l-74 -707h-60l54 518l14 110l-41 -62l-445 -566h-60z" />
    <glyph glyph-name="uni041A" unicode="&#x41a;" horiz-adv-x="581" 
d="M476 -13l-269 378l2 20l308 322h77l-320 -326l255 -362zM73 0l75 707h59l-74 -707h-60z" />
    <glyph glyph-name="uni041B" unicode="&#x41b;" horiz-adv-x="645" 
d="M-3 -22l-26 55q39 18 72.5 48t52.5 61q65 106 137 565h348l-73 -707h-60l67 655h-231q-6 -33 -18.5 -100t-19 -98t-17 -83.5t-18.5 -82t-18.5 -66t-21.5 -63t-23 -47.5q-55 -94 -151 -137z" />
    <glyph glyph-name="uni041C" unicode="&#x41c;" horiz-adv-x="867" 
d="M13 0l225 707h88l57 -683l310 683h88l-35 -707h-60l36 643l-291 -643h-105l-54 644l-200 -644h-59z" />
    <glyph glyph-name="uni041D" unicode="&#x41d;" horiz-adv-x="728" 
d="M73 0l75 707h59l-34 -327h398l34 327h60l-74 -707h-60l35 329h-398l-35 -329h-60z" />
    <glyph glyph-name="uni041E" unicode="&#x41e;" horiz-adv-x="798" 
d="M357 -11q-141 0 -216 87t-75 234q0 180 102.5 294t278.5 114q141 0 218 -87.5t77 -233.5q0 -181 -103.5 -294.5t-281.5 -113.5zM366 40q149 0 231 102t82 256q0 122 -62 194.5t-179 72.5q-146 0 -228.5 -100.5t-82.5 -252.5q0 -122 60.5 -197t178.5 -75z" />
    <glyph glyph-name="uni041F" unicode="&#x41f;" horiz-adv-x="718" 
d="M73 0l75 708h507l-74 -708h-60l69 656h-388l-69 -656h-60z" />
    <glyph glyph-name="uni0420" unicode="&#x420;" horiz-adv-x="583" 
d="M73 0l75 707h219q92 0 145 -46.5t53 -137.5q0 -126 -80 -187.5t-210 -61.5h-113l-28 -274h-61zM203 658l-35 -332h141q89 0 140 48.5t51 145.5q0 138 -160 138h-137z" />
    <glyph glyph-name="uni0421" unicode="&#x421;" horiz-adv-x="625" 
d="M375 -10q-143 0 -226.5 88t-83.5 234q0 179 103 290t280 111q97 0 158 -27l-22 -49q-63 23 -139 23q-152 0 -235 -95t-83 -252q0 -129 72.5 -198.5t200.5 -69.5q84 0 150 22l12 -52q-80 -25 -187 -25z" />
    <glyph glyph-name="uni0422" unicode="&#x422;" horiz-adv-x="560" 
d="M217 0l68 654h-246l6 53h552l-6 -53h-246l-69 -654h-59z" />
    <glyph glyph-name="uni0423" unicode="&#x423;" horiz-adv-x="539" 
d="M114 -9l-19 55q51 17 86.5 46t67.5 92l19 34h-35l-187 489h66l174 -451l226 451h63l-277 -537q-44 -84 -81.5 -118.5t-102.5 -60.5z" />
    <glyph glyph-name="uni0424" unicode="&#x424;" horiz-adv-x="773" 
d="M325 0l9 85q-131 0 -206.5 63.5t-75.5 191.5q0 153 94 237t247 84l8 76h60l-8 -76q132 0 207 -63.5t75 -192.5q0 -153 -94 -236.5t-247 -83.5l-9 -85h-60zM339 136l49 474q-129 0 -203 -69t-74 -193q0 -104 59.5 -158t168.5 -54zM399 136q128 0 202 69.5t74 193.5
q0 104 -59 157.5t-168 53.5z" />
    <glyph glyph-name="uni0425" unicode="&#x425;" horiz-adv-x="570" 
d="M-23 0l289 376l-157 331h65l132 -285l211 285h65l-253 -331l181 -376h-65l-155 325l-244 -325h-69z" />
    <glyph glyph-name="uni0426" unicode="&#x426;" horiz-adv-x="737" 
d="M587 -153l16 153h-530l74 707h60l-68 -655h382l68 655h59l-68 -655h88l-21 -205h-60z" />
    <glyph glyph-name="uni0427" unicode="&#x427;" horiz-adv-x="619" 
d="M423 0l34 334q-100 -45 -202 -45q-188 0 -188 150q0 10 2 32l24 236h59l-25 -247q-1 -6 -1 -17q0 -103 142 -103q100 0 195 51l33 316h60l-74 -707h-59z" />
    <glyph glyph-name="uni0428" unicode="&#x428;" horiz-adv-x="970" 
d="M73 0l74 707h60l-68 -655h290l68 655h60l-68 -655h290l68 655h59l-73 -707h-760z" />
    <glyph glyph-name="uni0429" unicode="&#x429;" horiz-adv-x="995" 
d="M845 -153l16 153h-788l74 707h60l-68 -655h290l68 655h60l-68 -655h290l68 655h59l-68 -655h88l-21 -205h-60z" />
    <glyph glyph-name="uni042A" unicode="&#x42a;" horiz-adv-x="661" 
d="M164 0l67 654h-189l6 53h249l-31 -290h112q238 0 238 -184q0 -10 -2 -30q-10 -90 -71 -146.5t-157 -56.5h-222zM372 365h-111l-33 -316h142q79 0 125.5 42t54.5 117q9 86 -39 121.5t-139 35.5z" />
    <glyph glyph-name="uni042B" unicode="&#x42b;" horiz-adv-x="815" 
d="M147 707h60l-31 -290h112q238 0 238 -184q0 -10 -2 -30q-10 -90 -71 -146.5t-157 -56.5h-222zM282 365h-111l-33 -316h142q79 0 125.5 42t54.5 117q1 9 1 25q0 132 -179 132zM618 0l75 707h59l-74 -707h-60z" />
    <glyph glyph-name="uni042C" unicode="&#x42c;" horiz-adv-x="571" 
d="M147 707h60l-31 -290h112q238 0 238 -184q0 -10 -2 -30q-10 -90 -71 -146.5t-157 -56.5h-222zM282 365h-111l-33 -316h142q79 0 125.5 42t54.5 117q1 9 1 25q0 132 -179 132z" />
    <glyph glyph-name="uni042D" unicode="&#x42d;" horiz-adv-x="656" 
d="M211 -10q-132 0 -192 28l20 49q73 -25 160 -25q129 0 221.5 71.5t114.5 216.5h-377l6 52h376q6 144 -66.5 211.5t-190.5 67.5q-89 0 -181 -29l-11 51l5 2q5 2 10.5 4t15.5 5t21.5 6t28 5.5t33.5 4.5t39.5 3.5t46.5 1.5q149 0 231 -80.5t82 -221.5q0 -25 -3 -54
q-15 -159 -121 -264t-269 -105z" />
    <glyph glyph-name="uni042E" unicode="&#x42e;" horiz-adv-x="1049" 
d="M608 -11q-141 0 -216 87t-75 234v19h-149l-35 -329h-60l75 707h59l-34 -327h148q19 152 119 245t258 93q141 0 218 -87.5t77 -233.5q0 -181 -103.5 -294.5t-281.5 -113.5zM617 40q149 0 231 102t82 256q0 122 -62 194.5t-179 72.5q-146 0 -228.5 -100.5t-82.5 -252.5
q0 -122 60.5 -197t178.5 -75z" />
    <glyph glyph-name="uni042F" unicode="&#x42f;" horiz-adv-x="624" 
d="M53 -17l-51 31l244 291q-66 16 -101 60t-35 107q0 109 69.5 172t166.5 63h214l-72 -707h-61l29 291h-103q-24 0 -42 2zM353 343h109l33 315h-133q-87 0 -138 -50t-51 -132q0 -73 46 -103t134 -30z" />
    <glyph glyph-name="uni0430" unicode="&#x430;" horiz-adv-x="499" 
d="M138 -13q-50 0 -76 44t-26 115q0 64 21.5 133.5t60 130.5t100.5 100.5t134 39.5q57 0 90 -7l-56 -543h-57l12 107q-67 -61 -115 -90.5t-88 -29.5zM150 42q34 0 97 47t100 84l35 325q-9 2 -41 2q-58 0 -107 -35t-78.5 -88.5t-46 -112.5t-16.5 -112q0 -49 14.5 -79.5
t42.5 -30.5z" />
    <glyph glyph-name="uni0431" unicode="&#x431;" horiz-adv-x="521" 
d="M207 -7q-68 0 -107 45.5t-39 125.5q0 143 37.5 284.5t97.5 213.5q51 62 297 109l10 -54q-13 -3 -62.5 -13t-80.5 -17.5t-68.5 -23t-56.5 -35.5q-49 -51 -86 -203q3 2 16.5 10.5t18 11.5t17.5 11t19.5 11.5l19.5 10.5t21.5 10t21 7.5t23 6.5t22.5 3.5t24 1.5
q115 0 115 -155q0 -90 -29.5 -171t-90 -135.5t-140.5 -54.5zM218 43q61 0 106.5 52t65 121t19.5 139q0 60 -17.5 81.5t-53.5 21.5q-70 0 -198 -88q-20 -110 -20 -200q0 -127 98 -127z" />
    <glyph glyph-name="uni0432" unicode="&#x432;" horiz-adv-x="488" 
d="M208 -12q-88 0 -126.5 46.5t-38.5 112.5q0 109 30 202t91.5 152.5t143.5 59.5q62 0 91.5 -33t29.5 -79q0 -95 -106 -141q99 -35 99 -127q0 -78 -56 -135.5t-158 -57.5zM208 39q74 0 115 39t41 93q0 94 -102 112l-156 -55q-5 -30 -5 -57q0 -66 24.5 -99t82.5 -33zM111 283
l118 39q79 29 110.5 57t31.5 61q0 35 -21 52.5t-55 17.5q-54 0 -94.5 -36.5t-60.5 -84.5t-29 -106z" />
    <glyph glyph-name="uni0433" unicode="&#x433;" horiz-adv-x="415" 
d="M151 -9q-55 0 -89.5 30.5t-34.5 84.5q0 31 11.5 57.5t39.5 52.5t46 40t58 41q35 24 51.5 36t39.5 32.5t32.5 39t9.5 38.5q0 64 -73 64q-10 0 -21 -2t-19 -3.5t-19.5 -7t-17.5 -8t-18 -10l-16 -10t-17.5 -11.5t-15.5 -11l-26 40q82 71 183 71q51 0 82 -27.5t31 -83.5
q0 -14 -2.5 -27t-9.5 -26t-11.5 -22t-18 -22t-19 -19.5t-23.5 -20t-23.5 -17.5t-26.5 -19t-25 -18q-33 -23 -49.5 -36t-38 -33t-31 -37.5t-9.5 -35.5q0 -40 20.5 -54.5t55.5 -14.5q57 0 170 81l28 -39q-43 -37 -99 -65t-105 -28z" />
    <glyph glyph-name="uni0434" unicode="&#x434;" horiz-adv-x="514" 
d="M195 -12q-68 0 -108 54.5t-40 132.5q0 169 64 253t162 84q61 0 133 -62q-2 121 -32.5 184.5t-108.5 63.5q-45 0 -119 -21l-9 47q82 25 141 25q185 0 185 -294q0 -52 -5 -106t-22.5 -121.5t-45.5 -118.5t-78.5 -86t-116.5 -35zM212 38q77 0 131.5 101.5t58.5 253.5
q-23 25 -61.5 45t-68.5 20q-77 0 -121.5 -69t-44.5 -196q0 -155 106 -155z" />
    <glyph glyph-name="uni0435" unicode="&#x435;" horiz-adv-x="456" 
d="M168 -12q-63 0 -91 56.5t-28 145.5q0 159 67.5 265t185.5 106q63 0 94.5 -33.5t31.5 -85.5q0 -88 -132 -138l-188 -72q-1 -10 -1 -31q0 -160 68 -160q65 0 173 54l20 -45q-84 -44 -130 -54q-35 -8 -70 -8zM113 286l168 67q91 36 91 87q0 37 -21 53.5t-52 16.5
q-149 0 -186 -224z" />
    <glyph glyph-name="uni0436" unicode="&#x436;" horiz-adv-x="716" 
d="M41 -17l-54 30l245 282l-168 251h71l161 -258zM297 0l57 546h57l-58 -546h-56zM617 -17l-201 305l213 258h71l-216 -258l186 -275z" />
    <glyph glyph-name="uni0437" unicode="&#x437;" horiz-adv-x="412" 
d="M146 -9q-79 0 -145 26l17 47q60 -23 120 -23q77 0 115.5 33t38.5 82q0 103 -155 106l-5 42q71 16 119 56t48 85q0 30 -24.5 44.5t-84.5 14.5q-51 0 -105 -15l-13 46q55 20 128 20q74 0 114.5 -28t40.5 -78q0 -46 -36 -88t-96 -67q121 -23 121 -135q0 -71 -53 -119.5
t-145 -48.5z" />
    <glyph glyph-name="uni0438" unicode="&#x438;" horiz-adv-x="511" 
d="M157 -11q-53 0 -75.5 26.5t-22.5 82.5q0 22 3 47l43 401h56l-42 -379q-4 -35 -4 -64q0 -38 11.5 -52.5t40.5 -14.5q33 0 68.5 19t59 40t61.5 60l42 391h56l-58 -546h-56l10 98q-54 -55 -96.5 -82t-96.5 -27z" />
    <glyph glyph-name="uni0439" unicode="&#x439;" horiz-adv-x="512" 
d="M268 661q-46 0 -101 87l45 31q46 -66 70 -66q67 0 152 68l23 -30q-103 -90 -189 -90zM158 -11q-53 0 -75.5 26.5t-22.5 82.5q0 22 3 47l43 401h56l-42 -379q-4 -35 -4 -64q0 -38 11.5 -52.5t40.5 -14.5q33 0 68.5 19t59 40t61.5 60l42 391h56l-58 -546h-56l10 98
q-54 -55 -96.5 -82t-96.5 -27z" />
    <glyph glyph-name="uni043A" unicode="&#x43a;" horiz-adv-x="470" 
d="M371 -17l-201 305l213 258h71l-216 -258l186 -275zM51 0l57 546h57l-58 -546h-56z" />
    <glyph glyph-name="uni043B" unicode="&#x43b;" horiz-adv-x="441" 
d="M3 0v11q0 78 48 176l188 359h102l14 -546h-58l-6 496h-25l-161 -313q-47 -96 -47 -172v-11h-55z" />
    <glyph glyph-name="uni043C" unicode="&#x43c;" horiz-adv-x="696" 
d="M22 0v11q0 77 33 176l121 359h93l34 -516l238 516h98l-57 -546h-56l54 517l-239 -517h-87l-37 516l-108 -333q-32 -98 -32 -172v-11h-55z" />
    <glyph glyph-name="uni043D" unicode="&#x43d;" horiz-adv-x="514" 
d="M50 0l59 546h56l-27 -246l239 19l25 227h56l-59 -546h-56l28 265l-239 -19l-26 -246h-56z" />
    <glyph glyph-name="uni043E" unicode="&#x43e;" horiz-adv-x="505" 
d="M193 -12q-68 0 -108 54.5t-40 132.5q0 176 73.5 280.5t190.5 104.5q69 0 107 -54.5t38 -126.5t-14.5 -138.5t-44 -124.5t-82 -93t-120.5 -35zM210 38q77 0 131.5 93t54.5 230q0 77 -25 113.5t-84 36.5q-75 0 -129 -94t-54 -224q0 -155 106 -155z" />
    <glyph glyph-name="uni043F" unicode="&#x43f;" horiz-adv-x="512" 
d="M51 0l57 546h57l-10 -98q4 3 19.5 16.5t20 17.5t18.5 15.5t19.5 15.5t18.5 12.5t20.5 12t19.5 9t21.5 7.5t21.5 4t24 2q49 0 69 -25t20 -78q0 -31 -4 -63l-43 -394h-56l42 381q4 32 4 61q0 36 -11 51t-39 15q-32 0 -72.5 -25t-118.5 -91l-42 -392h-56z" />
    <glyph glyph-name="uni0440" unicode="&#x440;" horiz-adv-x="524" 
d="M26 -220l83 766h55l-8 -85q119 85 204 85q115 0 115 -155q0 -54 -10.5 -108.5t-34 -107t-56.5 -93t-82.5 -65t-107.5 -24.5q-32 0 -78 8l-24 -221h-56zM191 43q50 0 90 24t65 61t41.5 85t23 92.5t6.5 86.5q0 60 -17.5 81.5t-53.5 21.5q-69 0 -197 -88l-37 -352
q9 -2 21 -4.5t18.5 -4t17 -2.5t22.5 -1z" />
    <glyph glyph-name="uni0441" unicode="&#x441;" horiz-adv-x="445" 
d="M165 -12q-34 0 -58.5 20t-37 51.5t-18 62.5t-5.5 61q0 161 70.5 269t189.5 108q74 0 122 -50l-35 -34q-42 35 -93 35q-54 0 -94 -32t-60.5 -82.5t-30 -101t-9.5 -100.5q0 -72 18.5 -113t42.5 -41q77 0 190 60l21 -42q-37 -22 -60.5 -34t-66.5 -24.5t-86 -12.5z" />
    <glyph glyph-name="uni0442" unicode="&#x442;" horiz-adv-x="783" 
d="M51 0l57 546h57l-10 -97q37 34 57 51t61.5 38.5t77.5 21.5q50 0 70.5 -25t17.5 -76q56 50 100 75.5t93 25.5q48 0 67 -24.5t19 -76.5q0 -33 -4 -65l-43 -394h-55l41 381q5 43 5 64q0 36 -12 50t-42 14q-24 0 -52 -14.5t-49.5 -32t-73.5 -62.5l-43 -400h-56l42 381
q5 43 5 64q0 36 -11.5 49t-41.5 13q-31 0 -68.5 -25t-110.5 -90l-42 -392h-56z" />
    <glyph glyph-name="uni0443" unicode="&#x443;" horiz-adv-x="459" 
d="M70 -220l106 220h-41l-87 546h62l77 -517l160 334q20 42 33.5 91t13.5 80q0 2 -0.5 6t-0.5 6h57v-12q0 -76 -47 -175l-275 -579h-58z" />
    <glyph glyph-name="uni0444" unicode="&#x444;" horiz-adv-x="669" 
d="M251 -220l22 208q-109 1 -166.5 56t-57.5 141q0 374 284 374l21 195h57l-21 -195q109 0 166.5 -55.5t57.5 -141.5q0 -179 -69.5 -276t-215.5 -98l-22 -208h-56zM278 38l50 473q-112 0 -166 -84.5t-54 -223.5q0 -25 3 -45.5t13.5 -44t28 -39t50 -26t75.5 -10.5zM334 37
q113 0 167 85t54 223q0 32 -6 56.5t-22 50.5t-52 41t-90 17z" />
    <glyph glyph-name="uni0445" unicode="&#x445;" horiz-adv-x="431" 
d="M-25 0l215 294l-109 252h60l86 -205l145 205h62l-186 -255l123 -291h-61l-98 242l-174 -242h-63z" />
    <glyph glyph-name="uni0446" unicode="&#x446;" horiz-adv-x="540" 
d="M418 -137l14 137q-49 0 -67 17t-18 48q0 17 3 33q-29 -30 -50 -48.5t-62.5 -39.5t-80.5 -21q-53 0 -75.5 26.5t-22.5 82.5q0 22 3 47l43 401h56l-42 -379q-5 -47 -5 -68q0 -35 11.5 -49t41.5 -14q11 0 23 2.5t25 8.5t23.5 11.5t24 16t21.5 16t22 18t18.5 16.5t17.5 17
l14 13l42 391h56l-46 -430q-2 -26 -2 -32q0 -20 10 -26t42 -8h36l-20 -187h-56z" />
    <glyph glyph-name="uni0447" unicode="&#x447;" horiz-adv-x="464" 
d="M295 0l30 287q-104 -92 -188 -92q-50 0 -68 20.5t-18 66.5q0 17 6 79l19 185h56l-18 -172q-7 -61 -7 -80q0 -27 11 -37.5t41 -10.5q37 0 172 97l20 203h55l-56 -546h-55z" />
    <glyph glyph-name="uni0448" unicode="&#x448;" horiz-adv-x="738" 
d="M140 -14q-51 0 -70.5 20t-19.5 63q0 32 8 83l59 394h55l-57 -381q-8 -74 -8 -83q0 -26 10 -35.5t37 -9.5q9 0 20.5 4t21.5 8.5t24 14.5t23 16t23.5 18.5t20 17.5t18.5 17t14 13l54 400h56l-53 -381q-8 -74 -8 -83q0 -25 10 -34t36 -9q40 0 169 115l42 392h56l-57 -546
h-57l10 97q-1 -1 -31.5 -30t-45.5 -40.5t-44.5 -26t-54.5 -14.5q-56 0 -73.5 23.5t-14.5 77.5q-3 -3 -20.5 -19t-25.5 -23t-26.5 -20.5t-32 -20.5t-32.5 -12.5t-36 -5.5z" />
    <glyph glyph-name="uni0449" unicode="&#x449;" horiz-adv-x="768" 
d="M646 -137l14 137q-49 0 -67.5 17t-18.5 48q0 15 3 32q-1 -1 -31.5 -30t-45.5 -40.5t-44.5 -26t-54.5 -14.5q-56 0 -73.5 23.5t-14.5 77.5q-3 -3 -20.5 -19t-25.5 -23t-26.5 -20.5t-32 -20.5t-32.5 -12.5t-36 -5.5q-51 0 -70.5 20t-19.5 63q0 32 8 83l59 394h55l-57 -381
q-8 -74 -8 -83q0 -26 10 -35.5t37 -9.5q9 0 20.5 4t21.5 8.5t24 14.5t23 16t23.5 18.5t20 17.5t18.5 17t14 13l54 400h56l-53 -381q-8 -74 -8 -83q0 -25 10 -34t36 -9q40 0 169 115l42 392h56l-45 -430q-2 -26 -2 -31q0 -21 11 -27.5t44 -7.5h33l-20 -187h-56z" />
    <glyph glyph-name="uni044A" unicode="&#x44a;" horiz-adv-x="492" 
d="M224 -7q-55 0 -92.5 32.5t-37.5 106.5q0 94 36 179t107 184h-200l5 51h270l13 -30q-107 -118 -142 -220q98 80 167 80q95 0 95 -115q0 -118 -66.5 -193t-154.5 -75zM231 43q62 0 109 57t47 162q0 63 -51 63q-69 0 -167 -84q-17 -52 -17 -110q0 -88 79 -88z" />
    <glyph glyph-name="uni044B" unicode="&#x44b;" horiz-adv-x="621" 
d="M172 -7q-65 0 -132 25l82 528h55l-36 -250q38 28 56 40.5t50.5 26t60.5 13.5q95 0 95 -115q0 -119 -68 -193.5t-163 -74.5zM179 43q69 0 117.5 56.5t48.5 162.5q0 63 -51 63q-24 0 -57.5 -16t-50.5 -28t-54 -40l-28 -184q31 -14 75 -14zM451 0l57 546h56l-57 -546h-56z
" />
    <glyph glyph-name="uni044C" unicode="&#x44c;" horiz-adv-x="449" 
d="M172 -7q-65 0 -132 25l82 528h55l-36 -250q38 28 56 40.5t50.5 26t60.5 13.5q95 0 95 -115q0 -119 -68 -193.5t-163 -74.5zM179 43q69 0 117.5 56.5t48.5 162.5q0 63 -51 63q-24 0 -57.5 -16t-50.5 -28t-54 -40l-28 -184q31 -14 75 -14z" />
    <glyph glyph-name="uni044D" unicode="&#x44d;" horiz-adv-x="427" 
d="M115 -12q-67 0 -115 44l24 43q54 -37 108 -37q60 0 108 59t67 154h-177l5 51h180q3 28 3 59q0 79 -19 114.5t-70 35.5q-61 0 -133 -37l-20 35q78 51 165 51q74 0 104.5 -52t30.5 -129q0 -72 -14.5 -138.5t-44 -124.5t-82 -93t-120.5 -35z" />
    <glyph glyph-name="uni044E" unicode="&#x44e;" horiz-adv-x="703" 
d="M391 -12q-68 0 -108 54.5t-40 132.5q0 46 4 81l-115 -10l-26 -246h-56l59 546h56l-27 -246l118 10q25 118 92 184t159 66q69 0 107 -54.5t38 -126.5t-14.5 -138.5t-44 -124.5t-82 -93t-120.5 -35zM408 38q77 0 131.5 93t54.5 230q0 77 -25 113.5t-84 36.5q-75 0 -129 -94
t-54 -224q0 -155 106 -155z" />
    <glyph glyph-name="uni044F" unicode="&#x44f;" horiz-adv-x="467" 
d="M52 -17l-54 30l200 212q-44 9 -84.5 44t-40.5 94q0 21 3.5 41.5t17 49t35.5 50t63.5 36.5t96.5 15q66 0 120 -19l-55 -536h-56l53 497q-36 8 -73 8q-67 0 -109 -33.5t-42 -103.5q0 -26 13 -47t29 -33t42.5 -21.5t40 -12t35.5 -6.5z" />
    <glyph glyph-name="uni0450" unicode="&#x450;" horiz-adv-x="456" 
d="M335 619l-168 122l34 45l162 -129zM168 -12q-63 0 -91 56.5t-28 145.5q0 159 67.5 265t185.5 106q63 0 94.5 -33.5t31.5 -85.5q0 -88 -132 -138l-188 -72q-1 -10 -1 -31q0 -160 68 -160q65 0 173 54l20 -45q-84 -44 -130 -54q-35 -8 -70 -8zM113 286l168 67q91 36 91 87
q0 37 -21 53.5t-52 16.5q-149 0 -186 -224z" />
    <glyph glyph-name="uni0451" unicode="&#x451;" horiz-adv-x="456" 
d="M179 676l8 78h57l-8 -78h-57zM366 676l8 78h57l-8 -78h-57zM168 -12q-63 0 -91 56.5t-28 145.5q0 159 67.5 265t185.5 106q63 0 94.5 -33.5t31.5 -85.5q0 -88 -132 -138l-188 -72q-1 -10 -1 -31q0 -160 68 -160q65 0 173 54l20 -45q-84 -44 -130 -54q-35 -8 -70 -8z
M113 286l168 67q91 36 91 87q0 37 -21 53.5t-52 16.5q-149 0 -186 -224z" />
    <glyph glyph-name="uni0452" unicode="&#x452;" horiz-adv-x="510" 
d="M248 -220l-44 37q71 79 126 218.5t55 268.5q0 67 -12 92.5t-47 25.5q-16 0 -45.5 -16.5t-55 -34.5t-54.5 -40.5t-33 -25.5l-32 -305h-56l61 581h-90l4 50h92l13 124h56l-13 -124h191l-5 -50h-192l-23 -220q1 1 18.5 16t25 21t26 20t32 21.5t31.5 16.5t35.5 13t34.5 4
q52 0 73.5 -39t21.5 -117q0 -147 -56.5 -289.5t-137.5 -247.5z" />
    <glyph glyph-name="uni0453" unicode="&#x453;" horiz-adv-x="415" 
d="M216 622l-27 37l174 137l34 -46zM151 -9q-55 0 -89.5 30.5t-34.5 84.5q0 31 11.5 57.5t39.5 52.5t46 40t58 41q35 24 51.5 36t39.5 32.5t32.5 39t9.5 38.5q0 64 -73 64q-10 0 -21 -2t-19 -3.5t-19.5 -7t-17.5 -8t-18 -10l-16 -10t-17.5 -11.5t-15.5 -11l-26 40
q82 71 183 71q51 0 82 -27.5t31 -83.5q0 -14 -2.5 -27t-9.5 -26t-11.5 -22t-18 -22t-19 -19.5t-23.5 -20t-23.5 -17.5t-26.5 -19t-25 -18q-33 -23 -49.5 -36t-38 -33t-31 -37.5t-9.5 -35.5q0 -40 20.5 -54.5t55.5 -14.5q57 0 170 81l28 -39q-43 -37 -99 -65t-105 -28z" />
    <glyph glyph-name="uni0454" unicode="&#x454;" horiz-adv-x="446" 
d="M165 -12q-34 0 -58.5 20t-37 51.5t-18 62.5t-5.5 61q0 161 70.5 269t189.5 108q74 0 122 -50l-35 -34q-42 35 -93 35q-75 0 -119 -56.5t-63 -142.5h212l-5 -50h-215q-4 -32 -4 -67q0 -72 18.5 -113t42.5 -41q77 0 190 60l21 -42q-37 -22 -60.5 -34t-66.5 -24.5t-86 -12.5
z" />
    <glyph glyph-name="uni0455" unicode="&#x455;" horiz-adv-x="407" 
d="M148 -9q-87 0 -139 23l17 52q67 -24 126 -24q19 0 38.5 3.5t43 12t38 28t14.5 46.5q0 33 -22 61t-53 49.5t-62 44t-53 54.5t-22 71q0 74 49 108.5t123 34.5q72 0 132 -29l-19 -45q-72 26 -128 26q-43 0 -73.5 -20t-30.5 -64q0 -33 22 -60.5t53.5 -48.5t62.5 -44t53 -57
t22 -77q0 -73 -57 -109t-135 -36z" />
    <glyph glyph-name="uni0456" unicode="&#x456;" horiz-adv-x="221" 
d="M51 0l57 546h56l-57 -546h-56zM119 676l8 78h57l-8 -78h-57z" />
    <glyph glyph-name="uni0457" unicode="&#x457;" horiz-adv-x="221" 
d="M26 676l8 78h57l-8 -78h-57zM213 676l8 78h57l-8 -78h-57zM51 0l57 546h56l-57 -546h-56z" />
    <glyph glyph-name="uni0458" unicode="&#x458;" horiz-adv-x="221" 
d="M-83 -220q-35 0 -62 10l13 51q33 -10 60 -10q63 0 87.5 37t32.5 111l60 567h56l-60 -568q-11 -108 -59.5 -153t-127.5 -45zM119 676l8 78h57l-8 -78h-57z" />
    <glyph glyph-name="uni0459" unicode="&#x459;" horiz-adv-x="656" 
d="M379 -7q-36 0 -85 10l-24 501h-13l-151 -321q-47 -99 -47 -172v-11h-55v11q0 78 48 176l175 359h91l18 -259q114 89 179 89q95 0 95 -115q0 -119 -68 -193.5t-163 -74.5zM386 43q69 0 117.5 56.5t48.5 162.5q0 63 -51 63q-24 0 -57.5 -16t-50.5 -28t-54 -40l14 -197
q9 -1 33 -1z" />
    <glyph glyph-name="uni045A" unicode="&#x45a;" horiz-adv-x="742" 
d="M465 -7q-69 0 -120 21l26 251l-239 -19l-26 -246h-56l59 546h56l-27 -246l239 19l25 227h56l-27 -252q38 28 57 41t52 27t61 14q95 0 95 -115q0 -119 -68 -193.5t-163 -74.5zM472 43q69 0 117.5 56.5t48.5 162.5q0 63 -51 63q-24 0 -57.5 -16t-50.5 -28t-54 -40l-20 -188
q25 -10 67 -10z" />
    <glyph glyph-name="uni045B" unicode="&#x45b;" horiz-adv-x="507" 
d="M50 0l61 581h-90l4 50h92l13 124h56l-13 -124h191l-5 -50h-192l-23 -220q1 1 18.5 16t25 21t26 20t32 21.5t31.5 16.5t35.5 13t34.5 4q52 0 71.5 -20.5t19.5 -66.5q0 -17 -6 -79l-33 -307h-56l32 294q7 59 7 78q0 28 -12 39t-44 11q-16 0 -45.5 -16.5t-55 -34.5
t-54.5 -40.5t-33 -25.5l-32 -305h-56z" />
    <glyph glyph-name="uni045C" unicode="&#x45c;" horiz-adv-x="470" 
d="M241 622l-27 37l174 137l34 -46zM371 -17l-201 305l213 258h71l-216 -258l186 -275zM51 0l57 546h57l-58 -546h-56z" />
    <glyph glyph-name="uni045D" unicode="&#x45d;" horiz-adv-x="512" 
d="M321 619l-168 122l34 45l162 -129zM158 -11q-53 0 -75.5 26.5t-22.5 82.5q0 22 3 47l43 401h56l-42 -379q-4 -35 -4 -64q0 -38 11.5 -52.5t40.5 -14.5q33 0 68.5 19t59 40t61.5 60l42 391h56l-58 -546h-56l10 98q-54 -55 -96.5 -82t-96.5 -27z" />
    <glyph glyph-name="uni045E" unicode="&#x45e;" horiz-adv-x="459" 
d="M236 661q-46 0 -101 87l45 31q46 -66 70 -66q67 0 152 68l23 -30q-103 -90 -189 -90zM70 -220l106 220h-41l-87 546h62l77 -517l160 334q20 42 33.5 91t13.5 80q0 2 -0.5 6t-0.5 6h57v-12q0 -76 -47 -175l-275 -579h-58z" />
    <glyph glyph-name="uni045F" unicode="&#x45f;" horiz-adv-x="511" 
d="M220 -220l34 182h46l-19 -182h-61zM157 -11q-53 0 -75.5 26.5t-22.5 82.5q0 22 3 47l43 401h56l-42 -379q-4 -35 -4 -64q0 -38 11.5 -52.5t40.5 -14.5q33 0 68.5 19t59 40t61.5 60l42 391h56l-58 -546h-56l10 98q-54 -55 -96.5 -82t-96.5 -27z" />
    <glyph glyph-name="uni0462" unicode="&#x462;" horiz-adv-x="675" 
d="M171 0l56 542h-198l6 52h198l12 113h59l-12 -113h230l-5 -51h-230l-15 -142h114q125 0 183 -46t58 -139q0 -96 -65 -156t-166 -60h-225zM379 349h-113l-31 -300h144q86 0 136 46.5t50 118.5q0 73 -48 104t-138 31z" />
    <glyph glyph-name="uni0463" unicode="&#x463;" horiz-adv-x="743" 
d="M466 -7q-69 0 -120 21l40 367q4 44 4 57q0 40 -12.5 55.5t-40.5 15.5q-9 0 -20 -3t-24.5 -10.5t-24.5 -14t-28.5 -19.5t-28 -21t-31.5 -24.5t-31 -24.5l-42 -392h-56l57 546h57l-10 -98q1 1 18.5 16t25 21t26 20t32 21.5t31.5 16.5t35.5 13t34.5 4q49 0 69 -25.5
t20 -79.5q0 -15 -4 -61l-11 -100q38 28 57 41t52 27t61 14q95 0 95 -115q0 -119 -68 -193.5t-163 -74.5zM473 43q69 0 117.5 56.5t48.5 162.5q0 63 -51 63q-24 0 -57.5 -16t-50.5 -28t-54 -40l-20 -188q25 -10 67 -10z" />
    <glyph glyph-name="uni0472" unicode="&#x472;" horiz-adv-x="798" 
d="M357 -11q-141 0 -216 87t-75 234q0 180 102.5 294t278.5 114q141 0 218 -87.5t77 -233.5q0 -181 -103.5 -294.5t-281.5 -113.5zM366 40q131 0 211 80.5t97 210.5h-547v-19q0 -122 60.5 -197t178.5 -75zM438 665q-128 0 -208 -78.5t-98 -204.5h547v16q0 122 -62 194.5
t-179 72.5z" />
    <glyph glyph-name="uni0473" unicode="&#x473;" horiz-adv-x="505" 
d="M193 -12q-68 0 -108 54.5t-40 132.5q0 176 73.5 280.5t190.5 104.5q69 0 107 -54.5t38 -126.5t-14.5 -138.5t-44 -124.5t-82 -93t-120.5 -35zM287 511q-58 0 -105.5 -59.5t-67.5 -153.5h278q4 40 4 63q0 77 -25 113.5t-84 36.5zM210 38q60 0 107.5 58.5t67.5 153.5h-278
q-3 -28 -3 -57q0 -155 106 -155z" />
    <glyph glyph-name="uni0474" unicode="&#x474;" horiz-adv-x="668" 
d="M223 0l-173 707h62l158 -669l248 480q82 161 152 205l41 -34q-64 -39 -128 -164l-273 -525h-87z" />
    <glyph glyph-name="uni0475" unicode="&#x475;" horiz-adv-x="500" 
d="M137 0l-94 546h62l79 -516l164 345q32 66 69 114.5t68 68.5l37 -33q-70 -45 -137 -190l-160 -335h-88z" />
    <glyph glyph-name="uni048A" unicode="&#x48a;" horiz-adv-x="782" 
d="M560 87l45 431l14 110l-41 -62l-445 -566h-60l75 707h59l-54 -518l-14 -110l69 107l417 521h60l-63 -605q-3 -30 14 -41t47 -11h61l-112 -203h-65l87 153q-45 0 -71.5 22.5t-22.5 64.5zM430 759q-102 0 -151 79l39 33q40 -58 117 -58q75 0 126 58l33 -33
q-66 -79 -164 -79z" />
    <glyph glyph-name="uni048B" unicode="&#x48b;" horiz-adv-x="512" 
d="M158 -11q-53 0 -75.5 26.5t-22.5 82.5q0 22 3 47l43 401h56l-42 -379q-4 -35 -4 -64q0 -38 11.5 -52.5t40.5 -14.5q33 0 68.5 19t59 40t61.5 60l42 391h56l-58 -546q-57 -29 -57 -70q0 -18 11 -27t22 -11t30 -2l-8 -57q-48 0 -79.5 24.5t-31.5 63.5q0 55 59 105l8 72
q-54 -55 -96.5 -82t-96.5 -27zM264 661q-46 0 -101 87l45 31q46 -66 70 -66q67 0 152 68l23 -30q-103 -90 -189 -90z" />
    <glyph glyph-name="uni048C" unicode="&#x48c;" horiz-adv-x="596" 
d="M172 707h60l-12 -113h144l-5 -52h-145l-13 -125h112q238 0 238 -184q0 -10 -2 -30q-10 -90 -71 -146.5t-157 -56.5h-222l56 542h-83l5 52h83zM307 365h-111l-33 -316h142q79 0 125.5 42t54.5 117q1 9 1 25q0 132 -179 132z" />
    <glyph glyph-name="uni048D" unicode="&#x48d;" horiz-adv-x="469" 
d="M46 424l4 42h79l13 80h55l-12 -80h102l-4 -42h-104l-18 -128q38 28 56 40.5t50.5 26t60.5 13.5q95 0 95 -115q0 -119 -68 -193.5t-163 -74.5q-65 0 -132 25l63 406h-77zM199 43q69 0 117.5 56.5t48.5 162.5q0 63 -51 63q-24 0 -57.5 -16t-50.5 -28t-54 -40l-28 -184
q31 -14 75 -14z" />
    <glyph glyph-name="uni048E" unicode="&#x48e;" horiz-adv-x="600" 
d="M73 0l75 707h219q92 0 145 -46.5t53 -137.5q0 -130 -91 -195l60 -67l-40 -38l-69 77q-64 -26 -150 -26h-113l-28 -274h-61zM347 388l41 38l52 -60q60 51 60 154q0 138 -160 138h-137l-35 -332h141q47 0 82 13z" />
    <glyph glyph-name="uni048F" unicode="&#x48f;" horiz-adv-x="527" 
d="M26 -220l83 766h55l-8 -85q119 85 204 85q115 0 115 -155q0 -93 -32 -184.5t-93 -148.5l57 -54l-35 -39l-65 61q-55 -33 -123 -33q-32 0 -78 8l-24 -221h-56zM230 99l38 39l47 -46q52 49 77 134t25 166q0 60 -17.5 81.5t-53.5 21.5q-69 0 -197 -88l-37 -352q9 -2 21 -4.5
t18.5 -4t17 -2.5t22.5 -1q45 0 79 18z" />
    <glyph glyph-name="uni0490" unicode="&#x490;" horiz-adv-x="498" 
d="M73 0l75 707h327l16 161h60l-21 -214h-328l-69 -654h-60z" />
    <glyph glyph-name="uni0491" unicode="&#x491;" horiz-adv-x="369" 
d="M50 0l59 546h222l12 114h56l-17 -163h-222l-54 -497h-56z" />
    <glyph glyph-name="uni0492" unicode="&#x492;" horiz-adv-x="529" 
d="M62 326l6 53h68l35 328h387l-5 -53h-328l-29 -275h189l-6 -53h-189l-34 -326h-60l34 326h-68z" />
    <glyph glyph-name="uni0493" unicode="&#x493;" horiz-adv-x="424" 
d="M62 245l6 52h121q35 24 51.5 36t39.5 32.5t32.5 39t9.5 38.5q0 64 -73 64q-10 0 -21 -2t-19 -3.5t-19.5 -7t-17.5 -8t-18 -10l-16 -10t-17.5 -11.5t-15.5 -11l-26 40q82 71 183 71q51 0 82 -27.5t31 -83.5q0 -43 -25.5 -77.5t-72.5 -69.5h60l-6 -52h-127q-58 -42 -87 -72
t-29 -62q0 -40 20.5 -54.5t55.5 -14.5q58 0 170 81l28 -39q-43 -37 -99 -65t-105 -28q-55 0 -89.5 30.5t-34.5 84.5q0 71 82 139h-54z" />
    <glyph glyph-name="uni0494" unicode="&#x494;" horiz-adv-x="610" 
d="M267 -220l-34 46q72 53 107 86q149 146 150 312q0 142 -130 142q-99 0 -194 -50l-34 -316h-59l74 707h351l-6 -53h-291l-29 -281q122 45 208 45q88 0 130.5 -50.5t42.5 -138.5q0 -248 -286 -449z" />
    <glyph glyph-name="uni0495" unicode="&#x495;" horiz-adv-x="496" 
d="M50 0l59 546h278l-5 -50h-222l-23 -212q109 112 203 112q95 0 95 -166q0 -61 -11.5 -117.5t-25 -95t-44.5 -88t-48.5 -73.5t-57.5 -76l-44 37q52 57 86 108t61 129t27 163q0 69 -12.5 98.5t-46.5 29.5q-31 0 -96 -43.5t-92 -73.5l-25 -228h-56z" />
    <glyph glyph-name="uni0496" unicode="&#x496;" horiz-adv-x="880" 
d="M43 -20l-53 37l312 366l-223 324h68l218 -326l-2 -19zM362 0l74 707h59l-73 -707h-60zM848 50l-23 -203h-59l17 153q-22 0 -41 11.5t-28.5 23t-22.5 31.5l-196 296l2 19l286 326h76l-300 -327l190 -285q31 -45 63 -45h36z" />
    <glyph glyph-name="uni0497" unicode="&#x497;" horiz-adv-x="749" 
d="M41 -17l-54 30l245 282l-168 251h71l161 -258zM297 0l57 546h57l-58 -546h-56zM484 288l131 -193q31 -45 66 -45h36l-20 -187h-56l14 137q-22 0 -41 11.5t-29 23t-23 31.5l-146 222l213 258h71z" />
    <glyph glyph-name="uni0498" unicode="&#x498;" horiz-adv-x="524" 
d="M194 -8q-102 0 -185 39l25 51q72 -36 163 -36q79 0 131.5 34.5t60.5 111.5q8 73 -40 105t-136 32h-65l6 52h65q74 0 120.5 38t53.5 106q7 66 -27.5 101t-102.5 35q-57 0 -148 -32l-13 44q86 38 172 38q93 0 141.5 -48t40.5 -125q-5 -42 -21.5 -76t-39 -54.5t-38.5 -31
t-31 -16.5v-2q138 -36 125 -161q-4 -38 -20 -72.5t-45.5 -65t-79 -49t-112.5 -18.5zM158 -229l-15 31q56 33 62 79q2 25 -18 68h62q16 -30 13 -63q-6 -75 -104 -115z" />
    <glyph glyph-name="uni0499" unicode="&#x499;" horiz-adv-x="412" 
d="M146 -9q-79 0 -145 26l17 47q60 -23 120 -23q77 0 115.5 33t38.5 82q0 103 -155 106l-5 42q71 16 119 56t48 85q0 30 -24.5 44.5t-84.5 14.5q-51 0 -105 -15l-13 46q55 20 128 20q74 0 114.5 -28t40.5 -78q0 -46 -36 -88t-96 -67q121 -23 121 -135q0 -71 -53 -119.5
t-145 -48.5zM95 -229l-15 31q56 33 62 79q2 25 -18 68h62q16 -30 13 -63q-6 -75 -104 -115z" />
    <glyph glyph-name="uni049A" unicode="&#x49a;" horiz-adv-x="607" 
d="M510 0q-22 0 -41 11.5t-28.5 23t-22.5 31.5l-211 299l2 20l308 322h77l-320 -326l202 -286q31 -45 63 -45h36l-23 -203h-59zM73 0l75 707h59l-74 -707h-60z" />
    <glyph glyph-name="uni049B" unicode="&#x49b;" horiz-adv-x="488" 
d="M388 0q-22 0 -41 11.5t-29 23t-23 31.5l-125 222l213 258h71l-216 -258l110 -193q31 -45 66 -45h36l-20 -187h-56zM51 0l57 546h57l-58 -546h-56z" />
    <glyph glyph-name="uni049C" unicode="&#x49c;" horiz-adv-x="604" 
d="M500 -21l-234 386l2 20l268 322h77l-290 -326l228 -367zM73 0l75 707h59l-74 -707h-60zM201 277l19 183h46l-19 -183h-46z" />
    <glyph glyph-name="uni049D" unicode="&#x49d;" horiz-adv-x="494" 
d="M385 -17l-161 305l193 258h71l-204 -258l154 -275zM51 0l57 546h57l-58 -546h-56zM163 197l19 174h46l-19 -174h-46z" />
    <glyph glyph-name="uni049E" unicode="&#x49e;" horiz-adv-x="610" 
d="M505 -13l-269 378l2 20l308 322h77l-320 -326l255 -362zM65 552l5 48h95l12 107h59l-11 -107h112l-5 -48h-112l-58 -552h-60l58 552h-95z" />
    <glyph glyph-name="uni049F" unicode="&#x49f;" horiz-adv-x="489" 
d="M50 566l4 42h83l15 146h57l-16 -146h98l-4 -42h-98l-60 -566h-56l59 566h-82zM393 -17l-201 308l203 255h70l-205 -255l186 -278z" />
    <glyph glyph-name="uni04A0" unicode="&#x4a0;" horiz-adv-x="662" 
d="M557 -13l-269 378l2 20l308 322h77l-320 -326l255 -362zM33 654l6 53h249l-74 -707h-60l69 654h-190z" />
    <glyph glyph-name="uni04A1" unicode="&#x4a1;" horiz-adv-x="564" 
d="M15 496l5 50h239l-58 -546h-56l52 496h-182zM465 -17l-201 305l213 258h71l-216 -258l186 -275z" />
    <glyph glyph-name="uni04A2" unicode="&#x4a2;" horiz-adv-x="758" 
d="M542 82l24 247h-398l-35 -329h-60l75 707h59l-34 -327h398l34 328h60l-65 -613q-1 -13 2 -21.5t8.5 -13t16 -7t17.5 -3t19 -0.5h36l-23 -203h-59l17 153q-40 0 -68 21t-24 61z" />
    <glyph glyph-name="uni04A3" unicode="&#x4a3;" horiz-adv-x="546" 
d="M458 546l-48 -443q-3 -33 11.5 -43t43.5 -10h36l-20 -187h-56l14 137q-39 0 -65 22.5t-22 64.5l19 178l-239 -19l-26 -246h-56l59 546h56l-27 -246l239 19l25 227h56z" />
    <glyph glyph-name="uni04A4" unicode="&#x4a4;" horiz-adv-x="824" 
d="M73 0l75 707h59l-34 -327h398l34 327h15v1h253l-5 -54h-209l-68 -654h-60l35 329h-398l-35 -329h-60z" />
    <glyph glyph-name="uni04A5" unicode="&#x4a5;" horiz-adv-x="590" 
d="M50 0l59 546h56l-27 -246l239 19l25 227h210l-5 -50h-155l-53 -496h-56l28 265l-239 -19l-26 -246h-56z" />
    <glyph glyph-name="uni04A6" unicode="&#x4a6;" horiz-adv-x="749" 
d="M655 708l-64 -613q-1 -13 2 -21.5t8.5 -13t16 -7t17.5 -3t19 -0.5h36l-23 -203h-59l17 153q-40 0 -69.5 21t-25.5 61l60 574h-388l-69 -656h-60l75 708h507z" />
    <glyph glyph-name="uni04A7" unicode="&#x4a7;" horiz-adv-x="541" 
d="M278 661q-46 0 -101 87l45 31q46 -66 70 -66q67 0 152 68l23 -30q-103 -90 -189 -90zM419 -137l14 137q-49 0 -67 17t-18 48q0 17 3 33q-29 -30 -50 -48.5t-62.5 -39.5t-80.5 -21q-53 0 -75.5 26.5t-22.5 82.5q0 22 3 47l43 401h56l-42 -379q-5 -47 -5 -68
q0 -35 11.5 -49t41.5 -14q11 0 23 2.5t25 8.5t23.5 11.5t24 16t21.5 16t22 18t18.5 16.5t18.5 17l13 13l42 391h56l-46 -430q-2 -26 -2 -32q0 -20 10 -26t42 -8h36l-20 -187h-56z" />
    <glyph glyph-name="uni04A8" unicode="&#x4a8;" horiz-adv-x="771" 
d="M368 -12q-144 0 -223.5 86t-79.5 238q0 188 108 296.5t293 108.5q121 0 197 -39l-25 -51q-72 39 -188 39q-150 0 -237 -97t-87 -248q0 -128 56 -201t168 -80q-39 76 -39 171q0 112 60 184.5t177 72.5q77 0 126.5 -54t49.5 -132q0 -107 -73.5 -186.5t-199.5 -100.5
q76 -76 188 -76q45 0 104 17l5 -47q-56 -21 -122 -21q-72 0 -135.5 31.5t-107.5 88.5h-15zM367 217q0 -100 48 -177q126 10 189 75.5t64 158.5q1 69 -39.5 106.5t-94.5 37.5q-86 0 -126.5 -59t-40.5 -142z" />
    <glyph glyph-name="uni04A9" unicode="&#x4a9;" horiz-adv-x="505" 
d="M210 -12q-162 0 -162 198q0 71 14.5 135.5t43.5 119t80 87t118 32.5q82 0 139 -32l-24 -47q-65 30 -123 30q-85 0 -137 -88.5t-52 -217.5q0 -81 21.5 -122.5t73.5 -46.5q-10 42 -10 86q0 251 149 251q50 0 80.5 -32.5t30.5 -92.5q0 -102 -48.5 -165t-122.5 -84
q39 -58 114 -58q44 0 93 14l16 -44q-56 -21 -122 -21q-111 0 -162 98h-10zM249 129q0 -54 13 -90q67 13 100 68t33 132q0 48 -15 67.5t-45 19.5q-86 0 -86 -197z" />
    <glyph glyph-name="uni04AA" unicode="&#x4aa;" horiz-adv-x="625" 
d="M323 -229l-15 31q56 33 62 79q2 25 -18 68h62q16 -30 13 -63q-6 -75 -104 -115zM375 -10q-143 0 -226.5 88t-83.5 234q0 179 103 290t280 111q97 0 158 -27l-22 -49q-63 23 -139 23q-152 0 -235 -95t-83 -252q0 -129 72.5 -198.5t200.5 -69.5q84 0 150 22l12 -52
q-80 -25 -187 -25z" />
    <glyph glyph-name="uni04AB" unicode="&#x4ab;" horiz-adv-x="444" 
d="M165 -12q-34 0 -58.5 20t-37 51.5t-18 62.5t-5.5 61q0 161 70.5 269t189.5 108q74 0 122 -50l-35 -34q-42 35 -93 35q-54 0 -94 -32t-60.5 -82.5t-30 -101t-9.5 -100.5q0 -72 18.5 -113t42.5 -41q77 0 190 60l21 -42q-37 -22 -60.5 -34t-66.5 -24.5t-86 -12.5zM142 -229
l-15 31q56 33 62 79q2 25 -18 68h62q16 -30 13 -63q-6 -75 -104 -115z" />
    <glyph glyph-name="uni04AC" unicode="&#x4ac;" horiz-adv-x="564" 
d="M223 82l61 572h-246l6 53h552l-6 -53h-246l-59 -559q-1 -13 2 -21.5t8.5 -13t16 -7t17.5 -3t19 -0.5h36l-23 -203h-59l17 153q-40 0 -70 21t-26 61z" />
    <glyph glyph-name="uni04AD" unicode="&#x4ad;" horiz-adv-x="817" 
d="M625 87l32 294q5 43 5 64q0 36 -12 50t-42 14q-24 0 -52 -14.5t-49.5 -32t-73.5 -62.5l-43 -400h-56l42 381q5 43 5 64q0 36 -11.5 49t-41.5 13q-31 0 -68.5 -25t-110.5 -90l-42 -392h-56l57 546h57l-10 -97q37 34 57 51t61.5 38.5t77.5 21.5q50 0 70.5 -25t17.5 -76
q56 50 100 75.5t93 25.5q48 0 67 -24.5t19 -76.5q0 -33 -4 -65l-31 -291q-3 -33 11.5 -43t43.5 -10h36l-20 -187h-56l14 137q-39 0 -65 22.5t-22 64.5z" />
    <glyph glyph-name="uni04AE" unicode="&#x4ae;" horiz-adv-x="512" 
d="M185 0l29 284l-177 423h65l149 -371l243 371h63l-283 -423l-30 -284h-59z" />
    <glyph glyph-name="uni04AF" unicode="&#x4af;" horiz-adv-x="450" 
d="M127 -220l23 224l-110 542h62l86 -469l151 286q47 101 47 171q0 2 -0.5 6t-0.5 6h56v-12q0 -74 -48 -175l-187 -355l-23 -224h-56z" />
    <glyph glyph-name="uni04B0" unicode="&#x4b0;" horiz-adv-x="544" 
d="M82 229l6 53h142v2l-177 423h65l149 -371l243 371h63l-283 -423v-2h151l-6 -53h-151l-24 -229h-59l23 229h-142z" />
    <glyph glyph-name="uni04B1" unicode="&#x4b1;" horiz-adv-x="471" 
d="M39 0l6 52h107l-100 494h62l86 -469l151 286q47 101 47 171q0 2 -0.5 6t-0.5 6h56v-12q0 -74 -48 -175l-162 -307h121l-6 -52h-141l-22 -220h-56l22 220h-122z" />
    <glyph glyph-name="uni04B2" unicode="&#x4b2;" horiz-adv-x="603" 
d="M409 75l-119 250l-244 -325h-69l289 376l-157 331h65l132 -285l211 285h65l-253 -331l130 -269q15 -30 31 -43.5t38 -13.5h36l-23 -203h-59l17 153q-56 0 -90 75z" />
    <glyph glyph-name="uni04B3" unicode="&#x4b3;" horiz-adv-x="460" 
d="M248 291l76 -179q15 -36 27 -49t34 -13h36l-20 -187h-56l14 137q-32 0 -49 21.5t-38 71.5l-60 149l-174 -242h-63l215 294l-109 252h60l86 -205l145 205h62z" />
    <glyph glyph-name="uni04B4" unicode="&#x4b4;" horiz-adv-x="881" 
d="M591 654h-246l-62 -602h382l68 655h59l-68 -655h88l-21 -205h-60l16 153h-530l68 654h-246l6 53h552z" />
    <glyph glyph-name="uni04B5" unicode="&#x4b5;" horiz-adv-x="612" 
d="M22 495l5 51h206l-42 -379q-5 -47 -5 -68q0 -35 11.5 -49t41.5 -14q11 0 23 2.5t25 8.5t23.5 11.5t24 16t21.5 16t22 18t18.5 16.5t17.5 17l14 13l42 391h56l-46 -430q-2 -26 -2 -32q0 -20 10 -26t42 -8h36l-20 -187h-56l14 137q-49 0 -67 17t-18 48q0 17 3 33
q-29 -30 -50 -48.5t-62.5 -39.5t-80.5 -21q-53 0 -75.5 26.5t-22.5 82.5q0 22 3 47l37 350h-149z" />
    <glyph glyph-name="uni04B6" unicode="&#x4b6;" horiz-adv-x="650" 
d="M430 82l27 252q-100 -45 -202 -45q-188 0 -188 150q0 10 2 32l24 236h59l-25 -247q-1 -6 -1 -17q0 -103 142 -103q100 0 195 51l33 316h60l-64 -612q-1 -13 2 -21.5t8.5 -13t16 -7t17.5 -3t19 -0.5h36l-23 -203h-59l17 153q-40 0 -70 21t-26 61z" />
    <glyph glyph-name="uni04B7" unicode="&#x4b7;" horiz-adv-x="496" 
d="M406 546l-45 -438q-6 -58 55 -58h36l-20 -187h-56l14 137q-38 0 -63.5 25.5t-21.5 68.5l20 193q-104 -92 -188 -92q-50 0 -68 20.5t-18 66.5q0 17 6 79l19 185h56l-18 -172q-7 -61 -7 -80q0 -27 11 -37.5t41 -10.5q37 0 172 97l20 203h55z" />
    <glyph glyph-name="uni04B8" unicode="&#x4b8;" horiz-adv-x="619" 
d="M423 0l34 334q-77 -36 -160 -43l-6 -65h-46l6 63q-184 1 -184 150q0 10 2 32l24 236h59l-25 -247q-1 -6 -1 -17q0 -100 131 -103l7 69h46l-7 -67q86 9 160 49l33 316h60l-74 -707h-59z" />
    <glyph glyph-name="uni04B9" unicode="&#x4b9;" horiz-adv-x="464" 
d="M295 0l30 287q-55 -48 -100 -69l-7 -70h-46l5 52q-16 -5 -40 -5q-50 0 -68 20.5t-18 66.5q0 17 6 79l19 185h56l-18 -172q-7 -61 -7 -80q0 -27 11 -37.5t41 -10.5q9 0 24 5l8 80h46l-6 -56q39 23 100 68l20 203h55l-56 -546h-55z" />
    <glyph glyph-name="uni04BA" unicode="&#x4ba;" horiz-adv-x="620" 
d="M73 0l74 707h60l-33 -324q108 45 211 45q178 0 178 -149q0 -11 -2 -33l-26 -246h-59l27 257q1 6 1 17q0 103 -152 103q-35 0 -87 -13.5t-97 -37.5l-36 -326h-59z" />
    <glyph glyph-name="uni04BB" unicode="&#x4bb;" horiz-adv-x="511" 
d="M50 0l80 754h57l-33 -306q4 3 19.5 16.5t20 17.5t18.5 15.5t19.5 15.5t18.5 12.5t20.5 12t19.5 9t21.5 7.5t21.5 4t24 2q49 0 69 -25t20 -78q0 -31 -4 -63l-43 -394h-56l42 381q4 32 4 61q0 36 -11 51t-39 15q-32 0 -72.5 -25t-118.5 -91l-42 -392h-56z" />
    <glyph glyph-name="uni04BC" unicode="&#x4bc;" horiz-adv-x="916" 
d="M595 717q136 0 205.5 -80t69.5 -211q0 -19 -8 -93h-575q0 -148 60 -221t187 -73q75 0 148 19t117 40l11 -47q-50 -25 -128 -44t-163 -19q-135 0 -213.5 82.5t-78.5 229.5q0 22 1 33h-23q-158 0 -158 117q0 52 34 131h52q-33 -72 -33 -119q0 -41 25 -59.5t89 -18.5h19
q21 150 114.5 241.5t247.5 91.5zM586 666q-254 0 -293 -282h517q0 4 0.5 13t0.5 13q0 53 -12.5 98t-38 81t-70.5 56.5t-104 20.5z" />
    <glyph glyph-name="uni04BD" unicode="&#x4bd;" horiz-adv-x="551" 
d="M263 -12q-63 0 -91 56.5t-28 145.5v28q-10 -3 -31 -3q-79 0 -79 90q0 48 21 111h52q-21 -60 -21 -101q0 -28 7 -39.5t25 -11.5q22 0 30 2q16 130 81 212.5t168 82.5q63 0 94.5 -33.5t31.5 -85.5q0 -88 -132 -138l-188 -72q-1 -10 -1 -31q0 -160 68 -160q65 0 173 54
l20 -45q-84 -44 -130 -54q-35 -8 -70 -8zM208 286l168 67q91 36 91 87q0 37 -21 53.5t-52 16.5q-149 0 -186 -224z" />
    <glyph glyph-name="uni04BE" unicode="&#x4be;" horiz-adv-x="916" 
d="M627 -161l11 -44q-32 -13 -78 -13t-69.5 24t-23.5 65q0 61 79 118q-9 -1 -27 -1q-135 0 -213.5 82.5t-78.5 229.5q0 22 1 33h-23q-158 0 -158 117q0 52 34 131h52q-33 -72 -33 -119q0 -41 25 -59.5t89 -18.5h19q21 150 114.5 241.5t247.5 91.5q136 0 205.5 -80t69.5 -211
q0 -19 -8 -93h-575q0 -148 60 -221t187 -73q75 0 148 19t117 40l11 -47q-75 -36 -170 -52q-117 -67 -117 -119q0 -50 53 -50q22 0 51 9zM586 666q-254 0 -293 -282h517q0 4 0.5 13t0.5 13q0 53 -12.5 98t-38 81t-70.5 56.5t-104 20.5z" />
    <glyph glyph-name="uni04BF" unicode="&#x4bf;" horiz-adv-x="552" 
d="M327 -161l11 -44q-32 -13 -78 -13t-69.5 24t-23.5 65q0 62 80 118q-102 14 -102 201v28q-10 -3 -31 -3q-79 0 -79 90q0 48 21 111h52q-21 -60 -21 -101q0 -28 7 -39.5t25 -11.5q22 0 30 2q16 130 81 212.5t168 82.5q63 0 94.5 -33.5t31.5 -85.5q0 -88 -132 -138l-188 -72
q-1 -10 -1 -31q0 -160 68 -160q65 0 173 54l20 -45q-85 -44 -129 -54q-112 -65 -112 -116q0 -50 53 -50q22 0 51 9zM209 286l168 67q91 36 91 87q0 37 -21 53.5t-52 16.5q-149 0 -186 -224z" />
    <glyph glyph-name="uni04C0" unicode="&#x4c0;" horiz-adv-x="270" 
d="M73 0l75 707h59l-74 -707h-60z" />
    <glyph glyph-name="uni04C1" unicode="&#x4c1;" horiz-adv-x="852" 
d="M474 759q-102 0 -151 79l39 33q40 -58 117 -58q75 0 126 58l33 -33q-66 -79 -164 -79zM43 -20l-53 37l312 366l-223 324h68l218 -326l-2 -19zM748 -20l-253 382l2 19l286 326h76l-300 -327l242 -363zM362 0l74 707h59l-73 -707h-60z" />
    <glyph glyph-name="uni04C2" unicode="&#x4c2;" horiz-adv-x="716" 
d="M363 661q-46 0 -101 87l45 31q46 -66 70 -66q67 0 152 68l23 -30q-103 -90 -189 -90zM41 -17l-54 30l245 282l-168 251h71l161 -258zM297 0l57 546h57l-58 -546h-56zM617 -17l-201 305l213 258h71l-216 -258l186 -275z" />
    <glyph glyph-name="uni04C3" unicode="&#x4c3;" horiz-adv-x="600" 
d="M594 707l-320 -326q127 -18 187 -77.5t60 -145.5q0 -198 -231 -390l-34 36q101 85 153.5 174t52.5 168q0 84 -64 133.5t-195 55.5l6 50l308 322h77zM73 0l75 707h59l-74 -707h-60z" />
    <glyph glyph-name="uni04C4" unicode="&#x4c4;" horiz-adv-x="503" 
d="M454 546l-202 -236q40 7 64 7q125 0 125 -154q0 -168 -245 -381l-36 39q85 70 154.5 162t69.5 169q0 73 -22 94.5t-68 21.5q-59 0 -116 -15l-8 35l213 258h71zM51 0l57 546h57l-58 -546h-56z" />
    <glyph glyph-name="uni04C5" unicode="&#x4c5;" horiz-adv-x="678" 
d="M457 87l58 568h-231q-6 -33 -18.5 -100t-19 -98t-17 -83.5t-18.5 -82t-18.5 -66t-21.5 -63t-23 -47.5q-55 -94 -151 -137l-26 55q39 18 72.5 48t52.5 61q65 106 137 565h348l-62 -605q-3 -30 14 -41t47 -11h61l-112 -203h-65l87 153q-45 0 -71.5 22.5t-22.5 64.5z" />
    <glyph glyph-name="uni04C6" unicode="&#x4c6;" horiz-adv-x="441" 
d="M341 546l14 -546q-57 -29 -57 -70q0 -18 11 -27t22 -11t30 -2l-8 -57q-48 0 -79.5 24.5t-31.5 63.5q0 50 56 97l-7 478h-25l-161 -313q-47 -96 -47 -172v-11h-55v11q0 78 48 176l188 359h102z" />
    <glyph glyph-name="uni04C7" unicode="&#x4c7;" horiz-adv-x="726" 
d="M665 708l-59 -555q-13 -127 -57.5 -206t-153.5 -130l-24 44q91 47 128 114.5t48 176.5l19 177h-398l-35 -329h-60l75 707h59l-34 -327h398l34 328h60z" />
    <glyph glyph-name="uni04C8" unicode="&#x4c8;" horiz-adv-x="514" 
d="M397 -22q-11 -108 -59.5 -153t-127.5 -45q-35 0 -62 10l13 51q33 -10 60 -10q63 0 87.5 37t32.5 111l30 286l-239 -19l-26 -246h-56l59 546h56l-27 -246l239 19l25 227h56z" />
    <glyph glyph-name="uni04C9" unicode="&#x4c9;" horiz-adv-x="762" 
d="M665 708l-62 -606q-3 -30 14 -41t47 -11h61l-112 -203h-65l87 153q-45 0 -71.5 22.5t-22.5 64.5l25 242h-398l-35 -329h-60l75 707h59l-34 -327h398l34 328h60z" />
    <glyph glyph-name="uni04CA" unicode="&#x4ca;" horiz-adv-x="514" 
d="M346 26l25 239l-239 -19l-26 -246h-56l59 546h56l-27 -246l239 19l25 227h56l-59 -546q-57 -29 -57 -70q0 -18 11 -27t22 -11t30 -2l-8 -57q-48 0 -79.5 24.5t-31.5 63.5q0 54 60 105z" />
    <glyph glyph-name="uni04CB" unicode="&#x4cb;" horiz-adv-x="618" 
d="M340 52h55q33 0 37 38l25 244q-100 -45 -202 -45q-188 0 -188 150q0 10 2 32l24 236h59l-25 -247q-1 -6 -1 -17q0 -103 142 -103q100 0 195 51l33 316h60l-65 -620q-3 -32 -26 -59.5t-55 -27.5h-16l-16 -153h-59z" />
    <glyph glyph-name="uni04CC" unicode="&#x4cc;" horiz-adv-x="464" 
d="M168 -136l35 136h49l-19 -136h-65zM295 0l30 287q-104 -92 -188 -92q-50 0 -68 20.5t-18 66.5q0 17 6 79l19 185h56l-18 -172q-7 -61 -7 -80q0 -27 11 -37.5t41 -10.5q37 0 172 97l20 203h55l-56 -546h-55z" />
    <glyph glyph-name="uni04CD" unicode="&#x4cd;" horiz-adv-x="905" 
d="M691 87l31 556l-291 -643h-105l-54 644l-200 -644h-59l225 707h88l57 -683l310 683h88l-30 -605q-1 -30 15.5 -41t45.5 -11h61l-112 -203h-65l87 153q-44 0 -69 22.5t-23 64.5z" />
    <glyph glyph-name="uni04CE" unicode="&#x4ce;" horiz-adv-x="728" 
d="M535 87l45 430l-239 -517h-87l-37 516l-108 -333q-32 -98 -32 -172v-11h-55v11q0 77 33 176l121 359h93l34 -516l238 516h98l-46 -443q-3 -33 11.5 -43t43.5 -10h36l-20 -187h-56l14 137q-39 0 -65 22.5t-22 64.5z" />
    <glyph glyph-name="uni04CF" unicode="&#x4cf;" horiz-adv-x="221" 
d="M50 0l79 754h57l-80 -754h-56z" />
    <glyph glyph-name="uni04D0" unicode="&#x4d0;" horiz-adv-x="621" 
d="M-30 0l352 707h97l144 -707h-62l-55 279h-276l-138 -279h-62zM195 330h241l-60 306l-9 44l-22 -45zM370 759q-102 0 -151 79l39 33q40 -58 117 -58q75 0 126 58l33 -33q-66 -79 -164 -79z" />
    <glyph glyph-name="uni04D1" unicode="&#x4d1;" horiz-adv-x="499" 
d="M138 -13q-50 0 -76 44t-26 115q0 64 21.5 133.5t60 130.5t100.5 100.5t134 39.5q57 0 90 -7l-56 -543h-57l12 107q-67 -61 -115 -90.5t-88 -29.5zM150 42q34 0 97 47t100 84l35 325q-9 2 -41 2q-58 0 -107 -35t-78.5 -88.5t-46 -112.5t-16.5 -112q0 -49 14.5 -79.5
t42.5 -30.5zM305 661q-46 0 -101 87l45 31q46 -66 70 -66q67 0 152 68l23 -30q-103 -90 -189 -90z" />
    <glyph glyph-name="uni04D2" unicode="&#x4d2;" horiz-adv-x="621" 
d="M-30 0l352 707h97l144 -707h-62l-55 279h-276l-138 -279h-62zM195 330h241l-60 306l-9 44l-22 -45zM254 764l8 78h57l-8 -78h-57zM452 764l8 78h57l-8 -78h-57z" />
    <glyph glyph-name="uni04D3" unicode="&#x4d3;" horiz-adv-x="499" 
d="M138 -13q-50 0 -76 44t-26 115q0 64 21.5 133.5t60 130.5t100.5 100.5t134 39.5q57 0 90 -7l-56 -543h-57l12 107q-67 -61 -115 -90.5t-88 -29.5zM150 42q34 0 97 47t100 84l35 325q-9 2 -41 2q-58 0 -107 -35t-78.5 -88.5t-46 -112.5t-16.5 -112q0 -49 14.5 -79.5
t42.5 -30.5zM204 676l8 78h57l-8 -78h-57zM391 676l8 78h57l-8 -78h-57z" />
    <glyph glyph-name="uni04D4" unicode="&#x4d4;" horiz-adv-x="899" 
d="M-40 0l474 707h428l-5 -50h-318l-29 -276h297l-6 -52h-296l-30 -279h342l-5 -50h-401l35 329h-204l-214 -329h-68zM276 381h175l29 276h-24z" />
    <glyph glyph-name="uni04D5" unicode="&#x4d5;" horiz-adv-x="756" 
d="M140 -13q-49 0 -74 49t-25 128q0 165 89.5 275.5t222.5 110.5q42 0 90 -8l-9 -70q66 89 168 89q126 0 126 -119q0 -88 -132 -138l-188 -72q0 -6 -0.5 -16.5t-0.5 -15.5q0 -159 69 -159q54 0 171 54l21 -45q-2 -1 -15.5 -8t-17 -9t-16.5 -8.5t-18.5 -8.5t-18.5 -7t-21 -7
t-20.5 -5.5t-23 -5t-23.5 -2.5t-26 -1q-95 0 -112 129q-135 -130 -216 -130zM152 42q34 0 95.5 46.5t99.5 84.5l35 324l-49 2q-63 2 -118.5 -45.5t-86.5 -120.5t-31 -148q0 -84 14 -113.5t41 -29.5zM414 286l167 67q91 36 91 87q0 37 -21 53.5t-52 16.5q-44 0 -78.5 -19.5
t-55 -54t-32.5 -71t-19 -79.5z" />
    <glyph glyph-name="uni04D6" unicode="&#x4d6;" horiz-adv-x="562" 
d="M73 0l75 707h377l-5 -50h-318l-29 -276h296l-5 -52h-296l-30 -279h342l-5 -50h-402zM354 759q-102 0 -151 79l39 33q40 -58 117 -58q75 0 126 58l33 -33q-66 -79 -164 -79z" />
    <glyph glyph-name="uni04D7" unicode="&#x4d7;" horiz-adv-x="456" 
d="M168 -12q-63 0 -91 56.5t-28 145.5q0 159 67.5 265t185.5 106q63 0 94.5 -33.5t31.5 -85.5q0 -88 -132 -138l-188 -72q-1 -10 -1 -31q0 -160 68 -160q65 0 173 54l20 -45q-84 -44 -130 -54q-35 -8 -70 -8zM113 286l168 67q91 36 91 87q0 37 -21 53.5t-52 16.5
q-149 0 -186 -224zM290 661q-46 0 -101 87l45 31q46 -66 70 -66q67 0 152 68l23 -30q-103 -90 -189 -90z" />
    <glyph glyph-name="uni04D8" unicode="&#x4d8;" horiz-adv-x="752" 
d="M329 -12q-137 0 -206 81t-69 220q0 19 8 93h575q7 128 -53 206t-184 78q-116 0 -265 -69l-11 47q149 73 291 73t212 -82t70 -221q0 -185 -96.5 -305.5t-271.5 -120.5zM338 39q133 0 203.5 78.5t89.5 213.5h-517q-1 -11 -1 -32q0 -117 54 -188.5t171 -71.5z" />
    <glyph glyph-name="uni04D9" unicode="&#x4d9;" horiz-adv-x="455" 
d="M281 561q63 0 91 -56.5t28 -145.5q0 -159 -67.5 -265t-185.5 -106q-63 0 -94.5 33.5t-31.5 85.5q0 88 132 138l188 72q1 10 1 31q0 160 -68 160q-65 0 -173 -54l-20 45q84 44 130 54q35 8 70 8zM336 263l-168 -67q-91 -36 -91 -87q0 -37 21 -53.5t52 -16.5q149 0 186 224
z" />
    <glyph glyph-name="uni04DA" unicode="&#x4da;" horiz-adv-x="752" 
d="M271 764l8 78h57l-8 -78h-57zM469 764l8 78h57l-8 -78h-57zM329 -12q-137 0 -206 81t-69 220q0 19 8 93h575q7 128 -53 206t-184 78q-116 0 -265 -69l-11 47q149 73 291 73t212 -82t70 -221q0 -185 -96.5 -305.5t-271.5 -120.5zM338 39q133 0 203.5 78.5t89.5 213.5h-517
q-1 -11 -1 -32q0 -117 54 -188.5t171 -71.5z" />
    <glyph glyph-name="uni04DB" unicode="&#x4db;" horiz-adv-x="455" 
d="M281 561q63 0 91 -56.5t28 -145.5q0 -159 -67.5 -265t-185.5 -106q-63 0 -94.5 33.5t-31.5 85.5q0 88 132 138l188 72q1 10 1 31q0 160 -68 160q-65 0 -173 -54l-20 45q84 44 130 54q35 8 70 8zM336 263l-168 -67q-91 -36 -91 -87q0 -37 21 -53.5t52 -16.5q149 0 186 224
zM145 676l8 78h57l-8 -78h-57zM332 676l8 78h57l-8 -78h-57z" />
    <glyph glyph-name="uni04DC" unicode="&#x4dc;" horiz-adv-x="852" 
d="M344 764l8 78h57l-8 -78h-57zM542 764l8 78h57l-8 -78h-57zM43 -20l-53 37l312 366l-223 324h68l218 -326l-2 -19zM748 -20l-253 382l2 19l286 326h76l-300 -327l242 -363zM362 0l74 707h59l-73 -707h-60z" />
    <glyph glyph-name="uni04DD" unicode="&#x4dd;" horiz-adv-x="716" 
d="M41 -17l-54 30l245 282l-168 251h71l161 -258zM297 0l57 546h57l-58 -546h-56zM617 -17l-201 305l213 258h71l-216 -258l186 -275zM271 676l8 78h57l-8 -78h-57zM458 676l8 78h57l-8 -78h-57z" />
    <glyph glyph-name="uni04DE" unicode="&#x4de;" horiz-adv-x="524" 
d="M156 764l8 78h57l-8 -78h-57zM354 764l8 78h57l-8 -78h-57zM194 -8q-102 0 -185 39l25 51q72 -36 163 -36q79 0 131.5 34.5t60.5 111.5q8 73 -40 105t-136 32h-65l6 52h65q74 0 120.5 38t53.5 106q7 66 -27.5 101t-102.5 35q-57 0 -148 -32l-13 44q86 38 172 38
q93 0 141.5 -48t40.5 -125q-5 -42 -21.5 -76t-39 -54.5t-38.5 -31t-31 -16.5v-2q138 -36 125 -161q-4 -38 -20 -72.5t-45.5 -65t-79 -49t-112.5 -18.5z" />
    <glyph glyph-name="uni04DF" unicode="&#x4df;" horiz-adv-x="412" 
d="M146 -9q-79 0 -145 26l17 47q60 -23 120 -23q77 0 115.5 33t38.5 82q0 103 -155 106l-5 42q71 16 119 56t48 85q0 30 -24.5 44.5t-84.5 14.5q-51 0 -105 -15l-13 46q55 20 128 20q74 0 114.5 -28t40.5 -78q0 -46 -36 -88t-96 -67q121 -23 121 -135q0 -71 -53 -119.5
t-145 -48.5zM106 676l8 78h57l-8 -78h-57zM293 676l8 78h57l-8 -78h-57z" />
    <glyph glyph-name="uni04E0" unicode="&#x4e0;" horiz-adv-x="522" 
d="M170 397l252 259h-331l5 51h392l-5 -53l-247 -252q92 -9 155.5 -60.5t63.5 -124.5q0 -101 -76.5 -165t-175.5 -64q-120 0 -190 51l26 46q28 -19 74 -33.5t85 -14.5q25 0 50 5t51.5 17.5t47 31t33.5 49t13 67.5q0 65 -63.5 105.5t-140.5 40.5q-3 0 -8.5 -0.5t-7.5 -0.5z
" />
    <glyph glyph-name="uni04E1" unicode="&#x4e1;" horiz-adv-x="437" 
d="M94 193l5 49l245 252h-309l5 52h374l-5 -53l-253 -258q87 -9 146.5 -59.5t59.5 -123.5q0 -83 -56 -146t-136.5 -94.5t-176.5 -41.5l-5 47q58 7 111.5 23.5t100.5 43t75 67.5t28 91q0 67 -62.5 105t-146.5 46z" />
    <glyph glyph-name="uni04E2" unicode="&#x4e2;" horiz-adv-x="748" 
d="M73 0l75 707h59l-54 -518l-14 -110l69 107l417 521h60l-74 -707h-60l54 518l14 110l-41 -62l-445 -566h-60zM287 765l5 48h271l-5 -48h-271z" />
    <glyph glyph-name="uni04E3" unicode="&#x4e3;" horiz-adv-x="512" 
d="M164 675l5 48h251l-5 -48h-251zM158 -11q-53 0 -75.5 26.5t-22.5 82.5q0 22 3 47l43 401h56l-42 -379q-4 -35 -4 -64q0 -38 11.5 -52.5t40.5 -14.5q33 0 68.5 19t59 40t61.5 60l42 391h56l-58 -546h-56l10 98q-54 -55 -96.5 -82t-96.5 -27z" />
    <glyph glyph-name="uni04E4" unicode="&#x4e4;" horiz-adv-x="748" 
d="M309 764l8 78h57l-8 -78h-57zM507 764l8 78h57l-8 -78h-57zM73 0l75 707h59l-54 -518l-14 -110l69 107l417 521h60l-74 -707h-60l54 518l14 110l-41 -62l-445 -566h-60z" />
    </font>
</defs>
</svg>
